<?xml version="1.0" encoding="utf-8"?>
<!-- Generator: Adobe Illustrator 16.0.0, SVG Export Plug-In . SVG Version: 6.00 Build 0)  -->
<!DOCTYPE svg PUBLIC "-//W3C//DTD SVG 1.1//EN" "http://www.w3.org/Graphics/SVG/1.1/DTD/svg11.dtd">
<svg version="1.1" id="Layer_1" xmlns="http://www.w3.org/2000/svg" xmlns:xlink="http://www.w3.org/1999/xlink" x="0px" y="0px"
	 width="500px" height="900px" viewBox="0 0 500 900" enable-background="new 0 0 500 900" xml:space="preserve">
<g>
	<path fill="none" stroke="#1E120D" stroke-width="5" stroke-miterlimit="10" d="M199.151,227.923c0,0-2.586-82.235,12.929-142.748
		c0,0,3.749-14.611,4.525-27.023c0,0,6.982-36.851,18.231-48.099c11.25-11.249,22.887,2.327,24.049,6.594
		c1.164,4.267,20.171,65.168,32.196,148.953c0,0,6.536,36.638,8.477,79.694"/>
	<path fill="none" stroke="#1E120D" stroke-width="5" stroke-miterlimit="10" d="M189.065,307.96c0,0,0.388-65.555,13.576-88.443
		c0,0,15.127-27.54,42.281-27.54c0,0,29.48-1.164,43.446,29.093c0,0,16.29,30.256,17.065,46.16c0,0,5.044,49.65,3.492,64.392
		c0,0-2.715,8.146-32.972,3.878c0,0-32.195,4.8-52.366,1.238C223.588,336.738,186.961,346.346,189.065,307.96z"/>
</g>
<g>
	<path fill="none" stroke="#1E120D" stroke-width="5" stroke-miterlimit="10" d="M10.404,362.358c0,0-1.118-49.844,8.192-80.49
		l17.844-65.941c0,0,5.042-14.353,5.042-17.845c0,0,3.88-14.74,6.595-19.006c0,0,6.594-12.414,13.964,0
		c0,0,12.802,33.747,16.292,64.391c0,0,25.725,118.154,25.337,122.422"/>
	<path fill="none" stroke="#1E120D" stroke-width="5" stroke-miterlimit="10" d="M7.024,369.922c0,0,2.068-9.697,8.857-9.697
		c0,0,10.538-1.033,20.559,26.376c0,0,8.424,20.761,20.344,20.56c5.741-0.099,10.397-2.233,20.385-19.009
		c0,0,11.249-15.903,15.516-20.559c0,0,10.086-10.86,12.413,2.716c0,0,8.921,35.686-3.491,50.427c0,0-26.377,27.928-34.523,59.737
		c0,0-2.715,19.008-15.903,24.437c0,0-8.146,4.267-19.396-19.782c0,0-20.634-31.807-24.05-66.332
		C7.735,418.795,1.659,394.101,7.024,369.922z"/>
</g>
<g>
	<path fill="none" stroke="#1E120D" stroke-width="5" stroke-miterlimit="10" d="M497.9,361.48c0,0,0.385-52.088-8.924-82.732
		l-16.1-62.258c0,0-5.042-14.353-5.042-17.843c0,0-3.88-14.74-6.595-19.007c0,0-8.339-12.8-15.708-0.387
		c0,0-10.087,24.243-16.487,60.317c0,0-20.182,67.814-22.438,123.776"/>
	<path fill="none" stroke="#1E120D" stroke-width="5" stroke-miterlimit="10" d="M499.753,372.026
		c-0.317-4.532-1.858-14.017-4.184-13.951c-6.303,0.178-14.955,11.363-19.782,17.066c-4.577,5.408-13.024,16.881-24.944,16.68
		c-5.743-0.096-13.992-2.654-25.483-16.486c0,0-9.116-14.853-15.322-14.702c-6.207,0.157-9.229,23.432-9.678,31.416
		c-0.416,7.424-0.632,19.361,4.232,25.761c4.862,6.4,14.524,10.722,24.452,27.348c5.557,9.302,8.521,20.784,11.443,32.196
		c0,0,0.74,24.74,17.65,24.777c12.604,0.023,15.922-9.709,19.975-18.377c0,0,13.75-43.286,18.349-66.875
		C500.215,397.627,500.304,379.86,499.753,372.026z"/>
</g>
<g>
	<path fill="none" stroke="#1E120D" stroke-width="5" stroke-miterlimit="10" d="M255.255,398.83
		c16.275,0.718,35.686,6.723,48.357,24.566c0,0,11.896,17.068,11.896,28.188c0,0,1.034,10.346-11.638,17.326
		c0,0-13.705,7.241-19.654,14.998c0,0-10.782,16.844-33.061,16.844c0,0-18.659,3.07-28.743-6.756c0,0-6.724-7.5-8.792-12.415
		c0,0-7.499-15.258-11.636-19.136c-4.14-3.879-16.29-17.066,0-30c16.291-12.927,23.271-20.168,24.049-22.236
		C226.033,410.209,237.672,398.053,255.255,398.83z"/>
	<g>
		<path fill="#1E120D" d="M205.605,454.946c0.139-2.083,1.063-4.137,2.434-5.817c1.36-1.715,3.21-3.008,5.175-3.989l1.513-0.66
			c0.514-0.191,1.04-0.332,1.563-0.499c1.045-0.37,2.118-0.495,3.188-0.742c0.537-0.105,1.073-0.138,1.611-0.21l0.809-0.093
			l0.405-0.04l0.203-0.02l0.101-0.01l0.025-0.003l0.105,0l0.048-0.001c1.049,0.001,2.026-0.07,3.135-0.011
			c2.304,0.132,4.493,0.482,6.58,1.066c2.065,0.564,4.036,1.237,5.914,1.734c0.951,0.29,1.894,0.438,2.837,0.667
			c0.953,0.146,1.897,0.32,2.854,0.431c0.968,0.064,1.925,0.169,2.897,0.206l2.934,0.033l2.964-0.163
			c0.986-0.021,1.982-0.149,2.978-0.26c0.995-0.115,1.989-0.209,2.985-0.34l2.992-0.462c1.997-0.275,3.991-0.689,5.989-1.063
			c1.999-0.358,3.995-0.789,5.989-1.237l3.004-0.626l0.774-0.161c0.301-0.062,0.618-0.117,0.888-0.154
			c0.565-0.081,1.12-0.145,1.677-0.18c2.22-0.175,4.446-0.036,6.611,0.433c2.153,0.476,4.28,1.185,6.154,2.348
			c1.878,1.143,3.537,2.581,4.896,4.229l0.07,0.084l0.004,0.009c0.438,0.877,0.816,1.745,1.1,2.669
			c0.14,0.46,0.253,0.931,0.32,1.408c0.033,0.239,0.048,0.482,0.039,0.724c-0.017,0.243-0.066,0.48-0.156,0.698
			c0.033-0.235,0.021-0.463-0.021-0.687c-0.051-0.225-0.108-0.441-0.19-0.655c-0.162-0.426-0.364-0.835-0.591-1.233
			c-0.458-0.787-0.965-1.568-1.515-2.272l0.073,0.094c-1.572-1.256-3.233-2.326-5.037-3.056c-1.803-0.722-3.693-1.163-5.607-1.322
			c-1.913-0.146-3.847-0.081-5.725,0.228c-0.469,0.071-0.934,0.168-1.382,0.274c-0.238,0.056-0.425,0.107-0.625,0.167l-0.726,0.219
			l-2.994,0.893c-2.002,0.576-4,1.173-6.049,1.62c-2.036,0.483-4.063,1-6.148,1.334l-3.108,0.566
			c-1.046,0.153-2.105,0.261-3.158,0.393c-2.094,0.31-4.255,0.357-6.396,0.453l-3.252-0.066c-1.086-0.064-2.179-0.213-3.266-0.319
			c-1.085-0.157-2.169-0.378-3.247-0.587c-1.049-0.298-2.14-0.533-3.149-0.89c-2.088-0.643-3.976-1.446-5.856-2.083
			c-1.851-0.65-3.718-1.133-5.52-1.406c-0.943-0.145-2.035-0.17-3.045-0.261l-1.391-0.002c-0.489,0.005-0.988-0.029-1.473,0.007
			c-1.943,0.123-3.893,0.368-5.738,0.952c-1.85,0.567-3.588,1.472-5.095,2.732c-0.757,0.627-1.422,1.372-1.998,2.194
			C206.397,453.047,205.923,453.958,205.605,454.946z"/>
	</g>
	<g>
		<path fill="#1E120D" d="M207.672,458.178c0.811,1.127,1.704,2.177,2.641,3.16c0.933,0.985,1.965,1.858,3.033,2.588
			c1.073,0.712,2.235,1.252,3.361,1.367c0.28,0.043,0.557,0.036,0.826,0.031c0.271-0.003,0.535-0.051,0.795-0.097
			c0.257-0.074,0.514-0.131,0.76-0.247c0.251-0.084,0.486-0.239,0.727-0.358l-0.375,0.269c0.585-0.624,1.121-1.122,1.71-1.645
			c0.583-0.509,1.18-1.002,1.808-1.456c1.255-0.909,2.587-1.729,4.001-2.434c0.705-0.354,1.433-0.678,2.183-0.959
			c0.746-0.288,1.516-0.542,2.306-0.731c0.788-0.2,1.597-0.34,2.415-0.445l1.238-0.109l1.25-0.021
			c0.835,0.039,1.674,0.097,2.503,0.25c0.418,0.054,0.827,0.153,1.235,0.257c0.409,0.102,0.821,0.192,1.215,0.34
			c0.396,0.14,0.8,0.262,1.188,0.42l1.143,0.517c0.74,0.377,1.479,0.771,2.16,1.23l1.021,0.693c0.329,0.242,0.638,0.505,0.958,0.757
			c0.65,0.5,1.205,1.076,1.792,1.629c0.578,0.559,1.082,1.168,1.624,1.752c0.499,0.61,0.984,1.228,1.466,1.851l-0.179-0.217
			c0.625,0.688,1.181,1.366,1.756,2.047c0.584,0.669,1.105,1.394,1.658,2.09c0.55,0.696,1.079,1.414,1.57,2.174l1.505,2.24
			l0.088,0.15c-0.053-0.094,0.043,0.071,0.093,0.124c0.061,0.081,0.133,0.158,0.205,0.236c0.151,0.15,0.314,0.281,0.491,0.385
			c0.355,0.197,0.745,0.34,1.248,0.331c0.497-0.012,1.066-0.08,1.676-0.306c0.303-0.1,0.61-0.206,0.921-0.375
			c0.311-0.15,0.626-0.286,0.933-0.493c0.313-0.195,0.613-0.363,0.943-0.579l1.045-0.688l2.101-1.371
			c1.404-0.902,2.798-1.818,4.218-2.699c1.425-0.871,2.853-1.737,4.295-2.583c1.427-0.867,2.889-1.683,4.366-2.476l2.204-1.199
			l2.265-1.106c0.757-0.36,1.49-0.757,2.29-1.048l2.339-0.919l-2.049,1.442c-0.685,0.459-1.34,0.979-2.003,1.479
			c-1.324,1.001-2.642,2.002-3.947,3.031l-3.915,3.067c-1.311,1.013-2.608,2.047-3.901,3.085l-3.917,3.059l-1.943,1.54l-0.972,0.776
			c-0.341,0.272-0.751,0.54-1.126,0.809c-0.369,0.279-0.798,0.514-1.222,0.753c-0.408,0.251-0.87,0.458-1.345,0.652
			c-0.926,0.407-2.008,0.679-3.165,0.737c-1.16,0.069-2.441-0.201-3.554-0.769c-0.558-0.284-1.07-0.645-1.53-1.058
			c-0.226-0.21-0.447-0.426-0.647-0.67c-0.217-0.265-0.363-0.439-0.628-0.89l0.088,0.149l-1.429-1.995
			c-0.24-0.332-0.468-0.669-0.719-0.995l-0.778-0.969c-0.521-0.644-1.009-1.313-1.562-1.932c-0.539-0.627-1.079-1.271-1.615-1.851
			l-0.057-0.062l-0.122-0.155l-1.247-1.589c-0.45-0.486-0.87-1.014-1.339-1.473c-0.475-0.45-0.926-0.938-1.437-1.33
			c-0.248-0.206-0.488-0.427-0.741-0.624l-0.776-0.559c-0.517-0.374-1.067-0.681-1.615-0.983l-0.841-0.411
			c-0.285-0.125-0.576-0.228-0.863-0.346c-0.285-0.129-0.584-0.203-0.881-0.292c-0.295-0.092-0.592-0.184-0.898-0.232
			c-0.603-0.145-1.221-0.212-1.842-0.275l-0.939-0.045l-0.948,0.021c-0.634,0.042-1.273,0.106-1.91,0.226
			c-0.636,0.117-1.279,0.248-1.914,0.434c-0.638,0.173-1.271,0.387-1.896,0.633c-1.253,0.486-2.48,1.092-3.662,1.791
			c-0.584,0.36-1.18,0.71-1.75,1.1c-0.56,0.378-1.151,0.811-1.621,1.197l-0.288,0.236l-0.087,0.032
			c-0.395,0.146-0.773,0.313-1.191,0.406c-0.404,0.12-0.831,0.171-1.25,0.223c-0.426,0.024-0.848,0.034-1.267-0.012
			c-0.416-0.04-0.831-0.115-1.22-0.238c-0.786-0.227-1.513-0.565-2.159-0.979c-0.65-0.411-1.236-0.881-1.775-1.382
			c-1.074-1.008-1.933-2.165-2.697-3.35C208.815,460.727,208.175,459.475,207.672,458.178z"/>
	</g>
</g>
<g>
	<path fill="none" stroke="#1E120D" stroke-width="5" stroke-miterlimit="10" d="M196.735,813.735c0,0,6.485-175.394,30.795-231.769
		c0,0,5.762-21.719,21.499-21.203c0,0,12.116,0,16.771,21.723c0,0,29.999,131.7,32.585,219.109"/>
	<path fill="none" stroke="#1E120D" stroke-width="5" stroke-miterlimit="10" d="M187.187,873.147c0,0,5.947-77.578,29.221-107.058
		c0,0,14.742-19.652,36.981-18.1c0,0,21.721-0.006,31.547,19.65c0,0,20.17,41.619,25.344,84.304c0,0,9.309,40.86-33.618,38.792
		l-12.412-2.59c0,0-14.999,11.017-41.894,2.664c0,0-5.688,2.436-22.24,3.13C200.115,893.94,185.633,899.008,187.187,873.147z"/>
	<g>
		<path fill="#1E120D" d="M293.729,866.944c0.178-1.317,0.392-2.641,0.379-3.961c0.088-1.309-0.029-2.638-0.049-3.954
			c-0.069-1.317-0.186-2.635-0.304-3.948c-0.166-1.313-0.287-2.625-0.489-3.933c-0.19-1.309-0.354-2.616-0.586-3.919
			c-0.213-1.305-0.432-2.606-0.685-3.905c-0.481-2.599-1.026-5.187-1.568-7.773c-0.565-2.582-1.155-5.159-1.797-7.72l-0.489-1.914
			l-0.124-0.476l-0.063-0.233l-0.004-0.015c-0.028-0.101,0.033,0.121,0.024,0.093l-0.01-0.029l-0.021-0.06l-0.04-0.117l-0.318-0.945
			l-0.157-0.473c-0.057-0.146-0.129-0.223-0.19-0.338c-0.127-0.212-0.247-0.425-0.361-0.642c-0.25-0.434-0.66-0.879-0.979-1.317
			c-0.8-0.805-1.659-1.572-2.688-2.178l-0.76-0.464l-0.81-0.404c-0.525-0.289-1.111-0.492-1.669-0.734
			c-1.148-0.43-2.328-0.812-3.544-1.087c-1.19-0.281-2.485-0.516-3.604-0.64l-0.232-0.026l-0.146-0.048l-2.105-0.691
			c-0.704-0.229-1.409-0.452-2.078-0.772l-2.035-0.892c-0.672-0.31-1.305-0.697-1.959-1.045c-0.651-0.353-1.304-0.706-1.908-1.135
			l-1.849-1.23l-1.746-1.368c-0.597-0.44-1.127-0.954-1.677-1.447c-0.547-0.496-1.103-0.985-1.601-1.528
			c-0.507-0.535-1.041-1.048-1.515-1.611l-1.42-1.692l-1.327-1.763l-1.24-1.825c-0.382-0.63-0.783-1.247-1.146-1.891
			c-0.364-0.642-0.725-1.287-1.056-1.955c-0.345-0.679-0.643-1.31-0.973-2.115l0.125,0.273c-2.2-4.133-4.438-8.246-6.607-12.396
			l4.497-0.208l-5.226,12.392l0.136-0.441l-0.437,1.736c-0.151,0.577-0.274,1.161-0.483,1.723l-0.572,1.698
			c-0.172,0.572-0.444,1.108-0.664,1.663c-0.243,0.545-0.44,1.111-0.724,1.638l-0.822,1.591c-0.268,0.533-0.606,1.027-0.906,1.542
			c-0.305,0.512-0.617,1.02-0.968,1.501c-0.345,0.484-0.669,0.984-1.033,1.455l-1.104,1.401l-1.172,1.342
			c-0.39,0.448-0.821,0.859-1.231,1.289c-0.408,0.431-0.86,0.82-1.289,1.23c-0.437,0.403-0.898,0.783-1.35,1.171
			c-0.47,0.371-0.931,0.749-1.424,1.102c-0.497,0.367-0.959,0.684-1.576,1.063l-0.246,0.126c-0.847,0.448-1.742,0.81-2.516,1.408
			c-0.404,0.267-0.816,0.525-1.174,0.868c-0.365,0.329-0.767,0.615-1.11,0.977l-1.031,1.088c-0.326,0.383-0.626,0.795-0.944,1.189
			c-0.33,0.385-0.583,0.838-0.874,1.26c-0.294,0.421-0.56,0.863-0.804,1.322c-0.526,0.892-0.972,1.841-1.401,2.798
			c-0.419,0.963-0.796,1.949-1.131,2.953c-0.333,1.004-0.624,2.024-0.88,3.048c-0.248,0.992-0.436,2.11-0.667,3.192
			c-0.889,4.346-1.74,8.698-2.66,13.039c-0.925,4.34-1.81,8.687-2.777,13.019l-0.01,0.048c-0.125,0.435-0.238,0.921-0.326,1.394
			c-0.093,0.476-0.165,0.957-0.226,1.44c-0.117,0.968-0.161,1.943-0.151,2.922c0.009,0.489,0.037,0.979,0.092,1.466
			c0.016,0.245,0.06,0.486,0.099,0.729c0.044,0.241,0.065,0.489,0.13,0.727c0.107,0.479,0.224,0.96,0.393,1.426
			c0.134,0.479,0.368,0.918,0.556,1.381c-0.236-0.436-0.523-0.854-0.711-1.319c-0.223-0.451-0.395-0.923-0.56-1.4
			c-0.094-0.235-0.143-0.483-0.216-0.726c-0.067-0.243-0.14-0.486-0.184-0.735c-0.113-0.494-0.198-0.993-0.263-1.497
			c-0.132-1.006-0.172-2.025-0.145-3.043c0.016-0.509,0.045-1.018,0.096-1.526c0.048-0.514,0.114-1.007,0.215-1.541l-0.01,0.048
			c0.53-4.407,1.144-8.801,1.717-13.201c0.579-4.398,1.225-8.786,1.834-13.181c0.167-1.099,0.279-2.179,0.495-3.354
			c0.206-1.146,0.485-2.269,0.8-3.385c0.318-1.114,0.686-2.218,1.105-3.307c0.43-1.086,0.884-2.167,1.438-3.212
			c0.256-0.531,0.539-1.052,0.856-1.558c0.314-0.506,0.588-1.034,0.956-1.514c0.354-0.486,0.69-0.985,1.063-1.461l1.197-1.381
			c0.403-0.457,0.885-0.853,1.329-1.28c0.436-0.438,0.937-0.808,1.449-1.165c0.978-0.78,2.124-1.318,3.233-1.911l-0.246,0.126
			c0.327-0.218,0.786-0.537,1.176-0.849c0.409-0.306,0.803-0.649,1.202-0.979c0.386-0.352,0.781-0.692,1.155-1.057
			c0.367-0.374,0.756-0.723,1.105-1.113c0.35-0.39,0.722-0.759,1.054-1.164l1.002-1.208l0.938-1.258
			c0.31-0.421,0.58-0.869,0.872-1.301c0.299-0.429,0.559-0.882,0.813-1.337c0.25-0.457,0.538-0.894,0.757-1.366l0.686-1.403
			c0.246-0.459,0.407-0.957,0.617-1.433c0.186-0.485,0.425-0.95,0.566-1.452l0.485-1.483c0.181-0.488,0.279-1.002,0.407-1.506
			l0.371-1.517l0.067-0.272l0.07-0.17l5.118-12.437l2.001-4.863l2.496,4.655c2.212,4.127,4.357,8.289,6.54,12.433l0.057,0.108
			l0.067,0.165c0.195,0.483,0.479,1.119,0.764,1.683c0.281,0.582,0.596,1.154,0.913,1.727c0.316,0.572,0.672,1.126,1.005,1.69
			l1.094,1.639l1.171,1.584l1.253,1.519c0.42,0.504,0.885,0.965,1.319,1.456c0.43,0.497,0.911,0.938,1.385,1.391
			c0.475,0.448,0.932,0.921,1.449,1.319l1.509,1.25l1.601,1.123c0.521,0.396,1.088,0.718,1.653,1.042
			c0.568,0.318,1.115,0.68,1.7,0.967l1.771,0.829c0.581,0.303,1.199,0.512,1.815,0.729l1.845,0.664l-0.377-0.074
			c1.52,0.201,2.833,0.503,4.212,0.892c1.362,0.373,2.698,0.865,4.014,1.425c0.649,0.312,1.31,0.58,1.938,0.954l0.95,0.53
			l0.918,0.612c1.229,0.805,2.34,1.847,3.349,2.984c0.449,0.641,0.921,1.209,1.31,1.937l0.546,1.133
			c0.081,0.185,0.188,0.391,0.243,0.558l0.137,0.479l0.271,0.959l0.094,0.349l0.052,0.252l0.099,0.495l0.381,1.975
			c0.494,2.631,0.936,5.268,1.351,7.907c0.404,2.643,0.779,5.289,1.051,7.951c0.155,1.327,0.276,2.66,0.391,3.992
			c0.134,1.33,0.2,2.669,0.291,4.003c0.088,1.334,0.085,2.679,0.131,4.014c-0.003,1.34-0.008,2.679-0.061,4.017
			c-0.093,1.34-0.147,2.673-0.378,4.006C294.407,864.376,294.052,865.652,293.729,866.944z"/>
	</g>
</g>
<g>
	<path fill="#1E120D" d="M223.206,336.857c0,0-0.009-1.046-0.024-2.877c-0.004-1.835-0.009-4.456-0.016-7.601
		c-0.002-3.142,0.017-6.807,0.073-10.733c0.031-1.963,0.027-3.99,0.087-6.052c0.049-2.061,0.098-4.154,0.147-6.248
		c0.039-2.092,0.103-4.186,0.2-6.246c0.084-2.059,0.168-4.086,0.248-6.047c0.059-1.96,0.212-3.855,0.329-5.651
		c0.122-1.794,0.237-3.491,0.343-5.058c0.078-1.566,0.269-2.998,0.41-4.266c0.144-1.267,0.27-2.371,0.374-3.281
		c0.207-1.816,0.325-2.854,0.325-2.854s-0.041,1.045-0.111,2.874c-0.035,0.913-0.078,2.021-0.127,3.293
		c-0.046,1.271-0.129,2.7-0.09,4.269c0.011,1.565,0.023,3.261,0.036,5.055c0.017,1.792,0.005,3.68,0.093,5.638
		c0.066,1.955,0.134,3.976,0.204,6.029c0.057,2.051,0.148,4.136,0.266,6.221c0.107,2.083,0.213,4.167,0.318,6.218
		c0.094,2.05,0.249,4.068,0.364,6.021c0.236,3.905,0.49,7.547,0.726,10.667c0.24,3.117,0.44,5.713,0.58,7.531
		c0.151,1.821,0.238,2.861,0.238,2.861L223.206,336.857z"/>
</g>
<g>
	<path fill="#1E120D" d="M274.898,335.036c0,0,0.014-1.06,0.039-2.913c0.013-1.851,0.031-4.494,0.055-7.666
		c0.017-3.176,0.017-6.881-0.022-10.85c-0.021-1.985-0.009-4.039-0.058-6.121c-0.04-2.084-0.081-4.201-0.122-6.318
		c-0.031-2.119-0.084-4.236-0.174-6.316c-0.078-2.083-0.154-4.134-0.228-6.118c-0.052-1.988-0.196-3.898-0.312-5.713
		c-0.118-1.817-0.229-3.534-0.332-5.12c-0.073-1.591-0.26-3.032-0.403-4.314c-0.145-1.283-0.271-2.402-0.375-3.323
		c-0.208-1.846-0.327-2.9-0.327-2.9s0.196,1.042,0.539,2.865c0.172,0.913,0.381,2.022,0.62,3.294
		c0.238,1.272,0.532,2.708,0.723,4.289c0.22,1.578,0.458,3.288,0.709,5.096c0.25,1.81,0.537,3.718,0.734,5.698
		c0.221,1.98,0.448,4.026,0.68,6.105c0.245,2.079,0.454,4.194,0.642,6.31c0.197,2.116,0.394,4.232,0.588,6.315
		c0.204,2.083,0.343,4.136,0.511,6.121c0.332,3.972,0.606,7.681,0.823,10.862c0.213,3.185,0.39,5.839,0.513,7.697
		c0.112,1.855,0.176,2.915,0.176,2.915L274.898,335.036z"/>
</g>
</svg>
