<?xml version="1.0" encoding="utf-8"?>
<!-- Generator: Adobe Illustrator 16.0.0, SVG Export Plug-In . SVG Version: 6.00 Build 0)  -->
<!DOCTYPE svg PUBLIC "-//W3C//DTD SVG 1.1//EN" "http://www.w3.org/Graphics/SVG/1.1/DTD/svg11.dtd">
<svg version="1.1" id="Layer_2" xmlns="http://www.w3.org/2000/svg" xmlns:xlink="http://www.w3.org/1999/xlink" x="0px" y="0px"
	 width="500px" height="900px" viewBox="0 0 500 900" enable-background="new 0 0 500 900" xml:space="preserve">
<g>
	<g>
		<path fill="#211915" d="M232.805,334.179c0,0,0.023-2.476,0.059-6.186c0.02-1.854,0.038-4.019,0.062-6.338
			c0.011-1.159,0.021-2.357,0.034-3.575c0.024-1.221,0.108-2.475,0.163-3.719c0.061-1.244,0.121-2.488,0.18-3.712
			c0.086-1.223,0.056-2.425,0.248-3.586c0.146-1.159,0.289-2.278,0.424-3.341c0.146-1.06,0.238-2.064,0.416-2.977
			c0.63-3.658,1.05-6.097,1.05-6.097s-0.17,2.467-0.426,6.168c-0.084,0.925-0.076,1.928-0.111,2.985
			c-0.024,1.055-0.054,2.168-0.083,3.317c-0.071,1.146,0.079,2.343,0.117,3.551c0.064,1.208,0.13,2.437,0.195,3.661
			c0.073,1.229,0.113,2.445,0.211,3.654c0.112,1.213,0.222,2.406,0.329,3.561c0.213,2.312,0.413,4.468,0.584,6.314
			c0.341,3.695,0.569,6.159,0.569,6.159L232.805,334.179z"/>
	</g>
	<g>
		<path fill="#211915" d="M270.036,334.684c0,0,0.094-0.607,0.257-1.671c0.158-1.058,0.382-2.566,0.618-4.396
			c0.258-1.825,0.499-3.961,0.765-6.252c0.277-2.29,0.466-4.739,0.712-7.19c0.104-1.226,0.168-2.45,0.254-3.659
			c0.076-1.209,0.151-2.4,0.227-3.554c0.063-2.308,0.119-4.462,0.172-6.309c-0.108-3.699-0.182-6.165-0.182-6.165
			s0.323,2.454,0.81,6.134c0.138,1.854,0.3,4.019,0.473,6.334c0.045,1.161,0.092,2.361,0.139,3.58
			c0.038,1.22,0.101,2.462,0.12,3.703c0.005,2.478,0.067,4.964,0.023,7.29c-0.032,2.327-0.056,4.501-0.127,6.364
			c-0.05,1.859-0.12,3.42-0.172,4.514c-0.057,1.084-0.086,1.704-0.086,1.704L270.036,334.684z"/>
	</g>
	<path fill="none" stroke="#211915" stroke-width="5" stroke-miterlimit="10" d="M212.499,244.18c0,0,6.161-85.232,12.729-115.208
		c0,0,9.854-49.271,6.159-71.444c0,0-6.568-32.438,6.159-39.829c0,0,12.728-7.39,22.584,25.868c0,0,32.023,105.544,35.312,208.604"
		/>
	<path fill="none" stroke="#211915" stroke-width="5" stroke-miterlimit="10" d="M216.196,232.857c0,0,16.015-31.206,41.883-29.976
		c0,0,21.354,1.232,29.976,25.458c0,0,8.21,19.3,11.496,46.812c0,0,11.087,54.612-11.496,59.948c0,0-11.499,2.875-18.479,0
		c0,0-26.688,3.286-33.671-1.231c0,0-35.312,9.854-32.437-48.452c0,0,3.284-17.245,7.391-31.614
		C210.858,253.798,212.76,238.507,216.196,232.857z"/>
</g>
<g>
	<path fill="none" stroke="#211915" stroke-width="5" stroke-miterlimit="10" d="M412.365,372.19c0,0-4.497-80.521,9.872-115.223
		c0,0,10.682-46.608,18.893-69.604c0,0,4.927-13.55,13.96-13.55c0,0,18.063-2.875,23.402,59.538c0,0,13.996,117.842,13.172,133.038"
		/>
	<path fill="none" stroke="#211915" stroke-width="5" stroke-miterlimit="10" d="M414.028,413.608c0,0-11.609-20.123-2.313-40.242
		c0,0,3.137-8.209,12.58,0c0,0,12.909,18.523,27.396,18.295c0,0,7.915,0.594,17.771-8.438l19.708-16.014c0,0,3.186-1.848,3.8,2.566
		c0,0,4.972,16.912,4.972,29.396c0,7.402-1.893,19.105-7.361,32.225c-4.521,10.838-15.109,40.926-17.832,47.088
		c0,0-2.67,15.193-15.396,15.193c0,0-13.139,2.258-15.809-13.754c0,0,0-10.682-5.134-20.121
		C436.406,459.802,416.497,419.046,414.028,413.608z"/>
</g>
<g>
	<path fill="none" stroke="#211915" stroke-width="5" stroke-miterlimit="10" d="M8.736,357.859c0,0,0.616-33.871,0-43.729
		c0,0,0.616-34.488,7.7-53.58c0,0,6.466-36.029,5.853-48.967c0,0-4.003-44.037,16.014-46.5c0,0,18.785,0,26.484,44.653
		c0,0,14.474,40.957,16.937,65.287c0,0,8.764,60.131,6.607,82.92"/>
	<path fill="none" stroke="#211915" stroke-width="5" stroke-miterlimit="10" d="M4.387,380.65c0,0-0.27-23.096,6.504-24.02
		c0,0,6.775-1.232,16.321,16.627c0,0,7.738,17.248,21.423,17.557c0,0,11.221,1.213,21.999-17.102c0,0,9.56-14.803,16.951-16.322
		c0,0,5.527,1.705,3.989,30.959c0,0,1.076,9.705-11.087,28.334c0,0-20.322,30.18-25.867,52.658c0,0-2.771,10.777-12.935,12.316
		c0,0-9.854,0.924-17.86-20.322C23.825,461.338,1.884,415.144,4.387,380.65z"/>
</g>
<g>
	<path fill="none" stroke="#211915" stroke-width="5" stroke-miterlimit="10" d="M209.701,811.197c0,0,5.779-79.34,15.693-110.322
		c0,0,11.566-46.684,12.811-53.291c0,0,13.633-51.637,24.783-62.791c0,0,11.979-11.98,16.523-2.479c0,0,6.198,11.154,1.653,28.916
		c0,0-5.782,28.092-2.479,59.074c0,0,15.69,113.197,13.212,136.336"/>
	<path fill="none" stroke="#211915" stroke-width="5" stroke-miterlimit="10" d="M233.864,775.131
		c1.908-2.465,8.209-10.352,17.273-10.641c0,0,16.542-3.813,25.918,14.41c5.765,11.203,16.813,22.564,18.569,45.906
		c0,0,3.307,23.961,4.957,30.983c0,0,5.368,35.604-20.653,43.207c0,0-15.701,0.168-21.484-2.724c0,0-17.76,6.195-30.564-0.414
		c0,0-26.44,13.633-28.918-21.069c0,0,2.285-36.507,6.605-53.808c1.379-5.518,5.97-13.813,12.193-22.483
		C221.877,792.765,233.022,776.222,233.864,775.131z"/>
	<g>
		<path fill="#211915" d="M216.515,883.056c-1.372-1.295-2.347-2.982-3.071-4.74c-0.709-1.775-1.122-3.664-1.324-5.574
			c-0.209-1.916-0.106-3.844,0.071-5.758c0.139-0.951,0.269-1.896,0.448-2.854l0.617-2.773c0.439-1.836,0.922-3.662,1.424-5.48
			c0.504-1.82,1.041-3.633,1.604-5.438c0.568-1.803,1.162-3.6,1.819-5.377l0.981-2.668l1.063-2.644
			c0.693-1.771,1.518-3.491,2.294-5.233c0.878-1.699,1.688-3.43,2.693-5.078c0.497-0.826,0.931-1.684,1.483-2.482l1.625-2.418
			c0.541-0.807,1.207-1.545,1.809-2.318c0.313-0.381,0.609-0.771,0.932-1.146l1.062-1.063c1.417-1.502,2.862-2.639,4.298-3.861
			l4.268-3.633c1.402-1.22,2.799-2.445,4.124-3.703c1.353-1.246,2.599-2.553,3.686-3.834l1.171-1.381l1.423,0.889
			c0.714,0.445,1.296,0.838,1.899,1.283c0.604,0.428,1.189,0.873,1.756,1.336c1.165,0.894,2.229,1.885,3.325,2.846
			c1.021,1.031,2.124,1.99,3.08,3.084c0.974,1.074,1.986,2.115,2.87,3.27c0.903,1.133,1.859,2.227,2.647,3.443l1.237,1.785
			l0.615,0.895l0.557,0.934c0.729,1.248,1.497,2.478,2.19,3.742l1.928,3.883c0.341,0.637,0.6,1.313,0.865,1.982l0.805,2.01
			l0.787,2.012c0.239,0.681,0.424,1.377,0.639,2.064l1.236,4.135l0.886,4.215l0.438,2.105c0.122,0.705,0.176,1.424,0.267,2.133
			l0.481,4.264c0.104,0.709,0.126,1.422,0.14,2.138l0.06,2.142l0.102,4.271l-0.013-0.135c0.105,0.933,0.14,1.797,0.149,2.693
			c0.01,0.889-0.013,1.775-0.08,2.662c-0.054,0.887-0.171,1.768-0.304,2.645l-0.26,1.311l-0.346,1.288
			c-0.101,0.433-0.279,0.847-0.426,1.265c-0.146,0.42-0.303,0.834-0.514,1.229c-0.204,0.396-0.362,0.813-0.605,1.188l-0.725,1.119
			c-0.269,0.354-0.577,0.676-0.862,1.012c-0.271,0.353-0.629,0.617-0.964,0.9c-0.341,0.275-0.655,0.584-1.055,0.775l-1.129,0.654
			l1.047-0.771c0.365-0.229,0.645-0.565,0.942-0.868c0.294-0.313,0.609-0.6,0.831-0.968c0.238-0.354,0.499-0.688,0.716-1.052
			l0.581-1.127c0.197-0.373,0.313-0.787,0.473-1.176c0.164-0.388,0.276-0.795,0.38-1.205c0.103-0.41,0.234-0.81,0.294-1.229
			l0.216-1.246l0.134-1.263c0.063-0.842,0.112-1.686,0.102-2.53c0.004-0.847-0.04-1.69-0.111-2.532
			c-0.072-0.832-0.173-1.695-0.322-2.479l-0.012-0.135l-0.377-4.166l-0.18-2.078c-0.052-0.692-0.113-1.385-0.257-2.067l-0.711-4.103
			c-0.126-0.682-0.219-1.369-0.371-2.043l-0.512-2.012l-1.02-4.02l-1.354-3.909c-0.23-0.647-0.434-1.308-0.688-1.944l-0.834-1.89
			l-0.818-1.894c-0.271-0.633-0.53-1.269-0.872-1.865l-1.923-3.641c-0.69-1.188-1.449-2.328-2.169-3.494l-0.545-0.871l-0.607-0.828
			l-1.212-1.657c-0.78-1.125-1.68-2.158-2.543-3.218c-0.841-1.082-1.807-2.051-2.73-3.055c-0.906-1.023-1.947-1.908-2.914-2.871
			c-1.029-0.885-2.034-1.811-3.115-2.621c-0.527-0.426-1.066-0.828-1.616-1.209c-0.529-0.389-1.124-0.772-1.604-1.071l2.595-0.494
			c-1.331,1.589-2.714,2.968-4.126,4.259c-1.405,1.311-2.841,2.549-4.279,3.778l-4.33,3.625l-2.156,1.795
			c-0.371,0.308-0.718,0.595-1.014,0.899l-0.948,0.904l-0.952,0.901c-0.297,0.327-0.575,0.679-0.865,1.017
			c-0.563,0.694-1.184,1.334-1.703,2.073l-1.57,2.214c-0.535,0.729-0.969,1.543-1.46,2.311c-0.994,1.529-1.81,3.187-2.704,4.791
			c-0.82,1.65-1.688,3.281-2.436,4.978l-1.146,2.53l-1.07,2.57c-0.721,1.711-1.359,3.459-2.035,5.193
			c-0.657,1.741-1.289,3.493-1.893,5.258c-0.602,1.766-1.171,3.541-1.725,5.321l-0.809,2.671c-0.23,0.87-0.426,1.773-0.625,2.668
			c-0.308,1.801-0.521,3.627-0.501,5.461c0.029,1.83,0.266,3.668,0.784,5.438C214.531,879.883,215.294,881.625,216.515,883.056z"/>
	</g>
</g>
<g>
	<path fill="none" stroke="#000000" stroke-width="5" stroke-miterlimit="10" d="M251.324,400.819
		c19.694-0.729,35.76,16.052,41.214,19.082c0,0,19.081,17.872,5.451,33.019c-13.631,15.146-14.841,14.237-22.718,24.537
		c-7.877,10.296-17.266,9.993-18.776,9.993c-1.52,0-9.999,3.028-23.325-8.785c-13.327-11.812-15.45-15.753-20.603-18.174
		c-5.146-2.425-19.687-15.145-3.328-29.382c16.354-14.237,16.055-18.478,18.174-19.688
		C229.535,410.208,234.948,401.425,251.324,400.819z"/>
	<g>
		<path d="M213.582,452.01c0.523-0.188,1.041-0.386,1.545-0.613c0.507-0.217,0.997-0.471,1.485-0.709
			c0.479-0.263,0.959-0.517,1.401-0.824c0.465-0.273,0.855-0.634,1.277-0.94l-0.158,0.181c0.823-1.446,2.009-2.461,3.378-3.253
			c1.375-0.765,2.915-1.189,4.451-1.373c0.771-0.141,1.54-0.094,2.313-0.123c0.76,0.067,1.536,0.08,2.284,0.206
			c0.743,0.138,1.517,0.21,2.236,0.419l2.11,0.528c0.688,0.162,1.412,0.39,2.073,0.498l1.979,0.322l2.065,0.205
			c0.69,0.059,1.393,0.07,2.083,0.121c0.692,0.059,1.396,0.042,2.097,0.057c0.697,0.016,1.397,0.013,2.102-0.02
			c1.403-0.021,2.81-0.131,4.215-0.221c1.407-0.104,2.814-0.229,4.222-0.393c1.403-0.166,2.81-0.354,4.208-0.577
			c1.399-0.207,2.801-0.436,4.19-0.692c1.408-0.272,2.736-0.538,4.103-0.924c1.369-0.366,2.876-0.743,4.396-0.911
			c1.522-0.185,3.078-0.176,4.59,0.052c1.517,0.209,2.979,0.639,4.364,1.199c1.395,0.549,2.68,1.296,3.929,2.063l-0.083-0.034
			c0.849,0.347,1.722,0.691,2.604,0.971c0.439,0.139,0.877,0.329,1.329,0.424l1.359,0.349l-1.41-0.072
			c-0.479-0.011-0.938-0.103-1.407-0.163c-0.941-0.135-1.859-0.332-2.795-0.546l-0.083-0.036c-1.306-0.558-2.604-1.104-3.955-1.426
			c-1.341-0.354-2.691-0.615-4.05-0.649c-1.354-0.042-2.692,0.061-4.015,0.317c-1.33,0.253-2.602,0.674-3.978,1.154
			c-1.385,0.479-2.866,0.842-4.271,1.183c-1.426,0.33-2.854,0.644-4.291,0.905c-1.438,0.254-2.885,0.473-4.335,0.664
			c-1.45,0.193-2.908,0.345-4.369,0.475c-1.467,0.095-2.933,0.17-4.409,0.175c-0.733,0.021-1.474,0.013-2.213-0.015
			c-0.738-0.024-1.477-0.022-2.219-0.094c-1.48-0.065-2.961-0.298-4.438-0.521l-2.264-0.484c-0.751-0.167-1.395-0.407-2.097-0.605
			l-1.064-0.335l-0.975-0.324c-0.646-0.246-1.313-0.352-1.972-0.529c-0.662-0.167-1.329-0.221-1.997-0.337
			c-0.662-0.016-1.339-0.121-1.997-0.072c-1.327,0.017-2.653,0.232-3.863,0.746c-1.188,0.496-2.378,1.287-3.125,2.268l-0.123,0.16
			l-0.035,0.021c-0.51,0.289-1.003,0.604-1.539,0.813c-0.52,0.245-1.058,0.427-1.59,0.612
			C215.782,451.615,214.682,451.849,213.582,452.01z"/>
	</g>
	<g>
		<path d="M225.697,458.065c1.471,0.578,2.917,1.195,4.363,1.813c1.434,0.644,2.878,1.261,4.295,1.929
			c1.415,0.675,2.855,1.295,4.263,1.979l4.229,2.032l4.158,1.976l0.518,0.244l0.129,0.063l0.065,0.03l0.016,0.008
			c0.025,0.011-0.188-0.074-0.094-0.037l0.009,0.003l0.035,0.011l0.24,0.072l1.049,0.283c0.708,0.186,1.43,0.328,2.151,0.443
			c0.721,0.107,1.441,0.202,2.16,0.229c0.717,0.044,1.427,0.028,2.119-0.025c0.696-0.04,1.371-0.146,2.024-0.297
			c0.324-0.079,0.629-0.193,0.947-0.286l0.885-0.388l-0.291,0.2c0.922-0.768,1.813-1.507,2.754-2.217
			c0.936-0.71,1.874-1.409,2.822-2.101c1.883-1.396,3.854-2.678,5.845-3.925c0.984-0.639,2.026-1.196,3.044-1.781
			c1.042-0.555,2.067-1.127,3.15-1.604c0.534-0.25,1.063-0.504,1.614-0.723c0.548-0.226,1.09-0.451,1.648-0.643
			c0.565-0.181,1.118-0.381,1.684-0.541l1.723-0.385l-1.563,0.783l-1.501,0.866c-0.499,0.285-0.97,0.634-1.461,0.929
			c-0.49,0.295-0.961,0.631-1.435,0.958c-0.949,0.646-1.876,1.333-2.813,1.998l-2.743,2.095c-0.918,0.691-1.813,1.418-2.711,2.136
			l-2.681,2.175c-0.891,0.729-1.771,1.47-2.646,2.217l-2.612,2.224l-0.166,0.141l-0.126,0.062c-0.415,0.195-0.831,0.401-1.253,0.581
			c-0.43,0.143-0.857,0.306-1.291,0.421c-0.867,0.221-1.74,0.371-2.606,0.438c-0.866,0.057-1.726,0.051-2.567-0.015
			c-0.85-0.049-1.68-0.172-2.502-0.313c-0.821-0.147-1.635-0.325-2.438-0.553c-0.403-0.105-0.8-0.234-1.204-0.378l-0.314-0.116
			l-0.034-0.013l-0.119-0.048l-0.017-0.009l-0.066-0.036l-0.132-0.072l-0.528-0.286l-4.206-2.299l-4.035-2.431
			c-1.347-0.807-2.668-1.657-3.992-2.499c-1.326-0.839-2.625-1.729-3.937-2.595C228.255,459.907,226.969,459.003,225.697,458.065z"
			/>
	</g>
</g>
</svg>
