<?xml version="1.0" encoding="utf-8"?>
<!-- Generator: Adobe Illustrator 16.0.0, SVG Export Plug-In . SVG Version: 6.00 Build 0)  -->
<!DOCTYPE svg PUBLIC "-//W3C//DTD SVG 1.1//EN" "http://www.w3.org/Graphics/SVG/1.1/DTD/svg11.dtd">
<svg version="1.1" id="Layer_2" xmlns="http://www.w3.org/2000/svg" xmlns:xlink="http://www.w3.org/1999/xlink" x="0px" y="0px"
	 width="500px" height="900px" viewBox="0 0 500 900" enable-background="new 0 0 500 900" xml:space="preserve">
<g>
	<path fill="none" stroke="#000000" stroke-width="5" stroke-miterlimit="10" d="M8.719,370.169c0,0-2.568-86.941,16.195-147.611
		c0,0,16.214-61.922,22.493-74.432c0,0,3.776-18.763,16.286-18.138c0,0,13.135,7.506,17.513,26.27c0,0,18.14,61.279,15.638,92.249
		c0,0,1.877,42.851,4.379,54.736c0,0,9.918,50.414,6.79,67.925"/>
	<path fill="none" stroke="#000000" stroke-width="5" stroke-miterlimit="10" d="M5.212,377.673c0,0,1.563-16.887,15.012-7.504
		c0,0,8.757,3.75,15.636,15.011c0,0,20.642,30.022,45.347,0c0,0,11.258-16.263,24.707-15.011c0,0,2.503-3.441,6.254,14.074
		c0,0,11.526,33.663-8.135,54.702c-0.304,0.323-0.614,0.646-0.934,0.964c-20.954,20.956-21.579,22.833-25.645,38.156
		c0,0-1.251,23.453-21.58,26.581c0,0-22.517,4.69-43.157-49.724C12.717,454.923-5.422,418.955,5.212,377.673z"/>
	<g>
		<path d="M102.396,444.089c0,0-0.181,0.118-0.521,0.342c-0.313,0.207-0.913,0.594-1.618,0.999c-0.706,0.417-1.61,0.89-2.738,1.353
			c-0.568,0.228-1.206,0.446-1.947,0.606c-0.189,0.035-0.383,0.07-0.577,0.105l-0.417,0.066c-0.349,0.047-0.547,0.104-0.765,0.152
			c-1.006,0.239-2.22,0.765-3.422,1.418c-1.214,0.662-2.462,1.484-3.699,2.429c-2.476,1.892-4.915,4.254-7.092,6.856
			c-2.188,2.595-4.138,5.415-5.749,8.194c-0.82,1.383-1.532,2.768-2.192,4.089c-0.649,1.328-1.217,2.607-1.719,3.801
			c-0.483,1.199-0.917,2.307-1.262,3.302c-0.37,0.986-0.625,1.87-0.87,2.588c-0.43,1.454-0.675,2.285-0.675,2.285
			s0.176-0.851,0.483-2.337c0.184-0.735,0.365-1.645,0.652-2.663c0.264-1.027,0.604-2.175,0.991-3.423
			c0.404-1.243,0.868-2.584,1.413-3.983c0.556-1.396,1.163-2.863,1.88-4.343c1.406-2.973,3.162-6.038,5.211-8.928
			c2.039-2.896,4.387-5.6,6.897-7.875c1.256-1.136,2.555-2.164,3.888-3.044c1.348-0.876,2.673-1.617,4.161-2.124
			c0.407-0.132,0.817-0.256,1.085-0.313l0.225-0.055l0.185-0.042l0.075-0.024l0.301-0.089c0.404-0.132,0.821-0.317,1.215-0.521
			c0.789-0.419,1.487-0.862,2.049-1.275c0.573-0.409,0.951-0.706,1.292-0.979c0.317-0.254,0.486-0.39,0.486-0.39L102.396,444.089z"
			/>
	</g>
	<g>
		<path d="M5.811,371.467c0,0,0.038,0.007,0.109,0.017c0.086,0.01,0.227,0.021,0.357,0.047c0.283,0.044,0.666,0.125,1.118,0.236
			c0.9,0.225,2.077,0.616,3.16,1.205c0.542,0.288,1.053,0.646,1.489,1.011c0.434,0.382,0.776,0.786,1.025,1.148
			c0.232,0.386,0.395,0.693,0.46,0.938c0.078,0.227,0.123,0.355,0.123,0.355s-0.104-0.087-0.29-0.24
			c-0.164-0.161-0.458-0.331-0.787-0.506c-0.351-0.155-0.763-0.285-1.207-0.363c-0.456-0.064-0.933-0.091-1.415-0.061
			c-0.962,0.057-1.907,0.277-2.588,0.496c-0.34,0.111-0.617,0.211-0.795,0.29c-0.099,0.037-0.14,0.068-0.176,0.087
			c-0.036,0.021-0.085,0.035-0.08,0.035L5.811,371.467z"/>
	</g>
	<g>
		<path d="M4.471,377.467c0,0,0.035,0.007,0.1,0.019c0.079,0.012,0.216,0.026,0.338,0.053c0.264,0.051,0.622,0.133,1.046,0.252
			c0.842,0.233,1.945,0.627,2.962,1.224c0.253,0.138,0.5,0.314,0.732,0.48c0.235,0.159,0.449,0.374,0.651,0.546
			c0.196,0.198,0.369,0.406,0.524,0.591c0.14,0.216,0.263,0.412,0.366,0.592c0.076,0.194,0.146,0.374,0.208,0.532
			c0.063,0.149,0.064,0.306,0.09,0.416c0.034,0.224,0.054,0.351,0.054,0.351s-0.086-0.096-0.236-0.263
			c-0.081-0.075-0.146-0.184-0.272-0.268c-0.117-0.083-0.249-0.175-0.393-0.277c-0.155-0.069-0.323-0.146-0.5-0.227
			c-0.192-0.053-0.382-0.109-0.581-0.149c-0.216-0.021-0.408-0.065-0.633-0.064c-0.22-0.004-0.43-0.013-0.657,0.01
			c-0.881,0.057-1.757,0.276-2.389,0.49c-0.316,0.104-0.573,0.204-0.738,0.278c-0.093,0.035-0.125,0.064-0.162,0.084
			c-0.036,0.02-0.081,0.033-0.076,0.032L4.471,377.467z"/>
	</g>
</g>
<g>
	<path fill="none" stroke="#000000" stroke-width="5" stroke-miterlimit="10" d="M393.49,369.01c0,0,0.956-31.675,9.09-50.438
		c0,0,5.005-35.65,6.255-51.288c0,0,5.63-72.554,29.085-121.967c0,0,18.448-35.655,31.271-9.069c0,0,6.254,9.38,7.194,29.398
		c0,0,9.383,65.67,11.882,83.187c0,0,8.569,17.05,5.443,117.126"/>
	<path fill="none" stroke="#000000" stroke-width="5" stroke-miterlimit="10" d="M389.287,375.805c0,0,4.491-12.222,16.107-11.263
		c0,0,12.535,1.999,21.267,11.104c7.349,7.663,15.757,12.318,26.269,10.167c4.786-0.982,13.479-7.91,21.736-12.198
		c9.878-5.129,19.046-7.656,19.046-7.656s0.815-1.416,3.003,10.782c0,0,12.822,37.529-12.197,78.81l-24.081,39.717
		c0,0-11.568,18.139-28.457,0c0,0-4.692-6.88-6.88-18.766c0,0-5.943-28.149-23.457-42.689c-8.439-9.537-15.209-21.105-15.521-27.985
		C386.12,405.828,385.536,385.523,389.287,375.805z"/>
	<g>
		<path d="M403.818,428.029c0.645,0.462,1.265,0.947,1.889,1.424c0.617,0.483,1.248,0.951,1.85,1.444
			c0.604,0.489,1.194,0.992,1.812,1.466c0.619,0.472,1.211,0.967,1.816,1.449l1.781,1.474c0.576,0.513,1.182,0.978,1.788,1.435
			c1.194,0.938,2.381,1.876,3.542,2.836l-0.264-0.188c0.617,0.374,0.924,0.655,1.316,0.973c0.4,0.31,0.714,0.636,1.032,0.962
			l0.963,0.982c0.328,0.326,0.561,0.69,0.845,1.035c0.533,0.703,1.113,1.39,1.604,2.113l1.364,2.218
			c0.454,0.739,0.922,1.48,1.269,2.259l1.104,2.317c0.354,0.779,0.736,1.548,1.063,2.333l0.854,2.396l0.822,2.402
			c0.26,0.805,0.568,1.596,0.744,2.421c0.405,1.637,0.779,3.28,1.129,4.923l0.503,2.468l0.055,0.311l0.041,0.206l0.016,0.152
			l0.063,0.609l0.148,1.226c0.118,0.813,0.2,1.639,0.338,2.449c0.163,0.803,0.218,1.646,0.611,2.381
			c-0.362-0.24-0.603-0.621-0.846-0.973c-0.242-0.357-0.455-0.729-0.648-1.107c-0.394-0.758-0.773-1.521-1.091-2.306l-0.479-1.176
			l-0.232-0.596l-0.057-0.15c0.005,0.058-0.037-0.063-0.054-0.089l-0.133-0.281l-1.012-2.263c-0.657-1.509-1.293-3.018-1.896-4.534
			c-0.274-0.771-0.688-1.477-1.009-2.222l-1.017-2.209l-0.982-2.215c-0.347-0.728-0.735-1.424-1.101-2.136
			c-0.376-0.706-0.727-1.425-1.086-2.139c-0.33-0.734-0.781-1.377-1.173-2.06l-1.203-2.031c-0.419-0.655-0.881-1.261-1.316-1.897
			c-0.43-0.657-0.91-1.21-1.389-1.773c-0.236-0.288-0.474-0.581-0.719-0.792l-0.604-0.599l-0.263-0.188
			c-1.13-1.126-2.234-2.273-3.33-3.422c-0.546-0.578-1.086-1.157-1.577-1.768l-1.487-1.829c-0.483-0.62-0.982-1.225-1.452-1.854
			c-0.477-0.625-0.921-1.276-1.381-1.912c-0.457-0.638-0.885-1.302-1.326-1.949C404.62,429.389,404.218,428.712,403.818,428.029z"/>
	</g>
	<g>
		<path d="M494.568,376.089c0.006,0.001-0.044-0.015-0.079-0.034c-0.036-0.021-0.077-0.051-0.177-0.088
			c-0.178-0.077-0.454-0.179-0.794-0.288c-0.681-0.219-1.625-0.439-2.588-0.495c-0.482-0.031-0.958-0.004-1.414,0.06
			c-0.444,0.078-0.856,0.208-1.207,0.364c-0.168,0.093-0.321,0.179-0.458,0.255c-0.143,0.079-0.234,0.179-0.329,0.25
			c-0.185,0.153-0.29,0.24-0.29,0.24s0.045-0.129,0.123-0.356c0.066-0.244,0.229-0.552,0.461-0.937
			c0.249-0.363,0.592-0.768,1.025-1.148c0.437-0.365,0.946-0.722,1.488-1.011c1.083-0.587,2.26-0.98,3.158-1.205
			c0.452-0.112,0.835-0.192,1.117-0.237c0.132-0.024,0.271-0.038,0.358-0.047c0.07-0.01,0.108-0.016,0.108-0.016L494.568,376.089z"
			/>
	</g>
	<g>
		<path d="M495.983,382.096c0.004,0-0.04-0.014-0.076-0.033s-0.068-0.049-0.162-0.084c-0.166-0.074-0.423-0.173-0.737-0.278
			c-0.634-0.213-1.509-0.433-2.391-0.49c-0.227-0.022-0.437-0.014-0.656-0.01c-0.226-0.001-0.416,0.043-0.634,0.064
			c-0.197,0.04-0.388,0.096-0.581,0.148c-0.177,0.081-0.345,0.157-0.5,0.228c-0.144,0.102-0.274,0.194-0.392,0.276
			c-0.128,0.084-0.193,0.192-0.273,0.269c-0.149,0.167-0.235,0.262-0.235,0.262s0.02-0.127,0.053-0.35
			c0.026-0.11,0.026-0.267,0.09-0.416c0.063-0.159,0.132-0.339,0.208-0.533c0.114-0.184,0.237-0.381,0.367-0.591
			c0.156-0.187,0.329-0.395,0.524-0.592c0.201-0.173,0.416-0.388,0.65-0.546c0.233-0.167,0.48-0.344,0.733-0.48
			c1.016-0.596,2.12-0.99,2.962-1.224c0.423-0.118,0.781-0.2,1.046-0.251c0.123-0.027,0.259-0.042,0.337-0.054
			c0.065-0.012,0.102-0.018,0.102-0.018L495.983,382.096z"/>
	</g>
</g>
<g>
	<path fill="none" stroke="#000000" stroke-width="4.7214" stroke-miterlimit="10" d="M212.608,797.365
		c0,0,2.006-105.258,7.637-139.031c0,0,1.877-57.698,10.318-86.782c0,0,7.977-33.31,19.233-45.504c0,0,20.64-24.862,26.269,4.222
		c0,0-2.346,71.303,0,85.376c0,0,11.261,43.627,10.79,87.254c0,0-0.438,60.357,0.015,74.431"/>
	<path fill="none" stroke="#000000" stroke-width="4.7214" stroke-miterlimit="10" d="M211.799,800.004
		c0,0,1.563-7.508,10.632-21.269c0,0,10.805-25.642,28.077-25.642c0,0,14.457-2.504,23.522,14.383c0,0,5.348,8.938,12.838,9.005
		c0,0,2.176,11.948,7.492,25.084c0,0,20.64,38.465,3.752,56.606l-31.271,29.396c0,0-11.885,11.884-33.776,0l-21.267-14.386
		c0,0-15.324-11.886-10.635-36.279L211.799,800.004z"/>
	<g>
		<path d="M244.634,826.274l-0.391-2.507c-0.049-0.422-0.172-0.826-0.265-1.234l-0.281-1.219c-0.168-0.809-0.394-1.613-0.632-2.42
			c-0.24-0.803-0.438-1.609-0.696-2.408c-0.487-1.6-1.001-3.188-1.56-4.766c-0.552-1.573-1.101-3.162-1.694-4.695l1.169,0.938
			c-0.229-0.033-0.475-0.07-0.691-0.123l-0.584-0.191c-0.347-0.146-0.686-0.303-0.981-0.473c-0.307-0.169-0.591-0.347-0.865-0.528
			c-0.276-0.183-0.54-0.371-0.799-0.563c-0.516-0.386-1.007-0.783-1.475-1.202l-0.693-0.637l-0.688-0.673l2.715-0.258
			c-0.228,0.413-0.469,0.907-0.703,1.361l-0.683,1.421c-0.462,0.942-0.862,1.93-1.296,2.891c-0.42,0.97-0.803,1.961-1.219,2.935
			c-0.422,0.97-0.771,1.975-1.151,2.963c-0.367,0.995-0.771,1.975-1.102,2.983l-1.04,3.008c-0.357,0.997-0.64,2.023-0.968,3.031
			l-0.95,3.037L227.095,827l-0.037,0.104l-1.259,3.512c-0.425,1.175-0.831,2.351-1.201,3.528l-0.578,1.766
			c-0.188,0.585-0.413,1.182-0.548,1.751l-0.936,3.455l-0.081,0.302l-0.065,0.17c-0.082,0.213-0.234,0.652-0.326,1.018
			c-0.111,0.381-0.188,0.779-0.27,1.176c-0.065,0.4-0.122,0.805-0.164,1.207c-0.015,0.406-0.072,0.813-0.057,1.219
			c0.022,0.402-0.01,0.813,0.05,1.214c0.056,0.399,0.071,0.807,0.149,1.202l0.246,1.188l0.378,1.156
			c0.108,0.392,0.327,0.744,0.481,1.121l0.253,0.559l0.321,0.527c0.222,0.35,0.416,0.715,0.646,1.061l0.771,0.994
			c0.131,0.165,0.252,0.338,0.389,0.498l0.45,0.456l0.896,0.92c0.306,0.302,0.663,0.559,0.989,0.847l1.002,0.845l0.156,0.12
			l3.519,3.258c1.169,1.091,2.357,2.158,3.509,3.269l-0.393-0.246l5.246,2.605l1.312,0.651l0.653,0.331l0.081,0.042l0.041,0.021
			l0.021,0.01l0.006,0.003c-0.222-0.083-0.06-0.021-0.106-0.04l0.011,0.004c-0.043-0.041-0.397-0.056-0.425-0.035
			c-0.076,0.009-0.167,0.046-0.217,0.072c-0.181,0.103-0.171,0.131-0.169,0.146c0.108-0.092,0.289-0.55,0.394-0.948
			c0.118-0.421,0.203-0.876,0.285-1.334c0.148-0.926,0.243-1.88,0.324-2.839c0.081-0.963,0.147-1.931,0.188-2.901
			c0.06-0.971,0.062-1.945,0.113-2.922l0.082-2.935c0.327,1.932,0.628,3.87,0.823,5.826c0.107,0.979,0.188,1.961,0.257,2.948
			c0.051,0.99,0.072,1.986,0.041,3.003c-0.026,0.512-0.055,1.024-0.133,1.561c-0.101,0.549-0.138,1.063-0.562,1.799
			c-0.15,0.203-0.296,0.425-0.695,0.642c-0.104,0.053-0.257,0.1-0.392,0.124c-0.085,0.04-0.504,0.013-0.605-0.035l-0.284-0.102
			l-0.688-0.254l-1.368-0.52l-5.479-2.074L234,867.991l-0.252-0.193c-1.271-0.975-2.501-1.991-3.753-2.985l-3.742-2.998l0.153,0.121
			l-1.239-0.896c-0.408-0.309-0.84-0.581-1.225-0.928l-1.144-1.055l-0.57-0.53c-0.18-0.188-0.346-0.395-0.52-0.592l-1.027-1.2
			c-0.315-0.425-0.604-0.877-0.899-1.318l-0.437-0.672l-0.365-0.72c-0.228-0.485-0.514-0.947-0.688-1.46l-0.557-1.524l-0.393-1.578
			c-0.122-0.527-0.164-1.069-0.245-1.605c-0.082-0.536-0.066-1.078-0.101-1.617c-0.027-0.541,0.025-1.078,0.04-1.618
			c0.042-0.537,0.104-1.073,0.183-1.608c0.095-0.532,0.188-1.065,0.329-1.597c0.14-0.554,0.279-1.016,0.542-1.683l-0.146,0.471
			l1.006-3.855c0.154-0.657,0.372-1.245,0.566-1.86l0.604-1.826c0.396-1.225,0.82-2.43,1.264-3.622
			c0.429-1.198,0.868-2.396,1.341-3.591l-0.053,0.155l1.046-3.111c0.361-1.031,0.669-2.082,1.083-3.099l1.184-3.063
			c0.379-1.025,0.827-2.027,1.265-3.032c0.443-1.002,0.854-2.016,1.343-3c0.475-0.989,0.931-1.985,1.444-2.958
			c0.521-0.969,1.004-1.95,1.561-2.908l0.821-1.438c0.295-0.484,0.559-0.943,0.889-1.452l1.24-1.917l1.475,1.659l0.544,0.611
			l0.579,0.611c0.395,0.397,0.791,0.787,1.192,1.158c0.202,0.184,0.405,0.36,0.61,0.526c0.202,0.167,0.409,0.325,0.61,0.464
			c0.205,0.147,0.398,0.259,0.588,0.366l0.252,0.117c0.068,0.021,0.118,0.033,0.18,0.063l1.058,0.532l0.11,0.407
			c0.453,1.666,0.874,3.301,1.235,4.968c0.362,1.661,0.682,3.334,0.97,5.011c0.167,0.83,0.244,1.687,0.359,2.526
			s0.219,1.688,0.266,2.549l0.09,1.278c0.02,0.425,0.068,0.849,0.042,1.271L244.634,826.274z"/>
	</g>
	<g>
		<path d="M260.248,823.761l-0.1-2.521c-0.028-0.419,0.01-0.841,0.022-1.264l0.068-1.273c0.034-0.856,0.118-1.7,0.216-2.539
			c0.094-0.84,0.162-1.689,0.305-2.521c0.248-1.674,0.521-3.346,0.836-5.008c0.145-0.836,0.346-1.656,0.517-2.486l0.574-2.487
			l0.021-0.087l1.164-0.902c0.039-0.03,0.06-0.03,0.113-0.056l0.205-0.107c0.16-0.101,0.33-0.213,0.511-0.355
			c0.356-0.283,0.724-0.616,1.078-0.979c0.354-0.366,0.707-0.746,1.055-1.139l0.51-0.599l0.476-0.598l1.591-1.994l1.227,2.252
			c0.421,0.771,0.885,1.552,1.244,2.32l1.144,2.313c0.373,0.775,0.788,1.539,1.103,2.334l0.98,2.374l0.979,2.378
			c0.318,0.795,0.672,1.582,0.946,2.392l1.608,4.873l1.573,4.888l0.374,1.065l0.405,1.208l0.798,2.438
			c0.527,1.625,1.005,3.275,1.488,4.919c0.259,0.805,0.431,1.699,0.643,2.551l0.604,2.584l-0.122-0.434
			c0.231,0.646,0.352,1.101,0.473,1.638c0.123,0.518,0.207,1.034,0.287,1.551c0.146,1.035,0.213,2.076,0.206,3.119
			c-0.025,0.521-0.027,1.043-0.078,1.563l-0.204,1.556l-0.345,1.533c-0.127,0.508-0.315,1-0.475,1.499
			c-0.146,0.504-0.379,0.975-0.594,1.451c-0.224,0.472-0.412,0.962-0.7,1.396l-0.811,1.332c-0.295,0.426-0.623,0.822-0.936,1.232
			c-0.312,0.409-0.627,0.815-0.997,1.168l-1.066,1.092c-0.35,0.372-0.771,0.647-1.152,0.977l-1.174,0.939l0.149-0.131l-3.384,3.01
			c-1.131,1-2.248,2.014-3.396,2.994l-0.249,0.213l-0.146,0.062l-5.224,2.213l-1.307,0.553l-0.327,0.135l-0.082,0.033l-0.132,0.054
			l-0.011,0.003l-0.153,0.039c-0.138,0.028-0.295,0.034-0.418,0.021c-0.154-0.023-0.314-0.071-0.457-0.137
			c-0.102-0.055-0.184-0.112-0.27-0.179c-0.197-0.15-0.227-0.229-0.322-0.345c-0.092-0.119-0.142-0.214-0.176-0.293
			c-0.086-0.174-0.161-0.352-0.193-0.487c-0.188-0.601-0.229-1.1-0.282-1.612c-0.042-0.507-0.063-1-0.067-1.488
			c-0.009-0.979,0.021-1.938,0.083-2.895c0.065-0.956,0.156-1.904,0.257-2.852c0.192-1.895,0.477-3.772,0.785-5.646l0.102,2.843
			l0.124,2.83c0.048,0.94,0.104,1.881,0.187,2.813c0.074,0.933,0.156,1.86,0.285,2.767c0.062,0.453,0.141,0.9,0.231,1.328
			c0.096,0.416,0.206,0.857,0.35,1.144c0.04,0.147,0.205,0.258,0.021,0.076c-0.038-0.031-0.074-0.054-0.126-0.075
			c-0.086-0.049-0.188-0.079-0.287-0.086c-0.095-0.014-0.223-0.012-0.33,0.017c-0.04,0.008-0.146,0.047-0.109,0.034l0.011-0.004
			c-0.052,0.021,0.123-0.052-0.115,0.048l0.005-0.003l0.077-0.044l0.311-0.174l1.243-0.683l4.975-2.729l-0.396,0.273
			c1.03-1.104,2.095-2.177,3.144-3.262l3.155-3.247l0.151-0.131l0.931-0.87c0.299-0.298,0.646-0.555,0.904-0.882l0.825-0.939
			c0.292-0.299,0.523-0.641,0.753-0.98c0.229-0.341,0.479-0.667,0.694-1.014l0.574-1.073c0.215-0.347,0.339-0.732,0.498-1.103
			c0.15-0.373,0.322-0.737,0.413-1.131c0.104-0.389,0.241-0.766,0.322-1.159l0.222-1.185l0.115-1.2
			c0.031-0.401,0.02-0.807,0.033-1.209c-0.014-0.808-0.082-1.615-0.214-2.411c-0.072-0.396-0.145-0.791-0.245-1.172
			c-0.086-0.365-0.225-0.802-0.302-1.026l-0.057-0.163l-0.065-0.271l-0.572-2.336c-0.203-0.783-0.347-1.549-0.608-2.353
			c-0.493-1.584-0.918-3.186-1.429-4.77l-1.571-4.906l-1.425-4.776l-1.39-4.793c-0.239-0.797-0.553-1.563-0.817-2.351l-0.827-2.348
			l-0.827-2.353c-0.248-0.799-0.59-1.545-0.895-2.313l-0.935-2.299c-0.3-0.785-0.654-1.482-0.985-2.222l2.816,0.259l-0.615,0.666
			l-0.62,0.631c-0.419,0.415-0.856,0.817-1.323,1.205c-0.466,0.387-0.963,0.761-1.519,1.112c-0.276,0.177-0.587,0.345-0.923,0.498
			c-0.178,0.076-0.377,0.146-0.565,0.211c-0.209,0.063-0.466,0.105-0.696,0.143l1.185-0.99c-0.547,1.546-1.058,3.14-1.561,4.723
			c-0.517,1.583-0.991,3.179-1.444,4.782c-0.238,0.8-0.419,1.607-0.646,2.412c-0.224,0.807-0.433,1.611-0.591,2.42l-0.264,1.218
			c-0.089,0.408-0.203,0.813-0.25,1.232L260.248,823.761z"/>
	</g>
	<g>
		<path d="M275.901,767.561c0,0,0.076,0.464,0.21,1.275c0.12,0.826,0.401,1.886,0.684,3.229c0.146,0.668,0.306,1.392,0.475,2.156
			c0.159,0.768,0.435,1.576,0.66,2.414c0.48,1.681,0.994,3.474,1.507,5.266c0.259,0.898,0.498,1.808,0.826,2.666
			c0.307,0.869,0.608,1.724,0.901,2.551c0.586,1.659,1.133,3.207,1.601,4.535c0.941,2.663,1.569,4.438,1.569,4.438
			s-0.896-1.653-2.241-4.135c-0.674-1.244-1.46-2.696-2.303-4.254c-0.423-0.778-0.859-1.586-1.304-2.403
			c-0.465-0.812-0.847-1.677-1.248-2.533c-0.801-1.724-1.603-3.445-2.354-5.06c-0.365-0.817-0.765-1.575-1.063-2.354
			c-0.304-0.777-0.592-1.512-0.856-2.189c-0.518-1.354-1.011-2.514-1.251-3.289c-0.26-0.781-0.408-1.229-0.408-1.229
			L275.901,767.561z"/>
	</g>
</g>
<g>
	<path fill="none" stroke="#000000" stroke-width="4.7214" stroke-miterlimit="10" d="M250.582,393.543
		c23.219,0,55.821,25.803,55.354,52.539c0,0-4.691,17.357-15.479,28.148c0,0-15.014,20.17-19.702,22.984
		c-4.69,2.813-18.766,20.643-39.873-2.349c-21.11-22.983-29.555-20.31-32.838-44.865c-3.283-24.56,27.679-40.041,30.961-44.264
		C232.286,401.519,240.57,393.543,250.582,393.543z"/>
	<g>
		<path d="M212.115,462.5c0,0-0.222-0.321-0.51-1.001c-0.273-0.677-0.665-1.718-0.729-3.15c-0.083-1.406,0.245-3.312,1.539-5
			c0.629-0.842,1.451-1.611,2.399-2.279c0.95-0.672,2.044-1.175,3.192-1.645c2.313-0.887,4.909-1.451,7.646-1.725
			c2.733-0.271,5.607-0.436,8.646-0.191c1.516,0.107,3.064,0.311,4.652,0.666c1.585,0.359,3.224,0.853,4.855,1.829
			c-0.265-0.152-0.055-0.033-0.105-0.063l0.031,0.016l0.063,0.032l0.127,0.064l0.254,0.128l0.51,0.257
			c0.248,0.071,0.49,0.149,0.729,0.239c0.594,0.158,1.236,0.332,1.908,0.433c1.335,0.222,2.745,0.333,4.164,0.295
			c1.415-0.013,2.846-0.111,4.229-0.353c1.384-0.228,2.751-0.529,3.973-1.001c0.318-0.104,0.614-0.228,0.893-0.368
			c0.279-0.136,0.588-0.252,0.819-0.416c0.236-0.157,0.542-0.28,0.728-0.455l0.311-0.244l0.159-0.119l0.021-0.015
			c-0.104,0.095,0.16-0.145,0.145-0.128l0.055-0.044l0.109-0.087l0.434-0.35c0.148-0.116,0.267-0.225,0.506-0.371
			c0.414-0.264,0.862-0.558,1.265-0.764l1.162-0.537l1.157-0.414c3.067-0.984,6-1.23,8.752-1.313
			c1.398-0.016,2.655-0.061,4.099,0.126c1.314,0.183,2.554,0.448,3.736,0.782c2.346,0.673,4.521,1.671,5.985,3.305
			c0.723,0.804,1.221,1.771,1.356,2.707c0.143,0.932,0.043,1.774-0.165,2.467c-0.393,1.402-1.079,2.273-1.471,2.885
			c-0.453,0.574-0.695,0.879-0.695,0.879s0.159-0.352,0.459-1.012c0.255-0.666,0.672-1.662,0.783-2.924
			c0.131-1.263-0.262-2.721-1.53-3.71c-1.25-1.014-3.183-1.599-5.315-1.951c-1.074-0.163-2.221-0.263-3.392-0.278
			c-1.044-0.017-2.369,0.103-3.61,0.241c-2.521,0.294-5.181,0.817-7.576,1.738l-0.871,0.375l-0.808,0.429
			c-0.243,0.142-0.399,0.273-0.614,0.395c-0.086,0.032-0.239,0.181-0.377,0.3l-0.418,0.367l-0.918,0.801
			c-0.366,0.334-0.755,0.529-1.139,0.797c-0.386,0.268-0.779,0.438-1.174,0.641c-0.396,0.209-0.791,0.388-1.19,0.532
			c-1.599,0.653-3.221,1.078-4.862,1.354c-1.641,0.295-3.295,0.432-4.959,0.455c-1.663,0.024-3.341-0.111-5.027-0.408
			c-0.848-0.136-1.686-0.367-2.555-0.642c-0.477-0.179-0.948-0.366-1.412-0.563l-1.143-0.619c-0.963-0.613-2.216-1.09-3.511-1.442
			c-1.302-0.353-2.663-0.596-4.02-0.787c-2.715-0.366-5.444-0.487-7.998-0.456c-2.548,0.06-4.934,0.276-7.032,0.785
			c-2.079,0.537-3.867,1.361-5.063,2.531c-1.198,1.158-1.8,2.604-1.969,3.871c-0.171,1.269-0.073,2.328,0.056,3.029
			C211.99,462.131,212.115,462.5,212.115,462.5z"/>
	</g>
	<g>
		<path d="M223.139,470.711c0,0,0.624,0.398,1.636,1.152c0.517,0.369,1.123,0.83,1.804,1.371c0.69,0.529,1.455,1.137,2.271,1.811
			c1.597,1.335,3.461,2.894,5.457,4.562c0.982,0.809,1.994,1.631,3,2.33c0.49,0.345,1.002,0.66,1.395,0.833l0.07,0.035l0.035,0.019
			l0.019,0.009c0.024,0.012-0.195-0.073-0.095-0.035l0.016,0.006l0.219,0.077c0.008-0.008-0.063-0.02,0.005-0.003l0.234,0.051
			c0.136,0.031,0.788,0.156,0.727,0.115c0.071,0.012,0.271,0.002,0.339-0.012c0.101-0.005,0.151-0.038,0.229-0.061
			c0.133-0.063,0.345-0.277,0.556-0.653c0.418-0.765,0.689-1.975,0.829-3.145c0.164-1.187,0.212-2.404,0.242-3.57
			c0.025-1.17,0.017-2.293,0.003-3.339c-0.05-2.118-0.091-3.884-0.12-5.12c-0.028-1.252-0.022-1.981-0.022-1.981
			s0.35,0.641,0.859,1.797c0.24,0.58,0.562,1.283,0.854,2.111c0.289,0.828,0.636,1.767,0.933,2.813
			c0.304,1.046,0.584,2.196,0.813,3.443c0.229,1.249,0.396,2.591,0.425,4.048c-0.01,1.455-0.054,3.021-0.782,4.801
			c-0.366,0.876-0.978,1.86-2.016,2.59c-0.52,0.35-1.105,0.631-1.696,0.772c-0.613,0.158-1.129,0.207-1.759,0.172
			c-0.771-0.05-0.808-0.092-1.364-0.184l-0.282-0.055c-0.104-0.021-0.345-0.082-0.508-0.131l-0.281-0.094l-0.141-0.053l-0.042-0.019
			l-0.085-0.037l-0.168-0.075c-0.884-0.42-1.544-0.882-2.183-1.344c-1.231-0.945-2.277-1.931-3.228-2.929
			c-1.896-1.988-3.425-3.99-4.646-5.775c-0.608-0.892-1.136-1.73-1.577-2.494c-0.455-0.751-0.824-1.426-1.11-1.995
			C223.408,471.402,223.139,470.711,223.139,470.711z"/>
	</g>
	<g>
		<path d="M236.244,447.862c0,0,0.122,0.214,0.335,0.588c0.241,0.408,0.492,0.939,0.814,1.585c0.287,0.656,0.65,1.399,0.959,2.224
			c0.322,0.817,0.659,1.685,0.935,2.571c0.145,0.438,0.288,0.876,0.43,1.309c0.118,0.438,0.234,0.868,0.348,1.285
			c0.11,0.414,0.219,0.813,0.32,1.192c0.107,0.375,0.163,0.747,0.238,1.08c0.272,1.33,0.456,2.218,0.456,2.218
			s-0.456-0.777-1.142-1.943c-0.177-0.287-0.341-0.607-0.562-0.926c-0.214-0.318-0.439-0.655-0.673-1.004
			c-0.231-0.345-0.472-0.701-0.715-1.063c-0.263-0.348-0.528-0.701-0.796-1.056c-0.516-0.712-1.082-1.385-1.608-2.007
			c-0.517-0.631-1.053-1.166-1.482-1.639c-0.452-0.444-0.83-0.834-1.076-1.036c-0.27-0.237-0.423-0.375-0.423-0.375L236.244,447.862
			z"/>
	</g>
	<g>
		<path d="M279.353,468.835c0,0-0.146,0.696-0.527,1.856c-0.368,1.169-0.974,2.801-1.857,4.684c-0.888,1.884-2.04,4.022-3.563,6.199
			c-0.771,1.084-1.622,2.184-2.674,3.248c-0.526,0.541-1.101,1.056-1.819,1.562c-0.364,0.25-0.75,0.502-1.242,0.721l-0.179,0.08
			l-0.191,0.074l-0.33,0.112c-0.344,0.104-0.6,0.168-0.996,0.208l-0.139,0.014l-0.034,0.003l-0.19,0.005l-0.031-0.001l-0.127-0.003
			l-0.128-0.002l-0.065-0.002l-0.166-0.016c-0.222-0.021-0.444-0.058-0.662-0.104c-0.195-0.052-0.37-0.115-0.553-0.183
			c-0.726-0.284-1.354-0.808-1.753-1.338c-0.778-1.067-0.985-2.02-1.146-2.852c-0.243-1.667-0.157-3.078-0.015-4.428
			c0.303-2.679,0.892-5.021,1.467-7.014c1.161-3.974,2.386-6.5,2.386-6.5s0.071,0.701,0.123,1.911
			c0.054,1.211,0.09,2.934,0.078,4.967c-0.002,2.029-0.063,4.396,0.013,6.8c0.046,1.187,0.127,2.422,0.374,3.383
			c0.104,0.467,0.306,0.84,0.35,0.851c0.02,0.001-0.058-0.099-0.154-0.13c-0.021-0.014-0.039-0.015-0.072-0.021
			c-0.05-0.02-0.104-0.026-0.16-0.022l-0.039,0.006l0.06,0.001h0.127h0.128h0.031c0.155-0.003-0.191,0.005-0.158,0.004l-0.003-0.001
			l-0.013-0.002c-0.06,0.012,0.017-0.01-0.005-0.006c-0.031,0.016,0.069-0.023,0.148-0.055l0.061-0.022l0.028-0.012
			c0.062-0.023-0.064,0.026-0.051,0.02l0.007-0.004l0.051-0.028c0.128-0.057,0.319-0.161,0.514-0.29
			c0.397-0.252,0.828-0.646,1.266-1.023c0.866-0.792,1.729-1.689,2.544-2.591c0.829-0.895,1.621-1.794,2.38-2.65
			c0.769-0.861,1.492-1.678,2.162-2.431c1.354-1.511,2.526-2.768,3.385-3.628C278.827,469.314,279.353,468.835,279.353,468.835z"/>
	</g>
	<g>
		<path d="M272.075,448.39c0,0-0.137,0.157-0.374,0.433c-0.108,0.133-0.242,0.263-0.397,0.48c-0.156,0.207-0.332,0.44-0.523,0.696
			c-0.192,0.257-0.378,0.558-0.589,0.866c-0.205,0.313-0.438,0.638-0.634,0.997c-0.208,0.358-0.423,0.729-0.641,1.104
			c-0.233,0.373-0.404,0.778-0.608,1.178c-0.197,0.402-0.396,0.806-0.591,1.202c-0.181,0.403-0.33,0.811-0.491,1.203
			c-0.158,0.396-0.312,0.777-0.456,1.141c-0.16,0.362-0.243,0.72-0.35,1.044c-0.403,1.321-0.672,2.201-0.672,2.201
			s-0.022-0.926-0.058-2.315c-0.002-0.35-0.034-0.735,0.002-1.134c0.023-0.401,0.05-0.827,0.075-1.266
			c0.03-0.441,0.046-0.902,0.093-1.367c0.063-0.463,0.128-0.934,0.19-1.403c0.072-0.471,0.112-0.954,0.222-1.412
			c0.097-0.465,0.19-0.922,0.282-1.363c0.083-0.448,0.21-0.869,0.318-1.275c0.113-0.404,0.207-0.792,0.322-1.144
			c0.118-0.354,0.228-0.68,0.322-0.968c0.087-0.281,0.215-0.563,0.298-0.778c0.17-0.41,0.268-0.645,0.268-0.645L272.075,448.39z"/>
	</g>
</g>
<g>
	<path fill="none" stroke="#000000" stroke-width="4.7214" stroke-miterlimit="10" d="M211.55,280.695
		c1.35-8.285,3.006-26.271,2.229-63.259c0,0-0.623-82.757,7.467-113.871c0,0,2.488-27.378,0-50.404c0,0-4.201-44.415,13.533-47.917
		c0,0,15.636-3.968,26.834,41.07c0,0,26.834,115.741,27.306,170.811c0,0-1.867,46.667,5.598,75.604c0,0,18.203,51.336,0,64.404
		c0,0-15.868,12.135-22.401,16.335c0,0-9.46,8.4-20.597,9.334c0,0-6.471,5.134-28.874-17.27c0,0-19.134-16.797-21.057-44.097
		C200.356,303.974,210.742,285.647,211.55,280.695z"/>
	<path fill="none" stroke="#000000" stroke-width="4.7214" stroke-miterlimit="10" d="M213.154,265.309
		c0,0,16.805-29.204,47.293-25.471c0,0,19.896,2.836,30.327,31.44"/>
	<g>
		<path d="M235.245,254.151c0,0,1.785-1.626,4.979-3.317c0.796-0.423,1.673-0.862,2.632-1.257c0.954-0.408,1.979-0.806,3.068-1.136
			c1.089-0.325,2.226-0.658,3.414-0.858c1.182-0.228,2.406-0.36,3.635-0.444c1.232-0.042,2.473-0.013,3.688,0.126
			c0.606,0.064,1.209,0.144,1.794,0.29c0.59,0.11,1.161,0.271,1.72,0.441c1.122,0.319,2.158,0.785,3.101,1.277
			c0.941,0.496,1.786,1.045,2.501,1.627c0.753,0.53,1.32,1.167,1.855,1.669c0.489,0.558,0.914,1.038,1.227,1.461
			c0.605,0.867,0.925,1.366,0.925,1.366s-0.477-0.375-1.262-1.039c-0.396-0.326-0.924-0.669-1.479-1.104
			c-0.298-0.188-0.615-0.389-0.95-0.6c-0.326-0.219-0.68-0.429-1.063-0.624c-0.745-0.422-1.594-0.793-2.488-1.155
			c-0.905-0.345-1.88-0.638-2.902-0.871c-1.019-0.252-2.102-0.366-3.198-0.472c-1.099-0.102-2.227-0.098-3.354-0.039
			c-1.129,0.052-2.261,0.146-3.368,0.333c-1.105,0.177-2.202,0.364-3.25,0.614c-1.045,0.259-2.064,0.501-3.02,0.788
			c-0.954,0.286-1.858,0.564-2.689,0.843C237.446,253.203,235.245,254.151,235.245,254.151z"/>
	</g>
	<g>
		<path d="M235.245,261.929c0,0,0.379-0.463,1.146-1.174c0.77-0.707,1.926-1.67,3.461-2.623c1.522-0.974,3.435-1.922,5.604-2.646
			c1.091-0.334,2.229-0.685,3.427-0.864c1.188-0.216,2.419-0.313,3.65-0.366c1.231,0.012,2.468,0.07,3.667,0.259l0.896,0.133
			l0.872,0.207c0.581,0.124,1.141,0.297,1.688,0.471c0.553,0.161,1.082,0.355,1.591,0.573c0.516,0.198,1.002,0.43,1.469,0.667
			c0.953,0.431,1.78,0.978,2.549,1.454c0.739,0.524,1.428,0.98,1.973,1.474c0.56,0.472,1.049,0.874,1.408,1.256
			c0.737,0.743,1.137,1.18,1.137,1.18s-0.528-0.285-1.419-0.804c-0.432-0.275-1.008-0.533-1.625-0.879
			c-0.612-0.354-1.361-0.648-2.129-1.041c-0.803-0.324-1.649-0.708-2.579-1.017c-0.458-0.17-0.933-0.331-1.429-0.456
			c-0.494-0.134-0.983-0.304-1.505-0.406c-0.513-0.125-1.034-0.247-1.572-0.321c-0.532-0.095-1.073-0.173-1.621-0.231
			c-1.093-0.148-2.215-0.168-3.332-0.16c-2.239,0.016-4.473,0.372-6.539,0.862c-1.024,0.275-2.023,0.542-2.952,0.865
			c-0.927,0.328-1.807,0.648-2.604,0.986c-1.598,0.67-2.906,1.323-3.813,1.806C235.754,261.617,235.245,261.929,235.245,261.929z"/>
	</g>
	<g>
		<path d="M226.147,371.544c0,0-0.037-0.233-0.105-0.672c-0.065-0.441-0.16-1.091-0.28-1.916c-0.228-1.639-0.525-3.973-0.805-6.777
			c-0.146-1.401-0.286-2.922-0.41-4.529c-0.146-1.606-0.231-3.306-0.352-5.06c-0.092-1.756-0.174-3.569-0.237-5.413
			c-0.026-1.847-0.116-3.716-0.091-5.591c0.005-1.874-0.009-3.743,0.067-5.586c0.045-1.842,0.105-3.651,0.231-5.401
			c0.096-1.75,0.205-3.439,0.378-5.038c0.16-1.599,0.268-3.11,0.479-4.496c0.188-1.387,0.358-2.658,0.511-3.784
			c0.198-1.119,0.371-2.094,0.515-2.896c0.289-1.604,0.454-2.52,0.454-2.52s-0.092,0.926-0.253,2.547
			c-0.078,0.81-0.173,1.792-0.283,2.918c-0.063,1.13-0.131,2.405-0.207,3.796c-0.103,1.388-0.089,2.898-0.122,4.491
			c-0.046,1.592-0.021,3.272,0.022,5.01c0.013,1.736,0.096,3.529,0.195,5.35c0.069,1.819,0.229,3.666,0.371,5.51
			c0.121,1.845,0.356,3.683,0.526,5.493c0.207,1.808,0.43,3.585,0.657,5.301c0.254,1.714,0.469,3.373,0.737,4.938
			c0.247,1.566,0.501,3.043,0.753,4.402c0.492,2.722,0.962,4.974,1.309,6.539c0.177,0.775,0.314,1.383,0.41,1.798
			c0.101,0.417,0.153,0.64,0.153,0.64L226.147,371.544z"/>
	</g>
	<g>
		<path d="M273.33,370.693c0,0,0.174-0.925,0.479-2.544c0.295-1.629,0.691-3.971,1.108-6.794c0.424-2.822,0.854-6.126,1.251-9.677
			c0.203-1.775,0.363-3.613,0.55-5.481c0.138-1.87,0.315-3.771,0.425-5.674c0.096-1.903,0.245-3.81,0.283-5.687
			c0.059-1.877,0.139-3.727,0.126-5.516c0.006-1.79,0.035-3.523-0.032-5.163c-0.062-1.639-0.047-3.198-0.163-4.626
			c-0.09-1.432-0.173-2.745-0.246-3.909c-0.093-1.162-0.221-2.171-0.303-3.005c-0.176-1.668-0.276-2.622-0.276-2.622
			s0.175,0.943,0.479,2.592c0.146,0.827,0.352,1.827,0.534,2.983c0.163,1.16,0.348,2.467,0.549,3.894
			c0.227,1.427,0.332,2.983,0.521,4.627c0.194,1.645,0.301,3.384,0.434,5.185c0.152,1.8,0.214,3.663,0.302,5.558
			c0.106,1.896,0.105,3.82,0.155,5.748c0.038,1.929,0.007,3.854,0.014,5.753c-0.043,1.896-0.062,3.768-0.128,5.573
			c-0.123,3.615-0.302,6.989-0.511,9.88c-0.202,2.892-0.421,5.3-0.595,6.99c-0.188,1.697-0.294,2.667-0.294,2.667L273.33,370.693z"
			/>
	</g>
</g>
<g>
	<path d="M443.91,255.24c-1.349,39.971-2.715,95.701-0.751,116.441"/>
	<path d="M443.91,255.24c0,0,0.046,1.822,0.068,5.01c0.008,3.188,0.021,7.739,0.034,13.203c-0.015,2.73-0.028,5.688-0.044,8.816
		c-0.029,3.127-0.062,6.425-0.093,9.837c-0.092,6.822-0.188,14.098-0.286,21.375c-0.123,7.273-0.246,14.549-0.362,21.369
		c-0.041,3.408-0.082,6.705-0.12,9.83c-0.033,3.125-0.11,6.082-0.089,8.808c0.009,2.726-0.019,5.228-0.044,7.446
		c-0.045,2.22,0.08,4.144,0.1,5.736c0.074,3.184,0.085,5.011,0.085,5.011s-0.219-1.807-0.544-4.98
		c-0.135-1.588-0.401-3.517-0.519-5.734c-0.144-2.216-0.301-4.718-0.435-7.45c-0.171-2.732-0.25-5.691-0.317-8.822
		c-0.068-3.13-0.186-6.434-0.195-9.849c-0.005-3.415-0.049-6.945-0.022-10.531c-0.002-3.587,0.06-7.229,0.104-10.87
		c0.077-3.641,0.154-7.282,0.229-10.867c0.116-3.583,0.231-7.108,0.344-10.521c0.101-3.412,0.261-6.709,0.41-9.836
		c0.159-3.125,0.311-6.081,0.449-8.81c0.287-5.455,0.659-9.995,0.857-13.175C443.748,257.055,443.91,255.24,443.91,255.24z"/>
</g>
<g>
	<path d="M56.96,256.657c-1.35,39.971-2.715,95.701-0.75,116.441"/>
	<path d="M56.96,256.657c0,0,0.045,1.822,0.067,5.01c0.009,3.188,0.021,7.739,0.034,13.203c-0.014,2.73-0.027,5.688-0.043,8.816
		c-0.03,3.127-0.061,6.425-0.093,9.837c-0.091,6.822-0.189,14.098-0.286,21.375c-0.124,7.273-0.247,14.549-0.362,21.369
		c-0.042,3.41-0.083,6.705-0.12,9.83c-0.033,3.125-0.11,6.082-0.09,8.808c0.011,2.726-0.018,5.228-0.043,7.446
		c-0.045,2.22,0.081,4.144,0.101,5.736c0.075,3.184,0.085,5.011,0.085,5.011s-0.219-1.807-0.544-4.98
		c-0.136-1.588-0.402-3.517-0.521-5.733c-0.142-2.217-0.3-4.719-0.433-7.45c-0.171-2.732-0.25-5.692-0.318-8.823
		c-0.068-3.13-0.185-6.434-0.195-9.849c-0.006-3.415-0.05-6.945-0.023-10.531c-0.001-3.587,0.06-7.229,0.104-10.87
		c0.077-3.641,0.153-7.282,0.229-10.867c0.117-3.583,0.232-7.108,0.343-10.521c0.102-3.412,0.263-6.709,0.411-9.836
		c0.16-3.125,0.312-6.081,0.45-8.81c0.287-5.455,0.659-9.995,0.856-13.175C56.799,258.473,56.96,256.657,56.96,256.657z"/>
</g>
</svg>
