<?xml version="1.0" encoding="utf-8"?>
<!-- Generator: Adobe Illustrator 16.0.0, SVG Export Plug-In . SVG Version: 6.00 Build 0)  -->
<!DOCTYPE svg PUBLIC "-//W3C//DTD SVG 1.1//EN" "http://www.w3.org/Graphics/SVG/1.1/DTD/svg11.dtd">
<svg version="1.1" id="Layer_3" xmlns="http://www.w3.org/2000/svg" xmlns:xlink="http://www.w3.org/1999/xlink" x="0px" y="0px"
	 width="500px" height="900px" viewBox="0 0 500 900" enable-background="new 0 0 500 900" xml:space="preserve">
<g>
	<path fill="none" stroke="#000000" stroke-width="5" stroke-miterlimit="10" d="M11.784,395.55c0,0,45.228,28.646,113.571,0
		c0,0,9.045,40.202,6.532,62.313c0,0,1.004,34.172-26.633,47.238c0,0-1.257,2.26-8.544-5.527l-20.354-16.332
		c0,0-10.302,7.787-16.079,18.09c0,0-9.047,15.829-21.105,15.578c0,0-7.791,1.508-12.814-6.029c0,0-21.357-37.692-21.357-71.107
		C5,439.772,5.251,407.107,11.784,395.55z"/>
	<path fill="none" stroke="#000000" stroke-width="5" stroke-miterlimit="10" d="M125.356,395.55
		c0.501-7.538-3.017-66.499-3.017-66.499c-0.333-28.477-5.361-60.974-5.361-60.974c-3.686-17.758-10.05-41.877-10.05-41.877
		c-4.021-16.415-9.716-13.069-9.716-13.069c-8.04-0.334-16.079,36.854-16.079,36.854c-8.376,36.517-10.051,30.152-10.051,30.152
		s-5.528-0.168-8.795-31.072c0,0-5.024-55.907-13.568-55.152c0,0-11.306-5.274-21.608,56.157c0,0-8.292,62.229-9.633,91.711
		c0,0-3.89,49.626-5.693,53.77"/>
	<g>
		<path d="M39.173,497.562c0.363-1.028,0.822-2.03,1.345-2.996c0.525-0.967,1.104-1.911,1.736-2.826l1.008-1.333l1.092-1.28
			c0.763-0.83,1.581-1.617,2.473-2.338c0.427-0.383,0.896-0.715,1.37-1.045c0.474-0.332,0.938-0.682,1.456-0.954
			c0.51-0.285,1.015-0.586,1.547-0.837l1.636-0.688c0.546-0.236,1.135-0.351,1.707-0.524l0.867-0.236l0.887-0.143
			c0.598-0.084,1.179-0.19,1.798-0.247c0.452-0.037,0.971-0.098,1.462-0.165c3.984-0.579,7.952-1.729,11.128-3.727
			c0.791-0.5,1.53-1.055,2.179-1.675c0.66-0.609,1.261-1.269,1.74-2c0.494-0.724,0.91-1.493,1.218-2.321
			c0.346-0.813,0.514-1.704,0.689-2.598l0.053-0.269c0.253-1.282,1.497-2.116,2.779-1.864c1.143,0.227,1.93,1.24,1.908,2.366
			c-0.003,0.136,0.021,0.465,0.046,0.718c0.035,0.274,0.063,0.55,0.117,0.827c0.09,0.557,0.219,1.114,0.381,1.659
			c0.139,0.553,0.338,1.09,0.547,1.619l0.337,0.786l0.396,0.756c0.266,0.503,0.572,0.984,0.896,1.453
			c0.347,0.451,0.677,0.923,1.085,1.327c0.197,0.209,0.378,0.437,0.589,0.634l0.651,0.577c0.415,0.415,0.93,0.704,1.394,1.075
			c0.472,0.362,1.021,0.613,1.531,0.935l0.196,0.115l0.278,0.15c0.188,0.104,0.324,0.194,0.485,0.291
			c0.303,0.193,0.596,0.394,0.882,0.6c0.569,0.414,1.12,0.845,1.625,1.323c0.513,0.472,1.002,0.963,1.457,1.482
			c0.463,0.51,0.894,1.05,1.292,1.607c0.398,0.56,0.744,1.15,1.082,1.737c0.307,0.609,0.625,1.203,0.845,1.845
			c0.262,0.616,0.427,1.271,0.604,1.905c-0.38-0.551-0.696-1.119-1.11-1.628c-0.38-0.525-0.809-1.013-1.222-1.497
			c-0.443-0.465-0.884-0.921-1.365-1.336c-0.468-0.424-0.944-0.834-1.452-1.204c-0.999-0.755-2.079-1.389-3.159-1.95
			c-0.272-0.138-0.547-0.267-0.819-0.386c-0.131-0.053-0.282-0.12-0.39-0.155l-0.413-0.154c-0.655-0.271-1.348-0.479-1.983-0.817
			c-0.634-0.342-1.304-0.638-1.889-1.079l-0.905-0.623c-0.297-0.217-0.565-0.469-0.849-0.704c-0.58-0.463-1.067-1.019-1.576-1.56
			c-0.481-0.56-0.945-1.146-1.358-1.761l-0.594-0.942l-0.521-0.981c-0.327-0.663-0.637-1.34-0.879-2.04
			c-0.255-0.696-0.461-1.408-0.625-2.139c-0.09-0.359-0.153-0.734-0.222-1.106c-0.059-0.397-0.112-0.719-0.145-1.237l4.738,0.233
			c-0.16,1.229-0.383,2.471-0.821,3.669c-0.401,1.205-0.974,2.368-1.689,3.426c-1.405,2.144-3.333,3.862-5.406,5.121
			c-2.066,1.3-4.303,2.14-6.535,2.774c-2.249,0.597-4.512,0.974-6.804,1.104c-0.581,0.032-1.137,0.055-1.76,0.056l-1.417,0.064
			l-0.718,0.034l-0.708,0.124c-0.47,0.097-0.957,0.129-1.422,0.266l-1.407,0.395c-0.467,0.146-0.912,0.362-1.38,0.526
			c-0.475,0.155-0.913,0.396-1.363,0.616c-0.453,0.218-0.907,0.438-1.332,0.719c-0.886,0.5-1.707,1.114-2.558,1.708l-1.229,0.967
			l-1.177,1.045c-0.763,0.726-1.537,1.46-2.249,2.257C40.532,495.878,39.835,496.697,39.173,497.562z"/>
	</g>
	<g>
		<path d="M64.761,485.222c0,0-0.366,0.408-1.007,1.12c-0.642,0.706-1.563,1.7-2.684,2.878c-2.237,2.354-5.29,5.427-8.502,8.327
			c-0.803,0.726-1.605,1.447-2.425,2.133c-0.802,0.699-1.613,1.364-2.413,1.99c-0.78,0.644-1.576,1.224-2.328,1.771
			c-0.735,0.564-1.482,1.037-2.159,1.481c-0.664,0.462-1.32,0.818-1.896,1.139c-0.57,0.326-1.068,0.604-1.512,0.777
			c-0.859,0.377-1.352,0.592-1.352,0.592s0.454-0.283,1.247-0.78c0.405-0.229,0.854-0.575,1.364-0.976
			c0.515-0.395,1.095-0.829,1.679-1.377c0.596-0.53,1.246-1.088,1.884-1.744c0.649-0.64,1.334-1.31,2.003-2.048
			c0.685-0.721,1.375-1.479,2.055-2.272c0.694-0.777,1.372-1.595,2.046-2.413c2.701-3.27,5.223-6.685,7.053-9.281
			c0.917-1.297,1.664-2.389,2.178-3.152c0.507-0.764,0.796-1.198,0.796-1.198L64.761,485.222z"/>
	</g>
	<g>
		<path d="M73.582,280.192c0,0-0.306,7.207-0.763,18.017c-0.435,10.812-1.008,25.229-1.469,39.648
			c-0.118,3.604-0.234,7.21-0.351,10.759c-0.093,3.549-0.185,7.042-0.272,10.421c-0.083,3.38-0.165,6.648-0.241,9.747
			c-0.042,3.099-0.082,6.028-0.118,8.732c-0.027,2.705-0.094,5.186-0.079,7.382c0.029,2.197,0.056,4.111,0.078,5.688
			c0.043,3.158,0.067,4.962,0.067,4.962s-0.103-1.801-0.283-4.951c-0.09-1.577-0.198-3.492-0.324-5.689
			c-0.109-2.198-0.151-4.677-0.241-7.383c-0.081-2.706-0.167-5.638-0.26-8.739c-0.059-3.101-0.118-6.371-0.182-9.754
			c-0.058-3.383-0.119-6.88-0.18-10.433c-0.038-3.553-0.077-7.161-0.115-10.771c-0.164-14.437-0.215-28.873-0.249-39.701
			c-0.011-10.829-0.019-18.048-0.019-18.048L73.582,280.192z"/>
	</g>
</g>
<g>
	<path d="M228.703,332.914c0,0-0.107-0.244-0.311-0.7c-0.227-0.506-0.46-1.151-0.779-2.01c-0.281-0.853-0.642-1.883-0.959-3.076
		c-0.363-1.186-0.642-2.544-0.994-4.013c-0.256-1.486-0.621-3.078-0.81-4.787c-0.107-0.853-0.239-1.725-0.335-2.619
		c-0.071-0.896-0.144-1.811-0.218-2.741c-0.091-0.929-0.129-1.875-0.143-2.833c-0.023-0.956-0.048-1.925-0.071-2.899
		c0.045-1.95,0.081-3.928,0.197-5.897c0.195-1.966,0.291-3.935,0.567-5.853c0.297-1.916,0.516-3.807,0.861-5.613
		c0.372-1.799,0.73-3.539,1.07-5.188c0.394-1.637,0.837-3.165,1.206-4.582c0.372-1.417,0.719-2.712,1.122-3.834
		c0.374-1.128,0.701-2.112,0.97-2.922c0.536-1.617,0.843-2.541,0.843-2.541s-0.232,0.945-0.637,2.602
		c-0.202,0.826-0.448,1.83-0.73,2.981c-0.311,1.143-0.551,2.458-0.806,3.893c-0.254,1.434-0.57,2.979-0.828,4.622
		c-0.205,1.651-0.42,3.392-0.645,5.192c-0.195,1.8-0.261,3.674-0.4,5.564c-0.12,1.894-0.058,3.823-0.096,5.741
		c0.04,1.92,0.161,3.837,0.268,5.716c0.099,0.937,0.197,1.865,0.294,2.782c0.085,0.918,0.194,1.82,0.354,2.7
		c0.143,0.881,0.281,1.748,0.417,2.595c0.16,0.843,0.352,1.659,0.519,2.457c0.305,1.603,0.773,3.068,1.121,4.438
		c0.44,1.341,0.798,2.584,1.22,3.64c0.38,1.075,0.777,1.97,1.09,2.713c0.333,0.715,0.605,1.309,0.782,1.622
		c0.196,0.364,0.301,0.558,0.301,0.558L228.703,332.914z"/>
</g>
<g>
	<path fill="none" stroke="#000000" stroke-width="5" stroke-miterlimit="10" d="M215.217,246.333c0,0,3.46-12.358,3.953-38.56
		c0,0-3.953-83.545,14.83-150.282c0,0,8.827-54.38,17.762-25.212c0,0,24.259,64.761,26.731,96.894c0,0,4.942,34.604,7.908,60.804
		c0,0,0,41.034,3.956,56.356c0,0,7.414,28.675,10.382,34.113c2.966,5.438,3.46,29.661-20.762,39.546c0,0-9.89,5.439-14.585,10.382
		c0,0-14.585,17.055-36.335,0c0,0-29.414-16.066-25.953-47.212C203.105,283.162,204.34,269.322,215.217,246.333z"/>
	<path fill="none" stroke="#000000" stroke-width="5" stroke-miterlimit="10" d="M217.915,229.5c0,0,39.609-24.475,70.606,5.941"/>
	<g>
		<path d="M234.497,236.696c0,0,0.398-0.388,1.175-0.93c0.77-0.561,1.916-1.265,3.363-1.956c0.729-0.327,1.521-0.693,2.386-0.99
			c0.861-0.317,1.784-0.611,2.757-0.847c0.965-0.273,1.991-0.442,3.032-0.614c1.043-0.168,2.122-0.227,3.195-0.313
			c1.084,0.017,2.165-0.036,3.233,0.076c0.534,0.046,1.063,0.106,1.583,0.176c0.521,0.055,1.034,0.136,1.535,0.269
			c1.003,0.241,1.967,0.424,2.852,0.791c0.884,0.354,1.72,0.622,2.44,1.043c0.725,0.405,1.369,0.792,1.925,1.146
			c0.549,0.375,0.977,0.802,1.337,1.106c0.712,0.637,1.068,1.042,1.068,1.042s-0.572-0.024-1.486-0.139
			c-0.46-0.052-0.995-0.144-1.612-0.206c-0.628-0.037-1.317-0.093-2.051-0.171c-0.36-0.054-0.749-0.068-1.149-0.072
			c-0.396-0.021-0.803-0.041-1.222-0.062c-0.817-0.093-1.716-0.025-2.608-0.074c-0.892-0.067-1.839,0.039-2.777-0.002
			c-0.943,0.004-1.912,0.064-2.874,0.071c-0.97,0.045-1.938,0.09-2.894,0.135c-0.958,0.078-1.909,0.087-2.832,0.162
			c-0.926,0.05-1.825,0.096-2.685,0.151c-0.868,0.041-1.688,0.08-2.444,0.115c-1.524,0.075-2.834,0.093-3.764,0.101
			C235.052,236.712,234.497,236.696,234.497,236.696z"/>
	</g>
	<g>
		<path d="M234.497,244.111c0,0,0.369-0.423,1.117-1.017c0.741-0.61,1.857-1.395,3.3-2.146c0.72-0.376,1.517-0.755,2.386-1.088
			c0.861-0.361,1.803-0.641,2.783-0.925c0.486-0.158,1-0.238,1.513-0.354c0.516-0.103,1.035-0.231,1.569-0.291
			c1.068-0.121,2.153-0.281,3.256-0.275c1.099-0.008,2.2-0.02,3.281,0.136c0.54,0.052,1.074,0.114,1.6,0.192
			c0.523,0.111,1.04,0.218,1.543,0.347c0.502,0.131,0.999,0.228,1.473,0.381c0.472,0.177,0.932,0.338,1.371,0.517
			c0.438,0.18,0.862,0.354,1.273,0.522c0.404,0.184,0.776,0.414,1.137,0.615c0.715,0.422,1.358,0.804,1.9,1.188
			c0.526,0.422,0.962,0.821,1.316,1.141c0.708,0.644,1.065,1.054,1.065,1.054s-0.573-0.03-1.496-0.157
			c-0.46-0.066-1.015-0.136-1.623-0.251c-0.628-0.069-1.333-0.126-2.074-0.223c-0.731-0.126-1.542-0.172-2.385-0.229
			c-0.42-0.028-0.844-0.082-1.277-0.124c-0.438-0.016-0.885-0.03-1.34-0.048c-0.453-0.011-0.908-0.049-1.369-0.082
			c-0.466,0.009-0.937,0.012-1.407-0.001c-0.942-0.034-1.903-0.012-2.865,0.02c-0.961-0.038-1.926,0.1-2.881,0.096
			c-0.959,0.062-1.903,0.122-2.816,0.18c-0.915,0.093-1.818,0.121-2.669,0.217c-0.864,0.072-1.681,0.142-2.435,0.205
			c-0.771,0.063-1.477,0.121-2.103,0.171c-0.625,0.069-1.198,0.079-1.656,0.128c-0.461,0.047-0.839,0.05-1.09,0.076
			C234.635,244.103,234.497,244.111,234.497,244.111z"/>
	</g>
	<g>
		<path d="M242.9,250.537c0,0,0.181-0.276,0.555-0.638c0.188-0.178,0.419-0.41,0.7-0.626c0.277-0.212,0.599-0.433,0.957-0.653
			c0.717-0.458,1.599-0.8,2.565-1.112c0.486-0.13,0.997-0.231,1.518-0.306c0.521-0.081,1.053-0.145,1.592-0.135
			c1.077,0.047,2.147,0.065,3.142,0.398c0.495,0.142,0.966,0.312,1.405,0.486c0.438,0.177,0.844,0.363,1.204,0.618
			c0.723,0.476,1.273,0.96,1.637,1.337c0.365,0.367,0.546,0.63,0.546,0.63s-0.308,0.155-0.795,0.333
			c-0.491,0.188-1.158,0.402-1.898,0.553c-0.735,0.138-1.599,0.396-2.465,0.464c-0.219,0.03-0.438,0.036-0.66,0.049
			c-0.226,0.034-0.453,0.063-0.681,0.077c-0.457,0.05-0.917,0.048-1.379,0.054c-0.459-0.039-0.926,0.007-1.386-0.027
			c-0.46-0.013-0.917-0.065-1.364-0.128c-0.889-0.063-1.755-0.274-2.51-0.444c-0.765-0.188-1.42-0.421-1.898-0.604
			c-0.237-0.081-0.439-0.184-0.574-0.229C242.972,250.571,242.9,250.537,242.9,250.537z"/>
	</g>
	<g>
		<path d="M267.36,325.819c0,0,0.063-0.163,0.176-0.469c0.104-0.266,0.255-0.743,0.446-1.332c0.17-0.606,0.405-1.333,0.609-2.2
			c0.229-0.856,0.438-1.841,0.662-2.92c0.209-1.081,0.419-2.261,0.597-3.519c0.163-1.259,0.352-2.589,0.442-3.979
			c0.145-1.386,0.189-2.825,0.241-4.292c0.079-1.467-0.005-2.958,0.003-4.456c-0.054-1.494-0.172-2.987-0.253-4.464
			c-0.165-1.47-0.328-2.917-0.486-4.317c-0.232-1.394-0.457-2.741-0.67-4.018c-0.195-1.285-0.534-2.465-0.767-3.576
			c-0.262-1.104-0.454-2.132-0.735-3.01c-0.257-0.888-0.48-1.661-0.665-2.298c-0.369-1.277-0.58-2.008-0.58-2.008
			s0.285,0.704,0.783,1.937c0.25,0.618,0.553,1.367,0.899,2.228c0.374,0.854,0.672,1.856,1.049,2.938
			c0.348,1.089,0.813,2.249,1.143,3.519c0.349,1.27,0.717,2.608,1.097,3.992c0.308,1.406,0.625,2.86,0.948,4.336
			c0.238,1.493,0.517,3.01,0.729,4.538c0.153,1.532,0.396,3.065,0.474,4.586c0.104,1.521,0.208,3.021,0.209,4.478
			c0.052,1.458,0.002,2.867-0.034,4.209c-0.051,1.34-0.144,2.608-0.246,3.78c-0.12,1.173-0.234,2.248-0.387,3.202
			c-0.124,0.954-0.299,1.788-0.419,2.478c-0.149,0.693-0.258,1.227-0.369,1.64c-0.098,0.374-0.148,0.573-0.148,0.573L267.36,325.819
			z"/>
	</g>
	<path fill="none" stroke="#000000" stroke-width="5" stroke-miterlimit="10" d="M251.762,32.28c0,0,6.627-8.075,10.252,7.417
		c0,0,7.592,26.447,10.062,56.066"/>
</g>
<g>
	<path fill="none" stroke="#000000" stroke-width="5" stroke-miterlimit="10" d="M375.651,404.171
		c-2.439,12.737-6.48,37.334-4.717,52.847c0,0-0.985,33.506,26.112,46.318c0,0,1.231,2.216,8.376-5.42l19.956-16.017
		c0,0,10.103,7.637,15.765,17.738c0,0,8.872,15.521,20.695,15.272c0,0,7.642,1.479,12.563-5.912c0,0,22.594-36.623,22.594-69.387
		c0,0,0.218-19.944-2.226-33.452c-0.469-2.587-30.896,5.886-59.245,4.616C405.823,409.444,376.147,401.583,375.651,404.171z"/>
	<path fill="none" stroke="#000000" stroke-width="5" stroke-miterlimit="10" d="M376.865,402.703
		c-0.208-3.138,3.785-15.138,6.098-30.159c3.138-20.369,3.747-43.172,3.747-43.172c0.324-27.919,7.788-60.969,7.788-60.969
		c3.612-17.413,10.326-39.725,10.326-39.725c3.941-16.096,11.095-15.974,11.095-15.974c7.886-0.327,14.197,39.292,14.197,39.292
		c5.408,28.27,11.016,24.103,11.016,24.103s3.955,1.079,8.404-26.481c0,0,9.181-52.366,17.56-51.626c0,0,7.272-5.969,17.374,54.262
		c0,0,2.97,61.398,4.285,90.303c0,0,4.244,59.544,6.016,63.605"/>
	<g>
		<path d="M442.472,275.953c0,0-0.01,7.079-0.026,17.696c-0.037,10.617-0.094,24.771-0.261,38.927
			c-0.04,3.539-0.079,7.077-0.118,10.561c-0.062,3.482-0.122,6.911-0.181,10.229c-0.063,3.317-0.124,6.523-0.183,9.564
			c-0.092,3.041-0.179,5.915-0.259,8.568c-0.09,2.653-0.132,5.084-0.24,7.239c-0.123,2.154-0.23,4.032-0.319,5.578
			c-0.179,3.089-0.279,4.854-0.279,4.854s0.023-1.769,0.064-4.864c0.021-1.546,0.046-3.425,0.073-5.578
			c0.014-2.154-0.053-4.586-0.08-7.238c-0.036-2.651-0.076-5.524-0.119-8.562c-0.076-3.038-0.157-6.242-0.24-9.558
			c-0.088-3.313-0.179-6.738-0.271-10.218c-0.114-3.479-0.231-7.014-0.349-10.549c-0.458-14.139-1.026-28.273-1.457-38.874
			c-0.452-10.6-0.754-17.665-0.754-17.665L442.472,275.953z"/>
	</g>
	<g>
		<path d="M397.627,491.109c0.798-0.109,1.575-0.269,2.338-0.484l1.129-0.338l1.098-0.402l1.063-0.467l1.023-0.521
			c0.335-0.183,0.655-0.389,0.98-0.58c0.332-0.18,0.623-0.429,0.931-0.641c0.309-0.212,0.605-0.438,0.878-0.695
			c0.275-0.251,0.567-0.477,0.831-0.735l0.771-0.789c0.271-0.245,0.468-0.565,0.703-0.843c0.218-0.295,0.477-0.55,0.654-0.874
			l0.583-0.923c0.21-0.293,0.346-0.641,0.515-0.962l0.495-0.966l0.002-0.002l0.072-0.126c0.243-0.418,0.458-0.765,0.697-1.136
			c0.235-0.363,0.476-0.725,0.729-1.078c0.509-0.705,1.043-1.397,1.638-2.067c0.597-0.669,1.218-1.332,1.975-1.937
			c0.376-0.303,0.765-0.602,1.214-0.872c0.458-0.29,0.871-0.501,1.529-0.767c1.507-0.545,3.038-1.079,4.527-1.65l2.2-0.855
			c0.359-0.146,0.697-0.293,1.021-0.439l0.398-0.199c0.024-0.02,0.05-0.034,0.075-0.047c-0.012,0.009,0.057-0.031-0.021,0.017
			c-0.063,0.04-0.121,0.086-0.178,0.137c-0.111,0.103-0.209,0.226-0.278,0.354l3.053-0.878c0.918,0.381,1.883,0.788,2.835,1.159
			c0.956,0.378,1.914,0.728,2.871,1.063c0.479,0.186,0.95,0.318,1.426,0.48c0.479,0.164,0.948,0.31,1.407,0.421
			c0.451,0.107,0.954,0.286,1.351,0.325l1.472,0.255l0.782,0.127l0.392,0.063l0.473,0.119c0.623,0.178,1.31,0.322,1.87,0.555
			c0.565,0.232,1.143,0.449,1.687,0.722l1.59,0.888l1.47,1.047c0.492,0.346,0.898,0.785,1.347,1.175
			c0.455,0.387,0.842,0.832,1.228,1.275c0.382,0.444,0.798,0.866,1.115,1.354l0.993,1.428l0.849,1.495l0.414,0.749l0.338,0.78
			l0.669,1.556c0.347,1.064,0.734,2.117,0.979,3.196c0.225,1.085,0.536,2.146,0.655,3.235c0.156,1.083,0.333,2.159,0.356,3.248
			c0.042,1.085,0.155,2.158,0.104,3.236c-0.051,1.079-0.033,2.149-0.143,3.218c-0.115,1.066-0.227,2.13-0.368,3.184
			c-0.179-1.058-0.324-2.106-0.477-3.152c-0.127-1.045-0.379-2.074-0.562-3.104c-0.15-1.033-0.446-2.039-0.677-3.047
			c-0.212-1.016-0.575-1.985-0.849-2.97c-0.255-0.993-0.689-1.92-1.03-2.869c-0.365-0.941-0.855-1.819-1.253-2.729l-0.74-1.282
			c-0.235-0.434-0.491-0.849-0.781-1.238l-0.829-1.19l-0.93-1.09c-0.286-0.384-0.649-0.688-0.979-1.021
			c-0.333-0.33-0.661-0.665-1.04-0.933c-0.371-0.273-0.711-0.594-1.099-0.834l-1.151-0.732l-1.212-0.592
			c-0.409-0.179-0.84-0.298-1.251-0.465c-0.418-0.162-0.783-0.197-1.172-0.317c-0.099-0.024-0.183-0.055-0.294-0.076l-0.393-0.052
			l-0.786-0.102l-0.72-0.099l-0.938-0.143c-0.657-0.083-1.156-0.261-1.732-0.394c-0.567-0.137-1.107-0.296-1.632-0.47
			c-0.525-0.173-1.072-0.323-1.582-0.515c-1.035-0.367-2.054-0.758-3.06-1.165c-1.009-0.414-1.994-0.816-3.009-1.289l3.053-0.878
			c-0.147,0.195-0.32,0.385-0.509,0.554c-0.096,0.085-0.193,0.164-0.293,0.237c-0.114,0.083-0.097,0.063-0.15,0.098l-0.455,0.258
			c-0.257,0.127-0.472,0.221-0.703,0.324c-0.425,0.178-0.84,0.342-1.239,0.488c-0.808,0.296-1.597,0.577-2.391,0.826
			c-1.587,0.505-3.151,0.99-4.751,1.433c-0.098,0.041-0.436,0.148-0.672,0.288c-0.261,0.126-0.537,0.308-0.809,0.493
			c-0.276,0.188-0.547,0.405-0.823,0.631c-0.273,0.229-0.549,0.464-0.815,0.721c-0.539,0.502-1.058,1.056-1.56,1.629
			c-0.254,0.283-0.503,0.575-0.746,0.871c-0.238,0.288-0.491,0.609-0.69,0.877l0.073-0.128l-0.725,1.09
			c-0.25,0.355-0.475,0.727-0.773,1.05l-0.851,0.991c-0.268,0.341-0.617,0.613-0.923,0.92c-0.325,0.288-0.61,0.612-0.97,0.861
			l-1.027,0.785c-0.345,0.257-0.729,0.457-1.095,0.681c-0.36,0.229-0.741,0.422-1.132,0.597c-0.388,0.175-0.757,0.382-1.16,0.516
			c-0.396,0.146-0.786,0.304-1.186,0.433c-0.402,0.117-0.805,0.231-1.207,0.336l-1.223,0.236c-0.819,0.12-1.636,0.222-2.454,0.226
			C399.239,491.275,398.423,491.245,397.627,491.109z"/>
	</g>
	<g>
		<path d="M430.17,470.785c0,0,0.258,0.419,0.707,1.152c0.229,0.357,0.479,0.79,0.823,1.292c0.334,0.502,0.711,1.068,1.122,1.687
			c0.411,0.62,0.894,1.27,1.383,1.97c0.5,0.693,1.007,1.443,1.583,2.18c0.567,0.745,1.154,1.515,1.75,2.297
			c0.585,0.795,1.237,1.551,1.869,2.328c0.639,0.774,1.275,1.549,1.902,2.313c0.635,0.759,1.301,1.465,1.924,2.172
			c0.63,0.702,1.238,1.381,1.815,2.024c0.566,0.657,1.154,1.225,1.683,1.766c2.128,2.155,3.546,3.595,3.546,3.595
			s-1.626-1.205-4.064-3.012c-0.609-0.456-1.287-0.934-1.95-1.496c-0.676-0.554-1.388-1.136-2.125-1.737
			c-0.733-0.608-1.516-1.216-2.269-1.876c-0.749-0.667-1.51-1.345-2.271-2.022c-0.758-0.682-1.539-1.346-2.252-2.053
			c-0.728-0.698-1.44-1.384-2.133-2.049c-0.703-0.655-1.335-1.336-1.954-1.964c-0.612-0.636-1.207-1.223-1.729-1.793
			s-1.003-1.094-1.428-1.559c-0.428-0.454-0.792-0.898-1.096-1.243c-0.589-0.692-0.926-1.088-0.926-1.088L430.17,470.785z"/>
	</g>
</g>
<g>
	<path fill="none" stroke="#000000" stroke-width="5" stroke-miterlimit="10" d="M215.033,786.193c0,0,37.897-25.379,69.866,0
		c0,0,13.185,42.842,14.503,57.014c0,0,6.262,23.074-18.785,38.892l-14.831,11.533c0,0-12.688,7.582-23.895,0
		c0,0-21.421-18.124-25.704-20.104c0,0-14.668-10.546-14.668-28.835c0,0,0.165-7.911,5.438-18.458
		C206.959,826.235,217.34,800.199,215.033,786.193z"/>
	<g>
		<path d="M217.671,805.308c-0.029,1.748-0.091,3.493-0.161,5.243l-0.108,2.624l-0.193,2.619l-0.194,2.623l-0.098,1.313
			c-0.026,0.438-0.104,0.875-0.16,1.313l-0.738,5.262l-0.023,0.086c-0.205,0.745-0.389,1.563-0.551,2.354
			c-0.16,0.801-0.301,1.604-0.425,2.411c-0.245,1.613-0.438,3.232-0.541,4.854c-0.21,3.241-0.089,6.485,0.438,9.624
			c0.153,0.778,0.287,1.562,0.483,2.325c0.168,0.771,0.411,1.52,0.643,2.268c0.253,0.739,0.52,1.472,0.838,2.18
			c0.302,0.716,0.656,1.403,1.028,2.076l0.58,0.995l0.646,0.949c0.436,0.627,0.918,1.221,1.417,1.793l0.774,0.838
			c0.266,0.271,0.556,0.52,0.83,0.781c0.535,0.54,1.177,0.965,1.75,1.461l0.232,0.2l0.123,0.146
			c0.937,1.113,1.942,2.251,2.941,3.355c1.004,1.107,2.025,2.201,3.063,3.276c2.073,2.152,4.209,4.235,6.418,6.202
			c2.216,1.951,4.476,3.84,6.853,5.404c0.596,0.379,1.19,0.755,1.794,1.084c0.601,0.33,1.207,0.645,1.806,0.886
			c0.301,0.142,0.597,0.242,0.891,0.339c0.299,0.116,0.582,0.179,0.863,0.246c0.57,0.149,1.074,0.161,1.528,0.161l0.382,0.004
			c-0.021-0.015-0.044-0.021-0.065-0.018l-0.017,0.004l0.049-0.013l0.098-0.022l0.396-0.083c0.239-0.019,0.592-0.173,0.904-0.276
			l0.961-0.332c0.319-0.104,0.655-0.307,0.982-0.454l1.979-0.955l1.954-1.164l1.96-1.159c0.642-0.418,1.267-0.884,1.899-1.321
			l1.897-1.334c0.627-0.453,1.276-0.867,1.887-1.354l3.653-2.934l1.827-1.467c0.618-0.477,1.207-0.993,1.788-1.523
			c2.334-2.103,4.702-4.167,7.065-6.239l0.161-0.143l0.195-0.134l0.225-0.155c0.089-0.059,0.188-0.138,0.282-0.212
			c0.194-0.144,0.386-0.303,0.575-0.473c0.388-0.318,0.745-0.696,1.109-1.057c0.339-0.393,0.711-0.754,1.017-1.179
			c0.324-0.407,0.646-0.817,0.921-1.265c0.298-0.432,0.579-0.872,0.815-1.342c0.257-0.458,0.518-0.915,0.709-1.407
			c0.194-0.49,0.462-0.95,0.603-1.464l0.5-1.512l0.36-1.56c0.149-0.514,0.189-1.055,0.27-1.587c0.057-0.535,0.183-1.063,0.188-1.608
			l0.063-1.631c0.045-0.543-0.004-1.092-0.035-1.641l-0.093-1.648c-0.049-0.549-0.156-1.097-0.23-1.646l-0.244-1.65l-0.029-0.176
			l-2.166-23.175c-0.355-3.863-0.741-7.726-1.057-11.598c-0.076-0.97-0.21-1.924-0.313-2.888l-0.318-2.891l-0.603-5.805l1.262,5.688
			l0.614,2.856c0.193,0.953,0.42,1.906,0.588,2.862c0.712,3.821,1.354,7.653,2.026,11.483c0.697,3.828,1.239,7.672,1.853,11.51
			l0.896,5.76l0.829,5.771l-0.029-0.177l0.354,1.806c0.11,0.604,0.251,1.202,0.334,1.813l0.189,1.848
			c0.063,0.615,0.14,1.23,0.121,1.857l0.012,1.875c0.018,0.626-0.091,1.253-0.133,1.881c-0.063,0.628-0.091,1.259-0.234,1.88
			l-0.367,1.87l-0.551,1.835c-0.16,0.62-0.455,1.197-0.681,1.797c-0.224,0.604-0.521,1.174-0.819,1.744
			c-0.278,0.581-0.608,1.136-0.961,1.679c-0.327,0.558-0.71,1.08-1.1,1.599c-0.369,0.532-0.817,1.009-1.234,1.509
			c-0.45,0.476-0.89,0.956-1.392,1.397c-0.24,0.226-0.492,0.446-0.763,0.661c-0.132,0.106-0.26,0.215-0.409,0.323
			c-0.149,0.109-0.272,0.206-0.492,0.351l0.355-0.275c-2.354,2.18-4.701,4.369-7.085,6.521c-0.588,0.546-1.188,1.08-1.822,1.58
			l-1.874,1.532l-3.75,3.064c-0.627,0.508-1.313,0.959-1.97,1.439l-1.986,1.425c-0.667,0.471-1.315,0.959-1.999,1.412l-2.126,1.289
			c-0.712,0.428-1.413,0.863-2.139,1.274l-2.318,1.097c-0.397,0.174-0.751,0.38-1.186,0.526l-1.293,0.438
			c-0.442,0.14-0.824,0.307-1.377,0.391l-0.774,0.142l-0.194,0.033l-0.098,0.016l-0.165,0.011c-0.221,0.011-0.441,0.013-0.661,0.006
			l0.381,0.004c-1.063,0.035-2.082-0.064-2.984-0.299c-0.457-0.111-0.91-0.229-1.32-0.389c-0.427-0.146-0.846-0.299-1.232-0.479
			c-0.804-0.338-1.545-0.731-2.27-1.137c-0.726-0.406-1.41-0.847-2.091-1.289c-1.339-0.902-2.605-1.864-3.832-2.856
			c-1.224-0.993-2.395-2.03-3.532-3.095c-2.271-2.133-4.425-4.352-6.503-6.628c-1.04-1.139-2.061-2.291-3.063-3.46
			c-1.006-1.174-1.981-2.338-2.967-3.574l0.354,0.347c-0.682-0.601-1.406-1.149-2.024-1.82c-0.316-0.326-0.646-0.642-0.948-0.979
			l-0.88-1.041c-0.565-0.707-1.105-1.439-1.589-2.204l-0.711-1.152l-0.629-1.196c-0.4-0.804-0.773-1.623-1.084-2.459
			c-0.329-0.831-0.598-1.68-0.847-2.531c-0.226-0.854-0.457-1.712-0.607-2.578c-0.183-0.861-0.295-1.73-0.404-2.6
			c-0.366-3.479-0.272-6.952,0.158-10.354c0.222-1.699,0.503-3.388,0.896-5.05c0.195-0.832,0.408-1.658,0.642-2.479
			c0.238-0.827,0.48-1.625,0.786-2.47l-0.024,0.087l1.113-5.046c0.085-0.424,0.207-0.839,0.271-1.27l0.219-1.285l0.438-2.574
			l0.438-2.577l0.387-2.589C217.182,808.771,217.443,807.043,217.671,805.308z"/>
	</g>
	<path fill="none" stroke="#000000" stroke-width="5" stroke-miterlimit="10" d="M216.184,785.473c0,0,0.497-90.246,25.216-175.604
		c0,0,3.954-19.441,7.579-19.112c0,0,4.615-4.611,12.525,36.583"/>
	<g>
		<path d="M263.949,626.934c0,0,1.087,5.829,2.549,14.568c0.73,4.372,1.555,9.479,2.39,14.956c0.404,2.74,0.821,5.571,1.245,8.449
			c0.411,2.88,0.825,5.806,1.2,8.736c0.786,5.856,1.474,11.729,2.041,17.238c0.313,2.751,0.512,5.425,0.746,7.951
			c0.25,2.524,0.354,4.928,0.518,7.136c0.175,2.208,0.208,4.242,0.286,6.039c0.034,0.898,0.066,1.739,0.096,2.518
			c0.001,0.779,0.002,1.494,0.003,2.142c-0.004,2.58-0.006,4.057-0.006,4.057s-0.076-1.473-0.209-4.05
			c-0.035-0.645-0.074-1.356-0.116-2.132c-0.069-0.773-0.146-1.611-0.228-2.507c-0.174-1.786-0.313-3.806-0.604-5.998
			c-0.278-2.192-0.51-4.572-0.893-7.076c-0.366-2.506-0.704-5.15-1.161-7.875c-0.855-5.455-1.85-11.262-2.941-17.05
			c-0.526-2.896-1.095-5.787-1.654-8.632c-0.574-2.841-1.14-5.637-1.687-8.343c-1.119-5.407-2.208-10.443-3.167-14.755
			c-1.918-8.628-3.298-14.333-3.298-14.333L263.949,626.934z"/>
	</g>
	<path fill="none" stroke="#000000" stroke-width="5" stroke-miterlimit="10" d="M254.706,599.453c0,0,3.335-16.938,8.527-16.938
		c0,0,6.672-1.481,9.392,35.844c0,0,7.582,61.154,11.123,132.734l1.151,35.1"/>
</g>
<g>
	<path fill="none" stroke="#000000" stroke-width="5" stroke-miterlimit="10" d="M252.096,385.155
		c22.57,3.06,30.027,15.163,35.632,20.765c0,0,16.358,11.204,14.77,32.628c0,0,3.026,9.886-6.2,34.275
		c0,0-2.801,41.521-29.58,41.854c0,0-26.173,3.958-38.176-14.498c0,0-10.683-19.446-17.604-30.157c0,0-16.806-30.813,0-59.157
		c0,0,9.333-11.868,20.322-18.128C231.258,392.737,240.232,383.551,252.096,385.155z"/>
	<g>
		<path d="M223.791,434.924c0.866,1.656,1.817,3.233,2.855,4.738c0.516,0.753,1.034,1.498,1.591,2.211
			c0.546,0.723,1.14,1.402,1.712,2.09c1.158,1.364,2.424,2.618,3.747,3.771c0.649,0.591,1.34,1.13,2.034,1.651
			c0.688,0.532,1.409,1.011,2.131,1.479c0.745,0.435,1.468,0.896,2.238,1.271c0.748,0.416,1.546,0.726,2.318,1.078
			c0.794,0.307,1.583,0.62,2.401,0.85c0.803,0.276,1.639,0.444,2.457,0.664c0.842,0.136,1.665,0.341,2.518,0.418l1.268,0.162
			l1.282,0.076c0.852,0.079,1.716,0.026,2.575,0.053c0.859-0.006,1.727-0.086,2.59-0.121l-0.203,0.027
			c0.514-0.111,1.248-0.272,1.89-0.474c0.664-0.18,1.322-0.428,1.985-0.646c0.647-0.272,1.319-0.487,1.962-0.78
			c0.642-0.296,1.304-0.549,1.925-0.891c0.624-0.334,1.285-0.607,1.89-0.983c0.609-0.363,1.246-0.691,1.841-1.084l1.799-1.169
			l1.727-1.286c0.599-0.407,1.109-0.914,1.67-1.372c0.554-0.465,1.133-0.911,1.634-1.436l1.566-1.527l1.477-1.63
			c0.496-0.545,1.011-1.083,1.438-1.685c0.444-0.592,0.91-1.173,1.382-1.758c0.499-0.568,0.85-1.228,1.298-1.836
			c0.435-0.616,0.858-1.244,1.314-1.863c-0.219,0.727-0.469,1.444-0.709,2.174c-0.261,0.717-0.471,1.469-0.813,2.152
			c-0.314,0.699-0.636,1.401-0.978,2.096c-0.313,0.711-0.722,1.366-1.115,2.035c-0.397,0.666-0.778,1.351-1.225,1.989l-1.393,1.885
			c-0.448,0.646-0.981,1.222-1.495,1.817c-0.53,0.58-1.029,1.197-1.615,1.726c-0.568,0.546-1.14,1.095-1.725,1.629l-1.846,1.499
			c-0.618,0.499-1.295,0.918-1.941,1.381c-0.646,0.47-1.347,0.851-2.026,1.267c-0.678,0.423-1.405,0.757-2.11,1.132
			c-0.711,0.371-1.454,0.679-2.188,1.004c-0.756,0.284-1.498,0.592-2.28,0.835c-0.383,0.133-0.776,0.253-1.18,0.362
			c-0.411,0.123-0.775,0.209-1.296,0.315l-0.104,0.021l-0.1,0.006c-0.981,0.059-1.959,0.155-2.945,0.175
			c-0.987-0.004-1.975,0.037-2.966-0.064l-1.484-0.107l-1.479-0.205c-0.99-0.108-1.958-0.39-2.934-0.585
			c-0.957-0.294-1.935-0.516-2.861-0.898c-0.945-0.329-1.854-0.749-2.761-1.166c-0.89-0.453-1.776-0.912-2.608-1.459
			c-0.852-0.514-1.655-1.099-2.445-1.693c-0.77-0.622-1.526-1.252-2.237-1.931c-0.705-0.683-1.393-1.382-2.024-2.123
			c-0.652-0.724-1.23-1.508-1.8-2.289c-0.565-0.784-1.094-1.59-1.593-2.408c-0.506-0.814-0.941-1.67-1.36-2.525
			c-0.417-0.857-0.809-1.723-1.149-2.607c-0.335-0.887-0.642-1.781-0.905-2.685C224.159,436.763,223.923,435.852,223.791,434.924z"
			/>
	</g>
	<g>
		<path d="M249.43,460.267c0,0-0.079-0.028-0.226-0.08c-0.078-0.04-0.371-0.114-0.677-0.193c-0.33-0.073-0.734-0.163-1.226-0.229
			c-0.482-0.085-1.05-0.125-1.669-0.176c-0.624-0.024-1.304-0.063-2.033-0.026c-0.729-0.006-1.5,0.088-2.305,0.151
			c-0.8,0.101-1.633,0.222-2.477,0.379c-0.833,0.202-1.708,0.329-2.546,0.6c-0.843,0.253-1.709,0.461-2.522,0.782
			c-0.817,0.309-1.654,0.555-2.412,0.911c-0.772,0.337-1.519,0.663-2.227,0.972c-0.69,0.353-1.344,0.684-1.946,0.99
			c-0.612,0.297-1.157,0.598-1.626,0.887c-0.479,0.28-0.895,0.524-1.236,0.727c-0.688,0.403-1.081,0.635-1.081,0.635
			s0.347-0.294,0.955-0.81c0.305-0.259,0.676-0.571,1.101-0.932c0.419-0.37,0.909-0.765,1.468-1.165
			c0.552-0.413,1.15-0.86,1.783-1.334c0.662-0.437,1.36-0.896,2.082-1.374c0.715-0.499,1.521-0.897,2.313-1.364
			c0.787-0.478,1.645-0.852,2.487-1.271c0.835-0.438,1.732-0.735,2.592-1.105c0.875-0.325,1.754-0.613,2.615-0.877
			c0.87-0.226,1.712-0.476,2.537-0.616c0.817-0.181,1.61-0.278,2.347-0.375c0.741-0.07,1.423-0.137,2.044-0.141
			c0.615-0.021,1.167-0.003,1.626,0.021c0.479,0.035,0.804,0.058,1.14,0.115c0.268,0.044,0.409,0.067,0.409,0.067L249.43,460.267z"
			/>
	</g>
	<g>
		<path d="M267.665,451.495c0,0,0.412,0.093,1.133,0.253c0.712,0.164,1.713,0.417,2.908,0.737c2.387,0.647,5.531,1.619,8.592,2.817
			c1.531,0.592,3.032,1.265,4.415,1.933c0.68,0.357,1.337,0.703,1.961,1.031c0.602,0.363,1.171,0.707,1.696,1.023
			c0.515,0.332,0.964,0.676,1.368,0.956c0.412,0.272,0.732,0.569,1.004,0.799c0.534,0.46,0.842,0.723,0.842,0.723
			s-0.352-0.198-0.964-0.546c-0.308-0.17-0.665-0.394-1.119-0.58c-0.447-0.195-0.938-0.438-1.49-0.657
			c-0.56-0.204-1.166-0.424-1.808-0.657c-0.652-0.194-1.342-0.399-2.054-0.612c-1.438-0.376-2.979-0.731-4.54-1.008
			c-3.113-0.563-6.263-0.896-8.619-1.063c-1.18-0.079-2.159-0.132-2.841-0.153c-0.672-0.018-1.056-0.026-1.056-0.026
			L267.665,451.495z"/>
	</g>
	<g>
		<path d="M254.99,460.366c0,0-0.106-0.018-0.31-0.052c-0.086-0.014-0.191-0.03-0.315-0.051c-0.146-0.016-0.313-0.032-0.503-0.052
			c-0.376-0.044-0.854-0.058-1.396-0.08c-0.546,0.01-1.169-0.015-1.846,0.055c-0.684,0.025-1.41,0.141-2.189,0.255
			c-0.395,0.04-0.776,0.166-1.182,0.247c-0.399,0.103-0.827,0.162-1.229,0.315c-0.816,0.266-1.679,0.523-2.496,0.93
			c-0.856,0.333-1.646,0.82-2.457,1.295c-0.42,0.218-0.79,0.506-1.162,0.791c-0.377,0.283-0.753,0.565-1.126,0.846
			c-0.704,0.608-1.346,1.277-2.007,1.896c-0.589,0.679-1.125,1.372-1.659,2.018c-0.533,0.647-0.892,1.359-1.304,1.971
			c-0.392,0.622-0.774,1.188-1.007,1.742c-0.261,0.543-0.489,1.017-0.676,1.406c-0.377,0.785-0.593,1.233-0.593,1.233
			s0.143-0.477,0.392-1.31c0.126-0.42,0.279-0.929,0.454-1.513c0.146-0.6,0.438-1.223,0.734-1.918
			c0.318-0.683,0.576-1.479,1.018-2.229c0.44-0.751,0.888-1.564,1.399-2.383c0.587-0.759,1.163-1.584,1.823-2.365
			c0.356-0.368,0.716-0.74,1.076-1.114c0.361-0.377,0.723-0.761,1.145-1.075c0.811-0.67,1.621-1.358,2.521-1.891
			c0.861-0.604,1.785-1.061,2.682-1.516c0.441-0.247,0.91-0.396,1.355-0.589c0.452-0.17,0.884-0.383,1.328-0.505
			c0.88-0.279,1.718-0.547,2.513-0.708c0.788-0.203,1.529-0.301,2.186-0.413c0.662-0.08,1.238-0.153,1.729-0.177
			c0.246-0.015,0.465-0.025,0.655-0.036c0.213-0.001,0.394-0.002,0.54-0.003c0.261,0.002,0.399,0.004,0.399,0.004L254.99,460.366z"
			/>
	</g>
	<g>
		<path d="M262.447,453.76c0,0,0.103,0.006,0.291,0.018c0.235,0.01,0.539,0.038,0.882,0.084c0.708,0.093,1.684,0.26,2.812,0.588
			c0.566,0.149,1.165,0.359,1.789,0.596c0.624,0.229,1.261,0.535,1.909,0.848c0.632,0.36,1.298,0.683,1.908,1.135
			c0.31,0.216,0.625,0.423,0.929,0.647l0.871,0.734c0.598,0.461,1.079,1.058,1.592,1.578c0.503,0.532,0.893,1.151,1.314,1.69
			c0.399,0.56,0.692,1.165,1.013,1.695c0.337,0.523,0.508,1.101,0.734,1.586c0.2,0.5,0.426,0.934,0.524,1.36
			c0.121,0.416,0.229,0.777,0.314,1.076c0.172,0.59,0.27,0.928,0.27,0.928s-0.171-0.309-0.469-0.848
			c-0.148-0.267-0.328-0.591-0.534-0.962c-0.182-0.381-0.496-0.753-0.789-1.178c-0.318-0.408-0.586-0.898-1.011-1.313
			c-0.409-0.422-0.787-0.904-1.259-1.321c-0.493-0.396-0.942-0.857-1.486-1.219c-0.553-0.35-1.058-0.762-1.658-1.034l-0.857-0.446
			c-0.3-0.119-0.597-0.238-0.892-0.357c-0.573-0.258-1.189-0.392-1.754-0.568c-0.585-0.129-1.143-0.26-1.682-0.328
			c-0.538-0.071-1.043-0.132-1.516-0.146c-0.936-0.056-1.709-0.01-2.223,0.041c-0.271,0.024-0.447,0.051-0.54,0.072
			c-0.138,0.022-0.211,0.035-0.211,0.035L262.447,453.76z"/>
	</g>
	<g>
		<path d="M223.222,475.132c0,0,0.779,1.194,2.286,3.133c1.51,1.932,3.768,4.603,6.784,7.39c1.513,1.386,3.235,2.772,5.135,4.081
			c1.902,1.303,3.997,2.513,6.264,3.479c2.268,0.966,4.694,1.695,7.213,2.117c0.632,0.102,1.262,0.214,1.904,0.254
			c0.64,0.061,1.28,0.129,1.929,0.137c0.646,0.027,1.293,0.06,1.944,0.021l0.976-0.026l0.243-0.006
			c-0.083,0.008,0.229-0.021-0.179,0.019l0.032-0.005l0.064-0.01l0.132-0.021l0.438-0.081c2.491-0.461,5.094-1.287,7.522-2.229
			c2.459-0.931,4.748-2.146,6.938-3.373c1.044-0.688,2.122-1.308,3.101-2.021c0.954-0.738,1.966-1.385,2.826-2.155
			c0.864-0.768,1.755-1.475,2.542-2.233c0.776-0.781,1.525-1.535,2.245-2.259c0.698-0.749,1.274-1.545,1.896-2.252
			c0.306-0.359,0.604-0.709,0.895-1.049c0.285-0.347,0.51-0.717,0.757-1.058c0.483-0.688,0.924-1.347,1.361-1.939
			c0.216-0.302,0.422-0.589,0.62-0.863c0.169-0.292,0.33-0.569,0.482-0.833c1.234-2.112,2.01-3.329,2.01-3.329
			s-0.36,1.36-1.11,3.757c-0.095,0.3-0.194,0.615-0.299,0.947c-0.135,0.317-0.276,0.65-0.423,0.999
			c-0.291,0.699-0.642,1.438-1,2.245c-0.188,0.396-0.354,0.825-0.579,1.233c-0.233,0.406-0.475,0.823-0.721,1.252
			c-0.507,0.852-1.021,1.768-1.637,2.668c-0.652,0.882-1.333,1.799-2.037,2.747c-0.729,0.935-1.607,1.791-2.451,2.735
			c-0.414,0.482-0.896,0.903-1.382,1.335c-0.483,0.434-0.975,0.873-1.471,1.316c-0.991,0.892-2.133,1.638-3.23,2.486
			c-2.313,1.518-4.778,3.015-7.48,4.124c-2.694,1.162-5.478,2.076-8.518,2.669l-0.602,0.103l-0.131,0.018l-0.065,0.01l-0.031,0.006
			c-0.432,0.042-0.141,0.012-0.245,0.021l-0.283,0.006l-1.135,0.021c-0.755,0.03-1.512-0.011-2.267-0.05
			c-0.756-0.017-1.505-0.11-2.252-0.209c-0.748-0.075-1.483-0.227-2.218-0.368c-2.932-0.583-5.719-1.597-8.223-2.886
			c-2.515-1.279-4.729-2.856-6.658-4.504c-1.932-1.647-3.553-3.403-4.93-5.095c-2.765-3.383-4.484-6.569-5.544-8.83
			C223.605,476.509,223.222,475.132,223.222,475.132z"/>
	</g>
	<g>
		<path d="M210.113,439.371c-0.135-2.043-0.007-4.11,0.336-6.166c0.168-1.027,0.396-2.057,0.729-3.064
			c0.325-1.011,0.726-2.012,1.238-2.983c0.254-0.486,0.549-0.958,0.86-1.426c0.34-0.45,0.689-0.897,1.096-1.311
			c0.188-0.218,0.413-0.406,0.63-0.603c0.212-0.201,0.439-0.387,0.685-0.555c0.467-0.364,0.993-0.659,1.526-0.937l0.829-0.364
			l0.861-0.275c0.579-0.153,1.177-0.286,1.768-0.333l0.891-0.059l0.879,0.023c0.593,0.006,1.15,0.119,1.729,0.182l0.396,0.131
			c0.026-0.002,0.247,0.068,0.397,0.098c0.17,0.038,0.346,0.071,0.529,0.095c0.36,0.054,0.735,0.078,1.112,0.08
			c0.754-0.003,1.517-0.08,2.266-0.259c0.748-0.178,1.49-0.41,2.209-0.733c0.72-0.316,1.42-0.704,2.094-1.146
			c0.683-0.429,1.326-0.941,1.967-1.455l0.651-0.495c0.192-0.146,0.577-0.367,0.866-0.533c0.601-0.318,1.154-0.54,1.761-0.717
			c1.194-0.339,2.399-0.42,3.535-0.354c1.138,0.069,2.216,0.283,3.241,0.575c0.514,0.146,1.013,0.317,1.502,0.504l0.725,0.296
			l0.621,0.275c0.697,0.292,1.521,0.564,2.313,0.789c1.608,0.438,3.252,0.758,4.874,0.845c3.251,0.201,6.37-0.501,8.81-2.331
			l-0.285,0.269c0.21-0.222,0.256-0.247,0.368-0.349l0.272-0.213c0.178-0.131,0.352-0.241,0.524-0.348
			c0.344-0.2,0.688-0.375,1.028-0.515c0.686-0.287,1.368-0.473,2.043-0.592c1.351-0.241,2.65-0.229,3.896-0.104
			c2.495,0.26,4.757,1.037,6.9,1.926c1.063,0.466,2.106,0.953,3.111,1.494c1.011,0.536,1.982,1.126,2.937,1.734
			c0.959,0.6,1.888,1.236,2.804,1.885c0.452,0.332,0.921,0.639,1.358,0.991l1.322,1.031l-0.091-0.056
			c0.282,0.183,0.467,0.331,0.684,0.504c0.204,0.169,0.403,0.343,0.595,0.522c0.383,0.356,0.739,0.737,1.072,1.134
			c0.672,0.789,1.216,1.677,1.646,2.603c0.874,1.853,1.161,3.911,0.919,5.837c-0.238-1.932-0.913-3.739-1.979-5.229
			c-0.533-0.745-1.159-1.409-1.832-2.003c-0.338-0.295-0.692-0.57-1.061-0.818c-0.183-0.125-0.37-0.241-0.557-0.352
			c-0.179-0.104-0.396-0.223-0.533-0.279l-0.091-0.056l-2.856-1.573c-0.952-0.514-1.911-1.011-2.884-1.465
			c-0.967-0.469-1.95-0.893-2.932-1.293c-0.976-0.42-1.964-0.777-2.952-1.111c-1.978-0.64-3.995-1.072-5.897-1.146
			c-0.946-0.037-1.868,0.024-2.678,0.229c-0.402,0.103-0.781,0.229-1.104,0.383c-0.165,0.075-0.307,0.162-0.436,0.244l-0.157,0.118
			l-0.049,0.044c0.01-0.009-0.048,0.055,0.067-0.064l-0.285,0.268c-1.672,1.371-3.65,2.401-5.718,2.966
			c-2.063,0.595-4.185,0.774-6.235,0.672c-2.056-0.104-4.058-0.444-5.991-1.009c-0.975-0.288-1.901-0.597-2.899-1.022l-0.64-0.29
			l-0.552-0.231c-0.37-0.143-0.74-0.275-1.107-0.395c-1.475-0.469-2.95-0.628-4.113-0.33c-0.283,0.064-0.59,0.179-0.81,0.277
			c-0.106,0.067-0.143,0.042-0.324,0.162l-0.284,0.196l-0.143,0.099l-0.07,0.049l-0.019,0.012l-0.009,0.006
			c0.208-0.159,0.052-0.04,0.096-0.074l-0.039,0.028c-0.82,0.605-1.647,1.201-2.552,1.713c-0.897,0.511-1.846,0.96-2.837,1.322
			c-0.989,0.363-2.025,0.639-3.087,0.79c-1.063,0.15-2.151,0.169-3.234,0.07c-0.542-0.055-1.083-0.14-1.624-0.271
			c-0.269-0.061-0.541-0.138-0.813-0.227c-0.292-0.099-0.509-0.172-0.907-0.354l0.396,0.131c-0.426-0.075-0.859-0.213-1.282-0.249
			l-0.641-0.078l-0.63-0.012c-0.422-0.02-0.833,0.024-1.244,0.076l-0.609,0.111l-0.593,0.178c-0.387,0.146-0.778,0.298-1.143,0.52
			c-0.189,0.096-0.372,0.208-0.544,0.339c-0.177,0.125-0.362,0.238-0.523,0.389c-0.347,0.271-0.662,0.59-0.979,0.915
			c-0.307,0.337-0.612,0.684-0.89,1.062c-1.13,1.505-1.961,3.305-2.657,5.167C211.004,435.403,210.478,437.362,210.113,439.371z"/>
	</g>
	<g>
		<polygon points="261.3,421.946 257.402,448.023 256.308,421.678 		"/>
	</g>
</g>
</svg>
