<?xml version="1.0" encoding="utf-8"?>
<!-- Generator: Adobe Illustrator 16.0.0, SVG Export Plug-In . SVG Version: 6.00 Build 0)  -->
<!DOCTYPE svg PUBLIC "-//W3C//DTD SVG 1.1//EN" "http://www.w3.org/Graphics/SVG/1.1/DTD/svg11.dtd">
<svg version="1.1" id="Layer_2" xmlns="http://www.w3.org/2000/svg" xmlns:xlink="http://www.w3.org/1999/xlink" x="0px" y="0px"
	 width="500px" height="900px" viewBox="0 0 500 900" enable-background="new 0 0 500 900" xml:space="preserve">
<g>
	<path fill="none" stroke="#000000" stroke-width="5" stroke-miterlimit="10" d="M14.207,392.95
		c0.893-8.322,1.619-17.927,1.619-27.17c0,0,7.354-54.427,17.648-85.316c0,0,11.279-78.455,34.324-83.847
		c0,0,15.203-3.921,28.438,53.446c0,0,13.73,53.936,22.558,90.711c0,0,10.297,56.388,11.28,75.509c0,0,4.655,20.349,4.407,35.55
		c0,0,4.415,15.938-19.12,44.372c0,0-11.522,20.599-29.908-2.692L72.869,479.29l-15.854,24.025c0,0-17.162,18.633-33.588-0.242
		c0,0-17.427-29.176-17.427-50.506c0,0,0-19.123,3.353-31.74C10.561,416.283,12.78,406.258,14.207,392.95z"/>
	<path fill="none" stroke="#000000" stroke-width="5" stroke-miterlimit="10" d="M14.328,391.791c0,0,46.854,33.138,112.679-1.586"
		/>
	<g>
		<path d="M46.391,499.472c0,0,0.114-0.461,0.369-1.205c0.25-0.747,0.636-1.784,1.166-2.959c0.525-1.178,1.187-2.501,1.944-3.867
			c0.751-1.369,1.617-2.771,2.484-4.159c0.465-0.677,0.883-1.374,1.347-2.032c0.46-0.662,0.884-1.316,1.34-1.938
			c0.453-0.621,0.854-1.229,1.29-1.794c0.427-0.565,0.792-1.111,1.185-1.608c0.397-0.495,0.692-0.968,1.023-1.381
			c0.329-0.416,0.604-0.783,0.814-1.099c0.445-0.628,0.766-1.001,0.766-1.001s0.111,0.443,0.196,1.253
			c0.046,0.405,0.098,0.907,0.057,1.456c-0.033,0.549-0.048,1.201-0.172,1.861c-0.125,0.66-0.255,1.398-0.473,2.137
			c-0.229,0.727-0.459,1.519-0.784,2.275c-0.325,0.76-0.647,1.564-1.071,2.313c-0.396,0.767-0.843,1.522-1.311,2.257
			c-0.479,0.729-0.967,1.449-1.499,2.119c-0.51,0.688-1.063,1.32-1.607,1.926c-1.096,1.207-2.225,2.24-3.261,3.059
			c-1.034,0.82-1.978,1.43-2.676,1.814C46.831,499.299,46.391,499.472,46.391,499.472z"/>
	</g>
	<g>
		<path d="M70.091,223.094c0,0-0.156,0.619-0.449,1.782c-0.271,1.167-0.668,2.879-1.174,5.06c-0.505,2.176-1.056,4.833-1.708,7.87
			c-0.631,3.042-1.295,6.481-2.012,10.23c-0.689,3.755-1.395,7.829-2.098,12.142c-0.719,4.309-1.313,8.876-1.987,13.587
			c-0.621,4.719-1.152,9.605-1.657,14.572c-0.531,4.967-0.898,10.023-1.198,15.083c-0.184,2.528-0.281,5.063-0.426,7.581
			c-0.08,2.523-0.159,5.036-0.238,7.529c-0.027,2.494-0.059,4.968-0.088,7.413c0.021,2.444-0.001,4.861,0.051,7.236
			c0.069,2.375,0.139,4.711,0.203,6.998c0.104,2.285,0.202,4.521,0.3,6.699c0.318,4.349,0.574,8.469,0.958,12.262
			c0.091,0.947,0.178,1.878,0.264,2.785c0.105,0.906,0.212,1.791,0.313,2.654c0.195,1.729,0.381,3.37,0.557,4.912
			c0.433,3.078,0.81,5.761,1.118,7.97c0.382,2.199,0.625,3.943,0.816,5.127c0.184,1.188,0.282,1.82,0.282,1.82
			s-0.19-0.611-0.546-1.756c-0.352-1.148-0.896-2.825-1.524-4.981c-0.611-2.157-1.276-4.801-2.031-7.841
			c-0.646-3.057-1.487-6.499-2.093-10.305c-0.313-1.901-0.695-3.877-0.99-5.938c-0.271-2.063-0.554-4.193-0.843-6.387
			c-0.225-2.2-0.457-4.46-0.693-6.77c-0.222-2.313-0.319-4.686-0.49-7.094c-0.138-2.407-0.2-4.86-0.308-7.345
			c-0.08-2.48-0.079-4.997-0.085-7.531c0.053-2.532,0.104-5.087,0.154-7.648c0.12-2.563,0.182-5.135,0.35-7.704
			c0.363-5.134,0.795-10.263,1.393-15.292c0.533-5.037,1.351-9.955,2.107-14.713c0.806-4.752,1.712-9.321,2.681-13.629
			c0.922-4.316,1.963-8.36,2.963-12.078c2.002-7.438,4.021-13.529,5.558-17.745c0.747-2.115,1.424-3.746,1.867-4.862
			C69.845,223.686,70.091,223.094,70.091,223.094z"/>
	</g>
	<g>
		<path d="M13.453,407.732c0,0,0.068,0.113,0.192,0.31c0.131,0.2,0.319,0.485,0.545,0.828c0.46,0.686,1.097,1.59,1.771,2.461
			c0.673,0.873,1.391,1.704,1.998,2.248c0.302,0.275,0.577,0.467,0.787,0.591c0.223,0.1,0.351,0.154,0.351,0.154
			s-0.144,0.021-0.396,0.056c-0.257,0.008-0.636-0.013-1.075-0.095c-0.884-0.156-2.021-0.513-3.124-0.925
			c-1.106-0.412-2.188-0.874-2.996-1.237c-0.404-0.187-0.741-0.342-0.979-0.451c-0.237-0.115-0.376-0.184-0.376-0.184
			L13.453,407.732z"/>
	</g>
	<g>
		<path d="M12.497,415.058c0,0,0.011,0.031,0.028,0.094c0.028,0.077,0.035,0.125,0.045,0.188c0.021,0.072,0.007,0.143,0.061,0.27
			c0.048,0.125,0.102,0.266,0.162,0.42c0.053,0.161,0.152,0.316,0.24,0.497c0.096,0.172,0.177,0.382,0.308,0.557
			c0.249,0.362,0.502,0.803,0.844,1.154c0.167,0.191,0.334,0.382,0.499,0.57c0.173,0.184,0.367,0.33,0.548,0.494
			c0.188,0.159,0.369,0.315,0.541,0.465c0.17,0.163,0.359,0.254,0.525,0.368c0.699,0.435,1.165,0.726,1.165,0.726
			s-0.562,0.008-1.399,0.02c-0.214-0.005-0.458,0.021-0.696-0.025c-0.248-0.034-0.51-0.07-0.778-0.107
			c-0.271-0.044-0.567-0.07-0.854-0.14c-0.284-0.08-0.573-0.162-0.863-0.243c-0.604-0.147-1.154-0.413-1.706-0.645
			c-0.281-0.109-0.521-0.27-0.767-0.397c-0.237-0.14-0.479-0.255-0.681-0.402c-0.207-0.144-0.396-0.273-0.564-0.392
			c-0.167-0.112-0.337-0.28-0.464-0.388c-0.119-0.105-0.213-0.188-0.274-0.245c-0.05-0.041-0.077-0.063-0.077-0.063L12.497,415.058z
			"/>
	</g>
	<g>
		<path d="M10.436,421.802c-0.008-0.009,0.084,0.14,0.124,0.258c0.035,0.072,0.043,0.146,0.12,0.264
			c0.066,0.114,0.141,0.243,0.223,0.383c0.18,0.274,0.396,0.609,0.658,0.949c0.271,0.333,0.556,0.715,0.886,1.047
			c0.322,0.353,0.66,0.699,1.009,0.988c0.342,0.3,0.666,0.604,0.971,0.806c0.615,0.442,1.026,0.736,1.026,0.736
			s-0.514,0.001-1.281,0.002c-0.397,0.013-0.844-0.044-1.34-0.091c-0.501-0.037-1.026-0.127-1.56-0.236
			c-0.542-0.089-1.063-0.247-1.568-0.385c-0.503-0.146-0.968-0.32-1.373-0.475c-0.202-0.087-0.39-0.166-0.554-0.236
			c-0.157-0.063-0.333-0.17-0.459-0.234c-0.28-0.157-0.355-0.186-0.365-0.19L10.436,421.802z"/>
	</g>
</g>
<g>
	<path fill="none" stroke="#000000" stroke-width="5" stroke-miterlimit="10" d="M208.527,262.65c0,0,5.394-13.73,7.845-63.744
		c0,0,0.491-86.788,7.848-119.148c0,0,2.452-30.4,2.452-38.244c0,0-0.981-20.66,11.274-20.66c12.259,0,14.711,17.719,19.125,32.917
		c0,0,14.222,58.84,16.18,75.02c0,0,10.3,71.588,10.3,97.578c0,0,3.431,14.954,6.374,21.82c0,0,12.748,33.096,11.028,48.54
		c0,0,1.72,20.841-22.31,31.135c-24.027,10.299-22.557,17.41-47.562,6.62c-25.009-10.785-31.813-25.004-28.872-44.127
		C205.149,271.231,206.948,268.454,208.527,262.65z"/>
	<path fill="none" stroke="#000000" stroke-width="5" stroke-miterlimit="10" d="M213.648,234.262c0,0,16.107-16.479,37.487-16.232
		c0,0,24.731-0.159,32.74,9.729"/>
	<g>
		<path d="M235.983,232.739c0,0,0.386-0.35,1.121-0.826c0.732-0.488,1.816-1.107,3.18-1.682c0.68-0.292,1.428-0.572,2.23-0.825
			c0.801-0.269,1.664-0.473,2.562-0.682c0.898-0.184,1.836-0.354,2.796-0.455c0.961-0.098,1.938-0.188,2.925-0.189
			c0.981,0,1.968-0.002,2.937,0.111c0.971,0.06,1.917,0.207,2.828,0.397c0.455,0.099,0.903,0.174,1.336,0.282
			c0.434,0.13,0.854,0.244,1.262,0.378c0.813,0.258,1.572,0.518,2.254,0.849c0.681,0.313,1.294,0.615,1.822,0.903
			c0.524,0.322,0.963,0.639,1.322,0.89c0.717,0.508,1.093,0.85,1.093,0.85s-0.522,0.069-1.384,0.103
			c-0.428,0.014-0.946,0.039-1.52,0.029c-0.586,0.033-1.236,0.059-1.934,0.063c-0.688-0.02-1.442,0.023-2.229,0.039
			c-0.395,0.011-0.79-0.002-1.197-0.002c-0.411,0.025-0.827,0.021-1.25,0.034c-0.423,0.017-0.85,0.005-1.281-0.001
			c-0.435,0.023-0.873,0.035-1.313,0.034c-0.881,0.002-1.776,0.017-2.674,0.04c-0.897-0.025-1.798,0.044-2.686,0.024
			c-0.888,0.014-1.765,0.027-2.621,0.017c-0.852,0.025-1.688-0.015-2.479-0.006c-0.803-0.018-1.56-0.034-2.256-0.05
			c-1.411-0.047-2.615-0.12-3.477-0.193c-0.426-0.021-0.771-0.076-1.006-0.09C236.11,232.753,235.983,232.739,235.983,232.739z"/>
	</g>
	<g>
		<path d="M237.945,239.114c0,0,0.309-0.366,0.939-0.873c0.319-0.239,0.707-0.56,1.18-0.845c0.472-0.307,1.02-0.606,1.63-0.907
			c1.228-0.59,2.724-1.144,4.374-1.495c0.824-0.196,1.688-0.329,2.569-0.414c0.88-0.127,1.781-0.102,2.68-0.135
			c0.898,0.017,1.796,0.086,2.677,0.174c0.877,0.106,1.73,0.285,2.554,0.454c0.815,0.195,1.594,0.454,2.324,0.693
			c0.73,0.229,1.394,0.568,2.005,0.848c0.604,0.303,1.161,0.563,1.624,0.879c0.469,0.296,0.86,0.59,1.186,0.824
			c0.646,0.473,0.985,0.797,0.985,0.797s-0.479,0.091-1.266,0.158c-0.392,0.03-0.865,0.077-1.395,0.091
			c-0.525,0.002-1.127,0.067-1.763,0.081c-0.642,0.032-1.313-0.011-2.028,0.031c-0.715,0.021-1.456,0.008-2.219,0
			c-0.767,0.018-1.547,0.011-2.338-0.019c-0.793,0.03-1.596-0.024-2.396-0.015c-3.199-0.031-6.411-0.071-8.938-0.141
			c-1.265-0.04-2.347-0.074-3.133-0.123c-0.383,0-0.706-0.045-0.917-0.046C238.062,239.121,237.945,239.114,237.945,239.114z"/>
	</g>
	<g>
		<path d="M226.92,333.803c0,0,0.019-0.653,0.101-1.892c0.032-0.616,0.084-1.35,0.166-2.171c0.079-0.827,0.148-1.762,0.261-2.771
			c0.12-1.011,0.25-2.104,0.389-3.26c0.122-1.155,0.317-2.364,0.501-3.616c0.188-1.25,0.382-2.542,0.579-3.854
			c0.232-1.305,0.471-2.63,0.708-3.955c0.25-1.322,0.447-2.651,0.733-3.944c0.273-1.293,0.542-2.565,0.805-3.799
			c0.26-1.229,0.511-2.419,0.75-3.547c0.271-1.12,0.526-2.179,0.766-3.157c0.955-3.9,1.591-6.503,1.591-6.503
			s-0.329,2.656-0.822,6.641c-0.12,0.993-0.252,2.069-0.391,3.21c-0.104,1.143-0.216,2.349-0.33,3.596
			c-0.114,1.245-0.23,2.531-0.352,3.838c-0.135,1.305-0.177,2.641-0.27,3.968c-0.081,1.328-0.161,2.656-0.24,3.963
			c-0.042,1.309-0.084,2.595-0.123,3.84c-0.034,1.242-0.09,2.442-0.074,3.582c-0.001,1.136-0.003,2.21-0.004,3.2
			c0.006,0.99,0.045,1.894,0.063,2.692c0.016,0.807,0.046,1.492,0.083,2.045c0.054,1.102,0.113,1.784,0.113,1.784L226.92,333.803z"
			/>
	</g>
	<g>
		<path d="M270.558,330.346c0,0,0.048-0.609,0.133-1.676c0.08-1.051,0.188-2.559,0.274-4.39c0.118-1.827,0.166-3.96,0.241-6.251
			c0.051-1.146,0.032-2.327,0.043-3.531c0.005-1.204,0.009-2.427,0.014-3.649c-0.039-1.223-0.078-2.443-0.116-3.646
			c-0.052-1.202-0.05-2.396-0.144-3.536c-0.093-1.144-0.184-2.249-0.269-3.297c-0.093-1.048-0.146-2.048-0.257-2.96
			c-0.546-3.646-0.909-6.076-0.909-6.076s0.673,2.375,1.68,5.938c0.225,0.897,0.406,1.885,0.635,2.924
			c0.22,1.042,0.451,2.141,0.689,3.278c0.24,1.139,0.392,2.325,0.598,3.527c0.191,1.206,0.39,2.433,0.585,3.656
			c0.153,1.23,0.306,2.46,0.456,3.671c0.146,1.212,0.313,2.406,0.41,3.564c0.219,2.313,0.443,4.479,0.563,6.341
			c0.147,1.854,0.235,3.419,0.291,4.519c0.052,1.085,0.081,1.705,0.081,1.705L270.558,330.346z"/>
	</g>
	<g>
		<path d="M250.818,49.845c0,0,0.151,0.577,0.438,1.665c0.272,1.087,0.717,2.675,1.202,4.71c0.494,2.031,1.114,4.499,1.757,7.34
			c0.657,2.838,1.405,6.04,2.146,9.546c0.766,3.502,1.593,7.296,2.384,11.324c0.813,4.022,1.687,8.266,2.479,12.672
			c0.813,4.402,1.698,8.945,2.469,13.585c0.777,4.637,1.568,9.348,2.358,14.059c0.711,4.727,1.422,9.449,2.121,14.102
			c0.724,4.646,1.233,9.254,1.839,13.691c0.59,4.442,1.023,8.758,1.477,12.842c0.438,4.09,0.758,7.969,1.062,11.542
			c0.272,3.583,0.452,6.874,0.616,9.787c0.112,2.923,0.14,5.476,0.183,7.568c0.012,2.101-0.138,3.756-0.167,4.875
			c-0.052,1.119-0.079,1.716-0.079,1.716s-0.065-0.596-0.191-1.713c-0.134-1.116-0.293-2.745-0.555-4.811
			c-0.304-2.063-0.672-4.569-1.094-7.443c-0.486-2.868-1.02-6.104-1.563-9.631c-0.617-3.525-1.261-7.343-1.908-11.386
			c-0.699-4.039-1.428-8.298-2.137-12.708c-0.728-4.411-1.527-8.958-2.254-13.598c-0.753-4.633-1.518-9.34-2.281-14.047
			c-0.731-4.713-1.466-9.426-2.186-14.063c-0.749-4.637-1.358-9.22-2.04-13.641c-0.677-4.421-1.244-8.71-1.814-12.771
			c-0.58-4.063-1.074-7.909-1.531-11.462c-0.929-7.104-1.608-13.04-2.063-17.201c-0.238-2.078-0.378-3.721-0.493-4.835
			C250.876,50.441,250.818,49.845,250.818,49.845z"/>
	</g>
</g>
<g>
	<path fill="none" stroke="#000000" stroke-width="5" stroke-miterlimit="10" d="M489.697,403.926
		c7.355-30.398-31.872-173.821-31.872-173.821C449,190.632,437.23,196.95,437.23,196.95c-13.237-0.546-18.632,28.007-18.632,28.007
		c-3.922,20.593-30.893,115.718-30.893,115.718c-11.767,32.854-9.313,63.251-9.313,63.251s-15.627,40.21-0.212,74.531
		c0,0,10.018,27.463,24.729,28.933c0,0,20.39,0.979,28.093-21.087c0,0,9.175,11.291,21.433,21.091c0,0,18.14,9.802,24.515-3.929
		c0,0,20.024-24.518,20.024-50.018c0,0,0.571-33.339-3.354-41.43L489.697,403.926z"/>
	<path fill="none" stroke="#000000" stroke-width="5" stroke-miterlimit="10" d="M378.392,403.926c0,0,31.135-2.695,45.354,1.717
		c14.222,4.415,58.676-0.245,65.949-1.717"/>
	<g>
		<path d="M404.866,499.541c1.533-1.283,2.995-2.609,4.378-4.003c0.697-0.687,1.384-1.382,2.033-2.103
			c0.335-0.352,0.646-0.725,0.961-1.092c0.322-0.359,0.648-0.714,0.947-1.092c0.623-0.732,1.205-1.492,1.766-2.264
			c0.296-0.373,0.538-0.784,0.812-1.171c0.265-0.391,0.549-0.769,0.781-1.177c0.495-0.798,0.973-1.603,1.393-2.426
			c0.227-0.404,0.438-0.814,0.611-1.24l0.563-1.252l0.076-0.168l0.151-0.212c0.225-0.314,0.404-0.55,0.607-0.813
			c0.203-0.25,0.4-0.506,0.609-0.748c0.414-0.486,0.839-0.97,1.292-1.43c0.447-0.463,0.928-0.903,1.412-1.342
			c0.504-0.425,1.008-0.852,1.562-1.24c0.266-0.205,0.55-0.393,0.849-0.57c0.298-0.176,0.568-0.375,0.896-0.526l0.948-0.481
			l1.025-0.401c0.332-0.146,0.728-0.216,1.093-0.313l0.561-0.137l0.594-0.066c0.402-0.021,0.788-0.107,1.205-0.061
			c0.411,0.021,0.824,0.056,1.233,0.096l-0.568-0.029c0.424-0.019,0.612-0.006,0.886,0.005c0.264,0.007,0.49,0.038,0.735,0.06
			c0.474,0.057,0.942,0.117,1.393,0.215c0.455,0.081,0.896,0.202,1.331,0.322c0.444,0.107,0.858,0.271,1.288,0.407
			c0.43,0.142,0.831,0.323,1.246,0.484c0.418,0.157,0.805,0.368,1.205,0.551c0.404,0.183,0.781,0.401,1.161,0.618
			c0.378,0.219,0.77,0.422,1.123,0.668c0.733,0.467,1.449,0.951,2.124,1.48c0.698,0.508,1.316,1.094,1.965,1.646
			c0.329,0.272,0.612,0.586,0.92,0.877l0.897,0.896l1.665,1.888l-0.131-0.135c0.743,0.754,1.405,1.498,2.088,2.262
			c0.677,0.76,1.335,1.533,1.974,2.324c1.294,1.566,2.488,3.224,3.627,4.92c1.147,1.688,2.142,3.502,2.98,5.389
			c0.192,0.482,0.379,0.965,0.536,1.463c0.156,0.494,0.304,0.994,0.397,1.512c0.113,0.506,0.16,1.033,0.156,1.555
			c0.013,0.52-0.082,1.039-0.235,1.516c-0.015-0.508-0.068-0.988-0.217-1.455c-0.128-0.467-0.325-0.908-0.534-1.344
			c-0.199-0.436-0.443-0.854-0.699-1.264c-0.251-0.411-0.535-0.805-0.813-1.199c-1.11-1.586-2.438-3.021-3.744-4.465
			c-1.324-1.434-2.739-2.787-4.145-4.146l-2.145-2.001c-0.715-0.653-1.464-1.313-2.165-1.929l-0.132-0.135l-1.622-1.56l-0.844-0.729
			c-0.283-0.238-0.548-0.503-0.848-0.717c-0.59-0.441-1.15-0.924-1.768-1.313c-0.591-0.431-1.203-0.813-1.824-1.179
			c-0.304-0.197-0.627-0.346-0.939-0.516c-0.315-0.168-0.632-0.332-0.955-0.473c-0.322-0.141-0.637-0.313-0.965-0.428
			c-0.326-0.12-0.648-0.267-0.979-0.367c-0.329-0.098-0.653-0.229-0.982-0.301c-0.328-0.088-0.657-0.169-0.981-0.23
			c-0.326-0.074-0.646-0.116-0.959-0.16c-0.15-0.014-0.315-0.039-0.451-0.041c-0.123-0.014-0.332-0.014-0.305-0.018l0.068-0.01
			l-0.639-0.021c-0.181-0.005-0.357-0.019-0.538-0.039c-0.174-0.046-0.378,0.026-0.563,0.024c-0.188,0-0.389,0.031-0.596,0.088
			c-0.203,0.057-0.405,0.061-0.618,0.152l-0.64,0.219l-0.646,0.303c-0.218,0.085-0.431,0.236-0.646,0.354
			c-0.216,0.118-0.433,0.245-0.646,0.392c-0.436,0.269-0.854,0.583-1.277,0.896c-0.413,0.334-0.828,0.67-1.227,1.037
			c-0.402,0.357-0.802,0.729-1.185,1.117c-0.193,0.189-0.377,0.393-0.563,0.588l-0.509,0.566l0.228-0.381
			c-0.534,0.921-1.018,1.875-1.635,2.729c-0.3,0.435-0.582,0.879-0.896,1.298l-0.977,1.227c-0.315,0.416-0.676,0.791-1.021,1.178
			c-0.353,0.382-0.69,0.771-1.067,1.123c-0.732,0.729-1.479,1.434-2.257,2.098c-0.766,0.678-1.565,1.31-2.395,1.898
			c-0.818,0.604-1.66,1.165-2.507,1.714C408.507,497.842,406.738,498.808,404.866,499.541z"/>
	</g>
	<g>
		<path d="M433.737,474.426c0,0,0.197,0.41,0.543,1.128c0.341,0.702,0.837,1.71,1.475,2.921c0.61,1.221,1.388,2.605,2.207,4.107
			c0.819,1.498,1.771,3.051,2.688,4.635c0.491,0.768,0.981,1.536,1.465,2.292c0.493,0.751,0.946,1.52,1.445,2.212
			c0.498,0.695,0.979,1.369,1.438,2.008c0.465,0.635,0.886,1.256,1.308,1.797c1.766,2.116,2.94,3.527,2.94,3.527
			s-1.405-1.199-3.518-2.999c-0.515-0.468-1.034-1.009-1.606-1.565c-0.566-0.563-1.168-1.152-1.786-1.768
			c-0.623-0.613-1.201-1.297-1.827-1.967c-0.617-0.681-1.244-1.367-1.871-2.059c-1.188-1.426-2.421-2.832-3.508-4.199
			c-1.083-1.367-2.111-2.643-2.942-3.771c-0.849-1.109-1.543-2.066-2.026-2.742c-0.474-0.664-0.742-1.045-0.742-1.045
			L433.737,474.426z"/>
	</g>
	<g>
		<path d="M434.194,244.406c0,0-0.166,0.536-0.477,1.542c-0.301,1.006-0.741,2.482-1.304,4.361
			c-0.535,1.882-1.188,4.167-1.935,6.788c-0.701,2.628-1.492,5.594-2.354,8.829c-0.838,3.237-1.688,6.759-2.579,10.479
			c-0.891,3.722-1.721,7.669-2.586,11.745c-0.41,2.042-0.828,4.119-1.251,6.221c-0.375,2.111-0.811,4.236-1.176,6.393
			c-0.38,2.15-0.749,4.322-1.09,6.508c-0.368,2.18-0.688,4.375-0.988,6.573c-0.649,4.39-1.147,8.797-1.629,13.137
			c-0.205,2.173-0.407,4.329-0.608,6.459c-0.159,2.134-0.316,4.242-0.473,6.313c-0.111,2.077-0.226,4.119-0.335,6.118
			c-0.069,2.002-0.141,3.96-0.208,5.867c-0.039,3.813-0.113,7.427-0.045,10.763c0.012,0.835,0.021,1.652,0.028,2.451
			c0.029,0.798,0.058,1.578,0.086,2.338c0.048,1.523,0.093,2.971,0.135,4.327c0.163,2.718,0.307,5.087,0.421,7.038
			c0.343,3.896,0.479,6.148,0.479,6.148s-0.567-2.168-1.464-6.008c-0.406-1.925-0.855-4.271-1.339-6.978
			c-0.378-2.714-0.932-5.776-1.212-9.146c-0.392-3.361-0.646-7.021-0.822-10.897c-0.061-1.939-0.118-3.933-0.179-5.969
			c-0.019-2.037,0.013-4.119,0.021-6.237c0.077-2.116,0.156-4.268,0.235-6.445c0.138-2.174,0.258-4.377,0.445-6.592
			c0.374-4.43,0.874-8.92,1.511-13.39c0.634-4.472,1.396-8.92,2.268-13.274c0.856-4.356,1.838-8.616,2.877-12.712
			c1.036-4.097,2.167-8.021,3.305-11.722c0.559-1.854,1.136-3.646,1.7-5.375c0.604-1.721,1.157-3.389,1.736-4.975
			c1.113-3.186,2.26-6.062,3.285-8.603s1.992-4.729,2.809-6.521C433.114,246.381,434.194,244.406,434.194,244.406z"/>
	</g>
</g>
<g>
	<path fill="none" stroke="#000000" stroke-width="5" stroke-miterlimit="10" d="M206.424,815.358c0,0,8.825-17.652,10.299-38.737
		c0,0,0.979-123.067,17.65-164.748c0,0,3.434-35.305,22.063-34.813c0,0,10.787,0.979,7.847,26.479c0,0-1.963,25.497,4.413,50.992
		c0,0,15.198,77.963,16.183,123.563c0,0,9.805,30.401,12.259,53.938c0,0,5.883,25.985-3.435,33.343c0,0-22.063,24.34-36.773,24.34
		h-12.749c0,0-9.479-2.113-16.672-8.324c0,0-26.479-12.747-26.479-32.688C201.031,848.701,201.031,821.896,206.424,815.358z"/>
	<path fill="none" stroke="#000000" stroke-width="5" stroke-miterlimit="10" d="M216.349,780.663c0,0,34.368-26.521,68.038,0"/>
	<g>
		<path d="M207.895,845.76c-0.035,0.889,0.088,1.758,0.302,2.596c0.2,0.84,0.5,1.646,0.833,2.428l0.574,1.141l0.654,1.089
			c0.217,0.358,0.484,0.695,0.721,1.043c0.231,0.351,0.508,0.673,0.782,0.995c0.279,0.316,0.522,0.655,0.828,0.954l0.881,0.906
			c0.277,0.313,0.606,0.587,0.916,0.874l0.936,0.852c0.667,0.524,1.329,1.053,2,1.563c0.707,0.479,1.401,0.962,2.089,1.455
			l0.011,0.008l0.149,0.128c1.176,0.986,2.412,1.979,3.646,2.94l3.729,2.857c2.509,1.873,5.034,3.705,7.615,5.416
			c1.285,0.863,2.6,1.678,3.908,2.469c1.313,0.791,2.642,1.537,3.988,2.195c0.668,0.348,1.344,0.654,2.019,0.951
			c0.676,0.301,1.354,0.555,2.03,0.8c0.677,0.22,1.348,0.421,2.01,0.578c0.33,0.073,0.652,0.12,0.979,0.188l0.941,0.098
			l-0.259,0.009c0.124-0.01,0.558-0.082,0.872-0.15l1.052-0.26l1.073-0.33l1.072-0.397c0.717-0.264,1.418-0.606,2.132-0.914
			c0.695-0.358,1.41-0.68,2.097-1.069c0.686-0.399,1.378-0.777,2.061-1.191l2.024-1.283l1.965-1.402
			c0.669-0.451,1.278-0.988,1.917-1.487c0.629-0.513,1.305-0.975,1.905-1.523l1.858-1.599c0.636-0.521,1.199-1.113,1.807-1.669
			l1.819-1.675l1.737-1.768l1.77-1.756c1.123-1.223,2.271-2.432,3.452-3.632c-0.823,1.456-1.677,2.903-2.558,4.339
			c-0.914,1.408-1.885,2.784-2.856,4.164l-1.555,2.002c-0.532,0.658-1.04,1.338-1.619,1.957l-1.699,1.902
			c-0.554,0.646-1.178,1.229-1.78,1.838c-0.621,0.587-1.209,1.209-1.872,1.758l-1.95,1.69l-2.053,1.591
			c-0.688,0.525-1.438,0.98-2.158,1.475c-0.729,0.482-1.509,0.901-2.264,1.354c-0.787,0.407-1.571,0.82-2.396,1.18l-1.242,0.527
			l-1.292,0.467c-0.448,0.139-0.892,0.273-1.356,0.392c-0.496,0.114-0.877,0.216-1.581,0.296l-0.129,0.018l-0.13-0.011
			c-0.478-0.028-0.96-0.052-1.428-0.101c-0.455-0.07-0.92-0.131-1.367-0.218l-1.313-0.306l-1.265-0.381
			c-0.818-0.283-1.629-0.582-2.408-0.918c-0.781-0.334-1.553-0.679-2.297-1.057c-2.985-1.51-5.755-3.262-8.403-5.148
			c-2.65-1.88-5.181-3.893-7.62-5.998c-1.224-1.047-2.419-2.125-3.585-3.232c-1.175-1.107-2.315-2.213-3.471-3.385l0.162,0.135
			c-0.701-0.599-1.394-1.201-2.072-1.816c-0.654-0.648-1.298-1.313-1.937-1.973l-0.898-1.06c-0.296-0.354-0.604-0.69-0.869-1.077
			l-0.803-1.133c-0.271-0.372-0.482-0.794-0.727-1.187c-0.236-0.397-0.476-0.792-0.664-1.218c-0.197-0.422-0.418-0.824-0.589-1.256
			c-0.169-0.435-0.337-0.863-0.486-1.3l-0.365-1.335c-0.18-0.904-0.347-1.809-0.339-2.725
			C207.546,847.527,207.615,846.61,207.895,845.76z"/>
	</g>
</g>
<g>
	<path fill="none" stroke="#000000" stroke-width="5" stroke-miterlimit="10" d="M253.945,387.096c0,0,11.77-3.125,29.095,13.721
		c0,0,18.457,13.901,17.893,32.207c0,0,1.394,38.579-3.184,44.952c0,0-11.442,27.942-27.458,32.52c0,0-17.653,9.479-37.596-6.536
		c0,0-23.535-13.729-28.11-34.323c-4.577-20.596-2.614-38.571-2.614-38.571s-0.04-19.563,17.326-30.247
		C229.222,394.705,232.697,384.646,253.945,387.096z"/>
	<g>
		<path d="M224.851,438.581c1.143,0.842,2.289,1.624,3.467,2.354l1.769,1.069l1.797,0.986l1.82,0.912l1.842,0.831
			c0.602,0.293,1.25,0.486,1.859,0.745c0.613,0.26,1.244,0.466,1.882,0.656c0.633,0.188,1.24,0.445,1.89,0.577
			c0.64,0.15,1.271,0.313,1.904,0.48c0.639,0.132,1.283,0.225,1.924,0.34c0.317,0.055,0.636,0.126,0.956,0.171l0.968,0.089
			c0.644,0.055,1.284,0.134,1.927,0.171l1.932,0.02c0.643,0.035,1.281-0.03,1.924-0.083l1.921-0.143l0.191-0.017l0.135-0.003
			c0.561-0.014,1.301-0.059,1.97-0.114c0.688-0.057,1.376-0.136,2.064-0.239c0.689-0.082,1.372-0.229,2.063-0.335
			c0.688-0.119,1.361-0.298,2.045-0.44c0.68-0.155,1.346-0.358,2.022-0.533c0.679-0.169,1.315-0.441,1.986-0.643
			c0.675-0.195,1.307-0.484,1.951-0.745l0.975-0.389c0.318-0.141,0.623-0.307,0.938-0.456c0.614-0.325,1.275-0.586,1.869-0.95
			l1.81-1.073c0.601-0.37,1.146-0.811,1.729-1.216l0.872-0.616l0.798-0.704c0.533-0.47,1.109-0.913,1.63-1.413
			c0.494-0.521,0.973-1.062,1.493-1.581c0.544-0.505,0.982-1.088,1.428-1.679c0.471-0.574,0.926-1.167,1.423-1.75
			c-0.227,0.714-0.495,1.418-0.748,2.143c-0.267,0.715-0.539,1.436-0.927,2.095c-0.351,0.682-0.745,1.343-1.123,2.021
			c-0.414,0.652-0.894,1.262-1.349,1.896l-0.711,0.936l-0.8,0.855c-0.552,0.553-1.076,1.146-1.661,1.673l-1.824,1.502
			c-0.605,0.514-1.293,0.898-1.945,1.347c-0.651,0.452-1.334,0.851-2.038,1.205c-0.7,0.365-1.392,0.761-2.122,1.054
			c-0.725,0.308-1.441,0.647-2.188,0.897s-1.485,0.536-2.242,0.752c-0.762,0.197-1.519,0.426-2.287,0.594
			c-0.771,0.156-1.537,0.354-2.321,0.452c-0.776,0.13-1.563,0.23-2.354,0.31c-0.812,0.081-1.553,0.13-2.479,0.131l0.325-0.02
			l-2.246,0.145c-0.749,0.059-1.498,0.092-2.248,0.024l-2.244-0.116c-0.744-0.068-1.479-0.227-2.22-0.334l-1.104-0.184
			c-0.364-0.078-0.726-0.18-1.084-0.271c-0.719-0.199-1.439-0.379-2.146-0.6l-2.081-0.771c-0.698-0.238-1.347-0.6-2.017-0.896
			c-0.667-0.309-1.319-0.642-1.945-1.021c-0.628-0.373-1.276-0.705-1.868-1.132c-0.6-0.414-1.209-0.806-1.784-1.242
			c-0.565-0.453-1.146-0.883-1.691-1.353c-1.074-0.965-2.141-1.92-3.087-2.994C226.495,440.905,225.601,439.786,224.851,438.581z"/>
	</g>
	<g>
		<path d="M245.961,452.492c0,0-0.096,0.001-0.275,0.002c-0.193,0.007-0.503,0.025-0.896,0.063c-0.786,0.082-1.938,0.23-3.266,0.605
			c-1.329,0.362-2.828,0.951-4.246,1.869c-0.698,0.467-1.366,1.021-1.984,1.654c-0.584,0.656-1.145,1.375-1.563,2.188
			c-0.427,0.811-0.766,1.686-0.979,2.595c-0.104,0.455-0.219,0.909-0.261,1.374c-0.068,0.461-0.124,0.921-0.13,1.381
			c-0.063,0.916-0.004,1.813,0.06,2.67c0.09,0.854,0.188,1.666,0.349,2.407c0.12,0.75,0.303,1.423,0.455,2.022
			c0.143,0.605,0.298,1.123,0.438,1.548c0.269,0.854,0.422,1.345,0.422,1.345s-0.229-0.46-0.622-1.267
			c-0.204-0.399-0.44-0.894-0.674-1.477c-0.245-0.579-0.534-1.229-0.773-1.971c-0.276-0.729-0.508-1.545-0.736-2.419
			c-0.2-0.877-0.41-1.814-0.494-2.814c-0.07-0.498-0.092-1.01-0.095-1.533c-0.028-0.521,0.017-1.055,0.058-1.596
			c0.085-1.078,0.317-2.182,0.688-3.251c0.362-1.077,0.912-2.092,1.532-3.042c0.654-0.926,1.398-1.771,2.195-2.498
			c1.605-1.441,3.354-2.45,4.896-3.145c1.545-0.706,2.899-1.103,3.865-1.357c0.487-0.122,0.874-0.208,1.154-0.26
			c0.296-0.053,0.454-0.078,0.454-0.078L245.961,452.492z"/>
	</g>
	<g>
		<path d="M278.588,466.295c0,0,0.001-0.386,0.003-1.057c0.001-0.336,0.002-0.742,0.003-1.21c-0.056-0.349-0.11-0.747-0.161-1.197
			c-0.009-0.441-0.208-0.972-0.35-1.522c-0.119-0.57-0.378-1.128-0.636-1.72c-0.218-0.612-0.599-1.175-0.935-1.78
			c-0.332-0.613-0.806-1.153-1.211-1.752c-0.471-0.544-0.931-1.113-1.439-1.627c-0.518-0.504-1.017-1.024-1.559-1.463
			c-0.521-0.469-1.057-0.885-1.575-1.271c-0.507-0.404-1.027-0.724-1.493-1.055c-1.902-1.242-3.311-1.874-3.311-1.874
			s1.5,0.331,3.67,1.181c0.53,0.233,1.129,0.45,1.728,0.752c0.608,0.283,1.247,0.599,1.888,0.97
			c0.658,0.341,1.292,0.771,1.954,1.194c0.652,0.437,1.277,0.942,1.922,1.438c0.585,0.56,1.236,1.064,1.77,1.684
			c0.535,0.613,1.111,1.19,1.536,1.863c0.458,0.646,0.913,1.275,1.224,1.951c0.333,0.666,0.695,1.256,0.896,1.943
			c0.229,0.66,0.43,1.277,0.601,1.83c0.096,0.457,0.177,0.856,0.242,1.188c0.135,0.654,0.211,1.029,0.211,1.029L278.588,466.295z"/>
	</g>
	<g>
		<path d="M243.397,452.945c0,0-7.339,0.11-14.669,0.103c-3.667-0.009-7.333-0.027-10.088-0.128
			c-1.373-0.035-2.521-0.084-3.323-0.176c-0.797-0.066-1.252-0.105-1.252-0.105s0.457-0.039,1.256-0.107
			c0.796-0.047,1.925-0.191,3.28-0.393c2.71-0.365,6.316-0.968,9.917-1.582c7.206-1.234,14.383-2.585,14.383-2.585L243.397,452.945z
			"/>
	</g>
	<g>
		<polygon points="267.515,446.266 277.969,448.766 267.505,451.266 		"/>
	</g>
	<g>
		<path d="M214.719,446.757c-0.271-1.187-0.442-2.396-0.546-3.61c-0.123-1.216-0.153-2.439-0.143-3.667
			c-0.003-1.229,0.075-2.461,0.211-3.694c0.138-1.23,0.339-2.464,0.612-3.688c0.28-1.226,0.618-2.448,1.066-3.646
			c0.449-1.195,0.947-2.393,1.601-3.526c0.614-1.154,1.376-2.246,2.207-3.292c0.87-1.021,1.807-2.008,2.89-2.838
			c0.529-0.427,1.075-0.836,1.666-1.188c0.563-0.392,1.175-0.698,1.789-0.994c1.227-0.602,2.514-1.068,3.821-1.387
			c1.309-0.319,2.634-0.532,3.948-0.606c1.3-0.114,2.582-0.071,3.827-0.03c2.511,0.137,5.027,0.446,7.572,1.216
			c1.264,0.422,2.55,0.904,3.778,1.777c1.207,0.811,2.44,2.234,2.725,3.977l-0.162-0.423c0.1,0.264,0.181,0.542,0.236,0.813
			c0.025,0.197,0.021,0.313,0.029,0.474l0.03,0.892c-0.001,0.29,0.03,0.604-0.007,0.866l-0.069,0.813
			c-0.042,0.542-0.104,1.084-0.16,1.623c-0.064,0.537-0.092,1.081-0.19,1.605c-0.171,1.056-0.381,2.105-0.588,3.154
			c-0.196,1.048-0.434,2.09-0.682,3.126c-0.14-1.065-0.265-2.124-0.354-3.18c-0.1-1.054-0.198-2.104-0.259-3.148
			c-0.022-0.525-0.124-1.035-0.182-1.551c-0.066-0.514-0.139-1.023-0.191-1.533l-0.086-0.765c-0.017-0.266-0.094-0.472-0.139-0.704
			l-0.145-0.677c-0.022-0.101-0.049-0.25-0.066-0.311c-0.015,0.021-0.006,0.046,0.021,0.057l0.035,0.015l-0.196-0.438
			c-0.275-0.608-0.767-1.097-1.601-1.499c-0.794-0.407-1.805-0.691-2.839-0.893c-2.094-0.398-4.365-0.518-6.624-0.503
			c-1.142,0.013-2.254,0.019-3.331,0.163c-1.065,0.082-2.106,0.265-3.114,0.523c-1.004,0.267-1.986,0.579-2.905,1.027
			c-0.468,0.21-0.921,0.44-1.354,0.714c-0.453,0.239-0.872,0.532-1.285,0.837c-0.837,0.595-1.594,1.308-2.336,2.048
			c-0.695,0.788-1.388,1.603-1.988,2.504c-0.313,0.443-0.603,0.905-0.875,1.383c-0.299,0.463-0.544,0.96-0.809,1.45
			c-0.501,0.994-0.979,2.02-1.388,3.081c-0.849,2.118-1.506,4.348-2.09,6.627C215.538,442.02,215.067,444.356,214.719,446.757z"/>
	</g>
	<g>
		<path d="M254.433,434.171c-0.412-1.031-0.69-2.112-0.903-3.208c-0.229-1.1-0.328-2.219-0.389-3.354
			c-0.026-0.568-0.035-1.142-0.002-1.716c0.029-0.574,0.063-1.155,0.153-1.733c0.075-0.58,0.188-1.16,0.319-1.739
			c0.142-0.581,0.32-1.155,0.523-1.73c0.218-0.57,0.449-1.145,0.751-1.691c0.28-0.556,0.62-1.093,0.988-1.613
			c0.366-0.523,0.798-1.003,1.241-1.477c0.469-0.444,0.938-0.904,1.473-1.275c0.515-0.404,1.086-0.714,1.646-1.045
			c0.58-0.274,1.157-0.587,1.766-0.774c0.6-0.234,1.208-0.39,1.817-0.542c0.61-0.157,1.222-0.235,1.834-0.336l-0.199,0.029
			c0.822-0.152,1.472-0.229,2.197-0.308c0.708-0.071,1.416-0.113,2.125-0.123c1.416-0.033,2.839,0.028,4.259,0.219
			c0.709,0.097,1.419,0.208,2.12,0.36c0.703,0.163,1.403,0.345,2.099,0.563c0.69,0.222,1.376,0.479,2.044,0.778
			c0.669,0.293,1.333,0.617,1.961,1.004c0.637,0.369,1.239,0.802,1.831,1.238c0.571,0.473,1.127,0.955,1.634,1.492
			c0.268,0.25,0.498,0.54,0.729,0.823c0.23,0.282,0.47,0.561,0.668,0.866c0.203,0.304,0.418,0.597,0.604,0.904l0.521,0.948
			c0.324,0.637,0.596,1.301,0.816,1.966c0.22,0.669,0.427,1.332,0.546,2.018c0.154,0.673,0.198,1.362,0.278,2.033
			c0.046,0.681,0.031,1.359,0.018,2.027c-0.295-0.614-0.517-1.233-0.813-1.821c-0.295-0.587-0.549-1.179-0.899-1.721
			c-0.303-0.562-0.641-1.093-0.999-1.603c-0.35-0.515-0.758-0.981-1.143-1.444l-0.611-0.664l-0.648-0.613
			c-0.435-0.402-0.901-0.76-1.375-1.098c-0.47-0.348-0.975-0.639-1.476-0.926c-0.515-0.268-1.022-0.532-1.565-0.743
			c-0.534-0.221-1.076-0.43-1.638-0.594c-0.554-0.18-1.128-0.307-1.694-0.445c-0.573-0.129-1.155-0.229-1.741-0.315
			c-0.591-0.072-1.18-0.153-1.776-0.198c-1.19-0.083-2.397-0.121-3.605-0.073c-0.604,0.022-1.206,0.063-1.809,0.105
			c-0.579,0.048-1.234,0.124-1.704,0.204l-0.199,0.031c-0.449,0.082-0.921,0.099-1.359,0.193c-0.441,0.092-0.887,0.175-1.301,0.317
			c-0.436,0.111-0.826,0.285-1.238,0.432c-0.382,0.194-0.789,0.356-1.142,0.6c-0.378,0.208-0.72,0.47-1.069,0.726
			c-0.33,0.281-0.658,0.569-0.96,0.896c-0.308,0.317-0.607,0.657-0.871,1.034c-0.276,0.364-0.521,0.764-0.771,1.166
			c-0.479,0.817-0.883,1.716-1.23,2.653c-0.354,0.939-0.629,1.928-0.886,2.938c-0.256,1.014-0.413,2.057-0.588,3.117
			C254.635,431.989,254.511,433.067,254.433,434.171z"/>
	</g>
	<g>
		<path d="M226.487,482.551c1.184,1.006,2.387,1.96,3.598,2.89c1.229,0.911,2.434,1.83,3.691,2.667
			c1.264,0.832,2.502,1.671,3.797,2.414c0.641,0.384,1.299,0.73,1.947,1.082c0.649,0.354,1.308,0.688,1.969,1.004
			c0.666,0.306,1.322,0.627,1.996,0.898c0.667,0.291,1.35,0.531,2.021,0.781c0.681,0.229,1.354,0.473,2.043,0.646
			c0.682,0.206,1.374,0.339,2.057,0.507c0.689,0.117,1.375,0.262,2.064,0.321c0.688,0.097,1.375,0.11,2.059,0.16
			c0.686-0.009,1.366,0.014,2.041-0.062c0.682-0.026,1.345-0.151,2.018-0.23l0.191-0.023l0.196-0.011
			c0.646-0.036,1.534-0.116,2.322-0.255c0.813-0.115,1.626-0.29,2.438-0.457c0.805-0.205,1.615-0.404,2.411-0.652
			c0.786-0.274,1.604-0.474,2.369-0.805c0.765-0.333,1.566-0.587,2.313-0.967c0.745-0.376,1.522-0.701,2.25-1.116l2.184-1.263
			l2.075-1.44c0.727-0.445,1.315-1.056,1.984-1.581c0.66-0.537,1.333-1.068,1.907-1.701l1.845-1.807l1.663-1.992
			c0.274-0.338,0.563-0.668,0.854-0.998c0.273-0.34,0.507-0.711,0.765-1.066l1.525-2.166c0.546-0.709,0.923-1.513,1.396-2.271
			c0.471-0.764,0.929-1.54,1.426-2.313c-0.206,0.881-0.45,1.75-0.684,2.635c-0.274,0.863-0.454,1.779-0.814,2.618l-1.071,2.538
			c-0.188,0.421-0.354,0.857-0.563,1.271c-0.223,0.403-0.447,0.809-0.685,1.206l-1.423,2.406l-1.67,2.261
			c-0.544,0.771-1.195,1.45-1.847,2.137c-0.664,0.67-1.271,1.41-2.017,1.997c-0.718,0.618-1.439,1.239-2.184,1.836l-2.353,1.624
			c-0.8,0.521-1.654,0.948-2.483,1.425c-0.822,0.488-1.726,0.817-2.592,1.226c-0.867,0.404-1.788,0.678-2.682,1.02
			c-0.909,0.301-1.839,0.541-2.768,0.787c-0.938,0.201-1.874,0.43-2.839,0.553c-0.475,0.08-0.964,0.129-1.454,0.18
			c-0.242,0.025-0.487,0.05-0.747,0.063c-0.255,0.015-0.495,0.033-0.818,0.037l0.39-0.034c-0.851,0.1-1.699,0.243-2.555,0.247
			c-0.854,0.056-1.704,0.007-2.555-0.021c-0.842-0.081-1.688-0.142-2.512-0.312c-0.833-0.127-1.64-0.342-2.451-0.533
			c-0.796-0.233-1.594-0.467-2.357-0.768c-0.778-0.271-1.523-0.61-2.272-0.936c-0.732-0.353-1.463-0.713-2.167-1.107
			c-0.713-0.381-1.397-0.802-2.074-1.234c-0.675-0.435-1.334-0.887-1.979-1.354c-0.638-0.479-1.267-0.963-1.873-1.475
			c-1.215-1.017-2.406-2.047-3.495-3.18s-2.162-2.268-3.124-3.5C228.211,485.139,227.284,483.885,226.487,482.551z"/>
	</g>
	<g>
		<path d="M257.007,448.844c0,0,0.047,0.089,0.136,0.257c0.091,0.18,0.227,0.443,0.396,0.778c0.164,0.343,0.395,0.768,0.597,1.235
			c0.206,0.472,0.438,0.999,0.692,1.577c0.267,0.57,0.479,1.216,0.743,1.881c0.245,0.674,0.55,1.363,0.775,2.109
			c0.237,0.74,0.481,1.504,0.729,2.281c0.268,0.768,0.469,1.568,0.661,2.373c0.2,0.797,0.399,1.594,0.598,2.379
			c0.214,0.774,0.298,1.578,0.443,2.33c0.132,0.754,0.259,1.48,0.377,2.174c0.143,0.685,0.191,1.349,0.242,1.959
			c0.211,2.421,0.354,4.035,0.354,4.035s-0.447-1.551-1.117-3.874c-0.163-0.577-0.336-1.202-0.604-1.845
			c-0.246-0.642-0.505-1.316-0.771-2.02c-0.284-0.692-0.505-1.428-0.858-2.133c-0.332-0.707-0.67-1.427-1.007-2.146
			c-0.331-0.719-0.666-1.433-1.06-2.105c-0.374-0.682-0.741-1.351-1.1-1.996c-0.345-0.65-0.756-1.236-1.103-1.813
			c-0.364-0.563-0.675-1.12-1.021-1.59c-0.332-0.479-0.637-0.916-0.904-1.304c-0.27-0.394-0.515-0.679-0.706-0.942
			c-0.203-0.261-0.363-0.467-0.474-0.604c-0.119-0.147-0.183-0.228-0.183-0.228L257.007,448.844z"/>
	</g>
</g>
</svg>
