<?xml version="1.0" encoding="utf-8"?>
<!-- Generator: Adobe Illustrator 16.0.0, SVG Export Plug-In . SVG Version: 6.00 Build 0)  -->
<!DOCTYPE svg PUBLIC "-//W3C//DTD SVG 1.1//EN" "http://www.w3.org/Graphics/SVG/1.1/DTD/svg11.dtd">
<svg version="1.1" id="Layer_3" xmlns="http://www.w3.org/2000/svg" xmlns:xlink="http://www.w3.org/1999/xlink" x="0px" y="0px"
	 width="500px" height="900px" viewBox="0 0 500 900" enable-background="new 0 0 500 900" xml:space="preserve">
<g>
	<path fill="none" stroke="#000000" stroke-width="5" stroke-miterlimit="10" d="M9.711,421.49c0,0,6.621-80.611,7.821-107.681
		c0,0,0.6-55.346,24.661-54.745c0,0,12.639,0,20.455,36.697c0,0,21.654,58.954,33.688,66.173c0,0,26.467-34.895,27.07-87.83
		c0,0-3.608-22.257,5.417-27.671c0,0,12.631-9.021,26.47,22.859c0,0,19.851,37.898,3.606,85.423c0,0-4.211,9.023-8.424,16.241
		c0,0-19.247,19.854-4.21,54.745c0,0,24.066,42.712-13.23,69.185c0,0-12.639,37.293-42.113,24.061c0,0-18.647-7.817-24.063-15.037
		c0,0-27.673,19.251-37.897,10.83c0,0-6.616-3.014-13.233-27.678C15.728,487.06-8.335,453.373,9.711,421.49z"/>
	<path fill="none" stroke="#000000" stroke-width="5" stroke-miterlimit="10" d="M9.711,421.49c0,0,17.446-3.307,35.042,4.361
		c17.597,7.671,50.98,5.757,63.166-2.535c0,0,20.527-12.57,36.433-2.536"/>
	<g>
		<path d="M66.86,486.31c0.686,1.006,1.199,2.104,1.663,3.239c0.414,1.143,0.804,2.322,1.021,3.559
			c0.118,0.617,0.203,1.245,0.245,1.884c0.051,0.642,0.067,1.289,0.021,1.947c-0.028,0.657-0.103,1.328-0.254,1.995
			c-0.134,0.668-0.33,1.343-0.595,2c-0.262,0.66-0.605,1.301-0.996,1.918c-0.21,0.301-0.418,0.604-0.651,0.891l-0.749,0.819
			c-0.541,0.499-1.1,0.993-1.724,1.37c-0.302,0.214-0.617,0.387-0.938,0.547c-0.318,0.155-0.636,0.353-0.965,0.467
			c-0.65,0.272-1.316,0.501-1.979,0.658c-0.667,0.198-1.324,0.289-1.988,0.397c-0.662,0.093-1.311,0.109-1.966,0.165
			c-0.646,0.016-1.287,0.003-1.929-0.014l-0.147-0.003l-0.111-0.017c-0.23-0.035-0.652-0.079-1.009-0.096l-1.129-0.047
			c-0.763-0.014-1.531,0.023-2.304,0.063c-0.773,0.051-1.541,0.15-2.318,0.246l-1.157,0.21c-0.393,0.05-0.766,0.165-1.152,0.244
			c-0.389,0.083-0.772,0.175-1.151,0.292c-0.38,0.109-0.771,0.209-1.15,0.335l-1.141,0.396c-0.392,0.117-0.754,0.295-1.134,0.448
			c-0.369,0.17-0.777,0.29-1.138,0.486c-0.365,0.188-0.75,0.356-1.133,0.544c-0.396,0.165-0.736,0.4-1.12,0.602
			c-0.378,0.204-0.752,0.42-1.148,0.619c0.227-0.372,0.477-0.729,0.724-1.095c0.247-0.368,0.507-0.729,0.807-1.053
			c0.292-0.329,0.58-0.674,0.887-0.998c0.299-0.335,0.644-0.613,0.977-0.917c0.343-0.286,0.666-0.612,1.038-0.862l1.104-0.791
			c0.375-0.257,0.774-0.465,1.168-0.7c0.391-0.241,0.795-0.451,1.212-0.635c0.416-0.188,0.823-0.408,1.253-0.563l1.292-0.479
			l1.321-0.396c0.444-0.114,0.896-0.207,1.347-0.311c0.904-0.19,1.824-0.308,2.753-0.388c0.467-0.028,0.933-0.065,1.41-0.061
			c0.492-0.003,0.916,0.005,1.523,0.058l-0.258-0.02c0.526-0.029,1.056-0.042,1.577-0.055c0.507-0.061,1.03-0.078,1.523-0.16
			c0.484-0.097,0.997-0.131,1.452-0.271c0.479-0.094,0.916-0.26,1.354-0.402c0.232-0.059,0.416-0.179,0.628-0.261
			c0.21-0.086,0.415-0.179,0.596-0.298c0.394-0.207,0.738-0.457,1.093-0.71l0.481-0.429l0.446-0.479
			c0.283-0.335,0.555-0.691,0.783-1.096c0.234-0.396,0.462-0.816,0.638-1.275c0.102-0.223,0.177-0.459,0.259-0.697
			c0.088-0.235,0.166-0.479,0.229-0.73c0.14-0.495,0.249-1.014,0.346-1.542c0.094-0.527,0.163-1.068,0.224-1.621
			c0.104-1.1,0.188-2.241,0.157-3.395C66.99,488.688,66.935,487.516,66.86,486.31z"/>
	</g>
	<g>
		<path d="M129.789,485.925c0.002,0.012-0.02,0.145-0.028,0.469c-0.013,0.311-0.025,0.763-0.024,1.306
			c0.002,1.086,0.055,2.548,0.275,3.954c0.11,0.704,0.269,1.388,0.495,1.979c0.223,0.595,0.521,1.065,0.896,1.313
			c0.188,0.121,0.396,0.184,0.601,0.193s0.392-0.025,0.548-0.067c0.307-0.095,0.485-0.182,0.485-0.182s-0.122,0.145-0.388,0.372
			c-0.138,0.106-0.313,0.232-0.563,0.331c-0.246,0.094-0.566,0.146-0.918,0.097c-0.713-0.104-1.408-0.589-1.964-1.159
			c-0.571-0.576-1.07-1.254-1.516-1.947c-0.887-1.391-1.582-2.853-2.069-3.966c-0.244-0.557-0.437-1.025-0.565-1.363
			c-0.129-0.351-0.203-0.551-0.203-0.551L129.789,485.925z"/>
	</g>
</g>
<g>
	<path fill="none" stroke="#000000" stroke-width="5" stroke-miterlimit="10" d="M187.776,282.977c0,0,10.83-34.74,7.675-87.076
		c0,0-2.582-15.339-3.549-22.563c0,0-13.346-62.835,4.124-78.504c0,0,13.409-13.084,19.726,0c0,0,2.708,9.023,0,17.146
		c0,0-2.254,17.596,3.608,37.896c0,0,14.325,68.58,30.625,42.862c0,0,21.711-38.802,18.555-62.713c0,0-8.123-34.194-4.063-41.007
		c0,0,6.77-11.779,20.303,3.109c0,0,31.583,29.774,21.204,66.771c0,0-11.729,46.022-2.253,76.703c0,0,13.986,42.413,13.084,55.047
		c0,0,2.705,22.301-4.964,27.843l-17.146,10.958c0,0-14.102,10.829-44.723-7.221c0,0-9.872,8.122-18.439,13.539
		c0,0-12.186,11.728-26.17,0C205.374,335.768,170.634,322.678,187.776,282.977z"/>
	<path fill="none" stroke="#000000" stroke-width="5" stroke-miterlimit="10" d="M192.997,257.683
		c11.021-15.424,36.289,0.932,52.528-9.446c0,0,16.587,1.879,27.861-0.692c9.813-2.239,30.239-2.395,36.347,7.743"/>
	<path fill="none" stroke="#000000" stroke-width="5" stroke-miterlimit="10" d="M217.344,141.476c0,0,9.538-62.312,21.57-62.312
		c0,0,14.625-8.893,28.966,66.176"/>
	<path fill="none" stroke="#000000" stroke-width="5" stroke-miterlimit="10" d="M239.16,330.56c0,0,13.587-0.209,18.552,6.105
		c0,0,10.827,11.484,27.067-3.053"/>
	<g>
		<polygon points="247.507,322.552 246.882,298.318 252.465,321.907 		"/>
	</g>
</g>
<g>
	<path fill="none" stroke="#000000" stroke-width="5" stroke-miterlimit="10" d="M355.892,428.433c0,0,17.599-18.818,9.479-44.085
		c0,0-10.829-34.741-13.086-40.153c0,0-19.852-49.218,10.827-89.127c0,0,23.015-26.828,24.366,13.328c0,0,2.259,30.681,4.061,38.799
		c0,0,10.375,35.195,20.756,47.376c0,0,8.119,7.22,11.276-0.453l20.309-72.187c0,0,6.313-29.817,23.91-26.863
		c0,0,19.397,4.303,21.654,32.275c0,0,6.771,28.424,0,82.565c0,0-4.811,31.132,3.007,49.18c0,0,6.667,20.305,3.859,37.448
		c0,0,2.156,23.012-14.535,46.924c0,0-1.809,17.715-26.17,16.071c0,0-15.79-5.245-24.363-9.307l-23.011,9.307
		c0,0-6.317,4.683-18.948-4.341c0,0-17.595-9.475-29.776-34.291C359.504,480.902,344.948,451.527,355.892,428.433z"/>
	<g>
		<path d="M414.451,353.314c0.156,0.272,0.354,0.594,0.542,0.894l0.601,0.904c0.409,0.596,0.838,1.175,1.283,1.727
			c0.443,0.554,0.904,1.081,1.385,1.556c0.477,0.474,0.969,0.901,1.453,1.245c0.241,0.172,0.479,0.308,0.709,0.435l0.329,0.149
			c0.102,0.029,0.197,0.062,0.298,0.101c0.09,0.015,0.173,0.029,0.258,0.054c0.073-0.003,0.144,0.003,0.215,0.016
			c0.063-0.021,0.122-0.017,0.187-0.021c0.057-0.029,0.114-0.032,0.18-0.051c0.062-0.039,0.126-0.064,0.197-0.091
			c0.068-0.059,0.144-0.107,0.223-0.153c0.153-0.146,0.325-0.27,0.488-0.492c0.174-0.177,0.329-0.438,0.493-0.678
			c0.161-0.249,0.304-0.549,0.46-0.819l-0.094,0.224l14.219-39.004l7.005-19.535c1.164-3.257,2.314-6.519,3.431-9.781l1.688-4.896
			l1.485-4.772l0.028-0.121c0.188-0.64,0.38-1.21,0.589-1.804c0.207-0.587,0.428-1.168,0.66-1.746
			c0.464-1.154,0.978-2.292,1.557-3.406c0.58-1.114,1.225-2.206,1.968-3.252c0.37-0.523,0.779-1.03,1.206-1.525l0.683-0.721
			l0.747-0.678l0.818-0.621c0.293-0.188,0.602-0.364,0.9-0.542c0.323-0.153,0.655-0.294,0.985-0.436
			c0.353-0.101,0.701-0.208,1.061-0.286c0.367-0.042,0.734-0.104,1.102-0.114c0.367,0.018,0.741,0.017,1.104,0.064
			c0.354,0.073,0.713,0.143,1.061,0.23l0.992,0.373c0.614,0.31,1.235,0.624,1.757,1.031c0.564,0.371,1.035,0.813,1.522,1.247
			c0.479,0.437,0.89,0.92,1.336,1.38l1.188,1.466l0.033,0.041l0.023,0.04c1.209,2.028,2.232,4.04,3.206,6.121
			c0.497,1.028,0.932,2.087,1.397,3.128l1.283,3.173c0.8,2.136,1.575,4.281,2.238,6.462c0.359,1.081,0.674,2.176,0.965,3.278
			c0.287,1.103,0.631,2.188,0.871,3.303c0.51,2.22,1.032,4.438,1.388,6.688c0.446,2.231,0.688,4.497,0.977,6.755
			c0.17,1.125,0.201,2.266,0.297,3.396l0.229,3.403l0.046,3.41c0.01,1.137,0.063,2.271-0.021,3.406l-0.162,3.405l-0.078,1.678
			l-0.059,1.693l-0.267,6.776c-0.181,4.517-0.396,9.032-0.624,13.546c-0.237,4.514-0.5,9.024-0.83,13.535
			c-0.13,2.256-0.377,4.505-0.57,6.756c-0.15,2.256-0.568,4.484-0.869,6.722c0.255-2.247,0.625-4.475,0.729-6.733
			c0.147-2.256,0.35-4.505,0.433-6.763c0.233-4.511,0.398-9.023,0.546-13.541c0.133-4.516,0.255-9.029,0.341-13.548l0.122-6.772
			l0.023-1.694l0.045-1.708l0.089-3.369c0.061-1.122-0.02-2.245-0.049-3.367l-0.115-3.365l-0.3-3.354
			c-0.115-1.116-0.17-2.238-0.361-3.345c-0.332-2.221-0.613-4.445-1.101-6.638c-0.396-2.208-0.957-4.38-1.504-6.554
			c-0.26-1.09-0.62-2.151-0.926-3.229c-0.308-1.077-0.638-2.147-1.016-3.202c-0.695-2.129-1.501-4.219-2.328-6.297l-1.323-3.083
			c-0.479-1.011-0.925-2.035-1.432-3.03c-0.979-1.994-2.06-3.988-3.199-5.818l0.058,0.08l-1.114-1.314
			c-0.404-0.396-0.782-0.827-1.202-1.19c-0.424-0.355-0.836-0.735-1.291-1.014c-0.438-0.331-0.908-0.541-1.366-0.771l-0.705-0.249
			l-0.707-0.138c-0.233-0.026-0.468-0.011-0.701-0.027c-0.23,0.016-0.461,0.064-0.69,0.086l-0.68,0.199l-0.66,0.312l-0.64,0.402
			l-0.608,0.483l-0.579,0.549l-0.548,0.605c-0.352,0.425-0.69,0.86-1.006,1.33c-0.634,0.93-1.195,1.93-1.707,2.963
			s-0.969,2.104-1.381,3.193c-0.205,0.545-0.4,1.096-0.584,1.647c-0.18,0.546-0.356,1.122-0.5,1.642l0.027-0.121l-1.476,5.177
			l-1.596,4.95c-1.053,3.31-2.139,6.6-3.233,9.883l-6.602,19.696L428,359.857l-0.047,0.133l-0.047,0.089
			c-0.218,0.414-0.408,0.826-0.659,1.239c-0.265,0.414-0.509,0.826-0.856,1.23c-0.304,0.408-0.724,0.805-1.148,1.179
			c-0.237,0.18-0.483,0.354-0.731,0.523c-0.273,0.154-0.563,0.296-0.853,0.433c-0.301,0.117-0.623,0.209-0.938,0.298
			c-0.32,0.064-0.65,0.102-0.979,0.136c-0.316,0.005-0.639-0.005-0.956-0.024c-0.298-0.045-0.601-0.095-0.895-0.155l-0.819-0.25
			l-0.746-0.316c-0.465-0.231-0.905-0.481-1.309-0.754c-0.805-0.541-1.501-1.134-2.146-1.747c-0.645-0.614-1.225-1.252-1.772-1.905
			c-0.549-0.651-1.064-1.318-1.554-2.002c-0.246-0.34-0.483-0.686-0.719-1.036c-0.233-0.354-0.457-0.694-0.694-1.096
			L414.451,353.314z"/>
	</g>
	<path fill="none" stroke="#000000" stroke-width="5" stroke-miterlimit="10" d="M359.781,423.211c0,0,7.656-5.33,21.379-5.474
		c14.815-0.16,33.038,4.024,40.324,4.091c13.306,0.118,40.593-4.982,58.482-4.095c8.915,0.439,11.473,4.432,14.354,8.277"/>
	<g>
		<path d="M386.725,499.849c0,0,0.485-0.589,1.533-1.408c0.524-0.403,1.184-0.886,1.997-1.346c0.404-0.231,0.851-0.456,1.318-0.707
			c0.479-0.229,0.998-0.428,1.541-0.655c0.558-0.184,1.143-0.376,1.758-0.547c0.625-0.134,1.273-0.299,1.958-0.386
			c1.365-0.175,2.854-0.249,4.387-0.045c0.768,0.088,1.55,0.198,2.313,0.439c0.387,0.106,0.775,0.213,1.166,0.32
			c0.383,0.129,0.749,0.306,1.127,0.461l1.13,0.487c0.362,0.188,0.711,0.401,1.063,0.613l1.878,1.142l0.92,0.585
			c0.309,0.199,0.521,0.243,0.781,0.378c0.25,0.114,0.496,0.23,0.736,0.365l0.817,0.271c0.543,0.23,1.086,0.273,1.624,0.406
			c0.271,0.086,0.536,0.04,0.804,0.067c0.267-0.008,0.538,0.072,0.8,0.027c0.524-0.05,1.057-0.066,1.563-0.213
			c0.527-0.071,1.011-0.289,1.511-0.453c0.493-0.184,0.953-0.439,1.415-0.67c0.434-0.283,0.899-0.506,1.283-0.821
			c0.405-0.29,0.801-0.57,1.146-0.887c0.364-0.294,0.695-0.594,0.992-0.896c0.314-0.29,0.593-0.579,0.843-0.856
			c0.253-0.276,0.507-0.525,0.688-0.776c0.192-0.246,0.371-0.469,0.537-0.658c0.146-0.202,0.271-0.375,0.371-0.516
			c0.21-0.285,0.321-0.437,0.321-0.437s-0.02,0.188-0.055,0.538c-0.037,0.354-0.104,0.878-0.29,1.521
			c-0.181,0.644-0.411,1.44-0.835,2.29c-0.187,0.442-0.438,0.88-0.721,1.342c-0.262,0.479-0.614,0.928-0.979,1.409
			c-0.345,0.501-0.827,0.92-1.275,1.413c-0.496,0.443-1.032,0.897-1.636,1.305c-1.215,0.811-2.693,1.464-4.347,1.768
			c-1.638,0.26-3.434,0.243-5.075-0.234l-1.245-0.344c-0.413-0.167-0.823-0.352-1.232-0.538c-0.387-0.187-0.867-0.383-1.172-0.572
			l-0.93-0.565l-1.822-1.157l-0.787-0.512l-0.827-0.412c-0.275-0.136-0.545-0.287-0.823-0.41l-0.85-0.325
			c-0.556-0.249-1.139-0.383-1.71-0.545c-1.146-0.316-2.31-0.47-3.437-0.563c-0.563-0.063-1.119-0.022-1.665-0.058
			c-0.544,0.002-1.07,0.05-1.59,0.059c-1.021,0.093-1.981,0.189-2.837,0.334c-0.845,0.165-1.604,0.301-2.224,0.449
			c-0.612,0.16-1.115,0.271-1.448,0.369C386.905,499.8,386.725,499.849,386.725,499.849z"/>
	</g>
	<g>
		<path d="M425.759,495.798c0.926,0.646,1.921,1.299,2.907,1.928c0.987,0.633,1.994,1.245,3.007,1.848
			c2.023,1.203,4.087,2.348,6.182,3.417c1.044,0.544,2.104,1.053,3.167,1.555c1.063,0.5,2.136,0.975,3.217,1.429
			c1.084,0.438,2.167,0.894,3.271,1.273c1.095,0.413,2.206,0.754,3.313,1.109c1.117,0.308,2.234,0.633,3.363,0.864
			c0.563,0.139,1.128,0.248,1.695,0.335c0.563,0.089,1.133,0.214,1.697,0.258c0.567,0.054,1.139,0.138,1.703,0.17l1.698,0.063
			l1.684-0.071c0.563-0.027,1.104-0.144,1.658-0.206c1.089-0.194,2.166-0.46,3.172-0.886c0.528-0.166,0.992-0.449,1.474-0.707
			c0.233-0.139,0.492-0.242,0.712-0.402l0.655-0.486l0.658-0.484l0.583-0.579c0.396-0.381,0.796-0.761,1.107-1.228
			c0.313-0.456,0.722-0.848,0.969-1.357l0.84-1.468l0.067-0.124c0.932-1.453,1.868-2.964,2.73-4.491l1.317-2.291l1.24-2.336
			l1.239-2.338l1.149-2.386l1.146-2.39l0.569-1.195l0.515-1.221l2.052-4.89c0.346-0.814,0.598-1.662,0.902-2.492l0.877-2.504
			l0.878-2.508l0.692-2.563l1.376-5.138l-1.118,5.204l-0.567,2.604l-0.754,2.558l-0.755,2.559c-0.266,0.849-0.479,1.717-0.783,2.552
			l-1.817,5.021l-0.455,1.257l-0.515,1.229l-1.033,2.465l-1.04,2.465l-1.134,2.421l-1.136,2.424l-1.218,2.385
			c-0.805,1.604-1.66,3.153-2.566,4.732l0.066-0.124l-0.861,1.706c-0.256,0.586-0.694,1.079-1.038,1.623
			c-0.34,0.552-0.782,1.026-1.229,1.505l-0.664,0.72l-0.757,0.626l-0.763,0.621c-0.257,0.205-0.552,0.352-0.826,0.53
			c-0.561,0.34-1.113,0.703-1.725,0.937c-1.183,0.568-2.434,0.946-3.689,1.235c-0.632,0.107-1.266,0.269-1.898,0.333l-1.909,0.176
			l-1.902,0.025c-0.633-0.006-1.258-0.063-1.888-0.094c-0.634-0.021-1.248-0.12-1.872-0.188c-0.625-0.064-1.243-0.153-1.854-0.271
			c-1.234-0.19-2.44-0.478-3.653-0.747c-1.195-0.315-2.396-0.622-3.57-0.998c-1.187-0.349-2.343-0.766-3.505-1.17
			c-1.155-0.421-2.303-0.858-3.438-1.324c-1.135-0.47-2.267-0.942-3.379-1.452c-2.231-1.006-4.432-2.084-6.596-3.229
			c-1.081-0.571-2.157-1.154-3.223-1.766c-1.07-0.61-2.118-1.222-3.195-1.896L425.759,495.798z"/>
	</g>
	<g>
		<path d="M408.238,502.307c0,0-0.295,0.019-0.813,0.051c-0.523,0.036-1.28,0.104-2.188,0.194c-1.815,0.188-4.244,0.512-6.646,0.984
			c-1.203,0.234-2.395,0.521-3.506,0.814c-0.553,0.164-1.084,0.322-1.592,0.472c-0.498,0.176-0.97,0.341-1.402,0.494
			c-0.853,0.347-1.575,0.639-2.045,0.905c-0.485,0.251-0.765,0.395-0.765,0.395s0.233-0.208,0.644-0.57
			c0.397-0.387,1.029-0.851,1.798-1.417c0.396-0.267,0.825-0.553,1.279-0.854c0.469-0.28,0.963-0.576,1.475-0.883
			c1.039-0.582,2.168-1.179,3.319-1.727c2.3-1.101,4.67-2.057,6.472-2.723c0.902-0.33,1.659-0.597,2.198-0.773
			c0.548-0.18,0.858-0.279,0.858-0.279L408.238,502.307z"/>
	</g>
</g>
<path fill="none" stroke="#000000" stroke-width="5" stroke-miterlimit="10" d="M245.439,387.195c0,0,45.115-22.641,64.968,9.846
	c0,0,17.147,25.269,2.71,60.91c0,0,9.929,48.728-4.511,58.201c0,0-14.938,13.085-43.113,6.77c0,0-9.674-3.771-20.054,1.724
	c0,0-27.521,11.36-45.119-12.099c0,0-13.084-12.184-8.57-53.24c0,0-10.375-11.732,1.805-33.838c0,0,1.802-24.816,17.147-29.328
	C210.699,396.139,217.464,383.663,245.439,387.195z"/>
<g>
	<path d="M198.067,458.851c1.879-0.217,3.761-0.406,5.64-0.565c1.879-0.177,3.759-0.318,5.638-0.449l0.145-0.013l0.272,0.103
		c1.306,0.479,2.646,0.893,3.961,1.358c1.313,0.479,2.646,0.885,3.973,1.3l1.989,0.621c0.662,0.222,1.325,0.39,1.988,0.566
		l3.963,1.068l-1.821,0.452c1.54-1.533,3.075-3.034,4.663-4.496l2.381-2.191l2.433-2.143c0.807-0.719,1.645-1.41,2.476-2.105
		c0.829-0.697,1.667-1.388,2.536-2.054c0.871-0.666,1.695-1.367,2.605-2.003l2.732-1.913l0.563-0.395l0.791-0.006
		c2.404-0.019,4.812-0.001,7.217,0.008c2.404,0,4.812,0.05,7.218,0.074l0.223,0.002l0.2,0.035l1.84,0.322l1.87,0.289
		c1.246,0.177,2.496,0.321,3.73,0.437c0.613,0.052,1.232,0.105,1.839,0.127c0.609,0.033,1.204,0.036,1.789,0.026
		c0.297,0.001,0.562-0.037,0.846-0.044c0.295-0.003,0.527-0.053,0.78-0.084c0.277-0.021,0.441-0.089,0.637-0.132l0.146-0.032
		l0.051-0.033c0.033-0.018,0.073-0.022,0.124-0.023l2.193-0.226l4.41,2.602c1.479,0.854,2.92,1.771,4.382,2.651l-0.219-0.095
		c1.391,0.563,2.838,1.093,4.271,1.611c1.436,0.524,2.883,1.021,4.341,1.477c0.729,0.212,1.462,0.445,2.196,0.647
		c0.732,0.218,1.475,0.388,2.219,0.563c0.744,0.151,1.491,0.299,2.25,0.395c0.38,0.061,0.756,0.05,1.141,0.077
		c0.383,0.021,0.758-0.044,1.151-0.063c-0.366,0.104-0.738,0.269-1.126,0.328c-0.388,0.052-0.779,0.144-1.173,0.163
		c-0.392,0.021-0.786,0.057-1.183,0.065l-1.181-0.016c-0.782-0.041-1.572-0.08-2.352-0.167c-0.784-0.064-1.561-0.176-2.337-0.29
		c-1.546-0.243-3.086-0.527-4.616-0.846c-1.534-0.33-3.034-0.71-4.57-1.129l-0.037-0.012l-0.182-0.086
		c-1.546-0.725-3.109-1.416-4.642-2.17l-4.609-2.224l2.193-0.226c-0.228,0.166-0.466,0.326-0.71,0.478l-0.368,0.214l-0.313,0.123
		c-0.422,0.163-0.865,0.329-1.232,0.395c-0.384,0.088-0.785,0.189-1.14,0.229c-0.362,0.048-0.74,0.106-1.092,0.13
		c-0.712,0.056-1.416,0.093-2.104,0.096c-0.691,0.018-1.37-0.003-2.051-0.021c-1.354-0.038-2.688-0.157-4.02-0.283l-1.989-0.222
		c-0.668-0.083-1.313-0.171-2.006-0.284l0.423,0.037c-2.406,0.024-4.813,0.072-7.218,0.072c-2.405,0.012-4.813,0.027-7.219,0.011
		l1.353-0.399l-2.54,1.748c-0.426,0.281-0.84,0.611-1.262,0.919l-1.262,0.938c-0.845,0.612-1.675,1.264-2.501,1.924
		c-0.821,0.661-1.673,1.284-2.491,1.959l-4.937,4.019l-4.896,4.071l-0.93,0.772l-0.892-0.32l-4.075-1.466
		c-0.676-0.248-1.364-0.472-2.005-0.779l-1.954-0.867c-1.301-0.578-2.604-1.145-3.874-1.776c-1.281-0.606-2.541-1.262-3.8-1.93
		l0.417,0.09c-1.879-0.131-3.759-0.272-5.639-0.449C201.825,459.26,199.946,459.068,198.067,458.851z"/>
</g>
<g>
	<path d="M246.11,384.787c0,0,0.137,0.053,0.396,0.155c0.202,0.088,0.499,0.244,0.728,0.411c0.131,0.107,0.281,0.237,0.445,0.392
		c0.643,0.611,1.122,1.392,1.596,2.343c0.423,0.939,0.835,2.054,1.15,3.294c0.195,0.627,0.32,1.282,0.457,1.973
		c0.129,0.688,0.313,1.417,0.396,2.166c0.217,1.501,0.451,3.124,0.57,4.828c0.18,1.708,0.264,3.5,0.343,5.351
		c0.116,1.853,0.104,3.759,0.138,5.696c0.048,1.938-0.007,3.898-0.037,5.859c-0.024,1.961-0.065,3.923-0.166,5.848
		c-0.083,1.925-0.164,3.819-0.243,5.652c-0.118,1.827-0.232,3.598-0.341,5.272c-0.115,1.676-0.195,3.261-0.321,4.721
		c-0.491,5.84-0.818,9.729-0.818,9.729s0.017-3.903,0.037-9.757c0.012-1.462-0.038-3.048-0.057-4.725
		c-0.026-1.674-0.054-3.438-0.082-5.267c-0.067-1.824-0.137-3.709-0.208-5.625c-0.053-1.915-0.169-3.856-0.3-5.794
		c-0.124-1.938-0.229-3.877-0.429-5.773c-0.183-1.896-0.319-3.77-0.577-5.557c-0.223-1.794-0.442-3.524-0.745-5.136
		c-0.246-1.632-0.59-3.125-0.9-4.503c-0.134-0.699-0.354-1.318-0.517-1.931c-0.171-0.606-0.33-1.187-0.534-1.681
		c-0.354-1.042-0.743-1.845-1.065-2.44c-0.172-0.239-0.317-0.527-0.438-0.651c-0.061-0.06-0.109-0.114-0.153-0.167
		c-0.021-0.023-0.045-0.062-0.058-0.069l-0.019,0.006c-0.007,0.001-0.008-0.002-0.008-0.009c0.085,0.072,0.249,0.162,0.352,0.188
		c0.055,0.02,0.104,0.03,0.146,0.038c0.015,0.001-0.029-0.009-0.036-0.011c-0.027-0.008-0.043-0.012-0.043-0.012L246.11,384.787z"/>
</g>
<g>
	<path d="M227.37,463.601l13.788,30.354l0.09,0.198l0.021,0.133c0.066,0.403,0.167,0.878,0.271,1.321
		c0.106,0.45,0.222,0.901,0.354,1.349c0.119,0.451,0.271,0.895,0.414,1.34c0.134,0.447,0.316,0.88,0.473,1.319
		c0.152,0.444,0.354,0.865,0.532,1.299c0.174,0.438,0.388,0.854,0.591,1.273c0.201,0.424,0.411,0.842,0.65,1.243
		s0.444,0.828,0.71,1.211l0.774,1.172l0.854,1.11c0.275,0.382,0.604,0.715,0.92,1.057c0.327,0.333,0.618,0.71,0.983,1.002
		l1.054,0.932c0.362,0.298,0.759,0.547,1.138,0.823l0.576,0.407c0.201,0.121,0.411,0.227,0.617,0.341l1.243,0.677l-0.029-0.011
		l10.539,4.001l-10.805-3.214l-0.015-0.004l-0.017-0.007l-1.354-0.611c-0.228-0.104-0.456-0.2-0.68-0.313l-0.638-0.385
		c-0.422-0.262-0.864-0.499-1.271-0.783l-1.19-0.904c-0.413-0.286-0.748-0.656-1.123-0.986c-0.366-0.339-0.742-0.672-1.063-1.053
		c-0.333-0.371-0.676-0.736-1-1.116l-0.916-1.185c-0.313-0.393-0.563-0.82-0.851-1.23s-0.543-0.838-0.79-1.271
		c-0.251-0.433-0.51-0.859-0.729-1.309c-0.225-0.443-0.472-0.882-0.667-1.339c-0.201-0.456-0.43-0.902-0.607-1.369
		c-0.187-0.463-0.383-0.923-0.547-1.396c-0.177-0.468-0.335-0.944-0.489-1.424c-0.15-0.488-0.29-0.951-0.42-1.494l0.111,0.331
		l-15.986-29.256L227.37,463.601z"/>
</g>
<g>
	<path d="M206.356,508.974c1.475,1.079,2.993,2.095,4.516,3.084c0.77,0.481,1.538,0.963,2.319,1.414
		c0.389,0.231,0.782,0.45,1.179,0.665c0.396,0.213,0.781,0.44,1.187,0.635c0.797,0.408,1.594,0.801,2.399,1.155
		c0.396,0.193,0.807,0.342,1.211,0.501c0.402,0.158,0.806,0.325,1.213,0.435c0.405,0.113,0.809,0.271,1.208,0.352l1.184,0.247
		l1.123,0.092c0.343-0.031,0.666-0.076,0.994-0.095l0.291-0.015l0.011-0.001c0.385-0.032,0.934-0.093,1.408-0.177
		c0.495-0.079,0.985-0.188,1.472-0.319c0.979-0.237,1.906-0.628,2.807-1.025l1.294-0.689c0.411-0.256,0.811-0.521,1.222-0.76
		c0.406-0.248,0.758-0.567,1.164-0.811c0.417-0.229,0.72-0.598,1.116-0.855c0.185-0.146,0.385-0.275,0.561-0.434
		c0.164-0.169,0.337-0.327,0.515-0.486c0.333-0.334,0.742-0.609,1.034-0.993c0.313-0.366,0.646-0.724,0.985-1.086
		c0.317-0.379,0.582-0.804,0.901-1.202c0.322-0.397,0.644-0.81,0.879-1.272l0.853-1.354c0.313-0.453,0.514-0.957,0.786-1.445
		c0.272-0.491,0.547-0.992,0.869-1.498l0.494,0.076c0.087,0.582,0.128,1.168,0.167,1.766c0.005,0.59,0.088,1.204,0.004,1.794
		c-0.079,0.59-0.15,1.19-0.248,1.795c-0.08,0.606-0.259,1.188-0.455,1.776c-0.199,0.584-0.382,1.187-0.64,1.755
		c-0.291,0.556-0.586,1.113-0.904,1.664c-0.281,0.577-0.726,1.041-1.105,1.56c-0.196,0.253-0.396,0.506-0.604,0.75
		c-0.216,0.235-0.459,0.446-0.688,0.671c-0.474,0.433-0.932,0.898-1.473,1.242c-0.522,0.366-1.067,0.714-1.622,1.023
		c-0.572,0.278-1.148,0.545-1.729,0.796l-1.79,0.585c-0.607,0.145-1.208,0.3-1.813,0.425c-0.609,0.09-1.209,0.226-1.817,0.288
		c-0.606,0.081-1.216,0.139-1.827,0.171c-0.629,0.033-1.193,0.045-1.921,0.011l0.3-0.017c-0.585,0.001-1.178,0.001-1.747-0.035
		l-1.591-0.313c-0.493-0.153-0.979-0.317-1.458-0.488c-0.479-0.172-0.909-0.403-1.362-0.604c-0.456-0.196-0.873-0.438-1.295-0.673
		c-0.42-0.236-0.848-0.461-1.243-0.727l-1.201-0.766l-1.148-0.821c-0.388-0.269-0.748-0.564-1.12-0.85
		c-0.371-0.285-0.739-0.57-1.095-0.871c-0.726-0.586-1.427-1.194-2.122-1.805c-1.39-1.229-2.713-2.517-3.976-3.866L206.356,508.974z
		"/>
</g>
<g>
	<polygon points="223.92,466.99 206.189,472.389 221.832,462.447 	"/>
</g>
<path fill="none" stroke="#000000" stroke-width="5" stroke-miterlimit="10" d="M261.685,478.405"/>
<g>
	<polygon points="257.479,446.908 288.155,412.835 261.371,450.048 	"/>
</g>
<g>
	<polygon points="238.139,452.923 222.876,417.833 242.584,450.634 	"/>
</g>
<g>
	<polygon points="273.718,448.128 289.653,479.91 269.417,450.677 	"/>
</g>
<g>
	<path d="M203.631,453.457c-0.958-1.522-1.742-3.152-2.447-4.817c-0.714-1.665-1.282-3.394-1.79-5.149
		c-0.251-0.88-0.449-1.772-0.628-2.677c-0.183-0.901-0.337-1.813-0.451-2.734c-0.132-0.919-0.2-1.851-0.244-2.786
		c-0.026-0.938-0.036-1.881,0.02-2.828c0.065-0.946,0.138-1.899,0.31-2.849c0.129-0.953,0.376-1.894,0.622-2.834
		c0.286-0.933,0.591-1.862,0.993-2.768c0.178-0.46,0.415-0.896,0.644-1.335c0.229-0.439,0.448-0.885,0.729-1.297
		c0.269-0.418,0.523-0.849,0.81-1.256l0.915-1.182c0.3-0.401,0.665-0.739,0.997-1.111c0.337-0.368,0.682-0.729,1.061-1.049
		l1.111-0.988l1.193-0.875c0.785-0.604,1.655-1.047,2.482-1.57l0.168-0.107l0.273-0.082c0.655-0.195,1.116-0.293,1.671-0.396
		c0.535-0.086,1.069-0.162,1.614-0.2c1.085-0.084,2.2-0.069,3.339,0.097c1.136,0.16,2.302,0.501,3.401,1.08
		c0.28,0.123,0.54,0.313,0.805,0.472l0.198,0.126l0.098,0.064l0.049,0.032l0.024,0.016l0.163,0.124l0.266,0.225
		c0.188,0.165,0.333,0.27,0.556,0.483c0.242,0.251,0.482,0.511,0.715,0.775l0.171,0.198l0.084,0.103
		c0.021,0.027-0.153-0.188-0.076-0.092l0.007,0.008l0.016,0.017l0.025,0.034l0.102,0.12c-0.043-0.056-0.097-0.106-0.152-0.146
		c-0.118-0.09-0.235-0.17-0.528-0.26c-0.278-0.082-0.666-0.091-0.953,0.006c-0.546,0.188-0.564,0.353-0.552,0.312
		c0.021-0.015,0.102-0.104,0.187-0.234c0.356-0.534,0.764-1.374,1.165-2.178c0.802-1.649,1.637-3.398,2.642-5.079
		c0.99-1.688,2.155-3.331,3.569-4.792c1.415-1.452,3.114-2.707,5.021-3.508c1.921-0.77,3.995-1.034,5.946-0.824
		c1.959,0.201,3.793,0.82,5.473,1.659c-1.854-0.297-3.705-0.459-5.472-0.244c-0.881,0.116-1.738,0.276-2.549,0.555
		c-0.813,0.274-1.576,0.639-2.278,1.091c-1.422,0.873-2.622,2.063-3.611,3.441c-0.494,0.689-0.967,1.402-1.391,2.155
		c-0.422,0.754-0.816,1.534-1.191,2.331c-0.741,1.604-1.386,3.271-2.086,5.021c-0.36,0.892-0.696,1.764-1.306,2.818
		c-0.157,0.266-0.345,0.557-0.632,0.894c-0.289,0.309-0.674,0.793-1.669,1.115c-0.515,0.149-1.138,0.148-1.641-0.005
		c-0.517-0.156-0.833-0.362-1.135-0.592c-0.144-0.119-0.282-0.246-0.412-0.379l-0.131-0.144l-0.142-0.164l-0.033-0.027l-0.063-0.06
		c-0.08-0.08-0.152-0.165-0.222-0.257c-0.108-0.111-0.344-0.279-0.51-0.417l-0.273-0.216l-0.009-0.007
		c-0.034-0.026,0.269,0.203,0.136,0.104l-0.012-0.007l-0.024-0.014l-0.051-0.028l-0.099-0.056c-0.137-0.07-0.251-0.167-0.404-0.221
		c-0.554-0.276-1.209-0.435-1.911-0.531c-0.702-0.096-1.458-0.104-2.225-0.033c-0.383,0.03-0.77,0.09-1.151,0.155
		c-0.357,0.066-0.808,0.163-1.045,0.23l0.443-0.188c-0.67,0.427-1.405,0.773-2.03,1.257l-0.966,0.688l-0.902,0.755
		c-0.313,0.241-0.588,0.52-0.857,0.799c-0.269,0.284-0.573,0.535-0.813,0.844l-0.753,0.896c-0.242,0.306-0.455,0.634-0.687,0.947
		c-0.242,0.312-0.432,0.654-0.63,0.993c-0.2,0.338-0.412,0.671-0.571,1.035c-0.168,0.358-0.366,0.703-0.521,1.07l-0.453,1.109
		c-0.258,0.763-0.521,1.526-0.714,2.321c-0.227,0.784-0.362,1.602-0.503,2.417c-0.135,0.819-0.231,1.65-0.305,2.489
		c-0.049,0.84-0.108,1.686-0.118,2.54c-0.021,0.852-0.005,1.711,0.04,2.57c0.032,0.86,0.124,1.722,0.193,2.587
		c0.144,1.734,0.426,3.465,0.729,5.203C202.795,449.987,203.171,451.722,203.631,453.457z"/>
</g>
<g>
	<path d="M258.073,402.908c1.478-0.969,3.049-1.792,4.663-2.53c0.808-0.378,1.635-0.713,2.475-1.022
		c0.847-0.291,1.692-0.599,2.569-0.829c0.866-0.273,1.771-0.439,2.677-0.609l1.386-0.177c0.462-0.067,0.943-0.053,1.418-0.081
		c0.475-0.035,0.959-0.015,1.449,0.03c0.488,0.043,0.979,0.042,1.479,0.173c0.494,0.123,0.998,0.188,1.489,0.373l1.475,0.599
		l-0.289-0.134c0.396,0.132,0.688,0.242,1.018,0.372c0.313,0.128,0.629,0.263,0.934,0.408c0.616,0.283,1.216,0.596,1.809,0.935
		c0.587,0.343,1.174,0.695,1.728,1.109c0.28,0.201,0.563,0.398,0.827,0.628c0.267,0.225,0.545,0.434,0.802,0.675
		c0.521,0.477,1.027,0.971,1.494,1.523c0.248,0.259,0.463,0.553,0.676,0.85c0.208,0.302,0.447,0.576,0.624,0.904l0.561,0.962
		c0.179,0.326,0.313,0.68,0.469,1.021c0.158,0.344,0.298,0.691,0.395,1.061l0.315,1.091l-2.213-1.906
		c1.38,0.084,2.527,0.256,3.77,0.474c1.22,0.208,2.416,0.521,3.608,0.859c1.186,0.365,2.37,0.746,3.521,1.25
		c1.155,0.482,2.28,1.063,3.382,1.689c0.548,0.319,1.081,0.677,1.616,1.021c0.516,0.384,1.031,0.769,1.534,1.166
		c0.481,0.433,0.979,0.843,1.443,1.296c0.442,0.479,0.92,0.92,1.328,1.429c0.397,0.521,0.829,1.012,1.188,1.56
		c0.346,0.556,0.729,1.087,1.032,1.666c0.292,0.584,0.609,1.156,0.856,1.757l0.677,1.825l0.486,1.868
		c0.134,0.626,0.197,1.261,0.295,1.889c0.115,0.628,0.104,1.258,0.143,1.887c0.036,0.627,0.057,1.253-0.001,1.869l-0.117,1.853
		l-0.278,1.813c-0.081,0.606-0.22,1.197-0.372,1.782l-0.435,1.755c-0.37,1.143-0.709,2.288-1.152,3.393
		c-0.478,1.089-0.896,2.193-1.419,3.251c-0.544,1.048-1.066,2.099-1.646,3.114c-0.605,1.006-1.22,2.003-1.852,2.979
		c0.328-1.126,0.675-2.235,1.028-3.334c0.349-1.102,0.606-2.23,0.928-3.329c0.313-1.101,0.52-2.228,0.781-3.329
		c0.209-1.115,0.386-2.227,0.578-3.329l0.165-1.663c0.063-0.552,0.111-1.103,0.104-1.651l0.045-1.642l-0.083-1.618
		c-0.008-0.54-0.091-1.065-0.167-1.591c-0.084-0.521-0.113-1.056-0.264-1.558c-0.131-0.506-0.229-1.021-0.38-1.515l-0.496-1.46
		l-0.635-1.389c-0.229-0.451-0.511-0.874-0.749-1.314c-0.254-0.437-0.581-0.824-0.862-1.239c-0.293-0.408-0.657-0.767-0.977-1.152
		c-0.339-0.375-0.723-0.712-1.074-1.073c-0.374-0.343-0.783-0.653-1.169-0.983l-1.26-0.896c-0.444-0.265-0.872-0.556-1.326-0.813
		c-0.914-0.508-1.854-0.981-2.837-1.381c-0.973-0.424-1.986-0.771-3.008-1.095c-1.028-0.305-2.072-0.579-3.128-0.802
		c-1.028-0.219-2.172-0.411-3.1-0.498l-1.729-0.161l-0.482-1.746c-0.063-0.229-0.124-0.464-0.178-0.699
		c-0.041-0.237-0.122-0.467-0.216-0.691c-0.095-0.228-0.157-0.461-0.269-0.686l-0.34-0.661c-0.1-0.229-0.27-0.43-0.398-0.646
		c-0.135-0.216-0.271-0.43-0.44-0.631c-0.303-0.421-0.654-0.816-1.021-1.207c-0.179-0.198-0.388-0.375-0.58-0.565
		c-0.188-0.19-0.401-0.364-0.612-0.542c-0.415-0.356-0.859-0.694-1.314-1.02c-0.457-0.322-0.931-0.629-1.417-0.91
		c-0.242-0.146-0.487-0.275-0.731-0.409l-0.695-0.353l-0.289-0.134c-0.303-0.156-0.604-0.319-0.905-0.491
		c-0.308-0.166-0.677-0.244-1.015-0.378c-0.333-0.15-0.721-0.199-1.093-0.287c-0.372-0.092-0.754-0.167-1.155-0.19
		c-0.397-0.028-0.789-0.105-1.197-0.103l-1.228-0.02c-0.412,0.012-0.828,0.044-1.244,0.065c-0.417,0.006-0.836,0.055-1.257,0.095
		c-0.844,0.065-1.686,0.208-2.53,0.336c-0.841,0.16-1.688,0.313-2.536,0.495C261.449,401.964,259.758,402.397,258.073,402.908z"/>
</g>
<g>
	<path d="M279.426,517.494c0,0,2.365-1.046,5.914-2.613c1.729-0.776,3.707-1.688,5.758-2.711c1.017-0.529,2.063-1.064,3.093-1.65
		c1.037-0.577,2.058-1.197,3.057-1.841c0.992-0.646,1.958-1.326,2.873-2.032c0.912-0.71,1.792-1.432,2.589-2.188
		c0.812-0.744,1.556-1.513,2.229-2.276c0.365-0.364,0.646-0.771,0.963-1.144c0.328-0.363,0.591-0.752,0.861-1.117
		c0.571-0.723,0.987-1.452,1.436-2.083c0.397-0.667,0.745-1.248,1.03-1.729c0.519-0.997,0.88-1.586,0.88-1.586
		s0.071,0.658,0.081,1.844c-0.021,0.585-0.075,1.303-0.175,2.128c-0.165,0.807-0.315,1.747-0.659,2.72
		c-0.301,0.989-0.75,2.024-1.305,3.085c-0.563,1.054-1.244,2.127-2.063,3.145c-0.396,0.521-0.832,1.024-1.301,1.504
		c-0.448,0.504-0.941,0.968-1.454,1.419c-1.006,0.93-2.13,1.734-3.268,2.505c-1.167,0.722-2.352,1.414-3.57,1.96
		c-1.205,0.581-2.437,1.034-3.632,1.436c-2.403,0.771-4.708,1.206-6.693,1.405c-1.986,0.194-3.654,0.164-4.817,0.065
		C280.086,517.645,279.426,517.494,279.426,517.494z"/>
</g>
<g>
	<path fill="none" stroke="#000000" stroke-width="5" stroke-miterlimit="10" d="M288.555,735.794
		c-3.158-31.134-20.303-83.923-20.303-83.923c-5.866-27.521-14.892-23.914-14.892-23.914c-10.375,0.453-14.435,20.758-14.435,20.758
		c-4.967,15.793-24.367,112.795-24.367,112.795c-4.063,21.654-18.952,56.851-18.952,56.851s-11.729,26.165-10.818,48.276
		c0,0,6.313,15.791,23.459,19.85c0,0,17.546,12.634,36.292,1.811c0,0,17.064-12.936,20.221-14.289"/>
	<path fill="none" stroke="#000000" stroke-width="5" stroke-miterlimit="10" d="M254.081,882.135c0,0,23.194,8.864,30.414,7.96
		c0,0,28.874-3.159,33.387-37.898c0,0,1.806-14.437-9.025-69.936c0,0-4.512-34.288-0.448-54.142c0,0,10.827-63.163-4.063-80.76
		c0,0-7.739-11.73-18.307-8.123c0,0-8.313,1.804-4.697,18.498c0,0,2.192,22.454-3.418,27.021"/>
	<path fill="none" stroke="#000000" stroke-width="5" stroke-miterlimit="10" d="M199.968,807.545c0,0,8.87-49.193,0-69.948
		c0,0-16.064-27.071,1.974-72.64c0,0,9.461-30.684,23.902-30.229c0,0,8.567,3.609,3.604,20.301c0,0-6,19.021,1.966,25.305"/>
	<path fill="none" stroke="#000000" stroke-width="5" stroke-miterlimit="10" d="M203.49,798.248c0,0,19.644-6.12,34.527,0
		c0,0,23.913,3.807,30.232,0c0,0,24.815-3.541,32.938-0.515c0,0,10.915,1.806,9.76-4.409"/>
	<g>
		<path d="M248.4,827.832c-0.217,1.807-0.333,3.608-0.424,5.403c-0.072,1.798-0.097,3.59-0.063,5.371
			c0.023,0.892,0.06,1.78,0.119,2.666c0.07,0.885,0.111,1.768,0.213,2.646c0.077,0.88,0.201,1.75,0.324,2.616
			c0.14,0.866,0.289,1.729,0.477,2.577c0.185,0.852,0.358,1.698,0.592,2.529c0.213,0.836,0.477,1.652,0.747,2.464
			c0.298,0.799,0.578,1.604,0.938,2.368c0.322,0.783,0.738,1.514,1.104,2.266c0.425,0.717,0.82,1.449,1.305,2.119
			c0.441,0.7,0.984,1.319,1.48,1.97c0.549,0.606,1.076,1.229,1.685,1.771c0.564,0.588,1.234,1.057,1.849,1.586l0.133,0.112
			c0.981,0.854,2.08,1.744,3.154,2.584c1.09,0.84,2.184,1.673,3.297,2.476c2.229,1.599,4.514,3.112,6.856,4.461
			c1.173,0.675,2.363,1.297,3.563,1.876c1.199,0.579,2.42,1.086,3.644,1.496c1.222,0.42,2.453,0.748,3.665,0.927l0.903,0.104
			l0.888,0.044l0.867-0.027l0.054-0.001l0.016-0.001c-0.302,0.046-0.073,0.012-0.139,0.021l0.033-0.007l0.131-0.021l0.219-0.041
			c0.146-0.029,0.277-0.048,0.441-0.088c1.259-0.272,2.542-0.651,3.801-1.083c0.629-0.221,1.263-0.438,1.873-0.709
			c0.62-0.252,1.239-0.51,1.835-0.817c1.225-0.558,2.374-1.252,3.535-1.935l1.703-1.095l1.613-1.228
			c0.562-0.391,1.035-0.872,1.547-1.321c0.489-0.468,1.048-0.879,1.492-1.395l1.418-1.487c0.47-0.505,0.858-1.068,1.297-1.604
			c0.91-1.05,1.613-2.244,2.396-3.41c0.755-1.18,1.341-2.457,2.059-3.696l-0.584,2.052c-0.218,0.679-0.354,1.397-0.67,2.041
			c-0.571,1.311-1.063,2.688-1.823,3.922c-0.368,0.623-0.694,1.278-1.104,1.882l-1.259,1.793c-0.402,0.617-0.903,1.149-1.382,1.708
			c-0.489,0.547-0.95,1.128-1.497,1.619l-1.6,1.531l-1.71,1.409c-1.171,0.902-2.399,1.737-3.687,2.479
			c-0.63,0.394-1.288,0.736-1.951,1.074c-0.651,0.354-1.333,0.657-2.015,0.964c-1.362,0.611-2.765,1.13-4.244,1.538
			c-0.176,0.054-0.392,0.104-0.589,0.152l-0.298,0.072l-0.13,0.029l-0.032,0.007l-0.188,0.029l-0.077,0.008l-1.243,0.115
			l-1.229,0.013l-1.205-0.083c-1.592-0.163-3.114-0.506-4.581-0.94c-2.929-0.896-5.631-2.163-8.195-3.6
			c-2.567-1.436-5.005-3.039-7.338-4.763c-1.169-0.858-2.317-1.739-3.436-2.662c-1.128-0.927-2.204-1.841-3.323-2.868l0.132,0.112
			c-0.741-0.663-1.518-1.291-2.185-2.029c-0.711-0.697-1.325-1.479-1.952-2.241c-0.577-0.801-1.165-1.598-1.645-2.454
			c-0.524-0.832-0.942-1.714-1.385-2.582c-0.388-0.89-0.771-1.78-1.067-2.695c-0.335-0.904-0.576-1.832-0.831-2.751
			c-0.228-0.929-0.438-1.854-0.596-2.784c-0.169-0.933-0.308-1.863-0.396-2.798c-0.093-0.938-0.146-1.869-0.185-2.804
			c-0.024-0.932-0.046-1.86-0.021-2.788c0.011-0.929,0.048-1.854,0.125-2.772c0.073-0.921,0.173-1.837,0.283-2.75
			c0.117-0.912,0.251-1.82,0.402-2.725c0.169-0.902,0.352-1.802,0.556-2.69C247.283,831.303,247.772,829.541,248.4,827.832z"/>
	</g>
	<g>
		<path d="M206.088,887.744c0,0-0.12-0.267-0.329-0.729c-0.217-0.386-0.526-0.938-0.897-1.601c-0.188-0.336-0.367-0.704-0.671-1.107
			c-0.276-0.403-0.57-0.828-0.875-1.268c-0.611-0.888-1.267-1.832-1.92-2.775c-0.699-0.921-1.433-1.819-2.104-2.677
			c-0.682-0.856-1.313-1.655-1.857-2.343c-1.093-1.376-1.822-2.293-1.822-2.293s0.944,0.69,2.359,1.728
			c0.711,0.521,1.54,1.129,2.429,1.778c0.89,0.656,1.852,1.344,2.79,2.063c0.913,0.766,1.827,1.531,2.685,2.248
			c0.431,0.363,0.848,0.714,1.242,1.046c0.396,0.31,0.769,0.708,1.113,1.057c0.688,0.701,1.277,1.313,1.667,1.732
			c0.327,0.396,0.516,0.623,0.516,0.623L206.088,887.744z"/>
	</g>
	<g>
		<path d="M291,735.271c0,0,0.56,3.396,1.482,8.508c0.925,5.104,2.209,11.902,3.646,18.669c0.723,3.382,1.479,6.757,2.237,9.908
			c0.399,1.568,0.754,3.099,1.147,4.529c0.399,1.428,0.731,2.798,1.125,4.03c0.392,1.231,0.696,2.389,1.063,3.371
			c0.359,0.987,0.646,1.864,0.932,2.564c0.61,1.385,0.963,2.177,0.963,2.177s-0.421-0.759-1.158-2.088
			c-0.349-0.676-0.713-1.521-1.164-2.483c-0.459-0.961-0.866-2.08-1.372-3.285c-0.506-1.206-0.961-2.54-1.493-3.938
			c-0.523-1.4-1.017-2.896-1.56-4.436c-1.048-3.087-2.11-6.398-3.141-9.722c-2.049-6.646-3.95-13.333-5.337-18.36
			c-1.388-5.022-2.264-8.403-2.264-8.403L291,735.271z"/>
	</g>
	<g>
		<path d="M250.326,855.441c-0.646,0.786-1.271,1.515-1.922,2.253c-0.646,0.733-1.302,1.458-1.968,2.173
			c-1.335,1.431-2.709,2.826-4.153,4.171c-1.448,1.346-2.953,2.646-4.615,3.832c-0.834,0.594-1.697,1.163-2.651,1.665
			c-0.479,0.249-0.976,0.485-1.505,0.694c-0.53,0.207-1.104,0.379-1.713,0.506l0.338-0.104c-0.612,0.225-1.024,0.317-1.525,0.433
			c-0.479,0.104-0.957,0.18-1.434,0.241c-0.954,0.115-1.909,0.158-2.857,0.129c-1.896-0.061-3.769-0.408-5.545-0.988
			c-1.771-0.592-3.455-1.404-4.992-2.4c-0.777-0.487-1.51-1.036-2.222-1.602c-0.708-0.567-1.379-1.176-2.028-1.799l0.269,0.189
			c-0.888-0.521-1.631-1.045-2.4-1.614c-0.757-0.567-1.486-1.163-2.192-1.785c-1.41-1.247-2.724-2.604-3.91-4.062
			c-2.367-2.914-4.234-6.271-5.228-9.894c-0.256-0.899-0.453-1.815-0.593-2.739c-0.148-0.921-0.239-1.851-0.271-2.778
			c-0.006-0.241-0.03-0.443-0.022-0.719l0.027-0.686l0.065-1.373l0.174-2.736c0.13-1.821,0.308-3.643,0.508-5.458l0.356-2.716
			l0.454-2.699l-0.295,2.72l-0.198,2.726c-0.094,1.818-0.165,3.638-0.188,5.457l-0.012,2.729l0.013,1.361l0.013,0.683
			c0.003,0.184,0.041,0.435,0.062,0.646c0.083,0.889,0.22,1.771,0.415,2.641c0.182,0.871,0.422,1.729,0.715,2.566
			c1.138,3.367,3.077,6.411,5.458,9.018c1.192,1.305,2.5,2.503,3.888,3.594c0.695,0.543,1.411,1.06,2.145,1.544
			c0.722,0.477,1.507,0.953,2.214,1.313l0.11,0.059l0.157,0.134c0.629,0.533,1.271,1.049,1.938,1.521
			c0.669,0.47,1.348,0.919,2.058,1.308c1.406,0.8,2.897,1.407,4.424,1.819c1.529,0.401,3.101,0.599,4.652,0.555
			c0.774-0.021,1.547-0.104,2.299-0.239c0.375-0.072,0.746-0.154,1.104-0.254c0.338-0.092,0.758-0.234,0.948-0.322l0.044-0.021
			l0.294-0.084c0.32-0.092,0.658-0.206,1.011-0.366c0.351-0.161,0.708-0.355,1.063-0.565c0.715-0.425,1.423-0.947,2.116-1.498
			c1.389-1.106,2.716-2.38,3.997-3.704c1.281-1.325,2.514-2.722,3.711-4.146c0.598-0.715,1.186-1.438,1.763-2.17
			c0.574-0.729,1.152-1.479,1.68-2.199L250.326,855.441z"/>
	</g>
</g>
</svg>
