<?xml version="1.0" encoding="utf-8"?>
<!-- Generator: Adobe Illustrator 16.0.0, SVG Export Plug-In . SVG Version: 6.00 Build 0)  -->
<!DOCTYPE svg PUBLIC "-//W3C//DTD SVG 1.1//EN" "http://www.w3.org/Graphics/SVG/1.1/DTD/svg11.dtd">
<svg version="1.1" id="Layer_2" xmlns="http://www.w3.org/2000/svg" xmlns:xlink="http://www.w3.org/1999/xlink" x="0px" y="0px"
	 width="500px" height="900px" viewBox="0 0 500 900" enable-background="new 0 0 500 900" xml:space="preserve">
<g>
	<path fill="none" stroke="#1E120D" stroke-width="5" stroke-miterlimit="10" d="M199.595,264.81c0,0,14.002-24.83,0-61.282
		c0,0-10.947-38.831,3.111-79.511c0,0,8.774-28.528,21.719-25.624c0,0,7.13,0.527,6.075,15.584c0,0-4.755,26.151,11.887,50.718
		c0,0,11.095,14.792,11.095,22.188c0,0,6.604-19.546,10.565-25.886c0,0,7.661-20.075,3.436-40.942c0,0-5.021-16.113,2.642-20.34
		c0,0,9.511-6.076,18.755,15.32c0,0,17.169,29.058,16.904,68.416c0,0-0.793,38.565-6.075,50.453c0,0-7.396,10.831,2.379,33.02
		c0,0,11.095,24.829,10.829,35.132c0,0,1.849,10.038-8.188,16.643c0,0-10.566,9.509-11.888,11.094c0,0-9.774,7.924-24.831,0
		c0,0-18.754-8.981-22.717-11.888c0,0-11.095,4.492-14.265,7.397c0,0-10.832,2.641-16.113,0.527c0,0-23.772-17.697-25.095-34.604
		C189.821,291.225,188.502,276.432,199.595,264.81z"/>
	<path fill="none" stroke="#1E120D" stroke-width="5" stroke-miterlimit="10" d="M204.35,254.11c0,0,11.361-11.624,29.454-10.17
		c0,0,17.269,0.773,31.185,5.629c0.173,0.061,0.345,0.121,0.515,0.183c14,5.02,28.396,5.02,31.17,2.377"/>
	<path fill="none" stroke="#1E120D" stroke-width="5" stroke-miterlimit="10" d="M230.202,116.244c0,0,4.987-8.056,7.167-21.153
		c0,0-0.396-11.293,10.697-11.293c0,0,11.096-1.23,13.671,16.225c0,0,0.565,5.005,4.146,8.952"/>
	<g>
		<path fill="#1E120D" d="M221.718,323.517c0.789-0.596,1.583-1.161,2.384-1.709c0.79-0.571,1.605-1.08,2.4-1.625
			c1.596-1.078,3.203-2.107,4.79-3.135l1.183-0.773c0.396-0.253,0.79-0.508,1.171-0.774c0.784-0.51,1.541-1.03,2.285-1.559
			c0.379-0.255,0.722-0.53,1.084-0.792c0.375-0.258,0.673-0.545,1.006-0.806c0.355-0.265,0.602-0.531,0.865-0.788l0.2-0.192
			c0.054-0.061,0.071-0.108,0.109-0.161c0.067-0.102,0.143-0.195,0.229-0.283l1.833-1.854l1.681,1.123
			c1.917,1.28,3.87,2.577,5.781,3.905c0.966,0.649,1.914,1.331,2.867,2.004c0.958,0.662,1.901,1.346,2.847,2.034l2.828,2.067
			l1.401,1.064l1.409,1.043c0.943,0.688,1.858,1.456,2.806,2.153c0.939,0.711,1.891,1.427,2.819,2.224
			c-1.181-0.236-2.341-0.555-3.511-0.875c-1.166-0.332-2.271-0.773-3.396-1.194c-1.129-0.417-2.227-0.893-3.306-1.395
			c-1.08-0.501-2.17-0.999-3.22-1.552c-2.107-1.098-4.188-2.245-6.201-3.495c-1.021-0.602-2.004-1.264-3-1.904
			c-1.001-0.644-1.955-1.327-2.945-2.014l3.515-0.73c-0.211,0.287-0.435,0.568-0.666,0.84c-0.114,0.132-0.234,0.283-0.346,0.394
			l-0.329,0.294c-0.439,0.392-0.885,0.788-1.316,1.075c-0.432,0.313-0.878,0.63-1.314,0.883c-0.439,0.262-0.876,0.544-1.315,0.784
			c-0.886,0.478-1.771,0.938-2.666,1.351c-0.897,0.416-1.795,0.805-2.707,1.167c-0.908,0.363-1.824,0.704-2.746,1.019
			c-0.923,0.316-1.849,0.616-2.791,0.876c-0.941,0.259-1.872,0.538-2.832,0.744C223.656,323.174,222.696,323.375,221.718,323.517z"
			/>
	</g>
	<g>
		<path fill="#1E120D" d="M239.293,312.358c0,0,0.104-1.163,0.262-2.906c0.175-1.74,0.409-4.05,0.735-6.358
			c0.142-1.151,0.332-2.307,0.513-3.382c0.155-1.072,0.397-2.08,0.576-2.93c0.094-0.425,0.163-0.813,0.287-1.156
			c0.107-0.338,0.202-0.633,0.279-0.876c0.153-0.478,0.241-0.751,0.241-0.751s-0.011,0.289-0.031,0.795
			c-0.009,0.249-0.021,0.552-0.032,0.898c-0.028,0.339,0.01,0.737,0.033,1.165c0.058,0.858,0.09,1.842,0.229,2.911
			c0.113,1.063,0.235,2.192,0.406,3.326c0.299,2.259,0.688,4.515,0.98,6.198c0.31,1.679,0.517,2.797,0.517,2.797L239.293,312.358z"
			/>
	</g>
</g>
<g>
	<g>
		<path fill="#1E120D" d="M28.342,276.37c0.026-0.001,0.025-0.021,0.532-0.095c0.522-0.081,0.929-0.067,1.576-0.055
			c1.212,0.067,2.813,0.438,4.629,1.2c0.838,0.449,1.852,0.876,2.756,1.522c0.468,0.31,0.955,0.632,1.461,0.966
			c0.463,0.369,0.941,0.751,1.438,1.146c1.98,1.585,3.917,3.593,5.902,5.856c0.975,1.146,1.885,2.398,2.882,3.664
			c0.962,1.285,1.849,2.67,2.817,4.064c0.979,1.388,1.792,2.912,2.726,4.417c0.941,1.503,1.778,3.094,2.642,4.706
			c1.803,3.19,3.345,6.624,5.009,10.067c1.531,3.455,3.086,6.964,4.641,10.475c1.56,3.49,3.158,6.965,4.754,10.372
			c1.608,3.402,3.162,6.766,4.74,9.981c1.575,3.217,3.062,6.349,4.569,9.263c1.466,2.939,2.91,5.683,4.256,8.213
			c1.389,2.496,2.609,4.834,3.838,6.803c0.598,0.996,1.143,1.942,1.676,2.797c0.559,0.837,1.07,1.605,1.532,2.3
			c0.886,1.43,1.763,2.401,2.296,3.131c0.555,0.713,0.85,1.094,0.85,1.094s-0.351-0.327-1.008-0.942
			c-0.644-0.628-1.688-1.486-2.759-2.792c-0.558-0.639-1.175-1.345-1.848-2.114c-0.642-0.793-1.302-1.674-2.026-2.604
			c-0.734-0.927-1.477-1.938-2.22-3.028c-0.751-1.085-1.563-2.216-2.372-3.418c-1.565-2.434-3.292-5.06-4.979-7.911
			c-0.863-1.417-1.719-2.888-2.583-4.397c-0.872-1.506-1.768-3.043-2.619-4.635c-1.736-3.168-3.515-6.45-5.241-9.825
			c-1.728-3.375-3.458-6.813-5.15-10.272c-1.702-3.427-3.351-6.997-4.916-10.335c-1.7-3.318-3.294-6.63-5.056-9.691
			c-0.854-1.549-1.682-3.08-2.597-4.501c-0.905-1.426-1.719-2.884-2.638-4.191c-0.915-1.312-1.758-2.632-2.656-3.828
			c-0.925-1.167-1.777-2.345-2.667-3.39c-1.777-2.086-3.49-3.912-5.146-5.271c-0.413-0.341-0.813-0.671-1.197-0.99
			c-0.401-0.272-0.79-0.536-1.163-0.789c-0.733-0.553-1.457-0.834-2.083-1.204c-1.271-0.559-2.255-0.821-2.843-0.875
			c-0.25-0.012-0.537-0.021-0.474-0.023c0.044-0.034-0.188,0.018-0.163,0.012L28.342,276.37z"/>
	</g>
	<path fill="none" stroke="#1E120D" stroke-width="5" stroke-miterlimit="10" d="M81.515,357.358c0,0,13.56-16.74,21.087-35.363
		c0,0,9.905-25.358,11.094-36.849c0,0,3.171-23.774,16.246-24.566c0,0,14.661,0.396,17.038,32.095c0,0,12.681,78.851-4.357,134.322
		c0,0,10.697,18.228,11.094,28.926c0,0,2.773,17.831-1.98,24.962c0,0-11.095,23.378-24.962,29.32c0,0-9.51,5.943-23.378-1.98
		c0,0-9.904-5.943-29.718-11.094c0,0-8.716,9.032-22.981,15.215c0,0-14.66,6.975-21.792-2.141c0,0-11.507-22.585-18.622-35.265
		c0,0-11.491-16.245-0.794-44.377c0,0-3.169-80.436,0-101.831c0,0,2.774-47.152,19.416-49.925"/>
	<path fill="none" stroke="#1E120D" stroke-width="5" stroke-miterlimit="10" d="M10.546,430.826c0,0,6.869-2.906,15.585-2.906
		s32.491,13.472,44.378,13.472s39.479-6.718,56.264-12.15c0,0,9.507-3.17,15.849-2.246"/>
	<g>
		<path fill="#1E120D" d="M43.564,509.808c2.63-1.196,5.196-2.449,7.708-3.758l1.86-1.017c0.617-0.337,1.234-0.673,1.836-1.029
			c1.215-0.697,2.385-1.457,3.53-2.225c2.288-1.533,4.424-3.234,6.161-5.132c0.417-0.481,0.827-0.968,1.182-1.47
			c0.193-0.245,0.361-0.498,0.513-0.757c0.16-0.256,0.327-0.509,0.446-0.772c0.285-0.518,0.483-1.051,0.671-1.575
			c0.068-0.268,0.16-0.528,0.219-0.795l0.132-0.798l0.623-3.743l3.224,2.069c0.65,0.418,1.5,0.906,2.296,1.327
			c0.791,0.461,1.656,0.811,2.486,1.214c0.835,0.395,1.714,0.695,2.567,1.051c0.848,0.384,1.759,0.563,2.633,0.868
			c0.441,0.136,0.879,0.292,1.324,0.413l1.353,0.289l1.353,0.297c0.45,0.111,0.901,0.214,1.36,0.244l2.747,0.319l0.636,0.079
			l0.833,0.05c0.531,0.041,1.055,0.099,1.574,0.163c1.04,0.131,2.063,0.33,3.082,0.551c1.016,0.233,2.021,0.499,3.01,0.839
			c0.996,0.296,1.963,0.716,2.914,1.137l1.406,0.693c0.465,0.231,0.906,0.526,1.356,0.788c0.917,0.491,1.726,1.192,2.546,1.816
			c0.75,0.74,1.561,1.383,2.188,2.224c0.315,0.412,0.659,0.796,0.94,1.225l0.789,1.319c0.284,0.419,0.462,0.902,0.646,1.375
			c0.188,0.47,0.368,0.936,0.537,1.398l-0.924-1.171c-0.292-0.392-0.593-0.77-0.955-1.101l-1.017-1.021
			c-0.35-0.323-0.754-0.594-1.122-0.889c-0.698-0.631-1.563-1.061-2.334-1.57l-1.264-0.615c-0.406-0.223-0.835-0.404-1.274-0.568
			c-0.437-0.165-0.854-0.361-1.301-0.5l-1.335-0.412c-0.441-0.142-0.908-0.221-1.357-0.336c-0.446-0.124-0.901-0.222-1.362-0.3
			c-0.911-0.188-1.839-0.305-2.761-0.429c-0.926-0.104-1.854-0.173-2.777-0.212c-0.462-0.021-0.921-0.032-1.374-0.029l-0.646,0.014
			c-0.367,0.008-0.552-0.018-0.837-0.023l-3.143-0.169c-0.529-0.01-1.045-0.093-1.561-0.186l-1.547-0.273l-1.548-0.28
			c-0.509-0.117-1.008-0.272-1.513-0.409l-1.507-0.438c-0.507-0.135-1-0.304-1.484-0.502c-0.967-0.394-1.968-0.706-2.906-1.171
			c-0.938-0.465-1.896-0.873-2.807-1.411c-0.942-0.509-1.79-1.025-2.77-1.714l3.846-1.673l-0.265,1.308
			c-0.109,0.427-0.26,0.84-0.394,1.258c-0.307,0.813-0.684,1.595-1.125,2.309c-0.205,0.374-0.448,0.707-0.688,1.044
			c-0.233,0.344-0.48,0.671-0.746,0.975c-0.506,0.642-1.077,1.196-1.642,1.752c-2.301,2.156-4.885,3.769-7.54,5.089
			c-1.324,0.674-2.689,1.233-4.055,1.766c-1.365,0.534-2.744,1.014-4.146,1.413c-1.396,0.409-2.797,0.787-4.219,1.079
			C46.431,509.398,45.003,509.651,43.564,509.808z"/>
	</g>
</g>
<g>
	<g>
		<path fill="#1E120D" d="M489.784,329.143c0,0-0.11,0.343-0.318,0.987c-0.203,0.628-0.492,1.573-0.854,2.789
			c-0.719,2.427-1.711,5.917-2.761,10.149c-0.541,2.112-1.08,4.413-1.626,6.853c-0.581,2.434-1.059,5.027-1.628,7.698
			c-0.489,2.685-1.032,5.455-1.486,8.286c-0.429,2.834-0.938,5.708-1.271,8.603c-0.186,1.446-0.37,2.893-0.555,4.333
			c-0.18,1.441-0.29,2.884-0.437,4.313c-0.139,1.43-0.275,2.848-0.411,4.249c-0.087,1.405-0.173,2.792-0.258,4.157
			c-0.084,1.366-0.168,2.71-0.249,4.024c-0.031,1.316-0.063,2.605-0.092,3.859c-0.06,2.509-0.144,4.885-0.059,7.075
			c0.043,2.192,0.082,4.204,0.117,5.984c0.121,1.778,0.226,3.329,0.313,4.606c0.174,2.557,0.272,4.019,0.272,4.019
			s-0.178-1.455-0.487-3.999c-0.154-1.272-0.343-2.819-0.559-4.594c-0.13-1.783-0.277-3.794-0.438-5.988
			c-0.203-2.194-0.246-4.578-0.321-7.102c-0.037-1.262-0.076-2.559-0.115-3.884c0.012-1.326,0.022-2.681,0.034-4.058
			c0.013-1.378,0.023-2.779,0.036-4.197c0.062-1.417,0.123-2.852,0.186-4.296c0.07-1.446,0.104-2.907,0.207-4.368
			c0.108-1.461,0.217-2.929,0.326-4.396c0.18-2.939,0.538-5.859,0.818-8.747c0.307-2.882,0.704-5.708,1.055-8.447
			c0.43-2.728,0.774-5.378,1.229-7.871c0.422-2.499,0.843-4.858,1.276-7.029c0.835-4.348,1.654-7.951,2.258-10.475
			c0.304-1.26,0.551-2.255,0.733-2.942c0.178-0.673,0.271-1.032,0.271-1.032L489.784,329.143z"/>
	</g>
	<path fill="none" stroke="#1E120D" stroke-width="5" stroke-miterlimit="10" d="M403.618,360.862c0,0,4.339,7.171,15.696-11.056
		c11.357-18.228,33.813-66.039,50.718-59.699c0,0,5.17,0.889,5.67,5.775"/>
	<path fill="none" stroke="#1E120D" stroke-width="5" stroke-miterlimit="10" d="M488.291,325.892c0,0-6.109,84.668,0.759,111.347
		c0,0,11.889,14.264,6.077,35.659c0,0-10.038,28.002-22.98,44.115c-12.944,16.111-22.785,4.953-30.711,0
		c0,0-20.009-10.303-22.584-12.086c0,0-26.943,14.662-29.916,15.256c-2.971,0.594-11.689,8.121-20.604-2.973
		c-8.916-11.095-28.727-20.207-19.612-58.246c0,0,3.456-14.515,4.367-17.688c1.37-4.766,2.515-12.695-0.341-22.528
		c0,0-13.734-47.284-11.093-70.793c2.643-23.509,16.643-75.02,36.718-74.227c0,0,8.188-3.171,10.566,33.019
		c0,0,2.379,44.115,21.661,63.134c0,0,5.81,7.397,12.94-1.585c7.134-8.981,39.097-80.039,63.662-74.756c0,0,12.416,1.849,0,35.396"
		/>
	<path fill="none" stroke="#1E120D" stroke-width="5" stroke-miterlimit="10" d="M353.869,442.323c0,0,13.866-8.716,28.926-8.915
		c15.057-0.197,36.649,7.331,53.887,8.915c17.234,1.585,27.588,2.377,45.096-3.368c0,0,5.789-2.358,9.072,0.901"/>
	<g>
		<path fill="#1E120D" d="M388.407,508.298c0,0,0.159-0.777,0.733-2.041c0.285-0.634,0.671-1.396,1.239-2.207
			c0.56-0.82,1.274-1.729,2.326-2.547c1.033-0.808,2.472-1.572,4.253-1.68c0.24-0.024,0.411-0.032,0.567-0.037l0.5-0.015
			c0.335-0.011,0.673-0.021,1.016-0.031c0.674-0.02,1.36-0.039,2.061-0.059c1.386-0.044,2.799-0.113,4.22-0.203
			c1.416-0.115,2.846-0.227,4.233-0.454c0.699-0.095,1.393-0.201,2.063-0.355c0.687-0.125,1.336-0.301,1.989-0.469
			c0.659-0.158,1.253-0.414,1.887-0.591c0.585-0.249,1.18-0.483,1.737-0.745c1.085-0.564,2.114-1.169,2.95-1.914
			c0.215-0.184,0.427-0.364,0.635-0.545l0.158-0.135c0.125-0.149,0.041-0.047,0.072-0.083l0.011-0.011l0.021-0.021l0.043-0.04
			l0.086-0.081l0.302-0.28c0.402-0.386,0.811-0.796,1.176-1.194c0.387-0.389,0.726-0.787,1.056-1.166
			c0.348-0.369,0.635-0.746,0.917-1.098c0.589-0.693,1.026-1.348,1.429-1.884c0.731-1.133,1.15-1.778,1.15-1.778
			s-0.013,0.193-0.037,0.56c-0.049,0.358-0.048,0.921-0.192,1.599c-0.16,0.666-0.306,1.521-0.65,2.428
			c-0.307,0.929-0.741,1.94-1.302,3.01c-0.273,0.544-0.595,1.07-0.952,1.647l-0.288,0.436l-0.066,0.097l-0.033,0.05l-0.019,0.023
			l-0.008,0.012c0.023-0.027-0.065,0.081,0.052-0.062l-0.158,0.217c-0.218,0.29-0.438,0.585-0.659,0.885
			c-0.909,1.194-2.117,2.242-3.453,3.159c-0.669,0.452-1.396,0.821-2.125,1.211c-0.745,0.314-1.501,0.69-2.284,0.924
			c-0.781,0.248-1.568,0.528-2.371,0.681c-0.8,0.197-1.604,0.344-2.407,0.462c-1.61,0.23-3.215,0.34-4.781,0.349
			c-1.565,0.012-3.095-0.071-4.553-0.218c-0.725-0.078-1.444-0.147-2.126-0.252c-0.655-0.095-1.299-0.188-1.924-0.276
			c-0.842-0.148-1.794,0.025-2.689,0.395c-0.897,0.364-1.741,0.875-2.449,1.396c-0.7,0.532-1.333,1.025-1.817,1.476
			c-0.482,0.449-0.885,0.804-1.136,1.063C388.547,508.159,388.407,508.298,388.407,508.298z"/>
	</g>
	<g>
		<path fill="#1E120D" d="M425.328,494.636c0,0,0.001,0.033,0.004,0.1c0.009-0.07-0.005-0.404-0.162-0.666
			c-0.1-0.244-0.22-0.188-0.004-0.034c0.056,0.152,0.545,0.371,0.928,0.636c0.493,0.23,1.108,0.482,1.783,0.753
			c0.733,0.221,1.528,0.458,2.37,0.71c0.888,0.191,1.82,0.396,2.787,0.604c0.959,0.218,2.034,0.379,3.085,0.579
			c1.06,0.192,2.146,0.384,3.246,0.624c1.095,0.217,2.22,0.535,3.305,0.922c1.089,0.434,2.116,1.018,2.978,1.729
			c0.826,0.745,1.529,1.529,2.065,2.337c0.572,0.785,1.009,1.576,1.416,2.297c0.795,1.451,1.375,2.688,1.779,3.557
			c0.401,0.867,0.631,1.363,0.631,1.363s-0.298-0.458-0.817-1.259c-0.523-0.798-1.274-1.94-2.248-3.237
			c-0.494-0.639-1.025-1.341-1.659-1.988c-0.604-0.679-1.334-1.272-2.107-1.797c-0.801-0.483-1.687-0.828-2.64-1.06
			c-0.979-0.192-1.989-0.334-3.06-0.391c-1.056-0.075-2.138-0.11-3.21-0.149c-1.08-0.048-2.111-0.053-3.175-0.134
			c-1.057-0.075-2.076-0.147-3.046-0.217c-0.987-0.146-1.923-0.285-2.784-0.415c-0.889-0.205-1.703-0.408-2.45-0.643
			c-0.791-0.35-1.418-0.515-2.076-1.016c-0.597-0.36-1.156-0.938-1.536-1.599c-0.251-0.499-0.347-1.013-0.374-1.208
			c-0.012-0.064-0.018-0.1-0.018-0.1L425.328,494.636z"/>
	</g>
	<g>
		<path fill="#1E120D" d="M411.074,503.811c-1.679,0.537-3.41,1.175-5.094,1.84c-1.689,0.67-3.359,1.392-5.002,2.16
			c-0.813,0.397-1.633,0.787-2.428,1.214c-0.81,0.408-1.58,0.863-2.366,1.305c-0.761,0.47-1.536,0.927-2.261,1.438
			c-0.766,0.493-1.403,1.02-2.162,1.591c-0.354,0.282-0.745,0.58-1.154,0.882c-0.403,0.288-0.801,0.569-1.218,0.836
			c-0.826,0.535-1.688,1.028-2.593,1.454c-1.801,0.853-3.803,1.437-5.861,1.443c-2.059,0.029-4.089-0.612-5.769-1.655
			c-1.693-1.042-3.071-2.437-4.249-3.929l0.058,0.058c-2.688-2.479-5.456-4.88-8.192-7.32c2.947,2.178,5.929,4.314,8.846,6.548
			l0.013,0.009l0.046,0.049c1.251,1.316,2.656,2.479,4.223,3.253c1.562,0.773,3.268,1.128,4.936,0.95
			c1.669-0.163,3.281-0.79,4.767-1.668c0.744-0.438,1.459-0.94,2.148-1.482c0.345-0.269,0.683-0.558,1.013-0.843
			c0.315-0.281,0.642-0.577,0.986-0.909c0.676-0.611,1.424-1.332,2.179-1.915c0.748-0.629,1.531-1.188,2.312-1.766
			c0.793-0.543,1.582-1.104,2.396-1.606c0.805-0.524,1.629-1.009,2.45-1.502c1.654-0.957,3.334-1.86,5.04-2.715
			c1.714-0.854,3.416-1.656,5.227-2.414L411.074,503.811z"/>
	</g>
</g>
<g>
	<path fill="none" stroke="#1E120D" stroke-width="5" stroke-miterlimit="10" d="M240.471,676.427
		c1.849-17.17-3.359-18.49-3.359-18.49c-14.527-4.227-23.242,25.624-23.242,25.624s-8.721,19.546-9.248,59.434
		c-0.526,39.889,8.188,47.021-6.074,87.438c-14.265,40.414-12.154,39.885-5.284,50.188c6.868,10.302,15.586,22.453,34.605,12.943
		c0,0,20.072-10.303,26.679-10.566c0,0,14.001,5.021,16.906,6.869c0,0,10.565,4.756,16.904,4.49c0,0,19.021-10.565,19.548-22.454
		c0.527-11.887,0.792-20.073-5.547-35.131c0,0-7.396-18.756-3.171-38.303c4.229-19.547,13.209-52.832,6.605-102.491
		c0,0-5.022-36.98-17.965-35.396c0,0-8.188,0-10.036,14c0,0-0.264,12.416-5.283,19.282"/>
	<path fill="none" stroke="#1E120D" stroke-width="5" stroke-miterlimit="10" d="M204.889,808.279c0,0,1.054-7.701,49.395-2.682
		c0,0,34.921-2.88,43.61,4.768"/>
	<g>
		<path fill="#1E120D" d="M214.659,775.484c0.356-3.006,0.744-6.01,1.156-9.011c0.429-2.998,0.885-5.992,1.354-8.984
			c0.452-2.996,1.006-5.974,1.505-8.963l1.64-8.942l1.815-8.912l1.948-8.891l2.159-8.847l2.346-8.812
			c0.797-2.934,1.699-5.844,2.578-8.758c0.424-1.461,0.914-2.904,1.41-4.348l1.475-4.333l0.742-2.166l0.83-2.142l1.66-4.282
			c0.286-0.711,0.535-1.435,0.852-2.137l0.952-2.104l1.921-4.204c0.165-0.349,0.314-0.702,0.492-1.046l0.565-1.021l1.134-2.04
			l1.137-2.039c0.384-0.677,0.752-1.384,1.123-1.977c1.55-2.636,3.261-5.291,5.185-7.789c1.934-2.499,4.071-4.912,6.731-6.969
			c1.332-1.022,2.81-1.952,4.502-2.622c1.692-0.655,3.642-1.023,5.608-0.828l-0.724,0.032c0.438-0.072,0.583-0.05,0.798-0.051
			c0.222,0,0.382,0.028,0.558,0.058c0.362,0.049,0.673,0.144,0.964,0.257l0.442,0.172l0.377,0.213
			c0.24,0.147,0.518,0.295,0.714,0.463c0.844,0.666,1.441,1.414,1.927,2.154l0.643,1.117c0.184,0.371,0.32,0.738,0.48,1.109
			c0.343,0.745,0.521,1.471,0.746,2.203c0.244,0.734,0.356,1.451,0.513,2.175l0.22,1.083l0.146,1.072l0.272,2.143l0.146,2.122
			c0.127,1.42,0.116,2.817,0.147,4.221c0.05,1.408-0.013,2.796-0.044,4.189l-0.064,2.088l-0.142,2.074l-0.144,2.073l-0.072,1.036
			l-0.044,0.589l-0.059,0.51c-0.286,2.614-0.463,5.345-0.626,8.027c-0.129,2.699-0.244,5.401-0.274,8.108
			c-0.079,2.705-0.014,5.412-0.04,8.121c0.082,2.705,0.103,5.417,0.251,8.121c0.181,2.701,0.247,5.417,0.537,8.109
			c0.267,2.696,0.422,5.408,0.8,8.092c0.34,2.689,0.611,5.394,1.104,8.061c0.459,2.672,0.829,5.366,1.43,8.012l0.825,3.989
			l0.418,1.995l0.517,1.969l1.034,3.943c0.342,1.315,0.655,2.644,1.102,3.928c0.848,2.582,1.609,5.204,2.53,7.769l2.942,7.646
			l-3.607-7.378c-1.131-2.496-2.071-5.072-3.118-7.613c-0.542-1.266-0.962-2.571-1.39-3.876l-1.282-3.917l-0.643-1.961l-0.543-1.987
			l-1.076-3.981c-0.783-2.645-1.263-5.354-1.861-8.039c-0.625-2.686-1.028-5.405-1.502-8.118c-0.506-2.71-0.816-5.445-1.165-8.178
			c-0.387-2.729-0.549-5.479-0.824-8.221c-0.243-2.743-0.358-5.496-0.534-8.247c-0.073-2.755-0.229-5.509-0.191-8.267
			c-0.026-2.758,0.035-5.517,0.11-8.275c0.112-2.771,0.229-5.499,0.479-8.321l0.048-0.51l0.021-0.436l0.049-1.008l0.099-2.017
			l0.097-2.017l0.025-2.009c0.021-1.337,0.073-2.68,0.017-4.004c-0.039-1.326-0.037-2.663-0.166-3.965l-0.147-1.965l-0.26-1.921
			l-0.134-0.956l-0.197-0.924c-0.136-0.609-0.236-1.248-0.437-1.807c-0.181-0.572-0.329-1.179-0.574-1.671
			c-0.113-0.254-0.213-0.53-0.332-0.771l-0.386-0.654c-0.262-0.398-0.545-0.711-0.771-0.897c-0.059-0.06-0.104-0.05-0.147-0.089
			c-0.021-0.015-0.043-0.031-0.063-0.05c-0.016,0.003-0.026,0.002-0.038-0.002c-0.026-0.017-0.041-0.024-0.021-0.013
			c0.008-0.001,0-0.011,0.052-0.001c0.044-0.002,0.018,0.01,0.286-0.034l-0.726,0.031c-1.05-0.088-2.153,0.103-3.274,0.538
			c-1.117,0.459-2.234,1.136-3.307,1.943c-2.146,1.629-4.092,3.754-5.864,6.021c-1.782,2.285-3.376,4.712-4.908,7.277
			c-0.436,0.688-0.766,1.324-1.133,1.961l-1.082,1.917l-1.085,1.917l-0.543,0.958c-0.17,0.327-0.317,0.67-0.479,1.004l-1.905,4.023
			l-0.96,2.009c-0.318,0.671-0.577,1.375-0.869,2.062l-1.704,4.144l-0.853,2.072l-0.771,2.11l-1.533,4.229
			c-0.519,1.406-1.029,2.815-1.478,4.252c-0.907,2.864-1.923,5.693-2.802,8.571l-2.616,8.646l-2.448,8.704l-2.348,8.741l-2.22,8.779
			l-2.152,8.803l-2.055,8.831c-0.684,2.944-1.353,5.895-1.994,8.851C215.924,769.564,215.276,772.52,214.659,775.484z"/>
	</g>
	<g>
		<path fill="#1E120D" d="M194.848,860.806c-0.091,1.868,0.015,3.718,0.243,5.529c0.259,1.807,0.611,3.583,1.199,5.263
			c0.287,0.84,0.624,1.655,0.994,2.444c0.371,0.787,0.785,1.55,1.264,2.263c0.225,0.365,0.492,0.7,0.738,1.046
			c0.273,0.326,0.522,0.669,0.817,0.973c0.281,0.315,0.571,0.62,0.871,0.914c0.288,0.307,0.62,0.567,0.923,0.854l0.018,0.016
			l0.167,0.185c0.328,0.361,0.75,0.794,1.146,1.181c0.408,0.393,0.822,0.78,1.249,1.154c0.849,0.754,1.74,1.453,2.642,2.126
			c1.807,1.336,3.725,2.479,5.705,3.332c1.985,0.829,4.032,1.372,6.057,1.426c0.506,0.012,1.008,0.008,1.507-0.034
			c0.5-0.032,0.996-0.107,1.486-0.199c0.491-0.101,0.978-0.214,1.455-0.378c0.487-0.122,0.942-0.364,1.422-0.525l0.304-0.111
			c0.926-0.271,1.917-0.588,2.875-0.904l2.889-0.989c1.927-0.662,3.829-1.393,5.725-2.13c3.782-1.496,7.497-3.143,11.042-5.039
			c1.771-0.948,3.46-2.021,5.077-3.159c1.607-1.146,3.104-2.437,4.307-3.926c0.605-0.738,1.13-1.533,1.524-2.389
			c0.186-0.429,0.357-0.869,0.468-1.325c0.124-0.544,0.273-0.997,0.403-1.51c0.266-0.998,0.512-2.004,0.725-3.015
			c0.223-1.012,0.425-2.023,0.467-3.067c0.244,1.025,0.25,2.094,0.272,3.146c0,1.055-0.054,2.104-0.116,3.154l-0.116,1.561
			c-0.042,0.57-0.157,1.133-0.297,1.688c-0.301,1.104-0.768,2.15-1.328,3.126c-0.563,0.979-1.246,1.861-1.962,2.701
			c-0.72,0.838-1.49,1.621-2.289,2.364c-1.594,1.494-3.351,2.759-5.126,3.961c-3.562,2.401-7.356,4.351-11.22,6.081
			c-1.932,0.872-3.898,1.648-5.873,2.404c-0.987,0.381-1.987,0.725-2.988,1.069c-1.01,0.344-1.992,0.669-3.055,0.992l0.304-0.111
			c-0.644,0.247-1.27,0.535-1.943,0.714c-0.658,0.216-1.336,0.371-2.02,0.502c-0.684,0.122-1.376,0.219-2.069,0.258l-1.041,0.046
			l-1.037-0.035c-0.686-0.05-1.376-0.109-2.045-0.235c-0.677-0.104-1.334-0.269-1.989-0.436c-0.645-0.193-1.293-0.379-1.908-0.631
			c-0.627-0.229-1.227-0.509-1.823-0.784c-0.592-0.287-1.171-0.591-1.734-0.915c-0.561-0.327-1.119-0.658-1.646-1.026
			c-1.068-0.72-2.083-1.497-3.05-2.318c-0.969-0.82-1.867-1.71-2.733-2.624c-0.433-0.457-0.852-0.929-1.263-1.406
			c-0.416-0.491-0.794-0.95-1.219-1.519l0.183,0.198c-0.342-0.38-0.708-0.735-1.024-1.138c-0.331-0.388-0.645-0.789-0.927-1.213
			c-0.302-0.408-0.55-0.854-0.819-1.278c-0.24-0.445-0.497-0.878-0.706-1.336c-0.877-1.804-1.488-3.706-1.796-5.634
			c-0.324-1.923-0.427-3.854-0.293-5.757C193.98,864.475,194.28,862.595,194.848,860.806z"/>
	</g>
	<g>
		<path fill="#1E120D" d="M261.414,860.806c-0.209,1.563-0.355,3.124-0.455,4.672c-0.077,1.55-0.123,3.089-0.032,4.595
			c0.104,1.499,0.292,2.979,0.717,4.282c0.11,0.322,0.232,0.631,0.37,0.922c0.064,0.115,0.165,0.339,0.195,0.364
			c0.1,0.158,0.208,0.355,0.299,0.481c0.082,0.086,0.15,0.172,0.226,0.262l0.283,0.277c0.21,0.165,0.354,0.284,0.731,0.536
			c0.666,0.485,1.226,0.796,1.855,1.177c0.646,0.375,1.294,0.747,1.966,1.099c0.66,0.362,1.352,0.692,2.024,1.04
			c0.684,0.34,1.366,0.679,2.062,1.002c1.389,0.646,2.777,1.3,4.188,1.915c1.405,0.606,2.831,1.241,4.221,1.807l0.439,0.241
			c-0.021-0.018,0.121,0.069,0.202,0.108l0.305,0.148c0.212,0.096,0.433,0.187,0.658,0.265c0.446,0.166,0.913,0.283,1.376,0.358
			c0.93,0.15,1.854,0.115,2.749-0.103c1.796-0.412,3.486-1.639,4.953-3.262l0.214-0.235l0.196-0.144
			c0.404-0.29,0.985-0.793,1.465-1.239c0.502-0.463,0.987-0.953,1.456-1.465c0.927-1.027,1.793-2.123,2.567-3.28
			c1.549-2.319,2.746-4.884,3.521-7.607c0.184-0.684,0.366-1.371,0.512-2.071l0.406-2.188c0.121-0.718,0.224-1.445,0.303-2.175
			c0.094-0.729,0.173-1.464,0.219-2.197c0.054-0.735,0.081-1.475,0.074-2.21c0.004-0.738-0.008-1.479-0.064-2.217
			c-0.047-0.742-0.163-1.473-0.277-2.214l-0.238-1.101l-0.326-1.091l0.624,0.969l0.531,1.032c0.327,0.705,0.593,1.438,0.82,2.186
			c0.226,0.746,0.434,1.505,0.573,2.272c0.15,0.767,0.269,1.54,0.354,2.315c0.188,1.555,0.269,3.116,0.223,4.689l-0.089,2.322
			c-0.052,0.8-0.121,1.604-0.246,2.399c-0.255,1.594-0.637,3.178-1.182,4.709c-0.531,1.537-1.205,3.029-2.015,4.447
			c-0.796,1.426-1.724,2.778-2.766,4.045c-0.521,0.635-1.066,1.249-1.646,1.844c-0.607,0.605-1.146,1.123-1.947,1.748l0.411-0.378
			c-0.918,1.088-1.969,2.131-3.22,2.994c-1.238,0.871-2.682,1.568-4.234,1.951c-1.554,0.391-3.201,0.412-4.754,0.145
			c-0.778-0.136-1.538-0.34-2.271-0.617c-0.366-0.137-0.724-0.301-1.08-0.477c-0.179-0.089-0.354-0.183-0.534-0.285
			c-0.194-0.111-0.324-0.187-0.607-0.378l0.439,0.241c-1.484-0.665-2.904-1.328-4.327-2.052c-1.419-0.716-2.832-1.45-4.22-2.243
			c-1.392-0.781-2.77-1.604-4.117-2.501c-0.677-0.441-1.347-0.908-2.008-1.392c-0.657-0.503-1.396-1.066-1.939-1.572
			c-0.255-0.212-0.693-0.611-1.035-1.002l-0.46-0.628c-0.146-0.233-0.282-0.48-0.414-0.723c-0.104-0.212-0.159-0.369-0.241-0.558
			l-0.027-0.067l-0.04-0.088l-0.009-0.021l-0.014-0.042l-0.057-0.166l-0.111-0.332c-0.133-0.443-0.234-0.883-0.313-1.319
			c-0.301-1.745-0.242-3.419-0.032-5.039c0.205-1.619,0.533-3.19,0.989-4.721C260.228,863.744,260.76,862.247,261.414,860.806z"/>
	</g>
</g>
<g>
	<path fill="none" stroke="#1E120D" stroke-width="5" stroke-miterlimit="10" d="M195.181,471.213c0,0-25.622-66.833,44.378-86.379
		c69.999-19.546,80.039,5.81,68.679,58.642c0,0,12.436,87.436-56.651,77.928C251.585,521.402,189.106,543.591,195.181,471.213z"/>
	<g>
		<path fill="#1E120D" d="M203.897,468.832c1.202-0.025,2.396-0.042,3.589-0.093c1.193-0.034,2.382-0.084,3.564-0.167
			c0.593-0.028,1.18-0.094,1.766-0.138c0.585-0.054,1.176-0.081,1.745-0.177l0.859-0.122c0.283-0.045,0.578-0.067,0.849-0.132
			l1.605-0.389l0.063-0.016l0.212-0.019c0.735-0.061,1.542-0.16,2.313-0.271c0.78-0.114,1.557-0.247,2.331-0.396
			c0.772-0.147,1.543-0.315,2.308-0.495l2.283-0.565c3.027-0.8,5.943-1.91,8.681-3.257c0.676-0.353,1.356-0.694,2.001-1.088
			c0.659-0.373,1.282-0.793,1.913-1.196c0.608-0.435,1.223-0.859,1.79-1.335c0.592-0.448,1.117-0.966,1.66-1.458
			c0.522-0.514,1.038-1.03,1.503-1.589c0.492-0.536,0.905-1.133,1.333-1.713c0.396-0.604,0.802-1.198,1.138-1.836
			c0.381-0.612,0.641-1.289,0.961-1.933l1.682-3.355l2.526,2.758l0.389,0.424l0.459,0.458c0.312,0.303,0.641,0.593,0.974,0.87
			c0.664,0.56,1.362,1.06,2.076,1.479c0.36,0.188,0.718,0.397,1.082,0.539c0.36,0.178,0.724,0.271,1.082,0.396l0.534,0.123
			c0.179,0.059,0.351,0.049,0.524,0.078c0.354,0.071,0.686,0.019,1.028,0.038l0.617,0.02c0.295,0.045,0.774,0.097,1.186,0.122
			c0.431,0.029,0.862,0.045,1.3,0.044c0.873,0.008,1.75-0.031,2.622-0.112c0.869-0.096,1.736-0.219,2.585-0.415
			c0.433-0.074,0.847-0.201,1.266-0.316c0.42-0.112,0.841-0.225,1.24-0.389c0.4-0.156,0.819-0.283,1.212-0.463l1.168-0.558
			c0.396-0.175,0.747-0.427,1.126-0.636c0.375-0.216,0.754-0.429,1.088-0.704l1.046-0.775c0.329-0.283,0.636-0.593,0.958-0.887
			c0.677-0.562,1.183-1.291,1.771-1.95c0.285-0.337,0.712-0.884,1.076-1.237c0.383-0.378,0.773-0.74,1.18-1.076
			c0.805-0.683,1.658-1.283,2.546-1.823c0.889-0.537,1.814-0.998,2.758-1.406l1.442-0.531l1.477-0.404
			c0.484-0.153,0.996-0.2,1.489-0.302c0.497-0.093,0.991-0.182,1.496-0.207l1.497-0.111l1.494,0.035
			c0.991-0.014,1.974,0.172,2.942,0.286c0.967,0.166,1.917,0.415,2.855,0.64c-0.979,0.014-1.938-0.048-2.896-0.008
			c-0.959,0.104-1.91,0.063-2.845,0.256l-1.396,0.218l-1.362,0.336c-0.457,0.09-0.897,0.241-1.335,0.394
			c-0.436,0.159-0.885,0.265-1.3,0.471l-1.256,0.554l-1.2,0.65c-0.782,0.456-1.539,0.949-2.247,1.499
			c-0.704,0.552-1.369,1.147-1.97,1.792c-0.304,0.318-0.584,0.649-0.853,0.984c-0.28,0.367-0.435,0.592-0.734,1.022
			c-0.62,0.842-1.167,1.75-1.915,2.505c-0.356,0.39-0.703,0.795-1.076,1.172l-1.193,1.061c-0.39,0.369-0.826,0.674-1.265,0.979
			c-0.441,0.296-0.856,0.646-1.329,0.896l-1.401,0.774c-0.474,0.248-0.971,0.439-1.456,0.66c-0.484,0.229-0.986,0.398-1.49,0.567
			c-0.502,0.173-1.005,0.354-1.521,0.468c-1.023,0.281-2.063,0.478-3.105,0.636c-1.046,0.138-2.096,0.246-3.154,0.259
			c-0.527,0.016-1.06,0.01-1.595-0.014c-0.553-0.025-1.036-0.054-1.696-0.14l0.616,0.02l-0.985,0.042
			c-0.332,0.022-0.651-0.013-0.975-0.041c-0.319-0.037-0.652-0.044-0.956-0.12l-0.929-0.198c-0.588-0.183-1.191-0.356-1.734-0.607
			c-0.565-0.225-1.079-0.508-1.603-0.782c-1.014-0.583-1.945-1.244-2.814-1.962c-0.436-0.359-0.848-0.737-1.25-1.133l-0.595-0.604
			c-0.204-0.22-0.373-0.4-0.614-0.688l4.208-0.599c-0.398,0.805-0.742,1.637-1.217,2.399c-0.428,0.791-0.935,1.532-1.454,2.263
			c-0.545,0.708-1.083,1.429-1.698,2.071c-0.591,0.67-1.23,1.283-1.88,1.886c-0.667,0.577-1.335,1.159-2.051,1.663
			c-0.699,0.533-1.434,1.002-2.165,1.475c-0.747,0.44-1.491,0.89-2.266,1.266c-0.764,0.403-1.551,0.745-2.332,1.093
			c-3.15,1.34-6.433,2.202-9.72,2.805c-1.645,0.305-3.304,0.493-4.964,0.614c-0.83,0.062-1.661,0.105-2.493,0.13
			c-0.84,0.021-1.647,0.031-2.529,0.001l0.275-0.032l-1.927,0.176c-0.317,0.024-0.623,0.004-0.933,0.008l-0.926-0.007
			c-0.619,0.011-1.223-0.05-1.83-0.085c-0.606-0.036-1.212-0.073-1.812-0.156c-1.202-0.131-2.395-0.292-3.583-0.475
			C206.252,469.302,205.068,469.1,203.897,468.832z"/>
	</g>
	<g>
		<path fill="#1E120D" d="M221.929,468.785c0,0,0.041,0.229,0.117,0.655c0.087,0.438,0.216,1.082,0.38,1.9
			c0.35,1.644,0.896,3.996,1.666,6.796c1.541,5.592,4.023,12.979,7.499,19.929c0.855,1.742,1.794,3.441,2.751,5.097
			c0.501,0.814,0.998,1.621,1.489,2.419c0.524,0.774,1.019,1.562,1.551,2.3c1.054,1.484,2.129,2.884,3.215,4.155
			c1.08,1.278,2.177,2.421,3.217,3.45c0.537,0.497,1.051,0.976,1.541,1.428c0.504,0.438,1.001,0.829,1.46,1.211
			c0.91,0.774,1.795,1.324,2.48,1.845c1.443,0.925,2.29,1.434,2.29,1.434s-0.879-0.438-2.403-1.251
			c-0.725-0.464-1.665-0.949-2.642-1.655c-0.492-0.347-1.027-0.703-1.573-1.104c-0.532-0.42-1.091-0.861-1.675-1.322
			c-1.138-0.958-2.347-2.031-3.549-3.246c-1.209-1.208-2.421-2.547-3.618-3.979c-0.604-0.713-1.172-1.474-1.773-2.226
			c-0.567-0.775-1.142-1.562-1.722-2.354c-1.112-1.615-2.213-3.281-3.232-4.996c-4.129-6.838-7.279-14.213-9.326-19.847
			c-1.021-2.821-1.781-5.209-2.284-6.899c-0.242-0.853-0.433-1.521-0.563-1.979c-0.124-0.474-0.189-0.726-0.189-0.726
			L221.929,468.785z"/>
	</g>
	<g>
		<path fill="#1E120D" d="M199.406,453.514c-0.525-1.058-0.887-2.203-1.112-3.383c-0.061-0.295-0.087-0.596-0.133-0.896
			c-0.047-0.3-0.045-0.604-0.065-0.908c-0.025-0.305,0.004-0.609,0.015-0.917c0.004-0.308,0.033-0.613,0.088-0.918
			c0.055-0.304,0.069-0.617,0.163-0.915l0.241-0.905l0.346-0.876c0.104-0.301,0.267-0.57,0.42-0.848
			c0.161-0.271,0.292-0.567,0.483-0.817l0.574-0.76c0.182-0.266,0.416-0.477,0.635-0.704l0.67-0.678l-0.202,0.229
			c0.178-0.281,0.321-0.425,0.468-0.597c0.146-0.178,0.3-0.335,0.457-0.465c0.313-0.267,0.614-0.592,0.95-0.804
			c0.656-0.477,1.322-0.95,2.023-1.309l1.042-0.584c0.351-0.188,0.713-0.328,1.072-0.488c0.722-0.298,1.437-0.654,2.172-0.903
			c1.474-0.471,2.939-1.064,4.441-1.399l2.247-0.582l2.131-0.575c0.361-0.1,0.738-0.19,1.087-0.295l0.938-0.364l0.938-0.357
			l0.937-0.462c0.312-0.156,0.628-0.298,0.932-0.466l0.891-0.545c0.605-0.339,1.162-0.764,1.722-1.177
			c2.226-1.676,4.169-3.733,5.885-6.021c0.869-1.133,1.661-2.344,2.452-3.586l1.196-1.914c0.219-0.338,0.41-0.656,0.654-1.012
			l0.37-0.534l0.094-0.133l0.217-0.258l0.188-0.212c0.246-0.244,0.65-0.594,0.875-0.729c0.244-0.16,0.499-0.325,0.73-0.434
			c0.479-0.252,0.933-0.436,1.371-0.579c0.881-0.292,1.708-0.479,2.516-0.632c1.609-0.298,3.147-0.476,4.658-0.65
			c3.009-0.345,5.946-0.649,8.613-1.324c1.319-0.344,2.563-0.78,3.56-1.34l0.353-0.221l0.089-0.055
			c-0.05,0.036,0.052-0.037,0.069-0.051l0.23-0.166c0.297-0.217,0.634-0.446,0.897-0.653l0.797-0.623l0.824-0.687l3.416-2.984
			c1.213-1.027,2.567-2.058,4.09-2.887c3.026-1.709,6.616-2.297,9.683-2.403c3.289-0.142,6.402,0.104,9.541,0.67
			c3.114,0.585,6.179,1.516,9.104,2.928c1.457,0.723,2.876,1.599,4.173,2.722l0.477,0.438l0.118,0.109l0.06,0.056l0.131,0.13
			l0.183,0.217c0.246,0.303,0.479,0.549,0.734,0.897l0.759,1.121c0.231,0.371,0.401,0.731,0.604,1.099
			c0.747,1.467,1.301,2.984,1.692,4.523c0.436,1.531,0.655,3.099,0.806,4.657c0.273,3.12,0.119,6.254-0.521,9.272
			c-0.605,3.024-1.675,5.928-3.119,8.59c1.015-2.854,1.614-5.813,1.857-8.769c0.213-2.957,0.105-5.922-0.469-8.783
			c-0.591-2.834-1.443-5.655-2.917-7.994c-0.188-0.28-0.365-0.593-0.556-0.846l-0.563-0.717c-0.207-0.249-0.516-0.53-0.768-0.795
			l-0.199-0.201c0.139,0.143,0.023,0.029,0.049,0.056l-0.024-0.02l-0.048-0.037l-0.097-0.073l-0.383-0.301
			c-1.036-0.792-2.241-1.456-3.523-1.999c-2.583-1.063-5.395-1.749-8.237-2.113c-2.819-0.414-5.771-0.523-8.51-0.308
			c-2.943,0.2-5.435,0.829-7.7,2.081c-2.246,1.239-4.245,3.309-6.631,5.393l-0.907,0.771l-0.979,0.782
			c-0.328,0.261-0.614,0.458-0.924,0.69l-0.228,0.168l-0.158,0.114l-0.15,0.099l-0.603,0.388c-1.624,0.952-3.271,1.487-4.875,1.877
			c-3.205,0.764-6.304,1.024-9.291,1.338c-1.49,0.153-2.955,0.312-4.318,0.546c-0.676,0.12-1.325,0.266-1.879,0.442
			c-0.28,0.085-0.534,0.178-0.724,0.271c-0.115,0.044-0.175,0.092-0.25,0.13c-0.1,0.059,0.03-0.024-0.019-0.036l-0.194,0.206
			l-0.05,0.051l-0.023,0.025c-0.036,0.041,0.219-0.263,0.103-0.123l-0.071,0.098l-0.289,0.386c-0.194,0.259-0.404,0.582-0.606,0.869
			l-1.271,1.884c-0.875,1.274-1.785,2.563-2.798,3.792c-0.986,1.244-2.091,2.417-3.239,3.546c-1.194,1.09-2.446,2.125-3.812,3.017
			c-0.682,0.444-1.358,0.895-2.093,1.257l-1.079,0.573c-0.367,0.176-0.749,0.322-1.123,0.484l-1.126,0.473l-1.204,0.382
			l-1.204,0.369l-1.115,0.233l-1.111,0.221l-1.173,0.211l-2.18,0.379c-1.474,0.204-2.856,0.647-4.293,0.977
			c-0.713,0.177-1.377,0.451-2.071,0.67c-0.341,0.123-0.698,0.219-1.029,0.354l-0.983,0.426c-0.68,0.261-1.283,0.608-1.892,0.957
			c-0.326,0.159-0.559,0.382-0.844,0.571c-0.147,0.097-0.269,0.198-0.372,0.304l-0.277,0.255l-0.202,0.229l-0.627,0.518
			c-0.208,0.175-0.435,0.335-0.605,0.544l-0.559,0.594c-0.194,0.193-0.328,0.431-0.498,0.645c-0.162,0.22-0.335,0.435-0.453,0.682
			l-0.397,0.723l-0.311,0.77c-0.119,0.253-0.164,0.531-0.249,0.798c-0.085,0.269-0.146,0.542-0.185,0.822
			c-0.044,0.277-0.109,0.557-0.12,0.841c-0.017,0.283-0.066,0.568-0.064,0.854c0,0.285-0.019,0.574-0.003,0.862
			C198.867,451.225,199.045,452.392,199.406,453.514z"/>
	</g>
	<g>
		<path fill="#1E120D" d="M235.534,491.552c0,0,1.467,0.899,4.056,2.396c2.59,1.488,6.313,3.566,10.867,5.764
			c2.28,1.089,4.787,2.169,7.452,3.176c2.668,0.995,5.54,1.835,8.478,2.316c1.466,0.206,2.957,0.384,4.403,0.31
			c0.369,0.013,0.717-0.058,1.075-0.08c0.361-0.021,0.711-0.076,1.054-0.151c0.344-0.067,0.698-0.106,1.021-0.222l0.497-0.142
			l0.249-0.068l0.031-0.009c0.043-0.015-0.267,0.099-0.118,0.043l0.072-0.03l0.146-0.061c0.775-0.326,1.554-0.652,2.333-0.98
			l1.886-1.09l0.471-0.267l0.47-0.348l0.941-0.691l0.942-0.691l0.873-0.799c0.571-0.547,1.21-1.013,1.735-1.614l1.617-1.755
			c0.537-0.586,0.983-1.257,1.489-1.871c0.495-0.624,0.994-1.244,1.408-1.929c0.438-0.666,0.872-1.33,1.307-1.991
			c0.424-0.668,0.779-1.377,1.172-2.059c0.813-1.348,1.421-2.786,2.088-4.174c0.349-0.686,0.629-1.396,0.891-2.106
			c0.27-0.709,0.543-1.408,0.823-2.1c0.535-1.39,0.914-2.804,1.367-4.155c0.732-2.751,1.392-5.386,1.796-7.865
			c0.108-0.618,0.237-1.223,0.324-1.818c0.07-0.598,0.141-1.183,0.207-1.752c0.14-1.142,0.313-2.227,0.4-3.252
			c0.092-2.051,0.301-3.854,0.329-5.344c0.025-2.977,0.096-4.708,0.096-4.708s0.362,1.67,0.897,4.648
			c0.244,1.491,0.394,3.319,0.591,5.43c0.07,1.055,0.063,2.18,0.098,3.37c0.007,0.596,0.014,1.207,0.021,1.833
			c-0.017,0.625-0.073,1.262-0.11,1.915c-0.042,0.653-0.085,1.321-0.129,2.003c-0.034,0.684-0.088,1.378-0.2,2.076
			c-0.21,1.4-0.386,2.861-0.69,4.342c-0.353,1.469-0.63,3.005-1.072,4.536c-0.236,0.763-0.476,1.532-0.716,2.312
			c-0.237,0.781-0.493,1.564-0.822,2.33c-0.616,1.548-1.224,3.133-2.045,4.652c-0.396,0.765-0.756,1.556-1.19,2.313
			c-0.46,0.745-0.924,1.494-1.388,2.246c-0.44,0.767-0.979,1.479-1.517,2.197c-0.544,0.712-1.043,1.459-1.648,2.134l-1.829,2.02
			c-0.597,0.686-1.329,1.259-1.994,1.889l-1.028,0.916l-1.124,0.816l-1.128,0.813l-0.563,0.402l-0.64,0.362
			c-0.85,0.474-1.729,0.971-2.567,1.376c-0.788,0.309-1.573,0.614-2.356,0.919l-0.146,0.059l-0.072,0.027l-0.192,0.068l-0.045,0.013
			l-0.359,0.095l-0.717,0.185c-0.478,0.138-0.954,0.197-1.432,0.267c-0.479,0.077-0.952,0.13-1.42,0.142
			c-0.469,0.014-0.942,0.069-1.398,0.04c-1.854,0.009-3.605-0.275-5.285-0.63c-3.355-0.729-6.358-1.947-9.094-3.233
			c-2.745-1.272-5.196-2.705-7.394-4.103c-4.401-2.786-7.765-5.499-10.054-7.456C236.731,492.793,235.534,491.552,235.534,491.552z"
			/>
	</g>
	<g>
		<path fill="#1E120D" d="M200.726,479.644c0.091,0.916,0.234,1.815,0.36,2.707c0.133,0.892,0.307,1.773,0.465,2.648
			c0.159,0.875,0.371,1.739,0.574,2.598c0.2,0.856,0.434,1.704,0.667,2.544c0.248,0.837,0.501,1.667,0.778,2.485
			c0.289,0.813,0.568,1.627,0.896,2.419c0.313,0.796,0.659,1.575,1.015,2.346c0.361,0.769,0.748,1.52,1.142,2.265
			c0.418,0.731,0.827,1.466,1.283,2.168c0.428,0.722,0.936,1.386,1.403,2.074c0.514,0.657,0.994,1.339,1.556,1.956
			c0.528,0.644,1.1,1.248,1.671,1.855c0.282,0.306,0.6,0.577,0.897,0.869c0.299,0.29,0.589,0.593,0.913,0.857
			c0.624,0.558,1.265,1.095,1.932,1.607c0.644,0.544,1.352,1.005,2.038,1.499c0.688,0.497,1.426,0.924,2.14,1.394l-0.292-0.125
			c0.229,0.103,0.567,0.224,0.865,0.33c0.313,0.101,0.623,0.214,0.943,0.302c0.636,0.187,1.278,0.378,1.928,0.52
			c0.325,0.071,0.651,0.15,0.979,0.205c0.326,0.058,0.655,0.136,0.982,0.177c0.658,0.096,1.316,0.171,1.979,0.208
			c0.336,0.042,0.656,0.006,0.991,0.021c0.335,0.016,0.667,0.011,0.993-0.026c0.324-0.036,0.672-0.028,0.99-0.103l0.982-0.188
			c0.323-0.081,0.637-0.191,0.966-0.288c0.34-0.081,0.629-0.25,0.942-0.397c0.307-0.155,0.651-0.274,0.926-0.493l0.903-0.601
			c-0.189,0.306-0.393,0.613-0.604,0.922c-0.196,0.328-0.464,0.586-0.729,0.855c-0.271,0.264-0.533,0.556-0.854,0.761
			c-0.31,0.222-0.62,0.463-0.947,0.674l-1.036,0.527c-0.349,0.185-0.718,0.282-1.081,0.429c-0.366,0.146-0.738,0.257-1.114,0.347
			c-0.375,0.092-0.758,0.204-1.139,0.252l-1.149,0.178l-1.153,0.085c-0.768,0.031-1.541,0.046-2.305-0.009
			c-0.768-0.04-1.531-0.106-2.29-0.228c-0.381-0.05-0.759-0.128-1.141-0.194c-0.392-0.081-0.742-0.148-1.189-0.271l-0.097-0.026
			l-0.196-0.099c-0.849-0.43-1.723-0.818-2.558-1.289c-0.828-0.483-1.665-0.955-2.452-1.513c-0.815-0.518-1.567-1.124-2.323-1.729
			c-0.761-0.597-1.464-1.269-2.163-1.938c-0.672-0.699-1.366-1.381-1.969-2.144c-0.639-0.731-1.192-1.531-1.772-2.307
			c-0.528-0.813-1.062-1.622-1.521-2.474c-0.497-0.829-0.895-1.711-1.302-2.582l-0.563-1.325c-0.174-0.447-0.326-0.902-0.488-1.353
			c-0.305-0.906-0.598-1.814-0.811-2.744c-0.463-1.844-0.771-3.716-0.916-5.59c-0.16-1.872-0.134-3.749,0.023-5.602
			c0.063-0.926,0.201-1.848,0.366-2.758C200.219,481.427,200.436,480.52,200.726,479.644z"/>
	</g>
	<g>
		<path fill="#1E120D" d="M263.579,454.71c0,0,0.221-0.124,0.457-0.279c0.239-0.138,0.708-0.479,1.251-0.878
			c0.547-0.432,1.214-0.955,1.938-1.635c0.375-0.321,0.758-0.688,1.144-1.096c0.388-0.404,0.819-0.807,1.229-1.271
			c0.809-0.938,1.714-1.937,2.546-3.104c0.9-1.117,1.689-2.416,2.557-3.731c0.442-0.653,0.787-1.381,1.195-2.085
			c0.381-0.72,0.829-1.417,1.169-2.18c0.354-0.757,0.707-1.52,1.063-2.286l0.537-1.153l0.455-1.192
			c0.588-1.597,1.271-3.171,1.706-4.802c0.458-1.62,1.038-3.19,1.342-4.774c0.348-1.572,0.722-3.091,1.013-4.545
			c0.229-1.466,0.446-2.853,0.647-4.132c0.1-0.643,0.193-1.257,0.284-1.842c0.054-0.589,0.104-1.147,0.151-1.673
			c0.095-1.053,0.178-1.97,0.246-2.726c0.137-1.514,0.215-2.379,0.215-2.379s0,0.868,0,2.387c0,0.762-0.001,1.686-0.001,2.745
			c0,0.531,0,1.096,0,1.692c-0.038,0.594-0.077,1.219-0.119,1.87c-0.086,1.307-0.179,2.723-0.276,4.22
			c-0.16,1.492-0.398,3.062-0.609,4.691c-0.164,1.641-0.607,3.287-0.928,4.991c-0.297,1.712-0.85,3.39-1.312,5.099l-0.36,1.278
			l-0.447,1.249c-0.3,0.833-0.6,1.661-0.896,2.484c-0.286,0.829-0.686,1.605-1.02,2.399c-0.363,0.781-0.663,1.583-1.067,2.318
			c-0.791,1.482-1.516,2.945-2.375,4.241c-0.786,1.34-1.672,2.523-2.47,3.632c-0.404,0.553-0.843,1.046-1.234,1.534
			c-0.389,0.491-0.78,0.941-1.174,1.349c-0.749,0.839-1.472,1.524-2.071,2.09c-0.634,0.561-1.095,0.97-1.527,1.287
			c-0.373,0.276-0.572,0.425-0.572,0.425L263.579,454.71z"/>
	</g>
	<g>
		<path fill="#1E120D" d="M225.55,465.797c0,0,0.092-0.068,0.265-0.196c0.123-0.078,0.381-0.311,0.697-0.579
			c0.302-0.306,0.697-0.649,1.096-1.123c0.428-0.443,0.843-1.01,1.317-1.62c0.227-0.313,0.436-0.659,0.669-1.008
			c0.242-0.345,0.465-0.719,0.667-1.12c0.209-0.396,0.444-0.799,0.654-1.225c0.188-0.438,0.383-0.887,0.58-1.342
			c0.216-0.449,0.371-0.933,0.526-1.424c0.16-0.492,0.322-0.99,0.486-1.493c0.206-1.034,0.529-2.079,0.658-3.161
			c0.109-1.081,0.348-2.165,0.333-3.25c0.019-0.543,0.037-1.083,0.055-1.615c0.009-0.269,0.017-0.534,0.026-0.798
			c-0.017-0.265-0.031-0.525-0.046-0.785c-0.067-1.039-0.104-2.053-0.189-3.011c-0.14-0.954-0.272-1.856-0.395-2.688
			c-0.063-0.418-0.123-0.819-0.182-1.201c-0.087-0.375-0.17-0.73-0.248-1.064c-0.156-0.671-0.292-1.256-0.404-1.738
			c-0.226-0.968-0.354-1.521-0.354-1.521s0.203,0.528,0.559,1.454c0.179,0.466,0.396,1.029,0.644,1.678
			c0.125,0.324,0.257,0.671,0.396,1.034c0.111,0.374,0.228,0.768,0.349,1.178c0.241,0.826,0.501,1.721,0.775,2.667
			c0.224,0.96,0.404,1.989,0.621,3.052c0.054,0.267,0.105,0.535,0.159,0.806c0.029,0.274,0.06,0.551,0.089,0.829
			c0.06,0.559,0.118,1.124,0.178,1.693c0.169,1.142,0.086,2.314,0.125,3.495c0.02,1.18-0.164,2.354-0.24,3.527
			c-0.104,0.579-0.204,1.154-0.306,1.724c-0.099,0.569-0.199,1.136-0.368,1.677c-0.152,0.547-0.302,1.085-0.448,1.611
			c-0.171,0.52-0.373,1.02-0.553,1.513c-0.174,0.497-0.372,0.969-0.597,1.413c-0.216,0.448-0.409,0.891-0.627,1.301
			c-0.459,0.81-0.872,1.562-1.318,2.188c-0.411,0.646-0.854,1.171-1.193,1.616c-0.38,0.436-0.658,0.768-0.939,1.033
			c-0.227,0.223-0.347,0.34-0.347,0.34L225.55,465.797z"/>
	</g>
	<g>
		<path fill="#1E120D" d="M270.205,455.44c0,0,0.058,0.151,0.165,0.435c0.113,0.302,0.271,0.73,0.454,1.261
			c0.375,1.067,0.872,2.593,1.404,4.435c0.535,1.841,1.096,4.002,1.607,6.333c0.267,1.162,0.477,2.38,0.724,3.604
			c0.189,1.239,0.422,2.485,0.577,3.748c0.14,1.264,0.338,2.513,0.408,3.763c0.095,1.245,0.209,2.464,0.218,3.653
			c0.033,1.187,0.082,2.328,0.025,3.416c-0.049,1.086-0.02,2.106-0.137,3.05c-0.087,0.938-0.167,1.8-0.236,2.563
			c-0.101,0.759-0.229,1.416-0.313,1.957c-0.18,1.079-0.282,1.696-0.282,1.696s0.025-0.625,0.068-1.718
			c0.016-0.546,0.061-1.206,0.065-1.964c-0.025-0.758-0.055-1.611-0.084-2.543c0-0.931-0.156-1.936-0.242-2.992
			c-0.076-1.061-0.266-2.169-0.441-3.313c-0.15-1.146-0.412-2.317-0.654-3.507c-0.218-1.19-0.563-2.383-0.85-3.577
			c-0.301-1.192-0.678-2.369-1.007-3.53c-0.387-1.149-0.732-2.286-1.129-3.369c-0.771-2.17-1.563-4.164-2.292-5.849
			c-0.727-1.685-1.376-3.063-1.848-4.007c-0.235-0.479-0.42-0.837-0.545-1.07c-0.133-0.251-0.202-0.384-0.202-0.384L270.205,455.44z
			"/>
	</g>
	<g>
		<path fill="#1E120D" d="M224.233,480.874c0,0-0.186,0.255-0.512,0.699c-0.313,0.438-0.769,1.057-1.3,1.835
			c-0.543,0.77-1.15,1.683-1.792,2.668c-0.665,0.979-1.291,2.06-1.958,3.13c-0.342,0.534-0.625,1.088-0.934,1.625
			c-0.302,0.543-0.599,1.076-0.887,1.594c-0.529,1.048-0.991,2.047-1.407,2.904c-0.199,0.432-0.321,0.843-0.464,1.201
			c-0.133,0.362-0.25,0.679-0.346,0.939c-0.193,0.525-0.303,0.827-0.303,0.827s0.034-0.316,0.093-0.869
			c0.03-0.279,0.066-0.618,0.108-1.007c0.05-0.389,0.072-0.841,0.162-1.313c0.197-0.938,0.408-2.054,0.677-3.241
			c0.156-0.585,0.318-1.188,0.483-1.804c0.171-0.612,0.321-1.251,0.526-1.861c0.395-1.227,0.758-2.481,1.174-3.619
			c0.396-1.148,0.776-2.221,1.127-3.129c0.336-0.91,0.648-1.678,0.862-2.215c0.213-0.522,0.335-0.822,0.335-0.822L224.233,480.874z"
			/>
	</g>
	<g>
		<path fill="#1E120D" d="M248.156,451.608c0,0-0.534-13.938-1.069-27.878c-0.134-3.484-0.269-6.969-0.394-10.236
			c-0.063-1.633-0.124-3.212-0.181-4.71c-0.014-0.374-0.028-0.743-0.042-1.106l-0.021-0.542c-0.021-0.251,0.021-0.454,0.039-0.651
			c0.104-0.773,0.271-1.471,0.456-2.136c0.771-2.642,1.876-4.593,2.698-5.897c0.425-0.646,0.764-1.145,1.018-1.472
			c0.242-0.33,0.373-0.506,0.373-0.506s-0.095,0.197-0.27,0.568c-0.183,0.365-0.419,0.918-0.705,1.621
			c-0.546,1.409-1.221,3.492-1.44,5.996c-0.049,0.622-0.071,1.275-0.031,1.91c0.068,0.664,0.14,1.35,0.212,2.055
			c0.152,1.491,0.312,3.063,0.478,4.689c0.331,3.252,0.686,6.722,1.039,10.191c1.414,13.877,2.829,27.754,2.829,27.754
			L248.156,451.608z"/>
	</g>
	<g>
		<path fill="#1E120D" d="M245.063,407.49c0,0,0.001-0.047,0.005-0.136c0.003-0.076,0.02-0.16,0.018-0.324
			c0.005-0.307,0.003-0.764-0.034-1.313c-0.031-0.551-0.104-1.188-0.215-1.87c-0.073-0.327-0.122-0.693-0.224-1.031
			c-0.091-0.345-0.184-0.703-0.315-1.034c-0.111-0.353-0.265-0.668-0.421-0.988c-0.143-0.34-0.357-0.586-0.534-0.889
			c-0.204-0.261-0.426-0.498-0.643-0.732c-0.243-0.18-0.478-0.38-0.713-0.535c-0.258-0.123-0.493-0.236-0.703-0.336
			c-0.219-0.102-0.427-0.112-0.595-0.162c-0.348-0.078-0.546-0.123-0.546-0.123s0.201-0.033,0.553-0.093
			c0.179-0.018,0.404-0.089,0.66-0.077c0.265,0.016,0.563,0.032,0.887,0.053c0.319,0.062,0.662,0.169,1.044,0.273
			c0.346,0.153,0.726,0.328,1.099,0.542c0.333,0.244,0.744,0.476,1.057,0.782c0.336,0.294,0.68,0.606,0.969,0.948
			c0.317,0.333,0.588,0.687,0.855,1.042c0.28,0.353,0.494,0.719,0.736,1.071c0.438,0.712,0.817,1.4,1.106,2.006
			c0.296,0.604,0.515,1.123,0.662,1.5c0.075,0.178,0.133,0.365,0.172,0.473c0.035,0.095,0.055,0.146,0.055,0.146L245.063,407.49z"/>
	</g>
</g>
</svg>
