<?xml version="1.0" encoding="utf-8"?>
<!-- Generator: Adobe Illustrator 16.0.0, SVG Export Plug-In . SVG Version: 6.00 Build 0)  -->
<!DOCTYPE svg PUBLIC "-//W3C//DTD SVG 1.1//EN" "http://www.w3.org/Graphics/SVG/1.1/DTD/svg11.dtd">
<svg version="1.1" id="Layer_3" xmlns="http://www.w3.org/2000/svg" xmlns:xlink="http://www.w3.org/1999/xlink" x="0px" y="0px"
	 width="500px" height="900px" viewBox="0 0 500 900" enable-background="new 0 0 500 900" xml:space="preserve">
<g>
	<path fill="none" stroke="#1E120D" stroke-width="5" stroke-miterlimit="10" d="M10.919,486.8c0,0-11.415-39.949,9.51-105.104
		c20.928-65.154,21.402-79.898,41.376-82.752c0,0,3.923-0.773,11.949,0c0,0,9.63-3.687,13.197-6.896c0,0,4.637-4.458,10.344-4.279
		c0,0,18.905-5.707,28.714,39.948s12.364,80.853,7.847,107.009c0,0,2.854,15.454,4.28,24.492c0,0,4.041,15.692,0,25.682
		c-4.043,9.986-13.317,34.004-22.828,35.432c0,0-5.944,0.949-14.031-2.379c0,0-3.566-2.617-16.171-4.994
		c0,0-11.891-0.477-14.268-5.707c0,0-14.031,4.521-22.829,7.611c0,0-10.7,6.42-18.548-2.854
		C29.463,512.009,16.368,502.969,10.919,486.8z"/>
	<g>
		<path fill="#1E120D" d="M40.404,510.818c0.079-0.669,0.271-1.332,0.552-1.965c0.276-0.639,0.641-1.261,1.122-1.832
			c0.49-0.559,1.096-1.071,1.816-1.457c0.728-0.379,1.559-0.607,2.404-0.672l0.576-0.029l0.488-0.011l1.087,0.039l1.921,0.122
			c0.612,0.041,1.22,0.081,1.811,0.092c0.593,0.025,1.173,0.035,1.75,0.018c0.575-0.017,1.146-0.023,1.708-0.087
			c0.566-0.029,1.121-0.134,1.681-0.189c0.554-0.108,1.107-0.205,1.659-0.323c0.546-0.153,1.104-0.25,1.645-0.441
			c0.543-0.181,1.102-0.311,1.634-0.548c0.539-0.213,1.101-0.372,1.628-0.64c0.533-0.251,1.096-0.442,1.625-0.725l1.625-0.798
			l2.967,1.132c-0.019-0.081-0.048-0.161-0.084-0.236c-0.053-0.101-0.017-0.034-0.032-0.059c-0.006-0.006-0.015-0.01-0.024-0.012
			c-0.045-0.021,0.019,0.058,0.034,0.094c0.039,0.089,0.092,0.193,0.211,0.318l0.301,0.369l0.385,0.38l0.391,0.388l0.442,0.373
			c0.297,0.252,0.589,0.511,0.9,0.765l1.931,1.509c0.666,0.493,1.334,1.003,1.99,1.572c-0.854-0.068-1.696-0.196-2.541-0.342
			c-0.429-0.053-0.836-0.177-1.253-0.278c-0.418-0.104-0.83-0.227-1.248-0.34c-0.417-0.124-0.82-0.303-1.236-0.454
			c-0.417-0.144-0.823-0.336-1.235-0.563l-0.621-0.326l-0.627-0.438c-0.204-0.131-0.427-0.327-0.65-0.555
			c-0.115-0.121-0.207-0.183-0.348-0.388l-0.188-0.271c-0.039-0.068-0.039-0.041-0.108-0.191c-0.056-0.122-0.104-0.25-0.142-0.378
			l2.967,1.13l-1.618,1.255c-0.547,0.411-1.147,0.76-1.73,1.133c-0.58,0.378-1.225,0.66-1.844,0.985
			c-0.621,0.323-1.296,0.547-1.952,0.813c-0.652,0.274-1.362,0.409-2.042,0.616c-0.69,0.179-1.402,0.286-2.107,0.398
			c-0.712,0.062-1.424,0.179-2.138,0.158c-0.715,0.019-1.423,0.003-2.127-0.061c-0.701-0.063-1.398-0.15-2.075-0.271
			c-0.681-0.126-1.338-0.275-1.989-0.434l-1.86-0.524l-0.812-0.248l-0.465-0.108l-0.235-0.058l-0.117-0.029
			c0.081,0.002-0.023-0.008-0.026-0.011c-0.434-0.104-0.883-0.138-1.365-0.095c-0.473,0.073-0.983,0.208-1.491,0.452
			C42.308,509.04,41.303,509.836,40.404,510.818z"/>
	</g>
	<path fill="none" stroke="#1E120D" stroke-width="5" stroke-miterlimit="10" d="M9.045,434.064c0,0,13.76-7.426,31.357-7.188
		c17.596,0.237,23.064,5.944,34.717,5.231c11.653-0.713,24.971-4.281,38.762-2.854c0,0,17.121,1.427,19.974,5.469"/>
	<path fill="none" stroke="#1E120D" stroke-width="5" stroke-miterlimit="10" d="M27.562,359.008c0,0-1.899-23.441,0-34.618
		c0,0,2.599-30.115,23.888-21.717"/>
</g>
<g>
	<g>
		<path fill="#1E120D" d="M418.49,319.902c0,0,0.03-0.467,0.082-1.285c0.043-0.833,0.091-2.033,0.107-3.476
			c0.028-2.886-0.071-6.751-0.591-10.564c-0.139-0.95-0.289-1.899-0.481-2.824c-0.192-0.923-0.402-1.831-0.665-2.687
			c-0.247-0.864-0.546-1.676-0.862-2.435c-0.318-0.757-0.684-1.438-1.053-2.055c-0.203-0.295-0.396-0.578-0.582-0.847
			c-0.212-0.25-0.412-0.486-0.601-0.708c-0.413-0.408-0.789-0.763-1.146-0.991c-0.335-0.267-0.646-0.396-0.847-0.508
			c-0.205-0.106-0.314-0.164-0.314-0.164s0.116,0.039,0.335,0.112c0.219,0.077,0.556,0.159,0.937,0.375
			c0.404,0.176,0.845,0.475,1.347,0.834c0.234,0.2,0.483,0.415,0.746,0.64c0.239,0.251,0.491,0.515,0.753,0.79
			c0.49,0.581,0.99,1.241,1.452,1.98c0.46,0.739,0.91,1.544,1.313,2.402c0.42,0.854,0.787,1.761,1.143,2.69
			c0.354,0.93,0.669,1.888,0.97,2.851c1.17,3.861,1.911,7.822,2.358,10.809c0.222,1.493,0.373,2.747,0.468,3.631
			c0.086,0.898,0.135,1.413,0.135,1.413L418.49,319.902z"/>
	</g>
	<path fill="none" stroke="#1E120D" stroke-width="5" stroke-miterlimit="10" d="M420.99,319.895c0,0,0.712,18.904,5.707,31.746
		c4.992,12.84,8.561,5.707,10.699,0s7.134-49.58,28.536-51.007c0,0,8.915-3.211,13.91,20.331c0,0,3.388,17.656-3.923,47.083"/>
	<g>
		<path fill="#1E120D" d="M478.365,368.562c0,0-0.159,0.599-0.438,1.647c-0.272,1.061-0.651,2.583-1.075,4.42
			c-0.843,3.676-1.856,8.612-2.543,13.597c-0.342,2.492-0.598,4.994-0.716,7.345c-0.062,1.176-0.09,2.314-0.068,3.391
			c0.01,1.079,0.067,2.097,0.163,3.032c0.093,0.936,0.225,1.789,0.394,2.534c0.068,0.378,0.173,0.719,0.268,1.037
			c0.088,0.32,0.176,0.613,0.287,0.864c0.103,0.256,0.192,0.484,0.272,0.685c0.103,0.189,0.188,0.35,0.259,0.48
			c0.141,0.263,0.216,0.402,0.216,0.402s-0.093-0.13-0.265-0.373c-0.087-0.123-0.192-0.273-0.318-0.452
			c-0.104-0.189-0.226-0.408-0.359-0.654c-0.146-0.243-0.271-0.527-0.4-0.839c-0.136-0.312-0.284-0.648-0.4-1.022
			c-0.268-0.739-0.509-1.593-0.722-2.535c-0.869-3.774-1.176-8.944-1.102-14.08c0.071-5.14,0.479-10.264,0.874-14.099
			c0.199-1.917,0.394-3.515,0.538-4.635c0.155-1.129,0.244-1.774,0.244-1.774L478.365,368.562z"/>
	</g>
	<path fill="none" stroke="#1E120D" stroke-width="5" stroke-miterlimit="10" d="M480.139,343.322c0,0,7.312,16.878,10.165,41.133
		c0,0,5.705,32.815,4.517,51.125c0,0,2.379,42.327-2.136,55.168c0,0-12.845,28.299-25.21,28.299c-12.363,0-19.736-9.036-29.962-9.75
		c-10.225-0.714-20.447,9.985-34,9.75c-13.556-0.238-34.339-18.291-38.524-39.475c-1.03-5.216,0.595-6.301-2.614-24.493
		c0,0-1.664-13.315,5.112-21.4c0,0,7.49-24.611,7.135-46.37c-0.357-21.758-2.829-24.968,0.01-48.51
		c2.844-23.542,17.467-56.714,39.582-51.362c0,0,7.135,2.14,11.771,13.554c0,0,7.847,14.979,17.834,4.28
		c0,0,10.383-11.223,18.942-4.088"/>
	<path fill="none" stroke="#1E120D" stroke-width="5" stroke-miterlimit="10" d="M367.487,433.678c0,0,29.749-5.707,61.334-6.42
		c31.583-0.713,52.359-1.604,66.628,15.16"/>
	<g>
		<path fill="#1E120D" d="M382.466,498.596c1.539,1.495,3.136,2.917,4.756,4.292c1.63,1.363,3.312,2.651,5.043,3.813
			c1.728,1.149,3.575,2.144,5.39,2.679c0.452,0.116,0.899,0.213,1.326,0.244c0.21,0.01,0.424,0.034,0.618,0.011l0.257-0.016
			l0.398-0.054c0.903-0.141,1.854-0.412,2.813-0.737c3.823-1.324,7.584-3.252,11.038-5.471c1.728-1.108,3.404-2.292,4.88-3.591
			c0.732-0.648,1.419-1.32,1.965-1.997c0.563-0.654,0.893-1.403,0.903-1.627l0.225-4.512l3.715,3.073
			c0.219,0.182,0.544,0.441,0.84,0.659c0.303,0.229,0.613,0.453,0.93,0.674c0.631,0.442,1.287,0.854,1.948,1.256
			c0.67,0.388,1.347,0.762,2.038,1.104c0.34,0.185,0.697,0.326,1.045,0.492s0.7,0.317,1.057,0.457
			c0.356,0.138,0.705,0.304,1.067,0.42l1.081,0.373c0.36,0.119,0.729,0.206,1.093,0.313c0.364,0.108,0.729,0.203,1.101,0.271
			l1.104,0.229l1.111,0.149c0.739,0.133,1.483,0.109,2.227,0.181l0.459,0.044l0.16,0.045c0.729,0.208,1.373,0.415,2.051,0.638
			c0.668,0.222,1.331,0.454,1.992,0.695c1.324,0.479,2.628,1.031,3.927,1.637c0.649,0.296,1.293,0.633,1.938,0.968
			c0.641,0.365,1.281,0.707,1.915,1.136c0.315,0.209,0.634,0.399,0.943,0.649c0.313,0.244,0.624,0.459,0.931,0.731
			c0.306,0.279,0.609,0.552,0.908,0.844l0.866,1.019l-0.553-0.527c0.157,0.111,0.445,0.287,0.685,0.432
			c0.261,0.142,0.514,0.295,0.782,0.424c0.529,0.272,1.076,0.521,1.627,0.729c0.548,0.227,1.108,0.401,1.664,0.543
			c0.278,0.059,0.561,0.154,0.836,0.188l0.833,0.127l0.819,0.038c0.275,0.025,0.531-0.032,0.8-0.038
			c0.271-0.002,0.529-0.042,0.781-0.104c0.249-0.065,0.526-0.063,0.76-0.177l0.733-0.26c0.235-0.108,0.457-0.254,0.689-0.374
			l0.35-0.188l0.314-0.255l0.646-0.499l0.381-0.296l0.017-0.01c0.445-0.25,1.027-0.612,1.531-0.979
			c0.525-0.355,1.025-0.766,1.538-1.158c0.489-0.421,0.989-0.834,1.469-1.273c0.465-0.452,0.973-0.868,1.41-1.353
			c0.438-0.48,0.925-0.928,1.333-1.438c0.414-0.506,0.856-0.994,1.253-1.518l1.162-1.597l1.063-1.671
			c0.378-0.547,0.663-1.145,0.98-1.728c0.304-0.59,0.653-1.163,0.893-1.785l0.793-1.842c0.249-0.621,0.445-1.264,0.673-1.896
			c0.218-0.638,0.464-1.271,0.601-1.933l0.495-1.974c0.202-0.655,0.256-1.335,0.387-2.006l0.353-2.028l0.022,2.063
			c-0.015,0.688,0.048,1.389-0.04,2.074l-0.199,2.072c-0.042,0.698-0.194,1.377-0.32,2.063c-0.142,0.684-0.234,1.383-0.416,2.061
			l-0.595,2.021c-0.175,0.687-0.463,1.328-0.709,1.991c-0.26,0.656-0.488,1.331-0.816,1.959c-0.308,0.638-0.607,1.284-0.943,1.91
			l-1.087,1.838c-0.375,0.605-0.8,1.181-1.199,1.772c-0.395,0.6-0.869,1.136-1.304,1.706c-0.431,0.575-0.938,1.085-1.406,1.633
			c-0.479,0.536-1.013,1.023-1.523,1.532c-0.542,0.481-1.07,0.977-1.647,1.43c-0.576,0.475-1.126,0.886-1.844,1.354l0.396-0.305
			l-0.896,0.82l-0.456,0.405l-0.515,0.345c-0.35,0.222-0.689,0.462-1.055,0.659l-1.145,0.509c-0.378,0.189-0.791,0.248-1.189,0.373
			c-0.4,0.12-0.806,0.214-1.213,0.247c-0.405,0.04-0.82,0.125-1.221,0.116l-1.21,0.002l-1.184-0.115
			c-0.396-0.035-0.77-0.133-1.154-0.198c-0.763-0.154-1.51-0.354-2.227-0.604c-0.727-0.235-1.423-0.529-2.107-0.852
			c-0.346-0.153-0.682-0.336-1.021-0.508c-0.348-0.194-0.646-0.354-1.054-0.617l-0.086-0.057l-0.467-0.473
			c-0.164-0.165-0.32-0.334-0.473-0.508l-0.599-0.513c-0.203-0.173-0.46-0.33-0.686-0.497c-0.222-0.17-0.486-0.322-0.738-0.479
			c-0.493-0.324-1.056-0.605-1.596-0.901c-0.563-0.275-1.123-0.557-1.711-0.809c-1.163-0.517-2.366-0.985-3.589-1.425
			c-0.609-0.219-1.226-0.43-1.843-0.63c-0.609-0.195-1.257-0.397-1.829-0.556l0.619,0.09c-0.916-0.067-1.847-0.054-2.752-0.2
			l-1.361-0.191l-1.338-0.285c-0.449-0.087-0.889-0.203-1.322-0.334c-0.435-0.128-0.876-0.24-1.304-0.385l-1.277-0.45
			c-0.429-0.143-0.834-0.335-1.252-0.502c-0.418-0.168-0.83-0.346-1.229-0.548c-0.399-0.2-0.813-0.378-1.201-0.597
			c-0.793-0.413-1.563-0.86-2.325-1.324c-0.753-0.478-1.497-0.967-2.219-1.495c-0.36-0.266-0.722-0.531-1.073-0.817
			c-0.362-0.29-0.682-0.559-1.089-0.926l3.938-1.438c-0.358,1.896-1.249,3.005-2.054,3.972c-0.836,0.954-1.709,1.754-2.614,2.477
			c-1.813,1.436-3.692,2.643-5.628,3.729c-1.943,1.073-3.932,2.031-5.968,2.885c-2.043,0.838-4.114,1.621-6.318,2.137
			c-1.096,0.259-2.233,0.479-3.456,0.55l-0.4,0.016c-0.246,0.008-0.358-0.008-0.544-0.013c-0.342-0.003-0.657-0.064-0.978-0.113
			c-0.634-0.113-1.22-0.301-1.783-0.51c-2.233-0.877-4.017-2.25-5.698-3.654c-1.678-1.418-3.197-2.972-4.627-4.59
			C385.039,502.043,383.698,500.354,382.466,498.596z"/>
	</g>
</g>
<g>
	<g>
		<path fill="#1E120D" d="M252.376,143.927c-0.354,1.216-0.675,2.435-0.971,3.704c-0.306,1.257-0.563,2.527-0.826,3.801
			c-0.255,1.272-0.472,2.557-0.704,3.838l-0.579,3.867l-0.465,3.887l-0.336,3.904c-0.114,1.302-0.141,2.607-0.215,3.915
			c-0.084,1.307-0.091,2.613-0.095,3.922c0.005,1.308-0.058,2.621,0.021,3.927l0.146,3.929c0.081,1.309,0.217,2.611,0.322,3.919
			l0.169,1.962l0.274,1.949l0.558,3.903l0.779,3.867c0.134,0.644,0.251,1.293,0.398,1.935l0.514,1.906l1.028,3.82l-0.038-0.074
			c0.064,0.099,0.188,0.213,0.294,0.275c0.113,0.076,0.229,0.091,0.348,0.083c0.119-0.02,0.246-0.069,0.363-0.171
			c0.132-0.07,0.222-0.229,0.337-0.342c0.194-0.275,0.375-0.575,0.517-0.901c0.167-0.312,0.268-0.658,0.4-0.99
			c0.122-0.337,0.214-0.687,0.322-1.029c0.108-0.344,0.181-0.699,0.271-1.048c0.187-0.699,0.302-1.415,0.456-2.124
			c-0.105,0.716-0.171,1.44-0.31,2.153c-0.066,0.357-0.114,0.719-0.198,1.072c-0.087,0.354-0.153,0.713-0.256,1.065
			c-0.112,0.349-0.189,0.708-0.342,1.049c-0.124,0.349-0.293,0.687-0.496,1.015c-0.131,0.152-0.213,0.329-0.393,0.458
			c-0.148,0.145-0.355,0.263-0.589,0.313c-0.237,0.044-0.499,0.006-0.699-0.105c-0.208-0.108-0.369-0.235-0.521-0.428l-0.021-0.028
			l-0.017-0.047l-1.302-3.769l-0.65-1.889c-0.194-0.636-0.357-1.28-0.538-1.922l-1.059-3.856l-0.839-3.912l-0.415-1.96l-0.31-1.979
			c-0.2-1.319-0.43-2.639-0.604-3.964l-0.426-3.99c-0.17-1.331-0.201-2.667-0.298-4.004c-0.088-1.336-0.173-2.675-0.18-4.014
			c-0.018-1.339-0.083-2.681-0.059-4.021l0.067-4.024l0.201-4.024l0.319-4.021c0.148-1.337,0.279-2.678,0.452-4.017
			c0.181-1.337,0.358-2.675,0.586-4.012c0.212-1.327,0.471-2.691,0.766-4.041L252.376,143.927z"/>
	</g>
	<path fill="none" stroke="#1E120D" stroke-width="5" stroke-miterlimit="10" d="M224.493,153.989c0,0,0.04-27.189,0-35.275
		c-0.038-8.085,2.339-25.682,18.745-15.933c0,0,6.603,4.637,8.713,5.826"/>
	<path fill="none" stroke="#1E120D" stroke-width="5" stroke-miterlimit="10" d="M248.057,111.52c0,0,3.626-3.864,8.322-3.091
		c0,0,11.828,0.832,15.813,13.851c0,0,25.919,60.519,24.492,80.672c0,0,3.681,20.688,0.058,30.318
		c-3.622,9.631,3.153,18.369,4.938,22.293s3.566,6.42,3.746,12.841c0.177,6.42,4.636,5.885,3.922,18.726
		c-0.712,12.841-11.592,40.842-27.82,41.556c-16.229,0.713-14.024,0-29.574,1.069c-15.548,1.07-12.158-3.389-23.038-7.134
		c-10.878-3.745-21.044-5.527-28-12.127c-6.956-6.599-13.197-17.299-5.529-32.103c7.668-14.803,6.42-8.917,6.777-16.765
		c0.355-7.847,0.534-12.662,3.744-16.407c0,0-1.07-36.025,9.273-64.562c0,0,9.631-22.829,13.555-44.229
		c0,0,6.42-28.18,18.548-24.256c0,0,8.392-1.337,2.675,31.122"/>
	<path fill="none" stroke="#1E120D" stroke-width="5" stroke-miterlimit="10" d="M205.907,245.219c0,0,2.613,3.091,9.747,2.615
		s7.803-3.804,22.568-2.615c14.769,1.188,19.048-2.379,29.034-1.428c9.987,0.952,11.651,3.33,23.064,3.092
		c0,0,4.804,0.1,7.396,1.002"/>
	<g>
		<path fill="#1E120D" d="M209.473,264.004c-1.466,2.17-2.766,4.433-3.948,6.734c-1.161,2.313-2.208,4.668-3.024,7.083
			c-0.792,2.42-1.425,4.871-1.688,7.333c-0.113,1.229-0.182,2.456-0.104,3.662c0.09,1.202,0.19,2.396,0.494,3.541
			c0.056,0.291,0.139,0.573,0.229,0.853l0.128,0.421l0.063,0.21l0.016,0.054l0.008,0.025c-0.049-0.147-0.01-0.032-0.02-0.063
			l0.005,0.015l0.045,0.114c0.125,0.342,0.233,0.529,0.333,0.738c0.137,0.254,0.268,0.518,0.423,0.785
			c0.602,1.066,1.283,2.148,1.979,3.222c1.398,2.142,2.849,4.304,4.323,6.415c0.741,1.063,1.458,2.052,2.237,3.049
			c0.771,0.987,1.57,1.937,2.402,2.824c0.825,0.891,1.685,1.726,2.566,2.422c0.874,0.694,1.802,1.24,2.554,1.46l-0.562-0.098
			c0.528,0.018,1.267,0.002,1.912-0.034c0.668-0.035,1.341-0.101,2.011-0.18c1.34-0.163,2.672-0.409,3.978-0.735
			c0.652-0.159,1.302-0.336,1.938-0.543c0.642-0.195,1.269-0.425,1.887-0.671c0.621-0.24,1.223-0.52,1.822-0.8
			c0.59-0.297,1.174-0.605,1.74-0.939c2.28-1.319,4.284-3.037,5.946-5.056c0.411-0.509,0.808-1.031,1.176-1.574
			c0.361-0.549,0.726-1.099,1.033-1.686c0.342-0.565,0.606-1.177,0.901-1.773c0.292-0.6,0.514-1.234,0.777-1.852l4.225,1.256
			c-0.071,0.264-0.164,0.794-0.211,1.218c-0.053,0.451-0.082,0.912-0.092,1.374c-0.01,0.924,0.039,1.856,0.187,2.776
			c0.283,1.841,0.912,3.63,1.86,5.264c0.938,1.646,2.221,3.1,3.667,4.418c0.715,0.633,1.57,1.292,2.397,1.976
			c0.827,0.679,1.627,1.327,2.446,1.97c1.636,1.272,3.317,2.461,5.071,3.546c0.874,0.547,1.774,1.053,2.691,1.525l1.387,0.694
			l1.42,0.625c0.953,0.403,1.921,0.785,2.906,1.119c0.988,0.323,1.982,0.646,3.002,0.88c1.011,0.28,2.041,0.47,3.074,0.675
			c1.034,0.201,2.084,0.295,3.134,0.462c-1.056,0.003-2.122,0.055-3.184-0.007c-1.061-0.07-2.134-0.096-3.188-0.271
			c-1.064-0.116-2.116-0.324-3.17-0.539c-1.05-0.227-2.096-0.492-3.127-0.808l-1.539-0.506l-1.513-0.582
			c-1.004-0.401-1.998-0.839-2.967-1.321c-0.978-0.472-1.93-0.989-2.869-1.526c-0.932-0.554-1.847-1.129-2.745-1.724
			c-0.892-0.596-1.782-1.212-2.637-1.812c-0.85-0.604-1.718-1.167-2.651-1.853c-1.819-1.354-3.449-3.034-4.744-4.98
			c-1.301-1.941-2.243-4.151-2.749-6.46c-0.258-1.154-0.403-2.333-0.434-3.52c-0.014-0.594-0.003-1.188,0.04-1.79
			c0.05-0.627,0.096-1.146,0.259-1.914l4.225,1.257c-0.269,0.736-0.498,1.486-0.807,2.212c-0.31,0.725-0.614,1.452-0.995,2.149
			c-0.347,0.713-0.76,1.395-1.177,2.073c-0.423,0.674-0.887,1.328-1.368,1.965c-1.95,2.541-4.409,4.691-7.126,6.346
			c-0.676,0.422-1.379,0.79-2.084,1.152c-0.713,0.342-1.43,0.678-2.163,0.967c-0.73,0.296-1.468,0.571-2.216,0.807
			c-0.745,0.246-1.499,0.458-2.256,0.647c-1.519,0.374-3.054,0.644-4.601,0.822c-0.773,0.086-1.55,0.156-2.334,0.19
			c-0.805,0.035-1.522,0.06-2.447,0.018l-0.303-0.015l-0.259-0.084c-1.748-0.566-3.045-1.478-4.2-2.41
			c-1.147-0.946-2.141-1.961-3.067-3.004c-0.918-1.049-1.767-2.128-2.565-3.227c-0.791-1.087-1.575-2.235-2.28-3.346
			c-1.404-2.244-2.794-4.464-4.1-6.788c-0.651-1.163-1.289-2.335-1.889-3.585c-0.153-0.31-0.293-0.641-0.442-0.973
			c-0.161-0.389-0.321-0.797-0.401-1.074l-0.038-0.117l-0.033-0.105l-0.009-0.032l-0.016-0.065l-0.062-0.263l-0.123-0.525
			c-0.085-0.349-0.163-0.699-0.209-1.054c-0.259-1.41-0.326-2.834-0.285-4.237c0.041-1.406,0.243-2.784,0.496-4.137
			c0.549-2.7,1.438-5.275,2.589-7.699c1.154-2.42,2.479-4.732,4.009-6.893C205.981,267.937,207.63,265.872,209.473,264.004z"/>
	</g>
	<g>
		<path fill="#1E120D" d="M253.439,131.929c0,0,0.158,0.305,0.437,0.837c0.137,0.282,0.332,0.636,0.496,1.019
			c0.164,0.382,0.35,0.814,0.552,1.284c0.213,0.464,0.377,0.99,0.578,1.533c0.186,0.549,0.419,1.108,0.586,1.716
			c0.169,0.603,0.343,1.226,0.52,1.859c0.192,0.624,0.328,1.274,0.443,1.93c0.124,0.647,0.248,1.296,0.37,1.934
			c0.146,0.627,0.146,1.28,0.224,1.889c0.058,0.608,0.112,1.197,0.164,1.757c0.074,0.552,0.063,1.084,0.05,1.573
			c-0.03,1.933-0.052,3.221-0.052,3.221s-0.289-1.246-0.723-3.114c-0.104-0.462-0.213-0.961-0.416-1.473
			c-0.181-0.513-0.369-1.051-0.565-1.609c-0.213-0.55-0.354-1.135-0.64-1.688c-0.258-0.559-0.521-1.124-0.781-1.69
			c-0.251-0.566-0.519-1.123-0.837-1.647c-0.3-0.526-0.594-1.046-0.879-1.548c-0.28-0.501-0.618-0.948-0.899-1.39
			c-0.296-0.433-0.549-0.856-0.835-1.209c-0.272-0.359-0.522-0.688-0.745-0.979c-0.221-0.292-0.417-0.491-0.573-0.683
			c-0.167-0.191-0.299-0.342-0.389-0.445c-0.101-0.11-0.153-0.171-0.153-0.171L253.439,131.929z"/>
	</g>
</g>
<g>
	<path fill="none" stroke="#1E120D" stroke-width="5" stroke-miterlimit="10" d="M281.665,676.472c0,0,11.771,17.836,12.483,50.649
		c0.714,32.816,0,57.783,0,74.191c0,0,7.491,22.472,9.987,28.535c2.498,6.063,6.063,11.414,3.212,29.249
		c0,0-8.919,19.974-15.695,22.471c-6.777,2.497-18.547,1.427-23.542,0c0,0-9.986,10.7-24.255,8.917c0,0-3.567,3.567-11.77,3.211
		c0,0-6.421,0.356-13.557-5.352c0,0-16.764-9.63-22.114-18.547c0,0-8.915-12.484-2.496-35.313c0,0-0.356-4.279,2.854-14.268
		c0,0,7.166-20.871,9.63-32.458c6.872-32.325,0.715-32.459,9.987-66.702c9.274-34.241,18.904-38.521,28.894-47.082
		c0,0,7.134-3.924,12.481-4.28"/>
	<path fill="none" stroke="#1E120D" stroke-width="5" stroke-miterlimit="10" d="M199.541,811.861c0,0,29.345-16.616,95.506-7.875"
		/>
	<g>
		<path fill="#1E120D" d="M227.449,791.683c1.737-2.506,3.051-5.263,4.194-8.061c1.144-2.8,2.093-5.674,2.795-8.604
			c0.408-1.449,0.654-2.941,0.986-4.405c0.225-1.489,0.521-2.964,0.679-4.459c0.154-1.496,0.367-2.98,0.421-4.484
			c0.089-1.499,0.205-2.993,0.195-4.495c0.083-2.978-0.016-6.062-0.016-9.103c-0.017-3.052-0.041-6.104,0.014-9.161
			c0.04-3.056,0.107-6.114,0.225-9.178c0.112-3.063,0.267-6.129,0.498-9.196c0.106-1.533,0.24-3.065,0.413-4.6
			c0.152-1.533,0.326-3.066,0.544-4.598c0.188-1.533,0.426-3.063,0.688-4.592c0.229-1.532,0.552-3.057,0.86-4.581
			c0.277-1.529,0.712-3.038,1.066-4.559c0.394-1.515,0.868-3.016,1.318-4.521c1.047-2.973,2.199-5.938,3.692-8.764
			c1.458-2.771,3.031-5.463,4.765-8.081c1.731-2.614,3.604-5.165,5.763-7.552c1.07-1.195,2.221-2.352,3.495-3.415
			c1.265-1.067,2.633-2.073,4.204-2.885c1.559-0.811,3.322-1.453,5.256-1.628c1.925-0.188,3.971,0.186,5.713,1.012l-0.783-0.22
			c0.825,0.128,1.098,0.278,1.569,0.459c0.392,0.196,0.801,0.389,1.136,0.63c0.708,0.462,1.284,1.014,1.82,1.582
			c0.481,0.589,0.971,1.186,1.31,1.817c0.179,0.313,0.39,0.624,0.534,0.941l0.423,0.958c0.311,0.642,0.488,1.284,0.688,1.93
			l0.293,0.967l0.193,0.962c0.115,0.641,0.287,1.288,0.351,1.923l0.208,1.908c0.134,1.272,0.091,2.519,0.141,3.777
			c-0.018,1.247-0.099,2.481-0.146,3.723c-0.214,2.454-0.444,4.902-0.862,7.302l-0.283,1.807l-0.069,0.452l-0.019,0.112
			l-0.039,0.215l-0.05,0.219l-0.189,0.854c-0.247,1.143-0.485,2.303-0.714,3.46c-0.46,2.316-0.869,4.646-1.275,6.975
			c-0.399,2.331-0.758,4.668-1.085,7.01l-0.453,3.516l-0.374,3.521c-0.212,2.35-0.399,4.701-0.508,7.052
			c-0.081,1.176-0.117,2.351-0.125,3.522c-0.02,1.174-0.059,2.353,0,3.52c0.03,2.345,0.21,4.674,0.5,6.979
			c0.199,1.134,0.343,2.303,0.582,3.416l0.769,3.509c0.495,2.343,0.99,4.683,1.449,7.03c0.49,2.34,0.885,4.704,1.309,7.059
			c0.214,1.177,0.377,2.364,0.567,3.547c0.175,1.185,0.396,2.357,0.502,3.556l0.391,3.57l0.117,3.589l-0.446-3.547l-0.717-3.503
			c-0.492-2.328-1.06-4.646-1.622-6.958c-1.188-4.616-2.394-9.226-3.688-13.812l-0.983-3.433c-0.347-1.198-0.543-2.398-0.817-3.603
			c-0.429-2.409-0.733-4.837-0.889-7.261c-0.12-1.214-0.141-2.424-0.182-3.636c-0.052-1.214-0.075-2.425-0.053-3.634
			c-0.021-2.423,0.116-4.833,0.237-7.245l0.253-3.61l0.333-3.601c0.248-2.396,0.526-4.789,0.849-7.177
			c0.314-2.389,0.697-4.767,1.111-7.142c0.207-1.188,0.425-2.371,0.656-3.565l0.179-0.897l0.045-0.219l0.007-0.028
			c-0.039,0.197-0.01,0.039-0.018,0.076l0.007-0.055l0.016-0.108l0.059-0.434l0.231-1.735c0.354-2.313,0.517-4.625,0.669-6.927
			c0.018-1.146,0.068-2.296,0.062-3.435c-0.074-1.122-0.056-2.271-0.196-3.367c-0.19-2.22-0.646-4.367-1.41-6.216l-0.3-0.679
			c-0.102-0.225-0.241-0.402-0.355-0.607c-0.222-0.429-0.514-0.739-0.777-1.082c-0.289-0.289-0.578-0.568-0.875-0.756
			c-0.145-0.113-0.292-0.155-0.425-0.238c-0.063-0.02-0.122-0.042-0.181-0.068l-0.047-0.011l-0.021-0.008
			c0.036,0.008,0.073,0.014,0.111,0.016l-0.783-0.22c-1.022-0.46-2.073-0.643-3.179-0.531c-1.104,0.105-2.259,0.509-3.392,1.107
			c-1.137,0.592-2.237,1.402-3.289,2.307c-1.053,0.9-2.07,1.896-3.036,2.961c-1.945,2.116-3.711,4.478-5.357,6.926
			c-1.646,2.449-3.17,5.012-4.566,7.62c-1.376,2.554-2.448,5.275-3.453,8.034c-0.45,1.402-0.928,2.798-1.33,4.223
			c-0.366,1.438-0.812,2.852-1.107,4.313c-0.326,1.453-0.668,2.902-0.921,4.379c-0.286,1.467-0.548,2.939-0.761,4.428
			c-0.244,1.479-0.445,2.968-0.625,4.462c-0.206,1.489-0.354,2.989-0.521,4.488c-0.335,2.996-0.594,6.009-0.813,9.028
			c-0.226,3.019-0.399,6.046-0.547,9.076l-0.428,9.105c-0.151,3.048-0.2,6.059-0.438,9.166c-0.069,1.544-0.252,3.081-0.451,4.614
			c-0.154,1.537-0.469,3.056-0.724,4.577c-0.26,1.521-0.657,3.018-0.984,4.521c-0.438,1.481-0.774,2.986-1.301,4.438
			c-0.943,2.933-2.134,5.781-3.507,8.524C231.002,786.699,229.41,789.344,227.449,791.683z"/>
	</g>
	<g>
		<path fill="#1E120D" d="M243.869,892.986c-0.327-0.023-0.845-0.092-1.273-0.146c-0.446-0.061-0.812-0.153-1.219-0.229
			c-0.806-0.139-1.55-0.397-2.316-0.598c-0.764-0.206-1.482-0.519-2.22-0.772c-0.364-0.137-0.735-0.254-1.083-0.429l-1.054-0.486
			c-0.695-0.334-1.41-0.616-2.063-1.024l-1.983-1.143c-0.673-0.354-1.259-0.852-1.888-1.269l-1.843-1.306l0.122,0.067
			c-1.558-0.874-3.177-1.714-4.818-2.46c-0.408-0.196-0.821-0.379-1.24-0.544c-0.42-0.164-0.833-0.36-1.261-0.501l-1.288-0.429
			l-1.334-0.268l1.377,0.031l1.367,0.201c0.46,0.065,0.9,0.188,1.354,0.278c0.454,0.094,0.9,0.202,1.344,0.325
			c1.79,0.461,3.538,1.009,5.298,1.623l0.122,0.067l1.949,0.916c0.656,0.285,1.268,0.65,1.951,0.865l1.997,0.722
			c0.65,0.268,1.347,0.404,2.019,0.593l1.01,0.269c0.333,0.103,0.68,0.145,1.02,0.208c0.683,0.104,1.354,0.271,2.033,0.326
			c0.676,0.051,1.354,0.165,2.011,0.154c0.321,0.002,0.679,0.028,0.964,0.012c0.302-0.021,0.515-0.017,0.921-0.057L243.869,892.986z
			"/>
	</g>
	<g>
		<path fill="#1E120D" d="M267.994,877.885c0.717-0.004,1.385,0.01,2.051-0.013l1.931-0.053c0.315-0.017,0.628-0.046,0.935-0.052
			l0.912-0.073c0.301-0.009,0.6-0.067,0.894-0.095c0.295-0.019,0.586-0.061,0.874-0.109c0.287-0.058,0.575-0.058,0.854-0.129
			c0.281-0.056,0.561-0.116,0.838-0.154l0.817-0.195c0.272-0.057,0.54-0.121,0.802-0.209c0.532-0.146,1.05-0.315,1.561-0.508
			c0.516-0.175,1.003-0.42,1.512-0.617l-0.827,0.68c0.205-0.258,0.392-0.444,0.584-0.657l0.58-0.607
			c0.394-0.396,0.812-0.771,1.226-1.144c0.849-0.728,1.758-1.401,2.741-1.984c0.482-0.301,1.007-0.56,1.527-0.805
			c0.26-0.126,0.546-0.22,0.814-0.328c0.264-0.111,0.555-0.192,0.843-0.27c0.285-0.08,0.562-0.16,0.868-0.196
			c0.301-0.045,0.585-0.094,0.892-0.094c0.308,0.006,0.599-0.007,0.891,0.028c0.304,0.065,0.587,0.123,0.854,0.214l-0.703,0.447
			l-0.612,0.486c-0.192,0.159-0.371,0.367-0.554,0.526c-0.181,0.161-0.35,0.361-0.521,0.538c-0.679,0.723-1.303,1.485-1.925,2.257
			c-0.612,0.776-1.233,1.541-1.834,2.333l-0.906,1.171l-0.451,0.58l-0.416,0.559l-0.338,0.45l-0.49,0.229l-1.025,0.479
			c-0.34,0.165-0.687,0.316-1.052,0.417l-1.08,0.343c-0.363,0.101-0.738,0.149-1.104,0.225c-0.369,0.073-0.737,0.141-1.111,0.156
			c-0.373,0.023-0.745,0.057-1.115,0.068c-0.37,0.002-0.74-0.019-1.107-0.034c-0.368-0.008-0.73-0.062-1.094-0.111
			c-1.446-0.199-2.839-0.624-4.118-1.24c-0.64-0.315-1.254-0.669-1.828-1.084C269.005,878.887,268.455,878.437,267.994,877.885z"/>
	</g>
</g>
<g>
	<path fill="none" stroke="#1E120D" stroke-width="5" stroke-miterlimit="10" d="M241.276,395.628
		c19.113-2.394,14.982-13.911,36.025-12.483c21.046,1.426,31.746,18.903,31.391,37.452c0,0,2.138,27.107-3.211,36.382
		c-5.351,9.273-2.48,63.387-55.278,65.045c0,0-12.492,2.966-26.048-9.639c0,0-28.892-7.968-31.03-54.693
		c0,0-6.421-10.343,2.496-34.242c8.918-23.898,15.339-28.535,25.683-29.961C221.302,393.488,234.454,396.482,241.276,395.628z"/>
	<g>
		<path fill="#1E120D" d="M198.831,424.519c0,0-0.021-0.431,0.058-1.246c0.094-0.807,0.253-2.011,0.697-3.505
			c0.446-1.489,1.147-3.288,2.317-5.204c0.305-0.468,0.597-0.979,0.95-1.464c0.366-0.482,0.743-0.979,1.13-1.488
			c0.408-0.497,0.939-0.885,1.486-1.267c0.525-0.413,1.116-0.753,1.687-1.148c2.331-1.489,5.057-2.829,8.074-3.616l0.563-0.17
			l0.141-0.043l0.071-0.021l0.132-0.034l0.267-0.063c0.356-0.082,0.715-0.165,1.075-0.248c0.715-0.167,1.437-0.34,2.287-0.47
			c0.819-0.142,1.646-0.294,2.497-0.354c0.424-0.038,0.851-0.077,1.279-0.115c0.443-0.004,0.89-0.009,1.338-0.015
			c1.791,0.016,3.764,0.337,5.509,0.998c1.75,0.65,3.151,1.387,4.531,1.869c1.371,0.516,2.792,0.811,4.3,0.988
			c0.752,0.085,1.51,0.163,2.297,0.165l1.168,0.039c0.051,0-0.316,0.013-0.143,0.005l0.039-0.003l0.079-0.005l0.156-0.012
			l0.314-0.023l0.628-0.046l1.255-0.092l0.984-0.23l0.985-0.209l1.066-0.363l1.066-0.356l1.054-0.468l1.052-0.464l1.04-0.544
			c2.771-1.444,5.463-3.204,8.167-4.88c2.702-1.686,5.471-3.266,8.294-4.492c0.719-0.288,1.4-0.616,2.122-0.856
			c0.726-0.232,1.439-0.461,2.143-0.687c0.699-0.231,1.439-0.328,2.14-0.491c0.705-0.148,1.395-0.306,2.097-0.336
			c1.388-0.061,2.726-0.437,3.994-0.092c0.313,0.063,0.623,0.125,0.928,0.187l0.451,0.092l0.222,0.046l0.057,0.011
			c-0.13-0.019,0.208,0.031,0.182,0.03l0.024,0.009l0.105,0.038c0.617,0.219,1.122,0.43,1.638,0.662
			c2.031,0.895,3.675,1.958,4.889,3.013c1.229,1.035,1.938,2.146,2.24,2.928c0.188,0.372,0.217,0.707,0.267,0.906
			c0.041,0.203,0.063,0.309,0.063,0.309c-0.021,0.015-0.216-0.395-0.768-0.926c-0.528-0.55-1.476-1.138-2.78-1.598
			c-1.305-0.461-2.98-0.785-4.899-0.958c-0.471-0.042-0.995-0.067-1.442-0.065h-0.095h-0.025c-0.043-0.006,0.278,0.043,0.131,0.023
			l-0.047,0.007l-0.188,0.028l-0.381,0.056c-0.255,0.037-0.511,0.075-0.771,0.113c-0.258,0.041-0.517,0.069-0.778,0.066
			c-0.261,0.003-0.524-0.063-0.793-0.038c-0.535,0.017-1.083,0.078-1.643,0.121c-2.229,0.276-4.635,0.872-7.093,1.994
			c-2.471,1.071-5.009,2.507-7.646,4.152c-2.646,1.637-5.404,3.451-8.495,5.066l-1.16,0.604l-1.229,0.545l-1.232,0.542l-1.307,0.444
			l-1.313,0.438l-1.473,0.317l-1.478,0.291l-1.256,0.093l-0.628,0.046l-0.313,0.022l-0.157,0.012l-0.078,0.007l-0.261,0.01
			l-1.347-0.042c-0.894-0.006-1.802-0.093-2.711-0.197c-1.811-0.21-3.674-0.603-5.4-1.249c-1.736-0.621-3.256-1.408-4.547-1.875
			c-1.292-0.481-2.52-0.673-3.872-0.696l-1.013,0.009l-1.041,0.097c-0.694,0.044-1.374,0.175-2.048,0.289
			c-0.649,0.089-1.388,0.263-2.113,0.433c-0.36,0.083-0.719,0.166-1.075,0.248l-0.267,0.063c0.017-0.004-0.085,0.02,0.029-0.007
			l-0.029,0.009l-0.061,0.019l-0.12,0.037l-0.476,0.147c-2.578,0.664-4.804,1.787-6.707,2.993c-0.462,0.322-0.958,0.584-1.338,0.972
			c-0.385,0.382-0.79,0.709-1.247,0.966c-0.438,0.288-0.865,0.569-1.28,0.842c-0.415,0.282-0.777,0.604-1.16,0.895
			c-1.455,1.222-2.65,2.469-3.547,3.592c-0.867,1.136-1.516,2.101-1.909,2.789C199.016,424.127,198.831,424.519,198.831,424.519z"/>
	</g>
	<g>
		<path fill="#1E120D" d="M207.39,491.934c1.556,1.06,3.124,2.083,4.7,3.077c1.588,0.977,3.172,1.941,4.792,2.811
			c0.81,0.434,1.629,0.838,2.447,1.224c0.815,0.384,1.639,0.735,2.461,1.029c0.412,0.138,0.821,0.274,1.228,0.377
			c0.404,0.104,0.81,0.196,1.192,0.241c0.386,0.059,0.759,0.074,1.085,0.049c0.337-0.005,0.603-0.083,0.83-0.151l1.095-0.333
			l0.845,0.957c0.99,1.121,2.254,2.295,3.51,3.303c1.28,1.017,2.617,1.953,3.998,2.796c1.394,0.824,2.836,1.542,4.312,2.147
			c1.474,0.615,3.005,1.047,4.541,1.395c1.539,0.357,3.112,0.467,4.677,0.557c1.571,0,3.146-0.064,4.705-0.345
			c0.39-0.063,0.782-0.116,1.171-0.188l1.16-0.277c0.779-0.156,1.536-0.427,2.3-0.666c1.522-0.495,3.023-1.106,4.483-1.828
			c0.744-0.326,1.449-0.749,2.172-1.136c0.729-0.374,1.43-0.809,2.122-1.259c1.412-0.854,2.757-1.843,4.11-2.817
			c0.651-0.524,1.313-1.039,1.979-1.55l0.499-0.385l0.429-0.38l0.92-0.848c1.228-1.154,2.45-2.354,3.635-3.582
			c1.233-1.186,2.372-2.462,3.56-3.7l3.439-3.835c1.079-1.333,2.188-2.652,3.306-3.979c1.032-1.378,2.096-2.748,3.188-4.117
			c-0.721,1.581-1.471,3.161-2.252,4.731c-0.838,1.532-1.725,3.043-2.617,4.557c-0.958,1.462-1.896,2.953-2.919,4.379
			c-1.049,1.404-2.053,2.854-3.161,4.219c-1.099,1.378-2.24,2.707-3.424,4.039L277,503.442l-0.224,0.237l-0.11,0.118l-0.057,0.06
			l-0.027,0.029l-0.084,0.081l-0.491,0.455c-0.653,0.608-1.313,1.215-1.98,1.811c-1.392,1.133-2.755,2.313-4.271,3.312
			c-0.736,0.525-1.485,1.037-2.277,1.493c-0.783,0.469-1.546,0.971-2.381,1.361c-1.622,0.854-3.313,1.61-5.07,2.22
			c-0.885,0.289-1.761,0.604-2.679,0.803l-1.364,0.336c-0.46,0.093-0.926,0.16-1.389,0.241c-1.854,0.334-3.754,0.39-5.642,0.369
			c-1.889-0.102-3.778-0.315-5.607-0.784c-3.674-0.873-7.108-2.509-10.152-4.589c-1.521-1.046-2.946-2.212-4.265-3.483
			c-1.331-1.292-2.522-2.579-3.689-4.168l1.94,0.624c-0.676,0.166-1.342,0.231-1.94,0.188c-0.606-0.036-1.168-0.145-1.691-0.288
			c-0.533-0.135-1.026-0.313-1.507-0.504c-0.482-0.188-0.938-0.405-1.392-0.622c-1.784-0.896-3.396-1.962-4.919-3.123
			c-1.523-1.153-2.982-2.364-4.362-3.659C209.975,494.678,208.641,493.344,207.39,491.934z"/>
	</g>
	<g>
		<path fill="#1E120D" d="M201.683,441.997c0.75,0.701,1.511,1.35,2.33,1.917c0.392,0.299,0.808,0.564,1.211,0.833
			c0.398,0.275,0.837,0.492,1.245,0.735c0.409,0.243,0.863,0.412,1.27,0.631c0.406,0.226,0.859,0.355,1.275,0.534
			c0.415,0.187,0.859,0.288,1.286,0.41l0.635,0.179l0.648,0.104c0.434,0.047,0.836,0.167,1.238,0.252
			c0.396,0.119,0.787,0.262,1.189,0.37l1.235,0.138c0.408,0.079,0.829,0.034,1.246,0.028c0.417-0.031,0.833,0.029,1.251-0.066
			l1.254-0.208c0.421-0.035,0.831-0.21,1.246-0.328l1.243-0.376l1.17-0.354l1.02,0.559l0.506,0.278
			c0.194,0.095,0.383,0.196,0.584,0.285c0.395,0.185,0.797,0.358,1.203,0.506c0.405,0.157,0.814,0.285,1.22,0.401
			c0.407,0.116,0.811,0.204,1.209,0.274c0.201,0.045,0.394,0.048,0.589,0.078c0.198,0.031,0.39,0.042,0.574,0.04
			c0.186-0.003,0.383,0.029,0.557,0.002l0.531-0.039l0.492-0.1c0.172-0.017,0.312-0.089,0.461-0.139
			c0.147-0.054,0.309-0.086,0.433-0.175c0.133-0.075,0.268-0.146,0.406-0.209l-1.082,1.511c0.045-0.178,0.075-0.26,0.104-0.352
			c0.031-0.099,0.063-0.187,0.095-0.266c0.064-0.167,0.131-0.332,0.206-0.482c0.14-0.314,0.317-0.606,0.492-0.899
			c0.203-0.28,0.383-0.571,0.626-0.828c0.227-0.267,0.471-0.519,0.75-0.746c0.532-0.468,1.16-0.853,1.81-1.122
			c0.324-0.157,0.654-0.25,0.986-0.336c0.335-0.098,0.666-0.169,0.988-0.193c0.321-0.029,0.662-0.088,0.969-0.077l0.927,0.033
			c0.319,0.001,0.584,0.076,0.879,0.114c0.285,0.052,0.58,0.094,0.854,0.158l0.796,0.229c0.26,0.082,0.541,0.146,0.783,0.246
			l1.47,0.592l-2.583,0.313c0.476-0.352,0.684-0.445,1.001-0.617c0.296-0.159,0.577-0.265,0.868-0.395
			c0.573-0.215,1.147-0.393,1.722-0.511c0.575-0.142,1.145-0.188,1.715-0.259c0.562-0.014,1.137-0.071,1.686-0.03
			c0.547,0.046,1.115,0.04,1.643,0.143c0.53,0.093,1.076,0.158,1.593,0.284l1.537,0.407c0.502,0.154,0.981,0.347,1.473,0.521
			c0.496,0.167,0.969,0.368,1.426,0.593l1.388,0.646l1.317,0.736c0.431,0.254,0.888,0.48,1.297,0.759l1.239,0.824
			c0.405,0.281,0.84,0.536,1.223,0.84l2.335,1.79l-2.439-0.41c0.404-0.145,0.728-0.246,1.085-0.358l1.046-0.306
			c0.697-0.192,1.399-0.367,2.109-0.521c0.709-0.157,1.431-0.282,2.153-0.4c0.733-0.096,1.462-0.201,2.216-0.242
			c0.374-0.027,0.747-0.058,1.133-0.054c0.385-0.001,0.763-0.017,1.151-0.002l1.176,0.076c0.393,0.026,0.801,0.111,1.2,0.169
			c0.397,0.049,0.808,0.158,1.218,0.274c0.409,0.116,0.815,0.212,1.228,0.408c0.406,0.188,0.82,0.324,1.216,0.572
			c0.395,0.246,0.786,0.502,1.17,0.764l-2.405-0.382c0.424-0.15,0.744-0.246,1.108-0.355l1.055-0.315
			c0.351-0.108,0.698-0.228,1.066-0.262c0.367-0.038,0.734-0.053,1.108-0.048c0.74-0.013,1.487,0.024,2.225,0.068l1.112,0.122
			c0.365,0.031,0.742,0.121,1.106,0.182c0.365,0.06,0.73,0.139,1.096,0.254c0.362,0.113,0.72,0.185,1.073,0.343l1.041,0.426
			l0.986,0.548c0.325,0.168,0.613,0.438,0.903,0.656c0.143,0.118,0.288,0.225,0.42,0.351l0.368,0.413
			c0.232,0.283,0.497,0.516,0.659,0.843l0.511,0.907l-0.838-0.577c-0.249-0.208-0.584-0.307-0.868-0.445l-0.432-0.192
			c-0.149-0.051-0.313-0.081-0.463-0.122c-0.314-0.06-0.583-0.187-0.903-0.204l-0.91-0.103l-0.921,0.012
			c-0.295-0.013-0.614,0.057-0.913,0.082c-0.3,0.029-0.6,0.063-0.903,0.128c-0.305,0.063-0.597,0.092-0.897,0.178l-0.891,0.229
			c-0.593,0.185-1.175,0.368-1.751,0.595c-0.288,0.097-0.57,0.242-0.859,0.332c-0.289,0.088-0.586,0.146-0.887,0.19
			c-0.3,0.052-0.593,0.126-0.881,0.209c-0.276,0.083-0.597,0.182-0.803,0.256l-1.07,0.381l-1.334-0.763
			c-0.186-0.105-0.362-0.219-0.535-0.34c-0.173-0.123-0.42-0.184-0.621-0.286c-0.196-0.11-0.455-0.161-0.697-0.229
			c-0.24-0.071-0.481-0.145-0.76-0.172c-0.271-0.034-0.526-0.1-0.811-0.116l-0.851-0.055c-0.288-0.012-0.587,0.004-0.88,0.003
			c-0.292-0.006-0.594,0.02-0.896,0.044c-0.599,0.029-1.211,0.12-1.82,0.197c-0.612,0.102-1.227,0.206-1.84,0.343
			c-0.613,0.132-1.227,0.284-1.832,0.451l-0.904,0.264l-0.844,0.278l-1.333,0.438l-1.107-0.849l-2.109-1.616
			c-0.348-0.278-0.725-0.493-1.084-0.743l-1.092-0.729c-0.36-0.248-0.747-0.433-1.118-0.652l-1.125-0.633l-1.149-0.533
			c-0.381-0.189-0.767-0.354-1.157-0.48c-0.389-0.137-0.775-0.297-1.165-0.417l-1.169-0.311c-0.389-0.098-0.775-0.132-1.162-0.207
			c-0.389-0.084-0.763-0.059-1.144-0.101c-0.383-0.036-0.74,0.019-1.112,0.016c-0.352,0.052-0.72,0.071-1.05,0.16
			c-0.342,0.067-0.657,0.17-0.96,0.279c-0.132,0.064-0.293,0.119-0.406,0.184c-0.097,0.042-0.297,0.176-0.198,0.102l-2.583,0.313
			l-1.079-0.435c-0.18-0.078-0.352-0.105-0.527-0.163l-0.523-0.156c-0.17-0.04-0.332-0.054-0.497-0.086
			c-0.16-0.019-0.339-0.082-0.479-0.068l-0.446-0.018c-0.151-0.013-0.264,0.031-0.399,0.035c-0.138,0-0.251,0.03-0.355,0.067
			c-0.111,0.027-0.228,0.047-0.312,0.104c-0.194,0.077-0.362,0.177-0.515,0.314c-0.083,0.059-0.154,0.138-0.224,0.222
			c-0.082,0.067-0.13,0.181-0.205,0.265c-0.055,0.104-0.123,0.199-0.166,0.306c-0.029,0.054-0.045,0.102-0.064,0.147
			c-0.012,0.026-0.019,0.047-0.021,0.059c-0.006,0.017-0.015,0.042,0.003-0.023l-1.082,1.512l-0.92,0.496
			c-0.306,0.176-0.632,0.276-0.955,0.393c-0.324,0.11-0.649,0.236-0.978,0.289c-0.326,0.066-0.655,0.138-0.981,0.188l-0.967,0.077
			c-0.326,0.032-0.629-0.001-0.945-0.002c-0.316-0.003-0.625-0.022-0.923-0.064c-0.3-0.039-0.611-0.06-0.899-0.12
			c-0.589-0.103-1.164-0.229-1.721-0.389c-0.557-0.159-1.104-0.332-1.634-0.537c-0.535-0.196-1.054-0.419-1.566-0.659
			c-0.257-0.115-0.511-0.249-0.765-0.375c-0.267-0.142-0.487-0.257-0.81-0.448l2.188,0.204l-1.614,0.501
			c-0.543,0.154-1.065,0.358-1.642,0.427l-1.696,0.276c-0.561,0.112-1.152,0.063-1.728,0.099c-0.58,0.009-1.159,0.049-1.737-0.044
			l-1.734-0.204c-0.563-0.134-1.139-0.231-1.711-0.354c-0.582-0.101-1.073-0.451-1.581-0.727l-0.746-0.438l-0.693-0.505
			c-0.457-0.339-0.919-0.657-1.321-1.046c-0.406-0.383-0.842-0.719-1.204-1.134c-0.37-0.404-0.744-0.797-1.071-1.228
			c-0.321-0.436-0.666-0.84-0.953-1.29c-0.289-0.446-0.595-0.871-0.842-1.339C202.468,443.91,202.009,442.973,201.683,441.997z"/>
	</g>
	<g>
		<path fill="#1E120D" d="M240.667,449.144c0,0-0.035-0.154-0.101-0.443c-0.072-0.313-0.157-0.741-0.26-1.278
			c-0.197-1.078-0.459-2.606-0.667-4.441c-0.229-1.833-0.393-3.976-0.495-6.266c-0.021-1.148-0.086-2.328-0.056-3.531
			c0-1.201,0.023-2.418,0.1-3.635c0.039-1.215,0.153-2.428,0.267-3.617c0.085-1.19,0.274-2.354,0.424-3.479
			c0.131-1.126,0.363-2.202,0.551-3.222c0.098-0.509,0.192-1.004,0.284-1.483c0.117-0.474,0.229-0.931,0.337-1.371
			c0.222-0.876,0.401-1.683,0.603-2.387c0.218-0.7,0.406-1.309,0.563-1.812c0.311-1,0.488-1.572,0.488-1.572
			s-0.103,0.59-0.279,1.624c-0.088,0.514-0.196,1.139-0.319,1.855c-0.106,0.72-0.179,1.538-0.284,2.425
			c-0.049,0.442-0.101,0.903-0.153,1.382c-0.028,0.479-0.058,0.976-0.087,1.485c-0.054,1.021-0.143,2.089-0.125,3.202
			c-0.001,1.111-0.038,2.254,0.031,3.418c0.042,1.162,0.084,2.34,0.201,3.515c0.08,1.175,0.21,2.345,0.361,3.492
			c0.12,1.148,0.332,2.271,0.495,3.354c0.384,2.165,0.804,4.167,1.245,5.856c0.42,1.694,0.85,3.075,1.155,4.026
			c0.158,0.477,0.282,0.843,0.367,1.066c0.091,0.249,0.141,0.381,0.141,0.381L240.667,449.144z"/>
	</g>
	<g>
		<path fill="#1E120D" d="M261.506,452.481c0,0,0.14-0.148,0.401-0.427c0.244-0.264,0.608-0.658,1.078-1.202
			c0.94-1.064,2.245-2.646,3.731-4.613c0.729-0.994,1.539-2.06,2.319-3.241c0.816-1.157,1.613-2.421,2.426-3.737
			c0.848-1.299,1.566-2.725,2.389-4.132c0.732-1.447,1.499-2.917,2.183-4.424c0.324-0.76,0.65-1.521,0.975-2.277l0.486-1.138
			l0.406-1.155c0.531-1.539,1.121-3.043,1.476-4.558c0.405-1.502,0.835-2.953,1.037-4.368c0.224-1.409,0.572-2.735,0.615-3.985
			c0.105-1.25,0.201-2.396,0.286-3.412c0.016-1.019-0.031-1.907-0.04-2.643c-0.032-1.473-0.052-2.313-0.052-2.313
			s0.097,0.836,0.266,2.298c0.077,0.733,0.207,1.625,0.288,2.653c0.01,1.031,0.021,2.195,0.032,3.466
			c0.072,1.28-0.153,2.643-0.249,4.104c-0.073,1.469-0.371,2.98-0.643,4.558c-0.223,1.591-0.677,3.179-1.078,4.813l-0.31,1.231
			l-0.39,1.212c-0.261,0.813-0.522,1.626-0.786,2.441c-0.56,1.616-1.205,3.203-1.826,4.772c-0.707,1.527-1.321,3.081-2.07,4.502
			c-0.713,1.442-1.419,2.83-2.154,4.11c-0.697,1.303-1.436,2.489-2.099,3.598c-1.36,2.196-2.573,3.983-3.474,5.215
			c-0.438,0.613-0.812,1.107-1.075,1.446c-0.25,0.321-0.384,0.492-0.384,0.492L261.506,452.481z"/>
	</g>
	<g>
		<path fill="#1E120D" d="M247.508,448.225c0,0-0.087,0.561-0.239,1.542c-0.142,0.995-0.329,2.428-0.503,4.156
			c-0.174,1.728-0.336,3.749-0.414,5.917c-0.079,2.167-0.079,4.48,0.081,6.776c0.025,0.578,0.098,1.146,0.152,1.717l0.043,0.427
			l0.027,0.266l0.017,0.237l0.036,0.917c0.025,1.202-0.02,2.375-0.107,3.505c-0.087,1.13-0.239,2.214-0.42,3.232
			c-0.184,1.019-0.419,1.969-0.666,2.832c-0.268,0.86-0.53,1.642-0.822,2.31c-0.253,0.682-0.581,1.23-0.799,1.7
			c-0.247,0.457-0.476,0.797-0.614,1.036c-0.144,0.235-0.22,0.361-0.22,0.361s0.06-0.136,0.17-0.39
			c0.105-0.256,0.285-0.618,0.466-1.099c0.153-0.492,0.398-1.063,0.557-1.763c0.194-0.683,0.347-1.472,0.493-2.33
			c0.125-0.862,0.227-1.8,0.271-2.794c0.042-0.994,0.047-2.043-0.014-3.123c-0.062-1.079-0.168-2.19-0.343-3.301l-0.144-0.82
			l-0.04-0.196l-0.041-0.168l-0.104-0.439c-0.136-0.588-0.291-1.179-0.396-1.771c-0.482-2.374-0.798-4.771-1.012-7.021
			c-0.215-2.25-0.323-4.354-0.379-6.16c-0.057-1.806-0.059-3.313-0.047-4.375c0.023-1.072,0.038-1.687,0.038-1.687L247.508,448.225z
			"/>
	</g>
	<g>
		<path fill="#1E120D" d="M265.558,452.881c0,0,0.189,0.421,0.521,1.155c0.324,0.729,0.763,1.772,1.271,3.028
			c1.007,2.515,2.244,5.901,3.249,9.356c0.506,1.726,0.937,3.474,1.297,5.115c0.154,0.827,0.305,1.627,0.446,2.386
			c0.105,0.763,0.205,1.482,0.298,2.148c0.054,0.668,0.104,1.281,0.146,1.824c0.059,0.538,0.032,1.018,0.041,1.405
			c0.003,0.774,0.005,1.219,0.005,1.219s-0.079-0.437-0.22-1.198c-0.075-0.379-0.132-0.841-0.282-1.358
			c-0.137-0.518-0.289-1.102-0.456-1.736c-0.204-0.625-0.424-1.302-0.656-2.019c-0.267-0.702-0.547-1.443-0.836-2.211
			c-0.629-1.516-1.337-3.109-2.114-4.673c-0.78-1.563-1.591-3.104-2.405-4.521c-0.799-1.424-1.595-2.726-2.276-3.834
			c-0.695-1.103-1.283-2.013-1.705-2.635c-0.42-0.612-0.66-0.964-0.66-0.964L265.558,452.881z"/>
	</g>
	<g>
		<path fill="#1E120D" d="M280.941,452.449c0,0,0.038,0.06,0.109,0.168c0.098,0.141,0.191,0.302,0.309,0.503
			c0.227,0.408,0.529,0.978,0.818,1.671c0.299,0.69,0.596,1.506,0.847,2.387c0.257,0.878,0.459,1.825,0.599,2.771
			c0.085,0.467,0.105,0.949,0.158,1.408c0.043,0.462,0.04,0.922,0.06,1.356c0.015,0.437-0.021,0.861-0.028,1.258
			c-0.003,0.396-0.059,0.771-0.091,1.111c-0.043,0.343-0.057,0.652-0.114,0.928c-0.05,0.271-0.093,0.51-0.129,0.705
			c-0.07,0.388-0.111,0.607-0.111,0.607s-0.036-0.223-0.104-0.611c-0.032-0.191-0.072-0.426-0.118-0.692
			c-0.037-0.268-0.13-0.563-0.204-0.885c-0.083-0.321-0.151-0.669-0.279-1.026c-0.122-0.357-0.226-0.735-0.378-1.113
			c-0.156-0.376-0.295-0.767-0.477-1.147c-0.19-0.379-0.349-0.77-0.565-1.137c-0.401-0.742-0.848-1.45-1.308-2.071
			c-0.454-0.625-0.915-1.169-1.328-1.603c-0.407-0.438-0.771-0.758-1.016-0.967c-0.124-0.102-0.22-0.179-0.26-0.195
			c-0.038-0.02-0.106-0.079-0.101-0.071L280.941,452.449z"/>
	</g>
	<g>
		<path fill="#1E120D" d="M236.08,451.658c0,0-0.219,0.419-0.602,1.152c-0.382,0.74-0.914,1.813-1.54,3.109
			c-1.248,2.595-2.82,6.107-4.196,9.701c-0.357,0.896-0.668,1.805-0.989,2.696c-0.33,0.893-0.587,1.783-0.874,2.643
			c-0.274,0.859-0.489,1.702-0.721,2.501c-0.216,0.8-0.372,1.563-0.542,2.271c-0.167,0.706-0.247,1.362-0.356,1.942
			c-0.115,0.581-0.161,1.092-0.197,1.514c-0.08,0.848-0.125,1.332-0.125,1.332s-0.032-0.486-0.089-1.336
			c-0.033-0.428-0.069-0.948-0.048-1.544c0.015-0.595-0.01-1.275,0.042-2.009c0.056-0.731,0.09-1.533,0.176-2.374
			c0.104-0.836,0.184-1.729,0.318-2.642c0.146-0.906,0.264-1.859,0.45-2.81c0.177-0.951,0.344-1.926,0.557-2.885
			c0.802-3.858,1.817-7.671,2.657-10.511c0.422-1.42,0.787-2.601,1.057-3.429c0.275-0.832,0.434-1.308,0.434-1.308L236.08,451.658z"
			/>
	</g>
	<g>
		<path fill="#1E120D" d="M235.009,449.393c0,0-0.077-0.086-0.221-0.248c-0.167-0.183-0.365-0.423-0.617-0.728
			c-0.49-0.617-1.175-1.488-1.906-2.577c-0.744-1.081-1.55-2.371-2.333-3.789c-0.789-1.414-1.549-2.958-2.221-4.532
			c-0.36-0.774-0.636-1.588-0.947-2.365c-0.307-0.778-0.535-1.575-0.793-2.325s-0.427-1.504-0.628-2.199
			c-0.206-0.694-0.337-1.369-0.471-1.986c-0.125-0.619-0.27-1.176-0.343-1.683c-0.077-0.506-0.146-0.945-0.2-1.309
			c-0.111-0.721-0.175-1.133-0.175-1.133s0.14,0.394,0.383,1.082c0.122,0.343,0.269,0.759,0.438,1.236
			c0.164,0.478,0.409,0.996,0.644,1.57c0.241,0.571,0.488,1.193,0.814,1.825c0.321,0.633,0.614,1.315,0.998,1.985
			c0.384,0.669,0.738,1.376,1.169,2.058c0.436,0.679,0.832,1.388,1.31,2.05c0.905,1.351,1.881,2.646,2.85,3.803
			c0.963,1.162,1.916,2.19,2.762,3.028c0.837,0.85,1.579,1.491,2.087,1.931c0.259,0.213,0.46,0.381,0.576,0.465
			c0.14,0.105,0.212,0.163,0.212,0.163L235.009,449.393z"/>
	</g>
	<g>
		<path fill="#1E120D" d="M223.916,451.454c0,0-0.328,0.216-0.902,0.593c-0.58,0.384-1.404,0.958-2.386,1.66
			c-1.957,1.418-4.517,3.399-6.93,5.563c-0.605,0.538-1.187,1.1-1.774,1.643c-0.563,0.566-1.116,1.123-1.651,1.662
			c-0.509,0.563-1.018,1.099-1.477,1.624c-0.446,0.539-0.868,1.049-1.256,1.52c-0.361,0.494-0.691,0.945-0.984,1.348
			c-0.309,0.396-0.509,0.779-0.707,1.08c-0.38,0.612-0.598,0.962-0.598,0.962s0.146-0.385,0.406-1.058
			c0.138-0.334,0.268-0.763,0.496-1.211c0.218-0.458,0.462-0.977,0.729-1.54c0.3-0.55,0.626-1.144,0.97-1.771
			c0.36-0.619,0.768-1.256,1.177-1.928c0.438-0.651,0.891-1.323,1.351-2.007c0.487-0.662,0.97-1.351,1.479-2.016
			c2.03-2.668,4.25-5.19,5.98-7.031c0.87-0.917,1.605-1.674,2.139-2.195c0.542-0.526,0.853-0.826,0.853-0.826L223.916,451.454z"/>
	</g>
	<g>
		<path fill="#1E120D" d="M246.566,457.637c-0.005-0.024,0.171,0.386,0.419,0.832c0.134,0.239,0.271,0.532,0.472,0.875
			c0.219,0.346,0.465,0.734,0.733,1.16c0.253,0.442,0.604,0.86,0.955,1.324c0.366,0.459,0.706,0.96,1.148,1.46
			c0.909,1.019,1.88,2.104,2.85,3.189c1.968,2.197,3.826,4.596,4.813,6.616c0.253,0.501,0.454,0.972,0.606,1.398
			c0.17,0.418,0.252,0.81,0.353,1.112c0.135,0.633,0.195,0.988,0.195,0.988s-0.139-0.342-0.397-0.914
			c-0.161-0.274-0.315-0.622-0.563-0.983c-0.229-0.369-0.516-0.769-0.852-1.183c-1.33-1.678-3.511-3.506-5.842-5.191
			c-1.184-0.856-2.366-1.714-3.476-2.518c-0.564-0.413-1.096-0.9-1.61-1.322c-0.512-0.436-1.015-0.835-1.41-1.267
			c-0.415-0.421-0.795-0.807-1.132-1.147c-0.333-0.359-0.616-0.715-0.854-0.99c-0.497-0.583-0.655-0.819-0.674-0.835
			L246.566,457.637z"/>
	</g>
	<g>
		<path fill="#1E120D" d="M254.356,451.093c0,0-0.083-0.101-0.239-0.285c-0.183-0.212-0.426-0.513-0.69-0.871
			c-0.286-0.361-0.584-0.817-0.946-1.329c-0.331-0.53-0.729-1.107-1.099-1.776c-0.383-0.659-0.779-1.382-1.148-2.172
			c-0.403-0.768-0.723-1.635-1.089-2.502c-0.313-0.894-0.644-1.812-0.894-2.769c-0.229-0.967-0.501-1.927-0.61-2.93l-0.211-1.479
			c-0.021-0.496-0.045-0.991-0.067-1.481c-0.085-0.973,0.012-1.936,0.072-2.855c0.018-0.922,0.238-1.796,0.379-2.621
			c0.085-0.411,0.134-0.813,0.242-1.192c0.118-0.375,0.232-0.736,0.341-1.085c0.235-0.688,0.383-1.333,0.631-1.866
			c0.243-0.532,0.455-0.996,0.631-1.378c0.347-0.758,0.545-1.19,0.545-1.19s-0.125,0.46-0.345,1.265
			c-0.107,0.399-0.238,0.884-0.39,1.439c-0.153,0.552-0.193,1.209-0.309,1.899c-0.05,0.347-0.102,0.707-0.154,1.08
			c-0.043,0.374-0.025,0.769-0.041,1.166c-0.004,0.8-0.079,1.633,0.051,2.493c0.086,0.859,0.138,1.741,0.367,2.617
			c0.092,0.437,0.185,0.877,0.278,1.32l0.411,1.296c0.239,0.87,0.635,1.691,0.972,2.507c0.359,0.807,0.791,1.57,1.189,2.304
			c0.454,0.711,0.848,1.415,1.316,2.028c0.433,0.633,0.881,1.201,1.306,1.715c0.411,0.523,0.839,0.959,1.191,1.362
			c0.377,0.378,0.691,0.724,0.971,0.973c0.279,0.271,0.481,0.446,0.609,0.553c0.154,0.133,0.237,0.203,0.237,0.203L254.356,451.093z
			"/>
	</g>
	<g>
		<path fill="#1E120D" d="M275.163,450.259c-0.014,0.003,0.122-0.021,0.165-0.021c0.043,0.009,0.228-0.036,0.439-0.078
			c0.44-0.113,1.1-0.317,1.88-0.681c0.377-0.202,0.814-0.393,1.232-0.675c0.215-0.138,0.435-0.277,0.66-0.42
			c0.215-0.164,0.435-0.33,0.656-0.5c0.467-0.325,0.864-0.761,1.327-1.155c0.403-0.447,0.852-0.885,1.238-1.377
			c0.364-0.507,0.801-0.979,1.115-1.523c0.318-0.538,0.699-1.044,0.96-1.591c0.276-0.544,0.546-1.071,0.8-1.57
			c0.213-0.522,0.414-1.018,0.6-1.475c0.198-0.457,0.354-0.886,0.461-1.274c0.122-0.387,0.229-0.725,0.314-1.002
			c0.176-0.56,0.275-0.879,0.275-0.879s-0.023,0.333-0.063,0.917c-0.021,0.294-0.046,0.651-0.074,1.061
			c-0.018,0.413-0.067,0.874-0.156,1.374c-0.077,0.505-0.162,1.052-0.251,1.631c-0.139,0.574-0.284,1.179-0.436,1.805
			c-0.14,0.636-0.403,1.255-0.611,1.914c-0.201,0.663-0.541,1.283-0.814,1.941c-0.299,0.645-0.677,1.256-1.022,1.88
			c-0.412,0.579-0.77,1.198-1.223,1.719c-0.221,0.27-0.438,0.532-0.649,0.791c-0.232,0.242-0.461,0.48-0.684,0.712
			c-0.439,0.475-0.926,0.857-1.357,1.234c-0.896,0.719-1.741,1.234-2.371,1.574c-0.332,0.162-0.572,0.286-0.829,0.383
			c-0.191,0.075-0.293,0.115-0.293,0.115L275.163,450.259z"/>
	</g>
</g>
</svg>
