<?xml version="1.0" encoding="utf-8"?>
<!-- Generator: Adobe Illustrator 16.0.0, SVG Export Plug-In . SVG Version: 6.00 Build 0)  -->
<!DOCTYPE svg PUBLIC "-//W3C//DTD SVG 1.1//EN" "http://www.w3.org/Graphics/SVG/1.1/DTD/svg11.dtd">
<svg version="1.1" id="Layer_1" xmlns="http://www.w3.org/2000/svg" xmlns:xlink="http://www.w3.org/1999/xlink" x="0px" y="0px"
	 width="500px" height="900px" viewBox="0 0 500 900" enable-background="new 0 0 500 900" xml:space="preserve">
<g>
	<path fill="none" stroke="#1E120D" stroke-width="5" stroke-miterlimit="10" d="M302.629,228.791c0,0,2.586-82.235-12.929-142.748
		c0,0-3.749-14.611-4.525-27.023c0,0-6.982-36.851-18.231-48.099c-11.249-11.249-22.887,2.327-24.049,6.594
		c-1.164,4.267-20.171,65.168-32.196,148.953c0,0-6.536,36.638-8.477,79.694"/>
	<path fill="none" stroke="#1E120D" stroke-width="5" stroke-miterlimit="10" d="M312.715,308.828c0,0-0.388-65.555-13.576-88.443
		c0,0-15.127-27.54-42.281-27.54c0,0-29.479-1.164-43.445,29.093c0,0-16.29,30.256-17.065,46.16c0,0-5.044,49.65-3.492,64.392
		c0,0,2.715,8.146,32.972,3.878c0,0,32.195,4.8,52.366,1.238C278.193,337.606,314.82,347.214,312.715,308.828z"/>
</g>
<g>
	<path fill="none" stroke="#1E120D" stroke-width="5" stroke-miterlimit="10" d="M491.376,363.226c0,0,1.118-49.844-8.191-80.49
		l-17.845-65.941c0,0-5.042-14.353-5.042-17.845c0,0-3.88-14.74-6.595-19.006c0,0-6.594-12.414-13.964,0
		c0,0-12.802,33.747-16.292,64.391c0,0-25.725,118.154-25.337,122.422"/>
	<path fill="none" stroke="#1E120D" stroke-width="5" stroke-miterlimit="10" d="M494.756,370.79c0,0-2.068-9.697-8.856-9.697
		c0,0-10.538-1.033-20.56,26.376c0,0-8.424,20.761-20.344,20.56c-5.741-0.099-10.397-2.233-20.385-19.009
		c0,0-11.249-15.903-15.516-20.559c0,0-10.086-10.86-12.413,2.716c0,0-8.922,35.686,3.491,50.427c0,0,26.377,27.927,34.522,59.736
		c0,0,2.715,19.008,15.903,24.438c0,0,8.146,4.266,19.396-19.783c0,0,20.634-31.807,24.05-66.331
		C494.046,419.663,500.121,394.969,494.756,370.79z"/>
</g>
<g>
	<path fill="none" stroke="#1E120D" stroke-width="5" stroke-miterlimit="10" d="M6.912,362.348c0,0-0.385-52.088,8.924-82.732
		l16.1-62.258c0,0,5.042-14.353,5.042-17.843c0,0,3.88-14.74,6.595-19.007c0,0,8.339-12.8,15.708-0.387
		c0,0,10.087,24.243,16.487,60.317c0,0,20.182,67.814,22.438,123.776"/>
	<path fill="none" stroke="#1E120D" stroke-width="5" stroke-miterlimit="10" d="M5.059,372.894
		c0.317-4.532,1.858-14.017,4.184-13.951c6.303,0.178,14.955,11.363,19.782,17.066c4.577,5.408,13.024,16.881,24.944,16.68
		c5.743-0.096,13.992-2.654,25.483-16.486c0,0,9.116-14.853,15.322-14.702c6.207,0.157,9.229,23.432,9.678,31.416
		c0.416,7.424,0.632,19.361-4.232,25.761c-4.862,6.4-14.524,10.722-24.452,27.348c-5.557,9.301-8.521,20.783-11.443,32.195
		c0,0-0.74,24.74-17.65,24.777c-12.604,0.023-15.922-9.709-19.975-18.377c0,0-13.75-43.285-18.349-66.874
		C4.597,398.495,4.508,380.728,5.059,372.894z"/>
</g>
<g>
	<path fill="none" stroke="#1E120D" stroke-width="5" stroke-miterlimit="10" d="M246.526,399.698
		c-16.275,0.718-35.686,6.723-48.357,24.566c0,0-11.896,17.068-11.896,28.187c0,0-1.034,10.346,11.638,17.326
		c0,0,13.705,7.242,19.654,14.998c0,0,10.782,16.844,33.061,16.844c0,0,18.659,3.07,28.743-6.756c0,0,6.724-7.5,8.792-12.414
		c0,0,7.499-15.258,11.636-19.137c4.14-3.879,16.29-17.065,0-29.999c-16.291-12.927-23.271-20.168-24.049-22.236
		C275.747,411.077,264.109,398.921,246.526,399.698z"/>
	<g>
		<path fill="#1E120D" d="M296.176,455.814c-0.317-0.988-0.792-1.9-1.383-2.715c-0.575-0.822-1.24-1.566-1.997-2.193
			c-1.508-1.261-3.246-2.166-5.095-2.732c-1.846-0.584-3.795-0.829-5.738-0.952c-0.485-0.036-0.984-0.002-1.474-0.007l-1.391,0.002
			c-1.01,0.091-2.103,0.116-3.045,0.261c-1.802,0.272-3.669,0.756-5.521,1.406c-1.88,0.638-3.768,1.44-5.855,2.083
			c-1.01,0.357-2.1,0.593-3.149,0.891c-1.077,0.209-2.161,0.43-3.246,0.586c-1.088,0.107-2.18,0.256-3.267,0.32l-3.253,0.066
			c-2.141-0.096-4.302-0.145-6.396-0.453c-1.053-0.133-2.112-0.24-3.158-0.393l-3.108-0.566c-2.086-0.334-4.112-0.852-6.148-1.334
			c-2.049-0.447-4.047-1.045-6.049-1.621l-2.994-0.893l-0.726-0.219c-0.2-0.059-0.387-0.111-0.625-0.166
			c-0.448-0.106-0.913-0.203-1.382-0.275c-1.878-0.308-3.812-0.373-5.725-0.227c-1.914,0.158-3.805,0.6-5.607,1.321
			c-1.804,0.729-3.465,1.8-5.037,3.056l0.073-0.094c-0.55,0.704-1.057,1.484-1.515,2.271c-0.227,0.398-0.429,0.809-0.591,1.234
			c-0.082,0.213-0.14,0.43-0.19,0.654c-0.041,0.225-0.054,0.451-0.021,0.688c-0.09-0.219-0.14-0.455-0.156-0.699
			c-0.009-0.24,0.006-0.484,0.039-0.723c0.067-0.479,0.181-0.949,0.32-1.408c0.283-0.924,0.661-1.792,1.1-2.669l0.004-0.009
			l0.07-0.085c1.358-1.648,3.018-3.087,4.896-4.229c1.874-1.162,4.001-1.872,6.154-2.348c2.165-0.469,4.392-0.608,6.611-0.434
			c0.557,0.035,1.111,0.1,1.677,0.18c0.27,0.037,0.587,0.093,0.888,0.154l0.774,0.16l3.004,0.627
			c1.994,0.448,3.99,0.879,5.989,1.237c1.998,0.374,3.992,0.788,5.989,1.063l2.992,0.463c0.996,0.131,1.99,0.225,2.985,0.34
			c0.995,0.11,1.991,0.238,2.978,0.26l2.964,0.162l2.935-0.033c0.972-0.037,1.93-0.142,2.896-0.206
			c0.958-0.11,1.902-0.284,2.854-0.431c0.944-0.229,1.887-0.377,2.838-0.667c1.877-0.497,3.848-1.171,5.913-1.734
			c2.087-0.583,4.276-0.935,6.58-1.065c1.108-0.06,2.085,0.012,3.135,0.01l0.048,0.002h0.105l0.025,0.003l0.102,0.01l0.203,0.02
			l0.405,0.04l0.809,0.094c0.539,0.071,1.075,0.104,1.611,0.209c1.07,0.247,2.144,0.372,3.188,0.742
			c0.523,0.167,1.049,0.308,1.563,0.498l1.513,0.66c1.965,0.981,3.814,2.275,5.175,3.99
			C295.114,451.677,296.036,453.73,296.176,455.814z"/>
	</g>
	<g>
		<path fill="#1E120D" d="M294.109,459.047c-0.502,1.297-1.143,2.549-1.897,3.74c-0.765,1.186-1.623,2.342-2.697,3.35
			c-0.539,0.502-1.126,0.971-1.775,1.383c-0.646,0.414-1.373,0.752-2.159,0.979c-0.389,0.123-0.804,0.199-1.22,0.238
			c-0.419,0.047-0.842,0.037-1.268,0.012c-0.418-0.051-0.846-0.102-1.249-0.223c-0.418-0.092-0.797-0.26-1.191-0.406l-0.088-0.031
			l-0.287-0.236c-0.471-0.387-1.063-0.82-1.622-1.197c-0.568-0.391-1.165-0.74-1.749-1.1c-1.182-0.699-2.409-1.305-3.662-1.791
			c-0.625-0.246-1.259-0.461-1.896-0.633c-0.635-0.186-1.277-0.316-1.914-0.434c-0.637-0.119-1.275-0.184-1.909-0.227l-0.949-0.021
			l-0.939,0.045c-0.62,0.064-1.238,0.131-1.842,0.275c-0.306,0.049-0.602,0.141-0.897,0.232c-0.296,0.09-0.596,0.164-0.881,0.293
			c-0.287,0.117-0.578,0.221-0.863,0.346l-0.841,0.41c-0.548,0.303-1.099,0.609-1.615,0.984l-0.776,0.559
			c-0.253,0.197-0.493,0.418-0.741,0.623c-0.511,0.393-0.961,0.881-1.437,1.33c-0.469,0.459-0.89,0.986-1.339,1.473l-1.247,1.59
			l-0.122,0.154l-0.057,0.063c-0.536,0.578-1.076,1.223-1.615,1.85c-0.553,0.619-1.04,1.289-1.562,1.932l-0.778,0.969
			c-0.251,0.326-0.479,0.664-0.719,0.996l-1.429,1.994l0.088-0.148c-0.265,0.449-0.411,0.625-0.628,0.889
			c-0.2,0.244-0.422,0.461-0.647,0.67c-0.46,0.414-0.973,0.773-1.53,1.059c-1.112,0.566-2.394,0.838-3.554,0.768
			c-1.157-0.059-2.239-0.33-3.165-0.736c-0.475-0.195-0.937-0.402-1.345-0.652c-0.424-0.24-0.853-0.475-1.222-0.754
			c-0.375-0.268-0.785-0.535-1.126-0.809l-0.972-0.775l-1.943-1.541l-3.917-3.059c-1.293-1.037-2.591-2.072-3.901-3.084
			l-3.915-3.068c-1.306-1.029-2.623-2.029-3.947-3.031c-0.663-0.5-1.318-1.02-2.003-1.479l-2.049-1.441l2.339,0.918
			c0.8,0.291,1.533,0.688,2.29,1.049l2.265,1.105l2.204,1.199c1.478,0.793,2.939,1.609,4.366,2.477
			c1.442,0.846,2.87,1.711,4.295,2.582c1.42,0.881,2.813,1.797,4.218,2.699l2.101,1.371l1.045,0.688
			c0.33,0.217,0.63,0.385,0.943,0.58c0.307,0.207,0.622,0.342,0.933,0.492c0.311,0.17,0.618,0.275,0.921,0.375
			c0.609,0.227,1.179,0.295,1.676,0.307c0.503,0.008,0.893-0.135,1.248-0.332c0.177-0.104,0.34-0.234,0.491-0.385
			c0.072-0.078,0.145-0.154,0.205-0.236c0.05-0.053,0.146-0.217,0.093-0.123l0.088-0.15l1.505-2.24
			c0.491-0.76,1.021-1.479,1.57-2.174c0.553-0.697,1.074-1.422,1.658-2.09c0.575-0.682,1.131-1.359,1.756-2.047l-0.179,0.217
			c0.481-0.623,0.967-1.24,1.466-1.852c0.542-0.584,1.046-1.193,1.624-1.752c0.586-0.553,1.142-1.129,1.791-1.629
			c0.319-0.252,0.628-0.514,0.958-0.756l1.02-0.693c0.682-0.459,1.42-0.854,2.16-1.23l1.144-0.518
			c0.387-0.158,0.792-0.279,1.188-0.42c0.394-0.146,0.807-0.238,1.215-0.34c0.408-0.104,0.816-0.203,1.235-0.256
			c0.828-0.154,1.667-0.211,2.503-0.25l1.25,0.021l1.238,0.109c0.817,0.105,1.627,0.244,2.415,0.445
			c0.79,0.189,1.56,0.443,2.306,0.73c0.75,0.281,1.478,0.605,2.183,0.959c1.413,0.705,2.745,1.525,4.001,2.434
			c0.628,0.455,1.226,0.947,1.808,1.457c0.589,0.521,1.125,1.02,1.71,1.645l-0.375-0.27c0.24,0.119,0.477,0.275,0.728,0.359
			c0.245,0.115,0.502,0.172,0.76,0.246c0.26,0.047,0.524,0.094,0.795,0.098c0.27,0.004,0.547,0.012,0.826-0.031
			c1.126-0.115,2.287-0.656,3.36-1.367c1.068-0.73,2.101-1.604,3.033-2.588C292.405,461.222,293.298,460.174,294.109,459.047z"/>
	</g>
</g>
<g>
	<path fill="none" stroke="#1E120D" stroke-width="5" stroke-miterlimit="10" d="M305.046,814.603c0,0-6.485-175.395-30.795-231.77
		c0,0-5.762-21.719-21.499-21.203c0,0-12.116,0-16.771,21.723c0,0-29.999,131.701-32.585,219.109"/>
	<path fill="none" stroke="#1E120D" stroke-width="5" stroke-miterlimit="10" d="M314.594,874.015c0,0-5.947-77.578-29.221-107.059
		c0,0-14.742-19.652-36.981-18.1c0,0-21.721-0.006-31.547,19.65c0,0-20.17,41.619-25.344,84.305c0,0-9.309,40.859,33.618,38.791
		l12.412-2.59c0,0,14.999,11.018,41.894,2.664c0,0,5.688,2.436,22.24,3.131C301.665,894.808,316.148,899.875,314.594,874.015z"/>
	<g>
		<path fill="#1E120D" d="M208.052,867.812c-0.323-1.293-0.679-2.568-0.818-3.91c-0.23-1.334-0.285-2.666-0.378-4.006
			c-0.053-1.338-0.058-2.678-0.061-4.018c0.046-1.334,0.043-2.68,0.131-4.014c0.091-1.334,0.157-2.672,0.291-4.002
			c0.114-1.332,0.235-2.666,0.391-3.992c0.271-2.662,0.646-5.309,1.051-7.951c0.415-2.641,0.856-5.277,1.351-7.908l0.381-1.975
			l0.099-0.494l0.052-0.252l0.094-0.35l0.271-0.959l0.137-0.479c0.055-0.166,0.162-0.373,0.243-0.557l0.546-1.133
			c0.389-0.729,0.86-1.297,1.31-1.938c1.009-1.137,2.119-2.18,3.349-2.984l0.918-0.611l0.95-0.531
			c0.629-0.373,1.289-0.643,1.938-0.953c1.315-0.561,2.651-1.053,4.014-1.426c1.379-0.389,2.692-0.689,4.212-0.891l-0.377,0.074
			l1.845-0.664c0.616-0.217,1.234-0.426,1.815-0.729l1.771-0.83c0.585-0.287,1.132-0.648,1.7-0.967
			c0.565-0.324,1.132-0.645,1.653-1.041l1.601-1.123l1.509-1.25c0.518-0.398,0.975-0.871,1.449-1.32
			c0.474-0.451,0.955-0.893,1.385-1.391c0.435-0.49,0.899-0.951,1.319-1.455l1.253-1.52l1.171-1.584l1.094-1.639
			c0.333-0.564,0.688-1.117,1.005-1.689c0.317-0.572,0.632-1.145,0.913-1.727c0.284-0.564,0.568-1.199,0.764-1.684l0.067-0.164
			l0.057-0.109c2.183-4.143,4.327-8.305,6.54-12.432l2.495-4.656l2.002,4.863l5.117,12.438l0.07,0.17l0.066,0.271l0.371,1.518
			c0.128,0.504,0.226,1.018,0.407,1.506l0.484,1.482c0.142,0.502,0.381,0.967,0.567,1.453c0.209,0.475,0.37,0.973,0.616,1.432
			l0.686,1.404c0.22,0.473,0.508,0.908,0.758,1.365c0.254,0.455,0.514,0.908,0.813,1.338c0.292,0.432,0.563,0.879,0.872,1.301
			l0.938,1.258l1.002,1.207c0.332,0.406,0.704,0.775,1.054,1.164c0.35,0.391,0.739,0.74,1.105,1.113
			c0.375,0.365,0.77,0.705,1.155,1.057c0.398,0.33,0.792,0.674,1.201,0.98c0.391,0.311,0.85,0.631,1.177,0.848l-0.246-0.125
			c1.109,0.592,2.255,1.131,3.232,1.91c0.513,0.357,1.014,0.729,1.449,1.166c0.443,0.428,0.926,0.822,1.328,1.279l1.197,1.381
			c0.373,0.477,0.709,0.975,1.063,1.461c0.368,0.48,0.642,1.008,0.956,1.514c0.318,0.506,0.601,1.027,0.856,1.559
			c0.554,1.045,1.008,2.125,1.438,3.211c0.419,1.09,0.786,2.193,1.105,3.307c0.313,1.117,0.594,2.24,0.799,3.385
			c0.217,1.176,0.327,2.256,0.495,3.355c0.609,4.395,1.256,8.781,1.834,13.18c0.573,4.4,1.187,8.795,1.717,13.201l-0.011-0.047
			c0.102,0.533,0.167,1.027,0.216,1.541c0.051,0.508,0.079,1.018,0.096,1.525c0.027,1.018-0.013,2.037-0.145,3.043
			c-0.065,0.504-0.15,1.004-0.263,1.498c-0.045,0.248-0.117,0.492-0.185,0.734c-0.073,0.242-0.122,0.49-0.216,0.727
			c-0.165,0.477-0.337,0.949-0.56,1.4c-0.188,0.465-0.475,0.883-0.711,1.318c0.188-0.463,0.423-0.9,0.557-1.381
			c0.168-0.465,0.284-0.945,0.393-1.426c0.065-0.236,0.086-0.484,0.13-0.727c0.039-0.242,0.082-0.482,0.099-0.729
			c0.055-0.486,0.083-0.977,0.092-1.465c0.01-0.979-0.033-1.955-0.151-2.922c-0.06-0.484-0.132-0.965-0.225-1.441
			c-0.088-0.473-0.202-0.959-0.326-1.393l-0.011-0.049c-0.968-4.332-1.853-8.678-2.777-13.018c-0.919-4.342-1.771-8.693-2.66-13.039
			c-0.231-1.082-0.419-2.201-0.666-3.193c-0.256-1.023-0.548-2.043-0.88-3.047c-0.335-1.004-0.713-1.99-1.132-2.953
			c-0.429-0.957-0.875-1.906-1.4-2.799c-0.244-0.459-0.51-0.9-0.804-1.322c-0.29-0.422-0.544-0.875-0.874-1.26
			c-0.317-0.395-0.617-0.807-0.943-1.189l-1.031-1.088c-0.343-0.361-0.744-0.646-1.109-0.977c-0.358-0.342-0.771-0.602-1.175-0.867
			c-0.773-0.6-1.669-0.961-2.516-1.408l-0.246-0.127c-0.616-0.379-1.079-0.695-1.575-1.063c-0.494-0.354-0.954-0.73-1.425-1.102
			c-0.452-0.389-0.913-0.768-1.35-1.172c-0.429-0.41-0.881-0.799-1.289-1.23c-0.409-0.43-0.841-0.84-1.23-1.289l-1.173-1.342
			l-1.104-1.4c-0.363-0.471-0.688-0.971-1.033-1.455c-0.352-0.482-0.663-0.99-0.968-1.502c-0.301-0.514-0.639-1.008-0.907-1.541
			l-0.821-1.592c-0.284-0.525-0.48-1.092-0.725-1.637c-0.22-0.555-0.491-1.092-0.664-1.664l-0.571-1.697
			c-0.209-0.563-0.332-1.146-0.483-1.723l-0.437-1.736l0.136,0.441l-5.226-12.393l4.497,0.209
			c-2.169,4.148-4.406,8.262-6.606,12.395l0.124-0.273c-0.331,0.807-0.629,1.438-0.973,2.115c-0.332,0.668-0.692,1.314-1.057,1.955
			c-0.363,0.645-0.765,1.262-1.146,1.891l-1.24,1.826l-1.327,1.762l-1.42,1.693c-0.474,0.563-1.008,1.076-1.515,1.611
			c-0.498,0.543-1.054,1.031-1.601,1.527c-0.55,0.494-1.08,1.008-1.677,1.447l-1.746,1.369l-1.849,1.23
			c-0.604,0.428-1.257,0.781-1.908,1.135c-0.654,0.348-1.287,0.734-1.959,1.045l-2.035,0.891c-0.669,0.32-1.374,0.545-2.078,0.773
			l-2.105,0.691l-0.146,0.047l-0.232,0.027c-1.118,0.123-2.413,0.357-3.604,0.639c-1.216,0.275-2.396,0.658-3.544,1.088
			c-0.558,0.242-1.144,0.445-1.669,0.734l-0.81,0.404l-0.76,0.463c-1.029,0.605-1.889,1.373-2.688,2.178
			c-0.319,0.439-0.729,0.885-0.979,1.318c-0.114,0.217-0.234,0.43-0.361,0.641c-0.062,0.115-0.134,0.193-0.19,0.338l-0.157,0.473
			l-0.318,0.945l-0.04,0.117l-0.021,0.061l-0.01,0.029c-0.009,0.027,0.053-0.193,0.024-0.094l-0.004,0.016l-0.063,0.232
			l-0.124,0.477l-0.489,1.914c-0.642,2.561-1.231,5.137-1.797,7.719c-0.542,2.588-1.087,5.176-1.568,7.773
			c-0.253,1.299-0.472,2.602-0.685,3.906c-0.232,1.303-0.396,2.609-0.586,3.918c-0.202,1.309-0.323,2.619-0.489,3.934
			c-0.118,1.313-0.234,2.631-0.304,3.947c-0.02,1.316-0.137,2.646-0.049,3.955C207.66,865.172,207.874,866.494,208.052,867.812z"/>
	</g>
</g>
<g>
	<path fill="#1E120D" d="M273.58,337.486c0,0,0.087-1.04,0.238-2.86c0.14-1.818,0.34-4.415,0.579-7.532
		c0.236-3.12,0.49-6.762,0.726-10.667c0.116-1.952,0.271-3.97,0.364-6.021c0.105-2.051,0.212-4.135,0.318-6.218
		c0.118-2.085,0.21-4.169,0.267-6.221c0.069-2.053,0.138-4.074,0.203-6.029c0.089-1.958,0.077-3.845,0.094-5.638
		c0.013-1.794,0.025-3.49,0.036-5.055c0.039-1.569-0.044-2.998-0.09-4.269c-0.049-1.271-0.092-2.38-0.127-3.293
		c-0.071-1.829-0.111-2.874-0.111-2.874s0.118,1.038,0.325,2.854c0.104,0.91,0.229,2.014,0.374,3.281
		c0.141,1.268,0.332,2.7,0.409,4.266c0.106,1.566,0.222,3.263,0.343,5.058c0.118,1.796,0.271,3.691,0.329,5.651
		c0.081,1.961,0.164,3.988,0.249,6.047c0.097,2.061,0.161,4.154,0.199,6.246c0.05,2.093,0.1,4.187,0.147,6.248
		c0.061,2.063,0.057,4.089,0.087,6.052c0.057,3.926,0.076,7.591,0.074,10.733c-0.007,3.146-0.013,5.766-0.017,7.601
		c-0.015,1.831-0.023,2.877-0.023,2.877L273.58,337.486z"/>
</g>
<g>
	<path fill="#1E120D" d="M221.885,335.798c0,0,0.063-1.06,0.176-2.915c0.123-1.857,0.3-4.512,0.513-7.697
		c0.217-3.181,0.491-6.89,0.823-10.862c0.168-1.985,0.307-4.038,0.511-6.121c0.194-2.083,0.391-4.199,0.588-6.315
		c0.188-2.116,0.396-4.23,0.642-6.31c0.231-2.079,0.459-4.125,0.68-6.105c0.197-1.98,0.484-3.889,0.734-5.698
		c0.251-1.808,0.489-3.518,0.709-5.096c0.19-1.58,0.484-3.016,0.723-4.289c0.239-1.272,0.448-2.381,0.62-3.294
		c0.343-1.823,0.539-2.865,0.539-2.865s-0.119,1.055-0.327,2.9c-0.104,0.921-0.23,2.04-0.375,3.323
		c-0.144,1.282-0.33,2.723-0.403,4.314c-0.103,1.585-0.214,3.303-0.332,5.12c-0.115,1.815-0.26,3.726-0.312,5.713
		c-0.073,1.984-0.149,4.034-0.228,6.118c-0.09,2.081-0.143,4.198-0.174,6.316c-0.041,2.117-0.082,4.234-0.122,6.318
		c-0.049,2.083-0.037,4.136-0.058,6.121c-0.039,3.969-0.039,7.674-0.022,10.85c0.023,3.172,0.042,5.815,0.055,7.666
		c0.025,1.854,0.039,2.913,0.039,2.913L221.885,335.798z"/>
</g>
</svg>
