<?xml version="1.0" encoding="utf-8"?>
<!-- Generator: Adobe Illustrator 16.0.0, SVG Export Plug-In . SVG Version: 6.00 Build 0)  -->
<!DOCTYPE svg PUBLIC "-//W3C//DTD SVG 1.1//EN" "http://www.w3.org/Graphics/SVG/1.1/DTD/svg11.dtd">
<svg version="1.1" id="Layer_2" xmlns="http://www.w3.org/2000/svg" xmlns:xlink="http://www.w3.org/1999/xlink" x="0px" y="0px"
	 width="500px" height="900px" viewBox="0 0 500 900" enable-background="new 0 0 500 900" xml:space="preserve">
<g>
	<path fill="none" stroke="#000000" stroke-width="5" stroke-miterlimit="10" d="M393.857,371.168
		c-3.128-17.511,6.79-67.925,6.79-67.925c2.502-11.885,4.379-54.736,4.379-54.736c-2.502-30.97,15.638-92.249,15.638-92.249
		c4.378-18.764,17.514-26.27,17.514-26.27c12.51-0.625,16.285,18.138,16.285,18.138c6.279,12.511,22.493,74.433,22.493,74.433
		c18.764,60.67,16.195,147.61,16.195,147.61"/>
	<path fill="none" stroke="#000000" stroke-width="5" stroke-miterlimit="10" d="M489.153,454.923
		c-20.64,54.414-43.157,49.724-43.157,49.724c-20.329-3.128-21.58-26.581-21.58-26.581c-4.065-15.323-4.69-17.2-25.645-38.156
		c-0.32-0.317-0.63-0.641-0.935-0.964c-19.66-21.039-8.135-54.702-8.135-54.702c3.751-17.515,6.254-14.074,6.254-14.074
		c13.449-1.252,24.707,15.012,24.707,15.012c24.705,30.021,45.348,0,45.348,0c6.879-11.262,15.636-15.012,15.636-15.012
		c13.449-9.383,15.012,7.504,15.012,7.504C507.291,418.955,489.153,454.924,489.153,454.923z"/>
	<g>
		<path d="M402.247,440.266c0,0,0.169,0.136,0.486,0.39c0.341,0.273,0.719,0.57,1.292,0.979c0.562,0.413,1.26,0.855,2.049,1.274
			c0.395,0.204,0.812,0.39,1.215,0.521l0.302,0.089l0.074,0.024l0.186,0.042l0.225,0.055c0.269,0.057,0.678,0.181,1.085,0.313
			c1.488,0.508,2.813,1.248,4.161,2.124c1.333,0.88,2.632,1.908,3.888,3.044c2.511,2.275,4.858,4.979,6.897,7.875
			c2.049,2.891,3.805,5.955,5.211,8.929c0.717,1.479,1.324,2.946,1.88,4.343c0.545,1.398,1.009,2.74,1.413,3.983
			c0.387,1.247,0.727,2.396,0.991,3.423c0.287,1.018,0.468,1.928,0.651,2.663c0.308,1.485,0.483,2.337,0.483,2.337
			s-0.245-0.831-0.675-2.285c-0.245-0.718-0.5-1.603-0.87-2.588c-0.345-0.995-0.779-2.104-1.262-3.303
			c-0.502-1.193-1.07-2.473-1.72-3.801c-0.659-1.32-1.371-2.706-2.191-4.089c-1.611-2.779-3.562-5.599-5.749-8.194
			c-2.177-2.602-4.616-4.964-7.092-6.855c-1.237-0.945-2.485-1.767-3.699-2.429c-1.202-0.653-2.416-1.18-3.422-1.418
			c-0.218-0.049-0.416-0.105-0.766-0.152l-0.417-0.066c-0.193-0.035-0.388-0.069-0.576-0.104c-0.741-0.16-1.38-0.378-1.947-0.606
			c-1.128-0.463-2.032-0.936-2.738-1.353c-0.705-0.405-1.305-0.792-1.618-0.999c-0.34-0.225-0.521-0.342-0.521-0.342
			L402.247,440.266z"/>
	</g>
	<g>
		<path d="M495.556,376.162c0.005,0-0.044-0.014-0.08-0.035c-0.036-0.019-0.077-0.05-0.176-0.087
			c-0.179-0.079-0.455-0.179-0.796-0.29c-0.681-0.219-1.626-0.438-2.588-0.496c-0.481-0.029-0.959-0.003-1.415,0.062
			c-0.443,0.078-0.855,0.208-1.207,0.363c-0.328,0.175-0.623,0.345-0.786,0.506c-0.187,0.152-0.29,0.239-0.29,0.239
			s0.045-0.128,0.123-0.354c0.064-0.245,0.228-0.552,0.46-0.938c0.249-0.361,0.591-0.766,1.024-1.147
			c0.437-0.365,0.947-0.724,1.489-1.011c1.083-0.59,2.26-0.98,3.16-1.205c0.452-0.111,0.835-0.192,1.118-0.236
			c0.13-0.026,0.271-0.037,0.356-0.047c0.071-0.01,0.109-0.018,0.109-0.018L495.556,376.162z"/>
	</g>
	<g>
		<path d="M496.965,382.169c0.005,0.001-0.04-0.012-0.076-0.031c-0.037-0.021-0.069-0.05-0.162-0.084
			c-0.165-0.074-0.422-0.175-0.738-0.278c-0.632-0.214-1.508-0.433-2.389-0.49c-0.228-0.022-0.438-0.014-0.657-0.01
			c-0.225-0.001-0.417,0.043-0.633,0.063c-0.199,0.04-0.39,0.097-0.581,0.149c-0.177,0.081-0.345,0.158-0.5,0.227
			c-0.145,0.103-0.276,0.194-0.394,0.277c-0.126,0.084-0.19,0.193-0.271,0.269c-0.15,0.167-0.236,0.263-0.236,0.263
			s0.021-0.127,0.055-0.352c0.025-0.109,0.026-0.267,0.09-0.416c0.062-0.157,0.132-0.338,0.208-0.531
			c0.103-0.181,0.226-0.376,0.365-0.593c0.155-0.185,0.328-0.393,0.524-0.591c0.202-0.172,0.416-0.387,0.651-0.546
			c0.231-0.166,0.479-0.342,0.731-0.479c1.018-0.598,2.12-0.991,2.962-1.225c0.425-0.119,0.782-0.201,1.046-0.252
			c0.122-0.026,0.26-0.041,0.339-0.053c0.064-0.012,0.1-0.02,0.1-0.02L496.965,382.169z"/>
	</g>
</g>
<g>
	<path fill="none" stroke="#000000" stroke-width="5" stroke-miterlimit="10" d="M8.16,365.959
		c-3.127-100.076,5.442-117.126,5.442-117.126c2.499-17.517,11.882-83.187,11.882-83.187c0.94-20.019,7.194-29.398,7.194-29.398
		c12.823-26.586,31.271,9.069,31.271,9.069c23.455,49.413,29.085,121.967,29.085,121.967c1.25,15.638,6.256,51.288,6.256,51.288
		c8.134,18.763,9.09,50.438,9.09,50.438"/>
	<path fill="none" stroke="#000000" stroke-width="5" stroke-miterlimit="10" d="M115.748,405.828
		c-0.313,6.88-7.082,18.448-15.521,27.985c-17.514,14.54-23.457,42.689-23.457,42.689c-2.188,11.886-6.88,18.766-6.88,18.766
		c-16.889,18.139-28.457,0-28.457,0l-24.081-39.717C-7.667,414.27,5.155,376.741,5.155,376.741
		c2.188-12.198,3.003-10.782,3.003-10.782s9.168,2.527,19.047,7.656c8.257,4.288,16.949,11.216,21.735,12.198
		c10.512,2.15,18.92-2.504,26.27-10.167c8.731-9.105,21.267-11.104,21.267-11.104c11.616-0.959,16.107,11.264,16.107,11.264
		C116.334,385.523,115.75,405.828,115.748,405.828z"/>
	<g>
		<path d="M96.817,430.035c-0.44,0.647-0.869,1.312-1.326,1.949c-0.46,0.636-0.903,1.287-1.381,1.912
			c-0.47,0.629-0.969,1.234-1.452,1.854l-1.486,1.828c-0.491,0.611-1.031,1.19-1.577,1.769c-1.096,1.148-2.2,2.296-3.33,3.422
			l-0.263,0.188l-0.604,0.599c-0.245,0.211-0.482,0.504-0.719,0.792c-0.479,0.563-0.959,1.116-1.389,1.772
			c-0.436,0.637-0.897,1.242-1.316,1.897l-1.203,2.031c-0.392,0.683-0.843,1.326-1.173,2.06c-0.359,0.714-0.71,1.434-1.086,2.14
			c-0.366,0.712-0.754,1.407-1.102,2.136l-0.981,2.215l-1.018,2.209c-0.32,0.745-0.734,1.451-1.009,2.222
			c-0.603,1.517-1.238,3.025-1.896,4.534l-1.013,2.263l-0.133,0.281c-0.017,0.026-0.059,0.147-0.054,0.089l-0.057,0.15l-0.232,0.596
			l-0.479,1.176c-0.318,0.785-0.697,1.549-1.092,2.307c-0.192,0.378-0.405,0.75-0.647,1.106c-0.243,0.353-0.484,0.733-0.847,0.974
			c0.394-0.735,0.448-1.578,0.611-2.381c0.138-0.811,0.22-1.637,0.338-2.449l0.148-1.227l0.063-0.608l0.017-0.152l0.041-0.206
			l0.055-0.311l0.503-2.469c0.35-1.643,0.724-3.285,1.129-4.923c0.176-0.825,0.484-1.616,0.744-2.421l0.822-2.402l0.854-2.396
			c0.327-0.785,0.709-1.554,1.063-2.333l1.104-2.317c0.348-0.778,0.815-1.52,1.27-2.259l1.363-2.218
			c0.491-0.723,1.071-1.41,1.604-2.113c0.284-0.345,0.517-0.709,0.845-1.035l0.963-0.981c0.318-0.326,0.633-0.652,1.032-0.962
			c0.393-0.318,0.699-0.6,1.316-0.974l-0.265,0.188c1.161-0.96,2.349-1.898,3.542-2.836c0.606-0.457,1.212-0.922,1.788-1.436
			l1.781-1.474c0.605-0.482,1.197-0.977,1.816-1.449c0.617-0.474,1.208-0.977,1.812-1.466c0.603-0.493,1.233-0.961,1.851-1.444
			c0.624-0.477,1.243-0.962,1.889-1.424C97.652,428.713,97.25,429.389,96.817,430.035z"/>
	</g>
	<g>
		<path d="M6.8,371.396c0,0,0.038,0.006,0.108,0.016c0.087,0.009,0.226,0.023,0.357,0.047c0.282,0.045,0.665,0.125,1.117,0.237
			c0.897,0.225,2.075,0.618,3.158,1.205c0.542,0.289,1.051,0.646,1.487,1.011c0.434,0.38,0.776,0.785,1.025,1.148
			c0.232,0.385,0.395,0.692,0.461,0.937c0.078,0.228,0.123,0.356,0.123,0.356s-0.105-0.087-0.29-0.24
			c-0.095-0.071-0.186-0.171-0.329-0.25c-0.137-0.076-0.29-0.162-0.458-0.255c-0.351-0.156-0.763-0.286-1.207-0.364
			c-0.456-0.063-0.932-0.091-1.414-0.06c-0.963,0.056-1.907,0.275-2.588,0.495c-0.34,0.108-0.616,0.211-0.794,0.287
			c-0.1,0.037-0.141,0.067-0.177,0.089c-0.035,0.019-0.085,0.034-0.079,0.033L6.8,371.396z"/>
	</g>
	<g>
		<path d="M5.451,377.393c0,0,0.037,0.006,0.103,0.018c0.078,0.012,0.214,0.027,0.337,0.054c0.265,0.052,0.623,0.134,1.046,0.251
			c0.842,0.234,1.946,0.629,2.962,1.225c0.253,0.136,0.5,0.313,0.733,0.479c0.233,0.158,0.449,0.373,0.649,0.546
			c0.195,0.197,0.368,0.405,0.524,0.593c0.13,0.21,0.253,0.406,0.367,0.591c0.076,0.194,0.145,0.374,0.208,0.533
			c0.063,0.148,0.063,0.306,0.09,0.416c0.033,0.223,0.053,0.35,0.053,0.35s-0.086-0.095-0.234-0.262
			c-0.08-0.077-0.146-0.186-0.273-0.27c-0.118-0.082-0.248-0.174-0.392-0.275c-0.155-0.071-0.323-0.147-0.5-0.229
			c-0.193-0.052-0.385-0.107-0.581-0.147c-0.219-0.021-0.408-0.065-0.635-0.064c-0.219-0.004-0.429-0.012-0.655,0.01
			c-0.882,0.058-1.757,0.277-2.392,0.49c-0.313,0.105-0.57,0.204-0.736,0.278c-0.095,0.035-0.126,0.064-0.162,0.084
			c-0.036,0.019-0.08,0.033-0.076,0.033L5.451,377.393z"/>
	</g>
</g>
<g>
	<path fill="none" stroke="#000000" stroke-width="4.7214" stroke-miterlimit="10" d="M214.999,777.331
		c0.453-14.073,0.016-74.431,0.016-74.431c-0.472-43.627,10.79-87.254,10.79-87.254c2.346-14.073,0-85.376,0-85.376
		c5.629-29.084,26.269-4.222,26.269-4.222c11.256,12.193,19.233,45.504,19.233,45.504c8.44,29.084,10.317,86.781,10.317,86.781
		c5.632,33.773,7.638,139.031,7.638,139.031"/>
	<path fill="none" stroke="#000000" stroke-width="4.7214" stroke-miterlimit="10" d="M300.706,836.902
		c4.689,24.394-10.635,36.279-10.635,36.279l-21.267,14.386c-21.892,11.884-33.776,0-33.776,0l-31.271-29.396
		c-16.889-18.142,3.752-56.606,3.752-56.606c5.315-13.136,7.491-25.084,7.491-25.084c7.49-0.067,12.839-9.005,12.839-9.005
		c9.064-16.887,23.521-14.383,23.521-14.383c17.272,0,28.077,25.642,28.077,25.642c9.069,13.761,10.632,21.27,10.632,21.27
		L300.706,836.902z"/>
	<g>
		<path d="M257.161,823.747c-0.025-0.422,0.022-0.847,0.042-1.271l0.09-1.278c0.048-0.86,0.151-1.71,0.267-2.549
			s0.191-1.695,0.358-2.525c0.288-1.678,0.608-3.351,0.971-5.012c0.36-1.667,0.781-3.302,1.234-4.968l0.11-0.407l1.058-0.531
			c0.063-0.03,0.112-0.042,0.181-0.063l0.252-0.117c0.189-0.106,0.383-0.219,0.588-0.365c0.201-0.14,0.408-0.298,0.609-0.465
			c0.205-0.166,0.408-0.342,0.61-0.525c0.401-0.371,0.797-0.761,1.192-1.158l0.579-0.611l0.544-0.61l1.475-1.659l1.24,1.917
			c0.33,0.509,0.594,0.968,0.889,1.452l0.821,1.438c0.557,0.958,1.04,1.939,1.561,2.908c0.514,0.973,0.97,1.969,1.444,2.958
			c0.489,0.984,0.9,1.998,1.343,3c0.438,1.005,0.887,2.007,1.266,3.032l1.184,3.063c0.414,1.018,0.722,2.068,1.083,3.1l1.046,3.11
			l-0.053-0.154c0.473,1.194,0.912,2.393,1.341,3.591c0.444,1.191,0.868,2.396,1.264,3.622l0.604,1.826
			c0.194,0.614,0.412,1.202,0.565,1.859l1.007,3.855l-0.146-0.472c0.263,0.667,0.402,1.129,0.542,1.684
			c0.142,0.531,0.234,1.064,0.329,1.597c0.079,0.535,0.141,1.071,0.183,1.608c0.016,0.54,0.067,1.076,0.04,1.617
			c-0.034,0.539-0.019,1.081-0.101,1.617c-0.081,0.536-0.123,1.078-0.245,1.605l-0.393,1.578l-0.558,1.523
			c-0.174,0.513-0.46,0.976-0.688,1.46l-0.365,0.72l-0.437,0.673c-0.296,0.44-0.585,0.893-0.899,1.317l-1.027,1.2
			c-0.174,0.197-0.34,0.404-0.52,0.592l-0.57,0.53l-1.144,1.055c-0.386,0.348-0.817,0.619-1.226,0.929l-1.238,0.896l0.152-0.121
			l-3.742,2.998c-1.252,0.994-2.481,2.01-3.753,2.985l-0.252,0.192l-0.14,0.056l-5.479,2.073l-1.367,0.521l-0.688,0.254
			l-0.284,0.102c-0.101,0.049-0.52,0.075-0.604,0.035c-0.135-0.023-0.288-0.07-0.393-0.124c-0.398-0.217-0.545-0.438-0.694-0.642
			c-0.425-0.736-0.461-1.25-0.563-1.799c-0.078-0.537-0.106-1.049-0.133-1.562c-0.031-1.017-0.01-2.013,0.041-3.003
			c0.069-0.987,0.15-1.969,0.257-2.948c0.195-1.956,0.496-3.894,0.823-5.825l0.082,2.935c0.051,0.977,0.053,1.951,0.113,2.922
			c0.041,0.97,0.106,1.938,0.188,2.901c0.081,0.959,0.176,1.913,0.324,2.839c0.082,0.458,0.167,0.913,0.285,1.334
			c0.104,0.397,0.286,0.855,0.394,0.948c0.002-0.016,0.012-0.043-0.169-0.146c-0.05-0.025-0.141-0.063-0.217-0.072
			c-0.028-0.021-0.382-0.006-0.425,0.035l0.011-0.004c-0.046,0.02,0.116-0.043-0.106,0.04l0.007-0.003l0.021-0.01l0.041-0.021
			l0.081-0.042l0.653-0.331l1.312-0.65l5.246-2.605l-0.393,0.246c1.151-1.111,2.34-2.178,3.509-3.269l3.519-3.259l0.156-0.119
			l1.002-0.846c0.326-0.288,0.683-0.545,0.989-0.847l0.896-0.92l0.45-0.456c0.137-0.16,0.258-0.333,0.389-0.498l0.771-0.994
			c0.229-0.346,0.424-0.711,0.646-1.061l0.321-0.527l0.253-0.559c0.154-0.377,0.373-0.729,0.481-1.121l0.378-1.156l0.246-1.188
			c0.078-0.396,0.093-0.804,0.148-1.202c0.061-0.401,0.028-0.813,0.051-1.214c0.015-0.406-0.042-0.813-0.058-1.22
			c-0.042-0.401-0.099-0.807-0.164-1.207c-0.082-0.396-0.159-0.795-0.27-1.176c-0.092-0.366-0.244-0.805-0.326-1.018l-0.065-0.17
			l-0.081-0.303l-0.936-3.455c-0.135-0.568-0.36-1.166-0.548-1.751l-0.578-1.766c-0.37-1.177-0.776-2.354-1.201-3.528l-1.259-3.512
			L274.775,827l-0.016-0.055l-0.95-3.037c-0.328-1.008-0.611-2.034-0.968-3.031l-1.04-3.008c-0.331-1.008-0.735-1.987-1.103-2.982
			c-0.38-0.988-0.729-1.993-1.15-2.963c-0.416-0.975-0.8-1.966-1.22-2.936c-0.434-0.961-0.834-1.949-1.296-2.891l-0.683-1.421
			c-0.234-0.454-0.476-0.948-0.703-1.361l2.715,0.258l-0.688,0.673l-0.693,0.638c-0.468,0.419-0.959,0.815-1.475,1.202
			c-0.26,0.191-0.523,0.38-0.8,0.563c-0.273,0.181-0.558,0.359-0.864,0.528c-0.295,0.17-0.635,0.327-0.981,0.473l-0.584,0.191
			c-0.216,0.053-0.462,0.09-0.691,0.123l1.17-0.938c-0.594,1.533-1.143,3.122-1.694,4.695c-0.56,1.578-1.073,3.166-1.561,4.766
			c-0.258,0.799-0.456,1.605-0.695,2.408c-0.238,0.807-0.464,1.611-0.632,2.42l-0.281,1.219c-0.093,0.408-0.216,0.813-0.266,1.234
			l-0.391,2.507L257.161,823.747z"/>
	</g>
	<g>
		<path d="M241.24,821.261c-0.047-0.419-0.161-0.824-0.25-1.232l-0.264-1.218c-0.158-0.809-0.367-1.613-0.591-2.42
			c-0.228-0.805-0.408-1.612-0.646-2.412c-0.453-1.603-0.927-3.199-1.443-4.782c-0.504-1.583-1.015-3.177-1.562-4.723l1.186,0.99
			c-0.23-0.038-0.487-0.08-0.696-0.144c-0.188-0.064-0.387-0.135-0.565-0.211c-0.336-0.153-0.646-0.321-0.923-0.498
			c-0.556-0.351-1.053-0.725-1.519-1.112c-0.468-0.388-0.904-0.789-1.323-1.204l-0.62-0.632l-0.615-0.666l2.816-0.259
			c-0.331,0.74-0.686,1.438-0.985,2.223l-0.935,2.299c-0.306,0.768-0.647,1.514-0.896,2.313l-0.827,2.354l-0.826,2.348
			c-0.265,0.788-0.578,1.554-0.817,2.352l-1.39,4.793l-1.426,4.775l-1.57,4.906c-0.512,1.584-0.937,3.187-1.43,4.771
			c-0.261,0.804-0.404,1.569-0.607,2.353l-0.572,2.336l-0.064,0.271l-0.058,0.163c-0.077,0.224-0.216,0.66-0.302,1.025
			c-0.1,0.381-0.173,0.776-0.245,1.172c-0.132,0.796-0.2,1.604-0.214,2.411c0.013,0.402,0.002,0.808,0.033,1.209l0.114,1.2
			l0.223,1.185c0.081,0.394,0.218,0.771,0.322,1.159c0.091,0.395,0.263,0.758,0.412,1.131c0.159,0.371,0.283,0.756,0.498,1.104
			l0.574,1.073c0.215,0.347,0.465,0.673,0.694,1.014c0.229,0.339,0.461,0.681,0.753,0.979l0.825,0.939
			c0.258,0.327,0.604,0.584,0.903,0.882l0.932,0.87l0.15,0.131l3.155,3.247c1.049,1.085,2.114,2.158,3.145,3.262l-0.396-0.272
			l4.975,2.729l1.243,0.684l0.312,0.174l0.077,0.044l0.005,0.003c-0.238-0.1-0.063-0.027-0.115-0.048l0.011,0.004
			c0.037,0.013-0.068-0.026-0.108-0.034c-0.107-0.029-0.235-0.031-0.33-0.017c-0.1,0.007-0.201,0.037-0.287,0.086
			c-0.052,0.021-0.088,0.044-0.126,0.075c-0.185,0.182-0.02,0.07,0.021-0.076c0.145-0.287,0.254-0.729,0.351-1.145
			c0.09-0.428,0.169-0.875,0.23-1.328c0.129-0.906,0.211-1.834,0.285-2.767c0.083-0.932,0.139-1.873,0.188-2.813l0.124-2.83
			l0.102-2.844c0.308,1.874,0.593,3.751,0.785,5.646c0.101,0.948,0.191,1.896,0.257,2.852c0.062,0.957,0.092,1.916,0.083,2.896
			c-0.004,0.488-0.025,0.98-0.067,1.488c-0.053,0.512-0.094,1.011-0.281,1.611c-0.032,0.135-0.107,0.313-0.193,0.487
			c-0.034,0.079-0.084,0.174-0.176,0.293c-0.096,0.116-0.125,0.195-0.322,0.345c-0.086,0.067-0.168,0.124-0.27,0.18
			c-0.144,0.065-0.304,0.113-0.457,0.137c-0.123,0.013-0.28,0.007-0.418-0.021l-0.153-0.039l-0.011-0.003l-0.133-0.054l-0.082-0.033
			l-0.326-0.135l-1.308-0.553l-5.224-2.213l-0.146-0.063l-0.249-0.213c-1.147-0.98-2.265-1.994-3.396-2.994l-3.384-3.01l0.148,0.131
			l-1.174-0.939c-0.381-0.33-0.802-0.604-1.152-0.977l-1.065-1.092c-0.37-0.354-0.686-0.76-0.997-1.168
			c-0.313-0.41-0.641-0.807-0.937-1.232l-0.811-1.332c-0.288-0.434-0.476-0.924-0.7-1.396c-0.215-0.477-0.448-0.947-0.594-1.451
			c-0.16-0.499-0.348-0.991-0.476-1.499l-0.345-1.533l-0.204-1.556c-0.051-0.521-0.053-1.042-0.078-1.563
			c-0.007-1.043,0.061-2.084,0.206-3.119c0.08-0.517,0.164-1.033,0.287-1.551c0.121-0.537,0.242-0.992,0.474-1.638l-0.122,0.434
			l0.604-2.584c0.212-0.852,0.384-1.746,0.644-2.551c0.482-1.644,0.961-3.294,1.487-4.919l0.798-2.438l0.405-1.208l0.374-1.064
			l1.573-4.889l1.607-4.872c0.274-0.811,0.629-1.598,0.946-2.393l0.979-2.378l0.979-2.374c0.315-0.795,0.73-1.559,1.104-2.334
			l1.144-2.313c0.359-0.769,0.823-1.55,1.244-2.32l1.227-2.252l1.592,1.994l0.476,0.598l0.51,0.599
			c0.349,0.394,0.701,0.773,1.056,1.14c0.354,0.362,0.722,0.695,1.078,0.979c0.181,0.143,0.351,0.254,0.511,0.355l0.205,0.106
			c0.053,0.026,0.073,0.026,0.112,0.057l1.164,0.901l0.021,0.087l0.574,2.487c0.171,0.83,0.372,1.65,0.517,2.486
			c0.315,1.662,0.588,3.334,0.836,5.008c0.144,0.832,0.211,1.681,0.305,2.521c0.099,0.84,0.183,1.684,0.217,2.539l0.067,1.273
			c0.012,0.423,0.05,0.845,0.022,1.264l-0.101,2.521L241.24,821.261z"/>
	</g>
	<g>
		<path d="M230.564,768.645c0,0-0.148,0.448-0.408,1.229c-0.24,0.775-0.732,1.936-1.251,3.289c-0.264,0.678-0.552,1.412-0.855,2.189
			c-0.299,0.779-0.698,1.537-1.063,2.354c-0.751,1.615-1.553,3.336-2.354,5.061c-0.401,0.855-0.783,1.721-1.248,2.533
			c-0.445,0.816-0.882,1.625-1.305,2.402c-0.843,1.559-1.629,3.011-2.303,4.254c-1.345,2.482-2.241,4.136-2.241,4.136
			s0.628-1.775,1.569-4.438c0.468-1.328,1.015-2.876,1.601-4.535c0.293-0.827,0.595-1.682,0.901-2.551
			c0.328-0.858,0.567-1.768,0.826-2.666c0.513-1.792,1.026-3.585,1.507-5.266c0.225-0.838,0.501-1.646,0.66-2.414
			c0.169-0.765,0.329-1.488,0.475-2.156c0.283-1.343,0.564-2.403,0.685-3.229c0.134-0.812,0.21-1.275,0.21-1.275L230.564,768.645z"
			/>
	</g>
</g>
<g>
	<path fill="none" stroke="#000000" stroke-width="4.7214" stroke-miterlimit="10" d="M272.865,405.736
		c3.282,4.223,34.244,19.704,30.961,44.265c-3.283,24.555-11.728,21.882-32.838,44.864c-21.106,22.992-35.183,5.162-39.873,2.35
		c-4.688-2.814-19.702-22.984-19.702-22.984c-10.787-10.791-15.479-28.148-15.479-28.148c-0.467-26.735,32.135-52.539,55.354-52.539
		C261.3,393.543,269.583,401.519,272.865,405.736z"/>
	<g>
		<path d="M290.006,461.427c0.129-0.701,0.227-1.76,0.056-3.029c-0.169-1.267-0.771-2.713-1.969-3.871
			c-1.196-1.17-2.984-1.994-5.063-2.53c-2.098-0.51-4.483-0.726-7.032-0.785c-2.554-0.031-5.282,0.09-7.998,0.456
			c-1.356,0.19-2.718,0.434-4.02,0.786c-1.295,0.353-2.548,0.829-3.511,1.442l-1.144,0.619c-0.464,0.197-0.935,0.384-1.412,0.563
			c-0.868,0.275-1.707,0.507-2.555,0.643c-1.686,0.297-3.364,0.432-5.027,0.408c-1.664-0.023-3.317-0.16-4.959-0.455
			c-1.641-0.276-3.263-0.701-4.861-1.354c-0.399-0.144-0.794-0.323-1.19-0.532c-0.395-0.202-0.788-0.373-1.174-0.641
			c-0.384-0.268-0.773-0.463-1.139-0.797l-0.918-0.801l-0.418-0.367c-0.139-0.119-0.291-0.269-0.378-0.3
			c-0.215-0.122-0.37-0.253-0.613-0.396l-0.809-0.429l-0.871-0.375c-2.395-0.921-5.055-1.444-7.575-1.738
			c-1.241-0.138-2.566-0.258-3.61-0.241c-1.171,0.016-2.318,0.115-3.392,0.278c-2.133,0.353-4.065,0.938-5.315,1.951
			c-1.268,0.989-1.661,2.447-1.53,3.71c0.111,1.262,0.528,2.258,0.783,2.924c0.3,0.66,0.459,1.012,0.459,1.012
			s-0.242-0.305-0.695-0.879c-0.392-0.611-1.077-1.482-1.471-2.885c-0.208-0.693-0.308-1.535-0.165-2.467
			c0.135-0.937,0.633-1.903,1.356-2.707c1.464-1.634,3.639-2.632,5.984-3.305c1.183-0.334,2.422-0.6,3.736-0.782
			c1.444-0.188,2.701-0.143,4.099-0.126c2.752,0.083,5.686,0.329,8.752,1.313l1.157,0.414l1.162,0.537
			c0.403,0.206,0.851,0.5,1.265,0.764c0.239,0.146,0.358,0.256,0.507,0.371l0.434,0.351l0.109,0.087l0.055,0.044
			c-0.015-0.018,0.249,0.223,0.145,0.128l0.021,0.015l0.159,0.119l0.311,0.244c0.187,0.175,0.492,0.298,0.729,0.455
			c0.23,0.164,0.54,0.28,0.818,0.416c0.279,0.14,0.575,0.264,0.894,0.368c1.222,0.472,2.589,0.772,3.973,1.001
			c1.383,0.242,2.814,0.34,4.229,0.353c1.419,0.038,2.828-0.073,4.164-0.295c0.672-0.101,1.313-0.274,1.907-0.433
			c0.239-0.09,0.481-0.168,0.729-0.239l0.51-0.257l0.254-0.128l0.127-0.064l0.063-0.032l0.03-0.016
			c-0.05,0.03,0.16-0.089-0.104,0.063c1.631-0.977,3.27-1.471,4.854-1.829c1.589-0.355,3.137-0.56,4.652-0.666
			c3.039-0.245,5.913-0.08,8.646,0.19c2.736,0.274,5.333,0.838,7.646,1.726c1.148,0.47,2.242,0.973,3.192,1.645
			c0.947,0.668,1.77,1.438,2.398,2.279c1.294,1.688,1.622,3.594,1.539,5c-0.063,1.432-0.456,2.473-0.729,3.149
			c-0.288,0.681-0.511,1.001-0.511,1.001S289.879,462.132,290.006,461.427z"/>
	</g>
	<g>
		<path d="M277.865,472.525c-0.286,0.569-0.655,1.244-1.11,1.995c-0.44,0.764-0.969,1.602-1.576,2.494
			c-1.222,1.785-2.75,3.787-4.646,5.774c-0.951,0.998-1.997,1.984-3.228,2.93c-0.64,0.462-1.299,0.924-2.184,1.344l-0.168,0.075
			l-0.085,0.037l-0.042,0.019l-0.141,0.053l-0.281,0.095c-0.163,0.049-0.404,0.109-0.508,0.131l-0.282,0.055
			c-0.556,0.092-0.593,0.134-1.364,0.185c-0.63,0.034-1.146-0.015-1.759-0.173c-0.591-0.141-1.176-0.422-1.696-0.771
			c-1.037-0.73-1.649-1.714-2.016-2.59c-0.728-1.78-0.771-3.347-0.782-4.801c0.029-1.457,0.196-2.8,0.425-4.049
			c0.229-1.247,0.51-2.396,0.813-3.442c0.297-1.046,0.644-1.985,0.933-2.813c0.292-0.828,0.614-1.53,0.854-2.11
			c0.509-1.156,0.859-1.798,0.859-1.798s0.006,0.729-0.022,1.981c-0.029,1.236-0.07,3.002-0.12,5.12
			c-0.014,1.046-0.021,2.169,0.003,3.339c0.03,1.166,0.078,2.383,0.242,3.57c0.14,1.17,0.411,2.38,0.829,3.145
			c0.211,0.376,0.423,0.59,0.556,0.653c0.078,0.022,0.128,0.056,0.229,0.061c0.067,0.015,0.268,0.024,0.339,0.013
			c-0.062,0.041,0.591-0.084,0.727-0.115l0.234-0.051c0.068-0.018-0.003-0.006,0.005,0.003l0.219-0.077l0.017-0.006
			c0.1-0.038-0.119,0.047-0.096,0.035l0.02-0.01l0.035-0.019l0.069-0.035c0.394-0.173,0.905-0.488,1.396-0.833
			c1.006-0.699,2.018-1.521,3-2.33c1.996-1.668,3.86-3.227,5.457-4.562c0.815-0.675,1.581-1.282,2.271-1.812
			c0.682-0.541,1.287-1.002,1.805-1.371c1.012-0.754,1.636-1.151,1.636-1.151S278.461,471.402,277.865,472.525z"/>
	</g>
	<g>
		<path d="M269.268,450.865c0,0-0.153,0.139-0.423,0.375c-0.246,0.202-0.624,0.592-1.076,1.036
			c-0.429,0.474-0.965,1.008-1.482,1.639c-0.525,0.622-1.092,1.296-1.607,2.008c-0.269,0.354-0.533,0.708-0.796,1.056
			c-0.243,0.362-0.484,0.718-0.716,1.063c-0.233,0.35-0.459,0.687-0.673,1.005c-0.221,0.318-0.385,0.639-0.562,0.926
			c-0.687,1.166-1.143,1.942-1.143,1.942s0.185-0.888,0.456-2.218c0.075-0.333,0.131-0.705,0.238-1.08
			c0.101-0.379,0.21-0.777,0.32-1.191c0.113-0.417,0.229-0.848,0.348-1.285c0.142-0.434,0.285-0.871,0.43-1.31
			c0.276-0.886,0.613-1.754,0.936-2.57c0.309-0.825,0.672-1.568,0.959-2.225c0.322-0.646,0.573-1.177,0.813-1.585
			c0.213-0.374,0.335-0.588,0.335-0.588L269.268,450.865z"/>
	</g>
	<g>
		<path d="M223.875,470.185c0.859,0.859,2.031,2.117,3.386,3.628c0.67,0.753,1.393,1.57,2.161,2.431
			c0.76,0.856,1.552,1.755,2.381,2.65c0.814,0.902,1.678,1.799,2.544,2.591c0.438,0.377,0.869,0.771,1.266,1.023
			c0.195,0.129,0.386,0.232,0.514,0.29l0.052,0.027l0.007,0.004c0.013,0.006-0.113-0.043-0.051-0.02l0.027,0.012l0.062,0.022
			c0.079,0.031,0.179,0.07,0.147,0.055c-0.021-0.004,0.056,0.018-0.005,0.006l-0.013,0.002l-0.003,0.001
			c0.033,0.001-0.313-0.007-0.158-0.004h0.031h0.128h0.127l0.06-0.001l-0.039-0.006c-0.056-0.004-0.109,0.002-0.159,0.022
			c-0.033,0.006-0.052,0.007-0.072,0.021c-0.096,0.031-0.174,0.131-0.154,0.13c0.044-0.011,0.246-0.384,0.351-0.851
			c0.246-0.961,0.327-2.196,0.373-3.384c0.076-2.403,0.016-4.771,0.014-6.8c-0.012-2.032,0.023-3.756,0.078-4.967
			c0.052-1.21,0.123-1.911,0.123-1.911s1.225,2.526,2.386,6.5c0.575,1.993,1.164,4.335,1.467,7.015
			c0.142,1.35,0.229,2.761-0.015,4.428c-0.161,0.832-0.368,1.785-1.146,2.852c-0.398,0.53-1.026,1.055-1.753,1.338
			c-0.183,0.068-0.357,0.132-0.553,0.184c-0.218,0.046-0.44,0.083-0.662,0.104l-0.166,0.017l-0.065,0.002l-0.128,0.002l-0.127,0.003
			l-0.03,0.001l-0.19-0.005l-0.034-0.003l-0.139-0.015c-0.396-0.04-0.652-0.104-0.996-0.208l-0.33-0.111l-0.191-0.074l-0.179-0.08
			c-0.492-0.219-0.878-0.471-1.242-0.721c-0.718-0.506-1.293-1.021-1.818-1.563c-1.053-1.063-1.903-2.164-2.674-3.248
			c-1.523-2.177-2.676-4.314-3.563-6.199c-0.883-1.883-1.489-3.515-1.857-4.684c-0.381-1.16-0.526-1.855-0.526-1.855
			S223.042,469.314,223.875,470.185z"/>
	</g>
	<g>
		<path d="M233.786,445.865c0,0,0.099,0.235,0.269,0.646c0.083,0.215,0.211,0.497,0.298,0.777c0.094,0.288,0.204,0.614,0.322,0.969
			c0.114,0.352,0.209,0.739,0.321,1.144c0.108,0.406,0.235,0.827,0.318,1.275c0.092,0.44,0.185,0.897,0.282,1.362
			c0.109,0.458,0.149,0.941,0.222,1.412c0.063,0.47,0.127,0.94,0.19,1.403c0.047,0.465,0.063,0.926,0.093,1.367
			c0.024,0.438,0.052,0.865,0.075,1.266c0.035,0.399,0.004,0.784,0.002,1.134c-0.036,1.39-0.059,2.315-0.059,2.315
			s-0.269-0.88-0.672-2.201c-0.106-0.324-0.189-0.682-0.35-1.044c-0.145-0.364-0.298-0.745-0.456-1.141
			c-0.161-0.393-0.311-0.8-0.491-1.203c-0.195-0.396-0.394-0.8-0.591-1.202c-0.204-0.4-0.375-0.805-0.608-1.178
			c-0.218-0.375-0.433-0.746-0.641-1.104c-0.196-0.358-0.429-0.684-0.634-0.997c-0.211-0.308-0.397-0.608-0.589-0.865
			s-0.367-0.489-0.523-0.696c-0.155-0.217-0.289-0.348-0.397-0.48c-0.236-0.275-0.374-0.433-0.374-0.433L233.786,445.865z"/>
	</g>
</g>
<g>
	<path fill="none" stroke="#000000" stroke-width="4.7214" stroke-miterlimit="10" d="M300.281,321.435
		c-1.923,27.3-21.057,44.097-21.057,44.097c-22.403,22.404-28.874,17.271-28.874,17.271c-11.137-0.935-20.598-9.335-20.598-9.335
		c-6.532-4.199-22.4-16.335-22.4-16.335c-18.203-13.067,0-64.403,0-64.403c7.465-28.938,5.598-75.604,5.598-75.604
		c0.473-55.069,27.307-170.811,27.307-170.811c11.197-45.038,26.834-41.07,26.834-41.07c17.733,3.502,13.532,47.917,13.532,47.917
		c-2.487,23.026,0,50.404,0,50.404c8.091,31.114,7.468,113.871,7.468,113.871c-0.777,36.987,0.879,54.974,2.229,63.259
		C291.127,285.647,301.514,303.974,300.281,321.435z"/>
	<path fill="none" stroke="#000000" stroke-width="4.7214" stroke-miterlimit="10" d="M211.096,271.278
		c10.431-28.604,30.327-31.44,30.327-31.44c30.487-3.732,47.293,25.472,47.293,25.472"/>
	<g>
		<path d="M261.109,252.07c-0.831-0.279-1.735-0.557-2.689-0.843c-0.955-0.287-1.975-0.529-3.02-0.788
			c-1.048-0.25-2.145-0.438-3.25-0.614c-1.107-0.187-2.239-0.281-3.368-0.333c-1.127-0.059-2.255-0.063-3.354,0.039
			c-1.097,0.106-2.18,0.22-3.198,0.472c-1.022,0.233-1.997,0.526-2.902,0.871c-0.894,0.362-1.743,0.733-2.487,1.155
			c-0.384,0.195-0.737,0.405-1.063,0.624c-0.335,0.211-0.652,0.412-0.95,0.6c-0.555,0.436-1.083,0.778-1.479,1.104
			c-0.785,0.664-1.263,1.039-1.263,1.039s0.32-0.499,0.926-1.366c0.313-0.423,0.737-0.903,1.227-1.461
			c0.535-0.502,1.103-1.139,1.855-1.669c0.715-0.582,1.56-1.131,2.501-1.627c0.942-0.492,1.979-0.958,3.101-1.277
			c0.559-0.17,1.13-0.331,1.72-0.44c0.585-0.146,1.188-0.227,1.794-0.29c1.216-0.14,2.456-0.168,3.688-0.126
			c1.229,0.084,2.453,0.216,3.635,0.443c1.188,0.2,2.325,0.533,3.414,0.858c1.089,0.33,2.114,0.728,3.068,1.136
			c0.959,0.396,1.836,0.834,2.632,1.257c3.194,1.691,4.979,3.317,4.979,3.317S264.424,253.203,261.109,252.07z"/>
	</g>
	<g>
		<path d="M265.205,261.135c-0.906-0.483-2.215-1.137-3.813-1.807c-0.797-0.338-1.677-0.658-2.604-0.985
			c-0.929-0.323-1.928-0.591-2.951-0.865c-2.066-0.49-4.301-0.847-6.539-0.862c-1.117-0.008-2.239,0.012-3.332,0.16
			c-0.549,0.058-1.09,0.136-1.621,0.23c-0.538,0.074-1.06,0.196-1.572,0.321c-0.522,0.103-1.011,0.272-1.505,0.406
			c-0.496,0.125-0.971,0.286-1.429,0.456c-0.931,0.309-1.776,0.692-2.579,1.017c-0.769,0.394-1.518,0.688-2.129,1.041
			c-0.617,0.347-1.193,0.604-1.625,0.879c-0.892,0.52-1.419,0.805-1.419,0.805s0.399-0.438,1.137-1.181
			c0.358-0.382,0.848-0.784,1.408-1.256c0.545-0.494,1.233-0.95,1.973-1.474c0.769-0.477,1.596-1.023,2.549-1.454
			c0.467-0.237,0.953-0.469,1.469-0.667c0.51-0.218,1.038-0.412,1.592-0.573c0.547-0.174,1.106-0.347,1.688-0.471l0.872-0.207
			l0.896-0.133c1.199-0.189,2.437-0.247,3.667-0.26c1.231,0.054,2.463,0.15,3.65,0.366c1.198,0.18,2.336,0.53,3.427,0.864
			c2.169,0.724,4.082,1.672,5.604,2.646c1.535,0.953,2.69,1.916,3.461,2.623c0.767,0.711,1.146,1.175,1.146,1.175
			S266.115,261.617,265.205,261.135z"/>
	</g>
	<g>
		<path d="M271.1,370.598c0,0,0.052-0.224,0.152-0.641c0.097-0.415,0.233-1.022,0.41-1.798c0.348-1.564,0.817-3.816,1.31-6.539
			c0.252-1.358,0.506-2.836,0.753-4.401c0.268-1.565,0.482-3.225,0.736-4.938c0.228-1.716,0.45-3.493,0.657-5.301
			c0.17-1.811,0.405-3.648,0.526-5.493c0.142-1.844,0.302-3.691,0.371-5.51c0.099-1.821,0.182-3.614,0.194-5.351
			c0.043-1.737,0.068-3.418,0.022-5.01c-0.033-1.593-0.019-3.103-0.122-4.491c-0.076-1.391-0.144-2.666-0.207-3.796
			c-0.11-1.126-0.205-2.107-0.283-2.918c-0.161-1.621-0.253-2.547-0.253-2.547s0.165,0.916,0.454,2.521
			c0.145,0.802,0.317,1.776,0.515,2.896c0.153,1.126,0.323,2.397,0.512,3.784c0.211,1.386,0.318,2.896,0.479,4.496
			c0.173,1.599,0.282,3.288,0.378,5.038c0.126,1.75,0.187,3.559,0.231,5.4c0.076,1.844,0.062,3.712,0.066,5.586
			c0.025,1.875-0.064,3.744-0.091,5.592c-0.063,1.844-0.145,3.656-0.236,5.412c-0.121,1.755-0.206,3.454-0.353,5.061
			c-0.124,1.606-0.264,3.128-0.41,4.529c-0.279,2.804-0.577,5.138-0.805,6.776c-0.12,0.825-0.215,1.476-0.28,1.916
			c-0.067,0.439-0.104,0.672-0.104,0.672L271.1,370.598z"/>
	</g>
	<g>
		<path d="M223.877,371.445c0,0-0.105-0.97-0.294-2.667c-0.174-1.69-0.393-4.098-0.595-6.99c-0.209-2.891-0.388-6.265-0.511-9.88
			c-0.066-1.805-0.085-3.677-0.128-5.573c0.007-1.898-0.024-3.823,0.014-5.753c0.05-1.928,0.049-3.852,0.155-5.748
			c0.088-1.895,0.149-3.758,0.302-5.558c0.133-1.801,0.24-3.54,0.435-5.186c0.188-1.644,0.294-3.199,0.521-4.627
			c0.201-1.427,0.386-2.733,0.549-3.894c0.183-1.156,0.389-2.156,0.534-2.983c0.304-1.648,0.479-2.592,0.479-2.592
			s-0.101,0.954-0.276,2.622c-0.082,0.834-0.21,1.843-0.303,3.005c-0.073,1.164-0.156,2.478-0.246,3.909
			c-0.116,1.428-0.102,2.987-0.163,4.626c-0.067,1.64-0.038,3.373-0.032,5.163c-0.013,1.789,0.067,3.639,0.126,5.516
			c0.038,1.877,0.188,3.784,0.283,5.688c0.109,1.902,0.287,3.804,0.425,5.674c0.188,1.868,0.347,3.706,0.55,5.481
			c0.397,3.551,0.827,6.854,1.251,9.677c0.417,2.823,0.813,5.165,1.108,6.794c0.305,1.619,0.479,2.544,0.479,2.544L223.877,371.445z
			"/>
	</g>
</g>
<g>
	<path d="M58.711,371.681c1.964-20.74,0.598-76.471-0.751-116.441"/>
	<path d="M58.35,260.236c0.198,3.18,0.57,7.72,0.857,13.175c0.138,2.729,0.29,5.686,0.448,8.811c0.149,3.127,0.31,6.424,0.41,9.836
		c0.113,3.413,0.229,6.938,0.344,10.521c0.075,3.585,0.152,7.227,0.229,10.867c0.044,3.641,0.106,7.283,0.104,10.87
		c0.027,3.586-0.017,7.116-0.021,10.531c-0.009,3.415-0.127,6.719-0.195,9.849c-0.066,3.131-0.146,6.09-0.316,8.822
		c-0.135,2.731-0.291,5.233-0.436,7.449c-0.118,2.218-0.384,4.146-0.519,5.734c-0.325,3.173-0.544,4.98-0.544,4.98
		s0.011-1.827,0.085-5.012c0.02-1.592,0.145-3.516,0.1-5.735c-0.024-2.219-0.053-4.721-0.044-7.446
		c0.021-2.726-0.056-5.683-0.089-8.808c-0.038-3.125-0.079-6.423-0.12-9.83c-0.116-6.82-0.239-14.097-0.362-21.369
		c-0.098-7.277-0.193-14.553-0.286-21.375c-0.03-3.412-0.063-6.71-0.093-9.837c-0.016-3.128-0.028-6.086-0.044-8.816
		c0.014-5.464,0.026-10.015,0.034-13.203c0.022-3.188,0.068-5.01,0.068-5.01S58.122,257.055,58.35,260.236z"/>
</g>
<g>
	<path d="M445.659,373.098c1.965-20.74,0.601-76.471-0.75-116.441"/>
	<path d="M445.301,261.653c0.196,3.18,0.568,7.72,0.855,13.175c0.138,2.729,0.29,5.686,0.45,8.811
		c0.147,3.127,0.309,6.424,0.411,9.836c0.11,3.413,0.226,6.938,0.343,10.521c0.076,3.585,0.152,7.227,0.229,10.867
		c0.044,3.641,0.104,7.283,0.104,10.87c0.027,3.586-0.017,7.116-0.023,10.531c-0.01,3.415-0.127,6.719-0.194,9.849
		c-0.068,3.131-0.147,6.091-0.318,8.823c-0.133,2.73-0.291,5.232-0.433,7.45c-0.119,2.216-0.385,4.145-0.521,5.732
		c-0.325,3.173-0.544,4.98-0.544,4.98s0.01-1.827,0.085-5.012c0.021-1.592,0.146-3.516,0.102-5.735
		c-0.025-2.219-0.055-4.721-0.043-7.446c0.02-2.726-0.058-5.683-0.091-8.808c-0.036-3.125-0.077-6.42-0.119-9.83
		c-0.115-6.82-0.238-14.097-0.362-21.369c-0.097-7.277-0.195-14.553-0.286-21.375c-0.032-3.412-0.063-6.71-0.093-9.837
		c-0.017-3.128-0.029-6.086-0.043-8.816c0.013-5.464,0.024-10.015,0.034-13.203c0.021-3.188,0.066-5.01,0.066-5.01
		S445.071,258.473,445.301,261.653z"/>
</g>
</svg>
