<?xml version="1.0" encoding="utf-8"?>
<!-- Generator: Adobe Illustrator 16.0.0, SVG Export Plug-In . SVG Version: 6.00 Build 0)  -->
<!DOCTYPE svg PUBLIC "-//W3C//DTD SVG 1.1//EN" "http://www.w3.org/Graphics/SVG/1.1/DTD/svg11.dtd">
<svg version="1.1" id="Layer_3" xmlns="http://www.w3.org/2000/svg" xmlns:xlink="http://www.w3.org/1999/xlink" x="0px" y="0px"
	 width="500px" height="900px" viewBox="0 0 500 900" enable-background="new 0 0 500 900" xml:space="preserve">
<g>
	<path fill="none" stroke="#000000" stroke-width="5" stroke-miterlimit="10" d="M496.999,439.774
		c0,33.415-21.356,71.107-21.356,71.107c-5.023,7.536-12.814,6.028-12.814,6.028c-12.058,0.251-21.104-15.578-21.104-15.578
		c-5.777-10.303-16.079-18.09-16.079-18.09l-20.354,16.332c-7.287,7.787-8.544,5.527-8.544,5.527
		c-27.637-13.066-26.633-47.238-26.633-47.238c-2.513-22.11,6.532-62.313,6.532-62.313c68.343,28.646,113.57,0,113.57,0
		C496.749,407.107,497,439.772,496.999,439.774z"/>
	<path fill="none" stroke="#000000" stroke-width="5" stroke-miterlimit="10" d="M490.215,395.551
		c-1.803-4.144-5.692-53.77-5.692-53.77c-1.341-29.482-9.633-91.711-9.633-91.711c-10.303-61.431-21.608-56.157-21.608-56.157
		c-8.544-0.755-13.568,55.152-13.568,55.152c-3.267,30.904-8.795,31.072-8.795,31.072s-1.675,6.364-10.051-30.152
		c0,0-8.039-37.188-16.079-36.854c0,0-5.695-3.346-9.716,13.069c0,0-6.364,24.119-10.05,41.877c0,0-5.028,32.497-5.361,60.974
		c0,0-3.518,58.962-3.017,66.499"/>
	<g>
		<path d="M460.746,495.089c-0.712-0.798-1.486-1.531-2.249-2.258l-1.177-1.045l-1.229-0.967c-0.851-0.594-1.672-1.208-2.558-1.708
			c-0.425-0.281-0.879-0.501-1.332-0.719c-0.45-0.22-0.888-0.461-1.363-0.616c-0.468-0.164-0.913-0.38-1.38-0.526l-1.407-0.395
			c-0.465-0.137-0.951-0.169-1.422-0.266l-0.708-0.124l-0.718-0.034l-1.417-0.064c-0.623-0.001-1.179-0.023-1.76-0.056
			c-2.292-0.13-4.555-0.507-6.804-1.104c-2.232-0.634-4.47-1.474-6.535-2.773c-2.073-1.259-4.001-2.978-5.406-5.121
			c-0.715-1.058-1.288-2.221-1.689-3.426c-0.438-1.198-0.66-2.44-0.82-3.669l4.737-0.233c-0.032,0.519-0.086,0.84-0.145,1.237
			c-0.069,0.372-0.132,0.747-0.222,1.105c-0.164,0.731-0.37,1.443-0.625,2.14c-0.242,0.699-0.553,1.377-0.879,2.04l-0.521,0.98
			l-0.594,0.942c-0.413,0.615-0.877,1.201-1.358,1.761c-0.509,0.541-0.996,1.097-1.576,1.56c-0.283,0.235-0.552,0.487-0.849,0.704
			l-0.905,0.623c-0.585,0.441-1.255,0.737-1.889,1.079c-0.635,0.338-1.328,0.546-1.983,0.817l-0.413,0.153
			c-0.107,0.035-0.259,0.103-0.39,0.155c-0.271,0.119-0.547,0.248-0.819,0.386c-1.079,0.562-2.159,1.195-3.158,1.95
			c-0.509,0.37-0.984,0.78-1.452,1.204c-0.481,0.415-0.922,0.871-1.365,1.336c-0.413,0.484-0.842,0.973-1.222,1.497
			c-0.414,0.509-0.73,1.077-1.11,1.628c0.177-0.634,0.342-1.289,0.604-1.904c0.22-0.643,0.537-1.236,0.845-1.846
			c0.338-0.587,0.684-1.177,1.082-1.736c0.397-0.558,0.829-1.098,1.292-1.607c0.455-0.519,0.943-1.01,1.457-1.482
			c0.505-0.478,1.056-0.908,1.625-1.322c0.286-0.206,0.579-0.407,0.882-0.601c0.161-0.097,0.297-0.187,0.485-0.291l0.277-0.149
			l0.196-0.115c0.51-0.322,1.059-0.573,1.531-0.936c0.464-0.37,0.979-0.659,1.394-1.074l0.651-0.577
			c0.211-0.197,0.392-0.425,0.589-0.634c0.408-0.404,0.738-0.876,1.085-1.327c0.324-0.469,0.63-0.95,0.896-1.453l0.396-0.756
			l0.337-0.786c0.209-0.529,0.408-1.066,0.547-1.619c0.162-0.545,0.291-1.102,0.381-1.659c0.055-0.276,0.082-0.553,0.117-0.827
			c0.025-0.253,0.049-0.582,0.046-0.718c-0.021-1.126,0.766-2.139,1.908-2.366c1.282-0.252,2.526,0.582,2.779,1.864l0.053,0.27
			c0.175,0.894,0.343,1.784,0.689,2.598c0.308,0.828,0.724,1.597,1.218,2.321c0.479,0.73,1.08,1.391,1.74,2
			c0.648,0.62,1.388,1.175,2.179,1.675c3.176,1.998,7.144,3.147,11.128,3.727c0.491,0.067,1.01,0.128,1.462,0.165
			c0.619,0.058,1.2,0.163,1.798,0.247l0.887,0.144l0.867,0.235c0.572,0.173,1.161,0.288,1.707,0.524l1.636,0.688
			c0.532,0.251,1.037,0.553,1.548,0.837c0.518,0.272,0.981,0.622,1.456,0.954c0.474,0.33,0.942,0.662,1.369,1.045
			c0.893,0.722,1.71,1.509,2.474,2.339l1.092,1.279l1.008,1.333c0.632,0.915,1.211,1.859,1.736,2.826
			c0.522,0.966,0.981,1.968,1.345,2.996C462.165,496.697,461.468,495.879,460.746,495.089z"/>
	</g>
	<g>
		<path d="M441.212,482.189c0,0,0.289,0.434,0.796,1.198c0.515,0.763,1.262,1.854,2.179,3.151c1.83,2.597,4.352,6.012,7.053,9.281
			c0.674,0.818,1.352,1.636,2.046,2.413c0.68,0.793,1.37,1.551,2.055,2.272c0.669,0.737,1.354,1.407,2.003,2.048
			c0.639,0.655,1.288,1.214,1.885,1.744c0.584,0.548,1.164,0.981,1.679,1.377c0.51,0.4,0.959,0.747,1.364,0.976
			c0.793,0.497,1.247,0.78,1.247,0.78s-0.493-0.215-1.353-0.592c-0.443-0.174-0.941-0.451-1.512-0.777
			c-0.576-0.321-1.232-0.677-1.896-1.139c-0.677-0.444-1.424-0.917-2.158-1.481c-0.752-0.547-1.549-1.127-2.328-1.771
			c-0.8-0.626-1.611-1.291-2.413-1.99c-0.82-0.687-1.622-1.407-2.425-2.133c-3.212-2.9-6.266-5.974-8.502-8.327
			c-1.121-1.178-2.042-2.172-2.685-2.878c-0.641-0.712-1.007-1.12-1.007-1.12L441.212,482.189z"/>
	</g>
	<g>
		<path d="M433.419,280.079c0,0-0.008,7.219-0.019,18.048c-0.034,10.828-0.085,25.265-0.249,39.701
			c-0.038,3.61-0.077,7.218-0.115,10.771c-0.061,3.553-0.122,7.05-0.18,10.433c-0.064,3.383-0.123,6.653-0.183,9.754
			c-0.093,3.102-0.179,6.033-0.26,8.739c-0.09,2.706-0.132,5.185-0.241,7.383c-0.126,2.197-0.233,4.112-0.323,5.689
			c-0.181,3.149-0.283,4.95-0.283,4.95s0.023-1.804,0.066-4.962c0.022-1.577,0.05-3.49,0.078-5.688
			c0.016-2.196-0.052-4.677-0.079-7.382c-0.035-2.704-0.075-5.634-0.117-8.732c-0.076-3.099-0.158-6.367-0.241-9.747
			c-0.087-3.379-0.179-6.872-0.272-10.421c-0.117-3.549-0.232-7.155-0.351-10.759c-0.461-14.419-1.034-28.836-1.469-39.648
			c-0.457-10.81-0.764-18.017-0.764-18.017L433.419,280.079z"/>
	</g>
</g>
<g>
	<path d="M268.858,330.622c0,0,0.104-0.193,0.301-0.558c0.177-0.313,0.449-0.907,0.782-1.622c0.313-0.743,0.71-1.638,1.09-2.713
		c0.422-1.057,0.78-2.299,1.22-3.641c0.349-1.369,0.816-2.835,1.121-4.438c0.167-0.798,0.359-1.614,0.52-2.457
		c0.136-0.847,0.273-1.714,0.417-2.595c0.159-0.88,0.269-1.782,0.354-2.7c0.097-0.917,0.195-1.845,0.294-2.782
		c0.107-1.879,0.229-3.796,0.269-5.716c-0.038-1.918,0.023-3.847-0.097-5.741c-0.139-1.89-0.205-3.764-0.399-5.563
		c-0.226-1.801-0.44-3.541-0.646-5.192c-0.258-1.643-0.574-3.188-0.828-4.622c-0.255-1.435-0.495-2.75-0.806-3.893
		c-0.282-1.151-0.528-2.155-0.729-2.981c-0.405-1.657-0.638-2.602-0.638-2.602s0.308,0.924,0.843,2.541
		c0.27,0.81,0.597,1.794,0.971,2.922c0.402,1.122,0.75,2.417,1.122,3.834c0.369,1.417,0.812,2.944,1.206,4.582
		c0.34,1.648,0.697,3.389,1.069,5.188c0.346,1.807,0.564,3.697,0.861,5.613c0.276,1.918,0.372,3.887,0.567,5.853
		c0.115,1.97,0.151,3.947,0.196,5.897c-0.022,0.974-0.048,1.943-0.07,2.899c-0.015,0.958-0.053,1.903-0.144,2.833
		c-0.074,0.93-0.146,1.845-0.218,2.74c-0.096,0.895-0.229,1.767-0.335,2.619c-0.189,1.709-0.554,3.301-0.811,4.787
		c-0.352,1.469-0.631,2.827-0.993,4.013c-0.317,1.193-0.679,2.224-0.959,3.076c-0.319,0.859-0.553,1.504-0.779,2.01
		c-0.204,0.456-0.312,0.7-0.312,0.7L268.858,330.622z"/>
</g>
<g>
	<path fill="none" stroke="#000000" stroke-width="5" stroke-miterlimit="10" d="M298.897,283.162
		c3.461,31.146-25.953,47.212-25.953,47.212c-21.75,17.056-36.335,0-36.335,0c-4.695-4.942-14.585-10.382-14.585-10.382
		c-24.222-9.885-23.728-34.107-20.762-39.546c2.968-5.438,10.382-34.113,10.382-34.113c3.956-15.321,3.956-56.355,3.956-56.355
		c2.966-26.2,7.907-60.805,7.907-60.805c2.473-32.133,26.731-96.894,26.731-96.894C259.173,3.111,268,57.491,268,57.491
		c18.783,66.737,14.83,150.282,14.83,150.282c0.493,26.202,3.953,38.56,3.953,38.56C297.66,269.322,298.896,283.162,298.897,283.162
		z"/>
	<path fill="none" stroke="#000000" stroke-width="5" stroke-miterlimit="10" d="M213.48,235.441
		c30.997-30.416,70.605-5.941,70.605-5.941"/>
	<g>
		<path d="M266.021,236.704c-0.931-0.008-2.24-0.025-3.765-0.101c-0.756-0.035-1.575-0.074-2.443-0.115
			c-0.86-0.055-1.76-0.101-2.686-0.151c-0.923-0.074-1.874-0.084-2.832-0.162c-0.956-0.045-1.924-0.09-2.894-0.135
			c-0.962-0.007-1.931-0.066-2.874-0.07c-0.938,0.041-1.885-0.065-2.777,0.002c-0.892,0.049-1.791-0.02-2.607,0.073
			c-0.419,0.021-0.826,0.041-1.223,0.063c-0.399,0.004-0.789,0.018-1.148,0.072c-0.734,0.077-1.423,0.134-2.051,0.171
			c-0.617,0.062-1.152,0.153-1.612,0.206c-0.914,0.114-1.486,0.139-1.486,0.139s0.356-0.405,1.068-1.042
			c0.359-0.304,0.788-0.731,1.337-1.106c0.556-0.354,1.2-0.74,1.925-1.146c0.72-0.421,1.556-0.689,2.44-1.043
			c0.885-0.367,1.849-0.55,2.852-0.791c0.501-0.133,1.014-0.214,1.535-0.27c0.52-0.069,1.049-0.13,1.583-0.176
			c1.068-0.111,2.149-0.059,3.233-0.076c1.072,0.086,2.151,0.146,3.194,0.313c1.041,0.172,2.067,0.341,3.032,0.614
			c0.973,0.235,1.896,0.529,2.757,0.847c0.865,0.297,1.657,0.663,2.386,0.99c1.447,0.69,2.594,1.395,3.363,1.956
			c0.777,0.542,1.175,0.93,1.175,0.93S266.948,236.712,266.021,236.704z"/>
	</g>
	<g>
		<path d="M267.107,244.086c-0.251-0.025-0.629-0.028-1.09-0.075c-0.458-0.05-1.031-0.06-1.656-0.129
			c-0.626-0.05-1.332-0.107-2.104-0.171c-0.754-0.063-1.57-0.133-2.435-0.205c-0.851-0.096-1.754-0.124-2.669-0.217
			c-0.913-0.058-1.857-0.118-2.816-0.18c-0.955,0.004-1.92-0.134-2.881-0.096c-0.962-0.032-1.923-0.055-2.865-0.021
			c-0.47,0.013-0.94,0.01-1.406,0.001c-0.461,0.033-0.916,0.071-1.369,0.082c-0.455,0.019-0.902,0.032-1.34,0.048
			c-0.434,0.042-0.857,0.097-1.277,0.124c-0.843,0.058-1.654,0.104-2.385,0.229c-0.741,0.097-1.446,0.153-2.074,0.223
			c-0.608,0.115-1.163,0.186-1.623,0.251c-0.923,0.127-1.496,0.157-1.496,0.157s0.357-0.41,1.065-1.054
			c0.354-0.32,0.79-0.72,1.315-1.142c0.542-0.384,1.186-0.766,1.9-1.188c0.361-0.201,0.732-0.432,1.137-0.615
			c0.411-0.168,0.835-0.342,1.273-0.522c0.438-0.179,0.898-0.34,1.371-0.517c0.474-0.153,0.971-0.25,1.473-0.381
			c0.503-0.129,1.02-0.236,1.543-0.347c0.526-0.078,1.06-0.141,1.6-0.192c1.081-0.156,2.183-0.145,3.281-0.136
			c1.104-0.007,2.188,0.153,3.256,0.274c0.534,0.061,1.054,0.188,1.569,0.291c0.513,0.116,1.027,0.196,1.513,0.354
			c0.98,0.284,1.922,0.563,2.783,0.925c0.869,0.333,1.666,0.712,2.386,1.088c1.443,0.751,2.56,1.536,3.301,2.146
			c0.747,0.594,1.116,1.017,1.116,1.017S267.365,244.103,267.107,244.086z"/>
	</g>
	<g>
		<path d="M258.89,250.634c-0.136,0.046-0.337,0.148-0.574,0.229c-0.479,0.183-1.133,0.416-1.898,0.604
			c-0.755,0.171-1.621,0.382-2.51,0.444c-0.447,0.063-0.904,0.115-1.364,0.128c-0.46,0.034-0.927-0.012-1.386,0.027
			c-0.462-0.006-0.922-0.004-1.379-0.054c-0.228-0.015-0.455-0.043-0.681-0.077c-0.223-0.014-0.441-0.02-0.66-0.049
			c-0.866-0.068-1.73-0.326-2.465-0.465c-0.74-0.15-1.407-0.364-1.898-0.553c-0.487-0.178-0.795-0.333-0.795-0.333
			s0.181-0.263,0.546-0.63c0.364-0.377,0.914-0.861,1.637-1.337c0.36-0.255,0.767-0.441,1.204-0.618
			c0.439-0.174,0.91-0.344,1.405-0.486c0.995-0.333,2.065-0.351,3.142-0.397c0.539-0.01,1.071,0.054,1.593,0.135
			c0.521,0.075,1.031,0.176,1.518,0.306c0.966,0.313,1.848,0.654,2.565,1.112c0.357,0.22,0.68,0.441,0.957,0.653
			c0.28,0.216,0.512,0.448,0.699,0.626c0.374,0.362,0.556,0.638,0.556,0.638S259.029,250.571,258.89,250.634z"/>
	</g>
	<g>
		<path d="M229.893,327.395c0,0-0.051-0.199-0.148-0.573c-0.111-0.413-0.22-0.947-0.369-1.64c-0.12-0.69-0.295-1.524-0.419-2.479
			c-0.152-0.954-0.267-2.029-0.387-3.202c-0.102-1.172-0.195-2.439-0.246-3.779c-0.036-1.343-0.086-2.751-0.034-4.209
			c0.001-1.457,0.105-2.957,0.209-4.479c0.078-1.521,0.321-3.054,0.475-4.586c0.212-1.528,0.49-3.045,0.729-4.538
			c0.323-1.476,0.64-2.93,0.948-4.336c0.38-1.384,0.748-2.722,1.097-3.992c0.33-1.27,0.795-2.43,1.144-3.519
			c0.377-1.082,0.675-2.084,1.049-2.938c0.346-0.86,0.648-1.609,0.898-2.228c0.498-1.233,0.783-1.938,0.783-1.938
			s-0.211,0.731-0.58,2.009c-0.185,0.637-0.408,1.409-0.665,2.298c-0.28,0.878-0.473,1.905-0.734,3.01
			c-0.233,1.111-0.572,2.291-0.768,3.576c-0.213,1.276-0.438,2.624-0.67,4.018c-0.158,1.4-0.321,2.848-0.485,4.317
			c-0.081,1.477-0.199,2.97-0.254,4.464c0.009,1.498-0.075,2.989,0.004,4.456c0.052,1.467,0.096,2.906,0.24,4.292
			c0.09,1.39,0.279,2.72,0.442,3.979c0.178,1.259,0.388,2.438,0.597,3.52c0.225,1.079,0.434,2.063,0.662,2.92
			c0.204,0.867,0.439,1.594,0.609,2.2c0.19,0.589,0.342,1.065,0.445,1.332c0.113,0.306,0.177,0.469,0.177,0.469L229.893,327.395z"/>
	</g>
	<path fill="none" stroke="#000000" stroke-width="5" stroke-miterlimit="10" d="M229.924,95.763
		c2.471-29.619,10.063-56.066,10.063-56.066c3.625-15.492,10.252-7.417,10.252-7.417"/>
</g>
<g>
	<path fill="none" stroke="#000000" stroke-width="5" stroke-miterlimit="10" d="M66.477,410.774
		c-28.349,1.27-58.776-7.203-59.245-4.616c-2.444,13.508-2.226,33.452-2.226,33.452c0,32.765,22.594,69.387,22.594,69.387
		c4.921,7.392,12.563,5.912,12.563,5.912c11.823,0.249,20.695-15.271,20.695-15.271c5.662-10.102,15.765-17.738,15.765-17.738
		l19.956,16.017c7.146,7.637,8.376,5.421,8.376,5.421c27.098-12.813,26.112-46.318,26.112-46.318
		c1.763-15.513-2.278-40.11-4.717-52.848C125.854,401.583,96.178,409.444,66.477,410.774z"/>
	<path fill="none" stroke="#000000" stroke-width="5" stroke-miterlimit="10" d="M7.23,406.162
		c1.772-4.061,6.016-63.604,6.016-63.604c1.315-28.905,4.285-90.304,4.285-90.304c10.103-60.23,17.374-54.262,17.374-54.262
		c8.379-0.74,17.561,51.626,17.561,51.626c4.448,27.561,8.403,26.481,8.403,26.481s5.608,4.167,11.017-24.104
		c0,0,6.311-39.619,14.196-39.292c0,0,7.154-0.122,11.096,15.975c0,0,6.714,22.312,10.326,39.725c0,0,7.464,33.05,7.787,60.969
		c0,0,0.609,22.803,3.747,43.172c2.313,15.021,6.307,27.021,6.099,30.159"/>
	<g>
		<path d="M64.528,276.063c0,0-0.302,7.064-0.754,17.665c-0.431,10.601-0.999,24.734-1.457,38.874
			c-0.118,3.535-0.235,7.069-0.349,10.549c-0.093,3.479-0.184,6.905-0.271,10.218c-0.083,3.316-0.164,6.521-0.24,9.558
			c-0.043,3.038-0.083,5.911-0.118,8.563c-0.027,2.652-0.095,5.084-0.08,7.238c0.026,2.152,0.052,4.031,0.072,5.578
			c0.041,3.095,0.064,4.863,0.064,4.863s-0.1-1.765-0.279-4.854c-0.089-1.546-0.195-3.424-0.318-5.578
			c-0.108-2.155-0.15-4.586-0.24-7.239c-0.08-2.652-0.167-5.526-0.259-8.567c-0.06-3.041-0.12-6.247-0.184-9.564
			c-0.059-3.318-0.119-6.747-0.181-10.229c-0.039-3.484-0.078-7.022-0.118-10.562c-0.167-14.156-0.224-28.31-0.261-38.927
			c-0.017-10.617-0.026-17.696-0.026-17.696L64.528,276.063z"/>
	</g>
	<g>
		<path d="M101.95,491.271c-0.817-0.004-1.635-0.106-2.454-0.227l-1.223-0.235c-0.402-0.105-0.805-0.219-1.207-0.336
			c-0.4-0.129-0.79-0.287-1.186-0.434c-0.403-0.134-0.772-0.341-1.16-0.516c-0.392-0.175-0.772-0.368-1.132-0.597
			c-0.366-0.225-0.75-0.425-1.096-0.682l-1.026-0.785c-0.36-0.249-0.646-0.572-0.971-0.86c-0.306-0.308-0.654-0.579-0.923-0.92
			l-0.851-0.991c-0.298-0.323-0.523-0.695-0.773-1.05l-0.725-1.09l0.073,0.128c-0.199-0.269-0.452-0.59-0.69-0.877
			c-0.243-0.297-0.492-0.589-0.746-0.871c-0.502-0.573-1.021-1.127-1.56-1.629c-0.267-0.258-0.542-0.492-0.815-0.722
			c-0.275-0.226-0.547-0.442-0.823-0.631c-0.271-0.185-0.548-0.367-0.809-0.493c-0.236-0.14-0.574-0.247-0.672-0.288
			c-1.601-0.442-3.164-0.928-4.751-1.433c-0.794-0.249-1.583-0.53-2.392-0.826c-0.398-0.146-0.813-0.31-1.238-0.488
			c-0.231-0.103-0.446-0.196-0.703-0.323l-0.455-0.259c-0.053-0.034-0.036-0.015-0.15-0.098c-0.1-0.073-0.196-0.152-0.293-0.237
			c-0.188-0.169-0.361-0.358-0.509-0.554l3.053,0.878c-1.015,0.474-2,0.875-3.009,1.289c-1.006,0.407-2.024,0.798-3.06,1.165
			c-0.511,0.192-1.058,0.342-1.582,0.515c-0.525,0.175-1.065,0.333-1.632,0.471c-0.576,0.133-1.075,0.311-1.732,0.394l-0.938,0.144
			l-0.72,0.099l-0.786,0.102l-0.393,0.053c-0.111,0.021-0.195,0.052-0.294,0.076c-0.39,0.119-0.754,0.154-1.172,0.316
			c-0.411,0.167-0.843,0.286-1.251,0.465l-1.212,0.592l-1.151,0.732c-0.388,0.24-0.729,0.562-1.099,0.834
			c-0.38,0.269-0.707,0.604-1.04,0.934c-0.33,0.332-0.693,0.637-0.979,1.021l-0.93,1.09l-0.829,1.19
			c-0.29,0.389-0.546,0.804-0.781,1.237l-0.74,1.282c-0.397,0.91-0.888,1.788-1.253,2.729c-0.341,0.948-0.774,1.876-1.029,2.869
			c-0.274,0.984-0.638,1.953-0.85,2.97c-0.23,1.008-0.526,2.014-0.677,3.047c-0.183,1.03-0.435,2.059-0.563,3.104
			c-0.152,1.047-0.298,2.095-0.477,3.152c-0.141-1.054-0.253-2.118-0.368-3.184c-0.109-1.069-0.092-2.14-0.143-3.219
			c-0.051-1.077,0.062-2.15,0.104-3.235c0.023-1.089,0.2-2.165,0.356-3.248c0.119-1.089,0.43-2.15,0.655-3.235
			c0.244-1.079,0.632-2.132,0.979-3.195l0.669-1.557l0.338-0.779l0.414-0.749l0.85-1.495l0.992-1.429
			c0.317-0.487,0.733-0.909,1.115-1.354c0.386-0.443,0.773-0.888,1.229-1.275c0.448-0.39,0.854-0.829,1.347-1.175l1.47-1.047
			l1.59-0.888c0.544-0.273,1.122-0.49,1.688-0.723c0.56-0.232,1.247-0.377,1.87-0.555l0.473-0.119l0.392-0.063l0.782-0.127
			l1.473-0.255c0.396-0.039,0.899-0.219,1.351-0.325c0.459-0.111,0.928-0.257,1.407-0.421c0.476-0.162,0.946-0.294,1.426-0.48
			c0.957-0.335,1.915-0.685,2.871-1.063c0.952-0.371,1.917-0.778,2.835-1.159l3.053,0.878c-0.068-0.128-0.167-0.251-0.277-0.354
			c-0.058-0.051-0.115-0.097-0.179-0.137c-0.078-0.048-0.009-0.008-0.021-0.017c0.024,0.013,0.051,0.026,0.075,0.047l0.397,0.199
			c0.324,0.146,0.662,0.293,1.021,0.438l2.199,0.855c1.489,0.57,3.021,1.104,4.527,1.649c0.658,0.267,1.071,0.478,1.529,0.768
			c0.449,0.27,0.838,0.568,1.214,0.872c0.757,0.604,1.378,1.268,1.975,1.937c0.596,0.67,1.129,1.362,1.639,2.067
			c0.253,0.353,0.493,0.715,0.729,1.077c0.239,0.371,0.454,0.719,0.697,1.137l0.072,0.126l0.002,0.002l0.495,0.966
			c0.169,0.321,0.305,0.669,0.515,0.962l0.583,0.923c0.177,0.324,0.436,0.579,0.654,0.874c0.234,0.278,0.432,0.599,0.702,0.843
			l0.771,0.789c0.264,0.259,0.556,0.484,0.831,0.735c0.272,0.257,0.569,0.483,0.878,0.695c0.308,0.212,0.599,0.461,0.931,0.641
			c0.325,0.191,0.646,0.397,0.98,0.58l1.022,0.521l1.063,0.468l1.098,0.401l1.129,0.338c0.764,0.216,1.54,0.375,2.338,0.484
			C103.577,491.245,102.762,491.275,101.95,491.271z"/>
	</g>
	<g>
		<path d="M75.921,473.67c0,0-0.337,0.396-0.927,1.088c-0.304,0.345-0.668,0.789-1.096,1.242c-0.425,0.466-0.906,0.989-1.428,1.56
			c-0.522,0.57-1.117,1.157-1.729,1.793c-0.619,0.628-1.251,1.309-1.954,1.964c-0.692,0.665-1.404,1.351-2.133,2.049
			c-0.713,0.707-1.494,1.371-2.252,2.053c-0.761,0.678-1.521,1.355-2.271,2.022c-0.753,0.66-1.536,1.268-2.27,1.876
			c-0.737,0.602-1.449,1.183-2.125,1.737c-0.663,0.562-1.341,1.04-1.95,1.496c-2.438,1.807-4.063,3.012-4.063,3.012
			s1.418-1.44,3.546-3.595c0.529-0.541,1.117-1.109,1.683-1.767c0.577-0.643,1.186-1.321,1.815-2.023
			c0.623-0.707,1.289-1.413,1.924-2.172c0.627-0.765,1.263-1.539,1.902-2.313c0.632-0.777,1.284-1.533,1.869-2.328
			c0.596-0.782,1.183-1.552,1.75-2.297c0.575-0.737,1.083-1.487,1.583-2.18c0.488-0.7,0.972-1.351,1.383-1.971
			c0.411-0.618,0.788-1.185,1.122-1.687c0.344-0.502,0.594-0.935,0.822-1.292c0.449-0.733,0.707-1.152,0.707-1.152L75.921,473.67z"
			/>
	</g>
</g>
<g>
	<path fill="none" stroke="#000000" stroke-width="5" stroke-miterlimit="10" d="M295.043,826.235
		c5.273,10.547,5.438,18.458,5.438,18.458c0,18.289-14.668,28.835-14.668,28.835c-4.283,1.98-25.704,20.104-25.704,20.104
		c-11.207,7.582-23.896,0-23.896,0l-14.831-11.533c-25.046-15.818-18.784-38.893-18.784-38.893
		c1.317-14.172,14.503-57.014,14.503-57.014c31.969-25.379,69.865,0,69.865,0C284.66,800.199,295.041,826.235,295.043,826.235z"/>
	<g>
		<path d="M285.085,810.489l0.387,2.59l0.438,2.576l0.438,2.574l0.22,1.285c0.063,0.431,0.186,0.846,0.271,1.271l1.113,5.046
			l-0.024-0.087c0.307,0.845,0.549,1.643,0.786,2.47c0.234,0.821,0.447,1.646,0.643,2.479c0.393,1.662,0.674,3.352,0.896,5.05
			c0.43,3.402,0.524,6.875,0.158,10.354c-0.109,0.87-0.221,1.739-0.404,2.6c-0.149,0.866-0.381,1.725-0.606,2.578
			c-0.249,0.852-0.519,1.7-0.848,2.531c-0.311,0.836-0.684,1.655-1.084,2.459l-0.629,1.196l-0.711,1.151
			c-0.483,0.766-1.023,1.497-1.589,2.204l-0.88,1.041c-0.302,0.337-0.632,0.653-0.948,0.979c-0.618,0.671-1.342,1.219-2.023,1.819
			l0.354-0.347c-0.986,1.236-1.961,2.4-2.967,3.574c-1.002,1.169-2.023,2.321-3.063,3.46c-2.078,2.275-4.231,4.495-6.503,6.628
			c-1.137,1.064-2.308,2.102-3.531,3.095c-1.228,0.992-2.493,1.954-3.832,2.856c-0.682,0.441-1.365,0.883-2.092,1.289
			c-0.725,0.405-1.466,0.799-2.27,1.137c-0.386,0.18-0.805,0.333-1.232,0.479c-0.41,0.159-0.862,0.277-1.319,0.389
			c-0.902,0.234-1.921,0.334-2.984,0.299l0.381-0.004c-0.22,0.007-0.439,0.005-0.661-0.006l-0.165-0.012l-0.098-0.016l-0.194-0.033
			l-0.773-0.142c-0.554-0.084-0.936-0.251-1.377-0.392l-1.293-0.438c-0.436-0.146-0.789-0.352-1.187-0.526l-2.317-1.097
			c-0.727-0.411-1.428-0.846-2.14-1.273l-2.126-1.289c-0.684-0.453-1.332-0.941-1.999-1.412l-1.985-1.426
			c-0.657-0.479-1.344-0.931-1.971-1.438l-3.75-3.064l-1.874-1.531c-0.634-0.5-1.233-1.034-1.821-1.58
			c-2.385-2.152-4.731-4.341-7.085-6.521l0.354,0.275c-0.22-0.146-0.343-0.242-0.492-0.352c-0.148-0.107-0.276-0.217-0.409-0.322
			c-0.271-0.216-0.522-0.436-0.763-0.661c-0.502-0.441-0.941-0.921-1.392-1.397c-0.417-0.5-0.865-0.977-1.234-1.509
			c-0.39-0.519-0.772-1.041-1.1-1.599c-0.354-0.543-0.684-1.099-0.961-1.68c-0.298-0.569-0.596-1.14-0.819-1.743
			c-0.226-0.601-0.521-1.178-0.681-1.798l-0.552-1.835l-0.366-1.87c-0.144-0.62-0.171-1.252-0.234-1.88
			c-0.042-0.628-0.151-1.255-0.133-1.881l0.012-1.875c-0.019-0.627,0.059-1.242,0.121-1.856l0.189-1.849
			c0.083-0.61,0.224-1.209,0.334-1.813l0.354-1.807l-0.029,0.178l0.829-5.771l0.896-5.76c0.614-3.838,1.156-7.682,1.853-11.51
			c0.672-3.83,1.314-7.662,2.026-11.483c0.168-0.956,0.395-1.909,0.588-2.862l0.614-2.855l1.262-5.688l-0.603,5.806l-0.318,2.891
			c-0.104,0.964-0.237,1.918-0.313,2.888c-0.315,3.872-0.701,7.735-1.057,11.599l-2.166,23.175l-0.029,0.176l-0.243,1.65
			c-0.074,0.549-0.182,1.097-0.23,1.646l-0.093,1.648c-0.031,0.549-0.08,1.098-0.035,1.641l0.063,1.631
			c0.006,0.545,0.132,1.073,0.188,1.608c0.081,0.532,0.121,1.073,0.27,1.587l0.36,1.56l0.5,1.513
			c0.141,0.514,0.409,0.974,0.604,1.464c0.19,0.492,0.451,0.949,0.709,1.407c0.235,0.47,0.517,0.909,0.814,1.342
			c0.275,0.447,0.597,0.857,0.921,1.265c0.307,0.425,0.679,0.786,1.018,1.179c0.363,0.361,0.721,0.739,1.108,1.058
			c0.189,0.17,0.381,0.329,0.575,0.473c0.094,0.074,0.193,0.153,0.282,0.212l0.225,0.155l0.195,0.134l0.161,0.144
			c2.363,2.071,4.73,4.136,7.064,6.238c0.581,0.53,1.17,1.046,1.788,1.523l1.827,1.467l3.653,2.935c0.61,0.486,1.26,0.9,1.887,1.354
			l1.897,1.334c0.632,0.438,1.257,0.903,1.898,1.321l1.96,1.159l1.954,1.164l1.979,0.954c0.326,0.147,0.663,0.351,0.981,0.454
			l0.961,0.332c0.313,0.104,0.665,0.257,0.904,0.276l0.396,0.083l0.099,0.021l0.049,0.014l-0.017-0.004
			c-0.021-0.004-0.044,0.003-0.065,0.018l0.382-0.004c0.454,0,0.958-0.012,1.528-0.161c0.281-0.067,0.563-0.13,0.863-0.246
			c0.294-0.097,0.59-0.197,0.891-0.339c0.599-0.241,1.205-0.556,1.806-0.886c0.604-0.329,1.198-0.705,1.794-1.084
			c2.377-1.564,4.638-3.453,6.854-5.404c2.209-1.967,4.345-4.05,6.418-6.202c1.038-1.075,2.059-2.169,3.063-3.275
			c0.999-1.104,2.004-2.242,2.941-3.355l0.123-0.146l0.231-0.2c0.573-0.496,1.216-0.921,1.75-1.461
			c0.274-0.262,0.564-0.511,0.83-0.781l0.774-0.838c0.499-0.572,0.981-1.166,1.417-1.793l0.646-0.949l0.579-0.995
			c0.372-0.673,0.727-1.36,1.028-2.076c0.318-0.708,0.585-1.44,0.838-2.18c0.232-0.748,0.476-1.497,0.644-2.268
			c0.195-0.764,0.33-1.548,0.482-2.325c0.527-3.14,0.648-6.383,0.438-9.624c-0.104-1.622-0.296-3.241-0.541-4.854
			c-0.124-0.807-0.266-1.609-0.425-2.411c-0.162-0.791-0.347-1.608-0.552-2.354l-0.022-0.086l-0.738-5.263
			c-0.056-0.438-0.134-0.875-0.16-1.313l-0.098-1.313l-0.194-2.623l-0.192-2.619l-0.108-2.624c-0.07-1.75-0.132-3.495-0.161-5.243
			C284.558,807.044,284.819,808.771,285.085,810.489z"/>
	</g>
	<path fill="none" stroke="#000000" stroke-width="5" stroke-miterlimit="10" d="M240.496,627.341
		c7.91-41.194,12.525-36.583,12.525-36.583c3.625-0.329,7.579,19.111,7.579,19.111c24.719,85.358,25.216,175.604,25.216,175.604"/>
	<g>
		<path d="M242.942,627.973c0,0-1.38,5.705-3.298,14.333c-0.959,4.312-2.048,9.348-3.167,14.755
			c-0.547,2.706-1.113,5.502-1.688,8.343c-0.559,2.846-1.128,5.736-1.653,8.632c-1.092,5.788-2.087,11.596-2.941,17.051
			c-0.457,2.725-0.795,5.368-1.161,7.875c-0.383,2.504-0.615,4.884-0.893,7.075c-0.291,2.192-0.431,4.212-0.604,5.998
			c-0.082,0.896-0.159,1.734-0.228,2.508c-0.042,0.775-0.081,1.486-0.116,2.132c-0.133,2.577-0.209,4.05-0.209,4.05
			s-0.002-1.478-0.006-4.057c0.001-0.648,0.002-1.363,0.003-2.143c0.029-0.779,0.062-1.62,0.096-2.518
			c0.078-1.797,0.111-3.831,0.286-6.039c0.164-2.208,0.268-4.612,0.518-7.137c0.234-2.525,0.434-5.199,0.746-7.95
			c0.567-5.51,1.255-11.382,2.041-17.238c0.375-2.93,0.789-5.856,1.2-8.736c0.424-2.878,0.841-5.709,1.245-8.448
			c0.835-5.478,1.66-10.584,2.39-14.956c1.462-8.739,2.549-14.568,2.549-14.568L242.942,627.973z"/>
	</g>
	<path fill="none" stroke="#000000" stroke-width="5" stroke-miterlimit="10" d="M217.102,786.193l1.15-35.1
		c3.541-71.58,11.123-132.734,11.123-132.734c2.721-37.325,9.393-35.844,9.393-35.844c5.191,0,8.526,16.938,8.526,16.938"/>
</g>
<g>
	<path fill="none" stroke="#000000" stroke-width="5" stroke-miterlimit="10" d="M270.74,392.737
		c10.989,6.26,20.322,18.128,20.322,18.128c16.806,28.344,0,59.157,0,59.157c-6.921,10.711-17.604,30.157-17.604,30.157
		c-12.003,18.456-38.176,14.498-38.176,14.498c-26.779-0.333-29.58-41.854-29.58-41.854c-9.226-24.389-6.199-34.274-6.199-34.274
		c-1.589-21.425,14.77-32.629,14.77-32.629c5.604-5.602,13.062-17.705,35.632-20.765
		C261.769,383.551,270.742,392.737,270.74,392.737z"/>
	<g>
		<path d="M277.587,437.677c-0.263,0.904-0.569,1.798-0.904,2.685c-0.341,0.884-0.732,1.75-1.149,2.607
			c-0.419,0.854-0.854,1.711-1.36,2.524c-0.499,0.818-1.027,1.624-1.593,2.408c-0.57,0.781-1.147,1.565-1.8,2.289
			c-0.631,0.741-1.319,1.44-2.024,2.123c-0.711,0.679-1.467,1.309-2.236,1.931c-0.79,0.595-1.594,1.18-2.445,1.693
			c-0.832,0.547-1.718,1.006-2.608,1.459c-0.906,0.417-1.815,0.837-2.761,1.166c-0.926,0.382-1.904,0.604-2.86,0.898
			c-0.977,0.194-1.944,0.477-2.935,0.585l-1.479,0.205l-1.484,0.106c-0.991,0.101-1.979,0.061-2.966,0.064
			c-0.986-0.021-1.964-0.116-2.945-0.176l-0.1-0.006l-0.104-0.021c-0.521-0.106-0.885-0.192-1.296-0.315
			c-0.404-0.108-0.797-0.229-1.18-0.361c-0.782-0.243-1.524-0.552-2.28-0.835c-0.734-0.325-1.477-0.634-2.188-1.005
			c-0.705-0.375-1.433-0.709-2.11-1.132c-0.679-0.416-1.38-0.797-2.026-1.267c-0.646-0.463-1.322-0.882-1.94-1.381l-1.847-1.499
			c-0.585-0.534-1.156-1.083-1.725-1.629c-0.586-0.529-1.085-1.146-1.615-1.727c-0.514-0.595-1.047-1.171-1.495-1.816l-1.393-1.886
			c-0.447-0.638-0.828-1.322-1.225-1.988c-0.394-0.669-0.803-1.324-1.115-2.035c-0.342-0.695-0.664-1.397-0.979-2.097
			c-0.342-0.683-0.552-1.435-0.813-2.151c-0.24-0.73-0.49-1.447-0.709-2.174c0.456,0.618,0.879,1.247,1.313,1.862
			c0.448,0.608,0.8,1.269,1.298,1.836c0.473,0.585,0.938,1.166,1.383,1.759c0.427,0.602,0.941,1.14,1.438,1.685l1.478,1.63
			l1.565,1.527c0.501,0.524,1.08,0.971,1.634,1.436c0.562,0.458,1.071,0.965,1.67,1.372l1.728,1.286l1.799,1.169
			c0.595,0.394,1.232,0.721,1.841,1.084c0.605,0.376,1.267,0.649,1.891,0.983c0.621,0.342,1.282,0.595,1.925,0.891
			c0.643,0.293,1.314,0.508,1.962,0.78c0.663,0.218,1.321,0.466,1.985,0.646c0.642,0.202,1.376,0.363,1.89,0.475l-0.203-0.027
			c0.863,0.035,1.731,0.115,2.59,0.121c0.859-0.027,1.724,0.026,2.575-0.053l1.282-0.076l1.268-0.162
			c0.854-0.077,1.676-0.282,2.519-0.418c0.817-0.22,1.653-0.388,2.457-0.664c0.817-0.229,1.606-0.543,2.4-0.85
			c0.772-0.353,1.57-0.662,2.318-1.078c0.77-0.375,1.493-0.836,2.238-1.271c0.722-0.468,1.442-0.946,2.131-1.479
			c0.693-0.521,1.385-1.061,2.034-1.651c1.322-1.153,2.589-2.407,3.746-3.771c0.572-0.688,1.166-1.367,1.713-2.091
			c0.557-0.713,1.074-1.458,1.591-2.211c1.038-1.505,1.988-3.082,2.854-4.737C278.077,435.852,277.841,436.763,277.587,437.677z"/>
	</g>
	<g>
		<path d="M251.281,455.436c0,0,0.141-0.023,0.409-0.067c0.336-0.057,0.661-0.08,1.14-0.114c0.459-0.024,1.011-0.042,1.626-0.021
			c0.621,0.004,1.303,0.071,2.044,0.141c0.737,0.098,1.53,0.194,2.348,0.375c0.824,0.141,1.667,0.391,2.536,0.616
			c0.861,0.265,1.74,0.552,2.615,0.877c0.86,0.37,1.757,0.667,2.592,1.105c0.843,0.419,1.7,0.793,2.487,1.271
			c0.792,0.468,1.598,0.865,2.313,1.364c0.722,0.479,1.42,0.938,2.082,1.374c0.633,0.474,1.23,0.921,1.782,1.334
			c0.56,0.4,1.05,0.795,1.469,1.165c0.425,0.361,0.796,0.673,1.101,0.932c0.608,0.517,0.955,0.811,0.955,0.811
			s-0.393-0.232-1.081-0.635c-0.341-0.203-0.757-0.447-1.236-0.728c-0.469-0.289-1.014-0.59-1.626-0.887
			c-0.602-0.306-1.256-0.637-1.945-0.99c-0.708-0.309-1.455-0.635-2.228-0.972c-0.758-0.356-1.595-0.603-2.412-0.911
			c-0.813-0.321-1.679-0.529-2.521-0.782c-0.838-0.271-1.713-0.397-2.546-0.6c-0.845-0.157-1.678-0.278-2.478-0.379
			c-0.805-0.063-1.576-0.157-2.305-0.151c-0.729-0.037-1.409,0.002-2.033,0.026c-0.619,0.051-1.187,0.091-1.669,0.176
			c-0.492,0.065-0.896,0.156-1.226,0.229c-0.307,0.079-0.6,0.153-0.678,0.193c-0.146,0.052-0.226,0.08-0.226,0.08L251.281,455.436z"
			/>
	</g>
	<g>
		<path d="M234.907,456.466c0,0-0.384,0.008-1.056,0.025c-0.683,0.021-1.661,0.074-2.842,0.153c-2.355,0.167-5.506,0.5-8.618,1.063
			c-1.562,0.277-3.103,0.633-4.54,1.009c-0.712,0.213-1.402,0.418-2.055,0.611c-0.642,0.233-1.248,0.453-1.808,0.657
			c-0.552,0.219-1.043,0.462-1.49,0.657c-0.454,0.186-0.811,0.41-1.119,0.58c-0.611,0.348-0.964,0.546-0.964,0.546
			s0.309-0.263,0.842-0.723c0.272-0.23,0.593-0.527,1.005-0.8c0.403-0.279,0.853-0.624,1.367-0.956
			c0.525-0.315,1.095-0.659,1.696-1.022c0.624-0.328,1.281-0.674,1.961-1.031c1.383-0.668,2.884-1.341,4.415-1.933
			c3.062-1.198,6.205-2.17,8.592-2.817c1.195-0.32,2.196-0.573,2.908-0.737c0.721-0.159,1.133-0.253,1.133-0.253L234.907,456.466z"
			/>
	</g>
	<g>
		<path d="M246.519,455.39c0,0,0.138-0.002,0.398-0.004c0.146,0.001,0.327,0.002,0.54,0.003c0.19,0.011,0.409,0.021,0.655,0.036
			c0.491,0.023,1.067,0.097,1.729,0.177c0.657,0.112,1.398,0.21,2.187,0.413c0.795,0.161,1.633,0.429,2.513,0.708
			c0.444,0.122,0.876,0.335,1.328,0.505c0.445,0.193,0.914,0.342,1.355,0.589c0.896,0.455,1.82,0.912,2.682,1.517
			c0.9,0.532,1.71,1.221,2.521,1.891c0.423,0.313,0.784,0.698,1.146,1.075c0.36,0.374,0.72,0.746,1.076,1.113
			c0.66,0.781,1.235,1.606,1.823,2.365c0.511,0.819,0.959,1.632,1.398,2.383c0.442,0.75,0.7,1.546,1.019,2.229
			c0.296,0.695,0.588,1.318,0.733,1.918c0.175,0.584,0.328,1.093,0.454,1.513c0.249,0.833,0.392,1.311,0.392,1.311
			s-0.216-0.448-0.593-1.233c-0.187-0.389-0.415-0.863-0.676-1.406c-0.233-0.554-0.615-1.12-1.007-1.741
			c-0.412-0.612-0.771-1.324-1.304-1.972c-0.534-0.646-1.07-1.339-1.659-2.018c-0.661-0.619-1.304-1.288-2.007-1.896
			c-0.373-0.28-0.749-0.563-1.126-0.846c-0.372-0.285-0.742-0.573-1.162-0.791c-0.812-0.475-1.602-0.962-2.457-1.295
			c-0.817-0.407-1.681-0.664-2.496-0.93c-0.402-0.153-0.83-0.213-1.229-0.315c-0.405-0.081-0.787-0.207-1.182-0.247
			c-0.779-0.114-1.505-0.229-2.189-0.255c-0.677-0.07-1.3-0.045-1.846-0.055c-0.542,0.021-1.02,0.036-1.396,0.08
			c-0.19,0.02-0.357,0.035-0.503,0.052c-0.124,0.021-0.229,0.037-0.315,0.051c-0.204,0.034-0.31,0.052-0.31,0.052L246.519,455.39z"
			/>
	</g>
	<g>
		<path d="M239.282,458.752c0,0-0.073-0.014-0.211-0.035c-0.093-0.021-0.269-0.048-0.54-0.072c-0.514-0.051-1.287-0.097-2.223-0.041
			c-0.474,0.014-0.979,0.075-1.517,0.146c-0.539,0.067-1.097,0.198-1.682,0.327c-0.565,0.177-1.181,0.311-1.754,0.568
			c-0.295,0.119-0.592,0.238-0.893,0.357l-0.856,0.445c-0.601,0.272-1.105,0.685-1.658,1.034c-0.544,0.362-0.993,0.823-1.486,1.219
			c-0.472,0.417-0.85,0.899-1.259,1.321c-0.425,0.415-0.692,0.905-1.011,1.313c-0.293,0.425-0.607,0.797-0.789,1.178
			c-0.206,0.371-0.386,0.695-0.534,0.962c-0.298,0.539-0.469,0.848-0.469,0.848s0.098-0.338,0.27-0.928
			c0.085-0.299,0.193-0.66,0.314-1.076c0.098-0.426,0.324-0.859,0.524-1.359c0.226-0.485,0.396-1.063,0.733-1.586
			c0.321-0.53,0.614-1.136,1.013-1.695c0.422-0.539,0.812-1.158,1.314-1.69c0.513-0.52,0.994-1.117,1.592-1.578l0.871-0.733
			c0.304-0.225,0.619-0.432,0.929-0.647c0.61-0.452,1.276-0.774,1.908-1.135c0.648-0.313,1.285-0.619,1.909-0.848
			c0.624-0.237,1.223-0.447,1.789-0.597c1.128-0.328,2.104-0.495,2.812-0.588c0.344-0.046,0.647-0.074,0.883-0.084
			c0.188-0.012,0.291-0.018,0.291-0.018L239.282,458.752z"/>
	</g>
	<g>
		<path d="M277.34,478.777c-1.06,2.261-2.778,5.447-5.544,8.83c-1.377,1.692-2.998,3.448-4.93,5.095
			c-1.929,1.648-4.143,3.226-6.658,4.504c-2.504,1.289-5.291,2.304-8.223,2.887c-0.735,0.141-1.47,0.293-2.218,0.367
			c-0.747,0.1-1.496,0.192-2.252,0.21c-0.755,0.038-1.513,0.079-2.268,0.05l-1.135-0.021l-0.283-0.006
			c-0.104-0.009,0.188,0.021-0.245-0.021l-0.03-0.007l-0.065-0.01l-0.131-0.018l-0.603-0.104c-3.039-0.593-5.823-1.507-8.518-2.669
			c-2.702-1.108-5.167-2.605-7.479-4.124c-1.098-0.848-2.239-1.594-3.23-2.485c-0.496-0.443-0.988-0.883-1.471-1.316
			c-0.486-0.432-0.969-0.854-1.382-1.335c-0.845-0.944-1.723-1.8-2.451-2.735c-0.704-0.947-1.386-1.865-2.037-2.747
			c-0.616-0.899-1.13-1.815-1.637-2.668c-0.246-0.429-0.488-0.846-0.722-1.252c-0.225-0.408-0.391-0.837-0.579-1.232
			c-0.357-0.808-0.709-1.546-1-2.245c-0.146-0.35-0.288-0.683-0.423-0.999c-0.104-0.332-0.204-0.647-0.299-0.947
			c-0.75-2.396-1.11-3.757-1.11-3.757s0.776,1.217,2.011,3.329c0.151,0.264,0.313,0.541,0.481,0.833
			c0.198,0.273,0.404,0.561,0.62,0.863c0.438,0.592,0.878,1.251,1.361,1.938c0.247,0.341,0.472,0.711,0.757,1.058
			c0.291,0.341,0.589,0.69,0.895,1.05c0.622,0.707,1.198,1.503,1.896,2.252c0.72,0.724,1.469,1.478,2.245,2.259
			c0.787,0.758,1.678,1.465,2.542,2.233c0.859,0.77,1.872,1.417,2.826,2.154c0.979,0.713,2.057,1.333,3.101,2.021
			c2.19,1.227,4.479,2.441,6.938,3.373c2.429,0.941,5.031,1.768,7.522,2.229l0.438,0.081l0.133,0.021l0.063,0.01l0.032,0.005
			c-0.408-0.04-0.096-0.011-0.179-0.019l0.243,0.006l0.976,0.025c0.651,0.039,1.298,0.006,1.944-0.021
			c0.648-0.008,1.289-0.076,1.929-0.137c0.642-0.04,1.271-0.152,1.904-0.255c2.519-0.422,4.944-1.15,7.213-2.116
			c2.267-0.967,4.361-2.177,6.264-3.479c1.9-1.309,3.622-2.695,5.135-4.081c3.017-2.787,5.274-5.458,6.784-7.39
			c1.507-1.939,2.286-3.133,2.286-3.133S278.396,476.51,277.34,478.777z"/>
	</g>
	<g>
		<path d="M290.324,433.523c-0.696-1.861-1.527-3.662-2.657-5.167c-0.277-0.378-0.583-0.725-0.89-1.062
			c-0.317-0.325-0.632-0.645-0.979-0.915c-0.161-0.151-0.347-0.265-0.523-0.39c-0.172-0.131-0.355-0.242-0.544-0.339
			c-0.365-0.222-0.756-0.374-1.144-0.52l-0.593-0.178l-0.608-0.111c-0.411-0.052-0.822-0.096-1.244-0.076l-0.63,0.012l-0.642,0.078
			c-0.423,0.036-0.855,0.174-1.282,0.249l0.396-0.131c-0.398,0.182-0.615,0.255-0.907,0.354c-0.271,0.089-0.544,0.166-0.813,0.227
			c-0.541,0.131-1.082,0.216-1.624,0.271c-1.083,0.1-2.171,0.08-3.234-0.069c-1.062-0.151-2.098-0.427-3.087-0.79
			c-0.991-0.362-1.94-0.812-2.837-1.322c-0.905-0.512-1.732-1.107-2.552-1.713l-0.039-0.028c0.044,0.034-0.112-0.085,0.096,0.074
			l-0.009-0.006l-0.02-0.012l-0.069-0.05l-0.144-0.099l-0.284-0.196c-0.181-0.119-0.218-0.095-0.323-0.162
			c-0.221-0.098-0.527-0.213-0.811-0.276c-1.163-0.299-2.638-0.14-4.113,0.33c-0.366,0.12-0.736,0.252-1.106,0.395l-0.552,0.231
			l-0.641,0.29c-0.998,0.425-1.924,0.733-2.898,1.021c-1.934,0.565-3.936,0.905-5.991,1.009c-2.05,0.103-4.172-0.076-6.235-0.672
			c-2.067-0.564-4.046-1.595-5.718-2.966l-0.285-0.269c0.115,0.119,0.058,0.056,0.067,0.064l-0.049-0.044l-0.157-0.118
			c-0.129-0.082-0.271-0.169-0.437-0.244c-0.322-0.153-0.701-0.279-1.104-0.383c-0.811-0.205-1.732-0.266-2.678-0.229
			c-1.902,0.073-3.919,0.506-5.897,1.146c-0.988,0.334-1.976,0.691-2.952,1.111c-0.981,0.4-1.965,0.824-2.932,1.293
			c-0.973,0.454-1.932,0.951-2.884,1.465l-2.856,1.573l-0.091,0.056c-0.137,0.057-0.354,0.175-0.533,0.279
			c-0.187,0.111-0.374,0.227-0.557,0.352c-0.369,0.248-0.724,0.523-1.062,0.818c-0.673,0.594-1.299,1.258-1.832,2.003
			c-1.065,1.49-1.74,3.297-1.979,5.229c-0.242-1.927,0.045-3.984,0.919-5.838c0.43-0.926,0.974-1.813,1.646-2.603
			c0.333-0.397,0.689-0.778,1.072-1.134c0.192-0.18,0.392-0.354,0.595-0.522c0.218-0.173,0.402-0.32,0.685-0.504l-0.091,0.057
			l1.321-1.031c0.438-0.353,0.906-0.659,1.358-0.991c0.916-0.649,1.845-1.285,2.804-1.886c0.955-0.607,1.926-1.197,2.938-1.733
			c1.005-0.541,2.048-1.028,3.11-1.494c2.144-0.889,4.405-1.666,6.9-1.926c1.246-0.125,2.545-0.137,3.896,0.104
			c0.676,0.119,1.357,0.306,2.044,0.593c0.34,0.14,0.684,0.314,1.027,0.515c0.172,0.106,0.346,0.217,0.524,0.348l0.271,0.213
			c0.112,0.103,0.158,0.127,0.368,0.35l-0.285-0.27c2.44,1.83,5.56,2.532,8.811,2.331c1.622-0.087,3.266-0.407,4.874-0.845
			c0.792-0.225,1.616-0.497,2.313-0.789l0.621-0.275l0.726-0.296c0.488-0.187,0.987-0.357,1.502-0.504
			c1.024-0.292,2.103-0.506,3.24-0.575c1.137-0.065,2.342,0.016,3.535,0.354c0.607,0.177,1.16,0.398,1.761,0.717
			c0.289,0.166,0.675,0.387,0.866,0.533l0.651,0.495c0.641,0.514,1.284,1.025,1.967,1.455c0.674,0.441,1.374,0.83,2.094,1.146
			c0.72,0.323,1.461,0.556,2.209,0.733c0.749,0.179,1.513,0.256,2.267,0.259c0.377-0.002,0.752-0.025,1.111-0.08
			c0.184-0.023,0.359-0.057,0.529-0.095c0.15-0.03,0.371-0.1,0.397-0.098l0.396-0.131c0.579-0.063,1.136-0.177,1.729-0.183
			l0.879-0.022l0.891,0.059c0.591,0.047,1.189,0.18,1.769,0.333l0.86,0.275l0.829,0.363c0.533,0.278,1.06,0.573,1.526,0.938
			c0.246,0.168,0.473,0.354,0.685,0.555c0.217,0.197,0.442,0.385,0.63,0.604c0.407,0.414,0.756,0.86,1.097,1.311
			c0.311,0.468,0.605,0.94,0.859,1.426c0.513,0.972,0.913,1.973,1.238,2.983c0.333,1.007,0.561,2.037,0.729,3.063
			c0.344,2.057,0.472,4.123,0.337,6.166C291.523,437.362,290.996,435.403,290.324,433.523z"/>
	</g>
	<g>
		<polygon points="245.693,421.678 244.599,448.023 240.7,421.946 		"/>
	</g>
</g>
</svg>
