<?xml version="1.0" encoding="utf-8"?>
<!-- Generator: Adobe Illustrator 16.0.0, SVG Export Plug-In . SVG Version: 6.00 Build 0)  -->
<!DOCTYPE svg PUBLIC "-//W3C//DTD SVG 1.1//EN" "http://www.w3.org/Graphics/SVG/1.1/DTD/svg11.dtd">
<svg version="1.1" id="Layer_2" xmlns="http://www.w3.org/2000/svg" xmlns:xlink="http://www.w3.org/1999/xlink" x="0px" y="0px"
	 width="500px" height="900px" viewBox="0 0 500 900" enable-background="new 0 0 500 900" xml:space="preserve">
<g>
	<path fill="none" stroke="#000000" stroke-width="5" stroke-miterlimit="10" d="M493.65,420.827
		c3.353,12.617,3.353,31.74,3.353,31.74c0,21.33-17.427,50.506-17.427,50.506c-16.426,18.875-33.588,0.242-33.588,0.242
		l-15.854-24.025l-12.584,14.223c-18.386,23.291-29.908,2.692-29.908,2.692c-23.535-28.435-19.12-44.372-19.12-44.372
		c-0.248-15.201,4.407-35.55,4.407-35.55c0.983-19.121,11.28-75.509,11.28-75.509c8.827-36.775,22.558-90.711,22.558-90.711
		c13.234-57.367,28.438-53.446,28.438-53.446c23.045,5.392,34.324,83.847,34.324,83.847c10.295,30.89,17.648,85.316,17.648,85.316
		c0,9.243,0.727,18.848,1.619,27.17C490.223,406.258,492.442,416.283,493.65,420.827z"/>
	<path fill="none" stroke="#000000" stroke-width="5" stroke-miterlimit="10" d="M375.995,390.205
		c65.825,34.724,112.679,1.586,112.679,1.586"/>
	<g>
		<path d="M455.484,498.9c-0.698-0.385-1.642-0.994-2.676-1.814c-1.036-0.818-2.165-1.852-3.261-3.059
			c-0.545-0.605-1.098-1.238-1.607-1.926c-0.532-0.67-1.021-1.391-1.499-2.119c-0.468-0.734-0.914-1.49-1.311-2.257
			c-0.424-0.749-0.746-1.554-1.071-2.313c-0.325-0.757-0.556-1.549-0.784-2.275c-0.218-0.738-0.348-1.477-0.473-2.137
			c-0.124-0.66-0.139-1.313-0.172-1.861c-0.041-0.549,0.011-1.051,0.057-1.456c0.085-0.81,0.196-1.253,0.196-1.253
			s0.32,0.373,0.766,1.001c0.211,0.315,0.485,0.683,0.814,1.099c0.331,0.413,0.626,0.886,1.023,1.381
			c0.393,0.497,0.758,1.043,1.185,1.608c0.437,0.564,0.837,1.173,1.29,1.794c0.456,0.621,0.88,1.275,1.34,1.938
			c0.464,0.658,0.882,1.355,1.347,2.032c0.867,1.389,1.733,2.79,2.484,4.159c0.758,1.366,1.419,2.689,1.944,3.867
			c0.53,1.175,0.916,2.212,1.166,2.959c0.255,0.744,0.369,1.205,0.369,1.205S456.171,499.299,455.484,498.9z"/>
	</g>
	<g>
		<path d="M433.615,224.79c0.443,1.116,1.12,2.747,1.867,4.862c1.537,4.216,3.556,10.308,5.558,17.745
			c1,3.718,2.041,7.762,2.963,12.078c0.969,4.308,1.875,8.877,2.681,13.629c0.757,4.758,1.574,9.676,2.107,14.713
			c0.598,5.029,1.029,10.158,1.393,15.292c0.168,2.569,0.229,5.142,0.35,7.704c0.05,2.562,0.102,5.116,0.154,7.648
			c-0.006,2.534-0.005,5.051-0.085,7.531c-0.107,2.484-0.17,4.938-0.308,7.345c-0.171,2.408-0.269,4.78-0.49,7.094
			c-0.236,2.31-0.469,4.569-0.693,6.77c-0.289,2.193-0.572,4.324-0.843,6.387c-0.295,2.061-0.678,4.036-0.99,5.938
			c-0.605,3.806-1.447,7.248-2.093,10.305c-0.755,3.04-1.42,5.684-2.031,7.841c-0.628,2.156-1.173,3.833-1.524,4.981
			c-0.355,1.145-0.546,1.756-0.546,1.756s0.099-0.632,0.282-1.82c0.191-1.184,0.435-2.928,0.816-5.127
			c0.309-2.209,0.686-4.892,1.118-7.97c0.176-1.542,0.361-3.183,0.557-4.912c0.102-0.863,0.208-1.748,0.313-2.654
			c0.086-0.907,0.173-1.838,0.264-2.785c0.384-3.793,0.64-7.913,0.958-12.262c0.098-2.178,0.196-4.414,0.3-6.699
			c0.064-2.287,0.134-4.623,0.203-6.998c0.052-2.375,0.029-4.792,0.051-7.236c-0.029-2.445-0.061-4.919-0.088-7.413
			c-0.079-2.493-0.158-5.006-0.238-7.529c-0.145-2.519-0.242-5.053-0.426-7.581c-0.3-5.06-0.667-10.116-1.198-15.083
			c-0.505-4.967-1.036-9.854-1.657-14.572c-0.675-4.711-1.269-9.278-1.987-13.587c-0.703-4.313-1.408-8.387-2.098-12.142
			c-0.717-3.749-1.381-7.188-2.012-10.23c-0.652-3.037-1.203-5.694-1.708-7.87c-0.506-2.181-0.903-3.893-1.174-5.06
			c-0.293-1.163-0.449-1.782-0.449-1.782S433.157,223.686,433.615,224.79z"/>
	</g>
	<g>
		<path d="M492.85,411.488c0,0-0.139,0.068-0.376,0.184c-0.237,0.109-0.574,0.265-0.979,0.451c-0.808,0.363-1.89,0.825-2.996,1.237
			c-1.103,0.412-2.24,0.769-3.124,0.925c-0.439,0.082-0.818,0.103-1.075,0.095c-0.252-0.034-0.396-0.056-0.396-0.056
			s0.128-0.055,0.351-0.154c0.21-0.124,0.485-0.315,0.787-0.591c0.607-0.544,1.325-1.375,1.998-2.248
			c0.675-0.871,1.312-1.775,1.771-2.461c0.226-0.343,0.414-0.628,0.545-0.828c0.124-0.196,0.192-0.31,0.192-0.31L492.85,411.488z"/>
	</g>
	<g>
		<path d="M494.663,417.832c0,0-0.027,0.022-0.077,0.063c-0.062,0.057-0.155,0.14-0.274,0.245c-0.127,0.107-0.297,0.275-0.464,0.388
			c-0.169,0.118-0.357,0.248-0.564,0.392c-0.202,0.147-0.443,0.263-0.681,0.402c-0.246,0.128-0.485,0.288-0.767,0.397
			c-0.552,0.231-1.102,0.497-1.706,0.645c-0.29,0.081-0.579,0.163-0.863,0.243c-0.286,0.069-0.582,0.096-0.854,0.14
			c-0.269,0.037-0.53,0.073-0.778,0.107c-0.238,0.046-0.482,0.021-0.696,0.025c-0.838-0.012-1.399-0.02-1.399-0.02
			s0.466-0.291,1.165-0.726c0.166-0.114,0.355-0.205,0.525-0.368c0.172-0.149,0.353-0.306,0.541-0.465
			c0.181-0.164,0.375-0.311,0.548-0.494c0.165-0.188,0.332-0.379,0.499-0.57c0.342-0.352,0.595-0.792,0.844-1.154
			c0.131-0.175,0.212-0.385,0.308-0.557c0.088-0.181,0.188-0.336,0.24-0.497c0.061-0.154,0.114-0.295,0.162-0.42
			c0.054-0.127,0.039-0.197,0.061-0.27c0.01-0.063,0.017-0.11,0.045-0.188c0.018-0.063,0.028-0.094,0.028-0.094L494.663,417.832z"/>
	</g>
	<g>
		<path d="M496.05,425.387c-0.01,0.005-0.085,0.033-0.365,0.19c-0.126,0.064-0.302,0.172-0.459,0.234
			c-0.164,0.07-0.352,0.149-0.554,0.236c-0.405,0.154-0.87,0.329-1.373,0.475c-0.506,0.138-1.026,0.296-1.568,0.385
			c-0.533,0.109-1.059,0.199-1.56,0.236c-0.496,0.047-0.942,0.104-1.34,0.091c-0.768-0.001-1.281-0.002-1.281-0.002
			s0.411-0.294,1.026-0.736c0.305-0.201,0.629-0.506,0.971-0.806c0.349-0.289,0.687-0.636,1.009-0.988
			c0.33-0.332,0.615-0.714,0.886-1.047c0.262-0.34,0.479-0.675,0.658-0.949c0.082-0.14,0.156-0.269,0.223-0.383
			c0.077-0.118,0.085-0.191,0.12-0.264c0.04-0.118,0.132-0.267,0.124-0.258L496.05,425.387z"/>
	</g>
</g>
<g>
	<path fill="none" stroke="#000000" stroke-width="5" stroke-miterlimit="10" d="M300.793,290.356
		c2.941,19.123-3.863,33.342-28.872,44.127c-25.005,10.79-23.534,3.679-47.562-6.62c-24.029-10.294-22.31-31.135-22.31-31.135
		c-1.72-15.444,11.028-48.54,11.028-48.54c2.943-6.866,6.374-21.82,6.374-21.82c0-25.99,10.3-97.578,10.3-97.578
		c1.958-16.18,16.18-75.02,16.18-75.02c4.414-15.198,6.866-32.917,19.125-32.917c12.256,0,11.274,20.66,11.274,20.66
		c0,7.844,2.452,38.244,2.452,38.244c7.356,32.36,7.848,119.148,7.848,119.148c2.451,50.014,7.845,63.744,7.845,63.744
		C296.055,268.454,297.854,271.231,300.793,290.356z"/>
	<path fill="none" stroke="#000000" stroke-width="5" stroke-miterlimit="10" d="M219.127,227.76
		c8.009-9.889,32.74-9.729,32.74-9.729c21.38-0.247,37.487,16.232,37.487,16.232"/>
	<g>
		<path d="M266.656,232.782c-0.234,0.014-0.58,0.069-1.006,0.09c-0.861,0.073-2.065,0.146-3.477,0.193
			c-0.696,0.016-1.453,0.032-2.256,0.05c-0.791-0.009-1.627,0.031-2.479,0.006c-0.856,0.011-1.733-0.003-2.621-0.017
			c-0.888,0.02-1.788-0.05-2.686-0.024c-0.897-0.023-1.793-0.038-2.674-0.04c-0.439,0.001-0.878-0.011-1.313-0.034
			c-0.432,0.006-0.858,0.018-1.281,0.001c-0.423-0.014-0.839-0.009-1.25-0.034c-0.407,0-0.803,0.013-1.197,0.002
			c-0.786-0.016-1.54-0.059-2.229-0.039c-0.697-0.005-1.348-0.03-1.934-0.063c-0.573,0.01-1.092-0.016-1.52-0.029
			c-0.861-0.033-1.384-0.103-1.384-0.103s0.376-0.342,1.093-0.85c0.359-0.251,0.798-0.567,1.322-0.89
			c0.528-0.288,1.142-0.591,1.822-0.903c0.682-0.331,1.441-0.591,2.254-0.849c0.407-0.134,0.828-0.248,1.262-0.378
			c0.433-0.108,0.881-0.184,1.336-0.282c0.911-0.19,1.857-0.338,2.828-0.397c0.969-0.113,1.955-0.111,2.937-0.111
			c0.987,0.001,1.964,0.092,2.925,0.189c0.96,0.101,1.897,0.271,2.796,0.455c0.897,0.209,1.761,0.413,2.562,0.682
			c0.803,0.253,1.551,0.533,2.23,0.825c1.363,0.574,2.447,1.193,3.18,1.682c0.735,0.477,1.121,0.826,1.121,0.826
			S266.893,232.753,266.656,232.782z"/>
	</g>
	<g>
		<path d="M264.723,239.133c-0.211,0.001-0.534,0.046-0.917,0.046c-0.786,0.049-1.868,0.083-3.133,0.123
			c-2.526,0.069-5.738,0.109-8.938,0.141c-0.801-0.01-1.604,0.045-2.396,0.015c-0.791,0.029-1.571,0.036-2.338,0.019
			c-0.763,0.008-1.504,0.021-2.219,0c-0.716-0.042-1.387,0.001-2.028-0.031c-0.636-0.014-1.237-0.079-1.763-0.081
			c-0.529-0.014-1.003-0.061-1.395-0.091c-0.787-0.067-1.266-0.158-1.266-0.158s0.339-0.324,0.985-0.797
			c0.325-0.234,0.717-0.528,1.186-0.824c0.463-0.315,1.02-0.576,1.624-0.879c0.611-0.279,1.274-0.619,2.005-0.848
			c0.73-0.239,1.509-0.498,2.324-0.693c0.823-0.169,1.677-0.348,2.554-0.454c0.881-0.088,1.778-0.157,2.677-0.174
			c0.898,0.033,1.8,0.008,2.68,0.135c0.881,0.085,1.745,0.218,2.569,0.414c1.65,0.352,3.146,0.905,4.374,1.495
			c0.61,0.301,1.158,0.601,1.63,0.907c0.473,0.285,0.86,0.605,1.18,0.845c0.631,0.507,0.939,0.873,0.939,0.873
			S264.941,239.121,264.723,239.133z"/>
	</g>
	<g>
		<path d="M271.08,333.692c0,0,0.06-0.683,0.113-1.784c0.037-0.553,0.067-1.238,0.083-2.045c0.018-0.799,0.057-1.702,0.063-2.692
			c-0.001-0.99-0.003-2.064-0.004-3.2c0.016-1.14-0.04-2.34-0.074-3.582c-0.039-1.245-0.081-2.531-0.123-3.84
			c-0.079-1.307-0.159-2.635-0.24-3.963c-0.093-1.327-0.135-2.663-0.27-3.968c-0.121-1.307-0.237-2.593-0.352-3.838
			c-0.114-1.247-0.227-2.453-0.33-3.596c-0.139-1.141-0.271-2.217-0.391-3.21c-0.493-3.984-0.822-6.641-0.822-6.641
			s0.636,2.603,1.591,6.503c0.239,0.979,0.495,2.037,0.766,3.157c0.239,1.128,0.49,2.318,0.75,3.547
			c0.263,1.233,0.531,2.506,0.805,3.799c0.286,1.293,0.483,2.622,0.733,3.944c0.237,1.325,0.476,2.65,0.708,3.955
			c0.197,1.313,0.392,2.604,0.579,3.854c0.184,1.252,0.379,2.461,0.501,3.616c0.139,1.156,0.269,2.249,0.389,3.26
			c0.112,1.01,0.182,1.944,0.261,2.771c0.082,0.821,0.134,1.555,0.166,2.171c0.082,1.238,0.101,1.892,0.101,1.892L271.08,333.692z"
			/>
	</g>
	<g>
		<path d="M227.447,330.458c0,0,0.029-0.62,0.081-1.705c0.056-1.1,0.144-2.665,0.291-4.519c0.119-1.862,0.344-4.027,0.563-6.341
			c0.098-1.158,0.265-2.353,0.41-3.564c0.15-1.211,0.303-2.44,0.456-3.671c0.195-1.224,0.394-2.45,0.585-3.656
			c0.206-1.202,0.357-2.389,0.598-3.527c0.238-1.138,0.47-2.236,0.689-3.278c0.229-1.039,0.41-2.026,0.635-2.924
			c1.007-3.563,1.68-5.938,1.68-5.938s-0.363,2.431-0.909,6.076c-0.11,0.912-0.164,1.912-0.257,2.96
			c-0.085,1.048-0.176,2.153-0.269,3.297c-0.094,1.141-0.092,2.334-0.144,3.536c-0.038,1.203-0.077,2.424-0.116,3.646
			c0.005,1.223,0.009,2.445,0.014,3.649c0.011,1.204-0.008,2.385,0.043,3.531c0.075,2.291,0.123,4.424,0.241,6.251
			c0.086,1.831,0.194,3.339,0.274,4.39c0.085,1.066,0.133,1.676,0.133,1.676L227.447,330.458z"/>
	</g>
	<g>
		<path d="M252.011,51.56c-0.115,1.114-0.255,2.757-0.493,4.835c-0.454,4.161-1.134,10.097-2.063,17.201
			c-0.457,3.553-0.951,7.399-1.531,11.462c-0.57,4.061-1.138,8.35-1.814,12.771c-0.682,4.421-1.291,9.004-2.04,13.641
			c-0.72,4.638-1.454,9.351-2.186,14.063c-0.764,4.707-1.528,9.414-2.281,14.047c-0.727,4.64-1.526,9.187-2.254,13.598
			c-0.709,4.41-1.438,8.669-2.137,12.708c-0.647,4.043-1.291,7.86-1.908,11.386c-0.543,3.527-1.076,6.763-1.563,9.631
			c-0.422,2.874-0.79,5.38-1.094,7.443c-0.262,2.065-0.421,3.694-0.555,4.811c-0.126,1.117-0.191,1.713-0.191,1.713
			s-0.027-0.597-0.079-1.716c-0.029-1.119-0.179-2.774-0.167-4.875c0.043-2.093,0.07-4.646,0.183-7.568
			c0.164-2.913,0.344-6.204,0.616-9.787c0.304-3.573,0.623-7.452,1.062-11.542c0.453-4.084,0.887-8.399,1.477-12.842
			c0.605-4.438,1.115-9.046,1.839-13.691c0.699-4.652,1.41-9.375,2.121-14.102c0.79-4.711,1.581-9.422,2.358-14.059
			c0.771-4.64,1.656-9.183,2.469-13.585c0.793-4.406,1.667-8.649,2.479-12.672c0.791-4.028,1.618-7.822,2.384-11.324
			c0.74-3.506,1.488-6.708,2.146-9.546c0.643-2.841,1.263-5.309,1.757-7.34c0.485-2.035,0.93-3.623,1.202-4.71
			c0.286-1.088,0.438-1.665,0.438-1.665S252.126,50.441,252.011,51.56z"/>
	</g>
</g>
<g>
	<path fill="none" stroke="#000000" stroke-width="5" stroke-miterlimit="10" d="M9.384,412.017
		c-3.926,8.091-3.354,41.43-3.354,41.43c0,25.5,20.024,50.018,20.024,50.018c6.375,13.73,24.515,3.929,24.515,3.929
		c12.258-9.8,21.433-21.091,21.433-21.091c7.703,22.066,28.093,21.087,28.093,21.087c14.711-1.47,24.729-28.933,24.729-28.933
		c15.415-34.321-0.212-74.531-0.212-74.531s2.453-30.397-9.313-63.251c0,0-26.971-95.125-30.893-115.718
		c0,0-5.395-28.553-18.632-28.007c0,0-11.771-6.318-20.595,33.154c0,0-39.228,143.423-31.872,173.821L9.384,412.017z"/>
	<path fill="none" stroke="#000000" stroke-width="5" stroke-miterlimit="10" d="M13.308,403.926
		c7.273,1.472,51.728,6.132,65.949,1.717c14.219-4.412,45.354-1.717,45.354-1.717"/>
	<g>
		<path d="M92.779,496.783c-0.847-0.549-1.688-1.11-2.507-1.714c-0.829-0.589-1.629-1.221-2.395-1.898
			c-0.777-0.664-1.524-1.368-2.257-2.098c-0.377-0.352-0.715-0.741-1.067-1.123c-0.345-0.387-0.705-0.762-1.021-1.178l-0.977-1.227
			c-0.314-0.419-0.597-0.863-0.896-1.298c-0.617-0.854-1.101-1.808-1.635-2.729l0.228,0.381l-0.509-0.566
			c-0.186-0.195-0.369-0.398-0.563-0.588c-0.383-0.388-0.782-0.76-1.185-1.117c-0.398-0.367-0.813-0.703-1.227-1.037
			c-0.423-0.313-0.842-0.628-1.277-0.896c-0.213-0.146-0.43-0.273-0.646-0.392c-0.216-0.117-0.429-0.269-0.646-0.354l-0.646-0.303
			l-0.64-0.219c-0.213-0.092-0.415-0.096-0.618-0.152c-0.207-0.057-0.407-0.088-0.596-0.088c-0.186,0.002-0.39-0.07-0.563-0.024
			c-0.181,0.021-0.357,0.034-0.538,0.039l-0.639,0.021l0.068,0.01c0.027,0.004-0.182,0.004-0.305,0.018
			c-0.136,0.002-0.301,0.027-0.451,0.041c-0.313,0.044-0.633,0.086-0.959,0.16c-0.324,0.062-0.653,0.143-0.981,0.23
			c-0.329,0.072-0.653,0.203-0.982,0.301c-0.331,0.101-0.653,0.247-0.979,0.367c-0.328,0.115-0.643,0.287-0.965,0.428
			c-0.323,0.141-0.64,0.305-0.955,0.473c-0.313,0.17-0.636,0.318-0.939,0.516c-0.621,0.366-1.233,0.748-1.824,1.179
			c-0.617,0.39-1.178,0.872-1.768,1.313c-0.3,0.214-0.564,0.479-0.848,0.717l-0.844,0.729l-1.622,1.56l-0.132,0.135
			c-0.701,0.616-1.45,1.275-2.165,1.929l-2.145,2.001c-1.405,1.359-2.82,2.713-4.145,4.146c-1.306,1.443-2.634,2.879-3.744,4.465
			c-0.277,0.395-0.562,0.788-0.813,1.199c-0.256,0.41-0.5,0.828-0.699,1.264c-0.209,0.436-0.406,0.877-0.534,1.344
			c-0.148,0.467-0.202,0.947-0.217,1.455c-0.153-0.477-0.248-0.996-0.235-1.516c-0.004-0.521,0.043-1.049,0.156-1.555
			c0.094-0.518,0.241-1.018,0.397-1.512c0.157-0.498,0.344-0.98,0.536-1.463c0.839-1.887,1.833-3.701,2.98-5.389
			c1.139-1.696,2.333-3.354,3.627-4.92c0.639-0.791,1.297-1.564,1.974-2.324c0.683-0.764,1.345-1.508,2.088-2.262l-0.131,0.135
			l1.665-1.888l0.897-0.896c0.308-0.291,0.591-0.604,0.92-0.877c0.648-0.552,1.267-1.138,1.965-1.646
			c0.675-0.529,1.391-1.014,2.124-1.48c0.354-0.246,0.745-0.449,1.123-0.668c0.38-0.217,0.757-0.436,1.161-0.618
			c0.4-0.183,0.787-0.394,1.205-0.551c0.415-0.161,0.816-0.343,1.246-0.484c0.43-0.136,0.844-0.3,1.288-0.407
			c0.436-0.12,0.876-0.241,1.331-0.322c0.45-0.098,0.919-0.158,1.393-0.215c0.245-0.021,0.472-0.053,0.735-0.06
			c0.273-0.011,0.462-0.023,0.886-0.005l-0.568,0.029c0.409-0.04,0.822-0.074,1.233-0.096c0.417-0.047,0.803,0.04,1.205,0.061
			l0.594,0.066l0.561,0.137c0.365,0.098,0.761,0.168,1.093,0.313l1.025,0.401l0.948,0.481c0.327,0.151,0.598,0.351,0.896,0.526
			c0.299,0.178,0.583,0.365,0.849,0.57c0.554,0.389,1.058,0.815,1.562,1.24c0.484,0.438,0.965,0.879,1.412,1.342
			c0.453,0.46,0.878,0.943,1.292,1.43c0.209,0.242,0.406,0.498,0.609,0.748c0.203,0.264,0.383,0.499,0.607,0.813l0.151,0.212
			l0.076,0.168l0.563,1.252c0.174,0.426,0.385,0.836,0.611,1.24c0.42,0.823,0.897,1.628,1.393,2.426
			c0.232,0.408,0.517,0.786,0.781,1.177c0.273,0.387,0.516,0.798,0.812,1.171c0.561,0.771,1.143,1.531,1.766,2.264
			c0.299,0.378,0.625,0.732,0.947,1.092c0.314,0.367,0.626,0.74,0.961,1.092c0.649,0.721,1.336,1.416,2.033,2.103
			c1.383,1.394,2.845,2.72,4.378,4.003C96.265,498.808,94.495,497.842,92.779,496.783z"/>
	</g>
	<g>
		<path d="M73.584,476.938c0,0-0.269,0.381-0.742,1.045c-0.483,0.676-1.178,1.633-2.026,2.742c-0.831,1.128-1.859,2.403-2.942,3.771
			c-1.087,1.367-2.319,2.773-3.508,4.199c-0.627,0.691-1.254,1.378-1.871,2.059c-0.626,0.67-1.204,1.354-1.827,1.967
			c-0.618,0.615-1.22,1.205-1.786,1.768c-0.572,0.557-1.092,1.098-1.606,1.565c-2.112,1.8-3.518,2.999-3.518,2.999
			s1.175-1.411,2.94-3.527c0.422-0.541,0.843-1.162,1.308-1.797c0.459-0.639,0.939-1.313,1.438-2.008
			c0.499-0.692,0.952-1.461,1.445-2.212c0.483-0.756,0.974-1.524,1.465-2.292c0.917-1.584,1.869-3.137,2.688-4.635
			c0.819-1.502,1.597-2.887,2.207-4.107c0.638-1.211,1.134-2.219,1.475-2.921c0.346-0.718,0.543-1.128,0.543-1.128L73.584,476.938z"
			/>
	</g>
	<g>
		<path d="M71.519,249.962c0.816,1.791,1.783,3.979,2.809,6.521s2.172,5.417,3.285,8.603c0.579,1.586,1.133,3.254,1.736,4.975
			c0.564,1.729,1.142,3.521,1.7,5.375c1.138,3.701,2.269,7.625,3.305,11.722c1.039,4.096,2.021,8.355,2.877,12.712
			c0.872,4.354,1.634,8.803,2.268,13.274c0.637,4.47,1.137,8.96,1.511,13.39c0.188,2.215,0.308,4.418,0.445,6.592
			c0.079,2.178,0.158,4.329,0.235,6.445c0.009,2.118,0.04,4.2,0.021,6.237c-0.061,2.036-0.118,4.029-0.179,5.969
			c-0.176,3.877-0.431,7.536-0.822,10.897c-0.28,3.37-0.834,6.433-1.212,9.146c-0.483,2.706-0.933,5.053-1.339,6.978
			c-0.896,3.84-1.464,6.008-1.464,6.008s0.137-2.252,0.479-6.148c0.114-1.951,0.258-4.32,0.421-7.038
			c0.042-1.356,0.087-2.804,0.135-4.327c0.028-0.76,0.057-1.54,0.086-2.338c0.007-0.799,0.017-1.616,0.028-2.451
			c0.068-3.336-0.006-6.949-0.045-10.763c-0.067-1.907-0.139-3.865-0.208-5.867c-0.109-1.999-0.224-4.041-0.335-6.118
			c-0.156-2.071-0.313-4.18-0.473-6.313c-0.201-2.13-0.403-4.286-0.608-6.459c-0.481-4.34-0.979-8.747-1.629-13.137
			c-0.301-2.198-0.62-4.394-0.988-6.573c-0.341-2.186-0.71-4.357-1.09-6.508c-0.365-2.156-0.801-4.281-1.176-6.393
			c-0.423-2.102-0.841-4.179-1.251-6.221c-0.865-4.076-1.695-8.023-2.586-11.745c-0.891-3.72-1.741-7.241-2.579-10.479
			c-0.861-3.235-1.652-6.201-2.354-8.829c-0.747-2.621-1.399-4.906-1.935-6.788c-0.563-1.879-1.003-3.355-1.304-4.361
			c-0.311-1.006-0.477-1.542-0.477-1.542S69.889,246.381,71.519,249.962z"/>
	</g>
</g>
<g>
	<path fill="none" stroke="#000000" stroke-width="5" stroke-miterlimit="10" d="M301.973,848.703
		c0,19.94-26.479,32.688-26.479,32.688c-7.193,6.211-16.672,8.324-16.672,8.324h-12.749c-14.71,0-36.773-24.34-36.773-24.34
		c-9.317-7.357-3.435-33.343-3.435-33.343c2.454-23.536,12.259-53.938,12.259-53.938c0.984-45.601,16.183-123.563,16.183-123.563
		c6.376-25.495,4.413-50.992,4.413-50.992c-2.94-25.5,7.847-26.479,7.847-26.479c18.63-0.492,22.063,34.813,22.063,34.813
		c16.671,41.681,17.65,164.748,17.65,164.748c1.474,21.085,10.299,38.737,10.299,38.737
		C301.972,821.896,301.972,848.701,301.973,848.703z"/>
	<path fill="none" stroke="#000000" stroke-width="5" stroke-miterlimit="10" d="M218.615,780.663c33.67-26.521,68.038,0,68.038,0"
		/>
	<g>
		<path d="M295.447,848.437c0.008,0.916-0.159,1.82-0.339,2.725l-0.365,1.335c-0.149,0.437-0.317,0.865-0.486,1.3
			c-0.171,0.432-0.392,0.834-0.589,1.256c-0.188,0.426-0.428,0.82-0.664,1.218c-0.244,0.393-0.456,0.814-0.727,1.187l-0.803,1.133
			c-0.266,0.387-0.573,0.724-0.869,1.077l-0.898,1.06c-0.639,0.66-1.282,1.324-1.937,1.973c-0.679,0.615-1.371,1.218-2.072,1.816
			l0.162-0.135c-1.155,1.172-2.296,2.277-3.471,3.385c-1.166,1.107-2.361,2.186-3.585,3.232c-2.439,2.105-4.97,4.118-7.62,5.998
			c-2.648,1.887-5.418,3.639-8.403,5.148c-0.744,0.378-1.516,0.723-2.297,1.057c-0.779,0.336-1.59,0.635-2.408,0.918l-1.265,0.381
			l-1.313,0.306c-0.447,0.087-0.912,0.147-1.367,0.218c-0.468,0.049-0.95,0.072-1.428,0.101l-0.13,0.011l-0.129-0.018
			c-0.704-0.08-1.085-0.182-1.581-0.296c-0.465-0.118-0.908-0.253-1.356-0.392l-1.292-0.467l-1.242-0.527
			c-0.825-0.359-1.609-0.772-2.396-1.18c-0.755-0.453-1.535-0.872-2.264-1.354c-0.721-0.494-1.471-0.949-2.158-1.475l-2.053-1.591
			l-1.95-1.69c-0.663-0.549-1.251-1.171-1.872-1.758c-0.603-0.608-1.227-1.192-1.78-1.838l-1.699-1.902
			c-0.579-0.619-1.087-1.299-1.619-1.957l-1.555-2.002c-0.972-1.38-1.942-2.756-2.856-4.164c-0.881-1.436-1.734-2.883-2.558-4.339
			c1.182,1.2,2.329,2.409,3.452,3.632l1.77,1.756l1.737,1.768l1.819,1.675c0.607,0.556,1.171,1.148,1.807,1.669l1.858,1.599
			c0.601,0.549,1.276,1.011,1.905,1.523c0.639,0.499,1.248,1.036,1.917,1.487l1.965,1.402l2.024,1.283
			c0.683,0.414,1.375,0.792,2.061,1.191c0.687,0.39,1.401,0.711,2.097,1.069c0.714,0.308,1.415,0.65,2.132,0.914l1.072,0.397
			l1.073,0.33l1.052,0.26c0.314,0.068,0.748,0.141,0.872,0.15l-0.259-0.009l0.941-0.098c0.327-0.067,0.649-0.114,0.979-0.188
			c0.662-0.157,1.333-0.358,2.01-0.578c0.676-0.245,1.354-0.499,2.03-0.8c0.675-0.297,1.351-0.604,2.019-0.951
			c1.347-0.658,2.675-1.404,3.988-2.195c1.309-0.791,2.623-1.605,3.908-2.469c2.581-1.711,5.106-3.543,7.615-5.416l3.729-2.857
			c1.234-0.961,2.471-1.954,3.646-2.94l0.149-0.128l0.011-0.008c0.688-0.493,1.382-0.977,2.089-1.455
			c0.671-0.51,1.333-1.038,2-1.563l0.936-0.852c0.31-0.287,0.639-0.561,0.916-0.874l0.881-0.906
			c0.306-0.299,0.549-0.638,0.828-0.954c0.274-0.322,0.551-0.645,0.782-0.995c0.236-0.348,0.504-0.685,0.721-1.043l0.654-1.089
			l0.574-1.141c0.333-0.781,0.633-1.588,0.833-2.428c0.214-0.838,0.337-1.707,0.302-2.596
			C295.387,846.61,295.456,847.527,295.447,848.437z"/>
	</g>
</g>
<g>
	<path fill="none" stroke="#000000" stroke-width="5" stroke-miterlimit="10" d="M283.706,400.818
		c17.366,10.684,17.326,30.247,17.326,30.247s1.963,17.976-2.614,38.571c-4.575,20.595-28.11,34.323-28.11,34.323
		c-19.942,16.016-37.596,6.536-37.596,6.536c-16.016-4.577-27.458-32.52-27.458-32.52c-4.577-6.373-3.184-44.952-3.184-44.952
		c-0.564-18.306,17.893-32.207,17.893-32.207c17.325-16.846,29.095-13.721,29.095-13.721
		C270.306,384.646,273.781,394.705,283.706,400.818z"/>
	<g>
		<path d="M275.539,441.961c-0.946,1.074-2.013,2.029-3.087,2.994c-0.546,0.47-1.126,0.899-1.691,1.353
			c-0.575,0.437-1.185,0.828-1.784,1.242c-0.592,0.427-1.24,0.759-1.868,1.132c-0.626,0.379-1.278,0.712-1.945,1.021
			c-0.67,0.297-1.318,0.658-2.017,0.896l-2.081,0.771c-0.707,0.221-1.428,0.4-2.146,0.6c-0.358,0.091-0.72,0.192-1.084,0.271
			l-1.104,0.184c-0.74,0.107-1.476,0.266-2.22,0.334l-2.244,0.116c-0.75,0.067-1.499,0.034-2.248-0.024l-2.246-0.145l0.325,0.02
			c-0.926-0.001-1.667-0.05-2.479-0.131c-0.791-0.079-1.577-0.18-2.354-0.31c-0.784-0.098-1.551-0.296-2.321-0.452
			c-0.769-0.168-1.525-0.396-2.287-0.594c-0.757-0.216-1.496-0.502-2.242-0.752s-1.463-0.59-2.188-0.897
			c-0.73-0.293-1.422-0.688-2.122-1.054c-0.704-0.354-1.387-0.753-2.038-1.205c-0.652-0.448-1.34-0.833-1.945-1.347l-1.824-1.502
			c-0.585-0.526-1.109-1.12-1.661-1.673l-0.8-0.855l-0.711-0.936c-0.455-0.635-0.935-1.244-1.349-1.896
			c-0.378-0.679-0.772-1.34-1.123-2.021c-0.388-0.659-0.66-1.38-0.927-2.095c-0.253-0.725-0.521-1.429-0.748-2.143
			c0.497,0.583,0.952,1.176,1.423,1.75c0.445,0.591,0.884,1.174,1.428,1.679c0.521,0.52,0.999,1.061,1.493,1.581
			c0.521,0.5,1.097,0.943,1.63,1.413l0.798,0.704l0.872,0.616c0.582,0.405,1.128,0.846,1.729,1.216l1.81,1.073
			c0.594,0.364,1.255,0.625,1.869,0.95c0.314,0.149,0.619,0.315,0.938,0.456l0.975,0.389c0.645,0.261,1.276,0.55,1.951,0.745
			c0.671,0.201,1.308,0.474,1.986,0.643c0.677,0.175,1.343,0.378,2.022,0.533c0.684,0.143,1.356,0.321,2.045,0.44
			c0.69,0.105,1.373,0.253,2.063,0.335c0.688,0.104,1.377,0.183,2.064,0.239c0.669,0.056,1.409,0.101,1.97,0.114l0.135,0.003
			l0.191,0.017l1.921,0.143c0.643,0.053,1.281,0.118,1.924,0.083l1.932-0.02c0.643-0.037,1.283-0.116,1.927-0.171l0.968-0.089
			c0.32-0.045,0.639-0.116,0.956-0.171c0.641-0.115,1.285-0.208,1.924-0.34c0.633-0.167,1.265-0.33,1.904-0.48
			c0.649-0.132,1.257-0.389,1.89-0.577c0.638-0.19,1.269-0.396,1.882-0.656c0.609-0.259,1.258-0.452,1.859-0.745l1.842-0.831
			l1.82-0.912l1.797-0.986l1.769-1.069c1.178-0.73,2.324-1.513,3.467-2.354C277.402,439.786,276.507,440.905,275.539,441.961z"/>
	</g>
	<g>
		<path d="M257.47,447.508c0,0,0.158,0.025,0.454,0.078c0.28,0.052,0.667,0.138,1.154,0.26c0.966,0.255,2.32,0.651,3.865,1.357
			c1.542,0.694,3.29,1.703,4.896,3.145c0.797,0.728,1.541,1.572,2.195,2.498c0.62,0.95,1.17,1.965,1.532,3.042
			c0.37,1.069,0.603,2.173,0.688,3.251c0.041,0.541,0.086,1.074,0.058,1.596c-0.003,0.523-0.024,1.035-0.095,1.533
			c-0.084,1-0.294,1.938-0.494,2.814c-0.229,0.874-0.46,1.689-0.736,2.419c-0.239,0.741-0.528,1.392-0.773,1.971
			c-0.233,0.583-0.47,1.077-0.674,1.477c-0.394,0.807-0.622,1.267-0.622,1.267s0.153-0.49,0.422-1.345
			c0.141-0.425,0.296-0.942,0.438-1.548c0.152-0.6,0.335-1.272,0.455-2.022c0.161-0.741,0.259-1.554,0.349-2.407
			c0.063-0.856,0.122-1.754,0.06-2.67c-0.006-0.46-0.062-0.92-0.13-1.381c-0.042-0.465-0.156-0.919-0.261-1.374
			c-0.213-0.909-0.552-1.784-0.979-2.595c-0.419-0.813-0.979-1.531-1.563-2.188c-0.618-0.633-1.286-1.188-1.984-1.654
			c-1.418-0.918-2.917-1.507-4.246-1.869c-1.327-0.375-2.479-0.523-3.266-0.605c-0.393-0.037-0.702-0.056-0.896-0.063
			c-0.18-0.001-0.275-0.002-0.275-0.002L257.47,447.508z"/>
	</g>
	<g>
		<path d="M219.438,465.79c0,0,0.076-0.375,0.211-1.029c0.065-0.331,0.146-0.73,0.242-1.188c0.171-0.553,0.372-1.17,0.601-1.83
			c0.2-0.688,0.563-1.277,0.896-1.943c0.311-0.676,0.766-1.306,1.224-1.951c0.425-0.673,1.001-1.25,1.536-1.863
			c0.533-0.619,1.185-1.124,1.77-1.684c0.645-0.496,1.27-1.002,1.922-1.438c0.662-0.424,1.296-0.854,1.954-1.194
			c0.641-0.371,1.279-0.687,1.888-0.97c0.599-0.302,1.197-0.519,1.728-0.752c2.17-0.85,3.67-1.181,3.67-1.181
			s-1.408,0.632-3.311,1.874c-0.466,0.331-0.986,0.65-1.493,1.055c-0.519,0.387-1.055,0.803-1.575,1.271
			c-0.542,0.438-1.041,0.959-1.559,1.463c-0.509,0.514-0.969,1.083-1.439,1.627c-0.405,0.599-0.879,1.139-1.211,1.752
			c-0.336,0.605-0.717,1.168-0.935,1.78c-0.258,0.592-0.517,1.149-0.636,1.72c-0.142,0.551-0.341,1.081-0.35,1.522
			c-0.051,0.45-0.105,0.849-0.161,1.197c0.001,0.468,0.002,0.874,0.003,1.21c0.002,0.671,0.003,1.057,0.003,1.057L219.438,465.79z"
			/>
	</g>
	<g>
		<path d="M260.102,447.971c0,0,7.177,1.351,14.383,2.585c3.601,0.614,7.207,1.217,9.917,1.582c1.355,0.201,2.484,0.346,3.28,0.393
			c0.799,0.068,1.256,0.107,1.256,0.107s-0.455,0.039-1.252,0.105c-0.803,0.092-1.95,0.141-3.323,0.176
			c-2.755,0.101-6.421,0.119-10.088,0.128c-7.33,0.008-14.669-0.103-14.669-0.103L260.102,447.971z"/>
	</g>
	<g>
		<polygon points="235.497,451.266 225.033,448.766 235.488,446.266 		"/>
	</g>
	<g>
		<path d="M286.921,439.73c-0.584-2.279-1.241-4.509-2.09-6.627c-0.409-1.062-0.887-2.087-1.388-3.081
			c-0.265-0.49-0.51-0.987-0.809-1.45c-0.272-0.478-0.562-0.939-0.875-1.383c-0.601-0.901-1.293-1.716-1.988-2.504
			c-0.742-0.74-1.499-1.453-2.336-2.048c-0.413-0.305-0.832-0.598-1.285-0.837c-0.434-0.273-0.887-0.504-1.354-0.714
			c-0.919-0.448-1.901-0.761-2.905-1.027c-1.008-0.259-2.049-0.441-3.114-0.523c-1.077-0.145-2.189-0.15-3.331-0.163
			c-2.259-0.015-4.53,0.104-6.624,0.503c-1.034,0.201-2.045,0.485-2.839,0.893c-0.834,0.402-1.325,0.891-1.601,1.499l-0.196,0.438
			l0.035-0.015c0.026-0.011,0.035-0.036,0.021-0.057c-0.018,0.061-0.044,0.21-0.066,0.311l-0.145,0.677
			c-0.045,0.232-0.122,0.438-0.139,0.704l-0.086,0.765c-0.053,0.51-0.125,1.02-0.191,1.533c-0.058,0.516-0.159,1.025-0.182,1.551
			c-0.061,1.045-0.159,2.095-0.259,3.148c-0.089,1.056-0.214,2.114-0.354,3.18c-0.248-1.036-0.485-2.078-0.682-3.126
			c-0.207-1.049-0.417-2.099-0.588-3.154c-0.099-0.524-0.126-1.068-0.19-1.605c-0.056-0.539-0.118-1.081-0.16-1.623l-0.069-0.813
			c-0.037-0.262-0.006-0.576-0.007-0.866l0.03-0.892c0.009-0.16,0.004-0.276,0.029-0.474c0.056-0.271,0.137-0.55,0.236-0.813
			l-0.162,0.423c0.284-1.742,1.518-3.166,2.725-3.977c1.229-0.873,2.515-1.355,3.778-1.777c2.545-0.77,5.062-1.079,7.572-1.216
			c1.245-0.041,2.527-0.084,3.827,0.03c1.314,0.074,2.64,0.287,3.948,0.606c1.308,0.318,2.595,0.785,3.821,1.387
			c0.614,0.296,1.227,0.603,1.789,0.994c0.591,0.352,1.137,0.761,1.666,1.188c1.083,0.83,2.02,1.817,2.89,2.838
			c0.831,1.046,1.593,2.138,2.207,3.292c0.653,1.134,1.151,2.331,1.601,3.526c0.448,1.198,0.786,2.421,1.066,3.646
			c0.273,1.225,0.475,2.458,0.612,3.688c0.136,1.233,0.214,2.466,0.211,3.694c0.011,1.228-0.02,2.451-0.143,3.667
			c-0.104,1.214-0.274,2.424-0.546,3.61C287.936,444.356,287.464,442.02,286.921,439.73z"/>
	</g>
	<g>
		<path d="M248.213,430.929c-0.175-1.061-0.332-2.104-0.588-3.117c-0.257-1.011-0.532-1.999-0.886-2.938
			c-0.348-0.938-0.751-1.836-1.23-2.653c-0.25-0.402-0.494-0.802-0.771-1.166c-0.264-0.377-0.563-0.717-0.871-1.034
			c-0.302-0.327-0.63-0.615-0.96-0.896c-0.35-0.256-0.691-0.518-1.069-0.726c-0.353-0.243-0.76-0.405-1.142-0.6
			c-0.412-0.146-0.803-0.32-1.238-0.432c-0.414-0.143-0.859-0.226-1.301-0.317c-0.438-0.095-0.91-0.111-1.359-0.193l-0.199-0.031
			c-0.47-0.08-1.125-0.156-1.704-0.204c-0.603-0.043-1.204-0.083-1.809-0.105c-1.208-0.048-2.415-0.01-3.605,0.073
			c-0.597,0.045-1.186,0.126-1.776,0.198c-0.586,0.086-1.168,0.187-1.741,0.315c-0.566,0.139-1.141,0.266-1.694,0.445
			c-0.562,0.164-1.104,0.373-1.638,0.594c-0.543,0.211-1.051,0.476-1.565,0.743c-0.501,0.287-1.006,0.578-1.476,0.926
			c-0.474,0.338-0.94,0.695-1.375,1.098l-0.648,0.613l-0.611,0.664c-0.385,0.463-0.793,0.93-1.143,1.444
			c-0.358,0.51-0.696,1.041-0.999,1.603c-0.351,0.542-0.604,1.134-0.899,1.721c-0.296,0.588-0.518,1.207-0.813,1.821
			c-0.014-0.668-0.028-1.347,0.018-2.027c0.08-0.671,0.124-1.36,0.278-2.033c0.119-0.686,0.326-1.349,0.546-2.018
			c0.221-0.665,0.492-1.329,0.816-1.966l0.521-0.948c0.186-0.308,0.4-0.601,0.604-0.904c0.198-0.306,0.438-0.584,0.668-0.866
			c0.231-0.283,0.462-0.573,0.729-0.823c0.507-0.537,1.063-1.02,1.634-1.492c0.592-0.437,1.194-0.869,1.831-1.238
			c0.628-0.387,1.292-0.711,1.961-1.004c0.668-0.3,1.354-0.557,2.044-0.778c0.695-0.218,1.396-0.399,2.099-0.563
			c0.701-0.152,1.411-0.264,2.12-0.36c1.42-0.19,2.843-0.252,4.259-0.219c0.709,0.01,1.417,0.052,2.125,0.123
			c0.726,0.079,1.375,0.155,2.197,0.308l-0.199-0.029c0.612,0.101,1.224,0.179,1.834,0.336c0.609,0.152,1.218,0.308,1.817,0.542
			c0.608,0.188,1.186,0.5,1.766,0.774c0.56,0.331,1.131,0.641,1.646,1.045c0.535,0.371,1.004,0.831,1.473,1.275
			c0.443,0.474,0.875,0.953,1.241,1.477c0.368,0.521,0.708,1.058,0.988,1.613c0.302,0.547,0.533,1.121,0.751,1.691
			c0.203,0.575,0.382,1.149,0.523,1.73c0.131,0.579,0.244,1.159,0.319,1.739c0.09,0.578,0.124,1.159,0.153,1.733
			c0.033,0.574,0.024,1.147-0.002,1.716c-0.061,1.136-0.159,2.255-0.389,3.354c-0.213,1.096-0.491,2.177-0.903,3.208
			C248.491,433.067,248.367,431.989,248.213,430.929z"/>
	</g>
	<g>
		<path d="M273.819,486.358c-0.962,1.232-2.035,2.367-3.124,3.5s-2.28,2.163-3.495,3.18c-0.606,0.512-1.235,0.995-1.873,1.475
			c-0.645,0.467-1.304,0.919-1.979,1.354c-0.677,0.433-1.361,0.854-2.074,1.234c-0.704,0.395-1.435,0.755-2.167,1.107
			c-0.749,0.325-1.494,0.664-2.272,0.936c-0.764,0.301-1.562,0.534-2.357,0.768c-0.812,0.191-1.618,0.406-2.451,0.533
			c-0.824,0.17-1.67,0.23-2.512,0.312c-0.851,0.027-1.7,0.076-2.555,0.021c-0.855-0.004-1.704-0.147-2.555-0.247l0.39,0.034
			c-0.323-0.004-0.563-0.022-0.818-0.037c-0.26-0.013-0.505-0.037-0.747-0.063c-0.49-0.051-0.979-0.1-1.454-0.18
			c-0.965-0.123-1.9-0.352-2.839-0.553c-0.929-0.246-1.858-0.486-2.768-0.787c-0.894-0.342-1.814-0.615-2.682-1.02
			c-0.866-0.408-1.77-0.737-2.592-1.226c-0.829-0.477-1.684-0.903-2.483-1.425l-2.353-1.624c-0.744-0.597-1.466-1.218-2.184-1.836
			c-0.746-0.587-1.353-1.327-2.017-1.997c-0.651-0.687-1.303-1.366-1.847-2.137l-1.67-2.261l-1.423-2.406
			c-0.237-0.397-0.462-0.803-0.685-1.206c-0.21-0.414-0.375-0.851-0.563-1.271l-1.071-2.538c-0.36-0.839-0.54-1.755-0.814-2.618
			c-0.233-0.885-0.478-1.754-0.684-2.635c0.497,0.772,0.955,1.549,1.426,2.313c0.473,0.759,0.85,1.563,1.396,2.271l1.525,2.166
			c0.258,0.355,0.491,0.727,0.765,1.066c0.29,0.33,0.579,0.66,0.854,0.998l1.663,1.992l1.845,1.807
			c0.574,0.633,1.247,1.164,1.907,1.701c0.669,0.525,1.258,1.136,1.984,1.581l2.075,1.44l2.184,1.263
			c0.728,0.415,1.505,0.74,2.25,1.116c0.746,0.38,1.548,0.634,2.313,0.967c0.766,0.331,1.583,0.53,2.369,0.805
			c0.796,0.248,1.606,0.447,2.411,0.652c0.812,0.167,1.625,0.342,2.438,0.457c0.788,0.139,1.677,0.219,2.322,0.255l0.196,0.011
			l0.191,0.023c0.673,0.079,1.336,0.204,2.018,0.23c0.675,0.075,1.355,0.053,2.041,0.062c0.684-0.05,1.371-0.063,2.059-0.16
			c0.689-0.06,1.375-0.204,2.064-0.321c0.683-0.168,1.375-0.301,2.057-0.507c0.689-0.174,1.362-0.418,2.043-0.646
			c0.672-0.25,1.354-0.49,2.021-0.781c0.674-0.271,1.33-0.593,1.996-0.898c0.661-0.316,1.319-0.65,1.969-1.004
			c0.648-0.352,1.307-0.698,1.947-1.082c1.295-0.743,2.533-1.582,3.797-2.414c1.258-0.837,2.463-1.756,3.691-2.667
			c1.211-0.93,2.414-1.884,3.598-2.89C275.718,483.885,274.791,485.139,273.819,486.358z"/>
	</g>
	<g>
		<path d="M250.158,451.613c0,0-0.063,0.08-0.183,0.228c-0.11,0.138-0.271,0.344-0.474,0.604c-0.191,0.264-0.437,0.549-0.706,0.942
			c-0.268,0.388-0.572,0.825-0.904,1.304c-0.347,0.47-0.657,1.026-1.021,1.59c-0.347,0.577-0.758,1.163-1.103,1.813
			c-0.358,0.646-0.726,1.314-1.1,1.996c-0.394,0.673-0.729,1.387-1.06,2.105c-0.337,0.72-0.675,1.439-1.007,2.146
			c-0.354,0.705-0.574,1.44-0.858,2.133c-0.266,0.703-0.524,1.378-0.771,2.02c-0.269,0.643-0.441,1.268-0.604,1.845
			c-0.67,2.323-1.117,3.874-1.117,3.874s0.144-1.614,0.354-4.035c0.051-0.61,0.1-1.274,0.242-1.959
			c0.118-0.693,0.245-1.42,0.377-2.174c0.146-0.752,0.229-1.556,0.443-2.33c0.198-0.785,0.397-1.582,0.598-2.379
			c0.192-0.805,0.394-1.605,0.661-2.373c0.247-0.777,0.491-1.541,0.729-2.281c0.226-0.746,0.53-1.436,0.775-2.109
			c0.264-0.665,0.477-1.311,0.743-1.881c0.255-0.578,0.486-1.105,0.692-1.577c0.202-0.468,0.433-0.893,0.597-1.235
			c0.17-0.335,0.306-0.599,0.396-0.778c0.089-0.168,0.136-0.257,0.136-0.257L250.158,451.613z"/>
	</g>
</g>
</svg>
