<?xml version="1.0" encoding="utf-8"?>
<!-- Generator: Adobe Illustrator 16.0.0, SVG Export Plug-In . SVG Version: 6.00 Build 0)  -->
<!DOCTYPE svg PUBLIC "-//W3C//DTD SVG 1.1//EN" "http://www.w3.org/Graphics/SVG/1.1/DTD/svg11.dtd">
<svg version="1.1" id="Layer_3" xmlns="http://www.w3.org/2000/svg" xmlns:xlink="http://www.w3.org/1999/xlink" x="0px" y="0px"
	 width="500px" height="900px" viewBox="0 0 500 900" enable-background="new 0 0 500 900" xml:space="preserve">
<g>
	<path fill="none" stroke="#000000" stroke-width="5" stroke-miterlimit="10" d="M484.272,487.062
		c-6.617,24.664-13.233,27.678-13.233,27.678c-10.225,8.421-37.897-10.83-37.897-10.83c-5.416,7.22-24.063,15.037-24.063,15.037
		c-29.475,13.232-42.113-24.061-42.113-24.061c-37.297-26.473-13.23-69.185-13.23-69.185c15.037-34.892-4.21-54.745-4.21-54.745
		c-4.213-7.218-8.424-16.241-8.424-16.241c-16.244-47.524,3.606-85.423,3.606-85.423c13.839-31.881,26.47-22.859,26.47-22.859
		c9.025,5.414,5.417,27.671,5.417,27.671c0.604,52.936,27.07,87.83,27.07,87.83c12.034-7.219,33.688-66.173,33.688-66.173
		c7.816-36.697,20.455-36.697,20.455-36.697c24.062-0.601,24.661,54.745,24.661,54.745c1.2,27.069,7.821,107.681,7.821,107.681
		C508.335,453.373,484.273,487.06,484.272,487.062z"/>
	<path fill="none" stroke="#000000" stroke-width="5" stroke-miterlimit="10" d="M355.649,420.78
		c15.905-10.034,36.433,2.536,36.433,2.536c12.186,8.292,45.569,10.206,63.166,2.535c17.596-7.668,35.042-4.361,35.042-4.361"/>
	<g>
		<path d="M433.025,489.845c-0.03,1.153,0.054,2.295,0.157,3.395c0.061,0.553,0.13,1.094,0.224,1.621
			c0.097,0.528,0.206,1.047,0.346,1.542c0.063,0.251,0.141,0.495,0.229,0.73c0.082,0.238,0.157,0.475,0.259,0.697
			c0.176,0.459,0.403,0.88,0.638,1.275c0.229,0.404,0.5,0.761,0.783,1.096l0.446,0.479l0.481,0.429
			c0.354,0.253,0.699,0.503,1.093,0.71c0.181,0.119,0.386,0.212,0.596,0.298c0.212,0.082,0.396,0.202,0.628,0.261
			c0.438,0.143,0.875,0.309,1.354,0.402c0.455,0.141,0.968,0.175,1.452,0.271c0.493,0.082,1.017,0.1,1.523,0.16
			c0.521,0.013,1.051,0.025,1.577,0.055l-0.258,0.02c0.607-0.053,1.031-0.061,1.523-0.058c0.478-0.005,0.943,0.032,1.41,0.061
			c0.929,0.08,1.849,0.197,2.753,0.388c0.451,0.104,0.902,0.196,1.347,0.311l1.321,0.396l1.292,0.479
			c0.43,0.155,0.837,0.376,1.253,0.563c0.417,0.184,0.821,0.394,1.212,0.635c0.394,0.235,0.793,0.443,1.168,0.7l1.104,0.791
			c0.372,0.25,0.695,0.576,1.038,0.862c0.333,0.304,0.678,0.582,0.977,0.917c0.307,0.324,0.595,0.669,0.887,0.998
			c0.3,0.323,0.56,0.685,0.807,1.053c0.247,0.365,0.497,0.723,0.724,1.095c-0.396-0.199-0.771-0.415-1.148-0.619
			c-0.384-0.201-0.725-0.437-1.12-0.602c-0.383-0.188-0.768-0.356-1.133-0.544c-0.36-0.196-0.769-0.316-1.138-0.486
			c-0.38-0.153-0.742-0.331-1.134-0.448l-1.141-0.396c-0.38-0.126-0.771-0.226-1.15-0.335c-0.379-0.117-0.763-0.209-1.151-0.292
			c-0.387-0.079-0.76-0.194-1.152-0.244l-1.157-0.21c-0.777-0.096-1.545-0.195-2.318-0.246c-0.772-0.04-1.541-0.077-2.304-0.063
			l-1.129,0.047c-0.356,0.017-0.778,0.061-1.009,0.096l-0.111,0.017l-0.147,0.003c-0.642,0.017-1.282,0.029-1.929,0.014
			c-0.655-0.056-1.304-0.072-1.966-0.165c-0.664-0.108-1.321-0.199-1.988-0.397c-0.663-0.157-1.329-0.386-1.979-0.658
			c-0.329-0.114-0.646-0.312-0.965-0.467c-0.321-0.16-0.637-0.333-0.938-0.547c-0.624-0.377-1.183-0.871-1.724-1.37l-0.749-0.819
			c-0.233-0.287-0.441-0.59-0.651-0.891c-0.391-0.617-0.734-1.258-0.996-1.918c-0.265-0.657-0.461-1.332-0.595-2
			c-0.151-0.667-0.226-1.338-0.254-1.995c-0.047-0.658-0.03-1.306,0.021-1.947c0.042-0.639,0.127-1.267,0.245-1.884
			c0.218-1.236,0.607-2.416,1.021-3.559c0.464-1.135,0.978-2.233,1.663-3.239C433.066,487.516,433.01,488.688,433.025,489.845z"/>
	</g>
	<g>
		<path d="M375.15,486.702c0,0-0.074,0.2-0.203,0.551c-0.129,0.338-0.321,0.807-0.565,1.363c-0.487,1.113-1.183,2.575-2.069,3.966
			c-0.445,0.693-0.944,1.371-1.516,1.947c-0.556,0.57-1.251,1.055-1.964,1.159c-0.352,0.05-0.672-0.003-0.918-0.097
			c-0.249-0.099-0.425-0.225-0.563-0.331c-0.266-0.228-0.388-0.372-0.388-0.372s0.179,0.087,0.485,0.182
			c0.156,0.042,0.344,0.077,0.548,0.067s0.412-0.072,0.601-0.193c0.374-0.247,0.673-0.718,0.896-1.313
			c0.227-0.591,0.385-1.274,0.495-1.979c0.221-1.406,0.273-2.868,0.275-3.954c0.001-0.543-0.012-0.995-0.024-1.306
			c-0.009-0.324-0.03-0.457-0.028-0.469L375.15,486.702z"/>
	</g>
</g>
<g>
	<path fill="none" stroke="#000000" stroke-width="5" stroke-miterlimit="10" d="M294.627,335.768c-13.984,11.728-26.17,0-26.17,0
		c-8.567-5.417-18.439-13.539-18.439-13.539c-30.621,18.05-44.723,7.221-44.723,7.221l-17.146-10.958
		c-7.669-5.542-4.964-27.843-4.964-27.843c-0.902-12.634,13.084-55.047,13.084-55.047c9.476-30.681-2.253-76.703-2.253-76.703
		c-10.379-36.997,21.204-66.771,21.204-66.771c13.533-14.889,20.303-3.109,20.303-3.109c4.061,6.813-4.063,41.007-4.063,41.007
		c-3.156,23.911,18.555,62.713,18.555,62.713c16.3,25.718,30.625-42.862,30.625-42.862c5.862-20.3,3.608-37.896,3.608-37.896
		c-2.708-8.123,0-17.146,0-17.146c6.316-13.084,19.726,0,19.726,0c17.47,15.669,4.124,78.504,4.124,78.504
		c-0.967,7.225-3.549,22.563-3.549,22.563c-3.155,52.336,7.675,87.076,7.675,87.076
		C329.366,322.678,294.626,335.768,294.627,335.768z"/>
	<path fill="none" stroke="#000000" stroke-width="5" stroke-miterlimit="10" d="M190.267,255.288
		c6.107-10.138,26.533-9.982,36.347-7.743c11.274,2.571,27.861,0.692,27.861,0.692c16.239,10.378,41.507-5.978,52.528,9.446"/>
	<path fill="none" stroke="#000000" stroke-width="5" stroke-miterlimit="10" d="M232.12,145.341
		c14.341-75.068,28.966-66.176,28.966-66.176c12.032,0,21.57,62.312,21.57,62.312"/>
	<path fill="none" stroke="#000000" stroke-width="5" stroke-miterlimit="10" d="M215.221,333.613
		c16.24,14.537,27.067,3.053,27.067,3.053c4.965-6.314,18.552-6.105,18.552-6.105"/>
	<g>
		<polygon points="247.535,321.907 253.118,298.318 252.493,322.552 		"/>
	</g>
</g>
<g>
	<path fill="none" stroke="#000000" stroke-width="5" stroke-miterlimit="10" d="M140.494,480.9
		c-12.182,24.816-29.776,34.291-29.776,34.291c-12.631,9.023-18.948,4.341-18.948,4.341l-23.011-9.307
		c-8.573,4.062-24.363,9.307-24.363,9.307c-24.361,1.644-26.17-16.071-26.17-16.071C1.534,479.549,3.691,456.537,3.691,456.537
		c-2.808-17.144,3.859-37.448,3.859-37.448c7.817-18.048,3.007-49.18,3.007-49.18c-6.771-54.142,0-82.565,0-82.565
		c2.257-27.973,21.654-32.275,21.654-32.275c17.598-2.954,23.91,26.863,23.91,26.863l20.309,72.187
		c3.157,7.673,11.276,0.453,11.276,0.453c10.381-12.181,20.756-47.376,20.756-47.376c1.802-8.118,4.061-38.799,4.061-38.799
		c1.352-40.156,24.366-13.328,24.366-13.328c30.679,39.909,10.827,89.127,10.827,89.127c-2.257,5.412-13.086,40.153-13.086,40.153
		c-8.12,25.267,9.479,44.085,9.479,44.085C155.052,451.527,140.496,480.902,140.494,480.9z"/>
	<g>
		<path d="M89.868,355.831c-0.237,0.401-0.461,0.742-0.694,1.096c-0.235,0.351-0.473,0.696-0.719,1.036
			c-0.489,0.684-1.005,1.351-1.554,2.002c-0.548,0.653-1.128,1.291-1.772,1.905c-0.646,0.613-1.342,1.206-2.146,1.747
			c-0.403,0.272-0.844,0.522-1.309,0.754l-0.746,0.316l-0.819,0.25c-0.294,0.061-0.597,0.11-0.895,0.155
			c-0.317,0.02-0.64,0.029-0.956,0.024c-0.328-0.034-0.658-0.071-0.979-0.136c-0.314-0.089-0.637-0.181-0.938-0.298
			c-0.289-0.137-0.579-0.278-0.853-0.433c-0.248-0.169-0.494-0.344-0.731-0.523c-0.425-0.374-0.845-0.771-1.148-1.179
			c-0.348-0.404-0.592-0.816-0.856-1.23c-0.251-0.413-0.441-0.825-0.659-1.239l-0.047-0.089L72,359.857l-13.406-39.315
			l-6.602-19.696c-1.095-3.283-2.181-6.573-3.233-9.883l-1.596-4.95l-1.476-5.177l0.027,0.121c-0.144-0.52-0.32-1.096-0.5-1.642
			c-0.184-0.552-0.379-1.103-0.584-1.647c-0.412-1.09-0.869-2.16-1.381-3.193s-1.073-2.033-1.707-2.963
			c-0.315-0.47-0.654-0.905-1.006-1.33l-0.548-0.605l-0.579-0.549l-0.608-0.483l-0.64-0.402l-0.66-0.312l-0.68-0.199
			c-0.229-0.021-0.46-0.07-0.69-0.086c-0.233,0.017-0.468,0.001-0.701,0.027l-0.707,0.138l-0.705,0.249
			c-0.458,0.23-0.929,0.44-1.366,0.771c-0.455,0.278-0.867,0.658-1.291,1.014c-0.42,0.363-0.798,0.795-1.202,1.19l-1.114,1.314
			l0.058-0.08c-1.14,1.83-2.22,3.824-3.199,5.818c-0.507,0.995-0.953,2.02-1.432,3.03l-1.323,3.083
			c-0.827,2.078-1.633,4.168-2.328,6.297c-0.378,1.055-0.708,2.125-1.016,3.202c-0.306,1.078-0.666,2.14-0.926,3.229
			c-0.547,2.174-1.107,4.346-1.504,6.554c-0.487,2.192-0.769,4.417-1.101,6.638c-0.191,1.106-0.246,2.229-0.361,3.345l-0.3,3.354
			l-0.115,3.365c-0.029,1.122-0.109,2.245-0.049,3.367l0.089,3.369l0.045,1.708l0.023,1.694l0.122,6.772
			c0.086,4.519,0.208,9.032,0.341,13.548c0.147,4.518,0.313,9.03,0.546,13.541c0.083,2.258,0.285,4.507,0.433,6.763
			c0.104,2.259,0.474,4.486,0.729,6.733c-0.301-2.237-0.719-4.466-0.869-6.722c-0.193-2.251-0.44-4.5-0.57-6.756
			c-0.33-4.511-0.593-9.021-0.83-13.535c-0.229-4.514-0.443-9.029-0.624-13.546l-0.267-6.776l-0.059-1.693l-0.078-1.678
			l-0.162-3.405c-0.084-1.135-0.03-2.27-0.021-3.406l0.046-3.41l0.229-3.403c0.096-1.131,0.127-2.271,0.297-3.396
			c0.289-2.258,0.53-4.523,0.977-6.755c0.355-2.25,0.878-4.469,1.388-6.688c0.24-1.115,0.584-2.2,0.871-3.303
			c0.291-1.103,0.605-2.197,0.965-3.278c0.663-2.181,1.438-4.326,2.238-6.462l1.283-3.173c0.466-1.041,0.9-2.1,1.397-3.128
			c0.974-2.081,1.997-4.093,3.206-6.121l0.023-0.04l0.033-0.041l1.188-1.466c0.446-0.46,0.857-0.943,1.336-1.38
			c0.487-0.434,0.958-0.876,1.522-1.247c0.521-0.407,1.143-0.722,1.757-1.031l0.992-0.373c0.348-0.088,0.707-0.157,1.061-0.23
			c0.362-0.048,0.736-0.047,1.104-0.064c0.367,0.01,0.734,0.072,1.102,0.114c0.359,0.078,0.708,0.186,1.061,0.286
			c0.33,0.142,0.662,0.282,0.985,0.436c0.299,0.178,0.607,0.354,0.9,0.542l0.818,0.621l0.747,0.678l0.683,0.721
			c0.427,0.495,0.836,1.002,1.206,1.525c0.743,1.046,1.388,2.138,1.968,3.252c0.579,1.114,1.093,2.252,1.557,3.406
			c0.232,0.578,0.453,1.159,0.66,1.746c0.209,0.594,0.401,1.164,0.589,1.804l0.028,0.121L50,285.095l1.688,4.896
			c1.116,3.263,2.267,6.524,3.431,9.781l7.005,19.535l14.219,39.004l-0.094-0.224c0.156,0.271,0.299,0.57,0.46,0.819
			c0.164,0.24,0.319,0.501,0.493,0.678c0.163,0.223,0.335,0.347,0.488,0.492c0.079,0.046,0.154,0.095,0.223,0.153
			c0.071,0.026,0.136,0.052,0.197,0.091c0.065,0.019,0.123,0.021,0.18,0.051c0.064,0.005,0.124,0.001,0.187,0.021
			c0.071-0.013,0.142-0.019,0.215-0.016c0.085-0.024,0.168-0.039,0.258-0.054c0.101-0.039,0.196-0.071,0.298-0.101l0.329-0.149
			c0.23-0.127,0.468-0.263,0.709-0.435c0.484-0.344,0.977-0.771,1.453-1.245c0.48-0.475,0.941-1.002,1.385-1.556
			c0.445-0.552,0.874-1.131,1.283-1.727l0.601-0.904c0.188-0.3,0.386-0.621,0.542-0.894L89.868,355.831z"/>
	</g>
	<path fill="none" stroke="#000000" stroke-width="5" stroke-miterlimit="10" d="M5.681,426.01
		c2.881-3.846,5.438-7.838,14.354-8.277c17.89-0.888,45.177,4.213,58.482,4.095c7.286-0.066,25.509-4.251,40.324-4.091
		c13.723,0.144,21.379,5.474,21.379,5.474"/>
	<g>
		<path d="M112.764,499.695c-0.333-0.099-0.836-0.209-1.448-0.369c-0.62-0.148-1.379-0.284-2.224-0.449
			c-0.855-0.145-1.816-0.241-2.837-0.334c-0.52-0.009-1.046-0.057-1.59-0.059c-0.546,0.035-1.102-0.005-1.665,0.058
			c-1.127,0.094-2.29,0.247-3.437,0.563c-0.571,0.162-1.154,0.296-1.71,0.545l-0.85,0.325c-0.278,0.123-0.548,0.274-0.823,0.41
			l-0.827,0.412l-0.787,0.512l-1.822,1.157l-0.93,0.565c-0.305,0.189-0.785,0.386-1.172,0.572c-0.409,0.187-0.819,0.371-1.232,0.538
			l-1.245,0.344c-1.642,0.478-3.438,0.494-5.075,0.234c-1.653-0.304-3.132-0.957-4.347-1.768c-0.604-0.407-1.14-0.861-1.636-1.305
			c-0.448-0.493-0.931-0.912-1.275-1.413c-0.364-0.481-0.717-0.93-0.979-1.409c-0.283-0.462-0.534-0.899-0.721-1.342
			c-0.424-0.85-0.654-1.646-0.835-2.29c-0.186-0.643-0.253-1.167-0.29-1.521c-0.035-0.351-0.055-0.538-0.055-0.538
			s0.111,0.151,0.321,0.437c0.101,0.141,0.226,0.313,0.371,0.516c0.166,0.189,0.345,0.412,0.537,0.658
			c0.182,0.251,0.436,0.5,0.688,0.776c0.25,0.277,0.528,0.566,0.843,0.856c0.297,0.302,0.628,0.602,0.992,0.896
			c0.345,0.316,0.74,0.597,1.146,0.887c0.384,0.315,0.85,0.538,1.283,0.821c0.462,0.23,0.922,0.486,1.415,0.67
			c0.5,0.164,0.983,0.382,1.511,0.453c0.507,0.146,1.039,0.163,1.563,0.213c0.262,0.045,0.533-0.035,0.8-0.027
			c0.268-0.027,0.533,0.019,0.804-0.067c0.538-0.133,1.081-0.176,1.624-0.406l0.817-0.271c0.24-0.135,0.486-0.251,0.736-0.365
			c0.261-0.135,0.473-0.179,0.781-0.378l0.92-0.585l1.878-1.142c0.353-0.212,0.701-0.426,1.063-0.613l1.13-0.487
			c0.378-0.155,0.744-0.332,1.127-0.461c0.391-0.107,0.779-0.214,1.166-0.32c0.763-0.241,1.545-0.352,2.313-0.439
			c1.532-0.204,3.021-0.13,4.387,0.045c0.685,0.087,1.333,0.252,1.958,0.386c0.615,0.171,1.2,0.363,1.758,0.547
			c0.543,0.228,1.062,0.427,1.541,0.655c0.468,0.251,0.914,0.476,1.318,0.707c0.813,0.46,1.473,0.942,1.997,1.346
			c1.048,0.819,1.533,1.408,1.533,1.408S113.096,499.8,112.764,499.695z"/>
	</g>
	<g>
		<path d="M77.019,499.959c-1.077,0.674-2.125,1.285-3.195,1.896c-1.065,0.611-2.142,1.194-3.223,1.766
			c-2.164,1.146-4.364,2.224-6.596,3.229c-1.112,0.51-2.244,0.982-3.379,1.452c-1.136,0.466-2.283,0.903-3.438,1.324
			c-1.162,0.404-2.318,0.821-3.505,1.17c-1.174,0.376-2.375,0.683-3.57,0.998c-1.213,0.27-2.419,0.557-3.653,0.747
			c-0.611,0.117-1.229,0.206-1.854,0.271c-0.624,0.068-1.238,0.168-1.872,0.188c-0.63,0.03-1.255,0.088-1.888,0.094l-1.902-0.025
			l-1.909-0.176c-0.633-0.064-1.267-0.226-1.898-0.333c-1.256-0.289-2.507-0.667-3.689-1.235c-0.611-0.233-1.164-0.597-1.725-0.937
			c-0.274-0.179-0.569-0.325-0.826-0.53l-0.763-0.621l-0.757-0.626l-0.664-0.72c-0.447-0.479-0.89-0.953-1.229-1.505
			c-0.344-0.544-0.782-1.037-1.038-1.623l-0.861-1.706l0.066,0.124c-0.906-1.579-1.762-3.129-2.566-4.732l-1.218-2.385l-1.136-2.424
			l-1.134-2.421l-1.04-2.465l-1.033-2.465l-0.515-1.229l-0.455-1.257l-1.817-5.021c-0.305-0.835-0.518-1.703-0.783-2.552
			l-0.755-2.559l-0.754-2.558l-0.567-2.604l-1.118-5.204l1.376,5.138l0.692,2.563l0.878,2.508l0.877,2.504
			c0.305,0.83,0.557,1.678,0.902,2.492l2.052,4.89l0.515,1.221l0.569,1.195l1.146,2.39l1.149,2.386l1.239,2.338l1.24,2.336
			l1.317,2.291c0.862,1.527,1.799,3.038,2.73,4.491l0.067,0.124l0.84,1.468c0.247,0.51,0.656,0.901,0.969,1.357
			c0.312,0.467,0.711,0.847,1.107,1.228l0.583,0.579l0.658,0.484l0.655,0.486c0.22,0.16,0.479,0.264,0.712,0.402
			c0.481,0.258,0.945,0.541,1.474,0.707c1.006,0.426,2.083,0.691,3.172,0.886c0.554,0.063,1.095,0.179,1.658,0.206l1.684,0.071
			l1.698-0.063c0.564-0.032,1.136-0.116,1.703-0.17c0.564-0.044,1.134-0.169,1.697-0.258c0.567-0.087,1.133-0.196,1.695-0.335
			c1.129-0.231,2.246-0.557,3.363-0.864c1.107-0.355,2.219-0.696,3.313-1.109c1.104-0.38,2.187-0.835,3.271-1.273
			c1.081-0.454,2.153-0.929,3.217-1.429c1.063-0.502,2.123-1.011,3.167-1.555c2.095-1.069,4.158-2.214,6.182-3.417
			c1.013-0.603,2.02-1.215,3.007-1.848c0.986-0.629,1.981-1.282,2.907-1.928L77.019,499.959z"/>
	</g>
	<g>
		<path d="M92.676,497.39c0,0,0.311,0.1,0.858,0.279c0.539,0.177,1.296,0.443,2.198,0.773c1.802,0.666,4.172,1.622,6.472,2.723
			c1.151,0.548,2.28,1.145,3.319,1.727c0.512,0.307,1.006,0.603,1.475,0.883c0.454,0.302,0.884,0.588,1.279,0.854
			c0.769,0.566,1.4,1.03,1.798,1.417c0.41,0.362,0.644,0.57,0.644,0.57s-0.279-0.144-0.765-0.395
			c-0.47-0.267-1.192-0.559-2.045-0.905c-0.433-0.153-0.904-0.318-1.402-0.494c-0.508-0.149-1.039-0.308-1.592-0.472
			c-1.111-0.293-2.303-0.58-3.506-0.814c-2.401-0.473-4.83-0.797-6.646-0.984c-0.908-0.09-1.665-0.158-2.188-0.194
			c-0.518-0.032-0.813-0.051-0.813-0.051L92.676,497.39z"/>
	</g>
</g>
<path fill="none" stroke="#000000" stroke-width="5" stroke-miterlimit="10" d="M289.299,396.14
	c15.346,4.512,17.147,29.328,17.147,29.328c12.18,22.105,1.805,33.838,1.805,33.838c4.514,41.057-8.57,53.24-8.57,53.24
	c-17.599,23.459-45.119,12.099-45.119,12.099c-10.38-5.495-20.054-1.724-20.054-1.724c-28.175,6.315-43.113-6.77-43.113-6.77
	c-14.439-9.474-4.511-58.201-4.511-58.201c-14.438-35.642,2.71-60.91,2.71-60.91c19.853-32.486,64.968-9.846,64.968-9.846
	C282.536,383.663,289.301,396.139,289.299,396.14z"/>
<g>
	<path d="M296.301,459.418c-1.88,0.177-3.76,0.318-5.639,0.449l0.417-0.09c-1.259,0.668-2.519,1.323-3.8,1.93
		c-1.27,0.632-2.573,1.198-3.874,1.776l-1.954,0.867c-0.641,0.308-1.329,0.531-2.005,0.779l-4.075,1.466l-0.892,0.32l-0.93-0.772
		l-4.896-4.071l-4.937-4.019c-0.818-0.675-1.67-1.298-2.491-1.959c-0.826-0.66-1.656-1.312-2.501-1.924l-1.262-0.938
		c-0.422-0.308-0.836-0.638-1.262-0.919l-2.54-1.748l1.353,0.399c-2.406,0.017-4.813,0.001-7.219-0.011
		c-2.404,0-4.812-0.048-7.218-0.072l0.423-0.037c-0.692,0.113-1.338,0.201-2.006,0.284l-1.989,0.222
		c-1.332,0.126-2.666,0.245-4.02,0.283c-0.681,0.018-1.359,0.038-2.051,0.021c-0.688-0.003-1.393-0.04-2.104-0.096
		c-0.352-0.023-0.729-0.082-1.092-0.13c-0.354-0.039-0.756-0.141-1.14-0.229c-0.367-0.065-0.811-0.231-1.232-0.395l-0.313-0.123
		l-0.368-0.214c-0.244-0.151-0.482-0.312-0.71-0.478l2.193,0.226l-4.609,2.224c-1.532,0.754-3.096,1.445-4.642,2.17l-0.182,0.086
		l-0.037,0.012c-1.536,0.419-3.036,0.799-4.57,1.129c-1.53,0.318-3.07,0.603-4.616,0.846c-0.776,0.114-1.553,0.226-2.337,0.29
		c-0.779,0.087-1.569,0.126-2.352,0.167l-1.181,0.016c-0.396-0.009-0.791-0.045-1.183-0.065c-0.394-0.02-0.785-0.111-1.173-0.163
		c-0.388-0.06-0.76-0.225-1.126-0.328c0.394,0.019,0.769,0.083,1.151,0.063c0.385-0.027,0.761-0.017,1.141-0.077
		c0.759-0.096,1.506-0.243,2.25-0.395c0.744-0.175,1.486-0.345,2.219-0.563c0.734-0.202,1.467-0.436,2.196-0.647
		c1.458-0.456,2.905-0.952,4.341-1.477c1.434-0.519,2.881-1.048,4.271-1.611l-0.219,0.095c1.462-0.881,2.903-1.798,4.382-2.651
		l4.41-2.602l2.193,0.226c0.051,0.001,0.091,0.006,0.124,0.023l0.051,0.033l0.146,0.032c0.195,0.043,0.359,0.11,0.637,0.132
		c0.253,0.031,0.485,0.081,0.78,0.084c0.284,0.007,0.549,0.045,0.846,0.044c0.585,0.01,1.18,0.007,1.789-0.026
		c0.606-0.021,1.226-0.075,1.839-0.127c1.234-0.115,2.484-0.26,3.73-0.437l1.87-0.289l1.84-0.322l0.2-0.035l0.223-0.002
		c2.406-0.024,4.813-0.074,7.218-0.074c2.405-0.009,4.813-0.026,7.217-0.008l0.791,0.006l0.563,0.395l2.732,1.913
		c0.91,0.636,1.734,1.337,2.605,2.003c0.869,0.666,1.707,1.356,2.536,2.054c0.831,0.695,1.669,1.387,2.476,2.105l2.433,2.143
		l2.381,2.191c1.588,1.462,3.123,2.963,4.663,4.496l-1.821-0.452l3.963-1.068c0.663-0.177,1.326-0.345,1.988-0.566l1.989-0.621
		c1.326-0.415,2.659-0.82,3.973-1.3c1.314-0.466,2.655-0.88,3.961-1.358l0.272-0.103l0.145,0.013
		c1.879,0.131,3.759,0.272,5.638,0.449c1.879,0.159,3.761,0.349,5.64,0.565C300.055,459.068,298.175,459.26,296.301,459.418z"/>
</g>
<g>
	<path d="M255.232,389.603c0,0-0.016,0.004-0.043,0.012c-0.007,0.002-0.051,0.012-0.036,0.011c0.042-0.008,0.091-0.019,0.146-0.038
		c0.103-0.026,0.267-0.116,0.352-0.188c0,0.007-0.001,0.01-0.008,0.009l-0.019-0.006c-0.013,0.008-0.037,0.046-0.058,0.069
		c-0.044,0.053-0.093,0.107-0.153,0.167c-0.12,0.124-0.266,0.412-0.438,0.651c-0.322,0.596-0.711,1.398-1.065,2.44
		c-0.204,0.494-0.363,1.074-0.534,1.681c-0.163,0.612-0.383,1.231-0.517,1.931c-0.311,1.378-0.654,2.871-0.9,4.503
		c-0.303,1.611-0.522,3.342-0.745,5.136c-0.258,1.787-0.395,3.661-0.577,5.557c-0.2,1.896-0.305,3.835-0.429,5.773
		c-0.131,1.938-0.247,3.879-0.3,5.794c-0.071,1.916-0.141,3.801-0.208,5.625c-0.028,1.828-0.056,3.593-0.082,5.267
		c-0.019,1.677-0.068,3.263-0.057,4.725c0.021,5.854,0.037,9.757,0.037,9.757s-0.327-3.89-0.818-9.729
		c-0.126-1.46-0.206-3.045-0.321-4.721c-0.108-1.675-0.223-3.445-0.341-5.272c-0.079-1.833-0.16-3.728-0.243-5.652
		c-0.101-1.925-0.142-3.887-0.166-5.848c-0.03-1.961-0.085-3.922-0.037-5.859c0.033-1.938,0.021-3.844,0.138-5.696
		c0.079-1.851,0.163-3.643,0.343-5.351c0.119-1.704,0.354-3.327,0.57-4.828c0.084-0.749,0.268-1.479,0.396-2.166
		c0.137-0.69,0.262-1.346,0.457-1.973c0.315-1.24,0.728-2.354,1.15-3.294c0.474-0.951,0.953-1.731,1.596-2.343
		c0.164-0.154,0.314-0.284,0.445-0.392c0.229-0.167,0.525-0.323,0.728-0.411c0.26-0.103,0.396-0.155,0.396-0.155L255.232,389.603z"
		/>
</g>
<g>
	<path d="M277.113,465.836l-15.986,29.256l0.111-0.331c-0.13,0.543-0.27,1.006-0.42,1.494c-0.154,0.479-0.313,0.956-0.489,1.424
		c-0.164,0.473-0.36,0.933-0.547,1.396c-0.178,0.467-0.406,0.913-0.607,1.369c-0.195,0.457-0.442,0.896-0.667,1.339
		c-0.219,0.449-0.478,0.876-0.729,1.309c-0.247,0.433-0.503,0.86-0.79,1.271s-0.537,0.838-0.851,1.23l-0.916,1.185
		c-0.324,0.38-0.667,0.745-1,1.116c-0.321,0.381-0.697,0.714-1.063,1.053c-0.375,0.33-0.71,0.7-1.123,0.986l-1.19,0.904
		c-0.407,0.284-0.85,0.521-1.271,0.783l-0.638,0.385c-0.224,0.112-0.452,0.209-0.68,0.313l-1.354,0.611l-0.017,0.007l-0.015,0.004
		l-10.805,3.214l10.539-4.001l-0.029,0.011l1.243-0.677c0.206-0.114,0.416-0.22,0.617-0.341l0.576-0.407
		c0.379-0.276,0.775-0.525,1.138-0.823l1.054-0.932c0.365-0.292,0.656-0.669,0.983-1.002c0.316-0.342,0.645-0.675,0.92-1.057
		l0.854-1.11l0.774-1.172c0.266-0.383,0.471-0.81,0.71-1.211s0.449-0.819,0.65-1.243c0.203-0.419,0.417-0.835,0.591-1.273
		c0.178-0.434,0.38-0.854,0.532-1.299c0.156-0.439,0.339-0.872,0.473-1.319c0.143-0.445,0.295-0.889,0.414-1.34
		c0.132-0.447,0.247-0.898,0.354-1.349c0.104-0.443,0.205-0.918,0.271-1.321l0.021-0.133l0.09-0.198l13.788-30.354L277.113,465.836z
		"/>
</g>
<g>
	<path d="M293.976,509.347c-1.263,1.35-2.586,2.638-3.976,3.866c-0.695,0.61-1.396,1.219-2.122,1.805
		c-0.355,0.301-0.724,0.586-1.095,0.871c-0.372,0.285-0.732,0.581-1.12,0.85l-1.148,0.821l-1.201,0.766
		c-0.396,0.266-0.823,0.49-1.243,0.727c-0.422,0.234-0.839,0.477-1.295,0.673c-0.453,0.201-0.883,0.433-1.362,0.604
		c-0.479,0.171-0.965,0.335-1.458,0.488l-1.591,0.313c-0.569,0.036-1.162,0.036-1.747,0.035l0.3,0.017
		c-0.728,0.034-1.292,0.022-1.921-0.011c-0.611-0.032-1.221-0.09-1.827-0.171c-0.608-0.063-1.208-0.198-1.817-0.288
		c-0.604-0.125-1.205-0.28-1.813-0.425l-1.79-0.585c-0.58-0.251-1.156-0.518-1.729-0.796c-0.555-0.31-1.1-0.657-1.622-1.023
		c-0.541-0.344-0.999-0.81-1.473-1.242c-0.229-0.225-0.473-0.436-0.688-0.671c-0.208-0.244-0.408-0.497-0.604-0.75
		c-0.38-0.519-0.824-0.982-1.105-1.56c-0.318-0.551-0.613-1.108-0.904-1.664c-0.258-0.568-0.44-1.171-0.64-1.755
		c-0.196-0.588-0.375-1.17-0.455-1.776c-0.098-0.604-0.169-1.205-0.248-1.795c-0.084-0.59-0.001-1.204,0.004-1.794
		c0.039-0.598,0.08-1.184,0.167-1.766l0.494-0.076c0.322,0.506,0.597,1.007,0.869,1.498c0.272,0.488,0.474,0.992,0.786,1.445
		l0.853,1.354c0.235,0.463,0.557,0.875,0.879,1.272c0.319,0.398,0.584,0.823,0.901,1.202c0.34,0.362,0.673,0.72,0.985,1.086
		c0.292,0.384,0.701,0.659,1.034,0.993c0.178,0.159,0.351,0.317,0.515,0.486c0.176,0.158,0.376,0.287,0.561,0.434
		c0.396,0.258,0.699,0.626,1.116,0.855c0.406,0.243,0.758,0.563,1.164,0.811c0.411,0.239,0.811,0.504,1.222,0.76l1.294,0.689
		c0.9,0.397,1.827,0.788,2.807,1.025c0.486,0.131,0.977,0.24,1.472,0.319c0.475,0.084,1.023,0.145,1.408,0.177l0.011,0.001
		l0.291,0.015c0.328,0.019,0.651,0.063,0.994,0.095l1.123-0.092l1.184-0.247c0.399-0.08,0.803-0.238,1.208-0.352
		c0.407-0.109,0.811-0.276,1.213-0.435c0.404-0.159,0.815-0.308,1.211-0.501c0.806-0.354,1.603-0.747,2.399-1.155
		c0.405-0.194,0.791-0.422,1.187-0.635c0.396-0.215,0.79-0.434,1.179-0.665c0.781-0.451,1.55-0.933,2.319-1.414
		c1.522-0.989,3.041-2.005,4.516-3.084L293.976,509.347z"/>
</g>
<g>
	<polygon points="278.168,462.447 293.812,472.389 276.08,466.99 	"/>
</g>
<path fill="none" stroke="#000000" stroke-width="5" stroke-miterlimit="10" d="M238.316,478.405"/>
<g>
	<polygon points="238.629,450.048 211.846,412.835 242.522,446.908 	"/>
</g>
<g>
	<polygon points="257.416,450.634 277.124,417.833 261.862,452.923 	"/>
</g>
<g>
	<polygon points="230.583,450.677 210.348,479.91 226.282,448.128 	"/>
</g>
<g>
	<path d="M297.52,448.248c0.303-1.738,0.585-3.469,0.729-5.203c0.069-0.865,0.161-1.727,0.193-2.587
		c0.045-0.859,0.061-1.719,0.04-2.57c-0.01-0.854-0.069-1.7-0.118-2.54c-0.073-0.839-0.17-1.67-0.305-2.489
		c-0.141-0.815-0.276-1.633-0.503-2.417c-0.193-0.795-0.456-1.559-0.714-2.321l-0.453-1.109c-0.155-0.367-0.354-0.712-0.521-1.07
		c-0.159-0.364-0.371-0.697-0.571-1.035c-0.198-0.339-0.388-0.682-0.63-0.993c-0.231-0.313-0.444-0.642-0.687-0.947l-0.753-0.896
		c-0.24-0.309-0.545-0.56-0.813-0.844c-0.27-0.279-0.545-0.558-0.857-0.799l-0.902-0.755l-0.966-0.688
		c-0.625-0.483-1.36-0.83-2.03-1.257l0.443,0.188c-0.237-0.067-0.688-0.164-1.045-0.23c-0.382-0.065-0.769-0.125-1.151-0.155
		c-0.767-0.07-1.522-0.063-2.225,0.033c-0.702,0.097-1.357,0.255-1.911,0.531c-0.153,0.054-0.268,0.15-0.404,0.221l-0.099,0.056
		l-0.051,0.028l-0.024,0.014l-0.012,0.007c-0.133,0.1,0.17-0.13,0.136-0.104l-0.009,0.007l-0.273,0.216
		c-0.166,0.138-0.401,0.306-0.51,0.417c-0.069,0.092-0.142,0.177-0.222,0.257l-0.063,0.06l-0.033,0.027l-0.142,0.164l-0.131,0.144
		c-0.13,0.133-0.269,0.26-0.412,0.379c-0.302,0.229-0.618,0.436-1.135,0.592c-0.503,0.153-1.126,0.154-1.641,0.005
		c-0.995-0.322-1.38-0.807-1.669-1.115c-0.287-0.337-0.475-0.628-0.632-0.894c-0.609-1.055-0.945-1.927-1.306-2.818
		c-0.7-1.751-1.345-3.418-2.086-5.021c-0.375-0.797-0.77-1.577-1.191-2.331c-0.424-0.753-0.896-1.466-1.391-2.155
		c-0.989-1.378-2.189-2.568-3.611-3.441c-0.702-0.452-1.466-0.816-2.278-1.091c-0.811-0.278-1.668-0.438-2.549-0.555
		c-1.767-0.215-3.618-0.053-5.472,0.244c1.68-0.839,3.514-1.458,5.473-1.659c1.951-0.21,4.025,0.055,5.946,0.824
		c1.906,0.801,3.605,2.056,5.021,3.508c1.414,1.461,2.579,3.104,3.569,4.792c1.005,1.681,1.84,3.43,2.642,5.079
		c0.401,0.804,0.809,1.644,1.165,2.178c0.085,0.13,0.165,0.22,0.187,0.234c0.013,0.041-0.006-0.123-0.552-0.312
		c-0.287-0.097-0.675-0.088-0.953-0.006c-0.293,0.09-0.41,0.17-0.528,0.26c-0.056,0.04-0.109,0.091-0.152,0.146l0.102-0.12
		l0.025-0.034l0.016-0.017l0.007-0.008c0.077-0.096-0.097,0.119-0.076,0.092l0.084-0.103l0.171-0.198
		c0.232-0.265,0.473-0.524,0.715-0.775c0.223-0.214,0.367-0.318,0.556-0.483l0.266-0.225l0.163-0.124l0.024-0.016l0.049-0.032
		l0.098-0.064l0.198-0.126c0.265-0.159,0.524-0.349,0.805-0.472c1.1-0.579,2.266-0.92,3.401-1.08
		c1.139-0.166,2.254-0.181,3.339-0.097c0.545,0.038,1.079,0.114,1.614,0.2c0.555,0.103,1.016,0.2,1.671,0.396l0.273,0.082
		l0.168,0.107c0.827,0.523,1.697,0.967,2.482,1.57l1.193,0.875l1.111,0.988c0.379,0.32,0.724,0.681,1.061,1.049
		c0.332,0.372,0.697,0.71,0.997,1.111l0.915,1.182c0.286,0.407,0.541,0.838,0.81,1.256c0.28,0.412,0.5,0.857,0.729,1.297
		c0.229,0.438,0.466,0.875,0.644,1.335c0.402,0.905,0.707,1.835,0.993,2.768c0.246,0.94,0.493,1.881,0.622,2.834
		c0.172,0.949,0.244,1.902,0.31,2.849c0.056,0.947,0.046,1.89,0.02,2.828c-0.044,0.936-0.112,1.867-0.244,2.786
		c-0.114,0.922-0.269,1.833-0.451,2.734c-0.179,0.904-0.377,1.797-0.628,2.677c-0.508,1.756-1.076,3.484-1.79,5.149
		c-0.705,1.665-1.489,3.295-2.447,4.817C296.829,451.722,297.205,449.987,297.52,448.248z"/>
</g>
<g>
	<path d="M236.852,401.583c-0.848-0.182-1.695-0.335-2.536-0.495c-0.845-0.128-1.687-0.271-2.53-0.336
		c-0.421-0.04-0.84-0.089-1.257-0.095c-0.416-0.021-0.832-0.054-1.244-0.065l-1.228,0.02c-0.408-0.003-0.8,0.074-1.197,0.103
		c-0.401,0.023-0.783,0.099-1.155,0.19c-0.372,0.088-0.76,0.137-1.093,0.287c-0.338,0.134-0.707,0.212-1.015,0.378
		c-0.302,0.172-0.603,0.335-0.905,0.491l-0.289,0.134l-0.695,0.353c-0.244,0.134-0.489,0.264-0.731,0.409
		c-0.486,0.281-0.96,0.588-1.417,0.91c-0.455,0.325-0.899,0.663-1.314,1.02c-0.211,0.178-0.424,0.352-0.612,0.542
		c-0.192,0.19-0.401,0.367-0.58,0.565c-0.367,0.391-0.719,0.786-1.021,1.207c-0.169,0.201-0.306,0.415-0.44,0.631
		c-0.129,0.217-0.299,0.417-0.398,0.646l-0.34,0.661c-0.111,0.225-0.174,0.458-0.269,0.686c-0.094,0.225-0.175,0.454-0.216,0.691
		c-0.054,0.235-0.114,0.47-0.178,0.699l-0.482,1.746l-1.729,0.161c-0.928,0.087-2.071,0.279-3.1,0.498
		c-1.056,0.223-2.1,0.497-3.128,0.802c-1.021,0.324-2.035,0.671-3.008,1.095c-0.982,0.399-1.923,0.873-2.837,1.381
		c-0.454,0.257-0.882,0.548-1.326,0.813l-1.26,0.896c-0.386,0.33-0.795,0.641-1.169,0.983c-0.352,0.361-0.735,0.698-1.074,1.073
		c-0.319,0.386-0.684,0.744-0.977,1.152c-0.281,0.415-0.608,0.803-0.862,1.239c-0.238,0.44-0.52,0.863-0.749,1.314l-0.635,1.389
		l-0.496,1.46c-0.15,0.493-0.249,1.009-0.38,1.515c-0.15,0.502-0.18,1.036-0.264,1.558c-0.076,0.525-0.159,1.051-0.167,1.591
		l-0.083,1.618l0.045,1.642c-0.008,0.549,0.041,1.1,0.104,1.651l0.165,1.663c0.192,1.103,0.369,2.214,0.578,3.329
		c0.262,1.102,0.468,2.229,0.781,3.329c0.321,1.099,0.579,2.228,0.928,3.329c0.354,1.099,0.7,2.208,1.028,3.334
		c-0.632-0.977-1.246-1.974-1.852-2.979c-0.58-1.016-1.103-2.066-1.646-3.114c-0.523-1.058-0.941-2.162-1.419-3.251
		c-0.443-1.104-0.782-2.25-1.152-3.393l-0.435-1.755c-0.152-0.585-0.291-1.176-0.372-1.782l-0.278-1.813l-0.117-1.853
		c-0.058-0.616-0.037-1.242-0.001-1.869c0.038-0.629,0.027-1.259,0.143-1.887c0.098-0.628,0.161-1.263,0.295-1.889l0.486-1.868
		l0.677-1.825c0.247-0.601,0.564-1.173,0.856-1.757c0.304-0.579,0.687-1.11,1.032-1.666c0.359-0.548,0.791-1.039,1.188-1.56
		c0.408-0.509,0.886-0.95,1.328-1.429c0.465-0.453,0.962-0.863,1.443-1.296c0.503-0.397,1.019-0.782,1.534-1.166
		c0.535-0.344,1.068-0.701,1.616-1.021c1.102-0.627,2.227-1.207,3.382-1.689c1.15-0.504,2.335-0.885,3.521-1.25
		c1.192-0.338,2.389-0.651,3.608-0.859c1.242-0.218,2.39-0.39,3.77-0.474l-2.213,1.906l0.315-1.091
		c0.097-0.369,0.236-0.717,0.395-1.061c0.156-0.341,0.29-0.694,0.469-1.021l0.561-0.962c0.177-0.328,0.416-0.603,0.624-0.904
		c0.213-0.297,0.428-0.591,0.676-0.85c0.467-0.553,0.973-1.047,1.494-1.523c0.257-0.241,0.535-0.45,0.802-0.675
		c0.264-0.229,0.547-0.427,0.827-0.628c0.554-0.414,1.141-0.767,1.728-1.109c0.593-0.339,1.192-0.651,1.809-0.935
		c0.305-0.146,0.62-0.28,0.934-0.408c0.329-0.13,0.621-0.24,1.018-0.372l-0.289,0.134l1.475-0.599
		c0.491-0.186,0.995-0.25,1.489-0.373c0.5-0.131,0.99-0.13,1.479-0.173c0.49-0.045,0.975-0.065,1.449-0.03
		c0.475,0.028,0.956,0.014,1.418,0.081l1.386,0.177c0.905,0.17,1.811,0.336,2.677,0.609c0.877,0.23,1.723,0.538,2.569,0.829
		c0.84,0.31,1.667,0.645,2.475,1.022c1.614,0.738,3.186,1.562,4.663,2.53C240.242,402.397,238.551,401.964,236.852,401.583z"/>
</g>
<g>
	<path d="M218.748,517.739c-1.163,0.099-2.831,0.129-4.817-0.065c-1.985-0.199-4.29-0.635-6.693-1.405
		c-1.195-0.401-2.427-0.854-3.632-1.436c-1.219-0.546-2.403-1.238-3.57-1.96c-1.138-0.771-2.262-1.575-3.268-2.505
		c-0.513-0.451-1.006-0.915-1.454-1.419c-0.469-0.479-0.905-0.982-1.301-1.504c-0.819-1.018-1.5-2.091-2.063-3.145
		c-0.555-1.061-1.004-2.096-1.305-3.085c-0.344-0.973-0.494-1.913-0.659-2.72c-0.1-0.825-0.154-1.543-0.175-2.128
		c0.01-1.186,0.081-1.844,0.081-1.844s0.361,0.589,0.88,1.586c0.285,0.48,0.633,1.062,1.03,1.729
		c0.448,0.631,0.864,1.36,1.436,2.083c0.271,0.365,0.533,0.754,0.861,1.117c0.317,0.372,0.598,0.779,0.963,1.144
		c0.674,0.764,1.418,1.532,2.229,2.276c0.797,0.756,1.677,1.478,2.589,2.188c0.915,0.706,1.881,1.386,2.873,2.032
		c0.999,0.644,2.02,1.264,3.057,1.841c1.029,0.586,2.076,1.121,3.093,1.65c2.051,1.022,4.029,1.935,5.758,2.711
		c3.549,1.567,5.914,2.613,5.914,2.613S219.914,517.645,218.748,517.739z"/>
</g>
<g>
	<path fill="none" stroke="#000000" stroke-width="5" stroke-miterlimit="10" d="M235.24,874.008
		c3.156,1.354,20.221,14.289,20.221,14.289c18.746,10.823,36.292-1.811,36.292-1.811c17.146-4.059,23.459-19.85,23.459-19.85
		c0.91-22.111-10.818-48.276-10.818-48.276s-14.89-35.196-18.952-56.851c0,0-19.4-97.002-24.367-112.795
		c0,0-4.06-20.305-14.435-20.758c0,0-9.025-3.606-14.892,23.914c0,0-17.145,52.789-20.303,83.923"/>
	<path fill="none" stroke="#000000" stroke-width="5" stroke-miterlimit="10" d="M222.076,684.757
		c-5.61-4.567-3.418-27.021-3.418-27.021c3.616-16.694-4.697-18.498-4.697-18.498c-10.567-3.607-18.307,8.123-18.307,8.123
		c-14.89,17.597-4.063,80.76-4.063,80.76c4.063,19.854-0.448,54.142-0.448,54.142c-10.831,55.499-9.025,69.936-9.025,69.936
		c4.513,34.739,33.387,37.898,33.387,37.898c7.22,0.904,30.414-7.96,30.414-7.96"/>
	<path fill="none" stroke="#000000" stroke-width="5" stroke-miterlimit="10" d="M268.587,680.334
		c7.966-6.284,1.966-25.305,1.966-25.305c-4.964-16.691,3.604-20.301,3.604-20.301c14.441-0.455,23.902,30.229,23.902,30.229
		c18.038,45.568,1.974,72.64,1.974,72.64c-8.87,20.755,0,69.948,0,69.948"/>
	<path fill="none" stroke="#000000" stroke-width="5" stroke-miterlimit="10" d="M189.053,793.324
		c-1.155,6.215,9.76,4.409,9.76,4.409c8.122-3.026,32.938,0.515,32.938,0.515c6.319,3.807,30.232,0,30.232,0
		c14.884-6.12,34.527,0,34.527,0"/>
	<g>
		<path d="M253.117,833.092c0.204,0.889,0.387,1.788,0.556,2.69c0.151,0.904,0.285,1.813,0.402,2.725
			c0.11,0.913,0.21,1.829,0.283,2.75c0.077,0.919,0.114,1.844,0.125,2.772c0.024,0.928,0.003,1.856-0.021,2.788
			c-0.039,0.935-0.092,1.866-0.185,2.804c-0.089,0.935-0.228,1.865-0.396,2.798c-0.157,0.931-0.368,1.855-0.596,2.784
			c-0.255,0.919-0.496,1.847-0.831,2.751c-0.297,0.915-0.68,1.806-1.067,2.695c-0.442,0.868-0.86,1.75-1.385,2.582
			c-0.479,0.856-1.067,1.653-1.645,2.454c-0.627,0.763-1.241,1.544-1.952,2.241c-0.667,0.738-1.443,1.366-2.185,2.029l0.132-0.112
			c-1.119,1.027-2.195,1.941-3.323,2.868c-1.118,0.923-2.267,1.804-3.436,2.662c-2.333,1.724-4.771,3.327-7.338,4.763
			c-2.564,1.437-5.267,2.703-8.195,3.6c-1.467,0.435-2.989,0.777-4.581,0.94l-1.205,0.083l-1.229-0.013l-1.243-0.115l-0.077-0.008
			l-0.188-0.029l-0.032-0.007l-0.13-0.029l-0.298-0.072c-0.197-0.049-0.413-0.099-0.589-0.152c-1.479-0.408-2.882-0.927-4.244-1.538
			c-0.682-0.307-1.363-0.61-2.015-0.964c-0.663-0.338-1.321-0.681-1.951-1.074c-1.287-0.742-2.516-1.577-3.687-2.479l-1.71-1.409
			l-1.6-1.531c-0.547-0.491-1.008-1.072-1.497-1.619c-0.479-0.559-0.979-1.091-1.382-1.708l-1.259-1.793
			c-0.41-0.604-0.736-1.259-1.104-1.882c-0.761-1.234-1.252-2.611-1.823-3.922c-0.316-0.644-0.452-1.362-0.67-2.041l-0.584-2.052
			c0.718,1.239,1.304,2.517,2.059,3.696c0.782,1.166,1.485,2.36,2.396,3.41c0.438,0.535,0.827,1.099,1.297,1.604l1.418,1.487
			c0.444,0.516,1.003,0.927,1.492,1.395c0.512,0.449,0.985,0.931,1.547,1.321l1.613,1.228l1.703,1.095
			c1.161,0.683,2.311,1.377,3.535,1.935c0.596,0.308,1.215,0.565,1.835,0.817c0.61,0.271,1.244,0.488,1.873,0.709
			c1.259,0.432,2.542,0.811,3.801,1.083c0.164,0.04,0.295,0.059,0.441,0.088l0.219,0.041l0.131,0.021l0.033,0.007
			c-0.065-0.01,0.163,0.024-0.139-0.021l0.016,0.001l0.054,0.001l0.867,0.027l0.888-0.044l0.903-0.104
			c1.212-0.179,2.443-0.507,3.665-0.927c1.224-0.41,2.444-0.917,3.644-1.496c1.2-0.579,2.391-1.201,3.563-1.876
			c2.343-1.349,4.628-2.862,6.856-4.461c1.113-0.803,2.207-1.636,3.297-2.476c1.074-0.84,2.173-1.729,3.154-2.584l0.133-0.112
			c0.614-0.529,1.284-0.998,1.849-1.586c0.608-0.542,1.136-1.165,1.685-1.771c0.496-0.65,1.039-1.27,1.48-1.97
			c0.484-0.67,0.88-1.402,1.305-2.119c0.366-0.752,0.782-1.482,1.104-2.266c0.359-0.764,0.64-1.569,0.938-2.368
			c0.271-0.812,0.534-1.628,0.747-2.464c0.233-0.831,0.407-1.678,0.592-2.529c0.188-0.849,0.337-1.711,0.477-2.577
			c0.123-0.866,0.247-1.736,0.324-2.616c0.102-0.878,0.143-1.761,0.213-2.646c0.06-0.886,0.096-1.774,0.119-2.666
			c0.033-1.781,0.009-3.573-0.063-5.371c-0.091-1.795-0.207-3.597-0.424-5.403C252.229,829.541,252.717,831.303,253.117,833.092z"/>
	</g>
	<g>
		<path d="M289.588,885.225c0,0,0.188-0.228,0.516-0.623c0.39-0.42,0.979-1.031,1.667-1.732c0.345-0.349,0.717-0.747,1.113-1.057
			c0.395-0.332,0.812-0.683,1.242-1.046c0.857-0.717,1.771-1.482,2.685-2.248c0.938-0.719,1.9-1.406,2.79-2.063
			c0.889-0.649,1.718-1.258,2.429-1.778c1.415-1.037,2.359-1.728,2.359-1.728s-0.729,0.917-1.822,2.293
			c-0.544,0.688-1.176,1.486-1.857,2.343c-0.672,0.857-1.405,1.756-2.104,2.677c-0.653,0.943-1.309,1.888-1.92,2.775
			c-0.305,0.439-0.599,0.864-0.875,1.268c-0.304,0.403-0.482,0.771-0.671,1.107c-0.371,0.662-0.681,1.215-0.897,1.601
			c-0.209,0.463-0.329,0.729-0.329,0.729L289.588,885.225z"/>
	</g>
	<g>
		<path d="M213.894,736.312c0,0-0.876,3.381-2.264,8.403c-1.387,5.027-3.288,11.715-5.337,18.36
			c-1.03,3.323-2.093,6.635-3.141,9.722c-0.543,1.54-1.036,3.035-1.56,4.436c-0.532,1.398-0.987,2.732-1.493,3.938
			c-0.506,1.205-0.913,2.324-1.372,3.285c-0.451,0.962-0.815,1.808-1.164,2.483c-0.737,1.329-1.158,2.088-1.158,2.088
			s0.353-0.792,0.963-2.177c0.285-0.7,0.572-1.577,0.932-2.564c0.366-0.982,0.671-2.14,1.063-3.371
			c0.394-1.232,0.726-2.603,1.125-4.03c0.394-1.431,0.748-2.961,1.147-4.529c0.759-3.151,1.515-6.526,2.237-9.908
			c1.437-6.767,2.721-13.564,3.646-18.669c0.923-5.111,1.482-8.508,1.482-8.508L213.894,736.312z"/>
	</g>
	<g>
		<path d="M253.634,852.395c0.527,0.72,1.105,1.471,1.68,2.199c0.577,0.731,1.165,1.455,1.763,2.17
			c1.197,1.425,2.43,2.821,3.711,4.146c1.281,1.324,2.608,2.598,3.997,3.704c0.693,0.551,1.401,1.073,2.116,1.498
			c0.354,0.21,0.712,0.404,1.063,0.565c0.353,0.16,0.69,0.274,1.011,0.366l0.294,0.084l0.044,0.021
			c0.19,0.088,0.61,0.23,0.948,0.322c0.357,0.1,0.729,0.182,1.104,0.254c0.752,0.135,1.524,0.218,2.299,0.239
			c1.552,0.044,3.123-0.153,4.652-0.555c1.526-0.412,3.018-1.02,4.424-1.819c0.71-0.389,1.389-0.838,2.058-1.308
			c0.666-0.472,1.309-0.987,1.938-1.521l0.157-0.134l0.11-0.059c0.707-0.359,1.492-0.836,2.214-1.313
			c0.733-0.484,1.449-1.001,2.145-1.544c1.388-1.091,2.695-2.289,3.888-3.594c2.381-2.606,4.32-5.65,5.458-9.018
			c0.293-0.837,0.533-1.695,0.715-2.566c0.195-0.869,0.332-1.752,0.415-2.641c0.021-0.212,0.059-0.463,0.062-0.646l0.013-0.683
			l0.013-1.361l-0.012-2.729c-0.022-1.819-0.094-3.639-0.188-5.457l-0.198-2.726l-0.295-2.72l0.454,2.699l0.356,2.716
			c0.2,1.815,0.378,3.637,0.508,5.458l0.174,2.736l0.065,1.373l0.027,0.686c0.008,0.275-0.017,0.478-0.022,0.719
			c-0.031,0.928-0.122,1.857-0.271,2.778c-0.14,0.924-0.337,1.84-0.593,2.739c-0.993,3.622-2.86,6.979-5.228,9.894
			c-1.187,1.457-2.5,2.814-3.91,4.062c-0.706,0.622-1.436,1.218-2.192,1.785c-0.77,0.569-1.513,1.094-2.4,1.614l0.269-0.189
			c-0.649,0.623-1.32,1.231-2.028,1.799c-0.712,0.565-1.444,1.114-2.222,1.602c-1.537,0.996-3.221,1.809-4.992,2.4
			c-1.776,0.58-3.648,0.928-5.545,0.988c-0.948,0.029-1.903-0.014-2.857-0.129c-0.477-0.062-0.955-0.138-1.434-0.241
			c-0.501-0.115-0.913-0.208-1.525-0.433l0.338,0.104c-0.609-0.127-1.183-0.299-1.713-0.506c-0.529-0.209-1.026-0.445-1.505-0.694
			c-0.954-0.502-1.817-1.071-2.651-1.665c-1.662-1.186-3.167-2.486-4.615-3.832c-1.444-1.345-2.818-2.74-4.153-4.171
			c-0.666-0.715-1.322-1.439-1.968-2.173c-0.65-0.738-1.276-1.467-1.922-2.253L253.634,852.395z"/>
	</g>
</g>
</svg>
