<?xml version="1.0" encoding="utf-8"?>
<!-- Generator: Adobe Illustrator 16.0.0, SVG Export Plug-In . SVG Version: 6.00 Build 0)  -->
<!DOCTYPE svg PUBLIC "-//W3C//DTD SVG 1.1//EN" "http://www.w3.org/Graphics/SVG/1.1/DTD/svg11.dtd">
<svg version="1.1" id="Layer_2" xmlns="http://www.w3.org/2000/svg" xmlns:xlink="http://www.w3.org/1999/xlink" x="0px" y="0px"
	 width="500px" height="900px" viewBox="0 0 500 900" enable-background="new 0 0 500 900" xml:space="preserve">
<g>
	<path fill="none" stroke="#1E120D" stroke-width="5" stroke-miterlimit="10" d="M311.841,291.225
		c-1.323,16.906-25.096,34.604-25.096,34.604c-5.28,2.114-16.112-0.527-16.112-0.527c-3.17-2.904-14.266-7.396-14.266-7.396
		c-3.963,2.907-22.717,11.888-22.717,11.888c-15.057,7.924-24.831,0-24.831,0c-1.322-1.585-11.888-11.094-11.888-11.094
		c-10.037-6.605-8.188-16.643-8.188-16.643c-0.267-10.304,10.828-35.133,10.828-35.133c9.775-22.188,2.38-33.02,2.38-33.02
		c-5.282-11.888-6.075-50.453-6.075-50.453c-0.266-39.357,16.903-68.416,16.903-68.416c9.244-21.396,18.755-15.32,18.755-15.32
		c7.663,4.228,2.643,20.341,2.643,20.341c-4.226,20.866,3.436,40.941,3.436,40.941c3.961,6.34,10.565,25.886,10.565,25.886
		c0-7.396,11.095-22.188,11.095-22.188c16.642-24.567,11.887-50.718,11.887-50.718c-1.055-15.058,6.075-15.584,6.075-15.584
		c12.945-2.904,21.719,25.624,21.719,25.624c14.059,40.68,3.111,79.511,3.111,79.511c-14.002,36.452,0,61.282,0,61.282
		C313.158,276.432,311.84,291.225,311.841,291.225z"/>
	<path fill="none" stroke="#1E120D" stroke-width="5" stroke-miterlimit="10" d="M204.987,252.129
		c2.774,2.644,17.17,2.644,31.17-2.377c0.17-0.062,0.342-0.122,0.516-0.183c13.916-4.856,31.185-5.629,31.185-5.629
		c18.093-1.454,29.454,10.17,29.454,10.17"/>
	<path fill="none" stroke="#1E120D" stroke-width="5" stroke-miterlimit="10" d="M235.778,108.975
		c3.581-3.947,4.146-8.952,4.146-8.952c2.574-17.455,13.671-16.226,13.671-16.226c11.093,0,10.696,11.293,10.696,11.293
		c2.181,13.098,7.167,21.153,7.167,21.153"/>
	<g>
		<path fill="#1E120D" d="M277.057,322.951c-0.96-0.206-1.892-0.485-2.832-0.744c-0.942-0.26-1.868-0.56-2.791-0.876
			c-0.922-0.314-1.838-0.656-2.746-1.019c-0.912-0.362-1.811-0.751-2.707-1.167c-0.896-0.413-1.78-0.873-2.666-1.352
			c-0.439-0.239-0.876-0.521-1.315-0.783c-0.436-0.254-0.882-0.57-1.313-0.884c-0.431-0.287-0.877-0.683-1.316-1.074l-0.329-0.295
			c-0.111-0.11-0.231-0.262-0.346-0.394c-0.23-0.272-0.455-0.553-0.666-0.84l3.515,0.729c-0.989,0.688-1.943,1.37-2.944,2.015
			c-0.996,0.64-1.979,1.302-3,1.903c-2.014,1.25-4.094,2.397-6.201,3.495c-1.05,0.554-2.14,1.051-3.22,1.553
			c-1.079,0.502-2.178,0.978-3.307,1.395c-1.125,0.421-2.229,0.862-3.396,1.194c-1.17,0.319-2.33,0.639-3.511,0.875
			c0.928-0.797,1.88-1.514,2.818-2.225c0.948-0.696,1.863-1.465,2.807-2.152l1.408-1.043l1.401-1.064l2.828-2.067
			c0.946-0.688,1.889-1.372,2.847-2.033c0.953-0.674,1.901-1.355,2.867-2.004c1.911-1.328,3.864-2.625,5.781-3.905l1.681-1.123
			l1.833,1.854c0.086,0.088,0.162,0.182,0.229,0.283c0.037,0.053,0.055,0.101,0.108,0.161l0.2,0.192
			c0.263,0.257,0.51,0.522,0.865,0.788c0.333,0.261,0.631,0.548,1.006,0.806c0.362,0.262,0.705,0.537,1.084,0.792
			c0.744,0.529,1.501,1.049,2.285,1.559c0.381,0.267,0.774,0.521,1.171,0.774l1.183,0.772c1.587,1.028,3.194,2.058,4.79,3.136
			c0.795,0.545,1.61,1.054,2.4,1.625c0.801,0.548,1.595,1.112,2.384,1.709C278.965,323.375,278.005,323.174,277.057,322.951z"/>
	</g>
	<g>
		<path fill="#1E120D" d="M257.372,312.089c0,0,0.207-1.117,0.518-2.797c0.292-1.683,0.681-3.938,0.979-6.197
			c0.171-1.135,0.293-2.264,0.406-3.326c0.139-1.069,0.171-2.054,0.229-2.911c0.022-0.428,0.061-0.826,0.032-1.165
			c-0.011-0.346-0.022-0.649-0.031-0.898c-0.021-0.506-0.031-0.795-0.031-0.795s0.088,0.273,0.241,0.751
			c0.076,0.243,0.172,0.538,0.278,0.876c0.124,0.344,0.193,0.731,0.287,1.156c0.179,0.85,0.421,1.858,0.576,2.93
			c0.181,1.075,0.371,2.231,0.513,3.383c0.326,2.308,0.561,4.617,0.735,6.357c0.158,1.743,0.262,2.906,0.262,2.906L257.372,312.089z
			"/>
	</g>
</g>
<g>
	<g>
		<path fill="#1E120D" d="M472.2,281.243c0.025,0.006-0.207-0.046-0.163-0.012c0.063,0.002-0.224,0.011-0.474,0.022
			c-0.588,0.055-1.572,0.316-2.843,0.875c-0.626,0.37-1.351,0.651-2.083,1.204c-0.373,0.253-0.763,0.518-1.163,0.789
			c-0.384,0.319-0.784,0.649-1.197,0.99c-1.656,1.359-3.369,3.185-5.146,5.271c-0.891,1.045-1.742,2.224-2.667,3.391
			c-0.898,1.195-1.741,2.516-2.656,3.828c-0.919,1.307-1.733,2.765-2.638,4.19c-0.915,1.421-1.743,2.952-2.598,4.501
			c-1.762,3.062-3.355,6.373-5.056,9.691c-1.565,3.338-3.214,6.908-4.916,10.335c-1.692,3.459-3.422,6.896-5.15,10.271
			c-1.726,3.375-3.505,6.657-5.241,9.825c-0.851,1.592-1.746,3.129-2.618,4.635c-0.864,1.51-1.721,2.98-2.583,4.397
			c-1.688,2.851-3.414,5.477-4.979,7.911c-0.809,1.202-1.621,2.333-2.372,3.418c-0.743,1.09-1.485,2.101-2.22,3.028
			c-0.724,0.93-1.384,1.811-2.026,2.604c-0.673,0.77-1.29,1.475-1.848,2.114c-1.071,1.306-2.115,2.164-2.759,2.792
			c-0.657,0.615-1.008,0.941-1.008,0.941s0.295-0.381,0.85-1.094c0.533-0.729,1.41-1.701,2.296-3.131
			c0.462-0.695,0.973-1.463,1.532-2.3c0.533-0.855,1.078-1.801,1.676-2.797c1.229-1.97,2.449-4.308,3.838-6.804
			c1.346-2.529,2.79-5.273,4.256-8.213c1.507-2.914,2.994-6.046,4.569-9.263c1.578-3.215,3.132-6.579,4.74-9.981
			c1.596-3.406,3.193-6.882,4.754-10.371c1.555-3.512,3.109-7.021,4.641-10.476c1.664-3.443,3.206-6.877,5.009-10.066
			c0.864-1.612,1.701-3.203,2.643-4.706c0.934-1.506,1.747-3.029,2.726-4.417c0.968-1.395,1.855-2.779,2.817-4.064
			c0.997-1.266,1.907-2.518,2.882-3.664c1.985-2.263,3.922-4.271,5.902-5.855c0.497-0.396,0.975-0.777,1.438-1.146
			c0.506-0.334,0.993-0.656,1.461-0.966c0.904-0.646,1.918-1.073,2.756-1.522c1.816-0.762,3.417-1.133,4.629-1.199
			c0.647-0.013,1.055-0.026,1.576,0.055c0.507,0.074,0.506,0.094,0.532,0.095L472.2,281.243z"/>
	</g>
	<path fill="none" stroke="#1E120D" stroke-width="5" stroke-miterlimit="10" d="M472.755,278.807
		c16.642,2.772,19.415,49.925,19.415,49.925c3.17,21.395,0,101.831,0,101.831c10.697,28.132-0.794,44.377-0.794,44.377
		c-7.114,12.68-18.621,35.265-18.621,35.265c-7.133,9.116-21.792,2.142-21.792,2.142c-14.266-6.184-22.981-15.215-22.981-15.215
		c-19.814,5.15-29.718,11.094-29.718,11.094c-13.868,7.923-23.378,1.979-23.378,1.979c-13.867-5.941-24.962-29.319-24.962-29.319
		c-4.753-7.131-1.98-24.962-1.98-24.962c0.397-10.698,11.094-28.927,11.094-28.927c-17.038-55.471-4.356-134.322-4.356-134.322
		c2.377-31.698,17.038-32.095,17.038-32.095c13.074,0.792,16.246,24.566,16.246,24.566c1.188,11.491,11.094,36.849,11.094,36.849
		c7.526,18.623,21.087,35.363,21.087,35.363"/>
	<path fill="none" stroke="#1E120D" stroke-width="5" stroke-miterlimit="10" d="M359.038,426.996
		c6.343-0.924,15.85,2.246,15.85,2.246c16.785,5.433,44.377,12.15,56.264,12.15s35.662-13.472,44.378-13.472
		s15.585,2.905,15.585,2.905"/>
	<g>
		<path fill="#1E120D" d="M453.816,509.091c-1.422-0.292-2.823-0.67-4.219-1.079c-1.402-0.399-2.781-0.879-4.146-1.413
			c-1.366-0.533-2.73-1.092-4.055-1.767c-2.655-1.319-5.239-2.933-7.54-5.089c-0.565-0.556-1.136-1.109-1.642-1.752
			c-0.267-0.304-0.514-0.631-0.746-0.975c-0.24-0.337-0.483-0.67-0.688-1.044c-0.44-0.714-0.818-1.496-1.125-2.31
			c-0.134-0.418-0.285-0.831-0.394-1.258l-0.266-1.308l3.847,1.673c-0.98,0.688-1.828,1.205-2.771,1.714
			c-0.911,0.538-1.869,0.946-2.807,1.411c-0.938,0.465-1.939,0.777-2.906,1.171c-0.484,0.198-0.977,0.367-1.484,0.502l-1.507,0.438
			c-0.505,0.137-1.004,0.292-1.513,0.408l-1.548,0.28l-1.547,0.273c-0.517,0.093-1.032,0.176-1.562,0.186l-3.143,0.169
			c-0.285,0.005-0.471,0.031-0.837,0.023l-0.646-0.015c-0.453-0.003-0.912,0.009-1.374,0.029c-0.923,0.039-1.851,0.108-2.776,0.212
			c-0.923,0.124-1.851,0.241-2.762,0.43c-0.461,0.077-0.916,0.176-1.361,0.3c-0.449,0.114-0.916,0.193-1.357,0.336l-1.335,0.412
			c-0.447,0.139-0.864,0.335-1.301,0.5c-0.439,0.164-0.868,0.345-1.274,0.567l-1.264,0.615c-0.771,0.509-1.636,0.939-2.334,1.57
			c-0.368,0.295-0.772,0.565-1.122,0.889l-1.018,1.021c-0.361,0.331-0.662,0.709-0.954,1.101l-0.925,1.171
			c0.169-0.462,0.35-0.928,0.537-1.397c0.185-0.474,0.362-0.956,0.646-1.375l0.789-1.319c0.28-0.429,0.625-0.813,0.939-1.226
			c0.627-0.841,1.438-1.483,2.188-2.224c0.819-0.624,1.629-1.325,2.546-1.815c0.45-0.263,0.891-0.558,1.355-0.788l1.406-0.693
			c0.951-0.421,1.918-0.841,2.914-1.137c0.989-0.34,1.994-0.606,3.01-0.839c1.02-0.222,2.042-0.42,3.082-0.552
			c0.52-0.063,1.043-0.122,1.574-0.163l0.833-0.05l0.636-0.079l2.747-0.318c0.459-0.03,0.91-0.133,1.36-0.244l1.353-0.297
			l1.354-0.289c0.445-0.121,0.883-0.277,1.324-0.413c0.874-0.305,1.784-0.484,2.633-0.868c0.853-0.355,1.731-0.656,2.566-1.051
			c0.83-0.403,1.695-0.753,2.486-1.214c0.796-0.421,1.646-0.909,2.296-1.327l3.225-2.069l0.623,3.743l0.132,0.798
			c0.059,0.268,0.15,0.527,0.219,0.795c0.188,0.524,0.386,1.058,0.671,1.575c0.119,0.263,0.286,0.516,0.446,0.772
			c0.151,0.259,0.319,0.512,0.513,0.757c0.355,0.502,0.765,0.989,1.182,1.47c1.737,1.898,3.873,3.599,6.161,5.132
			c1.146,0.769,2.315,1.528,3.53,2.226c0.602,0.355,1.219,0.691,1.836,1.028l1.86,1.018c2.512,1.309,5.078,2.562,7.708,3.758
			C456.657,509.651,455.23,509.398,453.816,509.091z"/>
	</g>
</g>
<g>
	<g>
		<path fill="#1E120D" d="M16.671,327.702c0,0,0.093,0.359,0.271,1.032c0.183,0.687,0.43,1.682,0.733,2.942
			c0.604,2.523,1.423,6.127,2.258,10.475c0.433,2.171,0.854,4.53,1.276,7.029c0.455,2.492,0.799,5.143,1.229,7.871
			c0.352,2.738,0.748,5.564,1.055,8.446c0.28,2.889,0.639,5.809,0.818,8.747c0.109,1.467,0.218,2.936,0.326,4.396
			c0.103,1.461,0.137,2.922,0.207,4.368c0.063,1.443,0.124,2.879,0.186,4.296c0.014,1.418,0.023,2.818,0.036,4.196
			c0.012,1.377,0.022,2.732,0.034,4.059c-0.039,1.325-0.078,2.622-0.115,3.884c-0.075,2.524-0.118,4.908-0.32,7.102
			c-0.161,2.194-0.309,4.205-0.438,5.988c-0.216,1.775-0.405,3.322-0.559,4.594c-0.31,2.544-0.487,4-0.487,4s0.098-1.463,0.271-4.02
			c0.088-1.277,0.192-2.828,0.313-4.606c0.035-1.779,0.074-3.792,0.117-5.983c0.085-2.19,0.001-4.566-0.06-7.075
			c-0.028-1.254-0.061-2.543-0.092-3.859c-0.081-1.313-0.165-2.658-0.249-4.023c-0.085-1.365-0.171-2.752-0.258-4.157
			c-0.136-1.401-0.272-2.819-0.411-4.249c-0.146-1.429-0.257-2.872-0.437-4.313c-0.186-1.439-0.369-2.887-0.556-4.333
			c-0.333-2.895-0.842-5.769-1.271-8.603c-0.454-2.831-0.997-5.601-1.486-8.286c-0.569-2.671-1.047-5.264-1.628-7.698
			c-0.546-2.439-1.085-4.74-1.626-6.853c-1.05-4.232-2.042-7.722-2.761-10.149c-0.362-1.216-0.651-2.161-0.854-2.789
			c-0.208-0.644-0.317-0.986-0.317-0.986L16.671,327.702z"/>
	</g>
	<path fill="none" stroke="#1E120D" stroke-width="5" stroke-miterlimit="10" d="M25.959,295.882c0.5-4.886,5.67-5.774,5.67-5.774
		c16.904-6.34,39.36,41.471,50.718,59.699c11.357,18.227,15.696,11.056,15.696,11.056"/>
	<path fill="none" stroke="#1E120D" stroke-width="5" stroke-miterlimit="10" d="M14.461,328.936c-12.416-33.547,0-35.396,0-35.396
		c24.564-5.283,56.527,65.775,63.662,74.756c7.13,8.982,12.939,1.585,12.939,1.585c19.282-19.019,21.661-63.134,21.661-63.134
		c2.378-36.189,10.566-33.019,10.566-33.019c20.074-0.793,34.074,50.718,36.718,74.227c2.641,23.509-11.093,70.793-11.093,70.793
		c-2.856,9.833-1.711,17.763-0.342,22.528c0.911,3.173,4.367,17.688,4.367,17.688c9.115,38.039-10.695,47.15-19.611,58.246
		c-8.915,11.094-17.634,3.566-20.604,2.973c-2.973-0.594-29.916-15.256-29.916-15.256c-2.575,1.783-22.584,12.086-22.584,12.086
		c-7.926,4.953-17.767,16.111-30.711,0c-12.942-16.113-22.98-44.115-22.98-44.115c-5.812-21.395,6.077-35.659,6.077-35.659
		c6.868-26.679,0.76-111.347,0.76-111.347"/>
	<path fill="none" stroke="#1E120D" stroke-width="5" stroke-miterlimit="10" d="M10.811,439.856
		c3.283-3.259,9.072-0.901,9.072-0.901c17.508,5.745,27.862,4.953,45.096,3.368c17.238-1.584,38.83-9.111,53.887-8.915
		c15.061,0.199,28.927,8.915,28.927,8.915"/>
	<g>
		<path fill="#1E120D" d="M112.851,507.906c-0.251-0.259-0.654-0.613-1.136-1.063c-0.484-0.451-1.117-0.944-1.817-1.477
			c-0.708-0.521-1.552-1.031-2.449-1.396c-0.895-0.37-1.847-0.543-2.688-0.396c-0.625,0.088-1.27,0.182-1.924,0.276
			c-0.683,0.104-1.401,0.174-2.126,0.252c-1.458,0.147-2.988,0.23-4.554,0.218c-1.565-0.009-3.171-0.119-4.78-0.349
			c-0.804-0.118-1.607-0.265-2.407-0.462c-0.803-0.153-1.59-0.434-2.371-0.682c-0.783-0.233-1.539-0.609-2.284-0.924
			c-0.729-0.39-1.456-0.759-2.125-1.211c-1.336-0.917-2.544-1.965-3.453-3.159c-0.221-0.3-0.44-0.595-0.659-0.885l-0.157-0.217
			c0.117,0.143,0.028,0.035,0.052,0.062l-0.008-0.012l-0.02-0.022l-0.032-0.051l-0.066-0.097l-0.288-0.436
			c-0.357-0.577-0.679-1.104-0.952-1.647c-0.561-1.07-0.995-2.081-1.302-3.01c-0.344-0.907-0.49-1.763-0.65-2.428
			c-0.144-0.679-0.143-1.241-0.191-1.6c-0.024-0.367-0.037-0.56-0.037-0.56s0.419,0.645,1.149,1.777
			c0.403,0.536,0.841,1.191,1.43,1.885c0.282,0.352,0.568,0.729,0.917,1.098c0.33,0.379,0.669,0.777,1.056,1.166
			c0.365,0.398,0.774,0.808,1.176,1.194l0.303,0.279l0.086,0.081l0.043,0.04l0.021,0.021l0.011,0.011
			c0.031,0.036-0.053-0.066,0.072,0.083l0.158,0.135c0.208,0.182,0.42,0.361,0.635,0.545c0.836,0.745,1.865,1.351,2.95,1.914
			c0.557,0.263,1.152,0.496,1.737,0.745c0.634,0.177,1.228,0.434,1.887,0.591c0.653,0.168,1.302,0.345,1.989,0.47
			c0.67,0.153,1.363,0.26,2.063,0.354c1.387,0.228,2.817,0.339,4.233,0.454c1.421,0.09,2.834,0.159,4.22,0.203
			c0.701,0.02,1.387,0.039,2.062,0.059c0.343,0.011,0.681,0.021,1.016,0.031l0.5,0.015c0.156,0.005,0.327,0.014,0.567,0.037
			c1.78,0.108,3.22,0.872,4.253,1.681c1.052,0.817,1.766,1.727,2.325,2.547c0.568,0.811,0.954,1.572,1.239,2.207
			c0.574,1.264,0.733,2.041,0.733,2.041S113.114,508.159,112.851,507.906z"/>
	</g>
	<g>
		<path fill="#1E120D" d="M81.322,494.934c0,0-0.006,0.036-0.018,0.1c-0.027,0.195-0.123,0.709-0.374,1.208
			c-0.38,0.661-0.939,1.239-1.536,1.6c-0.658,0.501-1.285,0.666-2.076,1.016c-0.747,0.235-1.561,0.438-2.45,0.643
			c-0.86,0.131-1.797,0.27-2.783,0.415c-0.971,0.07-1.989,0.143-3.046,0.218c-1.064,0.081-2.096,0.086-3.176,0.134
			c-1.071,0.039-2.153,0.074-3.21,0.148c-1.07,0.058-2.081,0.199-3.06,0.392c-0.953,0.231-1.839,0.577-2.64,1.06
			c-0.773,0.525-1.504,1.118-2.107,1.797c-0.634,0.647-1.165,1.35-1.659,1.988c-0.974,1.297-1.725,2.439-2.248,3.237
			c-0.519,0.801-0.816,1.259-0.816,1.259s0.229-0.496,0.631-1.363c0.403-0.869,0.983-2.105,1.778-3.557
			c0.407-0.721,0.845-1.512,1.416-2.297c0.536-0.809,1.239-1.592,2.065-2.337c0.862-0.711,1.889-1.295,2.978-1.729
			c1.085-0.387,2.21-0.705,3.306-0.922c1.1-0.24,2.186-0.432,3.246-0.624c1.051-0.2,2.126-0.361,3.085-0.579
			c0.967-0.208,1.898-0.413,2.787-0.604c0.842-0.252,1.637-0.489,2.369-0.71c0.676-0.271,1.29-0.523,1.783-0.753
			c0.383-0.266,0.872-0.484,0.928-0.637c0.217-0.153,0.097-0.21-0.004,0.034c-0.156,0.262-0.171,0.596-0.161,0.666
			c0.003-0.066,0.004-0.1,0.004-0.1L81.322,494.934z"/>
	</g>
	<g>
		<path fill="#1E120D" d="M92.296,499.117c1.811,0.758,3.513,1.561,5.227,2.414c1.706,0.855,3.386,1.758,5.04,2.715
			c0.821,0.493,1.646,0.979,2.45,1.502c0.813,0.502,1.603,1.063,2.396,1.606c0.781,0.578,1.564,1.137,2.313,1.766
			c0.755,0.583,1.503,1.305,2.179,1.915c0.344,0.332,0.671,0.628,0.986,0.909c0.33,0.285,0.668,0.574,1.013,0.843
			c0.689,0.542,1.404,1.044,2.148,1.482c1.485,0.878,3.098,1.505,4.767,1.668c1.668,0.178,3.374-0.177,4.937-0.95
			c1.566-0.774,2.972-1.937,4.223-3.253l0.046-0.049l0.013-0.009c2.917-2.234,5.899-4.37,8.847-6.549
			c-2.736,2.44-5.504,4.842-8.192,7.32l0.058-0.058c-1.178,1.492-2.556,2.887-4.249,3.929c-1.68,1.043-3.71,1.685-5.769,1.655
			c-2.058-0.006-4.06-0.59-5.861-1.443c-0.904-0.426-1.767-0.919-2.593-1.454c-0.417-0.267-0.814-0.548-1.218-0.836
			c-0.409-0.302-0.8-0.6-1.154-0.882c-0.759-0.571-1.396-1.098-2.162-1.591c-0.725-0.511-1.5-0.968-2.261-1.438
			c-0.786-0.441-1.556-0.896-2.366-1.305c-0.795-0.427-1.614-0.816-2.428-1.214c-1.643-0.768-3.313-1.49-5.002-2.16
			c-1.684-0.665-3.415-1.303-5.094-1.84L92.296,499.117z"/>
	</g>
</g>
<g>
	<path fill="none" stroke="#1E120D" stroke-width="5" stroke-miterlimit="10" d="M229.152,693.864
		c-5.019-6.865-5.283-19.281-5.283-19.281c-1.848-14-10.036-14-10.036-14c-12.942-1.584-17.965,35.396-17.965,35.396
		c-6.604,49.659,2.377,82.944,6.605,102.491c4.225,19.547-3.171,38.303-3.171,38.303c-6.339,15.058-6.074,23.244-5.547,35.131
		c0.526,11.89,19.548,22.454,19.548,22.454c6.339,0.266,16.903-4.49,16.903-4.49c2.905-1.848,16.906-6.869,16.906-6.869
		c6.607,0.264,26.679,10.566,26.679,10.566c19.02,9.51,27.737-2.641,34.605-12.943c6.87-10.303,8.98-9.773-5.284-50.188
		c-14.262-40.417-5.548-47.549-6.074-87.438c-0.526-39.888-9.248-59.434-9.248-59.434s-8.715-29.851-23.241-25.624
		c0,0-5.208,1.32-3.359,18.49"/>
	<path fill="none" stroke="#1E120D" stroke-width="5" stroke-miterlimit="10" d="M203.767,810.365
		c8.688-7.647,43.609-4.768,43.609-4.768c48.342-5.02,49.396,2.682,49.396,2.682"/>
	<g>
		<path fill="#1E120D" d="M285.067,766.603c-0.641-2.956-1.31-5.907-1.994-8.852l-2.055-8.831l-2.152-8.803l-2.22-8.779l-2.348-8.74
			l-2.448-8.704l-2.616-8.646c-0.879-2.878-1.895-5.707-2.802-8.57c-0.449-1.438-0.959-2.847-1.479-4.252l-1.532-4.229l-0.771-2.11
			l-0.853-2.071l-1.704-4.145c-0.292-0.687-0.552-1.391-0.869-2.062l-0.96-2.01l-1.905-4.022c-0.162-0.334-0.309-0.677-0.479-1.004
			l-0.543-0.958l-1.086-1.917l-1.081-1.917c-0.367-0.637-0.697-1.273-1.134-1.961c-1.531-2.565-3.126-4.992-4.907-7.277
			c-1.772-2.267-3.719-4.392-5.864-6.021c-1.073-0.808-2.19-1.484-3.308-1.943c-1.12-0.435-2.224-0.626-3.273-0.538l-0.727-0.031
			c0.269,0.044,0.242,0.032,0.286,0.034c0.053-0.01,0.044,0,0.053,0.001c0.02-0.011,0.005-0.004-0.021,0.013
			c-0.012,0.005-0.021,0.006-0.038,0.003c-0.02,0.019-0.042,0.034-0.063,0.05c-0.043,0.039-0.088,0.028-0.147,0.089
			c-0.226,0.186-0.509,0.499-0.771,0.896l-0.387,0.654c-0.118,0.241-0.219,0.517-0.332,0.771c-0.244,0.491-0.393,1.099-0.573,1.671
			c-0.201,0.559-0.302,1.197-0.438,1.807l-0.197,0.924l-0.134,0.956l-0.26,1.921l-0.147,1.965c-0.129,1.303-0.127,2.64-0.166,3.966
			c-0.056,1.323-0.004,2.667,0.018,4.004l0.024,2.009l0.098,2.017l0.099,2.018l0.049,1.008l0.021,0.436l0.048,0.511
			c0.25,2.821,0.367,5.55,0.479,8.32c0.075,2.759,0.137,5.518,0.11,8.275c0.038,2.758-0.118,5.512-0.191,8.267
			c-0.176,2.752-0.29,5.505-0.533,8.247c-0.275,2.742-0.438,5.492-0.824,8.222c-0.349,2.732-0.659,5.468-1.165,8.178
			c-0.474,2.713-0.877,5.432-1.502,8.118c-0.598,2.685-1.078,5.394-1.861,8.039l-1.076,3.98l-0.543,1.987l-0.643,1.961l-1.282,3.917
			c-0.428,1.305-0.848,2.61-1.39,3.876c-1.047,2.541-1.987,5.117-3.118,7.613l-3.607,7.378l2.942-7.646
			c0.921-2.564,1.682-5.187,2.53-7.769c0.446-1.284,0.76-2.613,1.102-3.928l1.034-3.943l0.517-1.969l0.418-1.995l0.825-3.989
			c0.602-2.646,0.971-5.34,1.43-8.012c0.493-2.667,0.765-5.372,1.104-8.062c0.378-2.684,0.533-5.396,0.8-8.092
			c0.29-2.692,0.356-5.408,0.537-8.108c0.148-2.704,0.169-5.416,0.251-8.121c-0.026-2.709,0.039-5.416-0.04-8.121
			c-0.03-2.707-0.145-5.409-0.273-8.108c-0.163-2.682-0.341-5.413-0.626-8.026l-0.06-0.511l-0.044-0.589l-0.072-1.036l-0.144-2.072
			l-0.143-2.074l-0.063-2.088c-0.031-1.394-0.094-2.781-0.044-4.189c0.031-1.404,0.02-2.801,0.146-4.221l0.146-2.122l0.271-2.144
			l0.146-1.071l0.22-1.083c0.157-0.725,0.27-1.441,0.514-2.175c0.225-0.732,0.402-1.459,0.745-2.203
			c0.16-0.371,0.297-0.738,0.48-1.109l0.643-1.117c0.486-0.74,1.083-1.488,1.928-2.154c0.195-0.168,0.474-0.315,0.714-0.463
			l0.377-0.213l0.441-0.172c0.291-0.113,0.603-0.208,0.965-0.257c0.176-0.03,0.336-0.058,0.558-0.058
			c0.215,0.001,0.36-0.021,0.798,0.051l-0.724-0.032c1.966-0.195,3.916,0.173,5.607,0.828c1.692,0.67,3.17,1.6,4.502,2.622
			c2.66,2.057,4.798,4.47,6.731,6.969c1.924,2.498,3.635,5.153,5.185,7.789c0.371,0.593,0.739,1.3,1.123,1.977l1.138,2.039
			l1.134,2.04l0.564,1.021c0.179,0.344,0.327,0.697,0.492,1.046l1.921,4.204l0.952,2.104c0.317,0.702,0.566,1.427,0.853,2.138
			l1.659,4.281l0.83,2.143l0.742,2.166l1.476,4.333c0.495,1.444,0.985,2.887,1.409,4.348c0.88,2.914,1.781,5.824,2.578,8.758
			l2.347,8.813l2.158,8.847l1.948,8.892l1.815,8.911l1.64,8.942c0.499,2.989,1.053,5.967,1.505,8.963
			c0.469,2.992,0.925,5.986,1.354,8.984c0.412,3.001,0.8,6.005,1.155,9.011C286.385,772.52,285.737,769.564,285.067,766.603z"/>
	</g>
	<g>
		<path fill="#1E120D" d="M307.8,866.382c0.134,1.902,0.03,3.834-0.293,5.757c-0.309,1.928-0.92,3.83-1.797,5.634
			c-0.209,0.458-0.466,0.891-0.706,1.336c-0.269,0.424-0.517,0.87-0.818,1.278c-0.282,0.424-0.596,0.824-0.927,1.213
			c-0.316,0.402-0.683,0.758-1.024,1.138l0.183-0.198c-0.425,0.569-0.803,1.028-1.219,1.52c-0.411,0.477-0.83,0.949-1.263,1.406
			c-0.866,0.914-1.765,1.804-2.733,2.624c-0.967,0.82-1.981,1.598-3.05,2.317c-0.527,0.368-1.085,0.699-1.646,1.026
			c-0.563,0.324-1.143,0.628-1.734,0.915c-0.596,0.274-1.196,0.555-1.823,0.784c-0.615,0.252-1.263,0.438-1.908,0.631
			c-0.654,0.167-1.312,0.332-1.988,0.436c-0.669,0.126-1.359,0.186-2.045,0.235l-1.037,0.035l-1.041-0.047
			c-0.693-0.039-1.386-0.136-2.069-0.258c-0.684-0.131-1.362-0.286-2.02-0.502c-0.674-0.179-1.3-0.467-1.943-0.714l0.304,0.111
			c-1.063-0.323-2.045-0.648-3.055-0.992c-1.001-0.344-2.001-0.688-2.988-1.069c-1.975-0.756-3.94-1.531-5.873-2.403
			c-3.864-1.73-7.658-3.681-11.22-6.081c-1.775-1.202-3.532-2.467-5.126-3.961c-0.799-0.743-1.569-1.526-2.289-2.364
			c-0.716-0.84-1.399-1.722-1.962-2.701c-0.561-0.976-1.027-2.021-1.328-3.126c-0.14-0.555-0.255-1.118-0.297-1.688l-0.116-1.562
			c-0.062-1.05-0.116-2.099-0.116-3.154c0.022-1.052,0.028-2.12,0.272-3.146c0.042,1.044,0.244,2.055,0.467,3.067
			c0.213,1.011,0.459,2.017,0.725,3.015c0.131,0.513,0.279,0.966,0.403,1.51c0.111,0.456,0.282,0.896,0.468,1.325
			c0.395,0.856,0.919,1.651,1.524,2.389c1.203,1.489,2.7,2.78,4.307,3.927c1.617,1.138,3.307,2.211,5.077,3.158
			c3.545,1.896,7.26,3.543,11.042,5.039c1.896,0.737,3.798,1.469,5.726,2.13l2.889,0.989c0.958,0.316,1.949,0.633,2.875,0.904
			l0.304,0.111c0.48,0.16,0.936,0.402,1.422,0.524c0.478,0.164,0.964,0.277,1.455,0.378c0.49,0.092,0.986,0.167,1.486,0.199
			c0.499,0.042,1.001,0.046,1.507,0.034c2.025-0.054,4.072-0.598,6.057-1.426c1.98-0.854,3.898-1.996,5.705-3.332
			c0.902-0.673,1.793-1.372,2.643-2.126c0.427-0.374,0.841-0.762,1.249-1.154c0.396-0.387,0.817-0.82,1.146-1.181l0.167-0.186
			l0.019-0.016c0.303-0.287,0.635-0.547,0.923-0.854c0.3-0.294,0.59-0.599,0.871-0.914c0.295-0.304,0.544-0.646,0.816-0.973
			c0.246-0.346,0.514-0.681,0.738-1.046c0.479-0.713,0.894-1.477,1.264-2.263c0.37-0.789,0.707-1.604,0.994-2.444
			c0.588-1.68,0.94-3.456,1.199-5.263c0.229-1.812,0.334-3.661,0.243-5.529C307.381,862.595,307.681,864.475,307.8,866.382z"/>
	</g>
	<g>
		<path fill="#1E120D" d="M241.877,865.265c0.456,1.531,0.784,3.102,0.989,4.721c0.21,1.62,0.27,3.294-0.032,5.039
			c-0.078,0.436-0.18,0.876-0.313,1.319l-0.111,0.332l-0.057,0.166l-0.014,0.042l-0.01,0.021l-0.04,0.088l-0.026,0.067
			c-0.082,0.188-0.138,0.346-0.241,0.558c-0.132,0.243-0.269,0.49-0.414,0.724l-0.46,0.628c-0.342,0.391-0.78,0.79-1.035,1.002
			c-0.543,0.506-1.282,1.068-1.938,1.571c-0.661,0.484-1.331,0.951-2.009,1.393c-1.347,0.896-2.725,1.72-4.116,2.501
			c-1.389,0.793-2.802,1.527-4.221,2.243c-1.423,0.724-2.843,1.387-4.327,2.052l0.439-0.241c-0.283,0.191-0.413,0.268-0.607,0.378
			c-0.18,0.103-0.354,0.196-0.533,0.285c-0.356,0.176-0.715,0.34-1.08,0.478c-0.733,0.276-1.493,0.48-2.271,0.616
			c-1.553,0.268-3.2,0.246-4.754-0.145c-1.552-0.383-2.996-1.08-4.234-1.951c-1.251-0.863-2.302-1.906-3.22-2.994l0.411,0.378
			c-0.801-0.625-1.34-1.143-1.947-1.748c-0.58-0.595-1.125-1.209-1.646-1.844c-1.042-1.267-1.97-2.619-2.766-4.045
			c-0.811-1.418-1.484-2.91-2.016-4.447c-0.545-1.531-0.927-3.115-1.182-4.709c-0.125-0.795-0.194-1.599-0.246-2.398l-0.089-2.322
			c-0.046-1.573,0.035-3.134,0.223-4.689c0.085-0.774,0.204-1.548,0.354-2.314c0.139-0.768,0.347-1.526,0.573-2.272
			c0.227-0.748,0.492-1.48,0.819-2.186l0.531-1.032l0.624-0.969l-0.326,1.091l-0.238,1.101c-0.113,0.741-0.229,1.473-0.276,2.215
			c-0.057,0.737-0.068,1.479-0.064,2.217c-0.007,0.734,0.021,1.475,0.074,2.21c0.046,0.732,0.125,1.468,0.219,2.197
			c0.079,0.729,0.183,1.456,0.304,2.175l0.405,2.188c0.146,0.7,0.328,1.387,0.513,2.071c0.774,2.723,1.972,5.288,3.521,7.606
			c0.773,1.157,1.64,2.254,2.566,3.28c0.47,0.513,0.954,1.002,1.456,1.465c0.48,0.446,1.062,0.949,1.466,1.239l0.195,0.145
			l0.214,0.234c1.468,1.623,3.157,2.851,4.953,3.263c0.896,0.218,1.819,0.253,2.749,0.103c0.463-0.075,0.931-0.191,1.376-0.357
			c0.226-0.078,0.446-0.17,0.658-0.266l0.305-0.147c0.081-0.039,0.224-0.126,0.202-0.108l0.439-0.241
			c1.39-0.565,2.815-1.201,4.221-1.807c1.411-0.615,2.799-1.27,4.188-1.915c0.695-0.323,1.378-0.662,2.062-1.002
			c0.672-0.348,1.364-0.678,2.024-1.04c0.672-0.353,1.319-0.724,1.966-1.099c0.629-0.382,1.188-0.692,1.854-1.178
			c0.377-0.252,0.521-0.371,0.731-0.536l0.283-0.276c0.075-0.09,0.144-0.176,0.226-0.263c0.091-0.126,0.199-0.322,0.299-0.48
			c0.03-0.025,0.131-0.249,0.195-0.364c0.138-0.291,0.26-0.6,0.37-0.922c0.425-1.303,0.613-2.783,0.717-4.282
			c0.091-1.506,0.045-3.045-0.032-4.595c-0.1-1.548-0.246-3.109-0.455-4.672C240.901,862.247,241.433,863.744,241.877,865.265z"/>
	</g>
</g>
<g>
	<path fill="none" stroke="#1E120D" stroke-width="5" stroke-miterlimit="10" d="M250.073,521.404
		c-69.087,9.508-56.65-77.928-56.65-77.928c-11.36-52.832-1.32-78.188,68.679-58.643c70,19.546,44.378,86.38,44.378,86.38
		C312.555,543.592,250.075,521.402,250.073,521.404z"/>
	<g>
		<path fill="#1E120D" d="M294.23,469.514c-1.188,0.183-2.381,0.344-3.583,0.475c-0.6,0.083-1.206,0.12-1.813,0.156
			c-0.606,0.035-1.211,0.096-1.829,0.085l-0.927,0.007c-0.31-0.004-0.615,0.016-0.933-0.008l-1.927-0.176l0.274,0.031
			c-0.882,0.03-1.688,0.021-2.528-0.001c-0.832-0.024-1.663-0.067-2.493-0.13c-1.66-0.121-3.319-0.309-4.964-0.613
			c-3.287-0.604-6.57-1.466-9.721-2.806c-0.78-0.348-1.567-0.689-2.332-1.093c-0.774-0.376-1.519-0.826-2.266-1.266
			c-0.731-0.474-1.466-0.942-2.165-1.476c-0.716-0.504-1.384-1.086-2.051-1.663c-0.65-0.603-1.289-1.216-1.88-1.886
			c-0.615-0.642-1.153-1.363-1.698-2.071c-0.52-0.73-1.026-1.472-1.454-2.263c-0.475-0.762-0.819-1.594-1.217-2.399l4.208,0.6
			c-0.241,0.288-0.41,0.468-0.614,0.688l-0.595,0.604c-0.402,0.396-0.814,0.773-1.25,1.133c-0.869,0.718-1.8,1.379-2.814,1.962
			c-0.523,0.274-1.038,0.558-1.603,0.782c-0.543,0.251-1.146,0.424-1.734,0.606l-0.929,0.198c-0.304,0.076-0.637,0.083-0.956,0.12
			c-0.324,0.028-0.643,0.063-0.975,0.041l-0.985-0.042l0.616-0.02c-0.66,0.086-1.144,0.114-1.696,0.14
			c-0.535,0.024-1.068,0.03-1.595,0.014c-1.059-0.013-2.108-0.121-3.154-0.259c-1.042-0.158-2.082-0.354-3.104-0.636
			c-0.517-0.114-1.02-0.295-1.521-0.468c-0.504-0.169-1.006-0.338-1.49-0.567c-0.484-0.221-0.981-0.412-1.456-0.66l-1.4-0.773
			c-0.474-0.25-0.889-0.601-1.329-0.896c-0.439-0.305-0.875-0.61-1.266-0.979l-1.192-1.062c-0.373-0.377-0.72-0.782-1.076-1.172
			c-0.748-0.755-1.295-1.663-1.915-2.505c-0.299-0.43-0.454-0.655-0.734-1.022c-0.269-0.335-0.549-0.666-0.853-0.983
			c-0.602-0.646-1.266-1.24-1.97-1.792c-0.708-0.55-1.466-1.043-2.247-1.499l-1.2-0.65l-1.256-0.554
			c-0.415-0.206-0.864-0.313-1.3-0.471c-0.438-0.153-0.879-0.305-1.335-0.395l-1.362-0.336l-1.396-0.218
			c-0.935-0.193-1.886-0.152-2.845-0.256c-0.958-0.04-1.917,0.021-2.896,0.008c0.938-0.226,1.888-0.475,2.854-0.64
			c0.969-0.114,1.951-0.301,2.942-0.286l1.494-0.035l1.496,0.11c0.506,0.025,0.999,0.114,1.496,0.207
			c0.493,0.103,1.005,0.149,1.489,0.303l1.478,0.403l1.441,0.531c0.944,0.408,1.869,0.869,2.758,1.406
			c0.889,0.54,1.741,1.14,2.546,1.823c0.407,0.336,0.798,0.697,1.181,1.075c0.363,0.354,0.791,0.9,1.076,1.237
			c0.588,0.659,1.094,1.388,1.771,1.95c0.322,0.294,0.629,0.604,0.958,0.887l1.046,0.775c0.334,0.274,0.713,0.487,1.088,0.704
			c0.379,0.209,0.73,0.461,1.126,0.636l1.168,0.558c0.394,0.181,0.813,0.308,1.212,0.463c0.399,0.164,0.82,0.277,1.24,0.39
			c0.419,0.115,0.833,0.242,1.267,0.315c0.849,0.196,1.716,0.319,2.585,0.415c0.872,0.081,1.749,0.12,2.622,0.112
			c0.438,0.001,0.868-0.015,1.3-0.044c0.412-0.025,0.891-0.077,1.186-0.122l0.617-0.02c0.342-0.02,0.674,0.032,1.028-0.038
			c0.173-0.029,0.345-0.02,0.523-0.078l0.534-0.123c0.358-0.125,0.722-0.218,1.082-0.396c0.364-0.142,0.722-0.351,1.082-0.539
			c0.714-0.419,1.412-0.919,2.076-1.479c0.333-0.277,0.662-0.567,0.974-0.87l0.459-0.458l0.39-0.424l2.525-2.758l1.683,3.354
			c0.319,0.645,0.579,1.321,0.961,1.934c0.336,0.638,0.741,1.231,1.138,1.836c0.428,0.58,0.841,1.177,1.333,1.713
			c0.465,0.559,0.98,1.075,1.503,1.589c0.543,0.492,1.068,1.01,1.66,1.458c0.566,0.476,1.182,0.9,1.79,1.335
			c0.631,0.403,1.254,0.823,1.913,1.196c0.645,0.394,1.324,0.734,2.001,1.088c2.737,1.347,5.653,2.457,8.681,3.257l2.283,0.565
			c0.765,0.18,1.536,0.348,2.308,0.494c0.774,0.149,1.551,0.282,2.331,0.396c0.771,0.111,1.578,0.21,2.313,0.271l0.212,0.02
			l0.063,0.016l1.605,0.39c0.271,0.064,0.565,0.087,0.849,0.132l0.859,0.122c0.568,0.096,1.16,0.123,1.745,0.177
			c0.586,0.044,1.173,0.11,1.766,0.138c1.182,0.083,2.371,0.133,3.564,0.167c1.192,0.051,2.387,0.068,3.589,0.093
			C296.593,469.1,295.408,469.302,294.23,469.514z"/>
	</g>
	<g>
		<path fill="#1E120D" d="M284.624,469.82c0,0-0.064,0.252-0.188,0.727c-0.13,0.458-0.321,1.126-0.563,1.979
			c-0.503,1.69-1.263,4.078-2.283,6.899c-2.048,5.634-5.197,13.009-9.326,19.847c-1.02,1.715-2.12,3.381-3.232,4.996
			c-0.58,0.792-1.155,1.579-1.722,2.354c-0.602,0.752-1.169,1.514-1.773,2.227c-1.196,1.432-2.409,2.771-3.618,3.979
			c-1.201,1.215-2.41,2.288-3.549,3.246c-0.584,0.461-1.143,0.902-1.675,1.322c-0.546,0.401-1.081,0.757-1.573,1.104
			c-0.977,0.706-1.917,1.191-2.642,1.655c-1.524,0.813-2.403,1.251-2.403,1.251s0.848-0.509,2.29-1.434
			c0.686-0.521,1.57-1.071,2.48-1.846c0.459-0.382,0.956-0.772,1.46-1.211c0.49-0.451,1.004-0.931,1.541-1.428
			c1.04-1.029,2.137-2.172,3.217-3.45c1.086-1.271,2.161-2.671,3.215-4.154c0.532-0.738,1.027-1.526,1.551-2.301
			c0.491-0.798,0.988-1.604,1.489-2.419c0.957-1.655,1.896-3.354,2.751-5.097c3.476-6.95,5.958-14.337,7.499-19.929
			c0.771-2.8,1.316-5.152,1.666-6.796c0.164-0.818,0.293-1.462,0.38-1.9c0.076-0.426,0.117-0.655,0.117-0.655L284.624,469.82z"/>
	</g>
	<g>
		<path fill="#1E120D" d="M302.83,450.07c0.017-0.288-0.003-0.577-0.003-0.862c0.002-0.285-0.047-0.57-0.063-0.854
			c-0.012-0.284-0.076-0.564-0.12-0.841c-0.039-0.28-0.101-0.553-0.186-0.822c-0.085-0.267-0.13-0.545-0.249-0.798l-0.311-0.771
			l-0.397-0.723c-0.118-0.247-0.291-0.462-0.453-0.682c-0.17-0.214-0.304-0.452-0.498-0.646l-0.559-0.594
			c-0.17-0.209-0.396-0.369-0.604-0.544l-0.627-0.518l-0.202-0.229l-0.277-0.255c-0.103-0.106-0.225-0.207-0.372-0.304
			c-0.285-0.189-0.518-0.412-0.844-0.571c-0.609-0.35-1.212-0.696-1.893-0.957l-0.982-0.426c-0.331-0.136-0.688-0.231-1.029-0.354
			c-0.694-0.219-1.357-0.493-2.071-0.67c-1.437-0.33-2.818-0.772-4.293-0.977l-2.18-0.379l-1.173-0.212l-1.111-0.221l-1.114-0.232
			l-1.204-0.369l-1.204-0.382l-1.126-0.474c-0.374-0.162-0.756-0.308-1.123-0.483l-1.079-0.573
			c-0.735-0.362-1.411-0.813-2.093-1.257c-1.366-0.893-2.618-1.928-3.813-3.018c-1.147-1.129-2.253-2.302-3.239-3.546
			c-1.013-1.229-1.923-2.518-2.798-3.792l-1.271-1.884c-0.202-0.287-0.412-0.61-0.606-0.869l-0.289-0.386l-0.07-0.099
			c-0.116-0.14,0.139,0.164,0.103,0.123l-0.023-0.024l-0.05-0.052l-0.193-0.205c-0.05,0.012,0.081,0.095-0.02,0.035
			c-0.075-0.038-0.135-0.086-0.25-0.13c-0.189-0.093-0.443-0.186-0.724-0.271c-0.554-0.176-1.203-0.322-1.879-0.442
			c-1.363-0.233-2.828-0.393-4.318-0.546c-2.987-0.313-6.086-0.574-9.291-1.338c-1.604-0.39-3.251-0.925-4.875-1.877l-0.603-0.388
			l-0.15-0.1l-0.158-0.114l-0.228-0.168c-0.311-0.231-0.597-0.429-0.924-0.689l-0.979-0.782l-0.907-0.771
			c-2.386-2.084-4.385-4.154-6.631-5.394c-2.265-1.252-4.757-1.881-7.7-2.081c-2.738-0.215-5.69-0.105-8.51,0.309
			c-2.842,0.363-5.654,1.05-8.237,2.112c-1.281,0.543-2.486,1.207-3.522,1.999l-0.383,0.302l-0.097,0.072l-0.049,0.037l-0.023,0.021
			c0.026-0.027-0.09,0.087,0.049-0.057l-0.199,0.201c-0.252,0.265-0.561,0.546-0.768,0.795l-0.563,0.717
			c-0.19,0.253-0.367,0.566-0.556,0.847c-1.474,2.339-2.326,5.16-2.917,7.994c-0.574,2.86-0.682,5.826-0.469,8.783
			c0.243,2.956,0.842,5.915,1.856,8.769c-1.443-2.662-2.514-5.566-3.119-8.59c-0.64-3.019-0.794-6.152-0.521-9.272
			c0.151-1.558,0.37-3.126,0.806-4.657c0.392-1.539,0.945-3.056,1.692-4.522c0.203-0.368,0.373-0.729,0.604-1.1l0.76-1.121
			c0.255-0.348,0.487-0.594,0.733-0.896l0.184-0.217l0.131-0.13l0.06-0.057l0.118-0.108l0.478-0.438
			c1.297-1.123,2.716-1.999,4.173-2.722c2.925-1.412,5.989-2.343,9.104-2.928c3.139-0.566,6.252-0.813,9.541-0.671
			c3.067,0.106,6.657,0.694,9.683,2.403c1.523,0.829,2.877,1.86,4.091,2.887l3.415,2.984l0.824,0.688l0.797,0.622
			c0.264,0.207,0.601,0.437,0.897,0.653l0.229,0.166c0.018,0.014,0.119,0.087,0.069,0.051l0.089,0.056l0.354,0.221
			c0.997,0.56,2.241,0.996,3.56,1.34c2.667,0.675,5.604,0.979,8.613,1.324c1.511,0.174,3.049,0.352,4.658,0.65
			c0.808,0.152,1.635,0.34,2.516,0.632c0.438,0.143,0.892,0.327,1.371,0.579c0.231,0.108,0.486,0.273,0.729,0.434
			c0.226,0.135,0.63,0.485,0.875,0.729l0.188,0.213l0.217,0.258l0.094,0.133l0.37,0.534c0.244,0.355,0.436,0.674,0.654,1.012
			l1.196,1.914c0.791,1.242,1.583,2.453,2.452,3.586c1.716,2.288,3.658,4.346,5.885,6.021c0.56,0.413,1.117,0.838,1.722,1.177
			l0.892,0.545c0.304,0.168,0.619,0.311,0.932,0.466l0.937,0.462l0.938,0.357l0.938,0.364c0.35,0.104,0.727,0.194,1.088,0.295
			l2.131,0.575l2.247,0.582c1.502,0.335,2.967,0.928,4.44,1.398c0.735,0.249,1.45,0.605,2.172,0.903
			c0.359,0.16,0.722,0.3,1.072,0.488l1.042,0.584c0.701,0.358,1.367,0.832,2.023,1.309c0.336,0.212,0.637,0.537,0.949,0.804
			c0.157,0.13,0.312,0.287,0.457,0.465c0.147,0.173,0.29,0.316,0.469,0.598l-0.202-0.229l0.67,0.679
			c0.219,0.227,0.453,0.438,0.635,0.703l0.574,0.761c0.19,0.25,0.322,0.546,0.482,0.816c0.153,0.278,0.316,0.547,0.42,0.849
			l0.347,0.876l0.241,0.904c0.094,0.299,0.107,0.611,0.162,0.915c0.056,0.306,0.084,0.61,0.089,0.918
			c0.011,0.309,0.04,0.612,0.015,0.917c-0.021,0.305-0.018,0.608-0.065,0.908c-0.046,0.3-0.071,0.602-0.133,0.896
			c-0.225,1.18-0.587,2.324-1.111,3.383C302.615,452.392,302.793,451.225,302.83,450.07z"/>
	</g>
	<g>
		<path fill="#1E120D" d="M262.636,494.76c-2.289,1.957-5.653,4.67-10.055,7.456c-2.197,1.397-4.648,2.831-7.394,4.103
			c-2.736,1.286-5.739,2.504-9.094,3.233c-1.681,0.354-3.432,0.639-5.285,0.63c-0.456,0.029-0.929-0.026-1.398-0.04
			c-0.468-0.012-0.94-0.065-1.42-0.143c-0.478-0.069-0.954-0.129-1.432-0.267l-0.717-0.185l-0.359-0.096l-0.045-0.013l-0.192-0.068
			l-0.071-0.026l-0.146-0.06c-0.783-0.305-1.568-0.609-2.355-0.919c-0.839-0.404-1.718-0.901-2.567-1.376l-0.64-0.361l-0.563-0.402
			l-1.128-0.813l-1.124-0.815l-1.028-0.916c-0.665-0.63-1.396-1.203-1.993-1.889l-1.829-2.021c-0.605-0.675-1.104-1.422-1.648-2.134
			c-0.538-0.718-1.077-1.43-1.517-2.197c-0.464-0.752-0.929-1.501-1.389-2.246c-0.434-0.757-0.794-1.548-1.189-2.313
			c-0.821-1.52-1.43-3.104-2.045-4.652c-0.329-0.766-0.585-1.549-0.822-2.33c-0.24-0.78-0.479-1.549-0.716-2.312
			c-0.442-1.531-0.719-3.067-1.072-4.536c-0.304-1.481-0.479-2.942-0.689-4.342c-0.112-0.698-0.166-1.393-0.2-2.076
			c-0.044-0.683-0.087-1.351-0.129-2.003c-0.037-0.653-0.093-1.29-0.11-1.915c0.007-0.626,0.015-1.237,0.021-1.833
			c0.035-1.19,0.027-2.315,0.098-3.37c0.197-2.111,0.347-3.939,0.591-5.43c0.535-2.979,0.897-4.648,0.897-4.648
			s0.07,1.73,0.096,4.708c0.028,1.49,0.237,3.293,0.329,5.344c0.087,1.025,0.26,2.11,0.4,3.252c0.065,0.569,0.137,1.154,0.207,1.752
			c0.087,0.596,0.216,1.2,0.323,1.818c0.404,2.479,1.064,5.114,1.796,7.865c0.453,1.351,0.832,2.765,1.367,4.154
			c0.28,0.692,0.553,1.392,0.823,2.101c0.262,0.71,0.542,1.42,0.891,2.105c0.667,1.389,1.275,2.826,2.088,4.175
			c0.394,0.682,0.748,1.391,1.172,2.059c0.436,0.661,0.869,1.325,1.308,1.991c0.414,0.685,0.913,1.305,1.408,1.929
			c0.506,0.614,0.951,1.285,1.488,1.871l1.617,1.755c0.525,0.601,1.164,1.067,1.735,1.614l0.873,0.799l0.941,0.691l0.941,0.69
			l0.47,0.348l0.471,0.268l1.887,1.09c0.778,0.328,1.558,0.654,2.333,0.98l0.146,0.061l0.072,0.03
			c0.148,0.056-0.161-0.059-0.118-0.043l0.031,0.009l0.249,0.068l0.497,0.142c0.322,0.116,0.677,0.155,1.021,0.222
			c0.343,0.075,0.693,0.13,1.055,0.151c0.357,0.021,0.705,0.093,1.074,0.08c1.446,0.074,2.938-0.104,4.403-0.311
			c2.938-0.48,5.81-1.32,8.478-2.315c2.665-1.007,5.173-2.087,7.452-3.176c4.555-2.198,8.277-4.276,10.867-5.765
			c2.589-1.497,4.056-2.396,4.056-2.396S264.93,492.794,262.636,494.76z"/>
	</g>
	<g>
		<path fill="#1E120D" d="M301.601,482.333c0.165,0.909,0.303,1.831,0.366,2.758c0.156,1.853,0.183,3.729,0.022,5.602
			c-0.145,1.874-0.453,3.746-0.916,5.59c-0.213,0.931-0.506,1.838-0.811,2.744c-0.162,0.451-0.314,0.906-0.488,1.354l-0.563,1.324
			c-0.406,0.871-0.805,1.753-1.302,2.582c-0.459,0.853-0.993,1.661-1.521,2.475c-0.58,0.775-1.133,1.576-1.772,2.307
			c-0.603,0.763-1.297,1.445-1.969,2.145c-0.699,0.669-1.402,1.341-2.163,1.938c-0.756,0.605-1.508,1.211-2.323,1.729
			c-0.787,0.558-1.624,1.029-2.452,1.513c-0.835,0.471-1.709,0.859-2.558,1.289l-0.196,0.099l-0.097,0.026
			c-0.447,0.123-0.797,0.189-1.189,0.271c-0.382,0.066-0.76,0.145-1.141,0.194c-0.759,0.122-1.521,0.188-2.29,0.228
			c-0.764,0.056-1.537,0.04-2.305,0.01l-1.153-0.085l-1.148-0.179c-0.382-0.048-0.765-0.16-1.14-0.252
			c-0.376-0.09-0.748-0.201-1.113-0.347c-0.363-0.147-0.732-0.244-1.081-0.429l-1.036-0.527c-0.327-0.211-0.638-0.452-0.947-0.674
			c-0.321-0.205-0.583-0.497-0.854-0.761c-0.265-0.27-0.532-0.527-0.729-0.855c-0.211-0.309-0.415-0.616-0.604-0.922l0.903,0.601
			c0.275,0.22,0.619,0.338,0.926,0.493c0.313,0.147,0.603,0.316,0.942,0.397c0.329,0.097,0.643,0.207,0.966,0.288l0.982,0.188
			c0.317,0.075,0.666,0.067,0.989,0.104c0.326,0.037,0.658,0.042,0.993,0.025c0.335-0.015,0.655,0.021,0.991-0.021
			c0.663-0.037,1.321-0.112,1.979-0.208c0.326-0.041,0.655-0.119,0.981-0.177c0.328-0.056,0.654-0.135,0.979-0.205
			c0.649-0.143,1.292-0.333,1.928-0.521c0.32-0.088,0.63-0.201,0.943-0.302c0.298-0.106,0.636-0.228,0.864-0.33l-0.292,0.125
			c0.714-0.47,1.452-0.897,2.141-1.395c0.686-0.493,1.394-0.954,2.038-1.498c0.667-0.513,1.308-1.05,1.932-1.607
			c0.324-0.264,0.614-0.567,0.913-0.857c0.297-0.292,0.615-0.563,0.896-0.868c0.571-0.607,1.144-1.212,1.671-1.855
			c0.563-0.617,1.042-1.299,1.557-1.956c0.467-0.688,0.975-1.352,1.403-2.074c0.455-0.702,0.864-1.437,1.282-2.168
			c0.395-0.745,0.781-1.496,1.143-2.265c0.355-0.771,0.702-1.55,1.015-2.346c0.328-0.792,0.607-1.606,0.896-2.419
			c0.276-0.818,0.529-1.648,0.777-2.485c0.233-0.84,0.467-1.688,0.667-2.544c0.203-0.859,0.415-1.723,0.574-2.598
			c0.158-0.875,0.332-1.757,0.465-2.648c0.126-0.892,0.27-1.791,0.36-2.707C301.225,480.52,301.442,481.427,301.601,482.333z"/>
	</g>
	<g>
		<path fill="#1E120D" d="M235.395,458.928c0,0-0.199-0.149-0.572-0.425c-0.432-0.317-0.893-0.727-1.526-1.287
			c-0.6-0.566-1.322-1.251-2.071-2.091c-0.395-0.407-0.785-0.857-1.174-1.349c-0.392-0.488-0.83-0.98-1.234-1.534
			c-0.798-1.108-1.684-2.292-2.47-3.632c-0.859-1.296-1.584-2.759-2.375-4.241c-0.404-0.734-0.704-1.537-1.067-2.317
			c-0.334-0.794-0.733-1.57-1.02-2.399c-0.296-0.823-0.597-1.65-0.896-2.483l-0.447-1.249l-0.359-1.278
			c-0.462-1.709-1.016-3.387-1.313-5.1c-0.32-1.703-0.764-3.35-0.928-4.99c-0.211-1.629-0.449-3.199-0.609-4.691
			c-0.097-1.497-0.189-2.913-0.275-4.22c-0.042-0.651-0.081-1.276-0.119-1.87c0-0.597,0-1.161,0-1.692
			c0-1.059-0.001-1.982-0.001-2.745c0-1.519,0-2.387,0-2.387s0.078,0.865,0.215,2.379c0.068,0.756,0.151,1.673,0.246,2.727
			c0.047,0.525,0.097,1.084,0.151,1.673c0.091,0.585,0.184,1.198,0.283,1.842c0.201,1.279,0.418,2.666,0.647,4.132
			c0.291,1.454,0.665,2.974,1.013,4.545c0.305,1.584,0.884,3.154,1.342,4.774c0.436,1.631,1.118,3.205,1.706,4.802l0.455,1.192
			l0.537,1.152c0.356,0.767,0.709,1.529,1.063,2.286c0.34,0.764,0.788,1.46,1.169,2.181c0.408,0.704,0.753,1.432,1.194,2.085
			c0.868,1.314,1.657,2.613,2.558,3.73c0.832,1.167,1.736,2.166,2.546,3.104c0.41,0.464,0.841,0.867,1.229,1.271
			c0.387,0.408,0.77,0.775,1.145,1.097c0.724,0.68,1.391,1.202,1.938,1.635c0.543,0.398,1.013,0.74,1.251,0.878
			c0.236,0.155,0.457,0.279,0.457,0.279L235.395,458.928z"/>
	</g>
	<g>
		<path fill="#1E120D" d="M272.941,469.664c0,0-0.12-0.116-0.347-0.34c-0.281-0.265-0.56-0.597-0.939-1.033
			c-0.339-0.444-0.782-0.97-1.193-1.615c-0.445-0.626-0.858-1.378-1.317-2.188c-0.218-0.41-0.411-0.853-0.627-1.301
			c-0.226-0.444-0.423-0.916-0.598-1.413c-0.18-0.493-0.382-0.993-0.553-1.513c-0.146-0.526-0.296-1.064-0.448-1.611
			c-0.169-0.541-0.269-1.108-0.367-1.677c-0.103-0.57-0.202-1.146-0.307-1.725c-0.076-1.173-0.26-2.347-0.239-3.526
			c0.038-1.182-0.045-2.354,0.125-3.495c0.06-0.569,0.117-1.134,0.178-1.693c0.029-0.277,0.06-0.555,0.089-0.829
			c0.054-0.271,0.104-0.539,0.159-0.806c0.217-1.063,0.396-2.092,0.621-3.052c0.273-0.946,0.533-1.841,0.774-2.667
			c0.121-0.41,0.238-0.805,0.35-1.178c0.139-0.363,0.271-0.711,0.396-1.034c0.248-0.649,0.465-1.212,0.645-1.679
			c0.355-0.926,0.559-1.453,0.559-1.453s-0.128,0.553-0.354,1.521c-0.112,0.482-0.248,1.067-0.404,1.738
			c-0.078,0.334-0.161,0.688-0.248,1.063c-0.06,0.382-0.119,0.783-0.183,1.201c-0.122,0.832-0.255,1.734-0.395,2.688
			c-0.085,0.958-0.122,1.972-0.189,3.011c-0.015,0.26-0.028,0.52-0.046,0.785c0.01,0.264,0.018,0.528,0.026,0.798
			c0.018,0.532,0.036,1.072,0.055,1.615c-0.015,1.085,0.225,2.169,0.333,3.25c0.129,1.082,0.452,2.127,0.658,3.16
			c0.164,0.504,0.326,1.001,0.486,1.493c0.154,0.491,0.31,0.976,0.525,1.424c0.197,0.455,0.393,0.904,0.58,1.343
			c0.21,0.426,0.445,0.829,0.654,1.225c0.202,0.401,0.425,0.775,0.667,1.12c0.233,0.349,0.442,0.695,0.669,1.008
			c0.474,0.61,0.889,1.177,1.317,1.62c0.398,0.474,0.794,0.817,1.096,1.123c0.316,0.268,0.574,0.501,0.697,0.579
			c0.173,0.128,0.265,0.196,0.265,0.196L272.941,469.664z"/>
	</g>
	<g>
		<path fill="#1E120D" d="M236.003,457.531c0,0-0.069,0.133-0.202,0.385c-0.125,0.232-0.311,0.591-0.545,1.069
			c-0.473,0.944-1.121,2.322-1.849,4.007c-0.729,1.686-1.521,3.68-2.292,5.85c-0.396,1.083-0.742,2.22-1.129,3.369
			c-0.329,1.16-0.706,2.338-1.007,3.529c-0.287,1.194-0.632,2.388-0.85,3.577c-0.242,1.19-0.505,2.361-0.654,3.507
			c-0.175,1.145-0.365,2.252-0.441,3.313c-0.086,1.056-0.242,2.061-0.242,2.992c-0.028,0.932-0.059,1.784-0.084,2.543
			c0.005,0.758,0.05,1.418,0.065,1.964c0.043,1.093,0.068,1.718,0.068,1.718s-0.103-0.617-0.282-1.696
			c-0.084-0.541-0.212-1.197-0.313-1.957c-0.068-0.763-0.148-1.625-0.235-2.563c-0.117-0.944-0.088-1.964-0.138-3.05
			c-0.057-1.089-0.008-2.229,0.025-3.416c0.009-1.189,0.123-2.408,0.218-3.653c0.07-1.25,0.269-2.499,0.408-3.763
			c0.155-1.264,0.388-2.51,0.577-3.748c0.247-1.225,0.457-2.442,0.724-3.604c0.511-2.331,1.072-4.492,1.607-6.333
			c0.532-1.842,1.028-3.368,1.403-4.435c0.184-0.531,0.342-0.959,0.454-1.262c0.107-0.283,0.165-0.435,0.165-0.435L236.003,457.531z
			"/>
	</g>
	<g>
		<path fill="#1E120D" d="M281.783,478.417c0,0,0.122,0.3,0.335,0.821c0.214,0.537,0.526,1.306,0.862,2.215
			c0.351,0.908,0.73,1.981,1.127,3.129c0.416,1.139,0.779,2.393,1.174,3.619c0.205,0.61,0.355,1.249,0.526,1.861
			c0.165,0.616,0.327,1.219,0.482,1.804c0.27,1.188,0.48,2.304,0.678,3.241c0.09,0.472,0.111,0.924,0.161,1.313
			c0.043,0.389,0.078,0.728,0.108,1.007c0.06,0.553,0.093,0.869,0.093,0.869s-0.109-0.303-0.303-0.827
			c-0.096-0.261-0.213-0.577-0.346-0.939c-0.144-0.357-0.266-0.769-0.464-1.201c-0.416-0.856-0.878-1.855-1.407-2.903
			c-0.288-0.519-0.585-1.052-0.887-1.595c-0.31-0.536-0.593-1.091-0.935-1.625c-0.667-1.069-1.293-2.15-1.958-3.13
			c-0.642-0.984-1.249-1.897-1.792-2.668c-0.531-0.777-0.987-1.396-1.3-1.835c-0.326-0.443-0.512-0.699-0.512-0.699L281.783,478.417
			z"/>
	</g>
	<g>
		<path fill="#1E120D" d="M248.516,451.259c0,0,1.415-13.877,2.829-27.754c0.353-3.47,0.708-6.939,1.039-10.191
			c0.166-1.626,0.325-3.198,0.478-4.689c0.072-0.705,0.145-1.391,0.212-2.055c0.04-0.635,0.019-1.288-0.031-1.91
			c-0.219-2.504-0.894-4.587-1.439-5.996c-0.286-0.703-0.522-1.256-0.705-1.621c-0.175-0.371-0.271-0.567-0.271-0.567
			s0.132,0.176,0.373,0.506c0.255,0.327,0.594,0.826,1.019,1.472c0.822,1.304,1.927,3.255,2.698,5.897
			c0.185,0.665,0.352,1.362,0.456,2.136c0.018,0.197,0.06,0.4,0.038,0.651l-0.021,0.542c-0.014,0.362-0.028,0.731-0.042,1.105
			c-0.057,1.498-0.118,3.077-0.181,4.71c-0.125,3.268-0.261,6.752-0.395,10.236c-0.535,13.94-1.068,27.878-1.068,27.878
			L248.516,451.259z"/>
	</g>
	<g>
		<path fill="#1E120D" d="M251.662,406.683c0,0,0.021-0.051,0.056-0.146c0.039-0.107,0.097-0.295,0.172-0.473
			c0.146-0.377,0.366-0.896,0.662-1.5c0.289-0.606,0.668-1.294,1.105-2.006c0.242-0.353,0.456-0.719,0.736-1.071
			c0.267-0.354,0.538-0.709,0.854-1.042c0.289-0.342,0.634-0.654,0.97-0.948c0.313-0.306,0.724-0.538,1.057-0.782
			c0.373-0.214,0.753-0.389,1.099-0.542c0.383-0.104,0.726-0.211,1.044-0.272c0.324-0.021,0.622-0.037,0.888-0.053
			c0.256-0.013,0.48,0.059,0.66,0.076c0.352,0.061,0.553,0.094,0.553,0.094s-0.198,0.045-0.546,0.123
			c-0.168,0.05-0.376,0.06-0.596,0.162c-0.21,0.1-0.444,0.213-0.702,0.336c-0.235,0.154-0.471,0.354-0.714,0.534
			c-0.217,0.234-0.438,0.472-0.643,0.732c-0.177,0.303-0.391,0.549-0.534,0.889c-0.156,0.32-0.31,0.636-0.421,0.988
			c-0.131,0.331-0.224,0.689-0.314,1.034c-0.103,0.338-0.151,0.704-0.225,1.031c-0.111,0.682-0.184,1.318-0.215,1.869
			c-0.037,0.55-0.039,1.007-0.034,1.313c-0.002,0.164,0.016,0.248,0.019,0.324c0.004,0.089,0.005,0.136,0.005,0.136L251.662,406.683
			z"/>
	</g>
</g>
</svg>
