<?xml version="1.0" encoding="utf-8"?>
<!-- Generator: Adobe Illustrator 16.0.0, SVG Export Plug-In . SVG Version: 6.00 Build 0)  -->
<!DOCTYPE svg PUBLIC "-//W3C//DTD SVG 1.1//EN" "http://www.w3.org/Graphics/SVG/1.1/DTD/svg11.dtd">
<svg version="1.1" id="Layer_3" xmlns="http://www.w3.org/2000/svg" xmlns:xlink="http://www.w3.org/1999/xlink" x="0px" y="0px"
	 width="500px" height="900px" viewBox="0 0 500 900" enable-background="new 0 0 500 900" xml:space="preserve">
<g>
	<path fill="none" stroke="#1E120D" stroke-width="5" stroke-miterlimit="10" d="M473.799,512.01
		c-7.848,9.273-18.548,2.854-18.548,2.854c-8.798-3.09-22.829-7.611-22.829-7.611c-2.377,5.23-14.268,5.707-14.268,5.707
		c-12.605,2.377-16.171,4.994-16.171,4.994c-8.087,3.328-14.031,2.379-14.031,2.379c-9.511-1.428-18.785-25.445-22.828-35.432
		c-4.041-9.99,0-25.682,0-25.682c1.426-9.038,4.28-24.492,4.28-24.492c-4.518-26.156-1.962-61.354,7.847-107.01
		c9.809-45.654,28.714-39.947,28.714-39.947c5.707-0.18,10.344,4.278,10.344,4.278c3.567,3.209,13.197,6.896,13.197,6.896
		c8.026-0.773,11.949,0,11.949,0c19.974,2.854,20.448,17.598,41.376,82.752c20.925,65.155,9.51,105.104,9.51,105.104
		C486.892,502.969,473.797,512.01,473.799,512.01z"/>
	<g>
		<path fill="#1E120D" d="M459.935,508.543c-0.508-0.244-1.018-0.38-1.49-0.452c-0.482-0.043-0.932-0.01-1.365,0.095
			c-0.003,0.003-0.107,0.013-0.026,0.011l-0.117,0.029l-0.234,0.058l-0.465,0.108l-0.813,0.248l-1.859,0.523
			c-0.651,0.159-1.309,0.309-1.989,0.435c-0.677,0.121-1.374,0.208-2.075,0.271c-0.704,0.064-1.412,0.08-2.127,0.062
			c-0.714,0.021-1.426-0.096-2.138-0.158c-0.705-0.112-1.417-0.219-2.107-0.398c-0.68-0.207-1.39-0.342-2.042-0.615
			c-0.656-0.267-1.331-0.49-1.952-0.813c-0.619-0.325-1.264-0.606-1.844-0.984c-0.583-0.373-1.183-0.723-1.73-1.134l-1.617-1.255
			l2.967-1.13c-0.038,0.128-0.086,0.256-0.143,0.378c-0.068,0.15-0.068,0.123-0.107,0.191l-0.188,0.271
			c-0.141,0.205-0.232,0.268-0.348,0.389c-0.223,0.228-0.446,0.424-0.65,0.555l-0.627,0.438l-0.621,0.326
			c-0.411,0.228-0.817,0.419-1.234,0.563c-0.416,0.15-0.819,0.33-1.236,0.454c-0.418,0.112-0.83,0.235-1.248,0.34
			c-0.417,0.101-0.824,0.225-1.253,0.277c-0.845,0.146-1.687,0.274-2.541,0.343c0.656-0.569,1.324-1.079,1.99-1.572l1.931-1.509
			c0.312-0.254,0.604-0.514,0.9-0.766l0.441-0.373l0.392-0.388l0.385-0.38l0.301-0.369c0.119-0.125,0.172-0.229,0.211-0.318
			c0.016-0.035,0.079-0.114,0.034-0.094c-0.009,0.002-0.018,0.006-0.023,0.013c-0.016,0.024,0.021-0.042-0.032,0.059
			c-0.036,0.075-0.065,0.155-0.084,0.236l2.967-1.133l1.625,0.799c0.529,0.282,1.092,0.474,1.625,0.725
			c0.527,0.268,1.089,0.427,1.628,0.64c0.532,0.237,1.091,0.367,1.634,0.549c0.541,0.19,1.1,0.287,1.646,0.44
			c0.552,0.118,1.104,0.215,1.659,0.323c0.56,0.055,1.114,0.16,1.681,0.188c0.562,0.064,1.133,0.07,1.708,0.087
			c0.577,0.018,1.157,0.008,1.75-0.018c0.591-0.011,1.199-0.051,1.811-0.092l1.921-0.122l1.088-0.039l0.487,0.011l0.576,0.029
			c0.845,0.064,1.676,0.293,2.404,0.672c0.72,0.386,1.326,0.898,1.815,1.457c0.481,0.571,0.847,1.193,1.122,1.832
			c0.281,0.633,0.474,1.296,0.553,1.965C461.957,509.837,460.952,509.04,459.935,508.543z"/>
	</g>
	<path fill="none" stroke="#1E120D" stroke-width="5" stroke-miterlimit="10" d="M369.406,434.722
		c2.853-4.042,19.974-5.469,19.974-5.469c13.791-1.428,27.109,2.141,38.762,2.854c11.653,0.713,17.121-4.994,34.718-5.23
		c17.597-0.238,31.356,7.188,31.356,7.188"/>
	<path fill="none" stroke="#1E120D" stroke-width="5" stroke-miterlimit="10" d="M451.81,302.673
		c21.289-8.397,23.889,21.718,23.889,21.718c1.898,11.177,0,34.617,0,34.617"/>
</g>
<g>
	<g>
		<path fill="#1E120D" d="M79.767,319.885c0,0,0.049-0.516,0.135-1.413c0.095-0.885,0.246-2.139,0.468-3.631
			c0.447-2.987,1.188-6.948,2.358-10.81c0.301-0.963,0.616-1.921,0.97-2.851c0.356-0.93,0.723-1.836,1.143-2.69
			c0.403-0.857,0.854-1.663,1.313-2.402c0.462-0.738,0.962-1.398,1.452-1.979c0.262-0.275,0.514-0.539,0.753-0.79
			c0.263-0.225,0.512-0.44,0.746-0.64c0.502-0.359,0.942-0.658,1.347-0.834c0.381-0.217,0.718-0.299,0.938-0.375
			c0.219-0.073,0.335-0.112,0.335-0.112s-0.109,0.058-0.314,0.164c-0.201,0.112-0.512,0.241-0.847,0.508
			c-0.357,0.228-0.733,0.583-1.146,0.991c-0.188,0.222-0.389,0.458-0.601,0.708c-0.187,0.269-0.379,0.552-0.582,0.847
			c-0.369,0.617-0.735,1.298-1.053,2.055c-0.316,0.76-0.615,1.571-0.862,2.436c-0.263,0.855-0.473,1.764-0.665,2.687
			c-0.192,0.926-0.342,1.874-0.481,2.824c-0.52,3.813-0.618,7.678-0.591,10.564c0.017,1.442,0.064,2.643,0.107,3.476
			c0.052,0.818,0.082,1.285,0.082,1.285L79.767,319.885z"/>
	</g>
	<path fill="none" stroke="#1E120D" stroke-width="5" stroke-miterlimit="10" d="M27.341,368.048
		c-7.311-29.427-3.923-47.083-3.923-47.083c4.995-23.542,13.91-20.33,13.91-20.33c21.402,1.427,26.398,45.3,28.536,51.007
		s5.707,12.84,10.699,0c4.995-12.843,5.707-31.746,5.707-31.746"/>
	<g>
		<path fill="#1E120D" d="M29.786,367.533c0,0,0.089,0.646,0.244,1.774c0.144,1.12,0.339,2.718,0.538,4.635
			c0.395,3.835,0.803,8.959,0.874,14.099c0.074,5.137-0.233,10.307-1.103,14.08c-0.213,0.942-0.453,1.796-0.722,2.535
			c-0.116,0.374-0.264,0.71-0.399,1.022c-0.13,0.312-0.255,0.596-0.4,0.839c-0.133,0.246-0.255,0.465-0.359,0.653
			c-0.126,0.18-0.23,0.329-0.317,0.452c-0.173,0.243-0.266,0.373-0.266,0.373s0.075-0.139,0.216-0.401
			c0.071-0.131,0.156-0.291,0.26-0.48c0.08-0.201,0.169-0.429,0.271-0.685c0.111-0.251,0.199-0.544,0.287-0.864
			c0.095-0.318,0.2-0.659,0.269-1.037c0.169-0.745,0.301-1.598,0.394-2.534c0.096-0.935,0.153-1.953,0.163-3.032
			c0.021-1.076-0.006-2.215-0.068-3.391c-0.118-2.351-0.374-4.853-0.716-7.345c-0.687-4.985-1.7-9.921-2.543-13.598
			c-0.424-1.837-0.803-3.358-1.075-4.42c-0.278-1.048-0.438-1.646-0.438-1.646L29.786,367.533z"/>
	</g>
	<path fill="none" stroke="#1E120D" stroke-width="5" stroke-miterlimit="10" d="M40.499,301.183
		c8.56-7.136,18.942,4.088,18.942,4.088c9.986,10.699,17.834-4.28,17.834-4.28c4.636-11.414,11.771-13.554,11.771-13.554
		c22.115-5.353,36.738,27.819,39.582,51.361c2.839,23.542,0.367,26.752,0.011,48.511c-0.355,21.759,7.135,46.37,7.135,46.37
		c6.775,8.085,5.111,21.399,5.111,21.399c-3.209,18.192-1.584,19.277-2.613,24.493c-4.186,21.185-24.969,39.237-38.524,39.476
		c-13.553,0.234-23.774-10.464-34-9.75s-17.599,9.75-29.962,9.75c-12.365,0-25.21-28.3-25.21-28.3
		C6.061,477.907,8.44,435.58,8.44,435.58c-1.188-18.31,4.517-51.125,4.517-51.125c2.854-24.255,10.165-41.133,10.165-41.133"/>
	<path fill="none" stroke="#1E120D" stroke-width="5" stroke-miterlimit="10" d="M7.812,442.419
		c14.269-16.765,35.045-15.873,66.628-15.16c31.585,0.713,61.334,6.42,61.334,6.42"/>
	<g>
		<path fill="#1E120D" d="M116.784,503.653c-1.43,1.618-2.949,3.172-4.627,4.59c-1.681,1.404-3.465,2.777-5.698,3.654
			c-0.563,0.209-1.148,0.397-1.783,0.51c-0.32,0.049-0.636,0.11-0.978,0.113c-0.187,0.005-0.298,0.021-0.544,0.013l-0.4-0.016
			c-1.223-0.071-2.359-0.291-3.456-0.55c-2.204-0.517-4.274-1.3-6.317-2.138c-2.036-0.854-4.025-1.812-5.968-2.885
			c-1.937-1.086-3.815-2.293-5.629-3.729c-0.904-0.724-1.777-1.523-2.613-2.478c-0.806-0.967-1.696-2.076-2.055-3.972l3.938,1.438
			c-0.407,0.367-0.727,0.637-1.089,0.927c-0.352,0.285-0.713,0.551-1.073,0.816c-0.722,0.528-1.466,1.018-2.219,1.495
			c-0.762,0.464-1.532,0.911-2.325,1.324c-0.388,0.219-0.802,0.396-1.201,0.597c-0.398,0.202-0.811,0.38-1.229,0.548
			c-0.418,0.167-0.823,0.359-1.252,0.502l-1.277,0.45c-0.428,0.146-0.869,0.257-1.304,0.385c-0.434,0.132-0.873,0.247-1.322,0.334
			l-1.338,0.285l-1.361,0.191c-0.905,0.146-1.836,0.133-2.752,0.2l0.619-0.09c-0.572,0.158-1.22,0.36-1.829,0.556
			c-0.617,0.2-1.234,0.411-1.843,0.63c-1.223,0.44-2.426,0.908-3.589,1.425c-0.588,0.252-1.148,0.534-1.711,0.81
			c-0.54,0.296-1.104,0.576-1.597,0.9c-0.252,0.157-0.516,0.31-0.737,0.479c-0.227,0.167-0.483,0.323-0.687,0.497l-0.599,0.513
			c-0.153,0.174-0.31,0.343-0.474,0.508L48,512.961l-0.086,0.057c-0.408,0.263-0.706,0.423-1.054,0.617
			c-0.339,0.172-0.675,0.354-1.021,0.508c-0.684,0.323-1.38,0.617-2.106,0.852c-0.717,0.25-1.464,0.45-2.228,0.604
			c-0.384,0.064-0.758,0.163-1.153,0.198l-1.185,0.114l-1.21-0.002c-0.4,0.009-0.815-0.076-1.221-0.116
			c-0.407-0.032-0.813-0.127-1.213-0.246c-0.398-0.125-0.812-0.185-1.189-0.373l-1.145-0.51c-0.366-0.196-0.705-0.437-1.055-0.658
			l-0.516-0.346l-0.456-0.404l-0.896-0.82l0.396,0.305c-0.718-0.468-1.268-0.879-1.844-1.354c-0.577-0.453-1.105-0.949-1.647-1.431
			c-0.51-0.509-1.044-0.996-1.522-1.531c-0.468-0.549-0.976-1.059-1.406-1.634c-0.435-0.569-0.909-1.105-1.304-1.706
			c-0.399-0.591-0.824-1.167-1.199-1.771l-1.087-1.838c-0.336-0.626-0.635-1.272-0.943-1.91c-0.328-0.628-0.556-1.303-0.815-1.959
			c-0.246-0.663-0.534-1.304-0.709-1.991l-0.596-2.021c-0.182-0.679-0.273-1.377-0.416-2.062c-0.126-0.686-0.277-1.365-0.319-2.063
			l-0.199-2.072c-0.088-0.685-0.025-1.386-0.04-2.074l0.022-2.063l0.353,2.027c0.131,0.672,0.185,1.352,0.387,2.007l0.495,1.974
			c0.137,0.662,0.383,1.295,0.602,1.933c0.228,0.632,0.424,1.275,0.673,1.896l0.793,1.842c0.24,0.622,0.589,1.195,0.893,1.785
			c0.317,0.583,0.603,1.181,0.98,1.728l1.063,1.671l1.162,1.598c0.397,0.523,0.839,1.012,1.253,1.518
			c0.408,0.51,0.896,0.958,1.333,1.438c0.438,0.484,0.945,0.9,1.41,1.353c0.48,0.439,0.98,0.853,1.469,1.273
			c0.514,0.392,1.014,0.803,1.538,1.157c0.504,0.367,1.086,0.729,1.531,0.979l0.017,0.01l0.381,0.296l0.646,0.499l0.314,0.255
			l0.35,0.188c0.232,0.12,0.454,0.266,0.688,0.374l0.733,0.26c0.234,0.114,0.511,0.112,0.76,0.177
			c0.252,0.063,0.511,0.103,0.781,0.104c0.27,0.006,0.525,0.063,0.8,0.038l0.819-0.038l0.833-0.127
			c0.274-0.034,0.558-0.129,0.836-0.188c0.556-0.142,1.116-0.315,1.664-0.543c0.551-0.208,1.098-0.457,1.627-0.729
			c0.268-0.129,0.521-0.282,0.782-0.424c0.24-0.146,0.527-0.321,0.685-0.433l-0.553,0.527l0.866-1.02
			c0.299-0.292,0.602-0.564,0.907-0.844c0.308-0.271,0.618-0.486,0.932-0.73c0.309-0.25,0.628-0.44,0.942-0.649
			c0.635-0.429,1.274-0.771,1.915-1.136c0.646-0.335,1.289-0.672,1.938-0.968c1.299-0.606,2.603-1.158,3.927-1.638
			c0.661-0.24,1.324-0.473,1.992-0.694c0.678-0.224,1.322-0.431,2.051-0.639l0.16-0.045l0.459-0.044
			c0.744-0.072,1.488-0.048,2.228-0.181l1.11-0.149l1.104-0.229c0.372-0.068,0.736-0.163,1.101-0.271
			c0.364-0.106,0.733-0.193,1.093-0.313l1.081-0.373c0.362-0.116,0.711-0.282,1.067-0.42c0.356-0.141,0.709-0.291,1.057-0.457
			c0.349-0.166,0.705-0.308,1.045-0.492c0.691-0.342,1.368-0.716,2.038-1.104c0.661-0.401,1.317-0.813,1.948-1.256
			c0.317-0.221,0.627-0.444,0.93-0.674c0.296-0.218,0.621-0.477,0.84-0.659l3.716-3.072l0.225,4.512
			c0.01,0.224,0.34,0.973,0.903,1.627c0.546,0.677,1.232,1.349,1.965,1.997c1.476,1.299,3.152,2.482,4.88,3.591
			c3.454,2.219,7.215,4.147,11.038,5.471c0.959,0.325,1.91,0.597,2.813,0.737l0.398,0.054l0.257,0.017
			c0.194,0.022,0.408-0.001,0.618-0.012c0.427-0.03,0.874-0.128,1.326-0.243c1.814-0.535,3.662-1.53,5.39-2.68
			c1.731-1.162,3.413-2.449,5.043-3.813c1.62-1.375,3.217-2.797,4.756-4.292C119.563,500.354,118.222,502.044,116.784,503.653z"/>
	</g>
</g>
<g>
	<g>
		<path fill="#1E120D" d="M255.727,142.659c0.295,1.35,0.555,2.714,0.767,4.041c0.228,1.337,0.404,2.675,0.586,4.012
			c0.173,1.339,0.304,2.681,0.452,4.018l0.318,4.021l0.201,4.024l0.067,4.023c0.023,1.341-0.041,2.683-0.06,4.021
			c-0.007,1.339-0.092,2.678-0.18,4.014c-0.097,1.337-0.128,2.673-0.298,4.004l-0.426,3.99c-0.175,1.325-0.404,2.646-0.604,3.964
			l-0.31,1.979l-0.415,1.96l-0.839,3.912l-1.06,3.855c-0.181,0.643-0.344,1.286-0.538,1.922l-0.649,1.89l-1.303,3.769l-0.017,0.047
			l-0.021,0.028c-0.152,0.193-0.313,0.32-0.521,0.428c-0.2,0.111-0.462,0.149-0.699,0.105c-0.233-0.05-0.44-0.168-0.589-0.313
			c-0.18-0.129-0.262-0.306-0.393-0.458c-0.203-0.328-0.372-0.666-0.496-1.015c-0.153-0.341-0.23-0.7-0.342-1.049
			c-0.104-0.353-0.169-0.711-0.257-1.065c-0.084-0.353-0.132-0.715-0.197-1.072c-0.14-0.713-0.205-1.437-0.311-2.152
			c0.154,0.709,0.27,1.425,0.456,2.124c0.09,0.349,0.163,0.704,0.271,1.048c0.107,0.342,0.2,0.691,0.321,1.029
			c0.133,0.332,0.233,0.678,0.4,0.989c0.142,0.326,0.323,0.626,0.517,0.901c0.115,0.113,0.205,0.271,0.338,0.342
			c0.116,0.103,0.243,0.151,0.362,0.171c0.119,0.008,0.235-0.007,0.349-0.083c0.105-0.062,0.229-0.176,0.294-0.274l-0.038,0.073
			l1.027-3.819l0.515-1.906c0.146-0.642,0.264-1.291,0.397-1.935l0.779-3.867l0.558-3.903l0.274-1.949l0.169-1.962
			c0.105-1.308,0.241-2.609,0.322-3.919l0.146-3.929c0.079-1.306,0.017-2.619,0.021-3.927c-0.004-1.31-0.011-2.615-0.095-3.922
			c-0.074-1.309-0.102-2.613-0.216-3.915l-0.336-3.904l-0.465-3.887l-0.579-3.867c-0.231-1.281-0.449-2.566-0.704-3.838
			c-0.263-1.274-0.52-2.544-0.825-3.802c-0.297-1.269-0.617-2.487-0.972-3.703L255.727,142.659z"/>
	</g>
	<path fill="none" stroke="#1E120D" stroke-width="5" stroke-miterlimit="10" d="M251.309,108.607
		c2.11-1.189,8.714-5.826,8.714-5.826c16.405-9.749,18.782,7.848,18.744,15.933c-0.04,8.086,0,35.275,0,35.275"/>
	<path fill="none" stroke="#1E120D" stroke-width="5" stroke-miterlimit="10" d="M253.301,143.294
		c-5.717-32.459,2.675-31.122,2.675-31.122c12.129-3.924,18.549,24.257,18.549,24.257c3.924,21.399,13.555,44.229,13.555,44.229
		c10.343,28.537,9.272,64.563,9.272,64.563c3.211,3.744,3.39,8.56,3.744,16.406c0.357,7.849-0.891,1.962,6.777,16.766
		s1.427,25.504-5.529,32.103c-6.956,6.601-17.122,8.382-28,12.127c-10.88,3.745-7.489,8.204-23.038,7.134
		c-15.55-1.068-13.345-0.355-29.573-1.068c-16.229-0.714-27.108-28.715-27.82-41.557c-0.714-12.841,3.745-12.306,3.922-18.726
		c0.181-6.421,1.961-8.917,3.746-12.841s8.56-12.662,4.938-22.293c-3.622-9.63,0.059-30.318,0.059-30.318
		c-1.427-20.153,24.492-80.672,24.492-80.672c3.984-13.019,15.813-13.851,15.813-13.851c4.696-0.773,8.322,3.091,8.322,3.091"/>
	<path fill="none" stroke="#1E120D" stroke-width="5" stroke-miterlimit="10" d="M205.544,247.885
		c2.592-0.902,7.396-1.003,7.396-1.003c11.413,0.238,13.076-2.14,23.063-3.092c9.986-0.951,14.266,2.616,29.034,1.429
		c14.765-1.189,15.434,2.139,22.568,2.614c7.134,0.477,9.746-2.614,9.746-2.614"/>
	<g>
		<path fill="#1E120D" d="M298.797,270.097c1.53,2.16,2.855,4.473,4.009,6.893c1.151,2.424,2.04,4.999,2.589,7.699
			c0.253,1.353,0.455,2.73,0.496,4.137c0.041,1.403-0.025,2.827-0.285,4.237c-0.046,0.354-0.123,0.705-0.209,1.054l-0.122,0.525
			l-0.063,0.263l-0.016,0.065l-0.01,0.031l-0.032,0.105l-0.038,0.117c-0.08,0.276-0.24,0.685-0.401,1.073
			c-0.148,0.332-0.289,0.663-0.442,0.974c-0.6,1.25-1.237,2.422-1.889,3.585c-1.306,2.324-2.696,4.544-4.1,6.788
			c-0.705,1.11-1.489,2.259-2.28,3.346c-0.798,1.099-1.647,2.178-2.565,3.227c-0.926,1.043-1.92,2.059-3.066,3.005
			c-1.155,0.932-2.452,1.844-4.2,2.409l-0.259,0.084l-0.303,0.016c-0.926,0.042-1.643,0.017-2.447-0.019
			c-0.784-0.033-1.562-0.104-2.334-0.189c-1.547-0.178-3.082-0.448-4.602-0.822c-0.757-0.188-1.511-0.401-2.256-0.646
			c-0.748-0.236-1.485-0.512-2.216-0.808c-0.733-0.289-1.45-0.625-2.163-0.967c-0.705-0.362-1.408-0.73-2.084-1.152
			c-2.717-1.654-5.176-3.805-7.126-6.346c-0.48-0.637-0.945-1.291-1.368-1.965c-0.417-0.678-0.83-1.36-1.177-2.073
			c-0.381-0.697-0.685-1.424-0.995-2.148c-0.309-0.727-0.538-1.477-0.807-2.213l4.225-1.257c0.163,0.769,0.209,1.287,0.259,1.914
			c0.043,0.603,0.055,1.196,0.04,1.79c-0.03,1.188-0.176,2.366-0.434,3.521c-0.506,2.309-1.448,4.519-2.749,6.46
			c-1.295,1.945-2.925,3.626-4.744,4.979c-0.933,0.687-1.801,1.249-2.651,1.854c-0.854,0.6-1.744,1.216-2.637,1.812
			c-0.897,0.595-1.813,1.17-2.745,1.725c-0.938,0.536-1.891,1.054-2.869,1.525c-0.969,0.482-1.963,0.92-2.967,1.321l-1.513,0.582
			l-1.539,0.506c-1.031,0.316-2.077,0.581-3.127,0.808c-1.054,0.216-2.106,0.424-3.17,0.539c-1.054,0.176-2.127,0.201-3.188,0.271
			c-1.062,0.062-2.128,0.01-3.184,0.007c1.05-0.167,2.1-0.261,3.134-0.462c1.033-0.205,2.063-0.396,3.074-0.675
			c1.02-0.234,2.014-0.558,3.002-0.88c0.985-0.334,1.953-0.717,2.906-1.119l1.42-0.625l1.387-0.694
			c0.917-0.472,1.817-0.978,2.691-1.524c1.754-1.086,3.435-2.274,5.07-3.547c0.819-0.643,1.619-1.291,2.446-1.97
			c0.827-0.684,1.683-1.343,2.397-1.976c1.445-1.318,2.729-2.772,3.667-4.418c0.947-1.635,1.577-3.423,1.859-5.265
			c0.148-0.92,0.197-1.852,0.188-2.775c-0.01-0.462-0.039-0.923-0.092-1.374c-0.047-0.424-0.141-0.954-0.211-1.218l4.225-1.257
			c0.263,0.618,0.485,1.252,0.777,1.853c0.295,0.596,0.559,1.208,0.9,1.772c0.308,0.587,0.672,1.138,1.033,1.687
			c0.368,0.543,0.765,1.064,1.176,1.574c1.662,2.019,3.666,3.736,5.946,5.056c0.566,0.334,1.15,0.642,1.74,0.938
			c0.599,0.28,1.201,0.561,1.821,0.801c0.618,0.246,1.245,0.476,1.888,0.671c0.636,0.207,1.286,0.384,1.938,0.543
			c1.307,0.326,2.639,0.572,3.979,0.734c0.67,0.079,1.343,0.146,2.011,0.181c0.645,0.036,1.384,0.052,1.912,0.034l-0.563,0.098
			c0.752-0.22,1.681-0.766,2.555-1.46c0.881-0.696,1.74-1.531,2.565-2.422c0.832-0.888,1.631-1.837,2.402-2.824
			c0.779-0.997,1.496-1.986,2.237-3.049c1.474-2.111,2.925-4.273,4.322-6.415c0.696-1.074,1.377-2.156,1.979-3.222
			c0.155-0.268,0.286-0.531,0.423-0.785c0.1-0.209,0.208-0.396,0.333-0.738l0.045-0.114l0.005-0.015
			c-0.01,0.031,0.029-0.084-0.02,0.063l0.008-0.024l0.016-0.055l0.063-0.21l0.128-0.421c0.09-0.279,0.173-0.562,0.229-0.853
			c0.305-1.146,0.404-2.339,0.494-3.541c0.078-1.206,0.009-2.433-0.104-3.662c-0.264-2.462-0.896-4.913-1.688-7.333
			c-0.815-2.415-1.862-4.77-3.023-7.083c-1.183-2.301-2.482-4.564-3.948-6.734C295.63,265.872,297.28,267.937,298.797,270.097z"/>
	</g>
	<g>
		<path fill="#1E120D" d="M253.888,134.835c0,0-0.052,0.062-0.152,0.171c-0.09,0.104-0.223,0.255-0.39,0.445
			c-0.155,0.192-0.352,0.391-0.572,0.683c-0.224,0.291-0.474,0.62-0.745,0.979c-0.286,0.353-0.539,0.776-0.835,1.209
			c-0.281,0.442-0.619,0.889-0.899,1.39c-0.285,0.502-0.579,1.022-0.879,1.549c-0.318,0.523-0.586,1.08-0.837,1.646
			c-0.26,0.566-0.523,1.131-0.781,1.69c-0.286,0.553-0.427,1.138-0.64,1.688c-0.196,0.559-0.384,1.096-0.565,1.609
			c-0.203,0.512-0.312,1.011-0.416,1.473c-0.434,1.868-0.723,3.114-0.723,3.114s-0.022-1.288-0.052-3.221
			c-0.014-0.489-0.024-1.021,0.05-1.573c0.052-0.561,0.105-1.149,0.164-1.757c0.078-0.609,0.078-1.263,0.224-1.89
			c0.122-0.638,0.246-1.287,0.37-1.934c0.115-0.656,0.251-1.306,0.443-1.93c0.177-0.634,0.351-1.257,0.52-1.859
			c0.167-0.608,0.4-1.167,0.586-1.716c0.201-0.543,0.365-1.069,0.578-1.533c0.202-0.47,0.388-0.902,0.552-1.284
			c0.164-0.383,0.359-0.737,0.496-1.019c0.279-0.532,0.438-0.837,0.438-0.837L253.888,134.835z"/>
	</g>
</g>
<g>
	<path fill="none" stroke="#1E120D" stroke-width="5" stroke-miterlimit="10" d="M245.496,669.693
		c5.347,0.356,12.48,4.28,12.48,4.28c9.99,8.561,19.62,12.841,28.895,47.082c9.271,34.243,3.115,34.377,9.987,66.702
		c2.464,11.587,9.63,32.458,9.63,32.458c3.21,9.988,2.854,14.268,2.854,14.268c6.419,22.829-2.496,35.313-2.496,35.313
		c-5.35,8.917-22.113,18.547-22.113,18.547c-7.137,5.708-13.558,5.352-13.558,5.352c-8.203,0.356-11.77-3.211-11.77-3.211
		c-14.27,1.783-24.255-8.917-24.255-8.917c-4.995,1.427-16.766,2.497-23.542,0s-15.695-22.471-15.695-22.471
		c-2.851-17.835,0.714-23.187,3.212-29.249c2.496-6.063,9.987-28.535,9.987-28.535c0-16.408-0.714-41.375,0-74.191
		c0.712-32.813,12.482-50.648,12.482-50.648"/>
	<path fill="none" stroke="#1E120D" stroke-width="5" stroke-miterlimit="10" d="M208.213,803.986
		c66.161-8.741,95.506,7.875,95.506,7.875"/>
	<g>
		<path fill="#1E120D" d="M270.856,783.964c-1.373-2.743-2.564-5.591-3.508-8.524c-0.526-1.451-0.862-2.957-1.301-4.438
			c-0.327-1.503-0.724-3-0.983-4.521c-0.256-1.521-0.57-3.04-0.725-4.577c-0.199-1.532-0.382-3.069-0.451-4.613
			c-0.237-3.107-0.287-6.118-0.438-9.166l-0.428-9.105c-0.148-3.03-0.321-6.057-0.548-9.076c-0.219-3.019-0.478-6.031-0.813-9.027
			c-0.167-1.499-0.315-2.999-0.521-4.488c-0.18-1.494-0.381-2.983-0.625-4.462c-0.213-1.489-0.475-2.961-0.761-4.428
			c-0.253-1.478-0.595-2.927-0.921-4.379c-0.295-1.461-0.741-2.875-1.107-4.313c-0.401-1.425-0.88-2.821-1.329-4.223
			c-1.006-2.759-2.077-5.48-3.453-8.034c-1.396-2.608-2.92-5.171-4.566-7.62c-1.646-2.448-3.412-4.81-5.356-6.926
			c-0.967-1.065-1.983-2.062-3.036-2.961c-1.053-0.905-2.152-1.716-3.289-2.308c-1.133-0.598-2.288-1.002-3.393-1.106
			c-1.105-0.112-2.156,0.07-3.179,0.53l-0.783,0.221c0.038-0.002,0.075-0.008,0.111-0.017l-0.021,0.009l-0.047,0.011
			c-0.059,0.025-0.118,0.048-0.181,0.067c-0.133,0.083-0.28,0.125-0.425,0.238c-0.297,0.188-0.586,0.467-0.875,0.756
			c-0.264,0.343-0.556,0.653-0.777,1.082c-0.114,0.205-0.253,0.382-0.354,0.607l-0.301,0.679c-0.764,1.849-1.22,3.996-1.409,6.216
			c-0.141,1.097-0.122,2.245-0.196,3.367c-0.006,1.139,0.044,2.289,0.062,3.436c0.152,2.302,0.315,4.613,0.669,6.927l0.231,1.734
			l0.059,0.435l0.017,0.107l0.007,0.056c-0.008-0.037,0.021,0.121-0.019-0.076l0.008,0.028l0.045,0.219l0.179,0.896
			c0.23,1.194,0.449,2.377,0.656,3.565c0.414,2.375,0.797,4.753,1.11,7.142c0.323,2.389,0.602,4.781,0.85,7.178l0.333,3.601
			l0.253,3.61c0.121,2.412,0.258,4.821,0.236,7.244c0.022,1.209-0.001,2.421-0.053,3.635c-0.041,1.212-0.062,2.422-0.182,3.636
			c-0.156,2.424-0.46,4.852-0.89,7.261c-0.273,1.205-0.47,2.405-0.816,3.604l-0.983,3.433c-1.294,4.586-2.5,9.196-3.688,13.813
			c-0.563,2.312-1.13,4.63-1.622,6.958l-0.717,3.503l-0.446,3.547l0.117-3.589l0.391-3.57c0.106-1.199,0.327-2.371,0.502-3.556
			c0.19-1.184,0.354-2.37,0.567-3.548c0.424-2.354,0.818-4.719,1.309-7.059c0.459-2.347,0.954-4.688,1.449-7.03l0.769-3.509
			c0.239-1.113,0.384-2.282,0.582-3.416c0.29-2.305,0.471-4.634,0.5-6.979c0.06-1.167,0.021-2.347,0-3.521
			c-0.008-1.171-0.044-2.346-0.125-3.521c-0.108-2.352-0.296-4.702-0.508-7.053l-0.374-3.521l-0.453-3.517
			c-0.327-2.342-0.686-4.679-1.085-7.01c-0.405-2.329-0.814-4.659-1.274-6.975c-0.229-1.157-0.467-2.317-0.714-3.46l-0.189-0.854
			l-0.05-0.219l-0.039-0.215l-0.02-0.112l-0.068-0.452l-0.283-1.807c-0.418-2.4-0.648-4.849-0.862-7.302
			c-0.047-1.242-0.128-2.477-0.146-3.724c0.05-1.258,0.007-2.505,0.141-3.776l0.208-1.908c0.064-0.635,0.236-1.282,0.352-1.923
			l0.192-0.962l0.293-0.968c0.2-0.646,0.377-1.287,0.688-1.93l0.423-0.958c0.144-0.316,0.354-0.628,0.534-0.94
			c0.339-0.632,0.829-1.229,1.31-1.817c0.536-0.568,1.112-1.12,1.82-1.582c0.335-0.241,0.744-0.434,1.136-0.63
			c0.471-0.181,0.744-0.331,1.569-0.459l-0.783,0.22c1.742-0.826,3.788-1.2,5.713-1.012c1.935,0.175,3.697,0.816,5.256,1.628
			c1.571,0.812,2.939,1.817,4.204,2.885c1.274,1.063,2.425,2.22,3.495,3.415c2.159,2.387,4.032,4.938,5.763,7.552
			c1.734,2.618,3.308,5.311,4.766,8.081c1.493,2.826,2.645,5.791,3.691,8.765c0.45,1.505,0.925,3.006,1.318,4.521
			c0.354,1.521,0.789,3.03,1.066,4.559c0.308,1.524,0.631,3.05,0.859,4.581c0.262,1.529,0.5,3.06,0.688,4.593
			c0.218,1.531,0.392,3.064,0.544,4.598c0.173,1.535,0.307,3.067,0.413,4.6c0.23,3.067,0.386,6.134,0.498,9.196
			c0.117,3.064,0.185,6.122,0.225,9.178c0.055,3.058,0.031,6.109,0.014,9.161c0,3.041-0.099,6.125-0.016,9.104
			c-0.01,1.502,0.106,2.996,0.195,4.495c0.054,1.504,0.267,2.987,0.421,4.483c0.158,1.495,0.454,2.97,0.679,4.459
			c0.332,1.464,0.578,2.956,0.986,4.405c0.702,2.93,1.65,5.804,2.795,8.604c1.143,2.799,2.457,5.556,4.193,8.062
			C273.85,789.344,272.258,786.699,270.856,783.964z"/>
	</g>
	<g>
		<path fill="#1E120D" d="M259.415,887.982c0.406,0.04,0.619,0.036,0.921,0.057c0.285,0.017,0.643-0.01,0.964-0.012
			c0.657,0.011,1.335-0.103,2.011-0.154c0.68-0.055,1.351-0.222,2.033-0.325c0.34-0.063,0.688-0.105,1.021-0.208l1.01-0.27
			c0.672-0.188,1.369-0.325,2.019-0.593l1.997-0.722c0.684-0.215,1.295-0.58,1.951-0.865l1.949-0.916l0.122-0.067
			c1.76-0.614,3.508-1.162,5.298-1.623c0.444-0.123,0.89-0.23,1.344-0.325c0.454-0.09,0.895-0.213,1.354-0.277l1.367-0.201
			l1.377-0.031l-1.334,0.269l-1.288,0.429c-0.429,0.141-0.841,0.337-1.262,0.501c-0.419,0.165-0.832,0.348-1.239,0.544
			c-1.642,0.746-3.261,1.586-4.818,2.46l0.122-0.067l-1.843,1.307c-0.629,0.417-1.215,0.915-1.889,1.269l-1.982,1.144
			c-0.653,0.408-1.368,0.689-2.063,1.023l-1.054,0.486c-0.348,0.175-0.719,0.292-1.083,0.429c-0.738,0.253-1.456,0.566-2.22,0.772
			c-0.767,0.201-1.51,0.459-2.316,0.598c-0.407,0.076-0.772,0.168-1.219,0.229c-0.428,0.054-0.946,0.123-1.273,0.146
			L259.415,887.982z"/>
	</g>
	<g>
		<path fill="#1E120D" d="M233.676,879.31c-0.574,0.415-1.188,0.77-1.828,1.084c-1.278,0.616-2.672,1.041-4.118,1.24
			c-0.363,0.049-0.726,0.103-1.094,0.111c-0.367,0.015-0.736,0.035-1.106,0.033c-0.37-0.011-0.742-0.045-1.115-0.067
			c-0.374-0.016-0.742-0.083-1.111-0.156c-0.366-0.076-0.741-0.124-1.104-0.225l-1.08-0.344c-0.365-0.101-0.712-0.252-1.052-0.417
			l-1.025-0.479l-0.49-0.229l-0.338-0.449l-0.416-0.56l-0.451-0.58l-0.905-1.171c-0.602-0.792-1.223-1.557-1.834-2.333
			c-0.622-0.771-1.246-1.534-1.926-2.257c-0.171-0.177-0.34-0.377-0.521-0.538c-0.183-0.159-0.362-0.367-0.554-0.526l-0.612-0.485
			l-0.703-0.447c0.267-0.091,0.55-0.149,0.854-0.214c0.292-0.035,0.583-0.022,0.891-0.028c0.307,0,0.591,0.049,0.892,0.094
			c0.307,0.036,0.583,0.116,0.868,0.196c0.288,0.078,0.579,0.159,0.843,0.271c0.269,0.107,0.555,0.201,0.814,0.327
			c0.52,0.245,1.045,0.505,1.527,0.806c0.982,0.583,1.892,1.256,2.74,1.983c0.414,0.373,0.832,0.748,1.227,1.145l0.58,0.606
			c0.191,0.213,0.379,0.399,0.584,0.657l-0.827-0.68c0.509,0.197,0.996,0.441,1.512,0.617c0.511,0.192,1.029,0.361,1.562,0.508
			c0.262,0.088,0.529,0.151,0.802,0.209l0.816,0.194c0.277,0.038,0.558,0.099,0.839,0.154c0.278,0.071,0.566,0.071,0.854,0.129
			c0.288,0.049,0.579,0.09,0.874,0.109c0.294,0.028,0.593,0.086,0.895,0.095l0.911,0.073c0.308,0.006,0.62,0.035,0.936,0.052
			l1.931,0.053c0.666,0.023,1.334,0.01,2.051,0.014C234.805,878.437,234.255,878.887,233.676,879.31z"/>
	</g>
</g>
<g>
	<path fill="none" stroke="#1E120D" stroke-width="5" stroke-miterlimit="10" d="M281.956,393.489
		c10.344,1.426,16.765,6.063,25.683,29.961c8.917,23.899,2.496,34.242,2.496,34.242c-2.138,46.726-31.029,54.693-31.029,54.693
		c-13.557,12.604-26.049,9.639-26.049,9.639c-52.797-1.658-49.927-55.771-55.277-65.045c-5.349-9.275-3.211-36.382-3.211-36.382
		c-0.355-18.55,10.345-36.026,31.391-37.452c21.043-1.429,16.912,10.089,36.025,12.482
		C268.806,396.482,281.958,393.488,281.956,393.489z"/>
	<g>
		<path fill="#1E120D" d="M303.854,423.44c-0.393-0.688-1.042-1.653-1.908-2.789c-0.897-1.123-2.093-2.37-3.547-3.592
			c-0.384-0.291-0.745-0.613-1.16-0.896c-0.415-0.272-0.843-0.554-1.28-0.842c-0.457-0.257-0.862-0.584-1.247-0.966
			c-0.38-0.389-0.876-0.65-1.338-0.973c-1.903-1.206-4.129-2.328-6.707-2.992l-0.476-0.147l-0.12-0.037l-0.062-0.019l-0.028-0.009
			c0.113,0.026,0.012,0.003,0.028,0.007l-0.267-0.063c-0.356-0.082-0.715-0.165-1.075-0.248c-0.725-0.17-1.464-0.344-2.113-0.433
			c-0.674-0.114-1.354-0.245-2.048-0.289l-1.041-0.097l-1.013-0.01c-1.353,0.023-2.58,0.216-3.872,0.696
			c-1.291,0.467-2.812,1.254-4.547,1.875c-1.727,0.646-3.589,1.039-5.4,1.249c-0.909,0.104-1.816,0.191-2.711,0.197l-1.347,0.042
			l-0.261-0.01l-0.078-0.008l-0.157-0.012l-0.313-0.021l-0.628-0.047l-1.256-0.093l-1.478-0.291l-1.474-0.316l-1.313-0.438
			l-1.308-0.443l-1.231-0.542l-1.229-0.546l-1.159-0.604c-3.092-1.615-5.85-3.429-8.495-5.066c-2.638-1.645-5.176-3.081-7.646-4.151
			c-2.458-1.122-4.864-1.719-7.093-1.994c-0.56-0.043-1.108-0.104-1.643-0.121c-0.27-0.025-0.532,0.041-0.794,0.038
			c-0.261,0.003-0.52-0.025-0.777-0.066c-0.26-0.038-0.517-0.076-0.771-0.112l-0.381-0.057l-0.188-0.028l-0.047-0.007
			c-0.147,0.021,0.174-0.028,0.131-0.022h-0.025h-0.095c-0.447-0.002-0.971,0.022-1.442,0.064c-1.919,0.173-3.594,0.497-4.898,0.958
			c-1.305,0.46-2.252,1.048-2.78,1.599c-0.552,0.53-0.747,0.94-0.769,0.926c0,0,0.022-0.106,0.063-0.31
			c0.05-0.198,0.079-0.533,0.267-0.905c0.303-0.782,1.012-1.894,2.24-2.929c1.214-1.055,2.858-2.117,4.889-3.013
			c0.517-0.231,1.021-0.442,1.639-0.662l0.104-0.038l0.024-0.009c-0.026,0.001,0.312-0.049,0.182-0.03l0.058-0.011l0.222-0.046
			l0.451-0.092c0.305-0.063,0.615-0.124,0.928-0.188c1.268-0.345,2.606,0.031,3.994,0.093c0.702,0.029,1.392,0.188,2.097,0.336
			c0.701,0.163,1.441,0.26,2.141,0.49c0.703,0.227,1.417,0.455,2.143,0.688c0.722,0.24,1.403,0.568,2.122,0.855
			c2.823,1.227,5.592,2.807,8.294,4.492c2.704,1.676,5.396,3.437,8.167,4.88l1.04,0.544l1.052,0.465l1.055,0.468l1.065,0.355
			l1.066,0.363l0.984,0.209l0.984,0.23l1.255,0.092l0.628,0.046l0.314,0.022l0.155,0.013l0.079,0.005l0.039,0.003
			c0.173,0.008-0.193-0.005-0.143-0.005l1.168-0.039c0.787-0.002,1.545-0.08,2.297-0.165c1.508-0.177,2.929-0.472,4.3-0.988
			c1.38-0.481,2.781-1.219,4.531-1.869c1.745-0.66,3.718-0.981,5.509-0.998c0.448,0.007,0.896,0.012,1.338,0.016
			c0.429,0.038,0.855,0.077,1.279,0.115c0.851,0.06,1.678,0.212,2.497,0.354c0.85,0.13,1.572,0.303,2.287,0.47
			c0.359,0.083,0.719,0.166,1.075,0.248l0.267,0.063l0.132,0.034l0.071,0.021l0.141,0.043l0.563,0.17
			c3.017,0.787,5.743,2.127,8.074,3.616c0.57,0.395,1.161,0.735,1.687,1.148c0.547,0.382,1.078,0.77,1.486,1.267
			c0.387,0.509,0.764,1.006,1.13,1.488c0.353,0.484,0.645,0.996,0.95,1.464c1.17,1.916,1.87,3.715,2.316,5.204
			c0.444,1.494,0.604,2.698,0.697,3.505c0.079,0.815,0.058,1.246,0.058,1.246S304.244,424.128,303.854,423.44z"/>
	</g>
	<g>
		<path fill="#1E120D" d="M291.89,495.961c-1.38,1.295-2.839,2.506-4.361,3.658c-1.523,1.161-3.136,2.228-4.919,3.123
			c-0.454,0.217-0.91,0.435-1.393,0.622c-0.48,0.191-0.974,0.369-1.507,0.504c-0.522,0.144-1.085,0.252-1.691,0.288
			c-0.598,0.043-1.264-0.021-1.939-0.188l1.939-0.624c-1.167,1.589-2.357,2.876-3.688,4.168c-1.319,1.271-2.744,2.437-4.265,3.482
			c-3.044,2.08-6.479,3.717-10.152,4.589c-1.829,0.47-3.718,0.683-5.607,0.784c-1.888,0.021-3.787-0.035-5.642-0.369
			c-0.463-0.081-0.929-0.147-1.389-0.24l-1.364-0.336c-0.918-0.199-1.794-0.515-2.679-0.804c-1.758-0.609-3.448-1.365-5.07-2.22
			c-0.835-0.39-1.598-0.892-2.381-1.361c-0.792-0.456-1.541-0.968-2.277-1.492c-1.516-0.999-2.879-2.18-4.271-3.313
			c-0.667-0.596-1.327-1.203-1.98-1.811l-0.491-0.455l-0.084-0.081l-0.026-0.029l-0.058-0.06l-0.109-0.118l-0.225-0.237
			l-0.907-0.996c-1.185-1.332-2.325-2.661-3.425-4.039c-1.107-1.364-2.111-2.814-3.161-4.219c-1.022-1.426-1.961-2.917-2.919-4.379
			c-0.892-1.514-1.778-3.025-2.616-4.557c-0.781-1.57-1.531-3.15-2.252-4.731c1.092,1.369,2.155,2.739,3.188,4.117
			c1.118,1.327,2.227,2.646,3.306,3.979l3.439,3.835c1.188,1.238,2.327,2.515,3.56,3.7c1.186,1.229,2.407,2.428,3.636,3.582
			l0.92,0.848l0.429,0.381l0.499,0.385c0.666,0.511,1.328,1.025,1.979,1.55c1.354,0.974,2.698,1.963,4.11,2.817
			c0.692,0.449,1.394,0.885,2.122,1.259c0.723,0.387,1.428,0.81,2.172,1.136c1.46,0.722,2.961,1.333,4.483,1.828
			c0.764,0.239,1.521,0.51,2.3,0.666l1.16,0.277c0.389,0.071,0.781,0.125,1.171,0.188c1.559,0.281,3.134,0.345,4.705,0.345
			c1.564-0.09,3.138-0.199,4.677-0.557c1.536-0.348,3.067-0.78,4.541-1.395c1.476-0.605,2.918-1.323,4.313-2.147
			c1.381-0.843,2.718-1.779,3.997-2.796c1.257-1.008,2.521-2.182,3.511-3.303l0.845-0.957l1.095,0.333
			c0.228,0.067,0.493,0.146,0.83,0.15c0.326,0.025,0.699,0.011,1.085-0.049c0.382-0.045,0.788-0.137,1.192-0.241
			c0.407-0.103,0.815-0.238,1.228-0.377c0.822-0.294,1.646-0.645,2.461-1.028c0.818-0.387,1.638-0.79,2.447-1.225
			c1.62-0.87,3.204-1.834,4.792-2.811c1.576-0.994,3.145-2.018,4.7-3.077C294.619,493.344,293.285,494.678,291.89,495.961z"/>
	</g>
	<g>
		<path fill="#1E120D" d="M300.272,444.822c-0.247,0.468-0.554,0.894-0.843,1.339c-0.287,0.45-0.632,0.854-0.953,1.29
			c-0.326,0.432-0.7,0.824-1.07,1.229c-0.362,0.415-0.798,0.751-1.204,1.134c-0.402,0.389-0.864,0.707-1.321,1.046l-0.692,0.505
			l-0.746,0.438c-0.509,0.275-0.999,0.626-1.581,0.727c-0.572,0.123-1.148,0.22-1.711,0.354l-1.734,0.204
			c-0.578,0.093-1.157,0.053-1.737,0.044c-0.575-0.036-1.167,0.013-1.728-0.1l-1.696-0.275c-0.577-0.069-1.099-0.273-1.642-0.428
			l-1.614-0.501l2.188-0.204c-0.323,0.191-0.543,0.307-0.811,0.448c-0.254,0.126-0.508,0.26-0.765,0.375
			c-0.513,0.24-1.031,0.463-1.566,0.659c-0.53,0.205-1.077,0.378-1.634,0.537c-0.557,0.16-1.132,0.286-1.721,0.389
			c-0.288,0.061-0.6,0.081-0.899,0.12c-0.298,0.042-0.607,0.062-0.923,0.064c-0.316,0.001-0.619,0.033-0.945,0.002l-0.967-0.077
			c-0.326-0.05-0.655-0.122-0.981-0.188c-0.328-0.053-0.653-0.179-0.978-0.289c-0.323-0.116-0.649-0.217-0.955-0.393l-0.92-0.496
			l-1.082-1.512c0.018,0.064,0.009,0.04,0.003,0.022c-0.002-0.012-0.009-0.032-0.021-0.059c-0.02-0.045-0.035-0.093-0.064-0.147
			c-0.043-0.106-0.111-0.201-0.166-0.306c-0.075-0.084-0.123-0.198-0.205-0.265c-0.069-0.084-0.141-0.163-0.224-0.223
			c-0.153-0.137-0.321-0.236-0.516-0.313c-0.084-0.058-0.2-0.077-0.312-0.104c-0.104-0.037-0.217-0.066-0.355-0.066
			c-0.135-0.004-0.248-0.048-0.398-0.035l-0.446,0.018c-0.14-0.014-0.318,0.049-0.479,0.068c-0.165,0.032-0.327,0.046-0.497,0.086
			l-0.523,0.156c-0.175,0.058-0.347,0.085-0.526,0.163l-1.079,0.435l-2.583-0.313c0.099,0.073-0.102-0.061-0.198-0.103
			c-0.113-0.064-0.274-0.12-0.406-0.184c-0.303-0.109-0.618-0.212-0.96-0.279c-0.33-0.089-0.698-0.108-1.05-0.16
			c-0.372,0.003-0.729-0.052-1.112-0.016c-0.381,0.042-0.755,0.017-1.144,0.101c-0.387,0.075-0.773,0.109-1.162,0.207l-1.169,0.312
			c-0.391,0.12-0.776,0.279-1.165,0.417c-0.39,0.126-0.776,0.291-1.157,0.479l-1.148,0.533l-1.125,0.633
			c-0.371,0.219-0.759,0.404-1.118,0.652l-1.093,0.729c-0.358,0.25-0.735,0.466-1.084,0.743l-2.108,1.616l-1.107,0.849l-1.333-0.438
			l-0.844-0.278l-0.904-0.264c-0.604-0.167-1.219-0.319-1.832-0.451c-0.612-0.137-1.228-0.241-1.84-0.343
			c-0.608-0.077-1.221-0.168-1.819-0.197c-0.303-0.023-0.604-0.05-0.896-0.044c-0.293,0.001-0.592-0.015-0.88-0.003l-0.852,0.055
			c-0.284,0.017-0.54,0.082-0.811,0.116c-0.279,0.027-0.521,0.101-0.76,0.172c-0.242,0.068-0.501,0.119-0.697,0.229
			c-0.201,0.102-0.448,0.163-0.621,0.286c-0.173,0.12-0.349,0.234-0.535,0.34l-1.334,0.763l-1.069-0.381
			c-0.206-0.074-0.527-0.173-0.804-0.256c-0.288-0.083-0.581-0.157-0.881-0.209c-0.301-0.044-0.598-0.103-0.887-0.19
			c-0.289-0.09-0.571-0.235-0.859-0.332c-0.576-0.227-1.158-0.41-1.751-0.595l-0.891-0.229c-0.3-0.086-0.592-0.114-0.897-0.178
			c-0.303-0.064-0.603-0.099-0.902-0.128c-0.3-0.025-0.618-0.095-0.913-0.082l-0.921-0.012l-0.91,0.103
			c-0.32,0.018-0.589,0.145-0.903,0.204c-0.15,0.041-0.314,0.071-0.463,0.122l-0.432,0.192c-0.284,0.138-0.619,0.236-0.868,0.444
			l-0.838,0.577l0.511-0.907c0.162-0.326,0.427-0.56,0.659-0.843l0.367-0.413c0.133-0.126,0.277-0.232,0.421-0.351
			c0.29-0.218,0.577-0.488,0.902-0.656l0.986-0.548l1.041-0.426c0.353-0.158,0.711-0.23,1.073-0.343
			c0.365-0.115,0.73-0.194,1.096-0.255c0.364-0.061,0.741-0.15,1.105-0.182l1.112-0.122c0.738-0.044,1.485-0.081,2.226-0.068
			c0.374-0.005,0.74,0.011,1.107,0.049c0.368,0.033,0.715,0.153,1.066,0.262l1.055,0.314c0.364,0.109,0.684,0.205,1.108,0.355
			l-2.405,0.382c0.384-0.262,0.775-0.518,1.17-0.764c0.396-0.248,0.81-0.384,1.216-0.572c0.413-0.196,0.819-0.292,1.229-0.408
			c0.41-0.115,0.82-0.225,1.218-0.273c0.399-0.059,0.807-0.144,1.2-0.169l1.176-0.076c0.388-0.015,0.766,0.001,1.151,0.002
			c0.386-0.004,0.759,0.027,1.133,0.054c0.754,0.041,1.482,0.146,2.216,0.242c0.722,0.118,1.444,0.243,2.153,0.4
			c0.71,0.153,1.412,0.329,2.108,0.521l1.046,0.307c0.357,0.111,0.682,0.213,1.085,0.357l-2.438,0.41l2.335-1.79
			c0.383-0.304,0.818-0.559,1.223-0.84l1.239-0.824c0.409-0.279,0.866-0.505,1.297-0.759l1.317-0.736l1.388-0.646
			c0.457-0.226,0.93-0.427,1.426-0.594c0.492-0.174,0.972-0.366,1.474-0.521l1.537-0.407c0.517-0.126,1.063-0.19,1.593-0.284
			c0.527-0.103,1.096-0.097,1.643-0.143c0.549-0.041,1.124,0.016,1.687,0.03c0.569,0.07,1.14,0.116,1.715,0.259
			c0.575,0.118,1.148,0.296,1.722,0.511c0.291,0.13,0.572,0.236,0.868,0.396c0.317,0.172,0.525,0.265,1.001,0.616l-2.583-0.313
			l1.47-0.592c0.242-0.101,0.523-0.164,0.783-0.246l0.796-0.229c0.274-0.063,0.569-0.105,0.854-0.158
			c0.295-0.037,0.56-0.112,0.879-0.113l0.927-0.033c0.307-0.011,0.648,0.048,0.969,0.077c0.322,0.023,0.653,0.095,0.988,0.192
			c0.332,0.086,0.662,0.18,0.986,0.336c0.649,0.27,1.277,0.654,1.81,1.122c0.279,0.228,0.523,0.479,0.75,0.746
			c0.243,0.257,0.423,0.548,0.626,0.828c0.175,0.293,0.353,0.585,0.492,0.899c0.075,0.149,0.142,0.314,0.206,0.481
			c0.032,0.079,0.063,0.167,0.095,0.267c0.029,0.092,0.06,0.174,0.104,0.352l-1.082-1.511c0.138,0.063,0.272,0.134,0.405,0.209
			c0.124,0.089,0.286,0.121,0.434,0.175c0.148,0.05,0.289,0.122,0.461,0.139l0.492,0.101l0.53,0.039
			c0.175,0.026,0.371-0.005,0.558-0.002c0.184,0.002,0.376-0.009,0.574-0.04c0.194-0.03,0.388-0.033,0.589-0.078
			c0.397-0.07,0.802-0.158,1.209-0.274c0.406-0.115,0.814-0.244,1.22-0.4c0.406-0.148,0.808-0.321,1.203-0.506
			c0.201-0.09,0.39-0.19,0.584-0.285l0.506-0.278l1.021-0.559l1.17,0.354l1.242,0.376c0.415,0.118,0.825,0.293,1.246,0.328
			l1.254,0.208c0.419,0.095,0.834,0.035,1.251,0.066c0.418,0.006,0.839,0.051,1.246-0.028l1.235-0.138
			c0.402-0.108,0.793-0.251,1.189-0.37c0.401-0.085,0.804-0.205,1.237-0.252l0.648-0.104l0.635-0.179
			c0.427-0.122,0.871-0.223,1.286-0.41c0.416-0.179,0.869-0.308,1.275-0.534c0.406-0.219,0.86-0.388,1.27-0.631
			c0.408-0.243,0.847-0.46,1.245-0.735c0.403-0.269,0.819-0.533,1.211-0.833c0.819-0.566,1.58-1.216,2.33-1.917
			C301.251,442.973,300.792,443.91,300.272,444.822z"/>
	</g>
	<g>
		<path fill="#1E120D" d="M257.806,447.688c0,0,0.051-0.132,0.142-0.381c0.085-0.224,0.209-0.589,0.367-1.066
			c0.305-0.951,0.734-2.332,1.154-4.025c0.441-1.689,0.861-3.691,1.245-5.856c0.163-1.083,0.375-2.206,0.495-3.354
			c0.151-1.147,0.281-2.317,0.361-3.492c0.116-1.175,0.158-2.354,0.201-3.516c0.068-1.164,0.031-2.307,0.03-3.418
			c0.019-1.112-0.07-2.181-0.125-3.202c-0.028-0.509-0.059-1.006-0.087-1.484c-0.052-0.479-0.104-0.94-0.153-1.382
			c-0.104-0.888-0.178-1.705-0.283-2.426c-0.123-0.716-0.231-1.341-0.319-1.854c-0.176-1.034-0.279-1.624-0.279-1.624
			s0.178,0.572,0.488,1.572c0.157,0.503,0.345,1.111,0.563,1.812c0.201,0.704,0.381,1.511,0.603,2.387
			c0.108,0.44,0.22,0.897,0.337,1.371c0.092,0.479,0.187,0.975,0.284,1.483c0.188,1.02,0.42,2.096,0.551,3.222
			c0.15,1.125,0.339,2.289,0.424,3.479c0.114,1.188,0.229,2.402,0.268,3.617c0.077,1.217,0.1,2.434,0.1,3.635
			c0.03,1.203-0.035,2.383-0.056,3.531c-0.103,2.29-0.267,4.433-0.495,6.266c-0.208,1.835-0.47,3.363-0.667,4.441
			c-0.104,0.537-0.188,0.965-0.26,1.277c-0.066,0.289-0.102,0.443-0.102,0.443L257.806,447.688z"/>
	</g>
	<g>
		<path fill="#1E120D" d="M237.99,455.767c0,0-0.134-0.171-0.384-0.492c-0.264-0.339-0.638-0.833-1.075-1.446
			c-0.901-1.231-2.114-3.019-3.475-5.215c-0.663-1.108-1.401-2.295-2.099-3.598c-0.735-1.28-1.441-2.668-2.154-4.11
			c-0.749-1.421-1.362-2.975-2.069-4.502c-0.621-1.568-1.267-3.156-1.826-4.771c-0.265-0.815-0.525-1.628-0.786-2.441l-0.39-1.212
			l-0.311-1.231c-0.4-1.634-0.854-3.222-1.078-4.813c-0.271-1.578-0.569-3.089-0.643-4.559c-0.096-1.461-0.321-2.823-0.249-4.104
			c0.011-1.271,0.021-2.436,0.032-3.466c0.081-1.028,0.211-1.92,0.288-2.653c0.169-1.462,0.266-2.298,0.266-2.298
			s-0.021,0.84-0.052,2.313c-0.01,0.736-0.057,1.624-0.04,2.644c0.085,1.016,0.181,2.162,0.286,3.412
			c0.043,1.25,0.391,2.575,0.614,3.984c0.202,1.415,0.632,2.866,1.037,4.368c0.355,1.516,0.945,3.02,1.477,4.559l0.405,1.154
			l0.486,1.139c0.325,0.756,0.651,1.517,0.975,2.276c0.685,1.508,1.451,2.978,2.184,4.425c0.823,1.406,1.541,2.833,2.389,4.132
			c0.813,1.315,1.61,2.58,2.426,3.736c0.78,1.182,1.591,2.247,2.319,3.241c1.486,1.967,2.791,3.549,3.731,4.613
			c0.47,0.544,0.834,0.938,1.077,1.202c0.262,0.278,0.401,0.427,0.401,0.427L237.99,455.767z"/>
	</g>
	<g>
		<path fill="#1E120D" d="M260.725,447.719c0,0,0.016,0.615,0.038,1.687c0.013,1.063,0.011,2.569-0.047,4.375
			c-0.056,1.807-0.164,3.91-0.379,6.16c-0.214,2.25-0.53,4.647-1.012,7.021c-0.105,0.592-0.26,1.183-0.396,1.771l-0.104,0.439
			l-0.041,0.168l-0.04,0.195l-0.145,0.82c-0.175,1.111-0.28,2.222-0.343,3.301c-0.061,1.08-0.056,2.129-0.014,3.123
			c0.044,0.994,0.146,1.933,0.271,2.794c0.146,0.858,0.3,1.647,0.493,2.33c0.159,0.7,0.404,1.271,0.558,1.764
			c0.181,0.48,0.36,0.843,0.466,1.099c0.109,0.254,0.17,0.39,0.17,0.39s-0.076-0.126-0.22-0.36
			c-0.139-0.239-0.367-0.579-0.614-1.036c-0.218-0.471-0.546-1.019-0.799-1.7c-0.292-0.668-0.555-1.45-0.822-2.311
			c-0.247-0.862-0.482-1.813-0.666-2.831c-0.181-1.019-0.333-2.103-0.42-3.232s-0.132-2.303-0.107-3.505l0.036-0.917l0.018-0.237
			l0.026-0.266l0.043-0.427c0.055-0.571,0.127-1.14,0.152-1.718c0.16-2.296,0.16-4.608,0.081-6.775
			c-0.078-2.168-0.24-4.189-0.414-5.917c-0.174-1.729-0.361-3.161-0.503-4.156c-0.152-0.981-0.239-1.542-0.239-1.542
			L260.725,447.719z"/>
	</g>
	<g>
		<path fill="#1E120D" d="M242.038,455.368c0,0-0.24,0.353-0.66,0.964c-0.422,0.622-1.01,1.532-1.705,2.636
			c-0.681,1.107-1.477,2.41-2.275,3.834c-0.814,1.417-1.625,2.958-2.405,4.521c-0.777,1.564-1.485,3.157-2.114,4.673
			c-0.289,0.769-0.569,1.51-0.836,2.211c-0.232,0.718-0.452,1.395-0.656,2.02c-0.167,0.634-0.318,1.218-0.456,1.736
			c-0.149,0.517-0.207,0.979-0.281,1.357c-0.142,0.761-0.221,1.198-0.221,1.198s0.002-0.445,0.005-1.219
			c0.01-0.388-0.018-0.867,0.041-1.405c0.042-0.543,0.093-1.156,0.146-1.824c0.093-0.666,0.193-1.385,0.298-2.147
			c0.141-0.76,0.292-1.56,0.446-2.387c0.359-1.641,0.791-3.389,1.297-5.114c1.005-3.455,2.242-6.842,3.249-9.356
			c0.508-1.256,0.947-2.299,1.271-3.028c0.332-0.733,0.521-1.154,0.521-1.154L242.038,455.368z"/>
	</g>
	<g>
		<path fill="#1E120D" d="M226.031,455.804c0.005-0.008-0.063,0.051-0.102,0.07c-0.04,0.017-0.136,0.094-0.26,0.195
			c-0.245,0.209-0.608,0.529-1.016,0.967c-0.413,0.435-0.874,0.979-1.328,1.604c-0.46,0.621-0.907,1.329-1.309,2.07
			c-0.216,0.367-0.375,0.759-0.564,1.138c-0.182,0.38-0.321,0.771-0.478,1.146c-0.151,0.378-0.256,0.756-0.378,1.113
			c-0.128,0.357-0.195,0.705-0.278,1.026c-0.074,0.321-0.167,0.616-0.204,0.885c-0.046,0.266-0.086,0.501-0.118,0.691
			c-0.068,0.389-0.104,0.611-0.104,0.611s-0.04-0.219-0.11-0.606c-0.036-0.195-0.079-0.435-0.129-0.705
			c-0.058-0.276-0.071-0.585-0.114-0.929c-0.032-0.34-0.088-0.715-0.091-1.11c-0.007-0.397-0.043-0.821-0.028-1.258
			c0.021-0.435,0.018-0.895,0.061-1.356c0.053-0.459,0.072-0.941,0.157-1.408c0.141-0.945,0.343-1.893,0.6-2.771
			c0.251-0.881,0.548-1.697,0.847-2.388c0.289-0.692,0.591-1.263,0.818-1.671c0.117-0.2,0.211-0.361,0.309-0.503
			c0.071-0.107,0.109-0.168,0.109-0.168L226.031,455.804z"/>
	</g>
	<g>
		<path fill="#1E120D" d="M271.768,449.672c0,0,0.159,0.476,0.435,1.308c0.27,0.828,0.635,2.009,1.057,3.429
			c0.84,2.84,1.855,6.653,2.657,10.512c0.213,0.959,0.38,1.934,0.557,2.885c0.187,0.951,0.305,1.904,0.45,2.81
			c0.134,0.913,0.214,1.807,0.318,2.643c0.086,0.841,0.12,1.643,0.176,2.374c0.052,0.733,0.027,1.414,0.042,2.009
			c0.021,0.596-0.015,1.116-0.048,1.544c-0.057,0.85-0.089,1.336-0.089,1.336s-0.045-0.484-0.125-1.332
			c-0.036-0.422-0.082-0.933-0.197-1.514c-0.109-0.58-0.189-1.236-0.356-1.942c-0.17-0.708-0.325-1.471-0.542-2.271
			c-0.231-0.8-0.446-1.643-0.721-2.501c-0.287-0.86-0.544-1.75-0.874-2.644c-0.321-0.891-0.632-1.8-0.989-2.696
			c-1.376-3.594-2.947-7.105-4.195-9.7c-0.626-1.297-1.158-2.369-1.54-3.109c-0.383-0.733-0.603-1.152-0.603-1.152L271.768,449.672z
			"/>
	</g>
	<g>
		<path fill="#1E120D" d="M264.864,445.716c0,0,0.071-0.059,0.212-0.163c0.116-0.084,0.316-0.252,0.576-0.465
			c0.508-0.44,1.25-1.081,2.087-1.932c0.846-0.838,1.799-1.866,2.762-3.027c0.969-1.157,1.945-2.452,2.85-3.804
			c0.479-0.662,0.874-1.371,1.311-2.05c0.431-0.682,0.785-1.389,1.169-2.058c0.384-0.67,0.677-1.353,0.998-1.985
			c0.326-0.632,0.573-1.254,0.813-1.825c0.235-0.573,0.48-1.092,0.645-1.569c0.169-0.478,0.315-0.894,0.438-1.236
			c0.243-0.688,0.384-1.082,0.384-1.082s-0.064,0.412-0.176,1.133c-0.054,0.364-0.123,0.803-0.199,1.31
			c-0.073,0.507-0.219,1.063-0.344,1.683c-0.134,0.617-0.265,1.292-0.471,1.986c-0.201,0.694-0.37,1.448-0.628,2.198
			s-0.486,1.548-0.793,2.325c-0.312,0.777-0.587,1.591-0.947,2.365c-0.672,1.574-1.432,3.118-2.221,4.532
			c-0.783,1.418-1.589,2.708-2.333,3.789c-0.731,1.089-1.416,1.96-1.906,2.577c-0.252,0.305-0.45,0.545-0.617,0.728
			c-0.144,0.162-0.221,0.248-0.221,0.248L264.864,445.716z"/>
	</g>
	<g>
		<path fill="#1E120D" d="M282.429,447.526c0,0,0.312,0.3,0.854,0.826c0.534,0.521,1.269,1.278,2.139,2.195
			c1.73,1.841,3.95,4.362,5.98,7.03c0.509,0.665,0.991,1.354,1.479,2.017c0.46,0.684,0.913,1.355,1.352,2.007
			c0.408,0.672,0.816,1.309,1.177,1.928c0.344,0.627,0.67,1.221,0.97,1.771c0.267,0.563,0.511,1.082,0.729,1.54
			c0.228,0.447,0.357,0.877,0.495,1.211c0.261,0.673,0.406,1.058,0.406,1.058s-0.218-0.35-0.598-0.962
			c-0.198-0.301-0.398-0.684-0.707-1.08c-0.293-0.403-0.623-0.854-0.984-1.348c-0.388-0.472-0.81-0.981-1.256-1.521
			c-0.459-0.524-0.968-1.061-1.477-1.624c-0.535-0.539-1.088-1.096-1.651-1.662c-0.587-0.543-1.169-1.104-1.774-1.643
			c-2.412-2.164-4.973-4.146-6.93-5.563c-0.981-0.701-1.806-1.275-2.386-1.659c-0.574-0.377-0.902-0.594-0.902-0.594
			L282.429,447.526z"/>
	</g>
	<g>
		<path fill="#1E120D" d="M260.96,460.241c-0.019,0.017-0.177,0.252-0.674,0.835c-0.238,0.275-0.521,0.631-0.854,0.99
			c-0.337,0.34-0.717,0.727-1.132,1.147c-0.395,0.432-0.897,0.831-1.41,1.267c-0.514,0.422-1.046,0.909-1.609,1.322
			c-1.11,0.804-2.292,1.662-3.477,2.518c-2.331,1.686-4.512,3.513-5.842,5.191c-0.336,0.414-0.623,0.813-0.852,1.183
			c-0.248,0.361-0.402,0.709-0.563,0.983c-0.258,0.571-0.396,0.914-0.396,0.914s0.06-0.355,0.194-0.988
			c0.102-0.302,0.184-0.694,0.354-1.112c0.151-0.426,0.353-0.896,0.605-1.397c0.987-2.021,2.846-4.419,4.813-6.616
			c0.97-1.085,1.94-2.17,2.85-3.189c0.442-0.5,0.782-1.001,1.148-1.46c0.351-0.464,0.702-0.882,0.955-1.323
			c0.268-0.427,0.514-0.814,0.732-1.16c0.201-0.343,0.338-0.636,0.473-0.875c0.248-0.446,0.424-0.856,0.419-0.832L260.96,460.241z"
			/>
	</g>
	<g>
		<path fill="#1E120D" d="M245.398,447.532c0,0,0.083-0.069,0.236-0.203c0.128-0.106,0.33-0.281,0.609-0.553
			c0.28-0.249,0.594-0.595,0.971-0.973c0.353-0.403,0.78-0.839,1.191-1.362c0.425-0.514,0.873-1.082,1.306-1.715
			c0.468-0.613,0.862-1.317,1.316-2.028c0.397-0.733,0.83-1.497,1.188-2.304c0.337-0.816,0.733-1.637,0.973-2.507l0.41-1.296
			c0.094-0.443,0.187-0.884,0.278-1.32c0.229-0.876,0.281-1.758,0.367-2.617c0.13-0.859,0.055-1.693,0.051-2.493
			c-0.016-0.396,0.002-0.792-0.041-1.166c-0.052-0.373-0.104-0.732-0.154-1.08c-0.115-0.689-0.155-1.347-0.309-1.898
			c-0.152-0.555-0.283-1.04-0.39-1.439c-0.221-0.805-0.346-1.265-0.346-1.265s0.198,0.432,0.545,1.19
			c0.177,0.382,0.389,0.846,0.632,1.378c0.248,0.532,0.396,1.178,0.631,1.865c0.108,0.35,0.223,0.71,0.341,1.085
			c0.108,0.38,0.157,0.781,0.242,1.192c0.141,0.825,0.36,1.699,0.379,2.621c0.06,0.919,0.157,1.882,0.072,2.854
			c-0.022,0.49-0.047,0.985-0.067,1.481l-0.211,1.479c-0.109,1.004-0.381,1.964-0.61,2.931c-0.25,0.957-0.581,1.875-0.894,2.769
			c-0.366,0.867-0.687,1.734-1.089,2.502c-0.369,0.79-0.766,1.514-1.148,2.172c-0.37,0.67-0.768,1.246-1.099,1.776
			c-0.362,0.512-0.66,0.968-0.946,1.329c-0.264,0.358-0.507,0.659-0.69,0.871c-0.155,0.184-0.238,0.285-0.238,0.285L245.398,447.532
			z"/>
	</g>
	<g>
		<path fill="#1E120D" d="M226.808,455.09c0,0-0.102-0.04-0.293-0.115c-0.257-0.097-0.497-0.221-0.829-0.383
			c-0.63-0.34-1.475-0.855-2.37-1.574c-0.432-0.377-0.918-0.759-1.357-1.234c-0.223-0.231-0.452-0.47-0.684-0.712
			c-0.211-0.259-0.429-0.521-0.649-0.791c-0.453-0.521-0.811-1.14-1.223-1.719c-0.346-0.624-0.724-1.235-1.022-1.88
			c-0.272-0.658-0.613-1.278-0.813-1.941c-0.208-0.659-0.472-1.277-0.611-1.914c-0.152-0.626-0.297-1.23-0.436-1.805
			c-0.09-0.579-0.175-1.126-0.252-1.631c-0.089-0.5-0.138-0.961-0.155-1.374c-0.028-0.41-0.054-0.768-0.074-1.062
			c-0.04-0.584-0.063-0.917-0.063-0.917s0.1,0.319,0.275,0.879c0.085,0.277,0.192,0.615,0.314,1.003
			c0.106,0.388,0.263,0.816,0.461,1.273c0.186,0.457,0.387,0.953,0.6,1.475c0.254,0.499,0.524,1.026,0.8,1.57
			c0.261,0.547,0.643,1.053,0.96,1.591c0.314,0.544,0.751,1.017,1.115,1.523c0.386,0.492,0.835,0.93,1.238,1.377
			c0.463,0.394,0.859,0.83,1.327,1.155c0.221,0.17,0.44,0.336,0.655,0.5c0.226,0.143,0.445,0.281,0.66,0.42
			c0.418,0.282,0.855,0.473,1.232,0.675c0.779,0.364,1.439,0.568,1.88,0.681c0.211,0.042,0.396,0.087,0.438,0.078
			c0.043,0,0.18,0.024,0.165,0.021L226.808,455.09z"/>
	</g>
</g>
</svg>
