<?xml version="1.0" encoding="utf-8"?>
<!-- Generator: Adobe Illustrator 16.0.0, SVG Export Plug-In . SVG Version: 6.00 Build 0)  -->
<!DOCTYPE svg PUBLIC "-//W3C//DTD SVG 1.1//EN" "http://www.w3.org/Graphics/SVG/1.1/DTD/svg11.dtd">
<svg version="1.1" id="Layer_2" xmlns="http://www.w3.org/2000/svg" xmlns:xlink="http://www.w3.org/1999/xlink" x="0px" y="0px"
	 width="500px" height="900px" viewBox="0 0 500 900" enable-background="new 0 0 500 900" xml:space="preserve">
<g>
	<path fill="none" stroke="#1C110B" stroke-width="5" stroke-miterlimit="10" d="M285.395,24.833
		c0.25,13.729-5.076,62.151-5.076,62.151c-0.998,7.987-2.547,16.723-2.547,16.723s-0.738-3.369-0.114,0.5
		c0.623,3.868-1.498,19.219-1.498,19.219c0.998,10.983-7.738,134.785-11.232,153.257c-3.494,18.471,0.25,30.949,0.25,30.949
		c9.235,17.473,0,18.971,0,18.971c-18.97,2.496-22.963-42.433-22.963-42.433c-4.493-25.959-14.146-172.392-14.146-172.392
		c-1.329-9.319,0-21.3,0-21.3C214.758,49.21,217.418,5.59,217.418,5.59C293.212,2.571,285.146,11.104,285.395,24.833z"/>
	<g>
		<path fill="#1C110B" d="M279.151,119.06c0,0-0.025,0.057-0.075,0.167c-0.058,0.119-0.141,0.295-0.249,0.523
			c-0.213,0.432-0.531,1.036-0.972,1.783c-0.883,1.485-2.249,3.552-4.384,5.676c-1.071,1.055-2.363,2.098-3.884,2.99
			c-1.517,0.89-3.295,1.618-5.225,1.899c-1.922,0.301-3.933,0.184-5.854-0.252c-0.93-0.299-1.897-0.523-2.771-0.949
			c-0.442-0.198-0.899-0.371-1.327-0.593l-1.261-0.701c-1.665-0.951-3.17-2.097-4.581-3.278c-1.382-1.212-2.696-2.443-3.858-3.728
			c-1.219-1.234-2.236-2.56-3.265-3.755c-0.972-1.243-1.863-2.436-2.687-3.532c-0.779-1.128-1.493-2.162-2.126-3.078
			c-0.632-0.915-1.126-1.752-1.563-2.42c-0.854-1.347-1.343-2.115-1.343-2.115s0.553,0.725,1.52,1.993
			c0.489,0.628,1.052,1.415,1.758,2.27c0.704,0.854,1.5,1.817,2.367,2.867c0.907,1.014,1.888,2.114,2.944,3.252
			c1.111,1.086,2.216,2.297,3.499,3.39c1.233,1.148,2.6,2.22,4.004,3.255c1.429,1.001,2.923,1.942,4.491,2.668l1.177,0.529
			c0.396,0.165,0.806,0.275,1.202,0.415c0.791,0.313,1.614,0.413,2.405,0.604c1.606,0.214,3.17,0.159,4.601-0.192
			c1.438-0.335,2.722-0.999,3.834-1.79c1.114-0.793,2.071-1.704,2.869-2.639c1.593-1.883,2.612-3.741,3.241-5.051
			c0.314-0.656,0.536-1.182,0.67-1.53c0.061-0.162,0.107-0.287,0.138-0.37c0.033-0.095,0.051-0.143,0.051-0.143L279.151,119.06z"/>
	</g>
</g>
<g>
	<path fill="none" stroke="#1C110B" stroke-width="5" stroke-miterlimit="10" d="M492.991,637.023
		c-0.665,30.951-6.989,45.263-22.631,78.541c-15.641,33.28-30.285,0-30.285,0c-15.642-28.622-21.301-80.203-21.301-80.203
		l-0.749-91.855c-10.482-32.699,0-41.686,0-41.686c8.237-11.23,25.46-34.692,20.219-64.646s3.244-28.205,3.244-28.205
		c19.72-1.748,44.93,63.647,52.167,82.119c7.239,18.471,1.997,22.465,1.248,26.957c-0.748,4.492-1.248,12.979-1.248,12.979
		L492.991,637.023z"/>
	<path fill="none" stroke="#1C110B" stroke-width="5" stroke-miterlimit="10" d="M418.026,543.505
		c18.222-3.662,26.042-32.946,26.042-32.946c8.986-22.963,20.968-24.295,28.954-1.996c7.987,22.299,20.616,25.293,20.616,25.293"/>
</g>
<g>
	<path fill="none" stroke="#1C110B" stroke-width="5" stroke-miterlimit="10" d="M9.448,644.383
		c0.664,30.95,6.988,45.261,22.63,78.539c15.64,33.278,30.285,0,30.285,0c15.642-28.622,21.301-80.204,21.301-80.204l0.749-91.854
		c10.482-32.699,0-41.684,0-41.684c-8.238-11.232-25.46-34.695-20.219-64.647c5.241-29.953-3.244-28.205-3.244-28.205
		c-19.719-1.748-44.929,63.648-52.168,82.119c-7.238,18.472-1.997,22.464-1.248,26.958c0.749,4.493,1.248,12.979,1.248,12.979
		L9.448,644.383z"/>
	<path fill="none" stroke="#1C110B" stroke-width="5" stroke-miterlimit="10" d="M84.413,550.863
		c-18.221-3.662-25.278-18.303-25.278-18.303c-7.223-10.369-20.141-18.305-28.954-1.997c-7.232,13.385-22.921,20.3-22.921,20.3"/>
</g>
<g>
	<path fill="none" stroke="#1C110B" stroke-width="5" stroke-miterlimit="10" d="M241.465,574.563
		c10.059,0.027,21.716-0.301,21.716-0.301c35.443-1.317,23.962,33.515,18.22,79.192c-5.739,45.679-5.239,116.814-7.735,132.289
		c-2.496,15.476-7.987,86.863-7.987,86.863c-9.984,30.95-23.962,22.814-23.962,22.814c-3.994-5.641,2.995-26.81,2.995-26.81
		c1.996-16.973-5.991-81.871-5.991-81.871s3.994,35.944,0-2.994c-3.993-38.938-4.492-86.86-4.492-86.86
		c-2.996-6.99-4.493-43.933-6.49-51.918c-1.996-7.988-6.987-58.407-6.987-58.407C219.751,570.089,237.032,574.552,241.465,574.563z"
		/>
	<g>
		<path fill="#1C110B" d="M236.443,695.718c-0.006-0.018,0.09,0.199,0.172,0.35c0.066,0.163,0.271,0.493,0.52,0.909
			c0.289,0.395,0.602,0.913,1.077,1.431c0.427,0.56,1.022,1.086,1.647,1.703c0.698,0.521,1.413,1.169,2.316,1.643
			c0.844,0.582,1.87,0.944,2.902,1.414c0.534,0.184,1.101,0.317,1.665,0.486l0.857,0.246c0.292,0.061,0.595,0.09,0.896,0.137
			c0.604,0.087,1.216,0.176,1.829,0.265c0.617,0.071,1.251,0.031,1.881,0.055c0.63-0.003,1.266,0.043,1.897,0.002
			c0.635-0.068,1.265-0.138,1.891-0.206c0.626-0.075,1.256-0.118,1.868-0.219c0.61-0.136,1.212-0.271,1.805-0.401
			c1.182-0.277,2.355-0.47,3.407-0.871c1.069-0.351,2.08-0.684,3.015-0.992c0.952-0.271,1.751-0.702,2.497-0.998
			c0.738-0.315,1.383-0.593,1.912-0.82c1.064-0.457,1.672-0.718,1.672-0.718s-0.572,0.329-1.572,0.907
			c-0.502,0.291-1.113,0.644-1.812,1.047c-0.71,0.384-1.469,0.913-2.389,1.3c-0.905,0.423-1.889,0.881-2.927,1.364
			c-1.025,0.534-2.193,0.873-3.38,1.306c-0.597,0.209-1.205,0.421-1.819,0.637c-0.626,0.18-1.278,0.306-1.929,0.463
			c-0.656,0.15-1.316,0.303-1.979,0.454c-0.671,0.124-1.359,0.161-2.046,0.245c-0.687,0.057-1.375,0.176-2.066,0.181
			c-0.697-0.017-1.393-0.031-2.081-0.049c-0.346-0.014-0.692-0.009-1.035-0.038c-0.342-0.054-0.682-0.106-1.02-0.16
			c-0.677-0.112-1.354-0.197-2.01-0.342c-1.286-0.391-2.569-0.703-3.69-1.275c-1.174-0.462-2.164-1.137-3.117-1.703
			c-0.882-0.665-1.716-1.265-2.361-1.911c-0.687-0.6-1.196-1.226-1.644-1.717c-0.415-0.529-0.74-0.938-0.976-1.315
			c-0.196-0.308-0.301-0.472-0.301-0.472L236.443,695.718z"/>
	</g>
	<g>
		<path fill="#1C110B" d="M234.046,681.481c0,0,0.025,0.097,0.075,0.28c0.057,0.197,0.157,0.508,0.304,0.902
			c0.295,0.79,0.784,1.928,1.554,3.188c0.771,1.253,1.816,2.646,3.219,3.828c0.688,0.607,1.479,1.137,2.329,1.604
			c0.847,0.481,1.785,0.813,2.747,1.109c0.975,0.244,1.98,0.437,2.997,0.483c0.508,0.033,1.017,0.059,1.521,0.028
			c0.505-0.005,1.006-0.029,1.497-0.096c0.988-0.08,1.938-0.281,2.84-0.471c0.895-0.223,1.746-0.438,2.513-0.711
			c0.779-0.234,1.474-0.514,2.091-0.76c0.623-0.232,1.155-0.466,1.586-0.673c0.872-0.4,1.37-0.629,1.37-0.629
			s-0.461,0.297-1.269,0.817c-0.4,0.269-0.897,0.576-1.487,0.899c-0.583,0.335-1.241,0.716-1.996,1.068
			c-0.738,0.388-1.574,0.732-2.467,1.096c-0.903,0.328-1.866,0.681-2.905,0.918c-0.514,0.146-1.048,0.249-1.596,0.334
			c-0.544,0.111-1.105,0.166-1.674,0.21c-1.14,0.109-2.316,0.061-3.498-0.063c-1.171-0.181-2.358-0.42-3.468-0.853
			c-1.114-0.414-2.184-0.93-3.139-1.551c-1.94-1.209-3.468-2.727-4.626-4.118c-1.16-1.399-1.955-2.693-2.473-3.636
			c-0.259-0.473-0.448-0.857-0.576-1.136c-0.13-0.298-0.199-0.458-0.199-0.458L234.046,681.481z"/>
	</g>
	<g>
		<path fill="#1C110B" d="M266.829,579.015c0.767-0.195,1.923-0.483,3.465-0.422c1.499,0.057,3.572,0.475,5.267,2.161
			c1.669,1.67,2.604,4.285,2.773,6.951c0.101,0.682,0.047,1.349,0.076,2.048c0.003,0.349,0.007,0.701,0.011,1.056
			c-0.021,0.348-0.039,0.699-0.061,1.053c-0.036,0.698-0.102,1.366-0.159,2.066c-0.046,0.681-0.091,1.374-0.138,2.075
			c-0.153,2.86-0.315,5.878-0.484,8.999c-0.193,3.134-0.432,6.382-0.768,9.682c-0.319,3.302-0.759,6.651-1.284,9.997
			c-0.552,3.34-1.187,6.675-1.976,9.928c-0.769,3.258-1.716,6.429-2.759,9.454c-1.024,3.032-2.256,5.889-3.539,8.536
			c-1.244,2.666-2.69,5.061-4.099,7.206c-1.432,2.134-2.858,4.009-4.276,5.538c-0.677,0.787-1.349,1.49-2.007,2.104
			c-0.321,0.312-0.63,0.61-0.926,0.896c-0.312,0.268-0.608,0.523-0.89,0.766c-1.101,0.994-2.058,1.66-2.703,2.119
			c-0.642,0.455-0.985,0.697-0.985,0.697s0.275-0.316,0.795-0.912c0.261-0.292,0.581-0.652,0.958-1.076
			c0.365-0.433,0.758-0.956,1.218-1.516c0.226-0.284,0.464-0.581,0.713-0.895c0.231-0.327,0.472-0.67,0.724-1.025
			c0.253-0.354,0.517-0.722,0.789-1.103c0.269-0.385,0.521-0.802,0.794-1.221c0.271-0.42,0.549-0.855,0.834-1.302
			c0.264-0.462,0.533-0.938,0.811-1.427c0.575-0.958,1.104-2.012,1.674-3.094c1.075-2.204,2.163-4.62,3.153-7.245
			c0.997-2.62,1.904-5.438,2.734-8.388c0.831-2.95,1.586-6.029,2.257-9.188c0.654-3.163,1.261-6.394,1.771-9.649
			c0.539-3.251,0.983-6.525,1.408-9.757c0.4-3.246,0.794-6.44,1.176-9.531c0.364-3.104,0.769-6.112,1.189-8.982
			c0.214-1.451,0.438-2.869,0.689-4.163c0.057-0.315,0.113-0.63,0.17-0.94c0.033-0.31,0.066-0.613,0.099-0.916
			c0.046-0.602,0.175-1.215,0.153-1.783c-0.007-0.574-0.014-1.137-0.021-1.688c-0.086-0.522-0.175-1.035-0.24-1.55
			c-0.117-0.486-0.298-0.928-0.434-1.391c-0.206-0.411-0.436-0.799-0.659-1.182c-1.045-1.405-2.604-2.128-3.956-2.43
			c-1.363-0.298-2.52-0.315-3.293-0.277c-0.777,0.045-1.196,0.11-1.196,0.11S266.063,579.233,266.829,579.015z"/>
	</g>
</g>
<g>
	<path fill="none" stroke="#1C110B" stroke-width="5" stroke-miterlimit="10" d="M273.802,477.754
		c-12.575,24.825-35.612,11.979-39.938,0c-4.323-11.981-35.61-46.592,0-43.611c35.612,2.982,15.644,0.68,40.603,0.015
		c24.961-0.665,9.984,22.296,9.984,22.296S286.375,452.927,273.802,477.754z"/>
	<path fill="none" stroke="#1C110B" stroke-width="5" stroke-miterlimit="10" d="M226.54,434.123
		c4.815-1.142,9.653-12.944,9.653-12.944c10.648-21.3,28.954-9.985,33.28-1.997c4.328,7.987,12.315,14.781,12.315,14.781"/>
</g>
</svg>
