<?xml version="1.0" encoding="utf-8"?>
<!-- Generator: Adobe Illustrator 16.0.0, SVG Export Plug-In . SVG Version: 6.00 Build 0)  -->
<!DOCTYPE svg PUBLIC "-//W3C//DTD SVG 1.1//EN" "http://www.w3.org/Graphics/SVG/1.1/DTD/svg11.dtd">
<svg version="1.1" id="Layer_3" xmlns="http://www.w3.org/2000/svg" xmlns:xlink="http://www.w3.org/1999/xlink" x="0px" y="0px"
	 width="500px" height="900px" viewBox="0 0 500 900" enable-background="new 0 0 500 900" xml:space="preserve">
<g>
	<path fill="none" stroke="#1C110B" stroke-width="5" stroke-miterlimit="10" d="M467.249,719.008
		c-16.187,31.699-32.71,1.35-32.71,1.35c-32.037-48.895-22.931-174.674-22.931-174.674c-11.127-52.271,20.907-39.791,25.965-101.501
		c5.059-61.709,29.337-16.187,29.337-16.187c50.92,77.896,22.256,195.92,20.232,222.559
		C485.119,677.195,467.248,719.009,467.249,719.008z"/>
	<path fill="none" stroke="#1C110B" stroke-width="5" stroke-miterlimit="10" d="M411.608,545.684
		c14.163-5.057,41.53-28.664,41.53-28.664c6.462-9.104,14.784-1.688,14.784-1.688c10.117,11.13,29.035,27.99,29.035,27.99"/>
</g>
<g>
	<path fill="none" stroke="#1A1009" stroke-width="5" stroke-miterlimit="10" d="M26.589,722.896
		c16.186,31.698,36.082,1.239,36.082,1.239c32.036-48.894,30.698-171.613,30.698-171.613c9.599-46.282-19.133-40.221-21.255-111.026
		c-0.842-28.008-14.056-32.462-24.051-28.073c-8.058,3.537-13.381,13.91-13.381,13.91c-17.018,26.035-27.014,59.816-29.294,90.542
		c-0.652,8.799,3.433,14.592,3.117,23.268c-1.87,51.68,2.429,98.79,3.583,113.976C14.114,681.76,26.588,722.897,26.589,722.896z"/>
	<path fill="none" stroke="#1A1009" stroke-width="5" stroke-miterlimit="10" d="M93.369,552.523
		c-14.162-5.056-35.655-29.252-35.655-29.252c-6.461-9.105-18.313-0.336-18.313-0.336c-13.645,19.896-28.998,20.119-28.998,20.119"
		/>
</g>
<g>
	<path fill="none" stroke="#1A1009" stroke-width="5" stroke-miterlimit="10" d="M277.907,677.945
		c-3.708,52.606-1.011,68.115-10.115,169.278c-9.105,101.162-30.688,0-30.688,0c-10.116-35.071-13.152-127.127-11.464-151.406
		c1.682-24.279-10.452-58-14.839-94.081c-4.382-36.081,24.279-28.664,24.279-28.664h31.697c28.442,0.222,31.556,13.185,30.368,22
		C296.532,599.634,277.906,677.945,277.907,677.945z"/>
	<path fill="none" stroke="#1A1009" stroke-width="5" stroke-miterlimit="10" d="M225.478,683.51c24.787,34.143,52.051,0,52.051,0"
		/>
	<g>
		<path fill="#1A1009" d="M285.15,590.796c0.228,1.49,0.422,2.994,0.506,4.506c0.059,0.755,0.077,1.512,0.093,2.271
			c0.028,0.76,0.028,1.519,0.008,2.278c0.009,1.525-0.146,3.04-0.272,4.562c-0.174,1.515-0.354,3.033-0.639,4.539
			c-0.229,1.517-0.66,2.988-0.997,4.487c-0.45,1.465-0.818,2.965-1.359,4.404l-0.788,2.171l-0.355,1l-0.416,1.092
			c-1.13,2.881-2.493,5.646-4.06,8.328c-1.586,2.667-3.386,5.251-5.552,7.597c-1.092,1.165-2.23,2.307-3.523,3.313
			c-1.291,1.003-2.667,1.937-4.179,2.689c-1.511,0.75-3.138,1.316-4.827,1.664c-1.701,0.308-3.442,0.385-5.153,0.22l0.387,0.004
			c-0.631,0.022-1.071,0.009-1.584-0.017c-0.496-0.022-0.985-0.063-1.47-0.114c-0.97-0.109-1.932-0.247-2.876-0.455
			c-0.947-0.203-1.882-0.451-2.802-0.745c-0.92-0.297-1.831-0.62-2.714-1.016c-0.443-0.189-0.881-0.394-1.309-0.618
			c-0.434-0.21-0.859-0.438-1.275-0.685c-0.842-0.469-1.653-0.994-2.433-1.556c-0.788-0.552-1.529-1.165-2.253-1.791l-1.052-0.977
			l-0.977-1.05c-0.617-0.724-1.243-1.441-1.775-2.223c-0.568-0.756-1.062-1.56-1.55-2.36c-0.462-0.813-0.919-1.632-1.29-2.486
			c-0.381-0.849-0.747-1.697-1.045-2.573c-0.337-0.858-0.587-1.745-0.844-2.624c-0.258-0.879-0.412-1.784-0.62-2.668
			c-0.171-0.895-0.303-1.794-0.434-2.688l-0.241-2.699l0.801,2.573l0.906,2.518c0.354,0.816,0.647,1.649,1.042,2.44
			c0.378,0.796,0.724,1.601,1.162,2.359c0.395,0.777,0.854,1.519,1.318,2.25c0.217,0.374,0.479,0.717,0.726,1.07
			c0.25,0.351,0.474,0.718,0.744,1.052c0.527,0.676,1.051,1.348,1.637,1.965c0.552,0.644,1.184,1.213,1.795,1.787l0.953,0.823
			l0.987,0.772c0.675,0.493,1.356,0.971,2.076,1.389c0.711,0.431,1.442,0.823,2.197,1.164c0.372,0.183,0.752,0.348,1.141,0.495
			c0.38,0.163,0.767,0.307,1.161,0.438c1.557,0.554,3.161,0.979,4.794,1.223c0.812,0.131,1.632,0.221,2.444,0.277
			c0.406,0.025,0.813,0.042,1.212,0.045c0.382,0.007,0.839-0.01,1.103-0.03l0.1-0.009l0.287,0.013
			c1.262,0.052,2.512-0.014,3.741-0.269c1.223-0.289,2.412-0.741,3.57-1.314c2.301-1.193,4.403-2.943,6.296-4.957
			c3.761-4.07,6.778-9.079,9.21-14.267l0.437-0.975l0.459-1.08l0.882-1.973c0.618-1.305,1.07-2.677,1.61-4.021
			c0.433-1.377,0.938-2.742,1.297-4.146c0.431-1.389,0.761-2.804,1.091-4.226c0.293-1.428,0.569-2.863,0.79-4.311
			c0.125-0.724,0.23-1.45,0.308-2.179c0.091-0.729,0.179-1.46,0.227-2.193c0.139-1.467,0.23-2.943,0.255-4.425
			c0.025-1.481,0.022-2.97-0.091-4.464C284.596,587.824,284.9,589.304,285.15,590.796z"/>
	</g>
</g>
<g>
	<path fill="none" stroke="#1A1009" stroke-width="5" stroke-miterlimit="10" d="M252.592,5.149c17.702,0,32.877,4.552,32.877,4.552
		c23.267,8.093,0,86.494,0,86.494c-18.21,50.581-1.519,136.569-22.762,198.279c-21.244,61.709-30.855,18.714-31.361-3.541
		c-0.506-22.256-1.519-111.279-4.046-127.973c-2.529-16.689,1.518-44.51-5.564-67.777c-7.081-23.268-11.634-70.814-11.634-70.814
		C206.056,1.608,227.3,8.183,227.3,8.183C237.121,8.696,234.886,5.148,252.592,5.149z"/>
	<path fill="none" stroke="#1A1009" stroke-width="5" stroke-miterlimit="10" d="M225.434,115.245c35.567,37.261,54.973,0,54.973,0"
		/>
	<g>
		<path fill="#1A1009" d="M278.478,7.208c0,0,0.006,0.436,0.017,1.198c0.012,0.779,0.014,1.881-0.01,3.185
			c-0.001,1.309-0.076,2.833-0.127,4.462c-0.023,0.813-0.095,1.656-0.143,2.511c-0.059,0.854-0.097,1.718-0.173,2.584
			c-0.084,0.865-0.168,1.729-0.251,2.58c-0.09,0.849-0.146,1.683-0.277,2.488c-0.116,0.805-0.228,1.581-0.332,2.318
			c-0.117,0.735-0.181,1.431-0.322,2.067c-0.52,2.534-0.867,4.222-0.867,4.222s0.035-1.715,0.089-4.288
			c0.022-0.638-0.04-1.338-0.059-2.071c-0.029-0.731-0.06-1.505-0.092-2.304c-0.015-0.796-0.11-1.623-0.175-2.459
			c-0.071-0.835-0.144-1.683-0.215-2.531c-0.079-0.846-0.197-1.692-0.292-2.523c-0.106-0.831-0.186-1.648-0.307-2.438
			c-0.241-1.577-0.435-3.047-0.665-4.298c-0.209-1.259-0.399-2.289-0.542-3c-0.145-0.728-0.228-1.144-0.228-1.144L278.478,7.208z"/>
	</g>
	<g>
		<path fill="#1A1009" d="M233.334,8.459c0,0-0.075,0.341-0.207,0.94c-0.129,0.581-0.305,1.427-0.497,2.463
			c-0.21,1.029-0.394,2.24-0.618,3.539c-0.111,0.65-0.191,1.323-0.292,2.008c-0.091,0.686-0.204,1.384-0.28,2.082
			c-0.133,1.396-0.323,2.802-0.4,4.119c-0.039,0.66-0.077,1.299-0.112,1.904c-0.026,0.605-0.091,1.185-0.08,1.712
			c0.002,2.131,0.004,3.551,0.004,3.551s-0.312-1.395-0.782-3.485c-0.129-0.524-0.191-1.1-0.3-1.708
			c-0.099-0.609-0.203-1.253-0.311-1.918c-0.216-1.335-0.34-2.762-0.519-4.197c-0.08-0.719-0.123-1.436-0.185-2.144
			c-0.054-0.707-0.123-1.407-0.158-2.082c-0.067-1.351-0.153-2.618-0.173-3.704c-0.039-1.082-0.055-1.999-0.056-2.649
			c-0.002-0.635-0.004-0.996-0.004-0.996L233.334,8.459z"/>
	</g>
</g>
<g>
	<path fill="none" stroke="#1A1009" stroke-width="5" stroke-miterlimit="10" d="M276.141,426.352
		c4.047,4.385,18.166,13.192,18.166,19.514c0,16.2-5.014,15.555-23.9,33.088c-18.884,17.533-35.065,0.677-42.822-4.383
		c-7.754-5.058-19.558-15.849-16.862-22.593c2.699-6.743,30.676-39.997,47.822-38.679
		C271.36,414.287,272.095,421.968,276.141,426.352z"/>
	<g>
		<path fill="#1A1009" d="M283.297,439.375c0.327,0.211,0.678,0.378,1.017,0.559l1.995,1.088l0.535,0.292l-0.335,0.594
			c-0.247,0.437-0.51,0.704-0.771,1.016c-0.133,0.15-0.267,0.306-0.406,0.449l-0.442,0.371c-0.599,0.473-1.179,1.055-1.838,1.41
			c-0.644,0.405-1.295,0.809-1.961,1.193c-0.663,0.393-1.364,0.634-2.05,0.959l-2.08,0.917c-0.695,0.318-1.418,0.467-2.129,0.71
			c-1.428,0.439-2.867,0.88-4.313,1.271l-4.37,0.852c-1.463,0.246-2.927,0.589-4.394,0.693l-4.407,0.421
			c-1.464,0.115-2.958,0.26-4.399,0.352c-5.828,0.273-11.646,0.362-17.485,0.191c-1.459-0.055-2.92-0.1-4.38-0.191
			c-1.462-0.081-2.924-0.186-4.387-0.338c-0.729-0.063-1.464-0.146-2.195-0.229c-0.73-0.076-1.463-0.158-2.197-0.293
			c-0.732-0.114-1.464-0.231-2.205-0.398c-0.722-0.124-1.495-0.355-2.232-0.611l-1.29-0.447l1.032-0.713
			c0.64-0.442,1.299-0.914,1.91-1.415c0.307-0.251,0.656-0.475,0.93-0.756l0.894-0.821c-0.192,0.354-0.392,0.711-0.602,1.066
			c-0.195,0.372-0.459,0.677-0.688,1.021c-0.481,0.675-1.007,1.288-1.554,1.924l-0.259-1.16c1.328,0.106,2.765,0.095,4.196,0.011
			c1.429-0.075,2.869-0.132,4.308-0.24l8.645-0.603c5.767-0.39,11.551-0.715,17.317-0.988c1.456-0.075,2.853-0.197,4.282-0.292
			l4.273-0.254c1.437-0.022,2.824-0.266,4.236-0.415l4.237-0.448l4.161-0.728c0.689-0.135,1.413-0.201,2.078-0.393l2.027-0.523
			c0.669-0.192,1.386-0.313,2.022-0.565c0.635-0.256,1.285-0.493,1.944-0.729c1.265-0.485,2.54-1.22,3.441-1.957l0.2,0.885
			c-0.583-0.545-1.165-1.079-1.728-1.622c-0.277-0.275-0.565-0.538-0.817-0.832l-0.771-0.872L283.297,439.375z"/>
	</g>
</g>
</svg>
