<?xml version="1.0" encoding="utf-8"?>
<!-- Generator: Adobe Illustrator 16.0.0, SVG Export Plug-In . SVG Version: 6.00 Build 0)  -->
<!DOCTYPE svg PUBLIC "-//W3C//DTD SVG 1.1//EN" "http://www.w3.org/Graphics/SVG/1.1/DTD/svg11.dtd">
<svg version="1.1" id="Layer_3" xmlns="http://www.w3.org/2000/svg" xmlns:xlink="http://www.w3.org/1999/xlink" x="0px" y="0px"
	 width="500px" height="900px" viewBox="0 0 500 900" enable-background="new 0 0 500 900" xml:space="preserve">
<g>
	<path fill="none" stroke="#1C110B" stroke-width="5" stroke-miterlimit="10" d="M491.388,540.345
		c10.714,55.566-22.763,172.059-22.763,172.059c-17.574,41.173-27.115,0-27.115,0c-34.646-82.347-29.625-172.225-29.625-172.225
		c-13.054-40.169,11.549-57.24,11.549-57.24c1.005-10.545,11.047-37.659,11.047-37.659c2.511-35.148,8.034-36.152,8.034-36.152
		c19.08-4.519,35.65,35.649,35.65,35.649c28.286,37.326,14.561,92.139,14.561,92.139L491.388,540.345z"/>
	<path fill="none" stroke="#1C110B" stroke-width="5" stroke-miterlimit="10" d="M412.555,539.342
		c9.207,1.172,15.397-8.536,24.436-19.08s19.751-19.08,35.147,0.837c15.397,19.918,19.249,19.247,19.249,19.247"/>
	<g>
		<path fill="#1C110B" d="M469.939,437.377c-0.916-1.108-1.786-2.235-2.717-3.317c-1.827-2.181-3.679-4.314-5.617-6.299
			c-1.924-1.988-3.968-3.833-6.093-5.238c-0.536-0.331-1.069-0.646-1.607-0.897c-0.533-0.253-1.063-0.468-1.574-0.604
			c-0.512-0.144-0.999-0.195-1.453-0.203c-0.229-0.011-0.436,0.046-0.657,0.047c-0.21,0.046-0.41,0.117-0.621,0.155l-0.737,0.133
			c0.118-0.006-0.081,0.019-0.154,0.036c-0.109,0.034-0.221,0.05-0.338,0.096c-0.234,0.074-0.473,0.182-0.708,0.294
			c-0.481,0.218-0.916,0.576-1.344,0.946c-0.408,0.409-0.799,0.859-1.144,1.382c-0.356,0.509-0.646,1.101-0.93,1.699
			c-0.243,0.629-0.515,1.253-0.694,1.941c-0.235,0.656-0.339,1.384-0.511,2.082l-0.031,0.132l-0.016,0.065l-0.008,0.033
			c0.027-0.251,0.007-0.063,0.013-0.118l-0.001,0.009l-0.002,0.02l-0.039,0.295l-0.08,0.595l-0.168,1.203
			c-0.105,0.803-0.25,1.591-0.378,2.385c-0.253,1.588-0.583,3.164-0.901,4.739l-0.549,2.354c-0.178,0.782-0.391,1.563-0.615,2.341
			c-0.444,1.553-0.91,3.1-1.497,4.617c-0.293,0.756-0.548,1.517-0.924,2.248c-0.37,0.729-0.718,1.456-1.1,2.157
			c0.098-0.812,0.229-1.599,0.341-2.383c0.158-0.768,0.197-1.572,0.271-2.359c0.061-0.793,0.183-1.564,0.239-2.354l0.155-2.367
			c0.145-1.563,0.188-3.152,0.305-4.718l0.256-4.718l0.117-2.354l0.056-1.168l0.023-0.591l0.012-0.298l0.054-0.446
			c0.132-0.858,0.216-1.716,0.446-2.582c0.176-0.862,0.453-1.729,0.767-2.588c0.354-0.853,0.735-1.707,1.254-2.525
			c0.492-0.826,1.128-1.601,1.841-2.315c0.748-0.689,1.559-1.343,2.517-1.815c0.473-0.242,0.97-0.445,1.493-0.605
			c0.257-0.087,0.538-0.146,0.813-0.209c0.316-0.056,0.507-0.104,1.023-0.129l-0.737,0.133c0.484-0.127,0.974-0.265,1.466-0.35
			c0.493-0.039,0.999-0.109,1.483-0.091c0.979,0.033,1.914,0.21,2.773,0.483c0.864,0.271,1.652,0.63,2.394,1.027
			c0.735,0.409,1.408,0.865,2.062,1.335c0.625,0.489,1.252,0.975,1.812,1.509c0.578,0.52,1.112,1.067,1.639,1.616
			c0.525,0.549,1.018,1.12,1.496,1.697c0.475,0.579,0.944,1.158,1.385,1.757c0.888,1.19,1.713,2.41,2.487,3.658
			c0.78,1.242,1.502,2.516,2.176,3.809c0.661,1.302,1.329,2.592,1.897,3.933c0.584,1.331,1.132,2.678,1.583,4.064L469.939,437.377z"
			/>
	</g>
	<g>
		<path fill="#1C110B" d="M458.248,541.937c1.084,2.374,2.007,4.816,2.908,7.268c0.892,2.456,1.678,4.951,2.39,7.469
			c0.727,2.512,1.382,5.048,1.931,7.608c0.555,2.561,1.056,5.134,1.481,7.721c0.242,1.29,0.396,2.592,0.574,3.891
			c0.188,1.299,0.339,2.601,0.468,3.907c0.293,2.607,0.451,5.228,0.618,7.848l0.138,3.937c0.038,1.312,0.022,2.625,0.035,3.938
			c0.014,1.314-0.025,2.625-0.075,3.938c-0.054,1.311-0.06,2.625-0.155,3.935c-0.169,2.62-0.355,5.24-0.657,7.847
			c-0.232,2.615-0.679,5.204-1.035,7.804c-0.198,1.296-0.462,2.582-0.695,3.872c-0.242,1.287-0.464,2.579-0.766,3.855
			c-0.568,2.561-1.144,5.115-1.849,7.638c-0.356,1.26-0.675,2.529-1.064,3.778l-1.175,3.744c-0.733,2.508-1.702,4.943-2.587,7.396
			c-0.937,2.437-1.944,4.846-2.948,7.247l-0.043,0.104l-0.011,0.018c-0.224,0.377-0.426,0.662-0.655,0.974
			c-0.229,0.302-0.462,0.596-0.712,0.878c-0.496,0.566-1.046,1.095-1.658,1.563c-0.306,0.233-0.626,0.454-0.968,0.645
			c-0.338,0.194-0.693,0.37-1.07,0.501c-0.37,0.143-0.764,0.236-1.162,0.289c-0.395,0.058-0.801,0.07-1.196,0.029
			c-0.395-0.028-0.787-0.109-1.152-0.233c-0.374-0.108-0.718-0.28-1.055-0.448c-0.659-0.366-1.236-0.824-1.756-1.325
			c-0.508-0.512-0.963-1.059-1.377-1.629c-0.415-0.57-0.776-1.17-1.125-1.773c0.458,0.527,0.919,1.046,1.407,1.531
			c0.492,0.483,1.011,0.93,1.558,1.322c0.285,0.177,0.55,0.384,0.846,0.529c0.281,0.171,0.583,0.293,0.878,0.416
			c0.303,0.098,0.602,0.199,0.907,0.239c0.303,0.059,0.607,0.074,0.904,0.053c0.297-0.011,0.59-0.063,0.872-0.149
			c0.283-0.076,0.557-0.193,0.821-0.331c0.267-0.129,0.521-0.295,0.765-0.478c0.246-0.179,0.479-0.383,0.702-0.6
			c0.445-0.433,0.85-0.924,1.21-1.449c0.183-0.262,0.35-0.535,0.511-0.809c0.154-0.268,0.316-0.576,0.419-0.812l-0.054,0.12
			c0.707-2.48,1.523-4.916,2.205-7.394l0.996-3.721l0.518-1.853l0.453-1.869l0.905-3.732c0.299-1.244,0.526-2.506,0.793-3.756
			c0.576-2.492,1.003-5.014,1.462-7.526c0.473-2.508,0.794-5.044,1.187-7.563c0.303-2.534,0.66-5.061,0.868-7.602
			c0.283-2.535,0.432-5.08,0.6-7.623c0.101-1.271,0.113-2.546,0.176-3.818c0.059-1.272,0.102-2.548,0.101-3.821
			c0.014-1.273,0.056-2.549,0.044-3.823l-0.056-3.823c-0.074-2.548-0.149-5.099-0.338-7.644c-0.066-1.274-0.153-2.547-0.276-3.817
			c-0.112-1.271-0.212-2.544-0.354-3.813c-0.247-2.543-0.569-5.08-0.945-7.61c-0.396-2.526-0.789-5.058-1.272-7.575
			c-0.462-2.522-1.041-5.021-1.604-7.53c-1.201-4.997-2.563-9.975-4.361-14.845C456.035,537.219,457.186,539.563,458.248,541.937z"
			/>
	</g>
</g>
<g>
	<path fill="none" stroke="#1C110B" stroke-width="5" stroke-miterlimit="10" d="M87.754,508.949
		c6.273,12.722-1.92,33.81-1.92,33.81c7.03,37.489-7.031,102.431-13.391,116.488c-6.361,14.06-12.719,36.823-18.743,57.576
		c-6.025,20.752-10.458,14.731-10.458,14.731c-17.151-1.336-24.692-59.919-24.692-59.919C0.476,583.597,7.502,544.099,7.502,544.099
		C-4.547,440.327,30.435,428.444,37.463,416.895c7.031-11.549,24.102-17.238,23.433,8.201c-0.669,25.438,8.536,12.888,11.549,38.495
		c3.014,25.607,9.038,32.639,9.038,32.639L87.754,508.949z"/>
	<path fill="none" stroke="#1C110B" stroke-width="5" stroke-miterlimit="10" d="M7.102,540.497
		c28.05-8.958,31.199-14.475,40.457-14.14s38.275,16.401,38.275,16.401"/>
	<g>
		<path fill="#1C110B" d="M56.622,432.203c-0.407-0.543-0.944-1.166-1.559-1.832c-0.611-0.673-1.393-1.317-2.228-1.895
			c-0.836-0.587-1.805-0.979-2.77-1.091l-0.36-0.053l-0.37,0.016c-0.246,0.012-0.485-0.021-0.742,0.063l-0.376,0.078l-0.188,0.031
			l-0.095,0.014l-0.013,0.001c0.363-0.079,0.093-0.018,0.169-0.035l-0.031,0.012l-0.063,0.021c-0.341,0.118-0.684,0.236-1.031,0.356
			c-0.084,0.03-0.182,0.058-0.254,0.091l-0.168,0.106c-0.112,0.07-0.224,0.139-0.338,0.2c-0.235,0.14-0.435,0.203-0.73,0.418
			c-0.55,0.374-1.11,0.705-1.669,1.152l-0.843,0.631l-0.831,0.699c-0.566,0.446-1.113,0.946-1.658,1.45
			c-0.563,0.478-1.104,1-1.643,1.517c-0.541,0.511-1.082,1.031-1.609,1.558c-1.06,1.042-2.102,2.092-3.102,3.117
			c-2.019,2.073-3.903,4.009-5.517,5.666c-1.639,1.665-3.02,3.063-4.026,4.025c-0.979,0.979-1.591,1.518-1.591,1.518
			s0.243-0.769,0.765-2.071c0.533-1.295,1.354-3.122,2.529-5.203c0.577-1.048,1.257-2.148,1.992-3.305
			c0.759-1.14,1.571-2.337,2.486-3.523c0.439-0.608,0.929-1.195,1.42-1.792c0.482-0.605,0.991-1.202,1.534-1.782
			c1.05-1.189,2.199-2.334,3.413-3.438c0.613-0.544,1.229-1.085,1.895-1.592c0.322-0.26,0.649-0.513,0.98-0.76l1.05-0.7
			c0.671-0.483,1.453-0.877,2.2-1.27c0.734-0.374,1.837-0.802,2.576-0.988c0.359-0.073,0.714-0.145,1.068-0.217l0.32-0.065
			l0.175-0.009l0.345-0.014l0.683-0.012c0.446-0.032,0.9,0.063,1.339,0.132l0.651,0.113c0.21,0.061,0.414,0.142,0.616,0.214
			c1.631,0.563,2.891,1.558,3.748,2.579c0.872,1.021,1.471,2.045,1.877,2.98c0.437,0.92,0.683,1.765,0.863,2.454
			c0.191,0.685,0.256,1.247,0.314,1.619c0.051,0.377,0.056,0.579,0.056,0.579S57.446,433.282,56.622,432.203z"/>
	</g>
</g>
<g>
	<path fill="none" stroke="#1C110B" stroke-width="5" stroke-miterlimit="10" d="M273.604,257.246
		c-3.012,10.711-3.012,27.114-3.012,27.114c11.714,43.851-1.004,42.849-1.004,42.849c-14.395-2.677-36.151-81.008-36.151-81.008
		c-15.734-51.216-12.051-80.338-12.384-96.07c-0.334-15.731-0.671-38.161-6.025-62.933c-5.355-24.773-0.338-12.721-4.018-43.516
		c-3.684-30.796,26.11-38.496,33.807-40.169c7.701-1.674,23.098,14.728,23.098,14.728c29.122,5.689,27.451,41.844,19.75,67.283
		c-7.7,25.438-6.696,49.543-6.696,49.543C283.648,157.159,276.619,246.535,273.604,257.246z"/>
	<path fill="none" stroke="#1C110B" stroke-width="5" stroke-miterlimit="10" d="M220.066,124.08
		c27.97,37.218,60.959,2.972,60.959,2.972"/>
	<g>
		<path fill="#1C110B" d="M269.868,19.802c0,0-0.198,0.193-0.546,0.532c-0.354,0.35-0.851,0.872-1.438,1.513
			c-0.581,0.646-1.255,1.41-1.937,2.263c-0.692,0.847-1.388,1.782-2.048,2.745c-0.666,0.961-1.264,1.962-1.797,2.925
			c-0.243,0.493-0.479,0.968-0.702,1.42c-0.19,0.468-0.37,0.911-0.537,1.319c-0.134,0.423-0.255,0.81-0.362,1.152
			c-0.123,0.347-0.157,0.657-0.213,0.913c-0.101,0.519-0.157,0.813-0.157,0.813s-0.021-0.301-0.057-0.828
			c-0.012-0.265-0.06-0.593-0.029-0.962c0.017-0.374,0.035-0.797,0.056-1.257c0.059-0.459,0.122-0.957,0.189-1.483
			c0.104-0.521,0.216-1.073,0.331-1.642c0.28-1.125,0.624-2.325,1.044-3.494c0.83-2.346,1.88-4.611,2.744-6.278
			c0.435-0.832,0.812-1.521,1.094-2.004c0.291-0.489,0.458-0.769,0.458-0.769L269.868,19.802z"/>
	</g>
	<g>
		<path fill="#1C110B" d="M228.039,10.685c0,0,0.158,1.28,0.339,3.164c0.182,1.892,0.398,4.412,0.522,6.94
			c0.127,2.528,0.158,5.066,0.034,6.964c-0.03,0.476-0.055,0.907-0.112,1.292c-0.056,0.385-0.073,0.716-0.142,0.987
			c-0.115,0.537-0.182,0.844-0.182,0.844s-0.012-0.312-0.033-0.856c0-0.269-0.064-0.6-0.104-0.973
			c-0.038-0.373-0.12-0.792-0.206-1.248c-0.341-1.821-0.985-4.214-1.719-6.577c-0.729-2.366-1.547-4.706-2.177-6.451
			c-0.633-1.753-1.075-2.883-1.075-2.883L228.039,10.685z"/>
	</g>
</g>
<g>
	<path fill="none" stroke="#1C110B" stroke-width="5" stroke-miterlimit="10" d="M281.525,683.339
		c-0.504,45.188-7.031,101.426-13.057,116.489c-6.024,15.063-2.342,37.155-20.419,77.994c-18.074,40.838-19.414,0-19.414,0
		c-1.004-7.365,6.359-47.868-1.004-76.99c-7.364-29.123-7.699-56.572-5.689-91.052c2.007-34.479-9.374-48.872-12.723-83.015
		c-3.348-34.145,10.377-29.458,32.136-47.199c21.758-17.74,15.808-11.499,38.831,3.348c17.906,11.55,13.89,30.882,13.89,30.882
		C292.403,620.493,289.243,619.371,281.525,683.339z"/>
	<g>
		<path fill="#1C110B" d="M280.524,590.176c0.72,0.152,1.492,1.083,1.81,2.305c0.349,1.218,0.569,2.743,0.563,4.457
			c0.029,0.866-0.039,1.761-0.06,2.728c-0.059,0.953-0.185,1.944-0.283,2.99c-0.145,1.031-0.297,2.107-0.453,3.218
			c-0.183,1.104-0.417,2.236-0.633,3.407c-0.472,2.288-0.969,4.7-1.482,7.196c-0.521,2.496-1.069,5.078-1.667,7.695
			c-0.584,2.622-1.231,5.278-1.895,7.934c-0.688,2.65-1.389,5.301-2.166,7.892c-0.757,2.598-1.582,5.136-2.446,7.576
			c-0.861,2.442-1.783,4.78-2.754,6.968c-0.965,2.188-2.015,4.215-3.104,6.029c-1.088,1.819-2.249,3.417-3.513,4.673
			c-1.236,1.265-2.645,2.169-3.975,2.42c-1.342,0.271-2.351-0.166-2.906-0.484c-0.573-0.329-0.804-0.599-0.814-0.58
			c0,0,0.08,0.03,0.235,0.091c0.153,0.064,0.385,0.146,0.688,0.223c0.599,0.17,1.533,0.237,2.506-0.199
			c0.979-0.432,1.919-1.412,2.795-2.692c0.873-1.292,1.646-2.932,2.422-4.746c1.483-3.679,2.85-8.169,4.191-13.032
			c0.673-2.432,1.326-4.963,2-7.537c0.659-2.583,1.328-5.207,1.997-7.831c0.681-2.631,1.363-5.262,2.034-7.851
			c0.678-2.592,1.373-5.141,2.079-7.605c0.694-2.456,1.437-4.86,2.146-7.081c0.349-1.104,0.688-2.177,1.017-3.215
			c0.31-1.042,0.606-2.048,0.893-3.015c0.248-0.972,0.485-1.903,0.711-2.79c0.186-0.883,0.418-1.732,0.539-2.526
			c0.285-1.595,0.421-2.983,0.365-4.114c-0.059-1.127-0.416-1.954-0.944-2.231c-0.52-0.293-0.919-0.155-0.903-0.166
			C279.509,590.305,279.822,590.02,280.524,590.176z"/>
	</g>
	<g>
		<path fill="#1C110B" d="M246.448,599.92c0.228,1.542,0.375,3.087,0.543,4.633c0.176,1.547,0.271,3.095,0.387,4.645
			c0.113,1.549,0.215,3.102,0.271,4.653c0.135,3.104,0.164,6.213,0.135,9.324c-0.052,3.11-0.18,6.225-0.406,9.338
			c-0.237,3.112-0.562,6.225-1.027,9.332c-0.469,3.104-1.071,6.205-1.891,9.28c-0.851,3.064-1.86,6.132-3.452,9.044
			c-0.792,1.453-1.76,2.863-3.012,4.104c-0.65,0.604-1.345,1.18-2.169,1.616c-0.817,0.439-1.74,0.714-2.669,0.795l-0.099,0.012
			c-0.275-0.007-0.465-0.029-0.685-0.058c-0.212-0.027-0.42-0.064-0.625-0.104c-0.412-0.08-0.813-0.188-1.209-0.31
			c-0.392-0.133-0.78-0.273-1.151-0.456c-0.367-0.186-0.731-0.374-1.069-0.606c-0.35-0.211-0.661-0.479-0.977-0.727
			c-0.29-0.284-0.597-0.539-0.836-0.863c-0.264-0.298-0.479-0.631-0.688-0.96c-0.218-0.32-0.359-0.691-0.531-1.028
			c0.275,0.273,0.513,0.566,0.798,0.812c0.281,0.249,0.559,0.49,0.872,0.688c0.292,0.218,0.622,0.381,0.928,0.564
			c0.331,0.147,0.646,0.311,0.987,0.415c0.329,0.127,0.677,0.207,1.017,0.287c0.345,0.068,0.687,0.131,1.031,0.172
			c0.346,0.033,0.691,0.057,1.034,0.053c0.171-0.001,0.341-0.005,0.507-0.019c0.159-0.01,0.348-0.031,0.452-0.053l-0.098,0.011
			c1.183-0.37,2.157-1.168,2.958-2.236c0.785-1.083,1.4-2.355,1.939-3.68c1.047-2.675,1.751-5.579,2.326-8.509
			c0.583-2.936,1.029-5.923,1.409-8.93c0.203-1.502,0.377-3.01,0.532-4.522c0.177-1.51,0.327-3.026,0.467-4.545
			c0.297-3.035,0.556-6.082,0.803-9.135l0.743-9.18l0.388-4.603c0.136-1.536,0.234-3.073,0.393-4.612
			c0.15-1.539,0.262-3.079,0.434-4.623c0.147-1.543,0.312-3.088,0.499-4.638C246.006,596.834,246.241,598.375,246.448,599.92z"/>
	</g>
	<path fill="none" stroke="#1C110B" stroke-width="5" stroke-miterlimit="10" d="M221.379,688.01
		c27.115,36.485,60.146-4.672,60.146-4.672"/>
</g>
<g>
	<path fill="none" stroke="#1C110B" stroke-width="5" stroke-miterlimit="10" d="M275.708,427.322
		c5.798,7.62,17.018,13.14,16.947,23.098c-0.196,26.912-31.13,46.865-41.176,47.533c-10.044,0.669-33.807-8.701-39.163-36.819
		c-5.354-28.119,1.675-16.068,16.067-35.43c14.394-19.361,23.289-18.209,23.289-18.209
		C266.794,406.484,267.989,417.174,275.708,427.322z"/>
	<g>
		<path fill="#1C110B" d="M276.115,435.823c0.498,0.197,1.268,0.376,2.138,1.075c0.216,0.174,0.448,0.4,0.629,0.744
			c0.086,0.182,0.182,0.364,0.182,0.619c0.007,0.12,0.016,0.247,0.005,0.369c-0.03,0.112-0.066,0.23-0.108,0.349
			c-0.077,0.262-0.211,0.417-0.349,0.594c-0.141,0.194-0.294,0.326-0.448,0.439c-0.317,0.273-0.645,0.454-0.984,0.64
			c-0.296,0.168-0.602,0.341-0.917,0.521c-0.313,0.179-0.559,0.372-0.848,0.56c-0.608,0.435-1.249,0.892-1.917,1.369
			c-1.379,0.974-3.022,2.071-5.091,2.808c-2.068,0.722-4.516,0.945-6.866,0.575c-0.589-0.09-1.189-0.172-1.752-0.346
			c-0.567-0.163-1.168-0.286-1.71-0.508c-0.526-0.192-1.056-0.387-1.587-0.58c-0.506-0.195-1.016-0.392-1.526-0.588
			c-1.796-0.609-3.725-1.065-5.594-1.09c-1.874-0.053-3.734,0.35-5.647,0.957c-1.902,0.625-3.857,1.468-5.827,2.237
			c-1.013,0.388-1.91,0.747-3.017,1.108c-0.424,0.135-1.08,0.309-1.655,0.424c-0.556,0.106-1.104,0.18-1.644,0.22
			c-2.158,0.147-4.136-0.117-5.869-0.584c-1.738-0.458-3.237-1.126-4.487-1.848c-1.256-0.711-2.249-1.535-2.924-2.375
			c-0.331-0.427-0.582-0.875-0.659-1.328c-0.084-0.448,0.04-0.877,0.252-1.086c0.403-0.43,0.716-0.442,0.697-0.47
			c0.023,0.01-0.262,0.18-0.45,0.617c-0.218,0.45,0.143,1.042,0.858,1.558c1.473,1.01,4.113,1.847,7.213,2.077
			c1.546,0.124,3.222,0.053,4.857-0.291c0.405-0.098,0.811-0.198,1.208-0.326c0.374-0.13,0.672-0.235,1.183-0.465
			c0.863-0.42,1.744-0.85,2.64-1.285c1.848-0.907,3.785-1.937,6.018-2.759c2.208-0.839,4.759-1.426,7.345-1.378
			c2.588,0.07,5.042,0.676,7.338,1.604c0.981,0.431,1.954,0.859,2.915,1.282c0.439,0.221,0.886,0.329,1.325,0.493
			c0.439,0.172,0.876,0.276,1.311,0.383c1.742,0.424,3.422,0.478,5.037,0.164c1.614-0.33,3.163-1,4.664-1.695
			c0.754-0.342,1.495-0.697,2.242-0.999c0.394-0.146,0.797-0.313,1.146-0.417c0.349-0.102,0.687-0.202,1.015-0.298
			c0.593-0.128,1.035-0.388,1.204-0.523c0.017-0.016,0.04-0.03,0.067-0.049c0.01-0.018,0.009-0.035,0.021-0.055
			c0.044-0.032,0.022-0.106,0.019-0.177c-0.018-0.149-0.106-0.346-0.23-0.513c-0.497-0.697-1.149-1.187-1.549-1.499
			c-0.418-0.313-0.655-0.471-0.655-0.471S275.609,435.659,276.115,435.823z"/>
	</g>
	<g>
		<path fill="#1C110B" d="M251.209,441.613c0,0-0.002-0.219-0.007-0.601c-0.012-0.411,0.001-0.959,0.021-1.605
			c0.05-1.298,0.171-3.005,0.404-4.687c0.123-0.842,0.226-1.674,0.395-2.451c0.161-0.775,0.267-1.492,0.442-2.102
			c0.313-1.204,0.522-2.009,0.522-2.009s0.103,0.818,0.258,2.045c0.059,0.607,0.228,1.315,0.358,2.063
			c0.125,0.748,0.333,1.539,0.521,2.321c0.387,1.565,0.876,3.093,1.272,4.207c0.203,0.559,0.374,1.015,0.5,1.302
			c0.132,0.314,0.206,0.496,0.206,0.496L251.209,441.613z"/>
	</g>
	<g>
		<path fill="#1C110B" d="M243.285,438.81c-0.019,0.005,0.088-0.026,0.094-0.021c-0.064,0.026-0.142,0.067-0.222,0.132
			c-0.039,0.032-0.079,0.068-0.116,0.111c-0.029,0.032-0.092,0.123-0.064,0.096c0.035-0.015,0.088-0.024,0.177-0.035
			c0.104-0.107,0.223-0.228,0.351-0.358c0.149-0.107,0.269-0.371,0.418-0.596c0.138-0.243,0.321-0.472,0.454-0.776
			c0.134-0.307,0.271-0.624,0.414-0.945c0.135-0.329,0.308-0.652,0.407-1.015c0.23-0.719,0.461-1.438,0.678-2.11
			c0.116-0.341,0.173-0.682,0.257-1c0.076-0.322,0.15-0.625,0.216-0.906c0.269-1.133,0.447-1.889,0.447-1.889
			s0.134,0.766,0.334,1.916c0.05,0.29,0.104,0.604,0.161,0.938c0.05,0.334,0.134,0.686,0.162,1.055
			c0.072,0.746,0.146,1.543,0.223,2.339c0.053,0.4,0.022,0.816,0.029,1.225c-0.003,0.414-0.007,0.819-0.01,1.214
			c-0.004,0.396-0.093,0.809-0.138,1.193c-0.066,0.392-0.078,0.741-0.224,1.128c-0.12,0.374-0.229,0.715-0.354,1.03
			c-0.195,0.356-0.39,0.666-0.559,0.916c-0.092,0.136-0.356,0.371-0.514,0.499c-0.182,0.146-0.345,0.255-0.478,0.338
			c-0.146,0.098-0.131,0.098-0.147,0.106L243.285,438.81z"/>
	</g>
</g>
</svg>
