<?xml version="1.0" encoding="utf-8"?>
<!-- Generator: Adobe Illustrator 16.0.0, SVG Export Plug-In . SVG Version: 6.00 Build 0)  -->
<!DOCTYPE svg PUBLIC "-//W3C//DTD SVG 1.1//EN" "http://www.w3.org/Graphics/SVG/1.1/DTD/svg11.dtd">
<svg version="1.1" id="Layer_3" xmlns="http://www.w3.org/2000/svg" xmlns:xlink="http://www.w3.org/1999/xlink" x="0px" y="0px"
	 width="500px" height="900px" viewBox="0 0 500 900" enable-background="new 0 0 500 900" xml:space="preserve">
<g>
	<path fill="none" stroke="#1C110B" stroke-width="5" stroke-miterlimit="10" d="M287.933,122.313
		c-0.99,22.775-3.96,68.326-7.262,85.821c-3.303,17.494-14.192,88.788-13.202,97.37c0.99,8.581,5.94,27.397-5.941,30.697
		s-15.514-14.521-15.514-14.521c-22.776-58.754-20.795-107.936-28.717-168.009c-7.923-60.072,1.651-23.766-13.202-69.645
		c-14.854-45.882,9.57-54.134,9.57-54.134c45.552-41.918,39.219-23.823,69.646-8.25c38.282,19.592,18.484,53.141,18.484,53.141
		S288.924,99.538,287.933,122.313z"/>
	<path fill="none" stroke="#1C110B" stroke-width="5" stroke-miterlimit="10" d="M214.126,125.686
		c21.914,9.974,32.218,9.831,43.77,10.49c11.552,0.658,29.792-8.577,29.792-8.577"/>
	<g>
		<path fill="#1C110B" d="M285.753,22.182c0,0-0.729,2.537-1.819,6.342c-0.555,1.902-1.201,4.122-1.895,6.5
			c-0.679,2.38-1.474,4.902-2.231,7.43c-0.767,2.525-1.532,5.051-2.25,7.418c-0.769,2.354-1.485,4.551-2.101,6.435
			c-1.228,3.759-2.047,6.265-2.047,6.265s0.518-2.586,1.292-6.465c0.387-1.937,0.836-4.195,1.319-6.615
			c0.432-2.431,0.893-5.025,1.354-7.619c0.451-2.594,0.94-5.178,1.333-7.616c0.404-2.433,0.782-4.704,1.106-6.65
			c0.633-3.9,1.054-6.501,1.054-6.501L285.753,22.182z"/>
	</g>
	<g>
		<path fill="#1C110B" d="M230.64,17.303c0,0-0.074,0.634-0.206,1.74c-0.121,1.104-0.296,2.683-0.505,4.576
			c-0.208,1.899-0.424,4.116-0.641,6.494c-0.238,2.378-0.412,4.916-0.616,7.458c-0.203,2.541-0.308,5.082-0.455,7.471
			c-0.073,1.194-0.073,2.346-0.111,3.44c-0.028,1.095-0.056,2.131-0.08,3.088c-0.04,0.958,0.025,1.828,0.03,2.606
			c0.018,0.777,0.034,1.455,0.047,2.014c0.026,1.119,0.042,1.759,0.042,1.759s-0.093-0.632-0.256-1.737
			c-0.081-0.555-0.18-1.228-0.293-2c-0.101-0.773-0.273-1.646-0.352-2.603c-0.093-0.956-0.192-1.993-0.298-3.089
			c-0.097-1.099-0.238-2.257-0.313-3.456c-0.146-2.397-0.354-4.96-0.463-7.523c-0.109-2.561-0.246-5.129-0.3-7.533
			c-0.076-2.404-0.134-4.651-0.158-6.576c-0.024-1.932-0.043-3.54-0.059-4.666c-0.005-1.122-0.007-1.764-0.007-1.764L230.64,17.303z
			"/>
	</g>
</g>
<g>
	<path fill="none" stroke="#1C110B" stroke-width="5" stroke-miterlimit="10" d="M491.318,444.687
		c9.24,21.784,1.953,77.896,1.953,77.896c4.263,123.777-7.728,113.217-12.845,162.891c-5.116,49.675-31.356,38.124-31.356,38.124
		c-14.028-10.233-19.64-34.163-19.64-34.163c-21.29-76.742-21.043-167.843-21.043-167.843
		c-17.823-40.352-12.625-44.065-9.901-60.898c2.723-16.835,14.111-14.11,14.111-14.11c5.198-1.98,8.911-9.902,8.911-9.902
		c8.417-14.111,2.971,3.713,17.824-26.984c14.853-30.697,36.639,7.427,36.639,7.427
		C480.651,426.267,482.076,422.902,491.318,444.687z"/>
	<path fill="none" stroke="#1C110B" stroke-width="5" stroke-miterlimit="10" d="M408.39,522.584
		c8.832,4.291,17.903-12.543,40.678-13.532c22.776-0.99,44.203,13.532,44.203,13.532"/>
	<g>
		<path fill="#1C110B" d="M446.229,411.459c0.243,0.516,0.622,1.272,0.969,2.287c0.176,0.507,0.377,1.071,0.543,1.7
			c0.201,0.624,0.337,1.316,0.477,2.062c0.171,0.743,0.232,1.552,0.345,2.407c0.082,0.857,0.072,1.769,0.067,2.725
			c-0.095,0.948-0.082,1.964-0.314,2.987c-0.1,0.515-0.202,1.039-0.306,1.572c-0.166,0.521-0.335,1.048-0.506,1.584
			c-0.089,0.27-0.178,0.54-0.267,0.813c-0.104,0.265-0.241,0.521-0.361,0.785c-0.255,0.525-0.511,1.058-0.77,1.596
			c-0.281,0.526-0.639,1.014-0.972,1.526c-0.354,0.494-0.653,1.052-1.087,1.492c-0.83,0.912-1.616,1.937-2.625,2.701
			c-0.484,0.41-0.973,0.822-1.463,1.237c-0.491,0.409-0.951,0.709-1.432,1.071c-1.888,1.378-3.806,2.778-5.724,4.179
			c-1.898,1.384-3.717,2.802-5.345,4.263c-1.618,1.476-3,3.021-4.133,4.732c-1.133,1.708-2.07,3.541-2.892,5.357
			c-0.823,1.841-1.522,3.563-2.257,5.286c-0.67,1.611-1.299,3.129-1.791,4.478c-0.494,1.354-0.893,2.545-1.18,3.541
			c-0.12,0.498-0.234,0.946-0.345,1.341c-0.111,0.395-0.115,0.729-0.165,1.008c-0.082,0.563-0.125,0.864-0.125,0.864
			s-0.057-0.297-0.162-0.855c-0.036-0.282-0.138-0.642-0.149-1.057c-0.021-0.416-0.032-0.896-0.038-1.438
			c0.022-1.072,0.082-2.388,0.307-3.861c0.194-1.489,0.484-3.133,0.928-4.936c0.055-0.223,0.109-0.446,0.165-0.675
			c0.049-0.211,0.097-0.425,0.146-0.64c0.106-0.464,0.217-0.937,0.328-1.416c0.229-0.961,0.522-1.947,0.816-2.967
			c0.632-2.03,1.439-4.189,2.622-6.328c1.175-2.141,2.773-4.201,4.586-5.953c1.799-1.776,3.764-3.309,5.716-4.768
			c1.97-1.427,3.948-2.815,5.906-4.12c0.475-0.328,1.006-0.66,1.428-0.981c0.421-0.315,0.839-0.628,1.256-0.94
			c0.889-0.574,1.529-1.364,2.29-2.031c0.396-0.325,0.65-0.751,0.974-1.124c0.297-0.392,0.64-0.749,0.913-1.147
			c0.257-0.411,0.51-0.818,0.76-1.22c0.123-0.203,0.262-0.397,0.372-0.605l0.3-0.635c0.204-0.422,0.404-0.839,0.602-1.25
			c0.151-0.433,0.301-0.861,0.446-1.28c0.354-0.83,0.479-1.698,0.708-2.514c0.299-1.66,0.505-3.234,0.53-4.651
			c0.029-0.709,0.019-1.374-0.001-1.994c0.001-0.623-0.047-1.191-0.087-1.71c-0.167-2.073-0.42-3.268-0.42-3.268
			S445.974,410.945,446.229,411.459z"/>
	</g>
	<g>
		<path fill="#1C110B" d="M417.92,454.433c0.002,0.012-0.001-0.062,0.013-0.073c0.014-0.015,0.035-0.048,0.043-0.144
			c0.027-0.164,0.043-0.429,0.039-0.751c-0.018-0.642-0.132-1.543-0.53-2.354c-0.188-0.415-0.451-0.804-0.759-1.135
			c-0.146-0.185-0.319-0.315-0.484-0.458c-0.162-0.151-0.336-0.265-0.504-0.362c-0.329-0.224-0.641-0.352-0.863-0.442
			c-0.225-0.096-0.354-0.149-0.354-0.149s0.137-0.023,0.377-0.064c0.245-0.044,0.6-0.108,1.042-0.098
			c0.224-0.008,0.469-0.007,0.726,0.037c0.26,0.035,0.547,0.062,0.824,0.152c0.575,0.142,1.188,0.393,1.75,0.738
			c0.575,0.336,1.098,0.766,1.551,1.208c0.451,0.444,0.828,0.906,1.128,1.325c0.297,0.42,0.522,0.793,0.671,1.081
			c0.073,0.13,0.137,0.277,0.179,0.384c0.044,0.109,0.051,0.103,0.054,0.114L417.92,454.433z"/>
	</g>
	<g>
		<path fill="#1C110B" d="M425.333,443.895c0,0,0.156-0.192,0.428-0.527c0.254-0.305,0.617-0.78,1.051-1.39
			c0.451-0.59,0.898-1.33,1.426-2.108c0.238-0.401,0.485-0.817,0.735-1.239c0.242-0.429,0.525-0.854,0.734-1.306
			c0.427-0.897,0.961-1.786,1.282-2.669c0.337-0.879,0.733-1.7,0.94-2.432c0.431-1.485,0.719-2.475,0.719-2.475
			s0.021,1.043,0.051,2.605c0.021,0.794-0.113,1.697-0.179,2.696c-0.052,1.006-0.299,2.027-0.452,3.094
			c-0.074,0.535-0.222,1.043-0.333,1.56c-0.122,0.516-0.242,1.022-0.357,1.514c-0.288,0.962-0.519,1.885-0.796,2.65
			c-0.251,0.769-0.487,1.425-0.681,1.896c-0.175,0.441-0.274,0.694-0.274,0.694L425.333,443.895z"/>
	</g>
</g>
<g>
	<path fill="none" stroke="#1C110B" stroke-width="5" stroke-miterlimit="10" d="M74.204,426.74
		c5.693,4.951,11.387,17.329,11.387,17.329c3.466-2.723,8.913-1.484,8.913-1.484c19.556,14.357,13.615,39.608,13.615,39.608
		c-5.447,21.785-10.894,38.619-10.894,38.619c0.991,29.212-11.386,81.693-13.862,89.12c-2.476,7.427-1.981,37.629-3.467,52.977
		c-1.483,15.351-2.474,15.845-9.9,36.145c-7.428,20.3-19.642,21.29-19.642,21.29c-13.699-1.98-19.474-18.32-19.474-18.32
		c-18.484-57.432-24.85-190.12-24.85-224.777c0-34.658,11.974-39.609,20.886-55.784s11.243-27.154,23.437-26.405
		C70.57,396.296,68.51,421.789,74.204,426.74z"/>
	<path fill="none" stroke="#1C110B" stroke-width="5" stroke-miterlimit="10" d="M6.031,512.396
		c8.819,10.15,22.125,4.455,22.125,4.455c20.522-8.375,36.888-5.94,50.749,0c13.863,5.941,17.082,3.962,17.082,3.962"/>
	<g>
		<path fill="#1C110B" d="M87.464,445.72c0,0-0.208,0.215-0.6,0.616c-0.386,0.391-0.958,0.938-1.708,1.616
			c-0.754,0.674-1.695,1.465-2.838,2.317c-1.158,0.838-2.518,1.748-4.228,2.525c-0.213,0.095-0.43,0.19-0.649,0.289
			c-0.235,0.08-0.475,0.161-0.715,0.243c-0.244,0.077-0.479,0.166-0.736,0.233c-0.268,0.054-0.538,0.107-0.81,0.163
			c-0.524,0.135-1.152,0.124-1.754,0.14c-0.295,0.028-0.632-0.067-0.949-0.11l-0.481-0.092l-0.241-0.049l-0.03-0.007l-0.199-0.063
			l-0.04-0.019l-0.081-0.033l-0.324-0.137c-0.168-0.081-0.411-0.218-0.605-0.341l-0.3-0.2l-0.215-0.188l-0.412-0.392
			c-0.467-0.543-0.844-1.124-1.086-1.682c-0.519-1.127-0.775-2.215-0.986-3.29c-0.399-2.146-0.57-4.268-0.791-6.393
			c-0.213-2.125-0.457-4.245-0.879-6.304c-0.441-2.04-1.04-4.05-2.087-5.714c-0.262-0.412-0.537-0.816-0.855-1.173
			c-0.315-0.385-0.694-0.788-1.036-1.178c-0.691-0.785-1.399-1.638-2.013-2.463c-1.263-1.653-2.361-3.342-3.271-5.014
			c-0.917-1.667-1.674-3.306-2.193-4.887c-0.298-0.775-0.46-1.563-0.664-2.288c-0.119-0.75-0.302-1.445-0.323-2.125
			c-0.023-0.337-0.049-0.662-0.07-0.977c0.011-0.314,0.021-0.619,0.032-0.911c-0.014-0.584,0.138-1.108,0.202-1.584
			c0.227-0.934,0.477-1.653,0.747-2.092c0.24-0.451,0.368-0.691,0.368-0.691s-0.109,0.249-0.316,0.716
			c-0.235,0.451-0.433,1.182-0.588,2.105c-0.028,0.473-0.14,0.985-0.086,1.555c0.011,0.281,0.021,0.576,0.031,0.882
			c0.044,0.302,0.09,0.615,0.138,0.938c0.065,0.65,0.296,1.318,0.458,2.028c0.251,0.692,0.457,1.434,0.802,2.165
			c0.609,1.488,1.458,3.023,2.459,4.569c0.994,1.551,2.173,3.105,3.504,4.607c0.662,0.77,1.336,1.472,2.089,2.215
			c0.379,0.375,0.751,0.716,1.143,1.125c0.419,0.409,0.783,0.866,1.132,1.335c1.383,1.894,2.192,4.088,2.828,6.254
			c0.613,2.178,1.022,4.373,1.392,6.498c0.373,2.122,0.7,4.198,1.186,6.043c0.243,0.913,0.539,1.773,0.898,2.408
			c0.171,0.337,0.373,0.549,0.537,0.729c0.044,0.028,0.086,0.055,0.124,0.086l0.054,0.047c0.004-0.007,0.005-0.012,0.004-0.014
			c0.01-0.003-0.036-0.005,0.004,0.021l0.334,0.113l0.083,0.028l0.042,0.014c0.163,0.054-0.199-0.064-0.158-0.053h0.015l0.104,0.003
			l0.205,0.013c0.141-0.001,0.252,0.064,0.413,0.021c0.304-0.055,0.581-0.03,0.908-0.155l0.468-0.126
			c0.159-0.054,0.32-0.134,0.477-0.197l0.47-0.194l0.464-0.253c1.225-0.666,2.322-1.504,3.258-2.293
			c0.931-0.808,1.713-1.563,2.338-2.209c0.62-0.647,1.095-1.172,1.401-1.53c0.298-0.354,0.456-0.542,0.456-0.542L87.464,445.72z"/>
	</g>
</g>
<g>
	<path fill="none" stroke="#1C110B" stroke-width="5" stroke-miterlimit="10" d="M256.223,889.588
		c-13.204,14.853-24.095,0.659-19.474-11.884c4.619-12.542,3.301-27.726,3.301-27.726c-0.991-13.203-15.847-95.725-15.847-95.725
		c-8.913-82.188-12.211-52.149-10.562-69.646c1.648-17.495,0.659-18.152-10.893-51.489c-11.553-33.337,8.58-49.183,12.541-50.173
		c3.962-0.99,17.824-10.229,17.824-10.229c18.483-16.834,31.358-4.623,39.28,2.971c7.922,7.592,10.562,7.921,10.562,7.921
		c33.01,13.534,20.796,42.249,13.863,63.374c-6.932,21.126-6.932,29.377-6.932,29.377
		C280.978,805.087,269.424,874.735,256.223,889.588z"/>
	<path fill="none" stroke="#1C110B" stroke-width="5" stroke-miterlimit="10" d="M213.443,686.757
		c13.665-2.476,26.439,10.397,44.263,8.912c17.824-1.485,32.183-19.31,32.183-19.31"/>
	<g>
		<path fill="#1C110B" d="M282.142,637.039c-0.28-0.128-0.566-0.339-0.931-0.567c-0.361-0.231-0.788-0.498-1.201-0.854
			c-0.431-0.346-0.906-0.729-1.425-1.146c-0.517-0.424-1.004-0.94-1.563-1.464c-0.539-0.539-1.171-1.081-1.736-1.718
			c-0.584-0.624-1.17-1.305-1.799-2.004c-1.291-1.383-2.51-2.988-3.841-4.677c-1.352-1.678-2.604-3.544-3.933-5.463
			c-0.632-0.924-1.273-1.864-1.923-2.815c-0.351-0.464-0.713-0.989-1.059-1.41c-0.335-0.305-0.598-0.637-0.946-0.951
			c-1.462-1.301-3.262-2.155-5.299-2.537c-2.03-0.414-4.257-0.355-6.47-0.077c-2.216,0.298-4.428,0.812-6.561,1.426
			c-2.132,0.616-4.192,1.315-6.143,2.028c-1.95,0.712-3.798,1.429-5.506,2.104c-3.406,1.372-6.283,2.537-8.36,3.24
			c-1.028,0.369-1.878,0.583-2.462,0.693c-0.585,0.123-0.914,0.039-0.905,0.06c0-0.018,0.312-0.052,0.814-0.332
			c0.51-0.254,1.215-0.723,2.114-1.313c0.896-0.604,1.983-1.336,3.231-2.177c1.254-0.839,2.678-1.785,4.283-2.738
			c1.596-0.971,3.347-2.006,5.277-2.984c1.927-0.979,4.011-1.945,6.258-2.789c2.246-0.84,4.654-1.584,7.233-2.014
			c2.568-0.44,5.338-0.564,8.147-0.032c2.792,0.537,5.605,1.877,7.668,3.923c0.529,0.517,1.025,1.131,1.509,1.704
			c0.379,0.534,0.667,1.015,1.002,1.52l0.196,0.308l0.112,0.189l0.222,0.378l0.443,0.753c0.289,0.503,0.577,1.002,0.861,1.498
			c1.152,1.973,2.188,3.94,3.293,5.711c1.093,1.779,2.022,3.554,3.026,5.068c0.987,1.534,1.836,2.994,2.695,4.197
			c0.419,0.615,0.811,1.191,1.174,1.723c0.385,0.516,0.739,0.988,1.058,1.415c0.313,0.442,0.633,0.784,0.899,1.106
			c0.271,0.312,0.494,0.605,0.703,0.788c0.206,0.192,0.358,0.362,0.475,0.461c0.118,0.095,0.18,0.144,0.18,0.144
			S282.663,637.326,282.142,637.039z"/>
	</g>
	<g>
		<path fill="#1C110B" d="M248.726,608.921c0,0-0.009-0.47-0.026-1.288c-0.037-0.805,0.014-2.035,0.035-3.473
			c0.015-0.72,0.03-1.499,0.048-2.323c0.001-0.826,0.054-1.686,0.13-2.569c0.133-1.767,0.274-3.653,0.416-5.538
			c0.078-0.94,0.126-1.879,0.228-2.801c0.126-0.919,0.249-1.824,0.368-2.7c0.237-1.746,0.461-3.375,0.651-4.771
			c0.381-2.782,0.636-4.637,0.636-4.637s0.058,1.873,0.145,4.685c0.044,1.397,0.094,3.03,0.149,4.779
			c0.026,0.873,0.055,1.773,0.084,2.688c0.053,0.915,0.159,1.843,0.238,2.769c0.17,1.849,0.341,3.696,0.5,5.429
			c0.069,0.866,0.159,1.697,0.289,2.472c0.114,0.776,0.223,1.511,0.322,2.188c0.207,1.356,0.339,2.459,0.515,3.276
			c0.153,0.805,0.24,1.265,0.24,1.265L248.726,608.921z"/>
	</g>
	<g>
		<path fill="#1C110B" d="M227.195,618.59c0,0-0.189-0.236-0.521-0.651c-0.345-0.429-0.827-1.04-1.369-1.771
			c-0.561-0.724-1.174-1.599-1.833-2.527c-0.663-0.924-1.313-1.961-1.984-2.963c-0.314-0.521-0.628-1.041-0.937-1.555
			c-0.303-0.516-0.615-1.006-0.886-1.506c-0.519-1.007-1.003-1.945-1.418-2.752c-0.684-1.664-1.14-2.772-1.14-2.772
			s0.72,0.94,1.799,2.354c0.595,0.652,1.288,1.414,2.03,2.23c0.378,0.397,0.803,0.786,1.213,1.189
			c0.415,0.398,0.836,0.804,1.258,1.209c0.89,0.774,1.739,1.567,2.59,2.263c0.847,0.697,1.627,1.352,2.323,1.88
			c0.688,0.546,1.261,0.969,1.659,1.262c0.413,0.302,0.649,0.475,0.649,0.475L227.195,618.59z"/>
	</g>
	<g>
		<path fill="#1C110B" d="M267.127,616.15c0,0,0.112-0.028,0.111-0.013c0.001,0.011,0.059-0.001,0.133-0.022
			c0.07-0.018,0.148-0.032,0.251-0.071c0.199-0.058,0.448-0.157,0.743-0.286c0.289-0.146,0.633-0.291,0.989-0.521
			c0.367-0.205,0.75-0.47,1.158-0.762c0.403-0.295,0.818-0.639,1.244-1.005c0.405-0.391,0.857-0.771,1.257-1.226
			c0.419-0.436,0.837-0.893,1.22-1.385c0.407-0.474,0.788-0.974,1.14-1.487c0.369-0.502,0.724-1.007,1.03-1.521
			c0.311-0.51,0.646-0.991,0.905-1.478c0.267-0.484,0.519-0.943,0.752-1.367c0.474-0.85,0.785-1.597,1.044-2.105
			c0.247-0.516,0.388-0.81,0.388-0.81s-0.066,0.317-0.184,0.877c-0.13,0.554-0.258,1.369-0.52,2.316
			c-0.129,0.479-0.268,0.995-0.415,1.543c-0.141,0.553-0.355,1.11-0.545,1.706c-0.184,0.6-0.418,1.202-0.671,1.813
			c-0.234,0.62-0.505,1.239-0.81,1.847c-0.28,0.621-0.606,1.222-0.947,1.812c-0.315,0.602-0.71,1.152-1.065,1.708
			c-0.381,0.538-0.767,1.056-1.163,1.53c-0.402,0.474-0.795,0.916-1.201,1.303c-0.385,0.399-0.799,0.729-1.157,1.03
			c-0.373,0.292-0.715,0.541-1.026,0.733c-0.145,0.099-0.301,0.184-0.43,0.257c-0.125,0.071-0.239,0.134-0.381,0.197
			c-0.212,0.095-0.325,0.146-0.325,0.146L267.127,616.15z"/>
	</g>
</g>
<g>
	<path fill="none" stroke="#1C110B" stroke-width="5" stroke-miterlimit="10" d="M283.575,417.337
		c9.06,11.407,21.616,16.587,20.183,40.6c-0.875,14.666-13.496,22.516-19.438,29.459c-15.775,18.433-29.212,17.578-37.629,17.576
		c-16.834-0.003-18.123-8.194-30.697-23.766c-6.898-8.545-19.622-14.871-17.892-31.724c1.482-14.424,9.216-22.062,14.229-29.67
		c11.519-17.484,25.598-24.742,38.601-24.791C272.685,394.942,274.495,405.9,283.575,417.337z"/>
	<g>
		<path fill="#1C110B" d="M286.859,453.094c-0.306-0.556-0.822-1.332-1.57-2.196c-0.765-0.853-1.848-1.723-3.204-2.388
			c-1.369-0.644-3.023-1.061-4.88-1.066c-0.457-0.03-0.944,0.054-1.424,0.073c-0.239,0.017-0.481,0.033-0.727,0.05
			c-0.246,0.048-0.496,0.096-0.746,0.146c-0.5,0.104-1.006,0.171-1.519,0.281c-0.512,0.146-1.03,0.294-1.557,0.443
			c-0.251,0.07-0.503,0.141-0.757,0.213c-0.281,0.095-0.563,0.191-0.847,0.288c-0.568,0.193-1.144,0.389-1.726,0.587
			c-1.107,0.433-2.225,0.813-3.4,1.292c-2.344,0.902-4.761,1.968-7.563,2.765l-1.058,0.288l-1.111,0.219
			c-0.733,0.171-1.51,0.229-2.284,0.287c-1.551,0.107-3.118-0.018-4.631-0.264c-3.017-0.563-5.722-1.674-8.252-2.882
			c-1.227-0.648-2.489-1.245-3.625-1.959c-1.125-0.667-2.237-1.327-3.331-1.976c-1.096-0.651-2.197-1.316-3.184-1.778
			c-0.506-0.258-1.007-0.513-1.502-0.765c-0.517-0.208-1.027-0.413-1.531-0.616c-0.252-0.105-0.503-0.209-0.752-0.313
			c-0.25-0.086-0.5-0.146-0.747-0.221c-0.496-0.138-0.99-0.296-1.471-0.421c-0.484-0.082-0.958-0.163-1.425-0.242
			c-0.472-0.095-0.91-0.034-1.362-0.066c-1.771,0.028-3.337,0.548-4.592,1.388c-1.248,0.843-2.221,1.879-2.95,2.793
			c-0.734,0.914-1.313,1.671-1.704,2.18c-0.411,0.497-0.631,0.763-0.631,0.763s0.133-0.315,0.383-0.907
			c0.253-0.59,0.568-1.478,1.113-2.57c0.527-1.092,1.259-2.451,2.565-3.729c0.303-0.345,0.681-0.632,1.078-0.927
			c0.198-0.147,0.396-0.306,0.607-0.451c0.227-0.121,0.456-0.242,0.688-0.367c0.238-0.122,0.479-0.245,0.721-0.37
			c0.25-0.103,0.516-0.169,0.78-0.257c0.532-0.159,1.083-0.357,1.653-0.399c0.564-0.058,1.166-0.2,1.751-0.18
			c0.591,0.011,1.192,0.021,1.806,0.032c0.603,0.053,1.194,0.177,1.81,0.27c0.305,0.053,0.618,0.096,0.925,0.161
			c0.296,0.082,0.595,0.165,0.896,0.248c0.604,0.172,1.215,0.347,1.833,0.523c0.602,0.235,1.21,0.473,1.825,0.712
			c1.29,0.464,2.369,1.047,3.517,1.604l0.862,0.424l0.916,0.471c0.56,0.292,1.122,0.586,1.689,0.881
			c1.128,0.617,2.298,1.1,3.45,1.677c2.337,0.999,4.716,1.941,7.063,2.35c2.346,0.449,4.603,0.286,6.983-0.294
			c2.373-0.585,4.854-1.497,7.332-2.251c1.222-0.388,2.501-0.745,3.726-1.074c0.597-0.141,1.188-0.28,1.773-0.417
			c0.292-0.068,0.581-0.137,0.87-0.205c0.38-0.075,0.644-0.107,0.968-0.163c2.432-0.509,4.887-0.482,7.085-0.188
			c2.223,0.309,4.174,1.219,5.619,2.294c1.467,1.074,2.409,2.35,3.012,3.438c0.601,1.1,0.864,2.036,1.027,2.663
			c0.149,0.636,0.167,0.98,0.167,0.98S287.162,453.652,286.859,453.094z"/>
	</g>
	<g>
		<path fill="#1C110B" d="M276.267,460.017c-0.819,1.939-1.729,3.823-2.705,5.665c-0.979,1.84-2.005,3.647-3.11,5.407
			c-1.09,1.769-2.246,3.497-3.459,5.187l-0.223-2.814c0.747,0.918,1.471,1.859,2.181,2.816c0.694,0.977,1.417,1.911,2.111,2.884
			c0.701,0.967,1.366,1.975,2.017,3.004c0.645,1.038,1.268,2.106,1.834,3.248c-1.105-0.57-2.154-1.215-3.184-1.888
			c-1.021-0.682-2.028-1.387-3-2.133c-0.494-0.365-0.97-0.75-1.452-1.129c-0.49-0.374-0.917-0.798-1.379-1.195
			c-0.899-0.813-1.785-1.643-2.646-2.496l-1.157-1.146l0.933-1.671c1.016-1.816,2.087-3.598,3.226-5.335
			c1.123-1.748,2.323-3.446,3.573-5.113c1.252-1.665,2.57-3.29,3.979-4.855c1.414-1.563,2.891-3.086,4.573-4.479
			C277.832,456.09,277.082,458.073,276.267,460.017z"/>
	</g>
	<path fill="none" stroke="#1C110B" stroke-width="5" stroke-miterlimit="10" d="M234.314,472.54
		c9.407,3.962,30.697,2.477,30.697,2.477"/>
	<g>
		<path fill="#1C110B" d="M227.825,453.672c0.585,0.749,1.142,1.509,1.654,2.288c1.037,1.552,1.956,3.152,2.786,4.792
			c0.825,1.641,1.583,3.309,2.236,5.021c0.331,0.854,0.646,1.714,0.931,2.588c0.292,0.871,0.552,1.753,0.795,2.645l0.163,0.598
			l-0.005,0.197c-0.004,0.159-0.025,0.323-0.063,0.483c-0.029,0.145-0.116,0.368-0.118,0.354l-0.121,0.225
			c-0.079,0.138-0.195,0.311-0.271,0.396c-0.118,0.123-0.241,0.239-0.365,0.352c-0.135,0.129-0.239,0.201-0.334,0.259l-0.299,0.193
			c-0.207,0.136-0.401,0.237-0.58,0.31l-0.552,0.25c-0.367,0.181-0.726,0.255-1.084,0.384c-0.355,0.12-0.719,0.224-1.076,0.3
			c-0.72,0.154-1.435,0.319-2.167,0.386c-0.736,0.068-1.465,0.136-2.218,0.124c0.521-0.555,1.067-1.031,1.607-1.505
			c0.553-0.454,1.065-0.938,1.605-1.364c0.276-0.208,0.516-0.446,0.769-0.657c0.243-0.216,0.521-0.43,0.727-0.641l0.322-0.313
			c0.119-0.104,0.206-0.205,0.264-0.296l0.107-0.13c0.046-0.047,0.072-0.086,0.051-0.091c-0.006-0.013-0.011-0.021-0.012-0.027
			c-0.022,0.02-0.101,0.113-0.135,0.178c-0.021,0.036-0.039,0.073-0.055,0.111c0.012-0.03-0.072,0.172-0.096,0.294
			c-0.032,0.14-0.049,0.283-0.048,0.423l0.158,0.794c-0.459-0.803-0.899-1.61-1.309-2.433c-0.417-0.817-0.807-1.647-1.174-2.485
			c-0.75-1.672-1.396-3.388-1.974-5.131c-0.571-1.744-1.057-3.525-1.423-5.356c-0.188-0.913-0.333-1.845-0.449-2.787
			c-0.107-0.947-0.186-1.906-0.178-2.9C226.606,452.196,227.23,452.928,227.825,453.672z"/>
	</g>
</g>
</svg>
