<?xml version="1.0" encoding="utf-8"?>
<!-- Generator: Adobe Illustrator 16.0.0, SVG Export Plug-In . SVG Version: 6.00 Build 0)  -->
<!DOCTYPE svg PUBLIC "-//W3C//DTD SVG 1.1//EN" "http://www.w3.org/Graphics/SVG/1.1/DTD/svg11.dtd">
<svg version="1.1" id="Layer_3" xmlns="http://www.w3.org/2000/svg" xmlns:xlink="http://www.w3.org/1999/xlink" x="0px" y="0px"
	 width="500px" height="900px" viewBox="0 0 500 900" enable-background="new 0 0 500 900" xml:space="preserve">
<g>
	<path fill="none" stroke="#1E120D" stroke-width="5" stroke-miterlimit="10" d="M280.163,235.384
		c-4.536,29.673-6.456,70.251-5.408,74.702c1.047,4.451,7.854,35.082-11.259,26.705c-19.112-8.379-19.112-26.705-30.37-54.195
		c-11.259-27.49-18.066-124.361-17.019-146.877s-6.021-57.6-7.331-63.62c-1.308-6.022-11.519-30.633-1.571-45.032
		c9.95-14.399,20.16-12.566,21.993-13.876s4.45-3.143,8.116-5.236c3.666-2.095,9.688-3.404,17.018-3.666
		c7.331-0.262,18.065,8.378,18.065,8.378s5.76,2.356,6.808,2.618c1.045,0.261,6.544,2.094,6.544,2.094
		c34.036,20.421,5.237,53.934,3.666,75.402c-1.569,21.469,1.919,34.736-0.632,62.938C288.783,155.719,284.7,205.711,280.163,235.384
		z"/>
	<path fill="none" stroke="#1E120D" stroke-width="5" stroke-miterlimit="10" d="M215.103,111.892
		c45.951,25.918,74.069,2.023,74.069,2.023"/>
	<g>
		<path fill="#1E120D" d="M276.88,14.1c0,0-0.094,0.215-0.258,0.591c-0.158,0.373-0.387,0.906-0.658,1.546
			c-0.265,0.637-0.573,1.381-0.904,2.178c-0.345,0.798-0.638,1.667-0.971,2.533c-0.325,0.872-0.65,1.744-0.955,2.561
			c-0.249,0.829-0.482,1.604-0.682,2.267c-0.4,1.35-0.668,2.25-0.668,2.25s-0.043-0.936-0.107-2.337
			c-0.031-0.713-0.066-1.545-0.104-2.437c0.02-0.885,0.04-1.83,0.062-2.773c0.03-0.946,0.022-1.905,0.087-2.792
			c0.053-0.894,0.101-1.728,0.143-2.441c0.049-0.709,0.089-1.299,0.117-1.713c0.031-0.409,0.049-0.643,0.049-0.643L276.88,14.1z"/>
	</g>
	<g>
		<path fill="#1E120D" d="M231.479,12.169c0,0,0.079,0.302,0.217,0.827c0.082,0.297,0.138,0.608,0.196,0.954
			c0.053,0.35,0.146,0.748,0.184,1.17c0.046,0.422,0.098,0.878,0.15,1.361c0.056,0.48,0.061,0.983,0.094,1.503
			c0.019,0.52,0.074,1.052,0.061,1.593c-0.005,0.538-0.009,1.085-0.013,1.632c0.019,1.088-0.094,2.171-0.148,3.18
			c-0.047,1.007-0.15,1.941-0.257,2.739c-0.192,1.587-0.321,2.646-0.321,2.646s-0.185-1.048-0.459-2.619
			c-0.127-0.782-0.297-1.69-0.54-2.649c-0.235-0.959-0.433-1.984-0.753-2.979c-0.146-0.497-0.293-0.994-0.438-1.483
			c-0.133-0.489-0.33-0.949-0.482-1.402c-0.168-0.448-0.306-0.891-0.479-1.286c-0.169-0.395-0.33-0.768-0.478-1.111
			c-0.14-0.35-0.31-0.629-0.436-0.895c-0.131-0.268-0.246-0.49-0.338-0.62c-0.204-0.33-0.32-0.519-0.32-0.519L231.479,12.169z"/>
	</g>
</g>
<g>
	<path fill="none" stroke="#1C110B" stroke-width="5" stroke-miterlimit="10" d="M100.324,651.43
		c-0.347,26.531-6.979,45.381-6.979,45.381c-28.626,51.313-58.997,6.633-67.025-36.305c-8.027-42.938-12.217-151.502-12.217-151.502
		c-21.292-49.57,4.189-75.751,21.293-101.584c17.104-25.832,24.438-11.87,30.72-5.935c6.284,5.936,16.407,24.087,16.407,24.087
		c9.425-8.726,33.164-17.803,39.795,4.189s-8.726,80.638-8.726,80.638C114.99,641.658,100.676,624.9,100.324,651.43z"/>
	<path fill="none" stroke="#1C110B" stroke-width="5" stroke-miterlimit="10" d="M12.969,510.4c55.243-15.619,100.624,0,100.624,0"
		/>
	<g>
		<path fill="#1C110B" d="M114.764,434.657c-0.377-0.44-0.984-1.043-1.805-1.707c-0.812-0.675-1.895-1.36-3.188-1.912
			c-1.293-0.553-2.823-0.936-4.502-0.952c-1.672-0.037-3.484,0.238-5.332,0.882c-0.459,0.172-0.934,0.274-1.397,0.486
			c-0.463,0.207-0.93,0.417-1.403,0.629c-0.944,0.404-2.025,0.964-3.061,1.448c-1.082,0.494-2.188,1.012-3.347,1.468
			c-0.58,0.229-1.152,0.473-1.749,0.693c-0.609,0.205-1.221,0.411-1.836,0.618c-2.489,0.762-5.308,1.341-8.34,0.953
			c-0.745-0.137-1.497-0.31-2.225-0.522c-0.696-0.291-1.441-0.521-2.084-0.894c-1.326-0.698-2.469-1.591-3.486-2.526
			c-2.052-1.878-3.481-4.006-4.805-6.045c-0.313-0.518-0.622-1.031-0.931-1.539l-0.229-0.38l-0.14-0.245l-0.101-0.188l-0.391-0.751
			c-0.516-0.997-1.02-1.973-1.511-2.923c-0.968-1.908-1.872-3.709-2.653-5.423c-0.737-1.771-1.358-3.409-1.9-4.852
			c-0.6-1.414-0.89-2.755-1.181-3.818c-0.3-1.061-0.482-1.909-0.541-2.508c-0.072-0.584-0.111-0.896-0.111-0.896
			s0.135,0.285,0.389,0.819c0.134,0.263,0.247,0.594,0.472,0.96c0.219,0.367,0.458,0.791,0.721,1.266
			c0.538,0.945,1.135,2.098,1.979,3.351c0.815,1.263,1.726,2.678,2.658,4.238c1.061,1.536,2.207,3.2,3.42,4.961
			c0.594,0.89,1.202,1.804,1.824,2.738l0.469,0.705l0.115,0.18l0.059,0.089l0.015,0.021c-0.011-0.018,0.043,0.071-0.021-0.033
			l0.03,0.042l0.242,0.334c0.323,0.445,0.649,0.896,0.979,1.35c1.343,1.763,2.769,3.566,4.388,4.941
			c1.625,1.384,3.337,2.358,5.253,2.599c1.919,0.276,4.096-0.084,6.288-0.656c2.197-0.595,4.401-1.416,6.535-2.189
			c0.544-0.208,1.084-0.414,1.617-0.619c0.533-0.214,1.052-0.396,1.648-0.582c0.574-0.187,1.142-0.37,1.704-0.552
			c0.558-0.186,1.159-0.265,1.724-0.387c1.124-0.271,2.286-0.319,3.382-0.383c0.551-0.02,1.105,0.058,1.638,0.084
			c0.266,0.021,0.527,0.04,0.789,0.061c0.26,0.052,0.517,0.104,0.771,0.155c0.504,0.12,1.003,0.175,1.469,0.347
			c0.469,0.161,0.921,0.317,1.354,0.486c0.838,0.419,1.628,0.802,2.281,1.301c1.354,0.918,2.301,1.975,2.969,2.887
			c0.691,0.897,1.078,1.698,1.329,2.235c0.252,0.54,0.333,0.846,0.333,0.846S115.155,435.091,114.764,434.657z"/>
	</g>
</g>
<g>
	<path fill="none" stroke="#1C110B" stroke-width="5" stroke-miterlimit="10" d="M469.301,685.795
		c-38.052,71.911-65.626,18.149-66.326-12.916c-0.701-31.068-6.632-31.068-11.868-63.533s-4.888-77.498-4.888-77.498
		c-1.398-15.009,0.916-32.428-4.888-53.062c-6.281-22.34-6.281-33.862-2.441-53.76c3.842-19.898,19.199-11.17,19.199-11.17
		l20.247,8.728c20.944-43.285,40.492-25.136,40.492-25.136c60.392,57.249,30.37,111.358,30.37,111.358
		C482.92,667.29,469.301,685.796,469.301,685.795z"/>
	<path fill="none" stroke="#1C110B" stroke-width="5" stroke-miterlimit="10" d="M384.824,511.426
		c22.692-17.106,50.792-17.454,50.792-17.454c30.371,0,53.582,14.835,53.582,14.835"/>
	<g>
		<path fill="#1C110B" d="M442.805,404.29c-0.135,0.854-0.315,1.712-0.582,2.563c-0.27,0.847-0.591,1.705-1.071,2.504l-0.353,0.606
			l-0.422,0.576c-0.27,0.396-0.602,0.747-0.955,1.088c-0.33,0.365-0.726,0.662-1.13,0.958l-0.995,0.744
			c-0.155,0.122-0.361,0.248-0.475,0.365l-0.355,0.346l-0.356,0.335l-0.375,0.406c-0.515,0.518-0.972,1.124-1.432,1.71
			c-0.439,0.617-0.886,1.222-1.274,1.881c-0.416,0.632-0.762,1.321-1.138,1.98c-0.339,0.686-0.688,1.363-0.975,2.07
			c-0.328,0.688-0.568,1.408-0.843,2.114c-0.211,0.724-0.48,1.434-0.645,2.158c-0.208,0.721-0.332,1.446-0.461,2.169
			c-0.078,0.718-0.224,1.444-0.213,2.146c-0.058,0.716,0.024,1.392,0.053,2.079l0.146,3.606l-3.237-0.912
			c-1.14-0.32-2.361-0.644-3.561-0.934l-1.805-0.461l-1.818-0.423c-1.208-0.305-2.423-0.577-3.642-0.842
			c-1.219-0.256-2.434-0.571-3.658-0.805s-2.449-0.5-3.678-0.757c-0.613-0.149-1.23-0.229-1.848-0.344
			c-0.617-0.103-1.234-0.232-1.854-0.35l-1.861-0.358l-1.87-0.289c-1.251-0.189-2.509-0.401-3.778-0.654
			c1.259-0.223,2.529-0.406,3.808-0.564c0.638-0.076,1.281-0.185,1.922-0.222l1.923-0.086c0.643-0.025,1.286-0.063,1.931-0.075
			c0.642-0.007,1.292-0.056,1.932-0.024c1.282,0.044,2.569,0.08,3.855,0.147c1.291,0.04,2.561,0.212,3.844,0.326
			c1.285,0.104,2.555,0.3,3.828,0.485c1.273,0.175,2.541,0.406,3.808,0.646c1.275,0.237,2.508,0.521,3.819,0.829l-3.091,2.695
			c-0.099-0.96-0.186-1.93-0.137-2.868c-0.001-0.476,0.023-0.946,0.083-1.404c0.055-0.46,0.08-0.931,0.168-1.381
			c0.17-0.901,0.345-1.803,0.604-2.669c0.211-0.885,0.545-1.719,0.845-2.566c0.354-0.821,0.677-1.656,1.091-2.446
			c0.381-0.807,0.847-1.568,1.293-2.337c0.486-0.746,0.946-1.507,1.512-2.204c0.526-0.72,1.118-1.399,1.717-2.068
			c0.64-0.645,1.269-1.289,1.994-1.866l0.529-0.439l0.619-0.43l0.62-0.418c0.209-0.142,0.373-0.207,0.563-0.313l1.097-0.583
			c0.296-0.146,0.601-0.286,0.866-0.501l0.421-0.292c0.135-0.107,0.255-0.235,0.389-0.35l0.397-0.354l0.357-0.408
			c0.485-0.541,0.92-1.166,1.318-1.826c0.399-0.661,0.73-1.378,1.047-2.112c0.623-1.479,1.102-3.056,1.458-4.693
			C443.043,400.86,443.015,402.57,442.805,404.29z"/>
	</g>
</g>
<g>
	<path fill="none" stroke="#1C110B" stroke-width="5" stroke-miterlimit="10" d="M278.45,840.723
		c-12.741,52.189-37.09,57.163-44.334,52.713c-6.156-3.783,5.673-28.015,4.886-47.476c-0.507-12.557-15.358-66.676-16.405-115.199
		c-1.048-48.523-5.237-57.6-17.453-104.375c-12.217-46.778,13.735-49.36,25.134-52.014c7.507-1.746,6.634-9.773,22.342-9.773
		c11.694,0,13.265,6.809,25.482,10.122c25.592,6.941,27.928,32.291,20.597,54.283c-7.33,21.993-5.235,50.269-5.235,50.269
		C293.005,705.052,290.425,791.677,278.45,840.723z"/>
	<path fill="none" stroke="#1C110B" stroke-width="5" stroke-miterlimit="10" d="M217.006,672.73
		c2.871,4.715,19.121,12.826,39.543,12.826c20.42,0,36.65-18.065,36.65-18.065"/>
	<g>
		<path fill="#1C110B" d="M283.113,597.262c-0.622-0.421-1.248-0.834-1.887-1.229c-0.631-0.402-1.253-0.813-1.896-1.193
			c-0.636-0.393-1.268-0.785-1.921-1.143c-0.65-0.36-1.284-0.745-1.938-1.092l-1.95-1.049l-1.988-0.953
			c-0.65-0.339-1.347-0.571-2.006-0.878c-0.664-0.296-1.33-0.586-2.014-0.814c-0.681-0.238-1.351-0.512-2.034-0.718l-2.056-0.573
			c-0.684-0.195-1.38-0.271-2.062-0.428c-0.342-0.065-0.684-0.143-1.026-0.2l-1.026-0.089l-1.022-0.093l-0.51-0.048l-0.504,0.017
			l-2.008,0.05l0.52-0.096c-0.377,0.137-0.88,0.331-1.329,0.526l-1.384,0.611c-0.92,0.429-1.826,0.896-2.718,1.39
			c-0.887,0.502-1.762,1.021-2.622,1.566c-0.845,0.566-1.696,1.124-2.495,1.749c-0.826,0.592-1.59,1.256-2.378,1.894l-1.114,1.024
			c-0.382,0.333-0.729,0.697-1.077,1.063c-0.349,0.362-0.715,0.711-1.053,1.084l-0.982,1.144c-0.342,0.372-0.641,0.775-0.937,1.181
			l-0.909,1.201l-1.797,2.374l-1.893-2.059c-0.408-0.443-0.96-0.981-1.481-1.448c-0.533-0.479-1.081-0.943-1.644-1.388
			c-0.559-0.452-1.137-0.872-1.723-1.277c-0.588-0.402-1.194-0.767-1.801-1.125c-0.609-0.35-1.231-0.666-1.864-0.955l-0.957-0.39
			l-0.972-0.321l-0.98-0.246l-0.988-0.161c-0.661-0.064-1.319-0.092-1.979-0.066c-0.655,0.05-1.312,0.143-1.956,0.325
			c-0.638,0.188-1.281,0.41-1.883,0.746c-0.308,0.15-0.616,0.309-0.898,0.518c-0.288,0.198-0.605,0.36-0.882,0.584
			c-0.56,0.443-1.131,0.887-1.635,1.423c-0.548,0.491-0.993,1.086-1.49,1.646c-0.484,0.571-0.909,1.198-1.372,1.802l-1.24,1.933
			l-1.161,2.012l0.642-2.249c0.248-0.74,0.54-1.47,0.82-2.207c0.343-0.709,0.65-1.445,1.034-2.146
			c0.409-0.686,0.792-1.396,1.296-2.04c0.455-0.678,1.006-1.29,1.569-1.907c0.597-0.58,1.206-1.178,1.933-1.639
			c0.69-0.509,1.469-0.911,2.268-1.265c0.809-0.349,1.658-0.594,2.527-0.774c0.436-0.063,0.875-0.144,1.314-0.184
			c0.438-0.012,0.882-0.036,1.321-0.032c0.436,0.027,0.874,0.048,1.311,0.088l1.288,0.193l1.26,0.287l1.228,0.368
			c0.804,0.276,1.59,0.587,2.355,0.935c1.522,0.712,2.946,1.572,4.302,2.511c0.685,0.465,1.329,0.977,1.973,1.495
			c0.65,0.535,1.234,1.041,1.904,1.7l-3.688,0.313c0.663-0.938,1.277-1.923,2.016-2.804l1.089-1.34
			c0.374-0.438,0.775-0.847,1.163-1.272c0.77-0.858,1.642-1.602,2.469-2.396c0.884-0.725,1.734-1.495,2.669-2.152
			c0.908-0.693,1.866-1.312,2.819-1.935c0.967-0.601,1.947-1.179,2.958-1.702s2.036-1.015,3.085-1.466
			c0.529-0.222,1.053-0.447,1.599-0.642c0.552-0.205,1.063-0.381,1.71-0.577l0.328-0.101l0.191,0.004l2.508,0.051l0.625,0.017
			l0.61,0.09l1.217,0.189l1.213,0.193c0.396,0.091,0.783,0.204,1.174,0.308c0.774,0.221,1.571,0.389,2.313,0.682l2.228,0.854
			c0.733,0.3,1.433,0.661,2.146,0.989c0.719,0.32,1.402,0.697,2.082,1.08c0.679,0.381,1.366,0.752,2.008,1.188l1.944,1.268
			l1.876,1.351c0.633,0.436,1.211,0.946,1.812,1.423c0.603,0.473,1.178,0.979,1.754,1.481c1.165,0.989,2.264,2.053,3.33,3.14
			c1.074,1.078,2.099,2.209,3.048,3.394C285.61,598.953,284.36,598.106,283.113,597.262z"/>
	</g>
	<g>
		<polygon fill="#1C110B" points="280.776,594.438 289.623,588.685 284.408,597.875 		"/>
	</g>
	<g>
		<path fill="#1C110B" d="M250.313,586.406c0,0-0.047-0.229-0.129-0.631c-0.105-0.455-0.157-0.992-0.251-1.668
			c-0.044-0.667-0.146-1.435-0.148-2.252c-0.032-0.816-0.042-1.679,0.001-2.536c0.011-0.854,0.077-1.704,0.161-2.494
			c0.067-0.79,0.14-1.519,0.254-2.142c0.195-1.235,0.326-2.058,0.326-2.058s0.182,0.809,0.454,2.021
			c0.12,0.602,0.318,1.296,0.541,2.029c0.205,0.735,0.444,1.509,0.735,2.263c0.258,0.762,0.563,1.5,0.864,2.179
			c0.275,0.688,0.614,1.284,0.86,1.807c0.282,0.489,0.513,0.933,0.672,1.142c0.174,0.265,0.274,0.416,0.274,0.416L250.313,586.406z"
			/>
	</g>
	<g>
		<path fill="#1C110B" d="M227.889,596.523c0,0,0.009-0.19,0.026-0.523c0.017-0.32,0.044-0.777,0.056-1.347
			c0.02-0.567,0.026-1.228,0.025-1.938c0.013-0.716-0.023-1.464-0.042-2.229c-0.022-0.762-0.096-1.508-0.141-2.228
			c-0.073-0.706-0.174-1.361-0.247-1.937c-0.038-0.288-0.115-0.532-0.162-0.761c-0.054-0.229-0.101-0.428-0.139-0.592
			c-0.08-0.333-0.125-0.523-0.125-0.523s0.115,0.156,0.315,0.427c0.103,0.139,0.226,0.307,0.368,0.498
			c0.136,0.196,0.319,0.413,0.469,0.665c0.298,0.505,0.666,1.101,1.031,1.754c0.332,0.657,0.72,1.365,1.054,2.085
			c0.328,0.721,0.681,1.445,0.962,2.134c0.296,0.688,0.563,1.334,0.78,1.893c0.224,0.554,0.398,1.038,0.523,1.375
			c0.12,0.325,0.188,0.512,0.188,0.512L227.889,596.523z"/>
	</g>
</g>
<g>
	<path fill="none" stroke="#1C110B" stroke-width="5" stroke-miterlimit="10" d="M267.105,394.163
		c35.104,10.392,37.955,11.927,38.452,64.055c0.524,54.98-57.075,52.188-57.075,52.188c-41.366-8.027-50.267-31.244-49.745-55.33
		c0.523-24.087,13.114-61.269,54.287-62.709C256.182,392.256,265.186,393.594,267.105,394.163z"/>
	<g>
		<path fill="#1C110B" d="M288.917,438.729c-0.4-1.103-0.939-2.419-1.601-3.882c-0.675-1.454-1.526-3.048-2.601-4.585
			c-1.086-1.506-2.52-2.948-4.122-3.523c-0.4-0.145-0.808-0.218-1.219-0.272l-0.551-0.009c-0.3,0.021-0.601,0.04-0.904,0.062
			c-0.661,0.018-1.095,0.143-1.593,0.213c-0.488,0.08-1.047,0.246-1.57,0.382c-1.063,0.343-2.14,0.761-3.264,1.28
			c-1.135,0.521-2.293,1.107-3.585,1.667c-2.53,1.145-5.597,2.048-8.663,2.079c-0.758-0.029-1.532,0.014-2.272-0.096l-1.119-0.125
			l-0.279-0.032l-0.068-0.008l-0.035-0.005l-0.163-0.026l-0.124-0.025l-0.493-0.101c-0.657-0.139-1.312-0.275-1.965-0.412
			c-0.342-0.087-0.618-0.106-1.011-0.248l-1.114-0.37c-0.738-0.253-1.489-0.481-2.141-0.844c-0.674-0.337-1.357-0.675-1.899-1.035
			l-0.849-0.518l-0.718-0.409c-0.478-0.322-0.937-0.413-1.398-0.637c-1.963-0.636-4.276-0.8-6.547-0.922
			c-2.268-0.094-4.378-0.148-6.288-0.003c-1.904,0.154-3.577,0.509-4.948,1.134c-1.368,0.627-2.448,1.47-3.264,2.271
			c-0.794,0.82-1.394,1.535-1.761,2.047c-0.381,0.511-0.584,0.783-0.584,0.783s0.115-0.32,0.332-0.922
			c0.233-0.597,0.585-1.479,1.231-2.524c0.65-1.03,1.6-2.274,3.079-3.305c1.454-1.054,3.366-1.857,5.452-2.315
			c2.08-0.491,4.353-0.77,6.711-0.928c2.34-0.115,4.975-0.267,7.886,0.447c0.707,0.245,1.517,0.423,2.135,0.784l0.988,0.494
			l0.836,0.449c0.563,0.329,1.072,0.529,1.586,0.755c0.506,0.27,1.035,0.388,1.555,0.554c0.914,0.376,2.419,0.541,3.688,0.816
			l0.494,0.097l0.124,0.023c-0.248-0.044-0.054-0.011-0.102-0.02l0.028,0.002l0.055,0.005l0.223,0.021l0.887,0.088
			c0.594,0.093,1.173,0.029,1.759,0.061c2.338-0.01,4.553-0.624,6.886-1.549c2.313-0.932,4.843-2.139,7.617-2.763
			c0.707-0.131,1.369-0.272,2.11-0.341c0.734-0.063,1.517-0.132,2.075-0.086c0.304,0.009,0.606,0.019,0.906,0.027l0.058,0.002
			c-0.014-0.001,0.207,0.002,0.131,0.003l0.037,0.004l0.146,0.017l0.29,0.036l0.574,0.08c0.757,0.165,1.486,0.401,2.14,0.74
			c2.653,1.377,4.043,3.579,5.042,5.474c0.994,1.938,1.546,3.794,1.951,5.436c0.416,1.638,0.619,3.089,0.766,4.276
			c0.153,1.188,0.184,2.132,0.217,2.769c0.023,0.639,0.013,0.979,0.013,0.979S289.726,440.934,288.917,438.729z"/>
	</g>
	<g>
		<path fill="#1C110B" d="M279.496,488.948c-0.281,0.566-0.707,1.397-1.354,2.396c-0.653,0.99-1.469,2.204-2.613,3.437
			c-0.546,0.644-1.201,1.259-1.889,1.924c-0.344,0.334-0.745,0.621-1.136,0.942c-0.389,0.325-0.805,0.635-1.259,0.917
			c-1.737,1.228-3.9,2.285-6.386,2.848c-1.233,0.354-2.555,0.388-3.905,0.483c-0.671-0.036-1.353-0.078-2.041-0.135l-0.518-0.041
			l-0.065-0.005c-0.044-0.009,0.056,0.013-0.107-0.02l-0.028-0.005l-0.114-0.021l-0.228-0.039l-0.918-0.16l-0.925-0.162
			l-1.042-0.271l-1.055-0.291c-0.346-0.11-0.684-0.252-1.028-0.379c-1.371-0.479-2.771-1.279-3.984-2.245
			c-1.232-0.972-2.202-2.07-3.037-2.909c-0.852-0.849-1.672-1.532-2.625-2.104c-1.889-1.161-4.236-1.932-6.646-2.51l-0.447-0.117
			c-0.05-0.014-0.202-0.051-0.168-0.047l-0.24-0.049l-0.956-0.194c-0.623-0.126-1.29-0.298-1.868-0.383
			c-0.594-0.103-1.185-0.203-1.771-0.303c-0.61-0.09-1.213-0.178-1.813-0.265c-2.412-0.343-4.842-0.542-7.314-1.174
			c-0.611-0.157-1.229-0.402-1.82-0.599c-0.584-0.276-1.168-0.542-1.702-0.858c-0.508-0.366-1.026-0.701-1.477-1.08
			c-0.421-0.404-0.833-0.801-1.237-1.189c-0.68-0.853-1.375-1.633-1.838-2.469c-0.247-0.407-0.489-0.805-0.723-1.19
			c-0.201-0.397-0.396-0.783-0.585-1.157c-0.802-1.468-1.251-2.84-1.719-3.922c-0.414-1.105-0.682-1.994-0.888-2.588
			c-0.191-0.601-0.293-0.92-0.293-0.92s0.783,1.105,2.063,3.048c0.694,0.932,1.455,2.126,2.452,3.357
			c0.242,0.313,0.493,0.636,0.751,0.967c0.278,0.304,0.565,0.617,0.86,0.939c0.559,0.673,1.234,1.239,1.899,1.857
			c1.423,1.13,3.021,1.868,5.041,2.123c2.013,0.286,4.419,0.272,6.964,0.44c0.64,0.047,1.286,0.094,1.936,0.143
			c0.667,0.075,1.338,0.152,2.015,0.23c0.695,0.069,1.288,0.191,1.943,0.286l0.962,0.162l0.241,0.04l0.308,0.066l0.507,0.113
			c2.688,0.537,5.501,1.38,8.174,2.973c1.324,0.809,2.542,1.859,3.55,2.896c1.021,1.047,1.765,1.976,2.581,2.645
			c0.819,0.674,1.664,1.246,2.694,1.676c0.251,0.107,0.498,0.231,0.752,0.331l0.771,0.258l0.771,0.269l0.909,0.233l0.903,0.23
			l0.225,0.059l0.111,0.028l0.028,0.007c-0.145-0.028-0.026-0.005-0.051-0.012l0.05,0.009l0.396,0.058
			c0.529,0.075,1.055,0.164,1.576,0.256c1.045,0.019,2.086,0.102,3.09-0.063c2.014-0.226,3.938-0.795,5.609-1.629
			c1.676-0.814,3.177-1.749,4.424-2.708c1.258-0.946,2.302-1.873,3.141-2.666c1.661-1.604,2.52-2.65,2.52-2.65
			S279.781,488.38,279.496,488.948z"/>
	</g>
	<g>
		<path fill="#1C110B" d="M283.001,466.62c-0.624-0.42-1.223-0.862-1.859-1.259c-0.639-0.394-1.231-0.837-1.86-1.229l-1.883-1.163
			c-0.62-0.394-1.269-0.73-1.896-1.094l-0.938-0.54l-0.963-0.464l-0.953-0.467c-0.313-0.167-0.63-0.315-0.953-0.413
			c-0.643-0.222-1.273-0.454-1.895-0.694l0.366,0.094c-0.263-0.01-0.754,0.009-1.131,0.011l-1.257,0.09
			c-0.836,0.04-1.698,0.23-2.54,0.329c-0.423,0.047-0.848,0.171-1.271,0.251l-1.269,0.271c-0.847,0.157-1.678,0.462-2.517,0.682
			l-1.255,0.357c-0.417,0.121-0.823,0.297-1.236,0.439l-2.469,0.9c-0.823,0.298-1.612,0.708-2.421,1.055
			c-0.806,0.36-1.607,0.728-2.42,1.072l-1.11,0.469l-0.78-0.327c-0.511-0.213-1.057-0.457-1.376-0.649l-1.119-0.614l-1.111-0.622
			l-1.035-0.663c-1.381-0.877-2.75-1.781-4.104-2.688c-2.624-1.906-5.216-3.854-7.753-5.868l0.78,0.235
			c-1.745-0.158-3.491-0.392-5.236-0.593c-1.745-0.24-3.491-0.481-5.235-0.813c1.744-0.331,3.49-0.573,5.235-0.813
			c1.745-0.201,3.491-0.434,5.236-0.593l0.272-0.024l0.508,0.262c2.859,1.476,5.664,3.018,8.436,4.602
			c1.396,0.753,2.797,1.481,4.174,2.251l1.036,0.568l1.021,0.497l1.015,0.507c0.382,0.203,0.581,0.26,0.808,0.366l-1.89,0.142
			c0.861-0.422,1.734-0.822,2.604-1.229l1.307-0.607c0.437-0.199,0.863-0.42,1.328-0.563l2.735-0.958
			c0.459-0.149,0.904-0.338,1.378-0.45l1.417-0.347l1.417-0.343c0.469-0.124,0.943-0.224,1.434-0.28l1.453-0.208
			c0.487-0.06,0.961-0.159,1.457-0.184c0.994-0.036,1.96-0.143,2.968-0.104c0.504,0.016,0.996,0.017,1.506,0.058
			c0.542,0.063,0.976,0.083,1.625,0.202l0.283,0.052l0.083,0.042c0.74,0.372,1.47,0.755,2.188,1.146
			c0.372,0.184,0.703,0.404,1.022,0.637l0.97,0.683l0.959,0.688l0.894,0.747c0.581,0.512,1.182,0.999,1.736,1.528l1.62,1.629
			c0.274,0.266,0.521,0.56,0.78,0.836c0.259,0.279,0.511,0.564,0.759,0.854c0.994,1.149,1.946,2.339,2.796,3.597
			C284.24,467.476,283.634,467.037,283.001,466.62z"/>
	</g>
	<g>
		<path fill="#1C110B" d="M264.882,458.616c0,0-0.152,0.429-0.417,1.177c-0.265,0.755-0.631,1.843-1.056,3.155
			c-0.852,2.625-1.903,6.159-2.783,9.739c-0.447,1.79-0.833,3.592-1.146,5.291c-0.176,0.85-0.276,1.674-0.405,2.459
			c-0.138,0.784-0.182,1.528-0.268,2.217c-0.093,0.691-0.091,1.322-0.129,1.886c-0.041,0.564-0.045,1.057-0.022,1.46
			c0.023,0.814,0.036,1.279,0.036,1.279s-0.091-0.457-0.25-1.258c-0.092-0.401-0.171-0.894-0.225-1.461
			c-0.059-0.567-0.167-1.212-0.191-1.914c-0.03-0.701-0.112-1.469-0.109-2.275c-0.004-0.807-0.044-1.666-0.011-2.545
			c0.025-1.765,0.106-3.649,0.252-5.525c0.274-3.758,0.731-7.501,1.143-10.302c0.205-1.4,0.388-2.567,0.527-3.387
			c0.145-0.824,0.227-1.295,0.227-1.295L264.882,458.616z"/>
	</g>
	<g>
		<path fill="#1C110B" d="M246.784,462.365c0,0,0.091-0.457,0.25-1.257c0.158-0.781,0.363-1.917,0.589-3.302
			c0.252-1.377,0.445-2.998,0.707-4.734c0.102-0.871,0.206-1.771,0.313-2.686c0.093-0.916,0.233-1.85,0.29-2.782
			c0.118-1.865,0.338-3.744,0.366-5.5c0.025-0.882,0.052-1.733,0.075-2.541c0.017-0.808,0.069-1.578,0.029-2.281
			c-0.083-2.832-0.138-4.721-0.138-4.721s0.366,1.86,0.916,4.652c0.158,0.699,0.231,1.466,0.35,2.274
			c0.111,0.812,0.228,1.667,0.348,2.552c0.266,1.774,0.359,3.674,0.553,5.58c0.102,0.954,0.115,1.906,0.176,2.847
			c0.047,0.941,0.093,1.867,0.138,2.764c0.029,1.793,0.106,3.474,0.084,4.914c0.005,1.437-0.011,2.648-0.04,3.508
			c-0.025,0.84-0.041,1.32-0.041,1.32L246.784,462.365z"/>
	</g>
	<g>
		<path fill="#1C110B" d="M249.032,463.993c-0.001,0-0.742,0.89-1.844,2.288c-1.096,1.391-2.538,3.269-3.908,5.193
			c-0.686,0.963-1.346,1.938-1.949,2.867c-0.596,0.931-1.117,1.818-1.532,2.598c-0.191,0.397-0.366,0.761-0.521,1.083
			c-0.125,0.335-0.234,0.628-0.324,0.868c-0.1,0.507-0.158,0.797-0.158,0.797s-0.02-0.302-0.054-0.831
			c0.026-0.265,0.057-0.587,0.092-0.957c0.068-0.366,0.146-0.778,0.229-1.227c0.206-0.889,0.488-1.916,0.834-3.001
			c0.351-1.081,0.748-2.229,1.172-3.363c0.845-2.272,1.772-4.509,2.49-6.179c0.711-1.663,1.23-2.785,1.229-2.785L249.032,463.993z"
			/>
	</g>
	<g>
		<path fill="#1C110B" d="M267.559,455.421c0,0,0.08-0.058,0.231-0.162c0.156-0.109,0.278-0.218,0.496-0.381
			c0.2-0.133,0.479-0.394,0.799-0.696c0.313-0.306,0.698-0.609,1.061-1.038c0.376-0.413,0.783-0.86,1.214-1.333
			c0.424-0.485,0.822-1.047,1.265-1.606c0.428-0.571,0.918-1.132,1.311-1.78c0.416-0.636,0.839-1.281,1.261-1.928l0.637-0.974
			c0.197-0.332,0.375-0.674,0.563-1.008c0.372-0.673,0.737-1.335,1.091-1.977c0.346-0.646,0.718-1.259,1.006-1.867
			c0.282-0.613,0.55-1.192,0.797-1.728c0.994-2.152,1.656-3.588,1.656-3.588s-0.368,1.541-0.92,3.852
			c-0.139,0.582-0.29,1.212-0.45,1.879c-0.165,0.664-0.411,1.344-0.628,2.061c-0.227,0.716-0.462,1.457-0.7,2.209
			c-0.122,0.377-0.233,0.761-0.367,1.139l-0.448,1.121c-0.302,0.752-0.604,1.505-0.901,2.245c-0.273,0.754-0.667,1.446-0.998,2.142
			c-0.35,0.685-0.656,1.366-1.011,1.987c-0.371,0.618-0.721,1.202-1.044,1.741c-0.305,0.549-0.687,1.017-0.985,1.45
			c-0.304,0.428-0.568,0.802-0.877,1.137c-0.276,0.316-0.525,0.604-0.651,0.733c-0.129,0.135-0.197,0.206-0.197,0.206
			L267.559,455.421z"/>
	</g>
</g>
</svg>
