<?xml version="1.0" encoding="utf-8"?>
<!-- Generator: Adobe Illustrator 16.0.0, SVG Export Plug-In . SVG Version: 6.00 Build 0)  -->
<!DOCTYPE svg PUBLIC "-//W3C//DTD SVG 1.1//EN" "http://www.w3.org/Graphics/SVG/1.1/DTD/svg11.dtd">
<svg version="1.1" id="Layer_3" xmlns="http://www.w3.org/2000/svg" xmlns:xlink="http://www.w3.org/1999/xlink" x="0px" y="0px"
	 width="500px" height="900px" viewBox="0 0 500 900" enable-background="new 0 0 500 900" xml:space="preserve">
<g>
	<path fill="none" stroke="#1C110B" stroke-width="5" stroke-miterlimit="10" d="M281.149,14.172
		c15.78-16.972,26.501,4.633,26.501,4.633"/>
	<g>
		<path fill="#1C110B" d="M303.501,36.51c-0.258-0.718-0.607-1.399-0.928-2.081c-0.389-0.657-0.712-1.333-1.14-1.957l-0.608-0.946
			l-0.68-0.897c-0.429-0.61-0.951-1.154-1.441-1.714c-1.004-1.1-2.07-2.14-3.229-3.075c-0.548-0.498-1.17-0.917-1.772-1.352
			l-0.904-0.649l-0.944-0.596c-0.642-0.396-1.233-0.793-1.909-1.188l-2.016-1.181c-1.338-0.771-2.676-1.559-4-2.266
			c-0.657-0.384-1.318-0.721-1.979-1.038l-0.988-0.491l-0.991-0.402l-0.984-0.407c-0.329-0.11-0.658-0.196-0.986-0.297l-0.981-0.294
			l-0.98-0.152c-0.326-0.043-0.65-0.13-0.976-0.143l-0.976-0.008c-0.325,0.011-0.647-0.056-0.973,0.011l-0.975,0.137
			c-0.323,0.059-0.648,0.05-0.973,0.159l-0.971,0.286l-0.973,0.275l-0.963,0.413c-1.299,0.475-2.547,1.239-3.809,1.93
			c-0.624,0.369-1.231,0.81-1.851,1.205c-0.61,0.418-1.245,0.781-1.833,1.261l-1.792,1.364c-0.6,0.448-1.201,0.901-1.776,1.402
			c-1.159,0.986-2.354,1.916-3.486,2.947l-3.434,3.055l-0.586,0.409l0.014-0.009l-0.057,0.033l-0.125,0.071l-0.295,0.201
			c-0.2,0.138-0.405,0.316-0.611,0.473l-0.601,0.562l-0.564,0.626c-0.371,0.426-0.711,0.901-1.045,1.378
			c-0.289,0.516-0.665,0.973-0.917,1.524c-0.261,0.543-0.589,1.051-0.796,1.633c-0.222,0.57-0.49,1.124-0.679,1.716l-0.562,1.785
			c-0.164,0.604-0.285,1.227-0.431,1.841l-0.223,0.925l-0.154,0.945l-0.313,1.896c-0.078,0.64-0.124,1.283-0.187,1.927
			c-0.051,0.646-0.141,1.288-0.157,1.938l-0.076,1.954c-0.017,0.652-0.079,1.308-0.059,1.963c0.024,1.312,0.06,2.626,0.057,3.951
			l-0.261-0.453l1.277,1.098l1.332,1.063l2.645,2.178c-1.024-0.507-2.031-1.047-3.051-1.573l-1.517-0.813l-1.496-0.883l-0.195-0.116
			l-0.064-0.337c-0.25-1.318-0.462-2.647-0.686-3.979c-0.117-0.665-0.154-1.341-0.235-2.013l-0.206-2.025
			c-0.06-0.677-0.044-1.358-0.069-2.041c-0.012-0.683-0.04-1.365-0.036-2.052l0.101-2.063l0.052-1.035l0.133-1.034
			c0.104-0.689,0.182-1.381,0.31-2.07l0.465-2.063c0.159-0.688,0.412-1.362,0.617-2.046c0.188-0.689,0.521-1.346,0.785-2.02
			c0.257-0.677,0.65-1.313,0.988-1.967c0.388-0.634,0.787-1.267,1.251-1.87l0.721-0.894l0.807-0.852
			c0.302-0.27,0.586-0.543,0.916-0.802c0.359-0.271,0.604-0.476,1.197-0.796l-0.586,0.408l3.404-3.295
			c1.138-1.097,2.375-2.111,3.561-3.172c1.17-1.072,2.508-2.005,3.761-3.005c0.617-0.509,1.33-0.936,1.998-1.399
			c0.686-0.448,1.339-0.931,2.058-1.343c1.469-0.798,2.894-1.644,4.525-2.242l1.188-0.487l1.277-0.342l1.279-0.331
			c0.421-0.12,0.887-0.125,1.329-0.19l1.342-0.144c0.445-0.063,0.904,0.01,1.354,0.012l1.357,0.071
			c0.449,0.041,0.882,0.16,1.323,0.239l1.313,0.272l1.24,0.419c0.411,0.145,0.828,0.279,1.229,0.436l1.147,0.537l1.139,0.547
			l1.069,0.608c0.72,0.4,1.422,0.814,2.085,1.252c1.363,0.863,2.633,1.771,3.925,2.662c1.272,0.887,2.545,1.774,3.855,2.784
			c0.323,0.247,0.654,0.48,0.963,0.745l0.908,0.821c0.603,0.548,1.216,1.077,1.76,1.69c1.135,1.166,2.189,2.416,3.11,3.755
			c0.443,0.684,0.911,1.345,1.28,2.071l0.583,1.064l0.504,1.104c0.674,1.466,1.139,3.021,1.445,4.587
			c0.298,1.563,0.442,3.167,0.25,4.727C304.508,39.414,304.045,37.93,303.501,36.51z"/>
	</g>
	<path fill="none" stroke="#1C110B" stroke-width="5" stroke-miterlimit="10" d="M298.418,24.893c14.292-13.695,20.249,0,20.249,0
		c19.056,36.921-4.17,79.202-4.17,79.202c-1.259,14.669-3.109,12.817-2.2,39.898c1.701,50.688-6.136,108.977-10.9,123.269
		c-4.765,14.291-11.91,17.863-20.248,17.863c-8.339,0-8.039-22.331-8.039-22.331c-5.955-64.016-11.019-63.122-15.783-87.538
		s-13.659-3.871-13.659-3.871c-21.696,52.402-16.412,74.735-13.733,94.089c2.681,19.354-8.037,41.686-28.582,1.489
		c-20.546-40.196-16.375-75.63-13.249-102.874c3.126-27.243,2.829-51.361,2.829-51.361c-16.677-27.989-1.489-8.039-11.91-43.77
		c-10.42-35.729-2.085-36.326,12.803-53.595c14.887-17.27,51.844,18.769,51.844,18.769"/>
	<path fill="none" stroke="#1C110B" stroke-width="5" stroke-miterlimit="10" d="M183.921,100.07
		c35.567,12.354,22.046,3.725,72.515,6.181c50.469,2.457,59.597-5.252,59.597-5.252"/>
	<path fill="none" stroke="#1C110B" stroke-width="5" stroke-miterlimit="10" d="M205.076,10.68c2.23-2.452,3.35-6.957,11.835-5.813
		c8.486,1.144,34.898,20.39,34.898,20.39"/>
</g>
<g>
	<g>
		<path fill="#1C110B" d="M382.064,389.069c0.74,0.335,1.47,0.713,2.22,1.012c0.754,0.284,1.481,0.598,2.215,0.89
			c0.367,0.145,0.725,0.303,1.096,0.437l1.126,0.368c0.749,0.238,1.476,0.544,2.23,0.723c0.749,0.188,1.486,0.433,2.231,0.573
			c0.741,0.14,1.482,0.324,2.199,0.379c0.367,0.052,0.716,0.082,1.04,0.089l0.238,0.012l0.143-0.011l0.605-0.044l1.209-0.088
			c0.403-0.029,0.789-0.063,1.271-0.032l1.382,0.057c0.467,0.011,0.927,0.046,1.371,0.13c0.9,0.143,1.803,0.276,2.702,0.585
			c0.908,0.222,1.787,0.645,2.661,1.059c0.844,0.5,1.693,1.014,2.437,1.701c0.396,0.31,0.734,0.687,1.067,1.068
			c0.352,0.367,0.642,0.781,0.925,1.201c0.581,0.83,1.015,1.75,1.378,2.688c0.157,0.48,0.313,0.959,0.413,1.461
			c0.062,0.245,0.104,0.505,0.143,0.766c0.021,0.126,0.04,0.259,0.053,0.404c0.014,0.141,0.03,0.269,0.038,0.496l-4.512-1.366
			c0.257-0.344,0.394-0.49,0.584-0.698c0.179-0.201,0.358-0.373,0.539-0.55c0.362-0.349,0.73-0.671,1.119-0.963
			c0.771-0.592,1.582-1.102,2.423-1.538c0.413-0.236,0.847-0.416,1.276-0.606c0.429-0.197,0.872-0.342,1.314-0.489
			c0.438-0.156,0.882-0.293,1.333-0.392c0.45-0.102,0.894-0.241,1.346-0.306l1.354-0.197c0.45-0.063,0.901-0.067,1.352-0.102
			c0.45-0.022,0.9-0.066,1.345-0.039l1.335,0.049c0.446,0.001,0.88,0.082,1.318,0.125l1.306,0.164
			c0.857,0.169,1.705,0.357,2.551,0.537l-0.124-0.018c0.147,0.036,0.445,0.071,0.688,0.089c0.258,0.021,0.518,0.031,0.782,0.029
			c0.526,0.003,1.054-0.042,1.585-0.102c0.525-0.076,1.045-0.191,1.561-0.336c0.264-0.063,0.504-0.172,0.763-0.256
			c0.262-0.078,0.493-0.21,0.739-0.325c0.248-0.113,0.492-0.234,0.715-0.393c0.224-0.153,0.474-0.283,0.687-0.458l0.655-0.523
			c0.229-0.169,0.398-0.395,0.606-0.594c0.195-0.209,0.416-0.404,0.574-0.647l0.533-0.7c0.199-0.229,0.315-0.5,0.478-0.753
			l0.472-0.78l-0.181,0.896c-0.076,0.296-0.107,0.615-0.227,0.9l-0.321,0.882c-0.098,0.304-0.267,0.571-0.413,0.854
			c-0.159,0.273-0.285,0.579-0.48,0.835l-0.575,0.79c-0.201,0.259-0.447,0.476-0.673,0.718c-0.225,0.247-0.477,0.459-0.739,0.663
			c-0.26,0.206-0.514,0.431-0.801,0.599c-0.283,0.174-0.56,0.377-0.857,0.528c-0.59,0.324-1.212,0.58-1.848,0.806
			c-0.638,0.209-1.291,0.386-1.96,0.492c-0.333,0.059-0.671,0.104-1.014,0.135c-0.357,0.03-0.66,0.054-1.109,0.042l-0.124-0.018
			l-2.318-0.151l-1.146,0.006c-0.381,0.008-0.764-0.022-1.138,0.024c-0.748,0.074-1.502,0.091-2.228,0.229
			c-0.363,0.063-0.734,0.095-1.089,0.181l-1.062,0.255c-0.356,0.07-0.688,0.21-1.032,0.309c-0.347,0.098-0.678,0.227-1.001,0.368
			c-0.327,0.133-0.657,0.261-0.962,0.432c-0.312,0.158-0.634,0.298-0.924,0.485c-0.6,0.341-1.167,0.732-1.678,1.16
			c-0.255,0.213-0.506,0.431-0.729,0.654c-0.111,0.111-0.228,0.223-0.318,0.332L414,406.5l-4.512-1.365
			c0,0.025-0.008-0.047-0.017-0.107c-0.005-0.056-0.015-0.122-0.028-0.194c-0.023-0.139-0.045-0.277-0.086-0.424
			c-0.058-0.291-0.169-0.575-0.252-0.866c-0.221-0.563-0.463-1.124-0.808-1.616c-0.166-0.252-0.328-0.507-0.541-0.722
			c-0.199-0.226-0.381-0.469-0.622-0.659c-0.423-0.438-0.958-0.772-1.479-1.128c-0.584-0.276-1.131-0.624-1.791-0.82
			c-0.614-0.272-1.308-0.408-1.992-0.572c-0.342-0.104-0.683-0.158-1.025-0.194l-1.029-0.146c-0.321-0.07-0.744-0.065-1.147-0.083
			l-1.211-0.053l-0.604-0.025c-0.159-0.005-0.308-0.021-0.462-0.034l-0.362-0.057l-0.7-0.121l-0.649-0.169
			c-0.879-0.203-1.676-0.522-2.492-0.804c-0.808-0.301-1.56-0.691-2.333-1.032c-0.777-0.337-1.476-0.812-2.209-1.207l-1.077-0.636
			c-0.352-0.226-0.69-0.476-1.034-0.713c-0.682-0.481-1.369-0.945-2.031-1.438c-0.652-0.499-1.247-1.053-1.872-1.576
			c-0.606-0.548-1.224-1.081-1.818-1.647C380.575,388.399,381.315,388.741,382.064,389.069z"/>
	</g>
	<path fill="none" stroke="#1C110B" stroke-width="5" stroke-miterlimit="10" d="M406.91,396.576
		c19.65-16.227,22.629-4.617,22.629-4.617"/>
	<path fill="none" stroke="#1C110B" stroke-width="5" stroke-miterlimit="10" d="M421.523,400.075l8.016-8.116
		c24.417-19.949,47.938,23.226,47.938,23.226c9.844,13.914,15.633,30.669,15.633,30.669c5.508,22.63-9.916,35.284-9.745,42.28
		c0.381,15.635-0.975,17.121-0.081,50.172c0.893,33.049-26.946,137.114-68.928,132.052c-41.983-5.062-46.449-110.169-47.343-143.517
		s-2.085-45.854-11.911-79.201c-9.825-33.347,4.766-48.83,8.934-55.384c4.167-6.554,12.207-18.459,20.544-10.123
		c8.337,8.337,22.331,14.071,22.331,14.071"/>
	<path fill="none" stroke="#1C110B" stroke-width="5" stroke-miterlimit="10" d="M360.906,469.077
		c22.329,6.699,37.518,0.895,54.936,3.126c17.418,2.233,20.099,10.721,40.644,13.166s27.429,0,27.429,0"/>
</g>
<g>
	<g>
		<path fill="#1C110B" d="M88.799,403.548c0.193-1.055,0.461-1.778,0.785-2.581c0.331-0.769,0.691-1.516,1.12-2.212
			c0.415-0.706,0.881-1.372,1.38-2.005c0.499-0.632,1.024-1.242,1.594-1.796c0.552-0.577,1.159-1.082,1.758-1.593
			c0.624-0.477,1.238-0.963,1.897-1.373c0.665-0.451,1.262-0.795,1.875-1.167l1.847-1.107c2.472-1.473,4.994-2.926,7.661-4.184
			c1.337-0.622,2.71-1.197,4.145-1.663c0.717-0.234,1.455-0.426,2.202-0.594l1.144-0.197l1.171-0.109l-0.648,0.262
			c0.154-0.116,0.187-0.124,0.262-0.167c0.069-0.036,0.128-0.063,0.187-0.087c0.123-0.055,0.231-0.084,0.345-0.118
			c0.22-0.057,0.432-0.09,0.634-0.103c0.407-0.028,0.777,0.015,1.126,0.082c0.695,0.143,1.296,0.396,1.854,0.686
			c1.108,0.587,2.043,1.32,2.911,2.097c1.73,1.56,3.19,3.308,4.575,5.095c2.74,3.598,5.087,7.426,7.317,11.306
			c-2.564-3.666-5.238-7.266-8.229-10.542c-1.503-1.622-3.076-3.188-4.796-4.48c-0.856-0.642-1.758-1.214-2.67-1.594
			c-0.452-0.188-0.909-0.323-1.318-0.365c-0.201-0.021-0.395-0.02-0.544,0.01c-0.075,0.013-0.139,0.033-0.188,0.053
			c-0.019,0.011-0.046,0.02-0.049,0.027c0.006-0.008-0.048,0.046,0.083-0.051l-0.65,0.262l-0.95,0.167l-0.951,0.245
			c-0.633,0.198-1.261,0.415-1.884,0.675c-1.246,0.52-2.467,1.147-3.667,1.828c-2.398,1.376-4.714,2.964-7.024,4.604l-1.734,1.239
			c-0.577,0.415-1.183,0.84-1.672,1.229c-0.53,0.381-1.002,0.821-1.486,1.244c-0.452,0.452-0.918,0.892-1.316,1.381
			c-0.422,0.47-0.794,0.977-1.144,1.491c-0.349,0.514-0.665,1.046-0.934,1.592c-0.284,0.54-0.5,1.104-0.695,1.659
			c-0.181,0.531-0.334,1.18-0.361,1.536L88.799,403.548z"/>
	</g>
	<g>
		<path fill="#1C110B" d="M116.522,392.464c-0.201,0.674-0.448,1.349-0.803,1.973c-0.33,0.64-0.751,1.233-1.21,1.809
			c-0.24,0.277-0.494,0.545-0.752,0.813l-0.851,0.721l-0.924,0.633c-0.316,0.199-0.652,0.36-0.982,0.541
			c-0.327,0.194-0.682,0.3-1.027,0.451l-0.523,0.21l-0.574,0.158c-0.354,0.076-0.61,0.194-1.043,0.236
			c-0.401,0.054-0.814,0.108-1.218,0.146c-0.757,0.028-1.514,0.036-2.24-0.022c-0.724-0.044-1.438-0.124-2.102-0.187l-0.984-0.092
			c-0.318-0.031-0.639-0.063-0.929-0.062c-0.604-0.029-1.157,0.006-1.667,0.099c-0.511,0.08-0.962,0.268-1.402,0.464
			c-0.21,0.138-0.419,0.268-0.631,0.391c-0.207,0.139-0.396,0.343-0.597,0.504l-0.297,0.256l-0.278,0.319l-0.564,0.624
			c-0.341,0.491-0.693,0.964-1.023,1.471l-0.933,1.617l-1.911,3.314l-2.104-3.369c-0.246-0.394-0.6-0.939-0.952-1.404
			c-0.345-0.487-0.735-0.953-1.11-1.425c-0.781-0.928-1.595-1.832-2.472-2.674c-0.872-0.847-1.792-1.639-2.732-2.4l-1.455-1.085
			l-1.521-0.985c-0.492-0.353-1.043-0.606-1.565-0.907c-0.527-0.294-1.051-0.596-1.611-0.822l-1.648-0.749l-1.706-0.613
			c-0.285-0.1-0.566-0.215-0.855-0.303l-0.88-0.229l-1.758-0.476l-1.801-0.313l-0.901-0.16l-0.226-0.041l-0.016-0.002
			c-0.078-0.008,0.091,0.007,0.068,0.005l-0.03-0.002l-0.062-0.005l-0.122-0.01l-0.244-0.019l-0.185,0.005l-0.729,0.007
			c-0.242-0.007-0.57,0.059-0.851,0.082c-0.586,0.088-1.167,0.085-1.763,0.241l-1.794,0.376c-0.299,0.065-0.602,0.116-0.901,0.191
			l-0.891,0.283l-1.789,0.568c-0.595,0.197-1.207,0.349-1.78,0.627c-1.163,0.501-2.349,0.963-3.532,1.449
			c-0.295,0.123-0.597,0.233-0.888,0.367l-0.854,0.442c-0.572,0.292-1.138,0.599-1.718,0.88c-1.153,0.579-2.331,1.129-3.478,1.74
			c-1.103,0.679-2.245,1.312-3.372,1.975c-1.131,0.655-2.283,1.294-3.449,1.925c0.946-0.91,1.906-1.814,2.887-2.698
			c0.984-0.879,1.955-1.787,2.964-2.65c1.042-0.813,2.13-1.575,3.201-2.37c0.536-0.396,1.087-0.771,1.632-1.157l0.82-0.577
			c0.281-0.179,0.577-0.338,0.866-0.508c1.164-0.664,2.325-1.353,3.51-2.002c0.577-0.351,1.222-0.585,1.844-0.862l1.884-0.808
			l0.945-0.403c0.323-0.116,0.66-0.211,0.99-0.318l2-0.617c0.66-0.217,1.397-0.29,2.097-0.437c0.367-0.057,0.68-0.146,1.093-0.175
			l1.228-0.083c0.221-0.017,0.402-0.021,0.553-0.013l0.123,0.003l0.061,0.002l0.031,0.001l0.114,0.01l0.259,0.032l1.038,0.128
			l2.078,0.262l2.051,0.455l1.024,0.237c0.339,0.092,0.669,0.212,1.005,0.316l2.004,0.657l1.938,0.834
			c0.655,0.263,1.271,0.602,1.891,0.938c0.612,0.344,1.254,0.643,1.834,1.041c0.593,0.378,1.183,0.762,1.764,1.156l1.676,1.275
			c1.084,0.889,2.136,1.816,3.105,2.829c0.979,1.001,1.891,2.064,2.751,3.171c0.412,0.57,0.833,1.131,1.216,1.729
			c0.402,0.604,0.744,1.166,1.145,1.908l-4.014-0.055l1.23-1.861c0.456-0.606,0.959-1.202,1.448-1.792l0.867-0.841l0.438-0.413
			c0.164-0.128,0.342-0.248,0.512-0.371c0.353-0.238,0.675-0.496,1.055-0.703l1.182-0.565c0.83-0.294,1.688-0.516,2.543-0.567
			c0.843-0.064,1.668-0.019,2.418,0.09c0.393,0.041,0.748,0.113,1.104,0.183c0.365,0.063,0.71,0.144,1.04,0.226
			c0.682,0.159,1.313,0.318,1.944,0.443c0.628,0.137,1.233,0.209,1.843,0.274l0.826,0.024c0.254,0.035,0.655-0.062,0.977-0.085
			l0.255-0.026l0.128-0.013l0.064-0.007l0.031-0.003l0.017-0.002c-0.033,0.008,0.083-0.019-0.071,0.017l0.007-0.001l0.453-0.099
			c0.299-0.075,0.619-0.108,0.904-0.222c0.291-0.102,0.596-0.183,0.883-0.301l0.854-0.387l0.812-0.478l0.772-0.554
			c0.489-0.406,0.971-0.845,1.384-1.352c0.43-0.495,0.792-1.052,1.141-1.625c0.338-0.582,0.62-1.201,0.838-1.854
			C116.858,391.098,116.725,391.79,116.522,392.464z"/>
	</g>
	<path fill="none" stroke="#1C110B" stroke-width="5" stroke-miterlimit="10" d="M44.755,388.599
		c6.699-7.987,15.632-7.868,15.632-7.868C78.029,382.965,87.705,398,87.705,398c3.237-4.798,15.335-11.909,15.335-11.909
		c25.011-29.03,41.09,28.584,41.09,28.584c3.126,54.043-5.359,40.644-8.188,66.102c-2.831,25.458-9.677,119.249-38.261,162.125
		c-28.584,42.875-50.47,4.021-50.47,4.021c-32.156-66.549-28.287-134.435-28.585-150.514s-2.083-18.164-2.083-18.164
		c-16.078-34.838-12.348-34.537,0-63.718c12.349-29.181,19.279-30.636,19.279-30.636c5.805,1.147,14.49,9.521,14.49,9.521"/>
	<path fill="none" stroke="#1C110B" stroke-width="5" stroke-miterlimit="10" d="M16.542,478.244
		c3.273,0.148,46.747-6.4,58.782-6.848c12.034-0.445,28.608,2.68,41.558,5.807c12.951,3.126,20.155-3.472,20.155-3.472"/>
	<g>
		<path fill="#1C110B" d="M124.175,532.974c-0.22,2-0.525,4.938-1.049,8.66c-0.514,3.723-1.17,8.242-2.091,13.4
			c-0.906,5.161-2.018,10.972-3.471,17.266c-1.437,6.297-3.153,13.092-5.346,20.186c-2.19,7.091-4.785,14.512-8.151,21.951
			c-1.728,3.699-3.532,7.453-5.729,11.09c-2.185,3.633-4.548,7.269-7.521,10.555c-3.033,3.356-6.187,6.114-9.512,8.986
			c-3.332,2.81-6.805,5.55-10.927,7.729c-2.071,1.052-4.389,1.975-7.097,2.141c-2.695,0.255-5.719-0.91-7.619-2.641
			c-1.972-1.711-3.309-3.685-4.456-5.619c-1.145-1.947-2.109-3.905-3.021-5.847c-0.909-1.941-1.771-3.872-2.625-5.78
			c-0.421-0.954-0.84-1.906-1.259-2.854l-0.646-1.462l-0.604-1.432c-0.402-0.954-0.805-1.904-1.203-2.851
			c-0.375-0.981-0.749-1.959-1.121-2.933c-0.771-1.95-1.429-3.884-2.093-5.802c-2.656-7.673-4.744-15.214-6.56-22.397
			c-1.848-7.176-3.235-14.043-4.414-20.394c-1.186-6.352-2.011-12.221-2.621-17.432c-0.322-2.603-0.517-5.054-0.729-7.313
			c-0.168-2.266-0.263-4.351-0.38-6.228c-0.122-3.765-0.154-6.72-0.048-8.734c0.066-2.012,0.102-3.083,0.102-3.083
			s0.059,1.071,0.17,3.08c0.057,2.007,0.398,4.938,0.769,8.659c0.253,1.856,0.497,3.913,0.826,6.143
			c0.391,2.223,0.7,4.638,1.185,7.199c0.479,2.561,0.952,5.289,1.582,8.143c0.299,1.43,0.604,2.896,0.918,4.396
			c0.339,1.494,0.684,3.023,1.038,4.587c1.478,6.233,3.172,12.963,5.208,20.007c2.038,7.041,4.385,14.409,7.102,21.892
			c0.69,1.867,1.378,3.757,2.147,5.591c0.374,0.925,0.751,1.853,1.128,2.784c0.419,0.938,0.84,1.88,1.262,2.825
			c1.725,3.732,3.47,7.51,5.229,11.319c0.895,1.873,1.822,3.713,2.845,5.424c1.015,1.709,2.166,3.276,3.44,4.354
			c0.639,0.534,1.291,0.95,1.981,1.164c0.332,0.156,0.703,0.172,1.055,0.266c0.381-0.004,0.739,0.08,1.146,0.016
			c1.583-0.095,3.363-0.744,5.092-1.64c3.487-1.804,6.837-4.361,10.037-7.035c3.156-2.679,6.428-5.538,9.067-8.435
			c5.337-6.052,9.44-13.184,12.87-20.295c3.371-7.163,6.208-14.335,8.599-21.248c2.36-6.926,4.384-13.563,6.108-19.733
			c3.422-12.353,5.788-22.802,7.358-30.134c0.767-3.67,1.377-6.557,1.756-8.531c0.372-1.976,0.571-3.03,0.571-3.03
			S124.369,530.973,124.175,532.974z"/>
	</g>
</g>
<g>
	<g>
		<path fill="#1C110B" d="M315.9,604.701c-0.173-0.536-0.349-1.069-0.569-1.588c-0.2-0.523-0.441-1.03-0.682-1.535
			c-0.229-0.511-0.514-0.995-0.766-1.491c-0.257-0.493-0.566-0.961-0.847-1.44c-0.275-0.482-0.619-0.927-0.924-1.39
			c-0.302-0.466-0.648-0.902-0.99-1.34c-0.347-0.435-0.659-0.892-1.035-1.303l-1.083-1.26c-0.374-0.408-0.769-0.799-1.15-1.198
			c-0.385-0.397-0.765-0.799-1.184-1.164l-1.224-1.119c-0.396-0.386-0.853-0.709-1.271-1.068l-1.273-1.06l-2.666-1.974l-0.209-0.155
			l-0.224-0.372c-0.229-0.383-0.617-0.92-0.998-1.335c-0.382-0.441-0.807-0.85-1.258-1.214c-0.9-0.733-1.9-1.306-2.957-1.714
			c-0.264-0.102-0.543-0.162-0.812-0.249c-0.268-0.091-0.542-0.16-0.827-0.189l-0.839-0.142l-0.861-0.033
			c-1.145-0.049-2.316,0.122-3.475,0.39c-0.582,0.082-1.153,0.351-1.729,0.514c-0.55,0.164-1.218,0.421-1.834,0.65
			c-1.296,0.477-2.566,0.892-3.842,1.318c-2.545,0.841-5.077,1.662-7.576,2.525c-2.502,0.855-4.967,1.775-7.392,2.729
			c-2.417,0.966-4.796,1.999-7.021,3.21c-2.227,1.2-4.318,2.577-5.995,4.185c-1.645,1.624-2.813,3.425-3.014,5.343l-4.895-0.589
			c-0.011,0.054-0.016,0.109-0.018,0.164c-0.001,0.03-0.002,0.013-0.003,0.021c-0.001,0.005-0.001,0.012,0.002,0.018l-0.014-0.088
			c0.003-0.06-0.05-0.194-0.064-0.289c-0.085-0.234-0.152-0.486-0.304-0.761c-0.115-0.269-0.276-0.547-0.459-0.826
			c-0.154-0.282-0.365-0.561-0.577-0.838c-0.384-0.566-0.914-1.098-1.385-1.645c-0.548-0.513-1.031-1.066-1.628-1.552
			c-1.129-1.017-2.372-1.946-3.622-2.881l-1.927-1.354l-2.002-1.275c-1.319-0.873-2.746-1.613-4.114-2.428l-4.225-2.23
			c-1.507-0.743-2.824-1.382-4.276-1.946c-1.432-0.543-2.876-0.985-4.311-1.213c-1.434-0.23-2.846-0.233-4.209,0.056
			c-1.364,0.273-2.693,0.854-3.966,1.648c-2.559,1.592-4.85,3.893-7.149,6.163c-2.302,2.285-4.534,4.684-6.878,6.971
			c-1.166,1.15-2.337,2.296-3.531,3.416c-1.203,1.113-2.418,2.21-3.643,3.294c4.243-4.993,8.2-10.131,12.352-15.226
			c1.045-1.272,2.118-2.53,3.286-3.74c1.164-1.211,2.405-2.391,3.83-3.438c1.418-1.038,3.052-1.954,4.866-2.439
			c1.809-0.496,3.71-0.587,5.509-0.399c1.805,0.188,3.521,0.619,5.172,1.143c1.622,0.531,3.295,1.207,4.735,1.859l4.509,2.191
			c1.463,0.803,2.963,1.521,4.398,2.4l2.169,1.282l2.127,1.391c1.407,0.958,2.774,1.993,4.09,3.139
			c0.674,0.541,1.287,1.205,1.932,1.805c0.605,0.678,1.236,1.305,1.79,2.077c0.285,0.369,0.567,0.741,0.819,1.168
			c0.265,0.404,0.517,0.829,0.738,1.306c0.238,0.443,0.428,0.971,0.604,1.508c0.073,0.302,0.159,0.554,0.208,0.902
			c0.023,0.174,0.049,0.329,0.064,0.519l0.011,0.322v0.175c-0.005,0.105-0.014,0.212-0.026,0.316l-4.896-0.589
			c0.167-1.702,0.74-3.348,1.55-4.762c0.808-1.421,1.822-2.639,2.922-3.684c2.212-2.069,4.659-3.598,7.141-4.907
			c2.485-1.314,5.028-2.382,7.58-3.37c2.551-0.989,5.142-1.798,7.716-2.604c2.578-0.796,5.154-1.535,7.707-2.288l3.786-1.133
			c0.647-0.199,1.238-0.394,1.977-0.582c0.718-0.167,1.392-0.427,2.142-0.506c1.456-0.253,2.962-0.387,4.481-0.241
			c0.38,0.036,0.76,0.065,1.137,0.114l1.126,0.247c0.377,0.07,0.743,0.183,1.104,0.322c0.361,0.134,0.73,0.247,1.08,0.404
			c1.413,0.619,2.684,1.512,3.777,2.552c0.549,0.52,1.05,1.083,1.497,1.687c0.464,0.617,0.839,1.185,1.229,1.985l-0.433-0.527
			l2.631,2.277l1.252,1.212c0.41,0.411,0.841,0.796,1.22,1.239l1.164,1.295c0.397,0.421,0.756,0.879,1.116,1.334
			c0.359,0.456,0.728,0.901,1.076,1.364l1,1.422c0.344,0.465,0.636,0.968,0.937,1.462c0.3,0.495,0.603,0.985,0.86,1.506
			c0.26,0.518,0.556,1.012,0.783,1.545c0.231,0.53,0.49,1.043,0.695,1.583c0.196,0.543,0.439,1.063,0.594,1.621
			c0.172,0.549,0.343,1.096,0.47,1.657c0.147,0.553,0.249,1.118,0.346,1.681c0.084,0.564,0.158,1.131,0.166,1.699
			C316.209,605.785,316.058,605.239,315.9,604.701z"/>
	</g>
	<path fill="none" stroke="#1C110B" stroke-width="5" stroke-miterlimit="10" d="M223.122,581.881
		c16.517-0.002,32.661,8.475,32.661,8.475"/>
	<path fill="none" stroke="#1C110B" stroke-width="5" stroke-linecap="round" stroke-miterlimit="10" d="M201.999,584.61
		c-27.731,11.513-26.238,31.113-26.238,31.113c-1.342,16.526,3.572,33.975,3.572,33.975c7.593,33.079,6.848,49.992,6.848,49.992
		c-0.746,33.943,1.861,78.158,4.316,115.898c2.458,37.739,18.759,35.729,18.759,35.729c14.069,0.224,17.195-33.498,17.195-33.498
		c2.01-21.883,7.369-66.322,7.369-66.322c2.68-20.991,10.719-20.546,10.719-20.546c20.099,0.447,29.478,82.179,20.099,108.53
		c-9.379,26.35,2.681,27.69,2.681,27.69c22.332,7.593,35.704-36.623,35.704-36.623c20.07-76.819,10.594-81.581,10.729-123.861
		c0.134-42.28,0.46-32.159,9.096-74.438c8.638-42.279-21.026-47.641-21.026-47.641"/>
	<path fill="none" stroke="#1C110B" stroke-width="5" stroke-miterlimit="10" d="M184.842,680.101
		c6.403-0.828,21.51-14.132,33.569-14.82c12.06-0.688,20.77,5.154,35.061,6.494c14.293,1.339,23.671-6.923,33.052-6.477
		c9.379,0.445,13.622,4.241,19.427,6.923c5.808,2.679,8.665,1.267,8.665,1.267"/>
</g>
<g>
	<path fill="none" stroke="#1C110B" stroke-width="5" stroke-linecap="round" stroke-miterlimit="10" d="M315.813,399.922
		c-17.866-27.021-48.013-19.428-48.013-19.428c-28.585-3.35-37.069,4.497-37.069,4.497c-17.865,0.479-31.935,16.94-31.935,16.94
		c-13.844,4.689-17.194,15.632-17.194,15.632c-8.157,24.476-0.689,29.904,3.797,44.886c1.899,6.345-3.231,12.663,0.224,25.682
		c11.612,43.77,41.554,27.598,62.527,28.585c9.274,0.437,23.446,8.263,45.107,0c36.438-13.897,24.565-57.614,24.565-57.614
		C322.735,452.178,333.676,426.944,315.813,399.922z"/>
	<g>
		<path fill="#1C110B" d="M306.964,449.862c-2.268-1.165-4.505-2.377-6.759-3.563l1.039,0.122c-1.755,0.713-3.525,1.466-5.259,2.25
			c-0.868,0.393-1.732,0.792-2.586,1.206c-0.857,0.402-1.716,0.805-2.551,1.232c-1.67,0.846-3.33,1.746-4.749,2.748
			c-0.353,0.25-0.696,0.502-0.967,0.759l-0.219,0.188l-0.402,0.324l-0.142,0.111l-0.074,0.059l-0.149,0.094
			c-0.203,0.124-0.412,0.242-0.624,0.35c-1.439,0.645-2.655,0.681-3.787,0.698c-2.242-0.026-4.193-0.417-6.114-0.753
			c-1.915-0.342-3.765-0.709-5.582-0.966c-1.813-0.252-3.597-0.398-5.273-0.317c-1.684,0.071-3.223,0.439-4.518,1.097l-0.732,0.37
			l-0.747-0.104c-1.428-0.199-2.795-0.41-4.187-0.64c-1.383-0.241-2.769-0.452-4.142-0.744c-1.376-0.281-2.753-0.541-4.125-0.84
			l-4.104-0.977c-1.367-0.321-2.723-0.74-4.079-1.122l-2.032-0.585l-2.018-0.696l-2.006-0.721c-0.668-0.239-1.337-0.466-1.992-0.788
			l-3.932-1.792l0.772,0.176c-2.978-0.098-5.955-0.304-8.933-0.449l0.231-0.021c-0.441,0.053-0.801,0.055-1.188,0.074
			c-0.385,0.029-0.753-0.004-1.13-0.011c-0.373-0.019-0.748-0.013-1.116-0.062l-1.105-0.115c-0.737-0.052-1.458-0.223-2.181-0.347
			l-1.078-0.205l-1.059-0.295c-0.697-0.222-1.409-0.373-2.083-0.651l-2.018-0.813c-0.334-0.135-0.669-0.261-0.98-0.45l-0.948-0.521
			l-1.871-1.048l2.041,0.645l1.009,0.324c0.328,0.124,0.682,0.176,1.024,0.257l2.054,0.454c0.679,0.158,1.386,0.187,2.071,0.286
			l1.029,0.136l1.036,0.052c0.689,0.022,1.374,0.092,2.061,0.043l1.024-0.034c0.342,0.001,0.677-0.054,1.013-0.084
			c0.333-0.044,0.678-0.052,0.999-0.11c0.32-0.051,0.671-0.095,0.931-0.156l0.047-0.011l0.187-0.009
			c2.978-0.146,5.955-0.352,8.933-0.45l0.267-0.01l0.508,0.186l3.758,1.367c0.611,0.249,1.271,0.416,1.924,0.593l1.956,0.536
			l1.945,0.557l1.991,0.455c1.332,0.287,2.64,0.643,3.981,0.903l4.02,0.796c1.341,0.259,2.692,0.479,4.038,0.723
			c1.346,0.247,2.702,0.431,4.051,0.662c1.344,0.212,2.717,0.411,4.036,0.584l-1.479,0.269c2.138-1.114,4.457-1.553,6.615-1.636
			c2.174-0.097,4.245,0.145,6.236,0.47c1.991,0.323,3.91,0.758,5.771,1.177c1.854,0.411,3.694,0.806,5.307,0.919
			c0.781,0.057,1.542-0.021,1.88-0.149c0.002-0.004,0.006,0.003,0.018,0.018l0.01,0.012l0.071-0.05l0.147-0.104l0.148-0.104
			l0.037-0.025l0.009-0.007c-0.276,0.225-0.07,0.057-0.129,0.106l0.021-0.018l0.086-0.064l0.348-0.261
			c0.467-0.366,0.924-0.646,1.38-0.921c1.824-1.081,3.636-1.875,5.465-2.635c1.822-0.759,3.666-1.417,5.522-2.02
			c1.857-0.606,3.705-1.182,5.598-1.706l0.629-0.175l0.41,0.297c2.063,1.492,4.143,2.96,6.193,4.475
			c2.051,1.512,4.098,3.033,6.108,4.61C311.496,452.192,309.225,451.034,306.964,449.862z"/>
	</g>
	<g>
		<path fill="#1C110B" d="M257.39,453.077c0,0-0.247,1.979-0.617,4.949c-0.192,1.485-0.38,3.212-0.679,5.081
			c-0.278,1.861-0.577,3.846-0.874,5.831c-0.576,3.969-1.247,7.889-1.708,10.848c-0.483,2.951-0.807,4.919-0.807,4.919
			s0.012-1.992,0.029-4.982c-0.009-2.986,0.043-6.984-0.009-10.947c-0.015-1.979-0.03-3.96-0.046-5.816
			c0.004-1.846-0.081-3.597-0.123-5.089c-0.097-2.986-0.161-4.978-0.161-4.978L257.39,453.077z"/>
	</g>
	<g>
		<path fill="#1C110B" d="M256.006,452.648c0,0,0.049-0.151,0.143-0.434c0.087-0.281,0.214-0.694,0.377-1.219
			c0.318-1.07,0.761-2.619,1.219-4.505c0.238-0.939,0.469-1.967,0.708-3.055c0.249-1.087,0.455-2.244,0.7-3.438
			c0.197-1.199,0.44-2.438,0.62-3.705c0.18-1.269,0.385-2.557,0.515-3.852c0.158-1.295,0.292-2.592,0.379-3.873
			c0.119-1.281,0.184-2.544,0.226-3.768c0.07-1.227,0.084-2.41,0.075-3.535c0.007-1.126,0.012-2.192-0.051-3.173
			c-0.044-0.984-0.084-1.888-0.12-2.687c-0.075-0.797-0.141-1.492-0.195-2.065c-0.108-1.147-0.171-1.804-0.171-1.804
			s0.14,0.645,0.384,1.771c0.121,0.564,0.27,1.251,0.439,2.039c0.131,0.795,0.279,1.691,0.44,2.671
			c0.18,0.979,0.303,2.048,0.431,3.18c0.144,1.133,0.272,2.329,0.349,3.572c0.105,1.242,0.192,2.528,0.227,3.837
			c0.065,1.311,0.088,2.641,0.084,3.974c0.024,1.335-0.027,2.666-0.058,3.98c-0.028,1.315-0.124,2.604-0.182,3.857
			c-0.103,1.248-0.174,2.46-0.296,3.604c-0.112,1.146-0.224,2.23-0.354,3.229c-0.24,2-0.508,3.662-0.709,4.835
			c-0.108,0.594-0.194,1.061-0.254,1.379c-0.063,0.313-0.096,0.48-0.096,0.48L256.006,452.648z"/>
	</g>
	<g>
		<path fill="#1C110B" d="M268.408,453.179c0,0-0.021,0.034-0.058,0.099c-0.023,0.044-0.018,0.041-0.042,0.071
			c-0.048,0.101-0.184,0.389-0.284,0.785c-0.067,0.188-0.116,0.423-0.159,0.688c-0.049,0.261-0.115,0.539-0.13,0.866
			c-0.02,0.323-0.078,0.659-0.077,1.032c0.001,0.376,0.003,0.771,0.005,1.185c0.011,0.416,0.076,0.858,0.113,1.314
			c0.027,0.457,0.098,0.932,0.2,1.421c0.096,0.49,0.174,0.995,0.285,1.512c0.138,0.513,0.278,1.039,0.421,1.573
			c0.071,0.269,0.144,0.54,0.217,0.812c0.094,0.27,0.188,0.54,0.282,0.813c0.191,0.546,0.385,1.098,0.578,1.656
			c0.414,1.108,0.929,2.209,1.395,3.332c0.517,1.101,1.088,2.181,1.624,3.262c0.541,1.078,1.181,2.083,1.744,3.091
			c0.291,0.499,0.575,0.991,0.854,1.471c0.304,0.468,0.6,0.925,0.888,1.368c0.579,0.893,1.126,1.736,1.632,2.513
			c0.509,0.777,1.027,1.452,1.462,2.07c0.44,0.614,0.825,1.15,1.142,1.591c0.635,0.884,0.997,1.389,0.997,1.389
			s-0.423-0.455-1.162-1.25c-0.371-0.399-0.82-0.883-1.336-1.438c-0.51-0.562-1.116-1.171-1.721-1.882
			c-0.604-0.715-1.259-1.49-1.95-2.308c-0.347-0.411-0.703-0.833-1.067-1.265c-0.343-0.449-0.692-0.906-1.049-1.374
			c-0.698-0.943-1.476-1.884-2.167-2.913c-0.686-1.032-1.413-2.066-2.09-3.138c-0.631-1.101-1.311-2.179-1.896-3.294
			c-0.28-0.567-0.561-1.129-0.837-1.684c-0.139-0.278-0.275-0.557-0.412-0.831c-0.116-0.287-0.233-0.571-0.349-0.853
			c-0.229-0.565-0.457-1.123-0.679-1.669c-0.199-0.557-0.364-1.119-0.539-1.661c-0.184-0.538-0.335-1.075-0.441-1.612
			c-0.113-0.534-0.25-1.043-0.331-1.552c-0.067-0.515-0.133-1.008-0.195-1.477c-0.059-0.472-0.052-0.941-0.074-1.373
			c-0.03-0.429,0.002-0.852,0.024-1.242c0.017-0.387,0.046-0.748,0.108-1.087c0.09-0.674,0.23-1.197,0.371-1.642
			c0.092-0.238,0.162-0.42,0.209-0.543c0.029-0.069,0.044-0.105,0.044-0.105L268.408,453.179z"/>
	</g>
	<g>
		<path fill="#1C110B" d="M234.982,450.127c0,0-0.338,0.398-0.928,1.095c-0.603,0.696-1.409,1.693-2.378,2.896
			c-0.485,0.602-1.012,1.253-1.569,1.942c-0.552,0.696-1.162,1.406-1.742,2.185c-1.173,1.552-2.424,3.207-3.675,4.862
			c-0.628,0.831-1.255,1.66-1.871,2.477c-0.637,0.807-1.167,1.657-1.732,2.452c-1.106,1.607-2.14,3.106-3.026,4.392
			c-1.775,2.578-2.961,4.297-2.961,4.297s0.914-1.875,2.284-4.688c0.688-1.41,1.491-3.055,2.351-4.818
			c0.442-0.875,0.848-1.813,1.357-2.706c0.491-0.905,0.99-1.825,1.489-2.745c1.002-1.845,2.003-3.689,2.941-5.418
			c0.464-0.868,0.971-1.679,1.422-2.465c0.458-0.782,0.892-1.521,1.292-2.205c0.801-1.369,1.471-2.512,1.955-3.277
			c0.479-0.777,0.754-1.221,0.754-1.221L234.982,450.127z"/>
	</g>
	<g>
		<path fill="#1C110B" d="M252.321,454.569c0,0-0.432-0.532-1.185-1.464c-0.763-0.944-1.831-2.299-3.068-3.934
			c-1.27-1.617-2.66-3.572-4.182-5.636c-0.766-1.026-1.495-2.139-2.268-3.239c-0.761-1.111-1.552-2.223-2.307-3.362
			c-0.738-1.15-1.477-2.301-2.203-3.433c-0.714-1.14-1.469-2.223-2.088-3.348c-0.643-1.106-1.264-2.176-1.852-3.19
			c-0.575-1.022-1.172-1.952-1.625-2.871c-1.829-3.648-3.049-6.08-3.049-6.08s1.486,2.268,3.715,5.671
			c0.549,0.851,1.25,1.709,1.932,2.648c0.695,0.932,1.428,1.913,2.185,2.93c0.732,1.029,1.604,2.017,2.435,3.054
			c0.841,1.029,1.696,2.073,2.55,3.118c0.87,1.032,1.776,2.037,2.646,3.038c0.884,0.992,1.719,1.994,2.587,2.915
			c1.725,1.85,3.301,3.601,4.723,5.036c1.399,1.461,2.578,2.646,3.407,3.461c0.842,0.825,1.322,1.297,1.322,1.297L252.321,454.569z"
			/>
	</g>
	<g>
		<path fill="#1C110B" d="M269.274,451.725c0,0,1.091-1.797,2.726-4.493c1.618-2.708,3.77-6.332,5.823-10.005
			c0.512-0.919,1.05-1.829,1.53-2.743c0.491-0.912,0.976-1.809,1.443-2.678c0.964-1.729,1.73-3.393,2.449-4.803
			c0.361-0.705,0.676-1.357,0.909-1.951c0.25-0.592,0.467-1.107,0.646-1.531c0.359-0.853,0.565-1.341,0.565-1.341
			s-0.131,0.511-0.36,1.405c-0.115,0.449-0.255,0.994-0.416,1.62c-0.146,0.635-0.364,1.33-0.616,2.082
			c-0.504,1.503-1.027,3.299-1.729,5.154c-0.337,0.937-0.688,1.903-1.041,2.885c-0.346,0.989-0.743,1.969-1.118,2.961
			c-1.502,3.971-3.105,7.896-4.318,10.84c-1.231,2.938-2.054,4.896-2.054,4.896L269.274,451.725z"/>
	</g>
	<g>
		<path fill="#1C110B" d="M309.319,427.337c0.03-1.197-0.166-2.978-1.012-4.991c-0.437-1-1.068-2.029-1.876-3.048
			c-0.441-0.482-0.865-1.005-1.396-1.473l-0.384-0.365l-0.098-0.092l-0.048-0.046c0.015,0.012-0.065-0.061,0.025,0.022l-0.028-0.021
			l-0.228-0.172c-0.305-0.229-0.614-0.46-0.929-0.696c-0.289-0.124-0.563-0.263-0.843-0.399c-0.31-0.036-0.605-0.196-0.911-0.166
			c-0.594-0.066-1.22,0.192-1.897,0.506c-1.377,0.706-2.909,2.019-5.169,2.665c-0.548,0.19-1.148,0.24-1.752,0.304
			c-0.603,0.054-1.208-0.042-1.824-0.078c-0.575-0.141-1.178-0.269-1.75-0.452c-0.541-0.229-1.087-0.462-1.638-0.695
			c-0.48-0.274-0.965-0.551-1.452-0.828c-0.479-0.304-1.008-0.714-1.512-1.082c-0.475-0.396-0.918-0.809-1.368-1.232
			c-0.402-0.458-0.859-0.897-1.222-1.391c-1.556-1.932-2.605-4.14-3.82-5.66c-0.605-0.769-1.282-1.3-2.05-1.754l-0.604-0.307
			c-0.212-0.092-0.451-0.153-0.673-0.235c-0.431-0.184-0.959-0.248-1.452-0.363c-0.11-0.021-0.283-0.064-0.341-0.069l-0.453-0.062
			l-0.907-0.123c-0.575-0.055-1.087-0.108-1.638-0.13c-1.107-0.066-2.143,0.013-3.003,0.234c-0.858,0.244-1.513,0.633-2.545,1.39
			c-0.489,0.361-1.095,0.766-1.706,1.147c-0.324,0.181-0.642,0.375-0.976,0.542l-0.505,0.246l-0.253,0.123
			c0.145-0.054-0.267,0.11-0.245,0.1l-0.056,0.02l-0.113,0.04l-0.451,0.159l-0.226,0.08l-0.375,0.086
			c-0.486,0.101-1.061,0.223-1.444,0.218c-0.857,0.062-1.67,0-2.425-0.109c-1.518-0.225-2.85-0.623-4.113-1.006
			c-2.496-0.767-4.795-1.516-6.972-1.632c-0.273-0.019-0.544-0.05-0.808-0.036l-0.398,0.001l-0.199-0.001h-0.1
			c0.338-0.031,0.058-0.005,0.119-0.01l-0.062,0.007l-0.964,0.113c-0.207,0.055-0.255,0.105-0.402,0.123
			c-0.588,0.196-0.94,0.56-1.565,1.521c-0.59,0.927-1.301,2.326-2.454,3.545c-1.132,1.244-2.636,2.146-4.077,2.679
			c-0.73,0.313-1.448,0.468-2.168,0.652l-0.27,0.066l-0.067,0.018c0.049-0.009-0.144,0.028-0.145,0.027l-0.117,0.021l-0.47,0.077
			l-0.936,0.152c-1.474,0.154-2.877,0.237-4.249,0.142c-2.771-0.119-5.394-0.832-7.688-1.427c-1.146-0.293-2.219-0.54-3.198-0.631
			c-0.247-0.028-0.49-0.049-0.719-0.041c-0.233-0.001-0.47-0.014-0.689,0.021l-0.336,0.025l-0.084,0.007l-0.042,0.002
			c-0.095,0.016,0.083-0.021,0.043-0.013l-0.216,0.041l-0.434,0.082c-0.154,0.026-0.288,0.056-0.356,0.083
			c-0.342,0.094-0.772,0.228-1.117,0.42c-0.366,0.171-0.666,0.413-0.976,0.68c-0.603,0.551-1.141,1.376-1.831,2.375
			c-0.361,0.498-0.748,1.023-1.258,1.523c-0.113,0.127-0.259,0.243-0.392,0.362l-0.204,0.176l-0.051,0.043
			c-0.07,0.054,0.085-0.059-0.171,0.132l-0.087,0.055c-0.253,0.146-0.416,0.275-0.741,0.437l-0.879,0.449l-0.714,0.341
			c-0.459,0.227-0.913,0.451-1.364,0.673c-1.76,0.895-3.29,1.967-4.57,3.207c-2.569,2.476-4.065,5.591-4.716,8.548
			c-0.187,0.732-0.254,1.471-0.383,2.173c-0.057,0.353-0.112,0.701-0.168,1.041c-0.019,0.346-0.037,0.685-0.055,1.018
			c-0.074,1.332-0.175,2.569-0.07,3.687c0.071,1.115,0.066,2.127,0.162,2.997c0.11,0.869,0.204,1.609,0.279,2.211
			c0.152,1.207,0.233,1.851,0.233,1.851s-0.174-0.625-0.5-1.796c-0.165-0.589-0.365-1.316-0.603-2.17
			c-0.234-0.857-0.358-1.872-0.563-3.003c-0.398-2.259-0.577-5.087-0.216-8.354c0.153-0.813,0.31-1.652,0.471-2.517
			c0.264-0.842,0.548-1.714,0.855-2.607c0.786-1.712,1.751-3.512,3.191-5.055c1.385-1.577,3.106-2.985,4.997-4.139
			c0.467-0.274,0.953-0.58,1.423-0.828c0.416-0.232,0.835-0.466,1.257-0.7c0.164-0.072,0.429-0.286,0.639-0.424l0.084-0.059
			c-0.229,0.171-0.05,0.032-0.094,0.064l0.023-0.025l0.101-0.1c0.064-0.069,0.136-0.123,0.197-0.207
			c0.261-0.285,0.514-0.666,0.781-1.083c0.534-0.852,1.142-1.996,2.156-3.069c0.514-0.519,1.101-1.024,1.757-1.397
			c0.649-0.397,1.315-0.674,2.089-0.919c0.205-0.069,0.356-0.108,0.488-0.14l0.428-0.105l0.214-0.054l0.151-0.029l0.067-0.011
			l0.135-0.02l0.542-0.077c0.365-0.059,0.722-0.062,1.081-0.071c0.366-0.02,0.715-0.004,1.063,0.021
			c1.398,0.085,2.687,0.352,3.9,0.616c2.414,0.539,4.617,1.042,6.854,1.058c1.124,0.045,2.235-0.079,3.269-0.206l0.935-0.165
			l0.468-0.082l0.116-0.021c0.039-0.008-0.115,0.021-0.027,0.003l0.048-0.014l0.189-0.052c0.506-0.141,1.038-0.252,1.475-0.46
			c0.933-0.362,1.678-0.829,2.271-1.497c0.62-0.655,1.098-1.573,1.856-2.835c0.187-0.311,0.394-0.634,0.663-0.985
			c0.226-0.336,0.563-0.688,0.89-1.023c0.324-0.338,0.761-0.628,1.154-0.921c0.437-0.233,0.863-0.471,1.337-0.65
			c0.477-0.151,1.044-0.312,1.467-0.392l0.962-0.124l0.3-0.031l0.144-0.003l0.286-0.005l0.571-0.008
			c0.384-0.016,0.757,0.01,1.13,0.043c3.014,0.218,5.669,1.172,8.082,1.929c1.197,0.381,2.342,0.719,3.362,0.878
			c0.511,0.083,0.986,0.115,1.403,0.089c0.259,0.011,0.306-0.046,0.451-0.038l0.097,0.003l0.226-0.075l0.453-0.154l0.113-0.039
			l0.057-0.02c0.061-0.021-0.315,0.124-0.136,0.053l0.177-0.085l0.354-0.167c0.235-0.113,0.462-0.253,0.693-0.375
			c0.469-0.284,0.915-0.585,1.458-0.951c1.013-0.71,2.561-1.631,4.144-1.975c1.573-0.347,3.051-0.352,4.396-0.235
			c0.679,0.048,1.387,0.146,2.026,0.233l0.903,0.153l0.449,0.076c0.243,0.041,0.362,0.082,0.55,0.123
			c0.685,0.176,1.357,0.297,2.039,0.59c0.338,0.134,0.677,0.247,1.008,0.404l0.978,0.536c1.271,0.771,2.387,1.84,3.161,2.961
			c0.78,1.11,1.358,2.199,1.894,3.194c0.535,0.974,1.038,1.899,1.618,2.693c0.271,0.424,0.606,0.765,0.899,1.153
			c0.331,0.343,0.667,0.694,1.002,1.012c0.36,0.282,0.651,0.567,1.053,0.86c0.417,0.279,0.831,0.559,1.241,0.835
			c0.398,0.208,0.792,0.414,1.183,0.617c0.396,0.157,0.788,0.267,1.181,0.413c0.778,0.129,1.545,0.225,2.313,0.033
			c1.556-0.263,3.041-1.322,4.869-2.083c0.945-0.338,2.023-0.652,3.113-0.446c0.538,0.038,1.001,0.291,1.479,0.441
			c0.436,0.248,0.851,0.521,1.247,0.785c0.292,0.269,0.579,0.532,0.861,0.792l0.209,0.193l0.026,0.024
			c0.108,0.097,0.044,0.043,0.074,0.072l0.05,0.057l0.097,0.112l0.383,0.443c0.528,0.564,0.935,1.199,1.345,1.782
			c0.752,1.224,1.299,2.424,1.639,3.555c0.67,2.275,0.541,4.147,0.35,5.352c-0.201,1.215-0.472,1.813-0.472,1.813
			S309.292,428.544,309.319,427.337z"/>
	</g>
	<g>
		<path fill="#1C110B" d="M299.477,488.16c-1,1.686-2.122,3.313-3.403,4.833c-2.532,3.053-5.713,5.727-9.522,7.429
			c-1.896,0.854-3.95,1.411-6.044,1.659c-1.048,0.126-2.103,0.17-3.158,0.157c-0.544-0.028-1.01-0.041-1.622-0.086l-1.441-0.151
			l-1.442-0.15l-1.513-0.247c-1.02-0.151-2.016-0.368-3.006-0.605c-0.996-0.199-1.984-0.541-2.974-0.831
			c-0.978-0.366-1.964-0.712-2.918-1.177c-1.919-0.871-3.753-2.063-5.334-3.262c-1.604-1.207-2.873-2.135-4.219-2.53l-0.521-0.14
			l-0.131-0.036l-0.031-0.01c0.422,0.069,0.104,0.017,0.191,0.032l-0.021-0.003l-0.09-0.011l-0.36-0.042l-0.09-0.011
			c-0.014,0.001-0.001,0.01-0.002,0.013c0.004,0.009,0.009,0.017,0.014,0.021c0.003,0.011,0.038-0.006,0.01,0
			c-0.096,0.043-0.169,0.02-0.293,0.08c-0.452,0.148-1.104,0.545-1.766,1.055c-1.348,1.021-2.8,2.382-4.374,3.654
			c-1.583,1.281-3.334,2.513-5.309,3.453c-1.955,0.964-4.136,1.601-6.338,1.799c-2.2,0.211-4.403,0.031-6.471-0.455
			c-2.07-0.482-4.033-1.212-5.881-2.084l-0.208-0.099l-0.076-0.054c-0.643-0.454-1.234-0.882-1.833-1.34
			c-0.6-0.448-1.19-0.905-1.771-1.376c-0.587-0.461-1.166-0.936-1.732-1.428c-0.569-0.487-1.145-0.963-1.69-1.486
			c-0.551-0.518-1.11-1.01-1.632-1.569l-1.557-1.669l-1.44-1.826c-0.415-0.536-0.867-1.187-1.276-1.656
			c-0.873-1.039-1.884-2.092-2.89-3.198c-0.502-0.561-0.988-1.146-1.451-1.757c-0.454-0.622-0.877-1.266-1.241-1.943l-0.5-1.034
			l-0.413-1.063c-0.233-0.72-0.471-1.435-0.611-2.167c-0.174-0.727-0.26-1.465-0.353-2.195c-0.095-0.729-0.111-1.469-0.158-2.198
			c0.202,0.707,0.355,1.42,0.574,2.112c0.219,0.693,0.441,1.38,0.721,2.041c0.242,0.675,0.572,1.309,0.89,1.936l0.53,0.91
			l0.596,0.857l0.646,0.813l0.696,0.77c0.487,0.494,1,0.97,1.538,1.432c1.075,0.934,2.251,1.818,3.358,2.919
			c0.604,0.58,1.034,1.091,1.571,1.659l1.429,1.474l1.579,1.379c0.524,0.459,1.109,0.872,1.648,1.321
			c0.54,0.449,1.123,0.861,1.692,1.281c0.567,0.425,1.148,0.834,1.74,1.231c0.583,0.407,1.175,0.8,1.774,1.183
			c0.589,0.386,1.21,0.767,1.784,1.114l-0.282-0.151c1.705,0.642,3.4,1.205,5.118,1.5c1.712,0.297,3.412,0.38,5.053,0.154
			c1.639-0.222,3.215-0.715,4.71-1.49c1.504-0.754,2.913-1.793,4.327-2.94c1.428-1.16,2.775-2.476,4.499-3.802
			c0.879-0.646,1.859-1.334,3.246-1.8c0.323-0.125,0.74-0.188,1.11-0.264c0.21-0.032,0.488-0.043,0.731-0.051h0.376l0.179,0.007
			l0.09,0.012l0.359,0.045l0.09,0.011l0.26,0.042l0.056,0.016l0.219,0.059l0.876,0.242c1.151,0.371,2.274,0.926,3.185,1.558
			c0.95,0.621,1.721,1.258,2.477,1.838c1.479,1.156,2.877,2.119,4.444,2.917c0.77,0.415,1.6,0.734,2.416,1.081
			c0.858,0.273,1.679,0.63,2.57,0.852c0.877,0.258,1.757,0.499,2.644,0.677l1.332,0.299l1.428,0.256l1.427,0.256l1.266,0.157
			c0.875,0.073,1.753,0.104,2.632,0.063c1.756-0.082,3.5-0.422,5.203-0.967c1.7-0.562,3.342-1.369,4.893-2.356
			c1.549-0.99,3.05-2.114,4.427-3.401c1.374-1.285,2.694-2.663,3.918-4.138c0.611-0.738,1.205-1.493,1.792-2.26
			c0.599-0.757,1.11-1.586,1.769-2.311C301.299,484.702,300.512,486.5,299.477,488.16z"/>
	</g>
</g>
</svg>
