<?xml version="1.0" encoding="utf-8"?>
<!-- Generator: Adobe Illustrator 16.0.0, SVG Export Plug-In . SVG Version: 6.00 Build 0)  -->
<!DOCTYPE svg PUBLIC "-//W3C//DTD SVG 1.1//EN" "http://www.w3.org/Graphics/SVG/1.1/DTD/svg11.dtd">
<svg version="1.1" id="Layer_3" xmlns="http://www.w3.org/2000/svg" xmlns:xlink="http://www.w3.org/1999/xlink" x="0px" y="0px"
	 width="500px" height="900px" viewBox="0 0 500 900" enable-background="new 0 0 500 900" xml:space="preserve">
<g>
	<path fill="none" stroke="#1C110B" stroke-width="5" stroke-miterlimit="10" d="M305.897,222.126
		c-3.379,59.539-21.536,50.249-27.869,37.581c-6.334-12.667-15.624-55.737-18.58-81.496c-2.955-25.758-7.6-31.247-14.356,14.779
		c-6.756,46.026,5.068,52.782,5.515,73.05c0.447,20.27-36.761,10.979-49.007-43.914c-12.244-54.893-6.755-127.1-6.755-127.1
		c-7.602-9.29-12.669-24.491-12.669-24.491c-13.935-37.581,6.757-54.894,6.757-54.894c12.667-18.157,22.38-10.414,22.38-10.414
		c18.579,6.897,37.158,18.859,37.158,18.859c2.956-5.066,9.712-8.445,17.734-12.668c8.023-4.223,17.454-6.191,17.454-6.191
		c20.833,8.444,27.587,19.143,37.722,38.285c10.135,19.142-14.074,55.737-14.074,55.737
		C308.291,102.63,309.275,162.587,305.897,222.126z"/>
	<path fill="none" stroke="#1C110B" stroke-width="5" stroke-miterlimit="10" d="M194.843,95.025
		c3.52,1.969,13.088,0.563,18.437,0.563s22.239,8.164,34.063,8.729c11.824,0.563,25.055-6.193,35.188-6.756
		s24.775,1.688,24.775,1.688"/>
	<g>
		<path fill="#1C110B" d="M300.627,20.366c-0.706-0.599-1.426-1.18-2.154-1.744c-0.359-0.288-0.739-0.551-1.106-0.827
			s-0.742-0.543-1.124-0.795c-0.751-0.526-1.525-1.006-2.294-1.487c-0.389-0.234-0.789-0.44-1.181-0.661
			c-0.39-0.23-0.796-0.411-1.2-0.597c-0.403-0.184-0.801-0.387-1.216-0.515c-0.412-0.133-0.815-0.32-1.228-0.41
			c-0.412-0.087-0.82-0.197-1.225-0.27c-0.402-0.025-0.799-0.049-1.192-0.09l0.64-0.146c-0.967,0.544-1.906,0.992-2.857,1.475
			c-0.945,0.495-1.911,0.905-2.869,1.353l-2.884,1.313l-2.921,1.202l-2.934,1.18l-0.785,0.312l-0.74,0.256
			c-0.504,0.167-0.962,0.352-1.504,0.504l-1.604,0.468l-1.547,0.406c-1.017,0.272-2.04,0.509-3.005,0.783
			c-0.986,0.261-1.914,0.548-2.819,0.855l-1.296,0.513l-1.179,0.613c-0.362,0.23-0.692,0.489-1.045,0.724
			c-0.342,0.246-0.599,0.572-0.908,0.843l-0.225,0.211l-0.183,0.254l-0.367,0.503c-0.116,0.173-0.262,0.319-0.361,0.509
			l-0.289,0.578c-0.442,0.723-0.684,1.615-0.983,2.46c-0.233,0.889-0.413,1.817-0.584,2.746c-0.098,0.968-0.253,1.914-0.313,2.896
			l-0.11,2.971l-4.826-0.41c0.025-0.19,0.052-0.604,0.065-0.929c-0.004-0.353,0.017-0.703-0.01-1.062
			c-0.027-0.714-0.102-1.434-0.219-2.144c-0.214-1.427-0.647-2.812-1.21-4.128l-0.44-0.979l-0.533-0.934
			c-0.328-0.639-0.782-1.201-1.183-1.797c-0.407-0.594-0.937-1.099-1.393-1.659c-0.504-0.521-1.066-0.994-1.593-1.5
			c-0.567-0.466-1.182-0.885-1.768-1.335c-0.598-0.437-1.277-0.775-1.91-1.172l-0.482-0.289l-0.121-0.072
			c0.117,0.059,0.023,0.012,0.044,0.022l-0.017-0.008l-0.034-0.018l-0.069-0.033l-0.274-0.137l-1.104-0.545l-2.205-1.091
			l-1.103-0.545l-1.073-0.447l-2.137-0.916c-0.702-0.339-1.451-0.525-2.177-0.794c-0.732-0.239-1.461-0.538-2.2-0.681
			c-0.74-0.16-1.468-0.394-2.219-0.502c-0.759-0.099-1.484-0.25-2.271-0.31l-2.395-0.188c-0.826-0.051-1.662-0.111-2.545-0.226
			l-0.651-0.076l-0.325-0.041l-0.162-0.021l-0.081-0.011l-0.189-0.034l-0.037-0.009c-0.414-0.109-0.761-0.171-1.23-0.318
			c-0.486-0.174-1.055-0.365-1.462-0.556c-0.396-0.189-0.83-0.382-1.191-0.57c-1.507-0.768-2.784-1.438-4.022-1.653
			c-1.224-0.205-2.47-0.082-3.747,0.552c-0.323,0.099-0.635,0.309-0.95,0.484c-0.314,0.185-0.637,0.354-0.95,0.547
			c-0.604,0.463-1.226,0.896-1.826,1.38l-1.743,1.577c-0.562,0.558-1.1,1.15-1.654,1.726c-0.563,0.564-1.081,1.182-1.597,1.803
			l-1.582,1.837l-0.059,0.073c-0.489,0.53-1.012,1.145-1.483,1.76c-0.497,0.605-0.946,1.251-1.399,1.896
			c-0.223,0.325-0.471,0.635-0.671,0.975l-0.631,1.003c-0.436,0.662-0.855,1.335-1.222,2.039l-0.575,1.043
			c-0.186,0.352-0.403,0.69-0.562,1.054l-1.002,2.172c-0.161,0.364-0.364,0.717-0.492,1.095l-0.418,1.125l-0.84,2.264l0.513-2.363
			l0.259-1.188c0.076-0.401,0.228-0.777,0.336-1.167l0.74-2.324c0.119-0.39,0.296-0.756,0.442-1.136l0.461-1.133
			c0.291-0.766,0.638-1.503,1.005-2.234l0.545-1.101c0.174-0.372,0.397-0.717,0.595-1.076c0.406-0.713,0.807-1.432,1.266-2.118
			c0.444-0.706,0.898-1.368,1.436-2.074l-0.06,0.072c0.979-1.351,1.87-2.757,2.959-4.048c0.535-0.651,1.053-1.315,1.609-1.956
			l1.771-1.866c0.631-0.597,1.314-1.161,1.976-1.742c0.362-0.267,0.748-0.516,1.124-0.773c0.382-0.25,0.738-0.531,1.189-0.715
			c1.614-0.927,3.767-1.384,5.776-1.125c2.026,0.251,3.727,1.095,5.172,1.719c0.377,0.169,0.702,0.288,1.054,0.435
			c0.346,0.139,0.567,0.179,0.849,0.288c0.313,0.09,0.78,0.155,1.165,0.234l0.037,0.007l0.02,0.004
			c0.039,0.008-0.276-0.048-0.134-0.024l0.072,0.006l0.144,0.009l0.287,0.019l0.572,0.043c0.746,0.074,1.548,0.106,2.36,0.129
			l2.518,0.114c0.85,0.037,1.742,0.18,2.613,0.269c0.876,0.102,1.73,0.332,2.597,0.495c0.878,0.149,1.687,0.444,2.521,0.687
			c0.823,0.27,1.68,0.466,2.472,0.811l2.411,0.957l1.201,0.492l1.108,0.533l2.216,1.067l1.108,0.532l0.276,0.134l0.199,0.098
			l0.146,0.083l0.578,0.333c0.765,0.459,1.56,0.857,2.295,1.375c0.725,0.534,1.47,1.04,2.174,1.606
			c0.67,0.615,1.367,1.2,2.007,1.852c0.598,0.694,1.257,1.336,1.793,2.086c0.528,0.755,1.112,1.473,1.529,2.302
			c0.223,0.403,0.455,0.803,0.668,1.212l0.559,1.268c0.705,1.703,1.232,3.483,1.489,5.305c0.139,0.908,0.224,1.825,0.248,2.75
			c0.025,0.459,0,0.93-0.005,1.397c-0.03,0.493-0.048,0.9-0.139,1.521l-4.826-0.41l0.157-3.285c0.08-1.099,0.267-2.218,0.399-3.323
			c0.076-0.555,0.253-1.118,0.376-1.676c0.152-0.559,0.24-1.115,0.449-1.673c0.423-1.112,0.784-2.23,1.449-3.294l0.452-0.801
			c0.157-0.264,0.374-0.503,0.562-0.753l0.586-0.739l0.297-0.365l0.348-0.321c0.475-0.414,0.918-0.879,1.43-1.233
			c0.519-0.339,1.034-0.697,1.563-1.003l1.627-0.778l1.636-0.587c1.08-0.333,2.16-0.623,3.208-0.832
			c1.06-0.237,2.083-0.416,3.097-0.628l1.501-0.309l1.425-0.329c0.471-0.103,0.995-0.277,1.49-0.411l0.753-0.216l0.683-0.232
			l2.938-0.999l2.949-0.977l2.908-1.066c0.965-0.363,1.952-0.697,2.892-1.103c0.943-0.394,1.921-0.773,2.81-1.188l0.391-0.183
			l0.249,0.036c0.529,0.076,1.055,0.17,1.575,0.262c0.499,0.139,0.979,0.314,1.462,0.472c0.483,0.161,0.912,0.407,1.367,0.607
			c0.459,0.196,0.871,0.456,1.292,0.7s0.842,0.485,1.231,0.768c0.394,0.275,0.798,0.536,1.181,0.821l1.131,0.873
			c0.377,0.29,0.723,0.615,1.084,0.92c0.361,0.306,0.712,0.621,1.053,0.948c0.342,0.325,0.694,0.637,1.024,0.972
			c0.672,0.659,1.328,1.329,1.967,2.014c1.262,1.388,2.474,2.813,3.604,4.295C303.445,22.779,302.051,21.545,300.627,20.366z"/>
	</g>
</g>
<g>
	<path fill="none" stroke="#1C110B" stroke-width="5" stroke-miterlimit="10" d="M412.997,403.654
		c-11.401-10.134-30.443-19.625-30.443-19.625c-17.313-5.49-25.759,32.091-25.759,32.091c-2.111,44.337,5.067,37.581,8.445,50.671
		c3.379,13.091,5.067,41.383,5.067,41.383c-3.378,44.759,10.557,79.807,10.557,79.807l14.356,34.202
		c16.468,38.004,33.78,33.358,33.78,33.358c16.469,1.267,25.336-19.846,25.336-19.846c6.334-13.09,8.023-33.358,20.269-59.539
		c12.246-26.18,10.134-95.009,10.134-95.009s25.336-28.291,0-59.538c-25.335-31.247-39.685-42.143-53.198-23.984"/>
	<g>
		<path fill="#1C110B" d="M448.081,393.986c-0.391,0.422-1.036,0.979-1.987,1.542c-0.965,0.506-2.238,1.075-3.813,1.247
			c-1.526,0.223-3.16,0.259-4.797,0.515c-1.629,0.286-3.257,0.788-4.668,1.771c-1.424,0.959-2.678,2.335-3.743,4.02
			c-0.267,0.419-0.498,0.879-0.762,1.314l-0.496,0.816c-0.104,0.2-0.398,0.585-0.669,0.918c-0.547,0.671-1.139,1.175-1.855,1.655
			c-0.723,0.44-1.528,0.782-2.342,0.956c-1.635,0.364-3.213,0.24-4.591-0.089c-1.387-0.33-2.642-0.822-3.826-1.367
			c-2.351-1.123-4.439-2.464-6.394-3.804c-0.949-0.649-1.892-1.293-2.822-1.929c-0.449-0.303-0.888-0.575-1.276-0.791l-0.272-0.146
			l-0.111-0.052l-0.055-0.028l-0.027-0.014l-0.013-0.007c0.237,0.074,0.051,0.016,0.098,0.03l-0.798-0.262
			c-0.742-0.202-1.839-0.393-2.878-0.579c-1.049-0.187-2.112-0.368-3.144-0.582c-2.071-0.421-4.043-1.011-5.786-1.746
			c-0.88-0.335-1.69-0.771-2.449-1.169c-0.728-0.481-1.443-0.866-2.033-1.368c-0.61-0.466-1.173-0.898-1.619-1.395
			c-0.471-0.46-0.886-0.89-1.206-1.332c-0.331-0.428-0.644-0.787-0.862-1.143c-0.211-0.358-0.39-0.662-0.534-0.909
			c-0.278-0.491-0.427-0.753-0.427-0.753s0.228,0.198,0.651,0.573c0.206,0.187,0.46,0.416,0.759,0.687
			c0.307,0.258,0.696,0.513,1.098,0.824c0.393,0.321,0.877,0.61,1.407,0.907c0.268,0.146,0.523,0.322,0.813,0.471
			c0.292,0.14,0.596,0.285,0.909,0.434c1.25,0.587,2.729,1.067,4.374,1.442c1.646,0.373,3.47,0.598,5.443,0.752
			c1.007,0.066,2.041,0.137,3.099,0.208c1.091,0.069,2.173,0.147,3.61,0.417l0.818,0.19l0.184,0.06l0.071,0.024l0.141,0.052
			l0.282,0.104l0.492,0.218c0.622,0.294,1.17,0.597,1.694,0.901c1.055,0.605,2.04,1.23,3.021,1.849
			c1.965,1.217,3.904,2.434,5.862,3.339c1.916,0.934,3.949,1.51,5.27,1.248c0.649-0.1,1.202-0.431,1.662-0.893
			c0.098-0.106,0.19-0.144,0.377-0.438l0.245-0.35l0.062-0.087l0.029-0.043c-0.131,0.212-0.026,0.045-0.052,0.086l0.016-0.024
			l0.131-0.193c0.351-0.518,0.688-1.029,1.06-1.522c1.477-1.973,3.379-3.682,5.516-4.744c2.13-1.105,4.409-1.364,6.313-1.356
			c1.925,0.003,3.567,0.338,4.935,0.434c0.336,0.017,0.661,0.032,0.975,0.047c0.314,0.009,0.612-0.043,0.909-0.053
			c0.599-0.005,1.116-0.168,1.614-0.253c0.948-0.284,1.719-0.567,2.191-0.853c0.489-0.259,0.733-0.445,0.733-0.445
			S448.481,393.577,448.081,393.986z"/>
	</g>
	<path fill="none" stroke="#1C110B" stroke-width="5" stroke-miterlimit="10" d="M397.184,392.262
		c5.541-3.803,10.916-0.635,18.094,5.651c7.179,6.287,10.93,4.061,10.93,4.061"/>
	<path fill="none" stroke="#1C110B" stroke-width="5" stroke-miterlimit="10" d="M366.955,475.416
		c20.715,3.98,29.955-9.047,50.646-9.47c20.69-0.423,38.848,13.935,50.671,17.735s16.468-2.534,16.468-2.534"/>
</g>
<g>
	<path fill="none" stroke="#1C110B" stroke-width="5" stroke-miterlimit="10" d="M133.491,531.611
		c-1.467,61.217-24.492,101.343-48.56,120.344c-24.067,19.002-35.467,1.269-40.113-15.2c-4.645-16.468-22.801-73.051-23.646-80.65
		c-0.844-7.602-5.489-19.848-5.067-37.582c0.423-17.734-2.533-40.537-2.533-40.537c-21.536-31.668,3.377-64.183,10.979-78.75
		c7.6-14.568,14.988-9.501,18.578-7.39s10.135,4.645,10.135,4.645c9.29,3.378,8.022,2.534,11.4,2.956s7.602,5.067,7.602,5.067
		c1.265-7.178,22.8-13.091,22.8-13.091c19.002-6.333,12.667-8.021,19.002-6.755c6.334,1.267,23.225,25.757,23.225,25.757
		c19.847,32.093-5.911,67.562-5.911,67.562S134.618,484.601,133.491,531.611z"/>
	<path fill="none" stroke="#1C110B" stroke-width="5" stroke-miterlimit="10" d="M12.517,477.986
		c13.301-0.211,8.657,1.479,61.226,5.279c52.572,3.8,57.64-5.279,57.64-5.279"/>
	<g>
		<path fill="#1C110B" d="M85.966,391.848c1.981-0.595,3.934-1.118,5.917-1.602c1.979-0.48,3.974-0.912,5.985-1.286
			c1.017-0.166,2.02-0.352,3.049-0.476c1.017-0.152,2.061-0.233,3.097-0.322l1.582-0.059c0.528-0.013,1.079,0.029,1.614,0.045
			c0.529,0.004,1.111,0.138,1.659,0.206c0.553,0.077,1.16,0.331,1.723,0.504l-0.815-0.04c0.55-0.112,0.799-0.076,1.155-0.059
			c0.321,0.036,0.638,0.081,0.926,0.168c0.302,0.066,0.58,0.167,0.85,0.278c0.277,0.101,0.541,0.218,0.784,0.359
			c0.517,0.249,0.967,0.565,1.414,0.88c0.451,0.311,0.834,0.686,1.248,1.025c0.385,0.364,0.742,0.752,1.111,1.126
			c0.358,0.382,0.669,0.799,1.004,1.194c0.341,0.393,0.628,0.82,0.923,1.24c0.287,0.425,0.604,0.831,0.865,1.27
			c0.514,0.882,1.092,1.723,1.538,2.634c0.465,0.9,0.968,1.777,1.368,2.706c0.408,0.923,0.873,1.816,1.234,2.757l1.131,2.793
			l-1.412-2.657c-0.455-0.892-1.008-1.73-1.505-2.596c-0.488-0.871-1.073-1.683-1.617-2.514c-0.527-0.844-1.176-1.599-1.757-2.396
			c-0.294-0.396-0.638-0.75-0.951-1.125c-0.322-0.37-0.636-0.747-0.991-1.077c-0.351-0.336-0.679-0.695-1.042-1.008
			c-0.371-0.303-0.729-0.62-1.104-0.908c-0.393-0.254-0.762-0.552-1.164-0.768c-0.398-0.221-0.795-0.443-1.205-0.586
			c-0.2-0.094-0.403-0.158-0.605-0.204c-0.202-0.063-0.403-0.112-0.596-0.129c-0.2-0.041-0.383-0.039-0.562-0.043
			c-0.144-0.002-0.4,0.045-0.341,0.04l-0.816-0.04c-0.409-0.052-0.741-0.187-1.185-0.198c-0.447,0.001-0.855-0.069-1.325-0.021
			c-0.463,0.039-0.913,0.046-1.38,0.106l-1.404,0.199c-0.941,0.184-1.882,0.353-2.823,0.598c-0.941,0.212-1.882,0.492-2.819,0.746
			c-1.874,0.555-3.737,1.166-5.588,1.825c-1.847,0.658-3.697,1.37-5.479,2.112L85.966,391.848z"/>
	</g>
	<g>
		<path fill="#1C110B" d="M104.736,397.124l-0.858,0.889l-0.959,0.788c-0.313,0.279-0.691,0.452-1.037,0.685
			c-0.356,0.215-0.705,0.454-1.092,0.607l-1.14,0.52l-0.286,0.13l-0.325,0.104l-0.577,0.18c-0.792,0.219-1.692,0.387-2.479,0.491
			c-0.814,0.126-1.614,0.211-2.412,0.318c-0.796,0.099-1.586,0.206-2.364,0.329c-0.786,0.107-1.546,0.277-2.313,0.417
			c-0.747,0.202-1.521,0.313-2.242,0.563l-1.096,0.329l-1.058,0.409c-0.716,0.243-1.363,0.617-2.029,0.944
			c-0.665,0.332-1.251,0.788-1.878,1.167c-0.571,0.463-1.141,0.922-1.689,1.399c-0.499,0.538-1.044,1.021-1.507,1.589
			c-0.435,0.596-0.913,1.147-1.316,1.764l-1.135,1.905l-1.089,1.827l-1.785-1.236c-0.292-0.203-0.673-0.448-1.021-0.662
			c-0.359-0.221-0.725-0.433-1.092-0.639c-0.733-0.414-1.486-0.782-2.242-1.118c-1.498-0.685-3.051-1.203-4.485-1.352
			c-0.183-0.032-0.355-0.034-0.526-0.036l-0.257-0.008l-0.129-0.006l-0.032-0.001h-0.008h-0.004
			c0.199-0.004,0.052-0.002,0.095-0.002l-0.021,0.001l-0.084,0.006l-1.348,0.086c-0.483,0.013-0.8,0.103-1.19,0.152
			c-0.373,0.055-0.746,0.105-1.154,0.208c-0.397,0.097-0.8,0.159-1.194,0.28c-0.393,0.117-0.791,0.214-1.179,0.345
			c-0.383,0.137-0.78,0.252-1.149,0.406c-0.365,0.139-0.78,0.31-1.052,0.43l-1.721,0.764l-1.177-1.453
			c-0.242-0.299-0.548-0.653-0.832-0.981c-0.298-0.329-0.587-0.666-0.896-0.989c-0.604-0.653-1.227-1.296-1.865-1.914
			c-0.635-0.628-1.295-1.22-1.952-1.811c-0.673-0.569-1.345-1.141-2.043-1.659c-0.343-0.274-0.694-0.527-1.052-0.766
			c-0.355-0.237-0.701-0.509-1.066-0.718l-1.086-0.657c-0.366-0.201-0.737-0.374-1.104-0.565c-0.365-0.205-0.735-0.342-1.104-0.495
			c-0.369-0.154-0.737-0.319-1.105-0.401c-0.367-0.089-0.739-0.248-1.097-0.29l-1.075-0.161l-1.2-0.396
			c0.311,0.187,0.271,0.148,0.377,0.194c0.082,0.026,0.095,0.035,0.147,0.046c0.106,0.015,0.12,0.029,0.181,0.025
			c0.069,0.013,0.119-0.019,0.094,0c0.002-0.01-0.043,0.008-0.104,0.037c-0.045,0.004-0.131,0.064-0.212,0.11
			c-0.334,0.187-0.771,0.56-1.183,0.994c-0.84,0.871-1.634,1.999-2.36,3.179c-0.371,0.587-0.728,1.19-1.063,1.82
			c-0.348,0.614-0.679,1.248-1.006,1.889c-0.658,1.244-1.328,2.644-1.995,3.961c-1.331,2.66-2.641,5.31-3.889,7.982l-1.863,4.007
			c-0.602,1.343-1.194,2.688-1.754,4.046c-1.12,2.714-2.149,5.459-3.082,8.232c-0.449,1.392-0.877,2.79-1.243,4.202
			c-0.364,1.412-0.698,2.834-0.97,4.265c-0.287,1.431-0.478,2.874-0.622,4.324c-0.096,1.448-0.188,2.909-0.117,4.364
			c0.039,1.461,0.229,2.914,0.53,4.352c0.271,1.451,0.773,2.846,1.354,4.225c-0.785-1.265-1.519-2.598-2.027-4.028
			c-0.527-1.422-0.902-2.907-1.146-4.412c-0.282-1.505-0.368-3.032-0.419-4.559c-0.014-1.525,0.024-3.056,0.162-4.574
			c0.108-1.525,0.335-3.032,0.592-4.532c0.259-1.501,0.577-2.986,0.922-4.467c0.362-1.473,0.733-2.947,1.176-4.396
			c0.438-1.45,0.902-2.892,1.4-4.318c0.991-2.856,2.059-5.683,3.222-8.458c1.173-2.772,2.404-5.513,3.64-8.228
			c0.63-1.365,1.197-2.677,1.878-4.094c0.319-0.701,0.662-1.394,1.045-2.079c0.356-0.689,0.747-1.374,1.165-2.053
			c0.823-1.361,1.719-2.707,2.927-4.005c0.608-0.647,1.281-1.29,2.229-1.865c0.24-0.142,0.468-0.283,0.776-0.404
			c0.279-0.125,0.581-0.24,0.951-0.318c0.331-0.091,0.762-0.134,1.199-0.123c0.245,0.019,0.447,0.022,0.733,0.096
			c0.142,0.037,0.248,0.058,0.416,0.12c0.192,0.083,0.242,0.073,0.631,0.308l-1.199-0.396l1.697,0.221
			c0.565,0.076,1.072,0.264,1.61,0.397c0.545,0.129,1.033,0.332,1.527,0.53c0.494,0.199,1.003,0.382,1.45,0.638
			c0.459,0.241,0.929,0.474,1.376,0.729l1.299,0.805c0.439,0.264,0.828,0.572,1.244,0.857c0.414,0.286,0.815,0.583,1.199,0.896
			c0.792,0.604,1.534,1.25,2.275,1.896c0.724,0.663,1.443,1.326,2.128,2.02c0.692,0.688,1.361,1.394,2.014,2.116
			c0.331,0.357,0.646,0.732,0.969,1.099c0.321,0.381,0.623,0.735,0.962,1.166l-2.896-0.69c0.551-0.245,0.977-0.399,1.459-0.563
			c0.469-0.172,0.94-0.294,1.411-0.439c0.472-0.139,0.951-0.24,1.427-0.361c0.473-0.124,0.965-0.188,1.444-0.284
			c0.471-0.098,0.99-0.157,1.512-0.212c0.503-0.049,1.072-0.134,1.491-0.127l1.351-0.037l0.084-0.002l0.146-0.001l0.054,0.003
			l0.208,0.014l0.417,0.026c0.277,0.017,0.555,0.037,0.815,0.087c2.144,0.318,4.012,1.063,5.752,1.93
			c0.864,0.447,1.702,0.925,2.507,1.444c0.403,0.26,0.801,0.524,1.193,0.801c0.4,0.282,0.762,0.544,1.191,0.881l-2.874,0.59
			l1.469-2.158c0.521-0.698,1.132-1.339,1.695-2.004c0.594-0.641,1.286-1.2,1.926-1.796c0.687-0.546,1.431-1.026,2.153-1.515
			c0.779-0.398,1.523-0.865,2.328-1.19c0.807-0.321,1.597-0.679,2.428-0.892c0.411-0.119,0.818-0.25,1.229-0.358l1.243-0.264
			c0.826-0.198,1.659-0.27,2.486-0.393c0.828-0.063,1.657-0.153,2.474-0.178c0.822-0.041,1.634-0.064,2.443-0.078
			c0.805-0.021,1.612-0.022,2.398-0.059c0.816-0.034,1.518-0.061,2.298-0.164l0.597-0.105l0.259-0.045l0.276-0.086l1.113-0.343
			c0.384-0.096,0.727-0.274,1.082-0.431c0.349-0.173,0.731-0.295,1.057-0.509l1.017-0.598l0.945-0.713
			c0.579-0.533,1.173-1.084,1.596-1.774C105.757,395.834,105.249,396.483,104.736,397.124z"/>
	</g>
</g>
<g>
	<path fill="none" stroke="#1C110B" stroke-width="5" stroke-miterlimit="10" d="M277.332,839.757
		c-12.667,15.202-27.445,5.066-22.379-17.313s2.532-59.116,2.532-59.116c0.423-20.269-8.866-28.713-8.866-28.713
		c-23.647,45.182-15.921,58.217-22.802,83.607c-12.246,45.181-32.093,25.21-32.093-15.624c0-38.995-0.844-82.974,1.688-109.788
		c2.533-26.813-4.645-29.98-4.645-29.98c-8.235-17.944-12.247-28.08-7.601-47.715c4.644-19.635,20.9-31.035,20.9-31.035
		c8.656-11.612,18.79-3.168,18.79-3.168l28.292,16.47c1.688-6.334,10.556-12.246,20.689-14.357
		c10.136-2.112,14.146-7.812,18.579-7.178c4.435,0.632,14.22,11.401,14.22,11.401c44.479,34.346,0,80.511,0,80.511
		C314.331,757.298,289.999,824.554,277.332,839.757z"/>
	<path fill="none" stroke="#1C110B" stroke-width="5" stroke-miterlimit="10" d="M194.69,669.927
		c4.553,5.409,21.625,5.147,21.625,5.147c14.145-0.422,35.892-4.433,60.172-2.11c24.279,2.321,27.023-4.646,27.023-4.646"/>
	<g>
		<path fill="#1C110B" d="M253.62,597.771c0,0-0.032,0.144-0.092,0.413c-0.05,0.254-0.124,0.627-0.218,1.102
			c-0.1,0.462-0.195,1.064-0.304,1.759c-0.102,0.692-0.253,1.466-0.349,2.332c-0.109,0.862-0.226,1.799-0.351,2.788
			c-0.126,0.989-0.2,2.046-0.31,3.134c-0.09,1.09-0.231,2.214-0.288,3.364c-0.069,1.149-0.141,2.318-0.213,3.487
			c-0.072,1.17-0.15,2.342-0.17,3.496c-0.035,1.156-0.067,2.293-0.101,3.394c-0.03,1.104-0.06,2.169-0.087,3.18
			c0.001,1.011,0.002,1.967,0.003,2.849c0.005,3.537,0.008,5.895,0.008,5.895s-0.315-2.338-0.787-5.846
			c-0.118-0.878-0.246-1.83-0.382-2.836c-0.107-1.01-0.22-2.075-0.336-3.177c-0.115-1.103-0.233-2.244-0.353-3.403
			c-0.135-1.158-0.213-2.34-0.297-3.522c-0.085-1.185-0.169-2.368-0.253-3.534c-0.098-1.166-0.106-2.32-0.163-3.435
			c-0.037-1.118-0.103-2.196-0.109-3.225c-0.008-1.029-0.015-2.002-0.021-2.899c-0.02-0.899,0.028-1.733,0.039-2.469
			c0.016-0.734,0.033-1.377,0.075-1.937c0.035-0.547,0.062-0.977,0.082-1.27c0.022-0.275,0.036-0.423,0.036-0.423L253.62,597.771z"
			/>
	</g>
	<path fill="none" stroke="#1C110B" stroke-width="5" stroke-miterlimit="10" d="M185.318,608.358
		c-2.149-25.125,13.849-20.104,13.849-20.104"/>
</g>
<g>
	<path fill="none" stroke="#1C110B" stroke-width="5" stroke-miterlimit="10" d="M199.413,508.405
		c-18.579-24.914-14.78-43.071-16.892-70.518c-2.112-27.447,18.158-40.354,18.158-40.354c33.78-22.619,82.017-20.143,104.72-0.391
		c19.65,17.098,15.012,33.33,14.356,53.918c-0.481,15.098,2.956,22.718-8.022,44.253c-19.827,38.886-64.185,20.691-64.185,20.691
		S217.991,533.316,199.413,508.405z"/>
	<g>
		<path fill="#1C110B" d="M297.589,456.177c-1.76,0.175-3.52,0.318-5.278,0.448l0.264-0.035c-1.334,0.446-2.631,0.852-3.973,1.178
			c-1.335,0.332-2.682,0.627-4.039,0.883c-2.717,0.522-5.49,0.813-8.318,0.853c-0.706,0.02-1.419-0.004-2.132-0.026
			c-0.714-0.033-1.433-0.074-2.153-0.166c-0.72-0.091-1.442-0.192-2.167-0.349c-0.725-0.137-1.448-0.34-2.174-0.543
			c-0.723-0.24-1.441-0.497-2.149-0.833c-0.359-0.146-0.703-0.349-1.053-0.536c-0.351-0.182-0.69-0.392-1.022-0.625
			c-0.677-0.435-1.313-0.967-1.91-1.539c-0.285-0.303-0.586-0.592-0.847-0.918l-0.755-1.006l3.362,0.695
			c-0.361,0.24-0.633,0.399-0.944,0.583c-0.306,0.173-0.608,0.343-0.917,0.502c-0.617,0.321-1.248,0.615-1.899,0.885
			c-0.65,0.27-1.333,0.49-2.026,0.696c-0.352,0.096-0.717,0.173-1.074,0.257c-0.353,0.096-0.746,0.123-1.12,0.183
			c-0.373,0.063-0.764,0.088-1.166,0.089c-0.4,0.004-0.787,0.037-1.209-0.026c-0.416-0.054-0.826-0.073-1.244-0.172
			c-0.42-0.113-0.838-0.236-1.252-0.368c-0.407-0.165-0.803-0.383-1.199-0.587c-0.41-0.185-0.732-0.496-1.086-0.764
			c-0.353-0.275-0.691-0.561-0.946-0.898c-0.276-0.324-0.547-0.656-0.81-0.99l2.595,1.017c-0.803,0.172-1.52,0.307-2.283,0.43
			c-0.751,0.12-1.505,0.228-2.261,0.323c-1.51,0.19-3.037,0.329-4.586,0.372c-0.772,0.031-1.557,0.021-2.342,0.006
			c-0.393-0.008-0.795-0.044-1.191-0.065c-0.394-0.017-0.799-0.062-1.205-0.118c-0.407-0.058-0.804-0.091-1.222-0.191
			c-0.416-0.094-0.821-0.158-1.243-0.282c-0.425-0.134-0.845-0.264-1.267-0.412c-0.435-0.196-0.864-0.401-1.288-0.612l1.48,0.214
			l-6.819,1.191c-1.139,0.192-2.271,0.406-3.413,0.581l-3.423,0.534l-0.563,0.088l-0.371-0.191
			c-0.551-0.287-1.183-0.606-1.803-0.868c-0.623-0.276-1.251-0.549-1.893-0.795l-0.958-0.382c-0.317-0.139-0.648-0.224-0.974-0.338
			l-0.98-0.323c-0.329-0.104-0.654-0.232-0.99-0.301c-0.668-0.161-1.335-0.343-2.008-0.521c-0.674-0.183-1.359-0.243-2.045-0.372
			l-1.035-0.175c-0.348-0.057-0.693-0.05-1.043-0.078l-2.118-0.13c0.692-0.129,1.395-0.245,2.104-0.36
			c0.354-0.05,0.711-0.134,1.067-0.154l1.075-0.032c0.716-0.002,1.447-0.071,2.166-0.017c0.718,0.051,1.44,0.099,2.165,0.167
			c0.363,0.02,0.716,0.097,1.073,0.15l1.073,0.176c0.356,0.066,0.721,0.104,1.072,0.194l1.063,0.241
			c0.716,0.144,1.413,0.35,2.111,0.564c0.71,0.205,1.376,0.441,2.115,0.719l-0.933-0.104l3.332-0.948
			c1.111-0.319,2.23-0.6,3.345-0.901l6.691-1.773l0.503-0.133l0.979,0.347c0.245,0.087,0.483,0.18,0.719,0.281l0.84,0.21
			c0.285,0.067,0.611,0.093,0.912,0.144c0.299,0.059,0.635,0.063,0.956,0.089c0.322,0.026,0.646,0.053,0.984,0.05
			c0.336,0.002,0.665,0.019,1.005,0.011c0.68-0.019,1.359-0.038,2.051-0.098c1.376-0.112,2.768-0.252,4.159-0.474
			c0.693-0.106,1.389-0.225,2.08-0.354c0.68-0.134,1.403-0.265,2.031-0.409l1.343-0.312l1.252,1.327
			c0.138,0.145,0.267,0.293,0.39,0.446c0.111,0.176,0.264,0.277,0.409,0.381c0.149,0.099,0.26,0.261,0.438,0.31
			c0.165,0.067,0.313,0.166,0.479,0.236c0.185,0.042,0.366,0.091,0.546,0.152c0.187,0.051,0.407,0.048,0.607,0.085
			c0.196,0.048,0.436,0.016,0.658,0.019c0.224,0.008,0.454-0.003,0.699-0.047c0.242-0.041,0.477-0.04,0.729-0.109l0.747-0.17
			c0.505-0.146,1.01-0.309,1.519-0.505c0.509-0.192,1.015-0.412,1.513-0.653l0.736-0.378c0.231-0.126,0.5-0.279,0.661-0.379
			l1.99-1.229l1.373,1.924l0.443,0.622c0.151,0.207,0.344,0.382,0.506,0.582c0.359,0.373,0.741,0.737,1.188,1.047
			c0.21,0.169,0.435,0.323,0.68,0.459c0.238,0.144,0.466,0.3,0.73,0.416c0.499,0.271,1.042,0.482,1.584,0.711
			c0.563,0.193,1.125,0.396,1.719,0.544c0.585,0.167,1.193,0.291,1.804,0.406c0.613,0.112,1.234,0.219,1.863,0.299
			c0.631,0.074,1.263,0.153,1.905,0.191c2.563,0.204,5.184,0.107,7.815-0.033c1.315-0.086,2.635-0.21,3.949-0.372
			c1.307-0.17,2.649-0.327,3.924-0.556l0.216-0.039l0.05,0.004c1.759,0.129,3.519,0.273,5.277,0.448
			c1.76,0.159,3.52,0.347,5.278,0.562C301.106,455.837,299.346,456.024,297.589,456.177z"/>
	</g>
	<g>
		<path fill="#1C110B" d="M249.992,451.638c0,0-0.002,0.494-0.006,1.359c0.011,0.856-0.046,2.13-0.093,3.637
			c-0.072,1.506-0.063,3.272-0.223,5.134c-0.136,1.862-0.279,3.848-0.425,5.834c-0.072,0.99-0.146,1.979-0.217,2.954
			c-0.115,0.972-0.23,1.929-0.34,2.854c-0.221,1.848-0.427,3.569-0.604,5.047c-0.353,2.945-0.588,4.908-0.588,4.908
			s-0.077-1.977-0.191-4.943c-0.059-1.479-0.126-3.203-0.198-5.053c-0.037-0.922-0.074-1.874-0.112-2.843
			c-0.083-0.966-0.166-1.949-0.25-2.93c-0.168-1.958-0.335-3.916-0.492-5.752c-0.134-1.837-0.413-3.517-0.572-4.965
			c-0.186-1.448-0.318-2.641-0.467-3.503c-0.133-0.855-0.208-1.345-0.208-1.345L249.992,451.638z"/>
	</g>
	<g>
		<path fill="#1C110B" d="M243.49,450.347c0,0,0.074-0.129,0.213-0.372c0.086-0.188,0.213-0.46,0.375-0.807
			c0.168-0.368,0.352-0.975,0.579-1.588c0.249-0.613,0.423-1.386,0.642-2.212c0.199-0.834,0.498-1.712,0.646-2.706
			c0.179-0.984,0.37-2.022,0.567-3.098c0.231-1.071,0.306-2.214,0.455-3.362c0.137-1.153,0.273-2.326,0.41-3.499
			c0.136-1.175,0.159-2.36,0.243-3.525c0.07-1.167,0.141-2.316,0.206-3.429c0.075-1.112,0.135-2.191,0.125-3.214
			c0.01-1.023,0.021-1.992,0.029-2.885c0.037-3.583,0.06-5.972,0.06-5.972s0.288,2.373,0.722,5.932
			c0.108,0.892,0.226,1.859,0.35,2.881c0.144,1.022,0.226,2.104,0.298,3.228c0.079,1.123,0.162,2.284,0.246,3.464
			c0.07,1.182,0.201,2.382,0.222,3.588c0.019,1.209,0.035,2.418,0.054,3.608c0,1.192,0.075,2.366-0.017,3.511
			c-0.058,1.146-0.114,2.254-0.167,3.305c-0.02,1.052-0.21,2.06-0.308,2.987c-0.121,0.929-0.201,1.78-0.394,2.554
			c-0.176,0.782-0.276,1.414-0.458,2.028c-0.208,0.628-0.371,1.122-0.481,1.458c-0.106,0.259-0.162,0.397-0.162,0.397
			L243.49,450.347z"/>
	</g>
	<g>
		<path fill="#1C110B" d="M260.36,453.448c0,0,1.245,2.956,3.255,7.384c2.005,4.421,4.78,10.273,7.753,16.028
			c0.731,1.446,1.506,2.865,2.255,4.274c0.744,1.411,1.532,2.765,2.267,4.097c0.744,1.324,1.507,2.576,2.209,3.78
			c0.716,1.193,1.432,2.298,2.073,3.332c0.645,1.032,1.297,1.934,1.845,2.759c0.543,0.828,1.06,1.517,1.489,2.082
			c0.854,1.139,1.342,1.789,1.342,1.789s-0.549-0.602-1.508-1.653c-0.483-0.523-1.067-1.164-1.689-1.938
			c-0.625-0.771-1.369-1.614-2.113-2.585c-0.741-0.973-1.569-2.013-2.402-3.141c-0.817-1.138-1.707-2.323-2.582-3.579
			c-0.861-1.263-1.787-2.55-2.67-3.893c-0.887-1.34-1.805-2.693-2.678-4.073c-3.543-5.491-6.896-11.102-9.342-15.353
			c-2.443-4.243-4.009-7.146-4.009-7.146L260.36,453.448z"/>
	</g>
	<g>
		<path fill="#1C110B" d="M233.321,452.761c0,0-1.519,2.682-3.795,6.704c-2.289,4.015-5.346,9.361-8.468,14.675
			c-1.556,2.658-3.116,5.313-4.619,7.782c-0.745,1.235-1.464,2.431-2.148,3.564c-0.707,1.121-1.375,2.181-1.991,3.159
			c-0.618,0.975-1.184,1.87-1.686,2.663c-0.541,0.77-1.012,1.44-1.4,1.994c-0.773,1.1-1.216,1.729-1.216,1.729
			s0.377-0.672,1.036-1.847c0.328-0.585,0.726-1.295,1.183-2.109c0.418-0.837,0.889-1.783,1.403-2.814
			c0.511-1.031,1.066-2.147,1.653-3.329c0.563-1.194,1.157-2.454,1.771-3.757c1.24-2.599,2.522-5.392,3.796-8.188
			c2.561-5.586,5.054-11.205,6.918-15.419c1.853-4.22,3.086-7.033,3.086-7.033L233.321,452.761z"/>
	</g>
	<g>
		<path fill="#1C110B" d="M231.371,452.939c0,0-0.846-2.042-2.115-5.105c-1.276-3.063-3.02-7.131-4.816-11.177
			c-0.882-2.033-1.832-4.025-2.688-5.92c-0.867-1.887-1.736-3.613-2.455-5.114c-0.726-1.496-1.411-2.693-1.854-3.559
			c-0.456-0.859-0.717-1.35-0.717-1.35s0.325,0.448,0.896,1.232c0.561,0.792,1.416,1.896,2.348,3.278
			c0.923,1.387,2.036,2.99,3.165,4.743c1.117,1.759,2.351,3.619,3.513,5.515c2.358,3.774,4.671,7.579,6.377,10.45
			c1.7,2.878,2.833,4.797,2.833,4.797L231.371,452.939z"/>
	</g>
	<g>
		<path fill="#1C110B" d="M264.069,453.891c0,0,1.423-1.731,3.556-4.325c1.06-1.3,2.295-2.816,3.618-4.441
			c1.336-1.619,2.704-3.386,4.101-5.135c1.392-1.754,2.783-3.508,4.088-5.152c1.264-1.674,2.442-3.235,3.452-4.574
			c2.023-2.688,3.371-4.48,3.371-4.48s-1.085,1.961-2.713,4.902c-0.817,1.473-1.772,3.192-2.796,5.034
			c-1.065,1.814-2.202,3.75-3.339,5.686c-1.144,1.933-2.262,3.885-3.363,5.681c-1.091,1.803-2.107,3.486-2.98,4.929
			c-1.757,2.872-2.928,4.787-2.928,4.787L264.069,453.891z"/>
	</g>
	<g>
		<path fill="#1C110B" d="M308.597,488.128c-0.31,0.766-0.594,1.548-0.958,2.294l-0.523,1.133l-0.589,1.102
			c-0.375,0.749-0.822,1.456-1.284,2.155c-0.435,0.719-0.939,1.39-1.453,2.058l-0.766,1.009l-0.842,0.945
			c-0.561,0.634-1.117,1.277-1.762,1.833c-0.641,0.558-1.223,1.193-1.919,1.686l-2.048,1.545c-1.462,0.881-2.897,1.847-4.484,2.515
			c-1.533,0.801-3.188,1.269-4.818,1.825l-0.308,0.102l-0.076,0.025l-0.039,0.013l-0.02,0.007l-0.11,0.025l-0.149,0.034
			l-0.598,0.135l-1.195,0.271c-0.808,0.171-1.554,0.395-2.469,0.474l-2.646,0.319c-0.877,0.07-1.734,0.05-2.605,0.063
			c-0.434-0.001-0.868,0.016-1.303-0.001l-1.297-0.112c-0.861-0.098-1.74-0.104-2.591-0.284l-2.566-0.473
			c-0.844-0.206-1.677-0.452-2.517-0.68c-0.85-0.203-1.646-0.553-2.467-0.839l-1.223-0.452l-1.181-0.549
			c-1.587-0.707-3.092-1.574-4.567-2.479c-0.72-0.482-1.46-0.934-2.158-1.448c-0.688-0.527-1.395-1.031-2.065-1.582
			c-1.333-1.114-2.623-2.284-3.816-3.579c-1.21-1.275-2.298-2.699-3.278-4.295l4.474-0.441c-0.333,0.888-0.647,1.561-1.007,2.308
			c-0.353,0.729-0.737,1.434-1.133,2.133c-0.804,1.39-1.7,2.73-2.693,4.006s-2.086,2.486-3.285,3.604
			c-1.195,1.12-2.538,2.103-3.956,2.962c-1.426,0.849-2.934,1.588-4.526,2.098c-1.588,0.507-3.224,0.88-4.876,1.019
			c-1.647,0.14-3.305,0.136-4.914-0.097c-1.619-0.18-3.184-0.568-4.715-1.006c-1.555-0.503-2.864-0.943-4.33-1.479
			c-1.447-0.585-2.914-1.134-4.285-1.85c-1.405-0.641-2.748-1.437-4.089-2.212l-1.938-1.308c-0.649-0.428-1.232-0.965-1.841-1.448
			c-1.188-1.015-2.282-2.143-3.277-3.342c-0.488-0.605-0.938-1.246-1.384-1.877c-0.394-0.669-0.833-1.308-1.163-2.004
			c-0.734-1.354-1.293-2.773-1.831-4.183c-0.504-1.424-0.975-2.845-1.496-4.254c0.74,1.307,1.437,2.645,2.153,3.957
			c0.731,1.301,1.442,2.604,2.311,3.784c0.393,0.617,0.898,1.15,1.33,1.731c0.483,0.54,0.959,1.083,1.469,1.591
			c1.038,1,2.147,1.916,3.335,2.723c0.615,0.379,1.183,0.81,1.815,1.157l1.889,1.047c1.313,0.613,2.607,1.241,3.982,1.727
			c1.343,0.562,2.733,0.929,4.087,1.403c1.374,0.41,2.938,0.827,4.257,1.166c1.368,0.298,2.741,0.552,4.11,0.612
			c1.368,0.104,2.725,0.03,4.054-0.12c1.332-0.16,2.619-0.515,3.866-0.961c1.249-0.449,2.425-1.088,3.544-1.811
			c2.231-1.464,4.192-3.398,5.861-5.588c0.833-1.1,1.591-2.266,2.272-3.476c0.333-0.608,0.658-1.223,0.951-1.847
			c0.285-0.604,0.587-1.298,0.773-1.816l1.706-4.756l2.768,4.314c0.753,1.173,1.663,2.348,2.68,3.463
			c1.006,1.121,2.126,2.162,3.286,3.157c0.584,0.491,1.204,0.942,1.805,1.42c0.611,0.462,1.265,0.866,1.893,1.304
			c1.296,0.814,2.617,1.601,4.007,2.239l1.029,0.51l1.061,0.435c0.712,0.275,1.402,0.62,2.14,0.819
			c0.729,0.224,1.454,0.472,2.188,0.684l2.236,0.495c0.743,0.192,1.51,0.216,2.266,0.333l1.138,0.146
			c0.381,0.028,0.764,0.025,1.146,0.04c0.763,0.008,1.539,0.072,2.291,0.063l2.232-0.124c0.722,0.006,1.564-0.183,2.363-0.301
			l1.209-0.196l0.604-0.098l0.151-0.023c0.025-0.006-0.162,0.035-0.074,0.016l0.018-0.004l0.035-0.01l0.07-0.02l0.279-0.076
			c1.487-0.407,3.01-0.746,4.433-1.357c1.486-0.474,2.836-1.235,4.241-1.915l1.979-1.244c0.681-0.395,1.253-0.932,1.89-1.392
			c0.644-0.454,1.224-0.984,1.806-1.518l0.882-0.793l0.816-0.862c0.55-0.57,1.096-1.15,1.579-1.784
			c0.507-0.616,1.01-1.238,1.465-1.897l0.705-0.979l0.645-1.02c0.449-0.672,0.82-1.388,1.22-2.093
			c0.769-1.423,1.48-2.895,2.017-4.442C309.617,484.979,309.145,486.564,308.597,488.128z"/>
	</g>
	<g>
		<path fill="#1C110B" d="M311.016,430.668c-0.574-1.775-1.608-3.336-2.913-4.5c-0.147-0.161-0.348-0.268-0.517-0.404l-0.469-0.344
			l-0.634-0.348l-0.317-0.173c-0.101-0.046-0.184-0.055-0.273-0.086c-0.179-0.052-0.351-0.107-0.52-0.167l-0.587-0.087
			c-0.189-0.045-0.395-0.038-0.597-0.034c-0.205,0.011-0.395-0.021-0.608,0.021c-1.646,0.163-3.449,0.841-5.507,1.229
			c-2.046,0.42-4.424,0.29-6.499-0.485c-0.258-0.098-0.524-0.188-0.777-0.296l-0.726-0.371l-0.726-0.377l-0.091-0.047l-0.122-0.076
			l-0.152-0.096l-0.307-0.19c-0.783-0.47-1.704-1.115-2.518-1.739c-1.626-1.242-3.092-2.655-4.466-3.945
			c-1.376-1.309-2.657-2.398-4.058-3.072c-0.345-0.183-0.719-0.293-1.072-0.448c-0.386-0.094-0.747-0.227-1.141-0.308
			c-0.402-0.06-0.781-0.167-1.198-0.199l-0.622-0.055l-0.312-0.029l-0.078-0.008l-0.039-0.003l-0.019-0.002
			c0.247,0.009,0.055,0.003,0.104,0.005h-0.18c-0.944,0.013-1.962-0.022-2.846,0.03l-1.188,0.148l-0.596,0.065l-0.625,0.14
			c-0.42,0.1-0.826,0.167-1.257,0.287l-1.304,0.385c-0.938,0.274-1.869,0.596-2.985,0.819l-0.809,0.178l-0.853,0.084
			c-0.567,0.035-1.147,0.142-1.703,0.104l-1.674-0.094l-0.418-0.027l-0.104-0.007l-0.052-0.003
			c-0.022-0.002,0.103,0.012,0.039,0.005l-0.021-0.002l-0.181-0.019l-0.718-0.071l-1.426-0.139L253,415.834l-1.462-0.103
			c-0.494-0.031-0.997-0.076-1.514-0.147l-1.535-0.189l-1.507-0.285c-1.018-0.169-1.98-0.426-2.949-0.673
			c-1.964-0.464-3.787-1.123-5.681-1.685l-5.513-1.934l0.92,0.127c-0.008-0.001-0.125,0.015-0.243,0.035
			c-0.111,0.014-0.226,0.029-0.354,0.065c-0.248,0.066-0.496,0.1-0.749,0.2c-0.25,0.092-0.508,0.158-0.757,0.263l-0.742,0.341
			c-0.499,0.221-0.952,0.553-1.439,0.815l-1.334,1.033l-1.207,1.223c-0.542,0.563-0.852,0.959-1.52,1.554
			c-0.292,0.282-0.594,0.53-0.902,0.76c-0.303,0.24-0.61,0.472-0.951,0.674c-0.65,0.432-1.365,0.79-2.095,1.084
			c-0.733,0.3-1.494,0.497-2.258,0.657l-1.146,0.157c-0.381,0.034-0.758,0.034-1.138,0.051c-0.381,0.025-0.746-0.015-1.117-0.033
			c-0.37-0.023-0.743-0.038-1.1-0.101l-1.077-0.159l-1.045-0.233c-0.702-0.146-1.354-0.389-2.028-0.587
			c-0.66-0.222-1.302-0.479-1.948-0.719l-1.88-0.822l-1.828-0.894l0.25,0.086c-0.112-0.031-0.385-0.088-0.604-0.104
			c-0.229-0.032-0.47-0.027-0.708-0.037c-0.237,0.021-0.48,0.004-0.719,0.044c-0.239,0.025-0.481,0.052-0.717,0.113
			c-0.24,0.043-0.478,0.104-0.707,0.189c-0.234,0.069-0.468,0.15-0.688,0.265c-0.226,0.105-0.46,0.193-0.667,0.336
			c-0.21,0.136-0.439,0.249-0.642,0.403l-0.604,0.474c-0.206,0.156-0.373,0.36-0.563,0.538c-0.185,0.185-0.379,0.362-0.534,0.579
			l-0.498,0.628c-0.18,0.2-0.303,0.445-0.457,0.666l-0.445,0.684l-0.76,1.467l0.019-0.06c-0.712,2.2-1.454,4.395-2.219,6.583
			c0.361-2.289,0.744-4.574,1.158-6.851l0.002-0.014l0.017-0.045l0.588-1.667l0.379-0.81c0.136-0.266,0.236-0.551,0.402-0.805
			c0.326-0.509,0.613-1.048,1.021-1.516c0.197-0.235,0.37-0.494,0.594-0.713l0.668-0.661c0.228-0.217,0.492-0.396,0.74-0.596
			c0.243-0.207,0.525-0.361,0.8-0.529c0.27-0.176,0.559-0.319,0.856-0.448c0.291-0.146,0.594-0.263,0.905-0.359
			c0.306-0.115,0.624-0.192,0.944-0.264c0.317-0.087,0.646-0.113,0.973-0.161c0.33-0.022,0.659-0.052,0.997-0.041
			c0.35,0.003,0.643,0.02,1.089,0.096l0.044,0.007l0.206,0.079l1.799,0.688l1.811,0.604c0.606,0.163,1.212,0.345,1.816,0.49
			c0.607,0.117,1.211,0.287,1.813,0.351l0.896,0.139l0.887,0.069c0.298,0.036,0.586,0.023,0.875,0.022
			c0.287-0.005,0.58,0.013,0.857-0.03c0.278-0.033,0.562-0.047,0.835-0.091l0.805-0.165c0.52-0.152,1.026-0.315,1.501-0.55
			c0.476-0.232,0.934-0.496,1.359-0.827c0.222-0.146,0.427-0.326,0.629-0.512c0.212-0.179,0.408-0.361,0.575-0.553
			c0.313-0.292,0.822-0.936,1.178-1.338l1.5-1.662c0.567-0.495,1.143-0.99,1.728-1.471c0.645-0.411,1.254-0.879,1.943-1.226
			l1.041-0.517c0.354-0.161,0.731-0.284,1.098-0.425c0.359-0.147,0.762-0.238,1.149-0.346c0.189-0.056,0.4-0.098,0.615-0.135
			c0.206-0.038,0.413-0.08,0.734-0.107l0.411-0.036l0.509,0.163l5.429,1.74c1.805,0.495,3.62,1.105,5.411,1.492
			c0.896,0.223,1.795,0.458,2.678,0.595l1.329,0.245l1.329,0.154c0.436,0.061,0.892,0.099,1.357,0.123l1.415,0.098l1.521,0.106
			l1.443,0.149l0.718,0.077l0.179,0.02l0.144,0.014l0.075,0.005l0.302,0.017l1.206,0.081c0.404,0.039,0.781-0.055,1.174-0.068
			l0.584-0.043l0.602-0.13c0.777-0.13,1.675-0.411,2.589-0.661l1.471-0.402c0.498-0.128,1.042-0.22,1.562-0.327l0.787-0.154
			l0.839-0.083l1.683-0.135c1.035-0.021,1.943,0.046,2.921,0.064l0.181,0.005l0.149,0.007l0.025,0.003l0.051,0.006l0.103,0.012
			l0.405,0.049l0.813,0.102c0.54,0.063,1.093,0.219,1.636,0.33c0.545,0.132,1.087,0.338,1.625,0.514
			c0.522,0.24,1.063,0.447,1.558,0.733c2.025,1.107,3.627,2.646,4.948,4.064c1.341,1.433,2.57,2.775,3.932,3.962
			c0.679,0.588,1.296,1.103,2.126,1.68l0.293,0.21l0.146,0.104c0.005,0.004,0.093,0.065,0.029,0.023l0.067,0.04l0.536,0.321
			l0.537,0.325c0.184,0.092,0.371,0.165,0.558,0.25c1.479,0.695,3.066,0.966,4.819,0.781c1.75-0.134,3.64-0.735,5.854-0.709
			c0.267-0.016,0.557,0.046,0.832,0.068c0.278,0.028,0.555,0.059,0.83,0.146l0.818,0.229l0.817,0.379
			c0.129,0.064,0.278,0.13,0.387,0.198l0.295,0.208l0.592,0.417l0.036,0.025c0.132,0.088,0.048,0.034,0.081,0.059l0.019,0.017
			l0.073,0.067l0.146,0.135l0.29,0.27c0.187,0.188,0.399,0.344,0.558,0.556c1.405,1.569,2.258,3.515,2.614,5.469
			c0.2,0.976,0.271,1.965,0.257,2.944c-0.014,0.978-0.091,1.951-0.299,2.896C311.901,434.349,311.626,432.433,311.016,430.668z"/>
	</g>
</g>
</svg>
