<?xml version="1.0" encoding="utf-8"?>
<!-- Generator: Adobe Illustrator 16.0.0, SVG Export Plug-In . SVG Version: 6.00 Build 0)  -->
<!DOCTYPE svg PUBLIC "-//W3C//DTD SVG 1.1//EN" "http://www.w3.org/Graphics/SVG/1.1/DTD/svg11.dtd">
<svg version="1.1" id="Layer_2" xmlns="http://www.w3.org/2000/svg" xmlns:xlink="http://www.w3.org/1999/xlink" x="0px" y="0px"
	 width="500px" height="900px" viewBox="0 0 500 900" enable-background="new 0 0 500 900" xml:space="preserve">
<g>
	<path fill="none" stroke="#1C110B" stroke-width="5" stroke-miterlimit="10" d="M285.02,5.59c0,0,2.66,43.62-10.65,84.888
		c0,0,1.329,11.981,0,21.3c0,0-9.653,146.433-14.146,172.392c0,0-3.993,44.928-22.963,42.432c0,0-9.235-1.498,0-18.97
		c0,0,3.744-12.479,0.25-30.95s-12.23-142.273-11.232-153.256c0,0-2.122-15.351-1.498-19.219c0.624-3.869-0.115-0.5-0.115-0.5
		s-1.549-8.736-2.547-16.723c0,0-5.326-48.423-5.076-62.151C217.292,11.104,209.226,2.571,285.02,5.59z"/>
	<g>
		<path fill="#1C110B" d="M227.94,117.226c0,0,0.017,0.048,0.05,0.143c0.031,0.083,0.078,0.208,0.138,0.37
			c0.134,0.349,0.356,0.874,0.67,1.53c0.629,1.31,1.649,3.168,3.241,5.051c0.798,0.935,1.755,1.846,2.869,2.639
			c1.113,0.791,2.397,1.455,3.834,1.79c1.431,0.351,2.995,0.406,4.601,0.192c0.791-0.191,1.614-0.292,2.405-0.604
			c0.397-0.14,0.807-0.25,1.202-0.415l1.177-0.53c1.569-0.725,3.063-1.667,4.491-2.668c1.405-1.035,2.771-2.106,4.004-3.255
			c1.284-1.092,2.388-2.303,3.499-3.389c1.057-1.138,2.037-2.238,2.945-3.252c0.867-1.05,1.663-2.013,2.367-2.867
			c0.706-0.855,1.268-1.642,1.758-2.27c0.966-1.268,1.519-1.993,1.519-1.993s-0.488,0.769-1.343,2.115
			c-0.436,0.668-0.93,1.505-1.562,2.42c-0.633,0.916-1.347,1.95-2.126,3.078c-0.823,1.097-1.715,2.289-2.687,3.532
			c-1.028,1.196-2.045,2.521-3.264,3.755c-1.162,1.285-2.477,2.516-3.859,3.728c-1.411,1.182-2.916,2.327-4.581,3.278l-1.26,0.701
			c-0.428,0.222-0.885,0.395-1.328,0.593c-0.874,0.426-1.841,0.651-2.771,0.949c-1.921,0.436-3.932,0.553-5.854,0.252
			c-1.929-0.281-3.708-1.009-5.224-1.899c-1.521-0.893-2.813-1.936-3.884-2.99c-2.135-2.124-3.501-4.191-4.384-5.676
			c-0.44-0.747-0.759-1.352-0.971-1.783c-0.109-0.229-0.192-0.405-0.249-0.524c-0.05-0.11-0.076-0.167-0.076-0.167L227.94,117.226z"
			/>
	</g>
</g>
<g>
	<path fill="none" stroke="#1C110B" stroke-width="5" stroke-miterlimit="10" d="M8.782,531.025c0,0-0.5-8.487-1.248-12.98
		c-0.749-4.492-5.991-8.486,1.248-26.957c7.238-18.471,32.448-83.867,52.167-82.119c0,0,8.486-1.748,3.245,28.205
		c-5.242,29.953,11.981,53.415,20.218,64.646c0,0,10.483,8.986,0,41.685l-0.749,91.856c0,0-5.659,51.581-21.3,80.203
		c0,0-14.645,33.28-30.286,0c-15.641-33.278-21.965-47.59-22.63-78.541L8.782,531.025z"/>
	<path fill="none" stroke="#1C110B" stroke-width="5" stroke-miterlimit="10" d="M8.8,533.855c0,0,12.629-2.994,20.616-25.293
		c7.987-22.299,19.968-20.967,28.954,1.996c0,0,7.821,29.284,26.042,32.946"/>
</g>
<g>
	<path fill="none" stroke="#1C110B" stroke-width="5" stroke-miterlimit="10" d="M493.656,538.383c0,0,0.499-8.486,1.248-12.979
		c0.749-4.494,5.99-8.487-1.248-26.958c-7.239-18.471-32.449-83.867-52.168-82.119c0,0-8.486-1.748-3.244,28.205
		c5.241,29.952-11.981,53.415-20.219,64.647c0,0-10.483,8.985,0,41.684l0.749,91.854c0,0,5.659,51.582,21.301,80.204
		c0,0,14.645,33.279,30.285,0c15.641-33.278,21.966-47.588,22.63-78.539L493.656,538.383z"/>
	<path fill="none" stroke="#1C110B" stroke-width="5" stroke-miterlimit="10" d="M495.178,550.863c0,0-15.688-6.915-22.921-20.3
		c-8.813-16.308-21.731-8.372-28.954,1.997c0,0-7.057,14.641-25.278,18.303"/>
</g>
<g>
	<path fill="none" stroke="#1C110B" stroke-width="5" stroke-miterlimit="10" d="M281.688,586.561c0,0-4.991,50.419-6.988,58.407
		c-1.997,7.986-3.494,44.928-6.49,51.918c0,0-0.499,47.923-4.492,86.861c-3.994,38.938,0,2.994,0,2.994s-7.987,64.898-5.991,81.871
		c0,0,6.989,21.169,2.995,26.809c0,0-13.978,8.136-23.962-22.814c0,0-5.491-71.388-7.987-86.863
		c-2.496-15.475-1.996-86.611-7.736-132.289c-5.742-45.678-17.223-80.51,18.22-79.193c0,0,11.657,0.328,21.716,0.301
		C265.406,574.551,282.687,570.088,281.688,586.561z"/>
	<g>
		<path fill="#1C110B" d="M270.42,698.052c0,0-0.104,0.164-0.301,0.472c-0.235,0.378-0.56,0.786-0.975,1.315
			c-0.447,0.492-0.957,1.118-1.644,1.717c-0.645,0.647-1.479,1.246-2.361,1.911c-0.953,0.567-1.943,1.241-3.117,1.703
			c-1.121,0.573-2.405,0.885-3.691,1.276c-0.655,0.144-1.333,0.229-2.009,0.342c-0.338,0.053-0.678,0.106-1.02,0.16
			c-0.343,0.029-0.689,0.024-1.035,0.038c-0.689,0.017-1.384,0.032-2.081,0.049c-0.692-0.005-1.38-0.124-2.067-0.181
			c-0.686-0.084-1.375-0.121-2.045-0.245c-0.663-0.151-1.323-0.304-1.979-0.454c-0.65-0.157-1.303-0.283-1.929-0.463
			c-0.614-0.216-1.222-0.428-1.819-0.637c-1.187-0.432-2.355-0.771-3.38-1.305c-1.038-0.484-2.021-0.942-2.927-1.365
			c-0.92-0.386-1.678-0.916-2.388-1.299c-0.699-0.404-1.31-0.756-1.812-1.047c-1-0.578-1.572-0.908-1.572-0.908
			s0.607,0.261,1.672,0.718c0.529,0.228,1.174,0.505,1.912,0.821c0.746,0.295,1.545,0.726,2.497,0.998
			c0.934,0.308,1.945,0.641,3.015,0.992c1.051,0.401,2.225,0.593,3.407,0.871c0.593,0.131,1.194,0.266,1.804,0.401
			c0.613,0.101,1.243,0.144,1.869,0.219c0.626,0.068,1.256,0.138,1.89,0.206c0.632,0.041,1.268-0.005,1.898-0.002
			c0.63-0.023,1.263,0.017,1.881-0.055c0.613-0.088,1.224-0.177,1.829-0.264c0.301-0.047,0.604-0.076,0.896-0.137l0.858-0.246
			c0.564-0.169,1.13-0.303,1.665-0.486c1.032-0.47,2.058-0.832,2.902-1.414c0.903-0.474,1.618-1.123,2.316-1.643
			c0.625-0.617,1.221-1.144,1.648-1.703c0.475-0.518,0.788-1.036,1.077-1.431c0.248-0.416,0.453-0.746,0.52-0.909
			c0.082-0.15,0.177-0.367,0.171-0.35L270.42,698.052z"/>
	</g>
	<g>
		<path fill="#1C110B" d="M273.122,683.094c0,0-0.069,0.16-0.199,0.458c-0.128,0.279-0.317,0.663-0.576,1.136
			c-0.518,0.942-1.313,2.236-2.473,3.636c-1.158,1.391-2.685,2.909-4.626,4.118c-0.955,0.621-2.024,1.137-3.138,1.551
			c-1.11,0.432-2.297,0.672-3.468,0.852c-1.182,0.123-2.359,0.172-3.498,0.063c-0.569-0.044-1.13-0.099-1.674-0.21
			c-0.548-0.085-1.082-0.188-1.596-0.334c-1.039-0.237-2.002-0.59-2.905-0.918c-0.893-0.363-1.729-0.708-2.467-1.096
			c-0.755-0.352-1.413-0.733-1.996-1.068c-0.59-0.323-1.087-0.631-1.487-0.9c-0.808-0.52-1.269-0.817-1.269-0.817
			s0.498,0.229,1.37,0.629c0.431,0.207,0.963,0.44,1.586,0.673c0.617,0.246,1.312,0.525,2.091,0.76
			c0.767,0.273,1.618,0.488,2.513,0.711c0.902,0.189,1.851,0.39,2.84,0.47c0.491,0.067,0.992,0.091,1.497,0.096
			c0.504,0.03,1.012,0.005,1.52-0.028c1.017-0.047,2.023-0.24,2.997-0.484c0.962-0.297,1.901-0.628,2.747-1.109
			c0.851-0.467,1.641-0.996,2.329-1.604c1.403-1.181,2.449-2.575,3.219-3.828c0.77-1.26,1.259-2.397,1.554-3.187
			c0.146-0.395,0.247-0.705,0.304-0.903c0.049-0.183,0.075-0.28,0.075-0.28L273.122,683.094z"/>
	</g>
	<g>
		<path fill="#1C110B" d="M236.759,579.406c0,0-0.419-0.066-1.196-0.111c-0.774-0.038-1.93-0.02-3.293,0.278
			c-1.352,0.302-2.911,1.024-3.956,2.429c-0.224,0.383-0.453,0.771-0.659,1.182c-0.136,0.463-0.317,0.904-0.434,1.391
			c-0.065,0.514-0.154,1.027-0.24,1.55c-0.007,0.551-0.014,1.114-0.021,1.688c-0.021,0.568,0.108,1.182,0.154,1.783
			c0.032,0.303,0.065,0.607,0.098,0.916c0.057,0.311,0.113,0.625,0.17,0.941c0.251,1.294,0.476,2.712,0.69,4.163
			c0.42,2.87,0.825,5.878,1.189,8.982c0.382,3.091,0.775,6.285,1.176,9.531c0.425,3.232,0.869,6.506,1.408,9.757
			c0.511,3.256,1.117,6.487,1.771,9.65c0.671,3.159,1.426,6.238,2.257,9.188c0.83,2.95,1.738,5.768,2.735,8.388
			c0.99,2.625,2.078,5.041,3.153,7.245c0.569,1.082,1.099,2.136,1.674,3.094c0.277,0.488,0.547,0.964,0.81,1.426
			c0.286,0.447,0.564,0.882,0.834,1.302c0.273,0.419,0.526,0.836,0.794,1.221c0.273,0.381,0.536,0.748,0.789,1.102
			c0.252,0.356,0.493,0.699,0.724,1.026c0.249,0.313,0.487,0.61,0.713,0.894c0.46,0.56,0.852,1.083,1.218,1.516
			c0.377,0.424,0.697,0.784,0.958,1.076c0.519,0.596,0.795,0.912,0.795,0.912s-0.344-0.242-0.986-0.697
			c-0.645-0.459-1.602-1.125-2.703-2.119c-0.281-0.242-0.578-0.498-0.89-0.766c-0.295-0.286-0.604-0.585-0.925-0.896
			c-0.659-0.614-1.33-1.318-2.007-2.105c-1.418-1.529-2.845-3.404-4.277-5.538c-1.408-2.145-2.854-4.54-4.098-7.206
			c-1.283-2.647-2.515-5.504-3.539-8.536c-1.043-3.025-1.99-6.196-2.759-9.454c-0.789-3.253-1.424-6.588-1.976-9.928
			c-0.525-3.346-0.964-6.695-1.284-9.997c-0.336-3.3-0.574-6.548-0.767-9.682c-0.169-3.121-0.331-6.138-0.485-8.999
			c-0.047-0.701-0.092-1.394-0.137-2.075c-0.058-0.7-0.123-1.368-0.16-2.066c-0.021-0.354-0.04-0.705-0.06-1.053
			c0.004-0.354,0.008-0.707,0.011-1.056c0.029-0.699-0.025-1.366,0.076-2.047c0.17-2.666,1.104-5.282,2.773-6.952
			c1.695-1.686,3.768-2.104,5.267-2.161c1.542-0.061,2.698,0.227,3.465,0.422C236.375,579.233,236.759,579.406,236.759,579.406z"/>
	</g>
</g>
<g>
	<path fill="none" stroke="#1C110B" stroke-width="5" stroke-miterlimit="10" d="M217.988,456.453c0,0-14.977-22.961,9.984-22.296
		c24.959,0.665,4.99,2.967,40.602-0.015c35.611-2.98,4.324,31.63,0,43.611c-4.326,11.98-27.363,24.826-39.938,0
		C216.063,452.927,217.988,456.453,217.988,456.453z"/>
	<path fill="none" stroke="#1C110B" stroke-width="5" stroke-miterlimit="10" d="M220.649,433.962c0,0,7.987-6.794,12.315-14.781
		c4.326-7.988,22.632-19.302,33.28,1.997c0,0,4.838,11.803,9.654,12.945"/>
</g>
</svg>
