<?xml version="1.0" encoding="utf-8"?>
<!-- Generator: Adobe Illustrator 16.0.0, SVG Export Plug-In . SVG Version: 6.00 Build 0)  -->
<!DOCTYPE svg PUBLIC "-//W3C//DTD SVG 1.1//EN" "http://www.w3.org/Graphics/SVG/1.1/DTD/svg11.dtd">
<svg version="1.1" id="Layer_3" xmlns="http://www.w3.org/2000/svg" xmlns:xlink="http://www.w3.org/1999/xlink" x="0px" y="0px"
	 width="500px" height="900px" viewBox="0 0 500 900" enable-background="new 0 0 500 900" xml:space="preserve">
<g>
	<path fill="none" stroke="#1C110B" stroke-width="5" stroke-miterlimit="10" d="M15.176,650.554
		c-2.023-26.639-30.688-144.662,20.232-222.559c0,0,24.278-45.522,29.337,16.187c5.058,61.71,37.092,49.23,25.965,101.501
		c0,0,9.106,125.779-22.931,174.674c0,0-16.523,30.35-32.71-1.35C35.071,719.009,17.199,677.195,15.176,650.554z"/>
	<path fill="none" stroke="#1C110B" stroke-width="5" stroke-miterlimit="10" d="M5.362,543.322c0,0,18.918-16.86,29.035-27.99
		c0,0,8.322-7.415,14.784,1.688c0,0,27.367,23.607,41.53,28.664"/>
</g>
<g>
	<path fill="none" stroke="#1A1009" stroke-width="5" stroke-miterlimit="10" d="M490.23,655.118
		c1.154-15.186,5.453-62.296,3.583-113.976c-0.315-8.676,3.77-14.469,3.117-23.268c-2.28-30.726-12.276-64.507-29.294-90.542
		c0,0-5.323-10.373-13.381-13.91c-9.995-4.389-23.209,0.065-24.051,28.073c-2.122,70.806-30.854,64.744-21.255,111.026
		c0,0-1.338,122.72,30.698,171.613c0,0,19.896,30.459,36.082-1.239C475.731,722.897,488.205,681.76,490.23,655.118z"/>
	<path fill="none" stroke="#1A1009" stroke-width="5" stroke-miterlimit="10" d="M491.916,543.054c0,0-15.354-0.224-28.998-20.119
		c0,0-11.853-8.77-18.313,0.336c0,0-21.493,24.196-35.655,29.252"/>
</g>
<g>
	<path fill="none" stroke="#1A1009" stroke-width="5" stroke-miterlimit="10" d="M205.172,595.072
		c-1.188-8.815,1.926-21.778,30.368-22h31.697c0,0,28.661-7.417,24.279,28.664c-4.387,36.081-16.521,69.802-14.839,94.081
		c1.688,24.279-1.348,116.335-11.464,151.406c0,0-21.582,101.162-30.688,0c-9.104-101.163-6.407-116.672-10.115-169.278
		C224.412,677.945,205.786,599.634,205.172,595.072z"/>
	<path fill="none" stroke="#1A1009" stroke-width="5" stroke-miterlimit="10" d="M224.79,683.51c0,0,27.264,34.143,52.051,0"/>
	<g>
		<path fill="#1A1009" d="M218.172,586.392c-0.113,1.494-0.116,2.982-0.091,4.464c0.024,1.481,0.116,2.958,0.255,4.425
			c0.048,0.733,0.136,1.464,0.227,2.193c0.077,0.729,0.183,1.455,0.308,2.179c0.221,1.447,0.497,2.883,0.79,4.311
			c0.33,1.422,0.66,2.837,1.091,4.226c0.359,1.404,0.864,2.77,1.297,4.146c0.54,1.344,0.992,2.716,1.61,4.021l0.882,1.973
			l0.459,1.08l0.437,0.975c2.432,5.188,5.449,10.196,9.21,14.267c1.893,2.014,3.995,3.764,6.296,4.957
			c1.158,0.573,2.348,1.025,3.57,1.314c1.229,0.255,2.479,0.32,3.741,0.269l0.287-0.013l0.1,0.009
			c0.264,0.021,0.721,0.037,1.103,0.03c0.398-0.003,0.806-0.02,1.212-0.045c0.813-0.057,1.633-0.146,2.444-0.277
			c1.633-0.244,3.237-0.669,4.794-1.223c0.395-0.131,0.781-0.274,1.161-0.438c0.389-0.147,0.769-0.313,1.141-0.495
			c0.755-0.341,1.486-0.733,2.197-1.164c0.72-0.418,1.401-0.896,2.076-1.389l0.987-0.772l0.953-0.823
			c0.611-0.574,1.243-1.144,1.795-1.787c0.586-0.617,1.109-1.289,1.637-1.965c0.271-0.334,0.494-0.701,0.744-1.052
			c0.246-0.354,0.509-0.696,0.726-1.07c0.465-0.731,0.924-1.473,1.318-2.25c0.438-0.759,0.784-1.563,1.162-2.359
			c0.395-0.791,0.688-1.624,1.042-2.44l0.906-2.518l0.801-2.573l-0.241,2.699c-0.131,0.895-0.263,1.794-0.434,2.688
			c-0.208,0.884-0.362,1.789-0.62,2.668c-0.257,0.879-0.507,1.766-0.844,2.624c-0.298,0.876-0.664,1.725-1.045,2.573
			c-0.371,0.854-0.828,1.673-1.29,2.486c-0.488,0.801-0.981,1.604-1.55,2.36c-0.532,0.781-1.158,1.499-1.775,2.223l-0.977,1.05
			l-1.052,0.977c-0.724,0.626-1.465,1.239-2.253,1.791c-0.779,0.562-1.591,1.087-2.433,1.556c-0.416,0.246-0.842,0.475-1.275,0.685
			c-0.428,0.225-0.865,0.429-1.309,0.618c-0.883,0.396-1.794,0.719-2.714,1.016c-0.92,0.294-1.854,0.542-2.802,0.745
			c-0.944,0.208-1.906,0.346-2.876,0.455c-0.484,0.052-0.974,0.092-1.47,0.114c-0.513,0.025-0.953,0.039-1.584,0.017l0.387-0.004
			c-1.711,0.165-3.452,0.088-5.153-0.22c-1.689-0.348-3.316-0.914-4.827-1.664c-1.512-0.753-2.888-1.687-4.179-2.689
			c-1.293-1.007-2.432-2.148-3.523-3.313c-2.166-2.346-3.966-4.93-5.552-7.597c-1.566-2.683-2.93-5.447-4.06-8.328l-0.416-1.092
			l-0.355-1l-0.788-2.171c-0.541-1.439-0.909-2.939-1.359-4.404c-0.337-1.499-0.768-2.971-0.997-4.487
			c-0.285-1.506-0.465-3.024-0.639-4.539c-0.127-1.521-0.281-3.036-0.272-4.562c-0.021-0.76-0.021-1.519,0.008-2.278
			c0.016-0.759,0.034-1.516,0.093-2.271c0.084-1.512,0.278-3.016,0.506-4.506C217.419,589.304,217.723,587.824,218.172,586.392z"/>
	</g>
</g>
<g>
	<path fill="none" stroke="#1A1009" stroke-width="5" stroke-miterlimit="10" d="M275.019,8.183c0,0,21.244-6.575,17.198,16.186
		c0,0-4.553,47.547-11.634,70.814c-7.082,23.268-3.035,51.088-5.564,67.777c-2.527,16.693-3.54,105.717-4.046,127.973
		c-0.506,22.255-10.117,65.25-31.361,3.541c-21.243-61.71-4.552-147.698-22.762-198.279c0,0-23.267-78.401,0-86.494
		c0,0,15.175-4.552,32.877-4.552C267.433,5.148,265.198,8.696,275.019,8.183z"/>
	<path fill="none" stroke="#1A1009" stroke-width="5" stroke-miterlimit="10" d="M221.912,115.245c0,0,19.405,37.261,54.973,0"/>
	<g>
		<path fill="#1A1009" d="M228.811,7.767c0,0-0.083,0.416-0.228,1.144c-0.143,0.711-0.333,1.741-0.542,3
			c-0.23,1.251-0.424,2.721-0.665,4.298c-0.121,0.789-0.2,1.606-0.307,2.438c-0.095,0.831-0.213,1.678-0.292,2.523
			c-0.071,0.849-0.144,1.696-0.215,2.531c-0.064,0.836-0.16,1.663-0.175,2.459c-0.032,0.799-0.063,1.572-0.092,2.304
			c-0.019,0.733-0.081,1.434-0.059,2.071c0.054,2.573,0.089,4.288,0.089,4.288s-0.348-1.688-0.867-4.222
			c-0.142-0.637-0.205-1.332-0.322-2.067c-0.104-0.737-0.216-1.514-0.332-2.318c-0.132-0.806-0.188-1.64-0.277-2.488
			c-0.083-0.852-0.167-1.715-0.251-2.58c-0.076-0.866-0.114-1.73-0.173-2.584c-0.048-0.854-0.119-1.697-0.143-2.511
			c-0.051-1.629-0.126-3.153-0.127-4.462c-0.023-1.304-0.021-2.405-0.01-3.185c0.011-0.763,0.017-1.198,0.017-1.198L228.811,7.767z"
			/>
	</g>
	<g>
		<path fill="#1A1009" d="M273.954,7.893c0,0-0.002,0.361-0.004,0.996c-0.001,0.65-0.017,1.567-0.056,2.649
			c-0.02,1.086-0.105,2.354-0.173,3.704c-0.035,0.675-0.104,1.375-0.158,2.082c-0.062,0.708-0.104,1.425-0.185,2.144
			c-0.179,1.436-0.303,2.862-0.519,4.197c-0.107,0.665-0.212,1.309-0.311,1.918c-0.108,0.608-0.171,1.184-0.3,1.708
			c-0.471,2.091-0.782,3.485-0.782,3.485s0.002-1.42,0.004-3.551c0.011-0.527-0.054-1.106-0.08-1.712
			c-0.035-0.605-0.073-1.244-0.112-1.904c-0.077-1.317-0.268-2.724-0.4-4.119c-0.076-0.698-0.189-1.396-0.28-2.082
			c-0.101-0.685-0.181-1.357-0.292-2.008c-0.225-1.299-0.408-2.51-0.618-3.539c-0.192-1.036-0.368-1.882-0.497-2.463
			c-0.132-0.6-0.207-0.94-0.207-0.94L273.954,7.893z"/>
	</g>
</g>
<g>
	<path fill="none" stroke="#1A1009" stroke-width="5" stroke-miterlimit="10" d="M243.775,413.3
		c17.146-1.318,45.123,31.936,47.822,38.679c2.695,6.744-9.108,17.535-16.862,22.593c-7.757,5.06-23.938,21.916-42.822,4.383
		c-18.887-17.533-23.9-16.888-23.9-33.088c0-6.321,14.119-15.129,18.166-19.514C230.224,421.968,230.959,414.287,243.775,413.3z"/>
	<g>
		<path fill="#1A1009" d="M220.025,438.784l-0.771,0.872c-0.252,0.294-0.54,0.557-0.817,0.832c-0.563,0.543-1.145,1.077-1.728,1.622
			l0.2-0.885c0.901,0.737,2.177,1.472,3.441,1.957c0.659,0.235,1.31,0.473,1.944,0.729c0.637,0.252,1.354,0.373,2.022,0.565
			l2.027,0.523c0.665,0.191,1.389,0.258,2.078,0.393l4.161,0.728l4.237,0.448c1.412,0.149,2.8,0.393,4.236,0.415l4.273,0.254
			c1.43,0.095,2.826,0.217,4.282,0.292c5.767,0.273,11.551,0.599,17.317,0.988l8.645,0.603c1.438,0.108,2.879,0.165,4.308,0.24
			c1.432,0.084,2.868,0.096,4.196-0.011l-0.259,1.16c-0.547-0.636-1.072-1.249-1.554-1.924c-0.229-0.345-0.493-0.649-0.688-1.021
			c-0.21-0.355-0.409-0.713-0.602-1.066l0.894,0.821c0.273,0.281,0.623,0.505,0.93,0.756c0.611,0.501,1.271,0.973,1.91,1.415
			l1.032,0.713l-1.29,0.447c-0.737,0.256-1.511,0.487-2.232,0.611c-0.741,0.167-1.473,0.284-2.205,0.398
			c-0.734,0.135-1.467,0.217-2.197,0.293c-0.731,0.084-1.467,0.166-2.195,0.229c-1.463,0.152-2.925,0.257-4.387,0.338
			c-1.46,0.092-2.921,0.137-4.38,0.191c-5.84,0.171-11.657,0.082-17.485-0.191c-1.441-0.092-2.936-0.236-4.399-0.352l-4.407-0.421
			c-1.467-0.104-2.931-0.447-4.394-0.693l-4.37-0.852c-1.445-0.391-2.885-0.831-4.313-1.271c-0.711-0.243-1.434-0.392-2.129-0.71
			l-2.08-0.917c-0.686-0.325-1.387-0.566-2.05-0.959c-0.666-0.385-1.317-0.788-1.961-1.193c-0.659-0.355-1.239-0.938-1.838-1.41
			l-0.442-0.371c-0.14-0.144-0.273-0.299-0.406-0.449c-0.261-0.312-0.523-0.579-0.771-1.016l-0.335-0.594l0.535-0.292l1.995-1.088
			c0.339-0.181,0.689-0.348,1.017-0.559L220.025,438.784z"/>
	</g>
</g>
</svg>
