<?xml version="1.0" encoding="utf-8"?>
<!-- Generator: Adobe Illustrator 16.0.0, SVG Export Plug-In . SVG Version: 6.00 Build 0)  -->
<!DOCTYPE svg PUBLIC "-//W3C//DTD SVG 1.1//EN" "http://www.w3.org/Graphics/SVG/1.1/DTD/svg11.dtd">
<svg version="1.1" id="Layer_3" xmlns="http://www.w3.org/2000/svg" xmlns:xlink="http://www.w3.org/1999/xlink" x="0px" y="0px"
	 width="500px" height="900px" viewBox="0 0 500 900" enable-background="new 0 0 500 900" xml:space="preserve">
<g>
	<path fill="none" stroke="#1C110B" stroke-width="5" stroke-miterlimit="10" d="M8.329,536.916c0,0-13.726-54.813,14.561-92.139
		c0,0,16.57-40.168,35.65-35.649c0,0,5.523,1.004,8.034,36.152c0,0,10.042,27.114,11.047,37.659c0,0,24.603,17.071,11.549,57.24
		c0,0,5.021,89.878-29.625,172.225c0,0-9.541,41.173-27.115,0c0,0-33.477-116.492-22.763-172.059L8.329,536.916z"/>
	<path fill="none" stroke="#1C110B" stroke-width="5" stroke-miterlimit="10" d="M9.668,540.345c0,0,3.852,0.671,19.249-19.247
		c15.396-19.917,26.109-11.381,35.147-0.837s15.229,20.252,24.436,19.08"/>
	<g>
		<path fill="#1C110B" d="M28.414,440.761c0.451-1.387,0.999-2.733,1.583-4.064c0.568-1.341,1.236-2.631,1.897-3.933
			c0.674-1.293,1.396-2.566,2.176-3.809c0.774-1.248,1.6-2.468,2.487-3.658c0.44-0.599,0.91-1.178,1.385-1.757
			c0.479-0.577,0.971-1.148,1.496-1.697c0.526-0.549,1.061-1.097,1.639-1.616c0.56-0.534,1.187-1.02,1.812-1.509
			c0.653-0.47,1.326-0.926,2.062-1.335c0.741-0.397,1.529-0.756,2.394-1.027c0.859-0.273,1.795-0.45,2.773-0.483
			c0.484-0.019,0.99,0.052,1.483,0.091c0.492,0.085,0.981,0.223,1.466,0.35l-0.737-0.133c0.517,0.025,0.707,0.073,1.023,0.129
			c0.274,0.063,0.556,0.122,0.813,0.209c0.523,0.16,1.021,0.363,1.493,0.605c0.958,0.473,1.769,1.126,2.517,1.815
			c0.713,0.715,1.349,1.489,1.841,2.315c0.519,0.818,0.899,1.673,1.254,2.525c0.313,0.858,0.591,1.726,0.767,2.588
			c0.23,0.866,0.314,1.724,0.446,2.582l0.054,0.446l0.012,0.298l0.023,0.591l0.056,1.168l0.117,2.354L63,438.524
			c0.117,1.565,0.16,3.155,0.305,4.718l0.155,2.367c0.057,0.789,0.179,1.561,0.239,2.354c0.074,0.787,0.113,1.592,0.271,2.359
			c0.111,0.784,0.243,1.571,0.341,2.383c-0.382-0.701-0.729-1.429-1.1-2.157c-0.376-0.731-0.631-1.492-0.924-2.248
			c-0.587-1.518-1.053-3.064-1.497-4.617c-0.225-0.778-0.438-1.559-0.615-2.341l-0.549-2.354c-0.318-1.575-0.648-3.151-0.901-4.739
			c-0.128-0.794-0.272-1.582-0.378-2.385l-0.168-1.203l-0.08-0.595l-0.039-0.295l-0.002-0.02l-0.001-0.009
			c0.006,0.055-0.015-0.133,0.013,0.118l-0.008-0.033l-0.016-0.065l-0.031-0.132c-0.172-0.698-0.275-1.426-0.511-2.082
			c-0.18-0.688-0.451-1.313-0.694-1.941c-0.284-0.599-0.573-1.19-0.93-1.699c-0.345-0.522-0.735-0.973-1.144-1.382
			c-0.428-0.37-0.862-0.729-1.344-0.946c-0.235-0.112-0.474-0.22-0.708-0.294c-0.117-0.046-0.229-0.062-0.338-0.096
			c-0.073-0.018-0.272-0.042-0.154-0.036l-0.737-0.133c-0.211-0.038-0.411-0.109-0.621-0.155c-0.222-0.001-0.428-0.058-0.657-0.047
			c-0.454,0.008-0.941,0.06-1.453,0.203c-0.512,0.136-1.041,0.351-1.574,0.604c-0.538,0.252-1.071,0.566-1.607,0.897
			c-2.125,1.405-4.169,3.25-6.093,5.238c-1.938,1.984-3.79,4.118-5.617,6.299c-0.931,1.082-1.801,2.209-2.717,3.317L28.414,440.761z
			"/>
	</g>
	<g>
		<path fill="#1C110B" d="M46.365,534.992c-1.798,4.87-3.16,9.848-4.361,14.845c-0.563,2.51-1.143,5.008-1.604,7.53
			c-0.483,2.518-0.877,5.049-1.272,7.575c-0.376,2.53-0.698,5.067-0.945,7.61c-0.142,1.27-0.241,2.543-0.354,3.813
			c-0.123,1.271-0.21,2.543-0.276,3.817c-0.188,2.545-0.264,5.096-0.338,7.644l-0.056,3.823c-0.012,1.274,0.03,2.55,0.044,3.823
			c-0.001,1.273,0.042,2.549,0.101,3.821c0.063,1.272,0.075,2.548,0.176,3.818c0.168,2.543,0.316,5.088,0.6,7.623
			c0.208,2.541,0.565,5.067,0.868,7.602c0.393,2.52,0.714,5.056,1.187,7.563c0.459,2.513,0.886,5.034,1.462,7.526
			c0.267,1.25,0.494,2.512,0.793,3.756l0.905,3.732l0.453,1.869l0.518,1.853l0.996,3.721c0.682,2.478,1.498,4.913,2.205,7.394
			l-0.054-0.12c0.103,0.235,0.265,0.544,0.419,0.812c0.161,0.273,0.328,0.547,0.511,0.809c0.36,0.525,0.765,1.017,1.21,1.449
			c0.223,0.217,0.456,0.421,0.702,0.6c0.244,0.183,0.498,0.349,0.765,0.478c0.265,0.138,0.538,0.255,0.821,0.331
			c0.282,0.086,0.575,0.139,0.872,0.149c0.297,0.021,0.602,0.006,0.904-0.053c0.306-0.04,0.604-0.142,0.907-0.239
			c0.295-0.123,0.597-0.245,0.878-0.416c0.296-0.146,0.561-0.353,0.846-0.529c0.547-0.393,1.065-0.839,1.558-1.322
			c0.488-0.485,0.949-1.004,1.407-1.531c-0.349,0.604-0.71,1.203-1.125,1.773c-0.414,0.57-0.869,1.117-1.377,1.629
			c-0.52,0.501-1.097,0.959-1.756,1.325c-0.337,0.168-0.681,0.34-1.055,0.448c-0.365,0.124-0.758,0.205-1.152,0.233
			c-0.396,0.041-0.802,0.028-1.196-0.029c-0.398-0.053-0.792-0.146-1.162-0.289c-0.377-0.131-0.732-0.307-1.07-0.501
			c-0.342-0.19-0.662-0.411-0.968-0.645c-0.612-0.468-1.162-0.996-1.658-1.563c-0.25-0.282-0.483-0.576-0.712-0.878
			c-0.229-0.312-0.432-0.597-0.655-0.974l-0.011-0.018l-0.043-0.104c-1.004-2.401-2.012-4.811-2.948-7.247
			c-0.885-2.453-1.854-4.889-2.587-7.396l-1.175-3.744c-0.39-1.249-0.708-2.519-1.064-3.778c-0.705-2.522-1.28-5.077-1.849-7.638
			c-0.302-1.276-0.523-2.568-0.766-3.855c-0.233-1.29-0.497-2.576-0.695-3.872c-0.356-2.6-0.803-5.188-1.035-7.804
			c-0.302-2.606-0.488-5.227-0.657-7.847c-0.096-1.31-0.102-2.624-0.155-3.935c-0.05-1.313-0.089-2.624-0.075-3.938
			c0.013-1.313-0.003-2.626,0.035-3.938l0.138-3.937c0.167-2.62,0.325-5.24,0.618-7.848c0.129-1.307,0.28-2.608,0.468-3.907
			c0.178-1.299,0.332-2.601,0.574-3.891c0.426-2.587,0.927-5.16,1.481-7.721c0.549-2.561,1.204-5.097,1.931-7.608
			c0.712-2.518,1.498-5.013,2.39-7.469c0.901-2.451,1.824-4.894,2.908-7.268C43.869,539.563,45.02,537.219,46.365,534.992z"/>
	</g>
</g>
<g>
	<path fill="none" stroke="#1C110B" stroke-width="5" stroke-miterlimit="10" d="M419.573,496.23c0,0,6.024-7.031,9.038-32.639
		c3.013-25.607,12.218-13.058,11.549-38.495c-0.669-25.439,16.401-19.75,23.433-8.201c7.028,11.549,42.01,23.432,29.961,127.204
		c0,0,7.026,39.498-11.048,127.536c0,0-7.541,58.583-24.692,59.919c0,0-4.433,6.021-10.458-14.731
		c-6.024-20.753-12.382-43.517-18.743-57.576c-6.359-14.058-20.421-78.999-13.391-116.488c0,0-8.193-21.088-1.92-33.81
		L419.573,496.23z"/>
	<path fill="none" stroke="#1C110B" stroke-width="5" stroke-miterlimit="10" d="M415.221,542.759c0,0,29.018-16.066,38.275-16.401
		s12.407,5.182,40.457,14.14"/>
	<g>
		<path fill="#1C110B" d="M443.171,433.969c0,0,0.005-0.202,0.056-0.579c0.059-0.372,0.123-0.935,0.314-1.619
			c0.181-0.689,0.427-1.534,0.863-2.454c0.406-0.936,1.005-1.959,1.877-2.98c0.857-1.021,2.117-2.016,3.748-2.579
			c0.202-0.072,0.406-0.153,0.616-0.214l0.651-0.113c0.438-0.068,0.893-0.164,1.339-0.132l0.683,0.012l0.345,0.014l0.175,0.009
			l0.32,0.065c0.354,0.072,0.709,0.144,1.068,0.217c0.739,0.187,1.842,0.614,2.576,0.988c0.747,0.393,1.529,0.786,2.2,1.27l1.05,0.7
			c0.331,0.247,0.658,0.5,0.98,0.76c0.665,0.507,1.281,1.048,1.895,1.592c1.214,1.104,2.363,2.248,3.413,3.438
			c0.543,0.58,1.052,1.177,1.534,1.782c0.491,0.597,0.98,1.184,1.42,1.792c0.915,1.187,1.728,2.384,2.486,3.523
			c0.735,1.156,1.415,2.257,1.992,3.305c1.176,2.081,1.996,3.908,2.529,5.203c0.521,1.303,0.765,2.071,0.765,2.071
			s-0.612-0.538-1.591-1.518c-1.007-0.962-2.388-2.36-4.026-4.025c-1.613-1.657-3.498-3.593-5.517-5.666
			c-1-1.025-2.042-2.075-3.102-3.117c-0.527-0.526-1.068-1.047-1.609-1.558c-0.539-0.517-1.079-1.039-1.643-1.517
			c-0.545-0.504-1.092-1.004-1.658-1.45l-0.831-0.699l-0.843-0.631c-0.559-0.447-1.119-0.778-1.669-1.152
			c-0.296-0.215-0.495-0.278-0.73-0.418c-0.114-0.062-0.226-0.13-0.338-0.2l-0.168-0.106c-0.072-0.033-0.17-0.061-0.254-0.091
			c-0.348-0.12-0.69-0.238-1.031-0.356l-0.063-0.021l-0.031-0.012c0.076,0.018-0.194-0.044,0.169,0.035l-0.013-0.001l-0.095-0.014
			l-0.188-0.031l-0.376-0.078c-0.257-0.083-0.496-0.051-0.742-0.063l-0.37-0.016l-0.36,0.053c-0.965,0.112-1.934,0.504-2.77,1.091
			c-0.835,0.577-1.616,1.222-2.228,1.895c-0.614,0.666-1.151,1.289-1.559,1.832C443.61,433.282,443.171,433.969,443.171,433.969z"/>
	</g>
</g>
<g>
	<path fill="none" stroke="#1C110B" stroke-width="5" stroke-miterlimit="10" d="M220.087,135.067c0,0,1.004-24.104-6.696-49.543
		c-7.701-25.439-9.372-61.594,19.75-67.283c0,0,15.396-16.401,23.098-14.728c7.696,1.673,37.49,9.373,33.807,40.169
		c-3.68,30.795,1.338,18.742-4.018,43.516c-5.354,24.771-5.691,47.201-6.025,62.933c-0.333,15.732,3.351,44.854-12.384,96.07
		c0,0-21.757,78.331-36.151,81.008c0,0-12.718,1.002-1.004-42.849c0,0,0-16.403-3.012-27.114
		C224.436,246.535,217.407,157.159,220.087,135.067z"/>
	<path fill="none" stroke="#1C110B" stroke-width="5" stroke-miterlimit="10" d="M220.031,127.052c0,0,32.989,34.246,60.959-2.972"
		/>
	<g>
		<path fill="#1C110B" d="M235.094,16.68c0,0,0.167,0.279,0.458,0.769c0.282,0.483,0.659,1.172,1.094,2.004
			c0.864,1.667,1.914,3.933,2.744,6.278c0.42,1.169,0.764,2.369,1.044,3.494c0.115,0.568,0.227,1.12,0.331,1.642
			c0.067,0.526,0.131,1.024,0.189,1.483c0.021,0.46,0.039,0.883,0.056,1.257c0.03,0.369-0.018,0.697-0.029,0.962
			c-0.036,0.527-0.057,0.828-0.057,0.828s-0.057-0.295-0.157-0.813c-0.056-0.256-0.09-0.566-0.213-0.913
			c-0.107-0.343-0.229-0.729-0.362-1.152c-0.167-0.408-0.347-0.852-0.537-1.319c-0.224-0.452-0.459-0.927-0.702-1.42
			c-0.533-0.963-1.131-1.964-1.797-2.925c-0.66-0.963-1.355-1.898-2.048-2.745c-0.682-0.853-1.355-1.617-1.937-2.263
			c-0.588-0.641-1.085-1.163-1.438-1.513c-0.348-0.339-0.546-0.532-0.546-0.532L235.094,16.68z"/>
	</g>
	<g>
		<path fill="#1C110B" d="M277.87,11.888c0,0-0.442,1.13-1.075,2.883c-0.63,1.745-1.447,4.085-2.177,6.451
			c-0.733,2.363-1.378,4.756-1.719,6.577c-0.086,0.456-0.168,0.875-0.206,1.248c-0.04,0.373-0.104,0.704-0.104,0.973
			c-0.021,0.545-0.033,0.856-0.033,0.856s-0.066-0.307-0.182-0.844c-0.068-0.271-0.086-0.603-0.142-0.987
			c-0.058-0.385-0.082-0.816-0.112-1.292c-0.124-1.897-0.093-4.436,0.034-6.964c0.124-2.528,0.341-5.049,0.522-6.94
			c0.181-1.884,0.339-3.164,0.339-3.164L277.87,11.888z"/>
	</g>
</g>
<g>
	<path fill="none" stroke="#1C110B" stroke-width="5" stroke-miterlimit="10" d="M206.98,613.796c0,0-4.017-19.332,13.89-30.882
		c23.023-14.847,17.073-21.088,38.831-3.348c21.759,17.741,35.483,13.055,32.136,47.199c-3.349,34.143-14.729,48.536-12.723,83.015
		c2.01,34.479,1.675,61.929-5.689,91.052c-7.363,29.122,0,69.625-1.004,76.99c0,0-1.34,40.838-19.414,0
		c-18.077-40.839-14.395-62.932-20.419-77.994c-6.025-15.063-12.553-71.301-13.057-116.489
		C211.812,619.371,208.653,620.493,206.98,613.796z"/>
	<g>
		<path fill="#1C110B" d="M221.539,590.279c0.016,0.011-0.384-0.127-0.903,0.166c-0.528,0.277-0.886,1.104-0.944,2.231
			c-0.056,1.131,0.08,2.52,0.365,4.114c0.121,0.794,0.354,1.644,0.539,2.526c0.226,0.887,0.463,1.818,0.711,2.79
			c0.286,0.967,0.583,1.973,0.893,3.015c0.328,1.038,0.668,2.11,1.017,3.215c0.71,2.221,1.452,4.625,2.146,7.081
			c0.706,2.465,1.401,5.014,2.079,7.605c0.671,2.589,1.354,5.22,2.034,7.851c0.669,2.624,1.338,5.248,1.997,7.831
			c0.674,2.574,1.327,5.105,2,7.537c1.342,4.863,2.708,9.354,4.191,13.032c0.776,1.814,1.549,3.454,2.422,4.746
			c0.876,1.28,1.815,2.261,2.795,2.692c0.973,0.437,1.907,0.369,2.506,0.199c0.304-0.076,0.535-0.158,0.688-0.223
			c0.155-0.061,0.235-0.091,0.235-0.091c-0.011-0.019-0.241,0.251-0.814,0.58c-0.556,0.318-1.564,0.755-2.906,0.484
			c-1.33-0.251-2.738-1.155-3.975-2.42c-1.264-1.256-2.425-2.854-3.513-4.673c-1.09-1.814-2.14-3.841-3.104-6.029
			c-0.971-2.188-1.893-4.525-2.754-6.968c-0.864-2.44-1.689-4.979-2.446-7.576c-0.777-2.591-1.478-5.241-2.166-7.892
			c-0.663-2.655-1.311-5.312-1.895-7.934c-0.598-2.617-1.146-5.199-1.667-7.695c-0.514-2.496-1.011-4.908-1.482-7.196
			c-0.216-1.171-0.45-2.303-0.633-3.407c-0.156-1.11-0.309-2.187-0.453-3.218c-0.099-1.046-0.225-2.037-0.283-2.99
			c-0.021-0.967-0.089-1.861-0.06-2.728c-0.007-1.714,0.214-3.239,0.563-4.457c0.317-1.222,1.09-2.152,1.81-2.305
			C221.234,590.02,221.546,590.305,221.539,590.279z"/>
	</g>
	<g>
		<path fill="#1C110B" d="M255.349,595.302c0.188,1.55,0.352,3.095,0.499,4.638c0.172,1.544,0.283,3.084,0.434,4.623
			c0.158,1.539,0.257,3.076,0.393,4.612l0.388,4.603l0.743,9.18c0.247,3.053,0.506,6.1,0.803,9.135
			c0.14,1.519,0.29,3.035,0.467,4.545c0.155,1.513,0.329,3.021,0.532,4.522c0.38,3.007,0.826,5.994,1.409,8.93
			c0.575,2.93,1.279,5.834,2.326,8.509c0.539,1.324,1.154,2.597,1.939,3.68c0.801,1.068,1.775,1.866,2.958,2.236l-0.098-0.011
			c0.104,0.021,0.293,0.043,0.452,0.053c0.166,0.014,0.336,0.018,0.507,0.019c0.343,0.004,0.688-0.02,1.034-0.053
			c0.345-0.041,0.687-0.104,1.031-0.172c0.34-0.08,0.688-0.16,1.017-0.287c0.342-0.104,0.656-0.268,0.987-0.415
			c0.306-0.184,0.636-0.347,0.928-0.564c0.313-0.198,0.591-0.439,0.872-0.688c0.285-0.245,0.522-0.538,0.798-0.812
			c-0.172,0.337-0.313,0.708-0.531,1.028c-0.209,0.329-0.425,0.662-0.688,0.96c-0.239,0.324-0.546,0.579-0.836,0.863
			c-0.315,0.248-0.627,0.516-0.977,0.727c-0.338,0.232-0.702,0.421-1.069,0.606c-0.371,0.183-0.76,0.323-1.151,0.456
			c-0.396,0.121-0.797,0.229-1.209,0.31c-0.205,0.04-0.413,0.077-0.625,0.104c-0.22,0.028-0.409,0.051-0.685,0.058l-0.099-0.012
			c-0.929-0.081-1.852-0.355-2.669-0.795c-0.824-0.437-1.519-1.013-2.169-1.616c-1.252-1.24-2.22-2.65-3.012-4.104
			c-1.592-2.912-2.602-5.979-3.452-9.044c-0.819-3.075-1.422-6.176-1.891-9.28c-0.466-3.107-0.79-6.22-1.027-9.332
			c-0.227-3.113-0.354-6.228-0.406-9.338c-0.029-3.111,0-6.221,0.135-9.324c0.057-1.552,0.158-3.104,0.271-4.653
			c0.115-1.55,0.211-3.098,0.387-4.645c0.168-1.546,0.315-3.091,0.543-4.633C254.814,598.375,255.049,596.834,255.349,595.302z"/>
	</g>
	<path fill="none" stroke="#1C110B" stroke-width="5" stroke-miterlimit="10" d="M219.531,683.339c0,0,33.03,41.157,60.146,4.672"/>
</g>
<g>
	<path fill="none" stroke="#1C110B" stroke-width="5" stroke-miterlimit="10" d="M249.382,407.495c0,0,8.896-1.152,23.289,18.209
		c14.393,19.361,21.422,7.311,16.067,35.43c-5.356,28.118-29.119,37.488-39.163,36.819c-10.046-0.668-40.979-20.621-41.176-47.533
		c-0.07-9.958,11.149-15.478,16.947-23.098C233.067,417.174,234.261,406.484,249.382,407.495z"/>
	<g>
		<path fill="#1C110B" d="M225.725,435.607c0,0-0.237,0.157-0.655,0.471c-0.399,0.313-1.052,0.802-1.549,1.499
			c-0.124,0.167-0.213,0.363-0.23,0.513c-0.004,0.07-0.025,0.145,0.019,0.177c0.013,0.02,0.012,0.037,0.021,0.055
			c0.027,0.019,0.051,0.033,0.067,0.049c0.169,0.136,0.611,0.396,1.204,0.523c0.328,0.096,0.666,0.196,1.015,0.298
			c0.349,0.104,0.752,0.271,1.146,0.417c0.747,0.302,1.488,0.657,2.242,0.999c1.501,0.695,3.05,1.365,4.664,1.695
			c1.615,0.313,3.295,0.26,5.037-0.164c0.435-0.106,0.871-0.211,1.311-0.383c0.439-0.164,0.886-0.272,1.325-0.493
			c0.961-0.423,1.934-0.852,2.915-1.282c2.296-0.928,4.75-1.533,7.338-1.604c2.586-0.048,5.137,0.539,7.345,1.378
			c2.232,0.822,4.17,1.852,6.018,2.759c0.896,0.436,1.776,0.865,2.64,1.285c0.511,0.229,0.809,0.335,1.183,0.465
			c0.397,0.128,0.803,0.229,1.208,0.326c1.636,0.344,3.312,0.415,4.857,0.291c3.1-0.23,5.74-1.067,7.213-2.077
			c0.716-0.516,1.076-1.107,0.858-1.558c-0.188-0.438-0.474-0.607-0.45-0.617c-0.019,0.027,0.294,0.04,0.697,0.47
			c0.212,0.209,0.336,0.638,0.252,1.086c-0.077,0.453-0.328,0.901-0.659,1.328c-0.675,0.84-1.668,1.664-2.924,2.375
			c-1.25,0.722-2.749,1.39-4.487,1.848c-1.733,0.467-3.711,0.731-5.869,0.584c-0.54-0.04-1.088-0.113-1.644-0.22
			c-0.575-0.115-1.231-0.289-1.655-0.424c-1.106-0.361-2.004-0.721-3.017-1.108c-1.97-0.77-3.925-1.612-5.827-2.237
			c-1.913-0.607-3.773-1.01-5.647-0.957c-1.869,0.024-3.798,0.48-5.594,1.09c-0.511,0.196-1.021,0.393-1.526,0.588
			c-0.531,0.193-1.061,0.388-1.587,0.58c-0.542,0.222-1.143,0.345-1.71,0.508c-0.563,0.174-1.163,0.256-1.752,0.346
			c-2.351,0.37-4.798,0.146-6.866-0.575c-2.068-0.736-3.712-1.834-5.091-2.808c-0.668-0.478-1.309-0.935-1.917-1.369
			c-0.289-0.188-0.534-0.381-0.848-0.56c-0.315-0.18-0.621-0.353-0.917-0.521c-0.34-0.186-0.667-0.366-0.984-0.64
			c-0.154-0.113-0.308-0.245-0.448-0.439c-0.138-0.177-0.271-0.332-0.349-0.594c-0.042-0.118-0.078-0.236-0.108-0.349
			c-0.011-0.122-0.002-0.249,0.005-0.369c0-0.255,0.096-0.438,0.182-0.619c0.181-0.344,0.413-0.57,0.629-0.744
			c0.87-0.699,1.64-0.878,2.138-1.075C225.447,435.659,225.725,435.607,225.725,435.607z"/>
	</g>
	<g>
		<path fill="#1C110B" d="M244.951,440.593c0,0,0.074-0.182,0.206-0.496c0.126-0.287,0.297-0.743,0.5-1.302
			c0.396-1.114,0.886-2.642,1.272-4.207c0.188-0.782,0.396-1.573,0.521-2.321c0.131-0.747,0.3-1.455,0.358-2.063
			c0.155-1.227,0.258-2.045,0.258-2.045s0.209,0.805,0.522,2.009c0.176,0.609,0.281,1.326,0.442,2.102
			c0.169,0.777,0.271,1.609,0.395,2.451c0.233,1.682,0.354,3.389,0.404,4.687c0.021,0.646,0.033,1.194,0.021,1.605
			c-0.005,0.382-0.007,0.601-0.007,0.601L244.951,440.593z"/>
	</g>
	<g>
		<path fill="#1C110B" d="M255.774,443.394c-0.017-0.009-0.002-0.009-0.147-0.106c-0.133-0.083-0.296-0.192-0.478-0.338
			c-0.157-0.128-0.422-0.363-0.514-0.499c-0.169-0.25-0.363-0.56-0.559-0.916c-0.125-0.315-0.234-0.656-0.354-1.03
			c-0.146-0.387-0.157-0.736-0.224-1.128c-0.045-0.385-0.134-0.797-0.138-1.193c-0.003-0.395-0.007-0.8-0.01-1.214
			c0.007-0.408-0.023-0.824,0.029-1.225c0.076-0.796,0.15-1.593,0.223-2.339c0.028-0.369,0.112-0.721,0.162-1.055
			c0.058-0.333,0.111-0.647,0.161-0.938c0.2-1.15,0.334-1.916,0.334-1.916s0.179,0.756,0.447,1.889
			c0.065,0.281,0.14,0.584,0.216,0.906c0.084,0.318,0.141,0.659,0.257,1c0.217,0.673,0.447,1.392,0.678,2.11
			c0.1,0.362,0.272,0.686,0.407,1.015c0.143,0.321,0.28,0.639,0.414,0.945c0.133,0.305,0.316,0.533,0.454,0.776
			c0.149,0.225,0.269,0.488,0.418,0.596c0.128,0.131,0.246,0.251,0.351,0.358c0.089,0.011,0.142,0.021,0.177,0.035
			c0.027,0.027-0.035-0.063-0.064-0.096c-0.037-0.043-0.077-0.079-0.116-0.111c-0.08-0.064-0.157-0.105-0.222-0.132
			c0.006-0.006,0.112,0.025,0.094,0.021L255.774,443.394z"/>
	</g>
</g>
</svg>
