<?xml version="1.0" encoding="utf-8"?>
<!-- Generator: Adobe Illustrator 16.0.0, SVG Export Plug-In . SVG Version: 6.00 Build 0)  -->
<!DOCTYPE svg PUBLIC "-//W3C//DTD SVG 1.1//EN" "http://www.w3.org/Graphics/SVG/1.1/DTD/svg11.dtd">
<svg version="1.1" id="Layer_3" xmlns="http://www.w3.org/2000/svg" xmlns:xlink="http://www.w3.org/1999/xlink" x="0px" y="0px"
	 width="500px" height="900px" viewBox="0 0 500 900" enable-background="new 0 0 500 900" xml:space="preserve">
<g>
	<path fill="none" stroke="#1C110B" stroke-width="5" stroke-miterlimit="10" d="M200.237,74.784c0,0-19.798-33.549,18.484-53.141
		c30.427-15.573,24.094-33.668,69.645,8.25c0,0,24.425,8.252,9.571,54.134c-14.854,45.879-5.28,9.572-13.202,69.645
		s-5.941,109.254-28.717,168.008c0,0-3.632,17.822-15.514,14.522s-6.931-22.116-5.941-30.697c0.99-8.582-9.9-79.876-13.202-97.371
		c-3.302-17.495-6.272-63.045-7.262-85.821C213.108,99.538,200.237,74.784,200.237,74.784z"/>
	<path fill="none" stroke="#1C110B" stroke-width="5" stroke-miterlimit="10" d="M214.344,127.599c0,0,18.24,9.236,29.792,8.577
		c11.552-0.659,21.855-0.516,43.77-10.49"/>
	<g>
		<path fill="#1C110B" d="M221.162,21.104c0,0,0.421,2.601,1.054,6.501c0.324,1.946,0.702,4.218,1.107,6.651
			c0.392,2.438,0.881,5.022,1.333,7.616c0.461,2.594,0.922,5.188,1.354,7.619c0.483,2.42,0.933,4.679,1.319,6.615
			c0.775,3.879,1.292,6.465,1.292,6.465s-0.819-2.506-2.047-6.265c-0.615-1.883-1.332-4.08-2.1-6.434
			c-0.718-2.367-1.484-4.893-2.25-7.418c-0.758-2.528-1.553-5.05-2.232-7.43c-0.693-2.378-1.339-4.598-1.894-6.5
			c-1.091-3.805-1.819-6.342-1.819-6.342L221.162,21.104z"/>
	</g>
	<g>
		<path fill="#1C110B" d="M276.384,17.003c0,0-0.002,0.641-0.007,1.763c-0.015,1.126-0.034,2.735-0.058,4.666
			c-0.025,1.925-0.082,4.172-0.159,6.577c-0.053,2.404-0.19,4.972-0.299,7.533c-0.109,2.563-0.318,5.126-0.463,7.523
			c-0.074,1.199-0.216,2.358-0.313,3.456c-0.105,1.096-0.205,2.133-0.298,3.089c-0.078,0.957-0.251,1.829-0.351,2.603
			c-0.113,0.772-0.212,1.445-0.293,2c-0.163,1.105-0.256,1.737-0.256,1.737s0.016-0.64,0.042-1.759
			c0.013-0.558,0.029-1.236,0.047-2.014c0.005-0.778,0.07-1.648,0.03-2.606c-0.024-0.957-0.052-1.993-0.08-3.088
			c-0.038-1.095-0.038-2.246-0.111-3.44c-0.148-2.389-0.252-4.93-0.455-7.471c-0.204-2.542-0.378-5.08-0.617-7.458
			c-0.216-2.378-0.432-4.595-0.64-6.494c-0.209-1.894-0.384-3.472-0.505-4.576c-0.132-1.107-0.206-1.741-0.206-1.741L276.384,17.003
			z"/>
	</g>
</g>
<g>
	<path fill="none" stroke="#1C110B" stroke-width="5" stroke-miterlimit="10" d="M26.061,417.124c0,0,21.786-38.124,36.638-7.427
		c14.854,30.697,9.408,12.873,17.825,26.984c0,0,3.713,7.922,8.911,9.902c0,0,11.388-2.724,14.111,14.111
		c2.724,16.833,7.922,20.547-9.901,60.898c0,0,0.247,91.101-21.043,167.843c0,0-5.612,23.93-19.64,34.163
		c0,0-26.24,11.551-31.356-38.124C16.489,635.8,4.498,646.361,8.761,522.584c0,0-7.287-56.113,1.953-77.897
		C19.955,422.902,21.381,426.267,26.061,417.124z"/>
	<path fill="none" stroke="#1C110B" stroke-width="5" stroke-miterlimit="10" d="M8.761,522.584c0,0,21.427-14.523,44.203-13.533
		c22.775,0.99,31.846,17.824,40.678,13.533"/>
	<g>
		<path fill="#1C110B" d="M56.219,410.688c0,0-0.253,1.195-0.42,3.268c-0.04,0.518-0.088,1.087-0.087,1.71
			c-0.019,0.62-0.03,1.285-0.001,1.994c0.026,1.417,0.232,2.991,0.53,4.651c0.23,0.815,0.355,1.684,0.708,2.514
			c0.146,0.419,0.295,0.847,0.447,1.28c0.197,0.411,0.397,0.828,0.601,1.25l0.3,0.635c0.11,0.208,0.249,0.402,0.372,0.605
			c0.25,0.402,0.503,0.809,0.76,1.22c0.273,0.398,0.616,0.756,0.913,1.147c0.323,0.373,0.578,0.799,0.974,1.124
			c0.76,0.667,1.401,1.457,2.29,2.032c0.417,0.312,0.835,0.625,1.256,0.94c0.421,0.321,0.953,0.653,1.427,0.982
			c1.958,1.304,3.937,2.693,5.907,4.12c1.952,1.459,3.917,2.991,5.715,4.767c1.813,1.752,3.412,3.813,4.586,5.953
			c1.183,2.139,1.991,4.298,2.622,6.328c0.294,1.02,0.588,2.006,0.817,2.967c0.111,0.48,0.221,0.952,0.328,1.416
			c0.049,0.215,0.097,0.429,0.145,0.64c0.056,0.228,0.111,0.452,0.165,0.675c0.444,1.802,0.734,3.446,0.928,4.935
			c0.225,1.474,0.284,2.789,0.307,3.862c-0.006,0.543-0.018,1.022-0.038,1.438c-0.012,0.415-0.114,0.775-0.15,1.057
			c-0.105,0.558-0.162,0.855-0.162,0.855s-0.043-0.301-0.125-0.864c-0.05-0.279-0.053-0.613-0.165-1.008
			c-0.11-0.394-0.224-0.843-0.345-1.341c-0.287-0.996-0.685-2.187-1.179-3.541c-0.492-1.348-1.121-2.866-1.791-4.477
			c-0.735-1.724-1.434-3.446-2.257-5.286c-0.821-1.817-1.759-3.65-2.892-5.358c-1.132-1.712-2.514-3.257-4.132-4.732
			c-1.628-1.461-3.447-2.879-5.345-4.263c-1.918-1.4-3.836-2.801-5.724-4.179c-0.48-0.362-0.94-0.662-1.431-1.071
			c-0.491-0.415-0.979-0.827-1.463-1.237c-1.009-0.765-1.795-1.789-2.625-2.701c-0.434-0.441-0.733-0.998-1.087-1.493
			c-0.333-0.512-0.691-1-0.972-1.526c-0.259-0.538-0.515-1.07-0.769-1.596c-0.121-0.264-0.257-0.52-0.362-0.785
			c-0.089-0.272-0.178-0.543-0.266-0.812c-0.171-0.536-0.34-1.063-0.506-1.584c-0.104-0.533-0.206-1.058-0.306-1.573
			c-0.232-1.023-0.22-2.039-0.314-2.987c-0.005-0.956-0.015-1.867,0.067-2.724c0.112-0.856,0.174-1.664,0.345-2.407
			c0.139-0.746,0.275-1.438,0.476-2.062c0.166-0.629,0.367-1.193,0.543-1.7c0.347-1.015,0.726-1.772,0.969-2.287
			C56.058,410.945,56.219,410.688,56.219,410.688z"/>
	</g>
	<g>
		<path fill="#1C110B" d="M79.21,453.442c0.003-0.012,0.01-0.005,0.054-0.114c0.042-0.107,0.105-0.254,0.179-0.384
			c0.148-0.288,0.374-0.661,0.671-1.081c0.299-0.419,0.676-0.881,1.127-1.325c0.454-0.443,0.976-0.872,1.551-1.208
			c0.563-0.346,1.175-0.597,1.75-0.739c0.278-0.09,0.565-0.117,0.824-0.152c0.257-0.044,0.502-0.045,0.726-0.037
			c0.442-0.011,0.797,0.054,1.042,0.098c0.24,0.041,0.377,0.064,0.377,0.064s-0.129,0.054-0.354,0.149
			c-0.222,0.091-0.534,0.219-0.863,0.443c-0.168,0.098-0.342,0.211-0.504,0.362c-0.165,0.143-0.339,0.274-0.484,0.458
			c-0.308,0.331-0.57,0.72-0.759,1.135c-0.398,0.811-0.513,1.713-0.53,2.354c-0.004,0.323,0.012,0.587,0.039,0.751
			c0.008,0.096,0.029,0.129,0.043,0.144c0.014,0.012,0.011,0.085,0.013,0.073L79.21,453.442z"/>
	</g>
	<g>
		<path fill="#1C110B" d="M72.405,446.459c0,0-0.1-0.252-0.275-0.694c-0.193-0.472-0.43-1.128-0.681-1.896
			c-0.277-0.766-0.507-1.689-0.795-2.651c-0.116-0.491-0.236-0.998-0.358-1.513c-0.111-0.517-0.259-1.025-0.333-1.56
			c-0.153-1.066-0.4-2.088-0.452-3.094c-0.065-0.999-0.199-1.902-0.179-2.696c0.031-1.563,0.051-2.606,0.051-2.606
			s0.288,0.99,0.719,2.475c0.207,0.732,0.603,1.553,0.94,2.432c0.322,0.883,0.856,1.771,1.282,2.669
			c0.209,0.451,0.493,0.877,0.735,1.305c0.25,0.422,0.497,0.838,0.735,1.24c0.528,0.778,0.975,1.518,1.426,2.108
			c0.434,0.609,0.797,1.085,1.051,1.39c0.271,0.335,0.427,0.527,0.427,0.527L72.405,446.459z"/>
	</g>
</g>
<g>
	<path fill="none" stroke="#1C110B" stroke-width="5" stroke-miterlimit="10" d="M451.678,395.056
		c12.194-0.749,14.525,10.231,23.437,26.405C484.027,437.636,496,442.587,496,477.246c0,34.657-6.365,167.345-24.849,224.777
		c0,0-5.775,16.34-19.474,18.32c0,0-12.214-0.99-19.641-21.29s-8.417-20.794-9.901-36.144c-1.485-15.348-0.991-45.55-3.467-52.977
		s-14.853-59.908-13.862-89.12c0,0-5.446-16.834-10.893-38.619c0,0-5.941-25.251,13.615-39.609c0,0,5.447-1.238,8.913,1.485
		c0,0,5.693-12.378,11.387-17.329S431.462,396.296,451.678,395.056z"/>
	<path fill="none" stroke="#1C110B" stroke-width="5" stroke-miterlimit="10" d="M406.044,520.813c0,0,3.219,1.979,17.082-3.962
		c13.862-5.94,30.227-8.375,50.749,0c0,0,13.306,5.695,22.125-4.455"/>
	<g>
		<path fill="#1C110B" d="M418.323,442.422c0,0,0.158,0.188,0.456,0.542c0.306,0.359,0.781,0.883,1.401,1.531
			c0.625,0.645,1.407,1.401,2.338,2.209c0.936,0.789,2.033,1.627,3.258,2.293l0.464,0.253l0.469,0.194
			c0.157,0.063,0.318,0.143,0.477,0.197l0.468,0.126c0.327,0.125,0.604,0.101,0.908,0.155c0.161,0.044,0.273-0.021,0.413-0.02
			l0.205-0.013l0.104-0.003l0.014,0c0.041-0.012-0.321,0.107-0.158,0.053l0.042-0.014l0.083-0.028l0.334-0.113
			c0.04-0.026-0.006-0.024,0.004-0.021c-0.001,0.002,0,0.007,0.004,0.014l0.054-0.047c0.038-0.031,0.08-0.058,0.124-0.086
			c0.164-0.18,0.366-0.392,0.537-0.728c0.359-0.635,0.655-1.496,0.898-2.409c0.486-1.844,0.813-3.921,1.186-6.043
			c0.369-2.125,0.778-4.32,1.391-6.498c0.636-2.166,1.446-4.36,2.829-6.254c0.348-0.468,0.712-0.925,1.131-1.335
			c0.392-0.409,0.764-0.75,1.143-1.125c0.753-0.743,1.427-1.445,2.089-2.214c1.331-1.502,2.51-3.057,3.504-4.608
			c1.001-1.546,1.849-3.081,2.459-4.569c0.344-0.731,0.55-1.473,0.801-2.165c0.163-0.71,0.393-1.378,0.458-2.028
			c0.048-0.324,0.094-0.637,0.138-0.939c0.011-0.305,0.021-0.6,0.031-0.882c0.054-0.569-0.057-1.082-0.086-1.554
			c-0.155-0.924-0.352-1.655-0.587-2.106c-0.207-0.467-0.317-0.716-0.317-0.716s0.128,0.241,0.368,0.692
			c0.271,0.438,0.521,1.158,0.747,2.092c0.065,0.475,0.216,1,0.203,1.584c0.011,0.292,0.021,0.596,0.032,0.911
			c-0.022,0.314-0.047,0.639-0.071,0.976c-0.021,0.68-0.204,1.375-0.323,2.125c-0.204,0.726-0.366,1.513-0.664,2.288
			c-0.519,1.581-1.276,3.22-2.193,4.887c-0.91,1.672-2.009,3.36-3.272,5.013c-0.613,0.826-1.321,1.678-2.012,2.463
			c-0.342,0.39-0.721,0.793-1.037,1.178c-0.318,0.357-0.593,0.761-0.855,1.173c-1.047,1.664-1.646,3.674-2.087,5.714
			c-0.422,2.058-0.666,4.179-0.879,6.303c-0.221,2.125-0.391,4.247-0.791,6.393c-0.211,1.075-0.468,2.163-0.986,3.29
			c-0.242,0.558-0.619,1.139-1.086,1.682l-0.412,0.391l-0.215,0.188l-0.3,0.2c-0.194,0.123-0.437,0.26-0.605,0.341l-0.325,0.137
			l-0.081,0.033l-0.04,0.018l-0.199,0.063l-0.03,0.007l-0.241,0.049l-0.482,0.091c-0.317,0.043-0.654,0.139-0.949,0.111
			c-0.602-0.016-1.23-0.005-1.754-0.14c-0.271-0.056-0.542-0.109-0.81-0.163c-0.257-0.067-0.492-0.156-0.736-0.233
			c-0.24-0.082-0.479-0.164-0.715-0.244c-0.219-0.098-0.436-0.194-0.649-0.289c-1.71-0.777-3.069-1.687-4.228-2.525
			c-1.142-0.853-2.084-1.644-2.838-2.317c-0.75-0.678-1.322-1.226-1.708-1.617c-0.391-0.401-0.599-0.616-0.599-0.616
			L418.323,442.422z"/>
	</g>
</g>
<g>
	<path fill="none" stroke="#1C110B" stroke-width="5" stroke-miterlimit="10" d="M212.144,676.359c0,0,0-8.251-6.932-29.377
		c-6.932-21.125-19.146-49.84,13.863-63.374c0,0,2.64-0.329,10.562-7.921c7.922-7.594,20.797-19.805,39.28-2.971
		c0,0,13.863,9.24,17.824,10.23s24.094,16.836,12.542,50.173s-12.542,33.994-10.893,51.489c1.649,17.496-1.649-12.542-10.562,69.646
		c0,0-14.855,82.521-15.846,95.724c0,0-1.319,15.184,3.301,27.726c4.621,12.543-6.27,26.736-19.474,11.883
		C232.608,874.735,221.054,805.086,212.144,676.359z"/>
	<path fill="none" stroke="#1C110B" stroke-width="5" stroke-miterlimit="10" d="M212.144,676.359c0,0,14.358,17.824,32.182,19.309
		c17.824,1.486,30.598-11.387,44.263-8.912"/>
	<g>
		<path fill="#1C110B" d="M219.075,637.412c0,0,0.062-0.049,0.18-0.144c0.116-0.099,0.269-0.268,0.475-0.461
			c0.209-0.183,0.431-0.476,0.703-0.788c0.266-0.322,0.586-0.664,0.899-1.106c0.319-0.427,0.673-0.9,1.058-1.415
			c0.363-0.532,0.755-1.108,1.174-1.723c0.859-1.203,1.708-2.663,2.695-4.197c1.004-1.515,1.934-3.289,3.026-5.069
			c1.105-1.77,2.141-3.738,3.293-5.711c0.285-0.496,0.573-0.995,0.862-1.498l0.443-0.753l0.222-0.378l0.112-0.189l0.196-0.308
			c0.335-0.505,0.623-0.985,1.002-1.519c0.484-0.573,0.98-1.188,1.509-1.704c2.063-2.046,4.876-3.386,7.668-3.923
			c2.81-0.532,5.579-0.408,8.148,0.032c2.579,0.43,4.987,1.174,7.233,2.014c2.247,0.843,4.331,1.81,6.258,2.789
			c1.93,0.978,3.681,2.014,5.277,2.984c1.606,0.953,3.029,1.9,4.283,2.738c1.248,0.841,2.336,1.573,3.232,2.177
			c0.899,0.59,1.604,1.059,2.114,1.313c0.503,0.28,0.814,0.314,0.814,0.332c0.009-0.021-0.32,0.063-0.905-0.06
			c-0.584-0.11-1.433-0.324-2.462-0.693c-2.077-0.703-4.954-1.868-8.36-3.24c-1.708-0.675-3.556-1.392-5.506-2.104
			c-1.95-0.713-4.011-1.412-6.143-2.028c-2.132-0.614-4.344-1.128-6.56-1.426c-2.213-0.278-4.44-0.337-6.47,0.077
			c-2.037,0.382-3.837,1.237-5.299,2.537c-0.348,0.315-0.611,0.647-0.946,0.951c-0.346,0.421-0.708,0.947-1.059,1.411
			c-0.649,0.951-1.291,1.891-1.922,2.815c-1.329,1.919-2.581,3.785-3.933,5.463c-1.331,1.688-2.55,3.294-3.841,4.677
			c-0.629,0.699-1.215,1.38-1.799,2.004c-0.565,0.636-1.197,1.178-1.736,1.717c-0.56,0.524-1.047,1.04-1.563,1.464
			c-0.519,0.417-0.995,0.801-1.425,1.147c-0.413,0.356-0.84,0.623-1.201,0.854c-0.365,0.229-0.651,0.44-0.931,0.568
			C219.368,637.326,219.075,637.412,219.075,637.412z"/>
	</g>
	<g>
		<path fill="#1C110B" d="M248.338,608.37c0,0,0.087-0.46,0.24-1.265c0.176-0.817,0.308-1.92,0.515-3.276
			c0.1-0.677,0.208-1.411,0.322-2.188c0.13-0.774,0.22-1.605,0.289-2.472c0.16-1.732,0.33-3.58,0.5-5.428
			c0.079-0.926,0.186-1.854,0.239-2.769c0.029-0.915,0.057-1.815,0.084-2.688c0.055-1.749,0.105-3.382,0.149-4.78
			c0.087-2.811,0.145-4.684,0.145-4.684s0.254,1.854,0.635,4.637c0.191,1.396,0.414,3.025,0.652,4.771
			c0.119,0.876,0.242,1.781,0.368,2.7c0.101,0.922,0.149,1.861,0.227,2.801c0.142,1.885,0.284,3.771,0.416,5.538
			c0.077,0.884,0.129,1.743,0.13,2.569c0.018,0.825,0.033,1.604,0.048,2.324c0.022,1.437,0.072,2.668,0.035,3.472
			c-0.017,0.819-0.026,1.288-0.026,1.288L248.338,608.37z"/>
	</g>
	<g>
		<path fill="#1C110B" d="M271.404,614.954c0,0,0.236-0.173,0.649-0.475c0.398-0.293,0.971-0.716,1.659-1.262
			c0.696-0.528,1.477-1.182,2.323-1.88c0.851-0.695,1.701-1.488,2.59-2.262c0.422-0.405,0.843-0.811,1.258-1.209
			c0.41-0.404,0.835-0.792,1.213-1.19c0.742-0.816,1.436-1.578,2.03-2.23c1.079-1.413,1.799-2.354,1.799-2.354
			s-0.456,1.109-1.14,2.773c-0.415,0.806-0.899,1.745-1.418,2.752c-0.27,0.5-0.583,0.99-0.885,1.506
			c-0.309,0.513-0.622,1.033-0.937,1.554c-0.672,1.002-1.321,2.039-1.984,2.963c-0.659,0.929-1.273,1.804-1.833,2.527
			c-0.542,0.731-1.025,1.342-1.369,1.771c-0.332,0.415-0.522,0.651-0.522,0.651L271.404,614.954z"/>
	</g>
	<g>
		<path fill="#1C110B" d="M233.379,620.91c0,0-0.113-0.051-0.325-0.146c-0.142-0.063-0.256-0.126-0.381-0.197
			c-0.129-0.073-0.285-0.158-0.43-0.257c-0.311-0.192-0.653-0.441-1.026-0.733c-0.358-0.302-0.772-0.631-1.157-1.031
			c-0.406-0.386-0.799-0.829-1.201-1.302c-0.397-0.475-0.783-0.992-1.163-1.531c-0.356-0.555-0.75-1.106-1.066-1.708
			c-0.341-0.589-0.667-1.19-0.947-1.811c-0.305-0.608-0.575-1.227-0.81-1.847c-0.253-0.61-0.487-1.213-0.671-1.812
			c-0.189-0.596-0.404-1.154-0.545-1.706c-0.147-0.548-0.286-1.065-0.415-1.543c-0.261-0.948-0.389-1.763-0.519-2.317
			c-0.117-0.559-0.184-0.877-0.184-0.877s0.141,0.294,0.388,0.81c0.259,0.509,0.57,1.256,1.044,2.105
			c0.233,0.424,0.485,0.883,0.752,1.368c0.259,0.486,0.595,0.967,0.905,1.477c0.307,0.514,0.661,1.019,1.03,1.521
			c0.352,0.513,0.733,1.013,1.14,1.487c0.383,0.492,0.801,0.949,1.22,1.385c0.399,0.455,0.851,0.835,1.257,1.225
			c0.425,0.367,0.84,0.71,1.244,1.005c0.408,0.292,0.791,0.557,1.158,0.762c0.356,0.229,0.7,0.375,0.989,0.52
			c0.295,0.129,0.544,0.229,0.743,0.287c0.103,0.039,0.181,0.053,0.251,0.071c0.075,0.021,0.132,0.033,0.133,0.022
			c-0.001-0.015,0.112,0.013,0.112,0.013L233.379,620.91z"/>
	</g>
</g>
<g>
	<path fill="none" stroke="#1C110B" stroke-width="5" stroke-miterlimit="10" d="M251.101,395.021
		c13.003,0.049,27.082,7.307,38.6,24.791c5.013,7.608,12.747,15.246,14.229,29.67c1.731,16.852-10.993,23.179-17.892,31.724
		c-12.574,15.571-13.863,23.762-30.697,23.765c-8.417,0.002-21.853,0.857-37.629-17.576c-5.942-6.943-18.563-14.793-19.438-29.459
		c-1.434-24.013,11.123-29.192,20.182-40.599C227.536,405.9,229.347,394.942,251.101,395.021z"/>
	<g>
		<path fill="#1C110B" d="M214.74,453.974c0,0,0.018-0.345,0.167-0.98c0.164-0.627,0.427-1.564,1.028-2.663
			c0.602-1.088,1.545-2.364,3.012-3.438c1.445-1.075,3.396-1.985,5.619-2.294c2.198-0.295,4.653-0.321,7.085,0.188
			c0.324,0.055,0.588,0.088,0.967,0.163c0.289,0.068,0.579,0.136,0.871,0.205c0.584,0.137,1.176,0.276,1.773,0.417
			c1.225,0.329,2.504,0.686,3.726,1.074c2.477,0.754,4.959,1.666,7.332,2.251c2.38,0.58,4.637,0.743,6.983,0.294
			c2.348-0.408,4.727-1.351,7.063-2.35c1.153-0.577,2.323-1.059,3.451-1.676c0.567-0.295,1.13-0.589,1.689-0.881l0.916-0.471
			l0.862-0.424c1.148-0.557,2.227-1.14,3.517-1.604c0.615-0.24,1.224-0.477,1.825-0.712c0.618-0.177,1.229-0.352,1.833-0.524
			c0.301-0.083,0.6-0.166,0.896-0.248c0.306-0.065,0.62-0.108,0.925-0.161c0.615-0.093,1.207-0.217,1.809-0.269
			c0.613-0.011,1.215-0.022,1.806-0.033c0.585-0.02,1.186,0.122,1.751,0.18c0.57,0.042,1.121,0.24,1.653,0.4
			c0.265,0.087,0.53,0.154,0.78,0.256c0.243,0.125,0.483,0.248,0.721,0.37c0.232,0.125,0.461,0.247,0.688,0.368
			c0.211,0.145,0.409,0.303,0.607,0.451c0.397,0.295,0.775,0.582,1.078,0.927c1.307,1.278,2.038,2.637,2.566,3.729
			c0.544,1.093,0.86,1.981,1.113,2.57c0.25,0.592,0.383,0.908,0.383,0.908s-0.22-0.266-0.631-0.763
			c-0.392-0.509-0.97-1.266-1.704-2.18c-0.73-0.914-1.702-1.95-2.95-2.793c-1.255-0.84-2.822-1.359-4.592-1.387
			c-0.452,0.032-0.891-0.029-1.363,0.066c-0.466,0.079-0.94,0.16-1.424,0.242c-0.481,0.125-0.975,0.283-1.471,0.421
			c-0.247,0.075-0.497,0.135-0.747,0.221c-0.249,0.103-0.5,0.207-0.752,0.312c-0.504,0.203-1.015,0.408-1.531,0.616
			c-0.495,0.252-0.996,0.507-1.502,0.765c-0.987,0.462-2.088,1.127-3.184,1.778c-1.094,0.649-2.206,1.309-3.331,1.976
			c-1.136,0.714-2.398,1.311-3.625,1.959c-2.53,1.208-5.235,2.319-8.252,2.882c-1.513,0.246-3.08,0.371-4.631,0.263
			c-0.774-0.058-1.55-0.116-2.284-0.287l-1.111-0.218l-1.058-0.289c-2.803-0.796-5.22-1.862-7.563-2.764
			c-1.176-0.479-2.293-0.86-3.401-1.292c-0.582-0.198-1.157-0.394-1.725-0.587c-0.284-0.097-0.566-0.193-0.847-0.288
			c-0.254-0.072-0.506-0.143-0.757-0.213c-0.526-0.149-1.045-0.297-1.556-0.443c-0.513-0.111-1.019-0.177-1.519-0.282
			c-0.25-0.049-0.5-0.097-0.746-0.145c-0.245-0.017-0.487-0.033-0.727-0.05c-0.479-0.02-0.966-0.103-1.423-0.073
			c-1.857,0.006-3.511,0.423-4.88,1.066c-1.357,0.665-2.44,1.535-3.204,2.388c-0.749,0.864-1.265,1.64-1.571,2.196
			C214.869,453.652,214.74,453.974,214.74,453.974z"/>
	</g>
	<g>
		<path fill="#1C110B" d="M223.653,453.974c1.682,1.393,3.159,2.915,4.573,4.479c1.409,1.565,2.727,3.19,3.979,4.855
			c1.25,1.667,2.451,3.365,3.574,5.113c1.138,1.738,2.21,3.519,3.225,5.335l0.933,1.671l-1.157,1.146
			c-0.861,0.853-1.747,1.682-2.646,2.496c-0.462,0.397-0.889,0.821-1.379,1.195c-0.482,0.379-0.958,0.764-1.452,1.129
			c-0.972,0.746-1.98,1.451-3,2.133c-1.029,0.673-2.078,1.317-3.184,1.888c0.567-1.142,1.19-2.21,1.834-3.248
			c0.651-1.03,1.316-2.038,2.017-3.004c0.694-0.973,1.417-1.908,2.111-2.884c0.71-0.957,1.434-1.899,2.181-2.817l-0.223,2.815
			c-1.213-1.69-2.369-3.418-3.459-5.187c-1.105-1.759-2.132-3.567-3.11-5.407c-0.976-1.842-1.886-3.725-2.705-5.665
			C224.949,458.073,224.199,456.089,223.653,453.974z"/>
	</g>
	<path fill="none" stroke="#1C110B" stroke-width="5" stroke-miterlimit="10" d="M237.021,475.016c0,0,21.29,1.485,30.697-2.476"/>
	<g>
		<path fill="#1C110B" d="M276.135,451.499c0.008,0.994-0.07,1.953-0.178,2.9c-0.116,0.942-0.261,1.874-0.449,2.787
			c-0.366,1.831-0.851,3.612-1.423,5.357c-0.578,1.743-1.223,3.458-1.973,5.13c-0.368,0.838-0.757,1.668-1.174,2.486
			c-0.409,0.822-0.85,1.63-1.309,2.432l0.158-0.794c0.001-0.139-0.015-0.283-0.047-0.422c-0.024-0.123-0.108-0.325-0.096-0.294
			c-0.016-0.038-0.034-0.076-0.055-0.112c-0.034-0.064-0.112-0.158-0.135-0.177c-0.001,0.005-0.005,0.014-0.011,0.027
			c-0.022,0.005,0.005,0.044,0.05,0.091l0.108,0.13c0.057,0.09,0.144,0.191,0.264,0.295l0.322,0.313
			c0.206,0.211,0.483,0.425,0.726,0.641c0.253,0.211,0.493,0.449,0.769,0.657c0.54,0.426,1.053,0.91,1.605,1.364
			c0.54,0.474,1.086,0.95,1.608,1.505c-0.753,0.012-1.482-0.056-2.218-0.124c-0.732-0.067-1.447-0.232-2.167-0.386
			c-0.357-0.076-0.721-0.18-1.076-0.3c-0.359-0.129-0.717-0.203-1.084-0.383l-0.552-0.25c-0.179-0.073-0.373-0.174-0.58-0.31
			l-0.299-0.193c-0.095-0.058-0.199-0.13-0.334-0.259c-0.124-0.112-0.247-0.229-0.365-0.352c-0.076-0.086-0.192-0.259-0.272-0.396
			l-0.121-0.225c-0.002,0.014-0.088-0.21-0.118-0.354c-0.038-0.16-0.059-0.325-0.063-0.484l-0.005-0.197l0.163-0.598
			c0.243-0.891,0.503-1.773,0.795-2.644c0.285-0.874,0.599-1.735,0.931-2.588c0.653-1.712,1.411-3.38,2.236-5.021
			c0.83-1.639,1.749-3.24,2.786-4.792c0.513-0.779,1.069-1.539,1.654-2.288C274.802,452.928,275.426,452.196,276.135,451.499z"/>
	</g>
</g>
</svg>
