<?xml version="1.0" encoding="utf-8"?>
<!-- Generator: Adobe Illustrator 16.0.0, SVG Export Plug-In . SVG Version: 6.00 Build 0)  -->
<!DOCTYPE svg PUBLIC "-//W3C//DTD SVG 1.1//EN" "http://www.w3.org/Graphics/SVG/1.1/DTD/svg11.dtd">
<svg version="1.1" id="Layer_3" xmlns="http://www.w3.org/2000/svg" xmlns:xlink="http://www.w3.org/1999/xlink" x="0px" y="0px"
	 width="500px" height="900px" viewBox="0 0 500 900" enable-background="new 0 0 500 900" xml:space="preserve">
<g>
	<path fill="none" stroke="#1E120D" stroke-width="5" stroke-miterlimit="10" d="M213.877,155.718
		c-2.551-28.202,0.938-41.469-0.632-62.938c-1.571-21.469-30.37-54.981,3.666-75.402c0,0,5.499-1.833,6.544-2.094
		c1.048-0.262,6.808-2.618,6.808-2.618s10.734-8.64,18.065-8.378c7.33,0.262,13.352,1.571,17.018,3.666
		c3.666,2.094,6.283,3.927,8.116,5.236c1.833,1.31,12.043-0.523,21.993,13.876c9.948,14.4-0.263,39.01-1.571,45.032
		c-1.31,6.021-8.379,41.105-7.331,63.62c1.048,22.516-5.76,119.387-17.019,146.877c-11.257,27.491-11.257,45.817-30.37,54.196
		c-19.112,8.377-12.305-22.254-11.258-26.705c1.047-4.452-0.873-45.03-5.409-74.703C217.96,205.711,213.877,155.718,213.877,155.718
		z"/>
	<path fill="none" stroke="#1E120D" stroke-width="5" stroke-miterlimit="10" d="M213.489,113.916c0,0,28.118,23.894,74.069-2.024"
		/>
	<g>
		<path fill="#1E120D" d="M230.631,12.889c0,0,0.018,0.234,0.049,0.643c0.028,0.414,0.068,1.004,0.117,1.713
			c0.042,0.714,0.09,1.548,0.143,2.441c0.064,0.887,0.056,1.846,0.087,2.792c0.021,0.944,0.042,1.889,0.061,2.774
			c-0.038,0.891-0.073,1.723-0.104,2.436c-0.065,1.402-0.108,2.337-0.108,2.337s-0.267-0.9-0.668-2.25
			c-0.199-0.663-0.432-1.437-0.681-2.266c-0.305-0.817-0.63-1.689-0.955-2.561c-0.333-0.866-0.626-1.735-0.971-2.533
			c-0.331-0.797-0.64-1.541-0.904-2.178c-0.272-0.64-0.5-1.173-0.659-1.546c-0.164-0.376-0.257-0.591-0.257-0.591L230.631,12.889z"
			/>
	</g>
	<g>
		<path fill="#1E120D" d="M275.743,14.211c0,0-0.116,0.188-0.32,0.518c-0.092,0.13-0.207,0.353-0.338,0.62
			c-0.126,0.266-0.296,0.545-0.435,0.895c-0.148,0.344-0.309,0.717-0.478,1.111c-0.174,0.396-0.311,0.838-0.479,1.286
			c-0.153,0.453-0.35,0.913-0.483,1.403c-0.145,0.489-0.292,0.986-0.438,1.483c-0.321,0.994-0.518,2.02-0.753,2.979
			c-0.243,0.959-0.413,1.867-0.54,2.649c-0.275,1.571-0.459,2.619-0.459,2.619s-0.129-1.059-0.321-2.646
			c-0.107-0.798-0.21-1.733-0.257-2.74c-0.055-1.008-0.167-2.091-0.149-3.179c-0.004-0.547-0.008-1.094-0.012-1.632
			c-0.014-0.541,0.042-1.073,0.06-1.593c0.033-0.519,0.038-1.022,0.094-1.503c0.053-0.483,0.104-0.939,0.15-1.361
			c0.037-0.422,0.131-0.82,0.184-1.17c0.058-0.346,0.114-0.657,0.196-0.954c0.138-0.526,0.217-0.827,0.217-0.827L275.743,14.211z"/>
	</g>
</g>
<g>
	<path fill="none" stroke="#1C110B" stroke-width="5" stroke-miterlimit="10" d="M389.068,510.4c0,0-15.357-58.646-8.726-80.638
		c6.631-21.992,30.37-12.915,39.795-4.189c0,0,10.123-18.151,16.407-24.087c6.283-5.935,13.616-19.897,30.72,5.935
		c17.104,25.832,42.585,52.013,21.293,101.583c0,0-4.189,108.564-12.217,151.502c-8.028,42.938-38.399,87.619-67.025,36.305
		c0,0-6.632-18.85-6.979-45.381C401.985,624.9,387.67,641.658,389.068,510.4z"/>
	<path fill="none" stroke="#1C110B" stroke-width="5" stroke-miterlimit="10" d="M389.068,510.4c0,0,45.381-15.619,100.624,0"/>
	<g>
		<path fill="#1C110B" d="M387.323,435.348c0,0,0.081-0.306,0.333-0.846c0.251-0.537,0.637-1.337,1.329-2.235
			c0.668-0.912,1.614-1.969,2.969-2.887c0.653-0.499,1.443-0.881,2.281-1.3c0.433-0.169,0.886-0.326,1.354-0.487
			c0.466-0.172,0.965-0.226,1.469-0.346c0.254-0.051,0.511-0.104,0.771-0.156c0.261-0.02,0.523-0.04,0.789-0.06
			c0.532-0.027,1.087-0.104,1.637-0.084c1.096,0.063,2.258,0.112,3.382,0.383c0.565,0.122,1.166,0.201,1.724,0.386
			c0.562,0.182,1.13,0.366,1.704,0.552c0.597,0.187,1.115,0.368,1.648,0.582c0.534,0.205,1.074,0.411,1.618,0.619
			c2.133,0.774,4.337,1.595,6.535,2.19c2.192,0.572,4.369,0.932,6.288,0.656c1.916-0.24,3.628-1.215,5.253-2.599
			c1.619-1.375,3.045-3.178,4.387-4.941c0.33-0.454,0.656-0.904,0.979-1.35l0.242-0.334l0.03-0.042
			c-0.063,0.105-0.009,0.016-0.02,0.034l0.015-0.022l0.058-0.089l0.115-0.179l0.469-0.706c0.622-0.934,1.231-1.848,1.824-2.738
			c1.213-1.76,2.36-3.424,3.42-4.961c0.933-1.56,1.843-2.975,2.658-4.238c0.844-1.253,1.441-2.405,1.979-3.35
			c0.263-0.475,0.502-0.899,0.721-1.266c0.224-0.366,0.338-0.697,0.471-0.96c0.254-0.534,0.389-0.819,0.389-0.819
			s-0.039,0.311-0.111,0.895c-0.059,0.599-0.242,1.447-0.541,2.508c-0.291,1.063-0.581,2.404-1.181,3.818
			c-0.542,1.443-1.163,3.081-1.9,4.852c-0.782,1.714-1.686,3.515-2.654,5.423c-0.491,0.95-0.995,1.925-1.511,2.922l-0.39,0.751
			l-0.101,0.188l-0.139,0.245l-0.229,0.38c-0.308,0.508-0.617,1.021-0.931,1.539c-1.323,2.039-2.752,4.167-4.804,6.045
			c-1.018,0.935-2.16,1.828-3.487,2.526c-0.642,0.372-1.387,0.603-2.084,0.894c-0.727,0.213-1.479,0.385-2.224,0.522
			c-3.032,0.388-5.851-0.191-8.34-0.953c-0.615-0.207-1.227-0.413-1.836-0.618c-0.597-0.221-1.169-0.464-1.749-0.693
			c-1.158-0.456-2.265-0.974-3.347-1.468c-1.035-0.485-2.116-1.044-3.06-1.448c-0.474-0.212-0.941-0.422-1.404-0.629
			c-0.463-0.212-0.938-0.315-1.397-0.487c-1.848-0.643-3.66-0.919-5.332-0.882c-1.679,0.017-3.209,0.4-4.502,0.953
			c-1.294,0.551-2.377,1.237-3.188,1.912c-0.821,0.664-1.428,1.266-1.805,1.707C387.506,435.09,387.323,435.348,387.323,435.348z"/>
	</g>
</g>
<g>
	<path fill="none" stroke="#1C110B" stroke-width="5" stroke-miterlimit="10" d="M13.462,508.806c0,0-30.021-54.109,30.37-111.358
		c0,0,19.548-18.149,40.492,25.136l20.248-8.728c0,0,15.357-8.728,19.199,11.17c3.84,19.897,3.84,31.42-2.442,53.76
		c-5.803,20.633-3.489,38.052-4.887,53.061c0,0,0.348,45.033-4.888,77.498c-5.236,32.465-11.167,32.465-11.868,63.533
		c-0.7,31.066-28.275,84.828-66.326,12.916C33.36,685.795,19.74,667.29,13.462,508.806z"/>
	<path fill="none" stroke="#1C110B" stroke-width="5" stroke-miterlimit="10" d="M13.462,508.806c0,0,23.211-14.835,53.582-14.835
		c0,0,28.1,0.348,50.792,17.454"/>
	<g>
		<path fill="#1C110B" d="M59.886,399.195c0.356,1.638,0.835,3.215,1.458,4.693c0.316,0.735,0.647,1.452,1.047,2.113
			c0.398,0.66,0.833,1.285,1.318,1.826l0.358,0.408l0.397,0.354c0.134,0.114,0.254,0.242,0.389,0.349l0.421,0.292
			c0.265,0.215,0.57,0.356,0.866,0.501l1.097,0.583c0.189,0.106,0.353,0.171,0.562,0.313l0.62,0.418l0.619,0.429l0.53,0.44
			c0.725,0.577,1.354,1.222,1.994,1.866c0.598,0.669,1.19,1.349,1.717,2.068c0.565,0.698,1.025,1.458,1.511,2.205
			c0.447,0.768,0.912,1.53,1.293,2.336c0.414,0.79,0.738,1.625,1.091,2.447c0.3,0.847,0.634,1.681,0.845,2.566
			c0.259,0.866,0.433,1.767,0.603,2.669c0.088,0.45,0.114,0.921,0.168,1.381c0.06,0.458,0.084,0.928,0.083,1.404
			c0.049,0.938-0.038,1.908-0.136,2.868l-3.091-2.695c1.311-0.309,2.544-0.592,3.819-0.829c1.267-0.24,2.534-0.471,3.808-0.646
			c1.273-0.185,2.543-0.381,3.828-0.485c1.283-0.114,2.553-0.286,3.844-0.326c1.286-0.068,2.573-0.104,3.855-0.148
			c0.64-0.031,1.29,0.018,1.932,0.025c0.644,0.011,1.288,0.049,1.93,0.075l1.923,0.086c0.641,0.037,1.284,0.145,1.922,0.221
			c1.278,0.159,2.549,0.342,3.808,0.565c-1.27,0.253-2.528,0.465-3.779,0.654l-1.87,0.289l-1.861,0.359
			c-0.619,0.117-1.236,0.247-1.854,0.349c-0.617,0.116-1.234,0.195-1.847,0.344c-1.229,0.257-2.453,0.523-3.678,0.757
			c-1.225,0.233-2.439,0.549-3.658,0.805c-1.219,0.264-2.434,0.537-3.642,0.841l-1.818,0.423l-1.805,0.461
			c-1.199,0.29-2.421,0.613-3.56,0.934l-3.238,0.912l0.147-3.607c0.028-0.687,0.11-1.363,0.053-2.079
			c0.01-0.701-0.135-1.427-0.213-2.145c-0.129-0.723-0.253-1.448-0.461-2.169c-0.164-0.725-0.434-1.435-0.645-2.158
			c-0.274-0.706-0.514-1.427-0.843-2.115c-0.287-0.707-0.635-1.384-0.974-2.07c-0.376-0.659-0.722-1.348-1.138-1.98
			c-0.389-0.659-0.835-1.264-1.274-1.881c-0.46-0.586-0.917-1.192-1.432-1.71l-0.375-0.406l-0.356-0.335l-0.356-0.346
			c-0.113-0.117-0.319-0.243-0.474-0.365l-0.996-0.744c-0.404-0.296-0.799-0.593-1.129-0.958c-0.354-0.341-0.686-0.693-0.956-1.088
			l-0.421-0.576l-0.353-0.607c-0.48-0.799-0.802-1.657-1.071-2.504c-0.267-0.85-0.448-1.708-0.582-2.562
			C59.646,402.57,59.617,400.86,59.886,399.195z"/>
	</g>
</g>
<g>
	<path fill="none" stroke="#1C110B" stroke-width="5" stroke-miterlimit="10" d="M209.198,679.273c0,0,2.094-28.275-5.236-50.269
		c-7.331-21.992-4.995-47.341,20.597-54.283c12.218-3.313,13.788-10.122,25.482-10.122c15.708,0,14.835,8.027,22.342,9.774
		c11.399,2.653,37.351,5.235,25.134,52.013c-12.216,46.776-16.405,55.852-17.453,104.375
		c-1.047,48.524-15.899,102.643-16.406,115.199c-0.787,19.461,11.042,43.693,4.886,47.476c-7.244,4.45-31.593-0.523-44.334-52.713
		C212.236,791.677,209.656,705.052,209.198,679.273z"/>
	<path fill="none" stroke="#1C110B" stroke-width="5" stroke-miterlimit="10" d="M209.461,667.491c0,0,16.231,18.065,36.651,18.065
		c20.421,0,36.671-8.111,39.543-12.826"/>
	<g>
		<path fill="#1C110B" d="M215.831,599.855c0.95-1.185,1.974-2.315,3.048-3.394c1.067-1.086,2.165-2.15,3.33-3.139
			c0.576-0.502,1.152-1.009,1.754-1.482c0.601-0.476,1.179-0.987,1.812-1.423l1.876-1.35l1.944-1.268
			c0.642-0.436,1.329-0.807,2.008-1.188c0.679-0.383,1.363-0.76,2.082-1.08c0.714-0.328,1.413-0.69,2.146-0.99l2.228-0.854
			c0.742-0.293,1.539-0.461,2.313-0.682c0.391-0.103,0.779-0.216,1.174-0.307l1.213-0.194l1.217-0.189l0.61-0.09l0.625-0.017
			l2.508-0.05l0.191-0.004l0.329,0.1c0.647,0.197,1.158,0.372,1.71,0.578c0.545,0.194,1.069,0.42,1.598,0.641
			c1.049,0.451,2.074,0.943,3.085,1.466s1.991,1.102,2.958,1.702c0.953,0.623,1.911,1.241,2.819,1.935
			c0.935,0.657,1.786,1.427,2.669,2.152c0.828,0.794,1.7,1.537,2.469,2.396c0.388,0.425,0.789,0.835,1.163,1.272l1.089,1.34
			c0.738,0.881,1.353,1.865,2.016,2.804l-3.689-0.314c0.67-0.659,1.254-1.165,1.905-1.7c0.643-0.519,1.288-1.03,1.972-1.495
			c1.356-0.939,2.78-1.799,4.302-2.511c0.766-0.348,1.552-0.658,2.355-0.935l1.228-0.368l1.26-0.287l1.288-0.193
			c0.436-0.04,0.875-0.061,1.31-0.088c0.44-0.004,0.884,0.02,1.322,0.032c0.439,0.04,0.879,0.121,1.314,0.184
			c0.869,0.18,1.719,0.426,2.527,0.774c0.799,0.354,1.578,0.756,2.268,1.265c0.727,0.461,1.336,1.058,1.933,1.639
			c0.563,0.617,1.114,1.229,1.569,1.907c0.504,0.643,0.887,1.354,1.296,2.04c0.384,0.701,0.691,1.437,1.034,2.146
			c0.28,0.738,0.572,1.467,0.82,2.207l0.642,2.249l-1.161-2.011l-1.24-1.933c-0.463-0.604-0.888-1.23-1.372-1.802
			c-0.498-0.56-0.943-1.155-1.491-1.646c-0.504-0.536-1.075-0.98-1.634-1.423c-0.277-0.224-0.594-0.386-0.882-0.584
			c-0.283-0.209-0.591-0.367-0.899-0.518c-0.601-0.336-1.245-0.558-1.883-0.746c-0.644-0.182-1.3-0.275-1.956-0.325
			c-0.66-0.025-1.318,0.002-1.979,0.066l-0.988,0.162l-0.981,0.246l-0.972,0.321l-0.957,0.39c-0.632,0.289-1.254,0.605-1.864,0.955
			c-0.606,0.358-1.213,0.722-1.801,1.125c-0.586,0.405-1.164,0.825-1.722,1.277c-0.563,0.444-1.111,0.909-1.644,1.388
			c-0.521,0.467-1.073,1.005-1.481,1.448l-1.893,2.059l-1.797-2.374l-0.909-1.202c-0.296-0.405-0.595-0.808-0.936-1.18l-0.983-1.144
			c-0.338-0.373-0.704-0.722-1.053-1.084c-0.348-0.365-0.695-0.729-1.077-1.062l-1.114-1.025c-0.788-0.637-1.552-1.301-2.378-1.893
			c-0.799-0.625-1.65-1.183-2.495-1.749c-0.86-0.545-1.735-1.065-2.622-1.567c-0.892-0.493-1.798-0.961-2.718-1.389l-1.384-0.612
			c-0.449-0.195-0.952-0.389-1.329-0.526l0.52,0.096l-2.008-0.05l-0.504-0.017l-0.51,0.048l-1.022,0.093l-1.027,0.089
			c-0.342,0.057-0.684,0.135-1.026,0.2c-0.682,0.157-1.378,0.232-2.061,0.428l-2.056,0.573c-0.684,0.206-1.354,0.48-2.034,0.718
			c-0.684,0.228-1.35,0.518-2.014,0.814c-0.659,0.307-1.355,0.539-2.006,0.878l-1.988,0.953l-1.95,1.049
			c-0.654,0.347-1.287,0.732-1.938,1.092c-0.653,0.357-1.285,0.75-1.921,1.142c-0.643,0.38-1.265,0.791-1.896,1.194
			c-0.639,0.394-1.265,0.807-1.887,1.228C218.301,598.106,217.051,598.953,215.831,599.855z"/>
	</g>
	<g>
		<polygon fill="#1C110B" points="218.252,597.874 213.037,588.685 221.885,594.438 		"/>
	</g>
	<g>
		<path fill="#1C110B" d="M247.733,584.482c0,0,0.1-0.151,0.274-0.416c0.159-0.209,0.39-0.652,0.672-1.142
			c0.246-0.522,0.585-1.118,0.86-1.806c0.301-0.679,0.607-1.417,0.865-2.179c0.291-0.754,0.53-1.527,0.735-2.263
			c0.223-0.733,0.421-1.427,0.541-2.029c0.272-1.213,0.454-2.021,0.454-2.021s0.131,0.822,0.326,2.057
			c0.114,0.623,0.187,1.352,0.254,2.142c0.084,0.79,0.151,1.64,0.161,2.494c0.043,0.857,0.033,1.72,0.001,2.536
			c-0.003,0.817-0.104,1.585-0.148,2.252c-0.094,0.676-0.146,1.213-0.251,1.668c-0.082,0.401-0.129,0.631-0.129,0.631
			L247.733,584.482z"/>
	</g>
	<g>
		<path fill="#1C110B" d="M269.829,595.788c0,0,0.068-0.187,0.188-0.512c0.125-0.337,0.3-0.821,0.523-1.375
			c0.217-0.559,0.485-1.205,0.781-1.893c0.281-0.688,0.633-1.413,0.961-2.133c0.334-0.72,0.722-1.428,1.054-2.085
			c0.365-0.654,0.734-1.249,1.031-1.754c0.15-0.252,0.333-0.469,0.469-0.665c0.143-0.192,0.266-0.36,0.368-0.498
			c0.201-0.271,0.316-0.427,0.316-0.427s-0.045,0.19-0.125,0.523c-0.038,0.164-0.085,0.363-0.139,0.592
			c-0.047,0.229-0.124,0.473-0.162,0.761c-0.073,0.575-0.174,1.23-0.247,1.936c-0.045,0.72-0.118,1.466-0.141,2.228
			c-0.018,0.765-0.054,1.514-0.042,2.229c-0.001,0.71,0.006,1.371,0.026,1.938c0.011,0.569,0.039,1.026,0.055,1.347
			c0.018,0.333,0.027,0.523,0.027,0.523L269.829,595.788z"/>
	</g>
</g>
<g>
	<path fill="none" stroke="#1C110B" stroke-width="5" stroke-miterlimit="10" d="M249.637,392.367
		c41.173,1.44,53.764,38.622,54.287,62.709c0.522,24.086-8.379,47.302-49.745,55.33c0,0-57.6,2.792-57.075-52.189
		c0.497-52.127,3.347-53.663,38.452-64.054C237.475,393.594,246.479,392.256,249.637,392.367z"/>
	<g>
		<path fill="#1C110B" d="M212.551,442.246c0,0-0.011-0.341,0.013-0.98c0.033-0.637,0.063-1.58,0.217-2.768
			c0.146-1.188,0.349-2.639,0.765-4.277c0.405-1.641,0.957-3.497,1.951-5.435c0.999-1.895,2.389-4.097,5.042-5.474
			c0.654-0.339,1.383-0.575,2.14-0.74l0.574-0.08l0.29-0.036l0.146-0.017l0.037-0.004c-0.076-0.001,0.144-0.004,0.131-0.003
			l0.057-0.002c0.3-0.009,0.603-0.018,0.907-0.027c0.558-0.046,1.34,0.022,2.075,0.086c0.741,0.068,1.403,0.21,2.11,0.341
			c2.775,0.624,5.305,1.831,7.617,2.762c2.333,0.925,4.548,1.539,6.886,1.549c0.586-0.031,1.165,0.032,1.759-0.06l0.887-0.088
			l0.222-0.021l0.055-0.005l0.028-0.002c-0.048,0.009,0.147-0.024-0.101,0.02l0.124-0.024l0.494-0.096
			c1.269-0.276,2.774-0.441,3.688-0.817c0.52-0.166,1.049-0.284,1.555-0.553c0.514-0.226,1.023-0.426,1.586-0.755l0.836-0.449
			l0.988-0.495c0.618-0.361,1.428-0.539,2.135-0.784c2.911-0.714,5.546-0.562,7.886-0.447c2.358,0.158,4.631,0.436,6.711,0.928
			c2.086,0.458,3.998,1.261,5.452,2.315c1.479,1.03,2.428,2.275,3.079,3.305c0.646,1.046,0.998,1.928,1.231,2.524
			c0.217,0.602,0.332,0.922,0.332,0.922s-0.203-0.272-0.584-0.783c-0.367-0.512-0.966-1.227-1.76-2.047
			c-0.816-0.801-1.896-1.644-3.264-2.27c-1.371-0.625-3.044-0.98-4.948-1.134c-1.91-0.146-4.021-0.091-6.288,0.003
			c-2.271,0.122-4.584,0.286-6.547,0.922c-0.462,0.223-0.921,0.314-1.399,0.636l-0.717,0.409l-0.849,0.518
			c-0.542,0.36-1.226,0.698-1.899,1.035c-0.652,0.362-1.403,0.591-2.141,0.844l-1.114,0.37c-0.393,0.142-0.669,0.161-1.011,0.248
			c-0.653,0.137-1.308,0.274-1.965,0.412l-0.493,0.101l-0.124,0.025l-0.163,0.027l-0.035,0.004l-0.069,0.008l-0.279,0.032
			l-1.119,0.125c-0.74,0.11-1.515,0.067-2.273,0.096c-3.066-0.031-6.132-0.934-8.663-2.079c-1.292-0.559-2.45-1.145-3.585-1.667
			c-1.124-0.519-2.201-0.937-3.263-1.28c-0.524-0.136-1.082-0.302-1.571-0.382c-0.498-0.07-0.931-0.195-1.592-0.213
			c-0.304-0.021-0.605-0.041-0.905-0.061l-0.551,0.008c-0.411,0.055-0.818,0.128-1.218,0.273c-1.603,0.575-3.036,2.017-4.122,3.523
			c-1.075,1.537-1.926,3.131-2.601,4.585c-0.661,1.463-1.2,2.78-1.601,3.882C212.935,440.934,212.551,442.246,212.551,442.246z"/>
	</g>
	<g>
		<path fill="#1C110B" d="M222.761,488.064c0,0,0.858,1.047,2.52,2.65c0.838,0.793,1.882,1.72,3.14,2.666
			c1.247,0.959,2.748,1.894,4.424,2.708c1.672,0.834,3.596,1.404,5.609,1.629c1.004,0.165,2.045,0.082,3.09,0.064
			c0.522-0.092,1.047-0.181,1.576-0.256l0.397-0.058l0.05-0.008c-0.025,0.006,0.093-0.017-0.051,0.011l0.028-0.007l0.112-0.028
			l0.224-0.058l0.903-0.231l0.91-0.233l0.771-0.269l0.771-0.258c0.254-0.099,0.501-0.223,0.752-0.331
			c1.03-0.429,1.875-1.002,2.694-1.676c0.816-0.668,1.56-1.597,2.581-2.644c1.008-1.036,2.226-2.087,3.55-2.896
			c2.673-1.592,5.485-2.435,8.174-2.972l0.506-0.114l0.308-0.066l0.241-0.04l0.962-0.162c0.655-0.095,1.248-0.217,1.944-0.286
			c0.676-0.078,1.347-0.155,2.014-0.231c0.65-0.048,1.296-0.095,1.936-0.142c2.545-0.168,4.951-0.155,6.964-0.441
			c2.02-0.255,3.618-0.993,5.041-2.123c0.665-0.618,1.34-1.184,1.899-1.857c0.295-0.322,0.582-0.636,0.86-0.94
			c0.258-0.331,0.509-0.653,0.751-0.966c0.997-1.232,1.758-2.426,2.453-3.358c1.28-1.942,2.063-3.048,2.063-3.048
			s-0.102,0.32-0.293,0.92c-0.206,0.594-0.474,1.483-0.888,2.588c-0.467,1.082-0.917,2.454-1.718,3.922
			c-0.189,0.374-0.384,0.76-0.585,1.157c-0.234,0.386-0.476,0.783-0.723,1.191c-0.463,0.836-1.158,1.616-1.838,2.468
			c-0.404,0.389-0.816,0.786-1.237,1.19c-0.45,0.379-0.969,0.714-1.477,1.08c-0.534,0.316-1.118,0.582-1.702,0.858
			c-0.592,0.197-1.209,0.442-1.82,0.599c-2.473,0.632-4.903,0.831-7.315,1.174c-0.6,0.087-1.203,0.175-1.813,0.264
			c-0.587,0.1-1.178,0.201-1.772,0.303c-0.578,0.085-1.245,0.257-1.868,0.383l-0.956,0.194l-0.24,0.049
			c0.034-0.004-0.118,0.033-0.168,0.047l-0.447,0.117c-2.411,0.578-4.758,1.349-6.647,2.51c-0.953,0.572-1.773,1.256-2.625,2.104
			c-0.835,0.839-1.805,1.938-3.037,2.91c-1.214,0.965-2.613,1.765-3.984,2.245c-0.345,0.127-0.683,0.268-1.029,0.379l-1.054,0.291
			l-1.042,0.27l-0.925,0.162l-0.918,0.16l-0.228,0.04l-0.114,0.021l-0.028,0.005c-0.163,0.032-0.064,0.011-0.108,0.019l-0.065,0.005
			l-0.518,0.041c-0.688,0.057-1.37,0.099-2.041,0.135c-1.35-0.096-2.672-0.129-3.905-0.483c-2.485-0.563-4.648-1.62-6.386-2.848
			c-0.454-0.282-0.87-0.592-1.258-0.917c-0.391-0.321-0.792-0.608-1.136-0.942c-0.688-0.665-1.343-1.281-1.889-1.924
			c-1.144-1.233-1.96-2.446-2.613-3.437c-0.647-0.998-1.072-1.829-1.354-2.395C222.88,488.379,222.761,488.064,222.761,488.064z"/>
	</g>
	<g>
		<path fill="#1C110B" d="M217.787,467.904c0.85-1.258,1.802-2.447,2.796-3.597c0.248-0.289,0.5-0.574,0.759-0.853
			c0.26-0.277,0.506-0.571,0.78-0.836l1.62-1.629c0.555-0.53,1.156-1.017,1.737-1.529l0.893-0.747l0.959-0.688l0.97-0.683
			c0.319-0.232,0.65-0.453,1.022-0.636c0.719-0.391,1.449-0.774,2.189-1.146l0.083-0.042l0.283-0.052
			c0.65-0.119,1.083-0.138,1.625-0.202c0.51-0.041,1.002-0.042,1.506-0.057c1.008-0.039,1.974,0.068,2.968,0.104
			c0.496,0.024,0.97,0.124,1.457,0.184l1.453,0.208c0.49,0.056,0.965,0.156,1.434,0.28l1.417,0.343l1.417,0.346
			c0.473,0.113,0.918,0.301,1.377,0.451l2.736,0.958c0.465,0.143,0.891,0.364,1.328,0.563l1.307,0.607
			c0.87,0.407,1.743,0.807,2.604,1.229l-1.89-0.142c0.227-0.106,0.426-0.163,0.808-0.366l1.015-0.507l1.021-0.497l1.036-0.568
			c1.377-0.77,2.778-1.498,4.174-2.251c2.772-1.584,5.576-3.126,8.436-4.602l0.507-0.261l0.273,0.024
			c1.745,0.159,3.491,0.392,5.236,0.593c1.745,0.24,3.491,0.482,5.236,0.813c-1.745,0.331-3.491,0.573-5.236,0.813
			c-1.745,0.201-3.491,0.434-5.236,0.593l0.78-0.236c-2.537,2.014-5.129,3.962-7.753,5.868c-1.354,0.907-2.723,1.811-4.104,2.688
			l-1.035,0.663l-1.112,0.622l-1.119,0.614c-0.319,0.193-0.865,0.437-1.376,0.65l-0.78,0.327l-1.11-0.469
			c-0.813-0.345-1.615-0.712-2.42-1.072c-0.809-0.347-1.598-0.757-2.421-1.055l-2.469-0.9c-0.413-0.143-0.819-0.319-1.236-0.44
			l-1.255-0.357c-0.839-0.22-1.67-0.525-2.517-0.682l-1.268-0.271c-0.423-0.08-0.848-0.204-1.271-0.251
			c-0.842-0.099-1.704-0.289-2.54-0.329l-1.257-0.09c-0.377-0.002-0.868-0.021-1.131-0.011l0.367-0.094
			c-0.622,0.241-1.252,0.473-1.895,0.695c-0.323,0.097-0.64,0.246-0.953,0.413l-0.953,0.467l-0.963,0.463l-0.939,0.54
			c-0.627,0.364-1.275,0.701-1.895,1.094l-1.883,1.163c-0.629,0.392-1.222,0.835-1.86,1.229c-0.637,0.396-1.236,0.839-1.86,1.259
			C219.027,467.037,218.42,467.476,217.787,467.904z"/>
	</g>
	<g>
		<path fill="#1C110B" d="M242.607,457.317c0,0,0.082,0.471,0.226,1.295c0.14,0.819,0.323,1.986,0.528,3.387
			c0.411,2.8,0.868,6.543,1.142,10.301c0.146,1.876,0.227,3.761,0.252,5.526c0.033,0.879-0.007,1.738-0.011,2.545
			c0.003,0.806-0.079,1.574-0.109,2.275c-0.024,0.702-0.133,1.347-0.191,1.914c-0.054,0.567-0.133,1.06-0.225,1.461
			c-0.159,0.801-0.25,1.258-0.25,1.258s0.013-0.465,0.036-1.279c0.023-0.404,0.019-0.896-0.022-1.46
			c-0.038-0.564-0.036-1.195-0.129-1.886c-0.086-0.689-0.13-1.433-0.268-2.217c-0.129-0.785-0.229-1.609-0.405-2.459
			c-0.314-1.699-0.699-3.501-1.147-5.291c-0.879-3.58-1.931-7.114-2.783-9.739c-0.425-1.313-0.791-2.401-1.055-3.156
			c-0.265-0.748-0.417-1.176-0.417-1.176L242.607,457.317z"/>
	</g>
	<g>
		<path fill="#1C110B" d="M250.912,462.972c0,0-0.015-0.48-0.041-1.32c-0.029-0.86-0.045-2.071-0.04-3.508
			c-0.022-1.44,0.055-3.121,0.084-4.914c0.045-0.896,0.091-1.822,0.138-2.764c0.061-0.94,0.074-1.892,0.176-2.846
			c0.193-1.907,0.287-3.806,0.553-5.58c0.12-0.885,0.236-1.741,0.347-2.552c0.118-0.809,0.192-1.575,0.35-2.275
			c0.55-2.792,0.916-4.652,0.916-4.652s-0.055,1.889-0.138,4.721c-0.04,0.703,0.013,1.473,0.029,2.281
			c0.024,0.808,0.05,1.659,0.076,2.541c0.028,1.756,0.248,3.635,0.366,5.5c0.056,0.933,0.197,1.866,0.29,2.782
			c0.106,0.915,0.211,1.815,0.312,2.686c0.262,1.736,0.455,3.357,0.707,4.734c0.226,1.385,0.431,2.521,0.589,3.302
			c0.159,0.8,0.25,1.257,0.25,1.257L250.912,462.972z"/>
	</g>
	<g>
		<path fill="#1C110B" d="M257.871,461.344c-0.001,0,0.519,1.122,1.23,2.785c0.718,1.67,1.645,3.907,2.49,6.179
			c0.424,1.135,0.821,2.282,1.172,3.363c0.346,1.085,0.628,2.113,0.834,3.001c0.084,0.449,0.161,0.861,0.229,1.227
			c0.036,0.37,0.066,0.692,0.092,0.957c-0.034,0.529-0.054,0.831-0.054,0.831s-0.058-0.29-0.158-0.797
			c-0.09-0.24-0.199-0.533-0.324-0.868c-0.154-0.322-0.329-0.686-0.52-1.083c-0.416-0.779-0.937-1.667-1.533-2.598
			c-0.603-0.929-1.263-1.904-1.949-2.867c-1.37-1.925-2.812-3.803-3.908-5.193c-1.102-1.399-1.843-2.288-1.844-2.288
			L257.871,461.344z"/>
	</g>
	<g>
		<path fill="#1C110B" d="M231.894,459.256c0,0-0.069-0.071-0.197-0.206c-0.126-0.13-0.375-0.417-0.652-0.733
			c-0.308-0.335-0.573-0.709-0.877-1.137c-0.299-0.433-0.68-0.901-0.985-1.45c-0.323-0.539-0.673-1.123-1.044-1.741
			c-0.355-0.621-0.661-1.303-1.011-1.988c-0.331-0.695-0.724-1.387-0.998-2.141c-0.297-0.74-0.599-1.493-0.901-2.245l-0.448-1.121
			c-0.134-0.378-0.246-0.762-0.368-1.139c-0.238-0.752-0.473-1.493-0.7-2.209c-0.217-0.717-0.463-1.396-0.628-2.061
			c-0.16-0.667-0.311-1.296-0.45-1.878c-0.552-2.311-0.92-3.852-0.92-3.852s0.662,1.436,1.656,3.588
			c0.247,0.535,0.515,1.114,0.797,1.727c0.288,0.609,0.66,1.221,1.006,1.868c0.354,0.641,0.719,1.303,1.091,1.976
			c0.188,0.334,0.366,0.676,0.563,1.008l0.637,0.974c0.422,0.646,0.845,1.292,1.261,1.927c0.392,0.649,0.883,1.209,1.31,1.781
			c0.443,0.559,0.841,1.121,1.265,1.606c0.431,0.473,0.838,0.92,1.214,1.333c0.362,0.429,0.747,0.732,1.06,1.038
			c0.32,0.303,0.599,0.564,0.799,0.696c0.218,0.163,0.34,0.272,0.496,0.381c0.152,0.105,0.232,0.162,0.232,0.162L231.894,459.256z"
			/>
	</g>
</g>
</svg>
