<?xml version="1.0" encoding="utf-8"?>
<!-- Generator: Adobe Illustrator 16.0.0, SVG Export Plug-In . SVG Version: 6.00 Build 0)  -->
<!DOCTYPE svg PUBLIC "-//W3C//DTD SVG 1.1//EN" "http://www.w3.org/Graphics/SVG/1.1/DTD/svg11.dtd">
<svg version="1.1" id="Layer_3" xmlns="http://www.w3.org/2000/svg" xmlns:xlink="http://www.w3.org/1999/xlink" x="0px" y="0px"
	 width="500px" height="900px" viewBox="0 0 500 900" enable-background="new 0 0 500 900" xml:space="preserve">
<g>
	<path fill="none" stroke="#1C110B" stroke-width="5" stroke-miterlimit="10" d="M192.486,18.804c0,0,10.721-21.604,26.501-4.633"/>
	<g>
		<path fill="#1C110B" d="M195.463,40.97c-0.192-1.56-0.048-3.163,0.25-4.727c0.307-1.565,0.771-3.121,1.445-4.587l0.504-1.104
			l0.583-1.064c0.369-0.727,0.837-1.388,1.28-2.071c0.921-1.339,1.976-2.589,3.11-3.755c0.544-0.613,1.157-1.143,1.76-1.69
			l0.908-0.821c0.309-0.265,0.64-0.498,0.963-0.745c1.311-1.01,2.583-1.897,3.855-2.784c1.292-0.891,2.562-1.799,3.925-2.662
			c0.663-0.438,1.365-0.852,2.085-1.252l1.069-0.608l1.139-0.547l1.147-0.537c0.401-0.156,0.818-0.291,1.229-0.436l1.24-0.419
			l1.313-0.272c0.441-0.079,0.874-0.198,1.323-0.239l1.357-0.071c0.45-0.002,0.909-0.075,1.354-0.012l1.342,0.144
			c0.442,0.065,0.908,0.07,1.329,0.19l1.279,0.331l1.277,0.342l1.188,0.487c1.632,0.599,3.057,1.444,4.525,2.242
			c0.719,0.412,1.372,0.895,2.058,1.343c0.668,0.464,1.381,0.891,1.998,1.399c1.253,1,2.591,1.933,3.761,3.005
			c1.186,1.061,2.423,2.075,3.561,3.172l3.404,3.295l-0.586-0.408c0.593,0.32,0.838,0.525,1.197,0.796
			c0.33,0.259,0.614,0.532,0.916,0.802l0.807,0.852l0.721,0.894c0.464,0.604,0.863,1.236,1.251,1.87
			c0.338,0.653,0.731,1.29,0.988,1.967c0.265,0.674,0.597,1.33,0.785,2.02c0.205,0.684,0.458,1.357,0.617,2.046l0.465,2.063
			c0.128,0.689,0.205,1.381,0.31,2.07l0.133,1.034l0.052,1.035l0.101,2.063c0.004,0.687-0.024,1.369-0.036,2.052
			c-0.025,0.683-0.01,1.364-0.069,2.041l-0.206,2.025c-0.081,0.672-0.118,1.348-0.235,2.013c-0.224,1.332-0.436,2.661-0.686,3.979
			l-0.064,0.337l-0.195,0.116l-1.496,0.883l-1.517,0.813c-1.02,0.526-2.026,1.066-3.051,1.573l2.645-2.178l1.332-1.063l1.277-1.098
			l-0.261,0.453c-0.003-1.325,0.032-2.64,0.057-3.951c0.021-0.655-0.042-1.311-0.059-1.963l-0.076-1.954
			c-0.017-0.65-0.106-1.293-0.157-1.938c-0.063-0.644-0.108-1.287-0.187-1.927l-0.313-1.896l-0.154-0.945l-0.223-0.925
			c-0.146-0.614-0.267-1.237-0.431-1.841l-0.562-1.785c-0.188-0.592-0.457-1.146-0.679-1.716c-0.207-0.582-0.535-1.09-0.796-1.633
			c-0.252-0.552-0.628-1.009-0.917-1.524c-0.334-0.477-0.674-0.952-1.045-1.378l-0.564-0.626L251.515,31
			c-0.206-0.156-0.411-0.335-0.611-0.473l-0.295-0.201l-0.125-0.071l-0.057-0.033l0.014,0.009l-0.586-0.409l-3.434-3.055
			c-1.133-1.031-2.327-1.961-3.486-2.947c-0.575-0.501-1.177-0.954-1.776-1.402l-1.792-1.364c-0.588-0.479-1.223-0.843-1.833-1.261
			c-0.619-0.396-1.227-0.836-1.851-1.205c-1.262-0.69-2.51-1.455-3.809-1.93l-0.963-0.413l-0.973-0.275l-0.971-0.286
			c-0.324-0.109-0.649-0.101-0.973-0.159l-0.975-0.137c-0.325-0.066-0.647,0-0.973-0.011l-0.976,0.008
			c-0.325,0.013-0.649,0.1-0.976,0.143l-0.98,0.152l-0.981,0.294c-0.328,0.101-0.657,0.187-0.986,0.297l-0.984,0.407l-0.991,0.402
			l-0.988,0.491c-0.66,0.317-1.321,0.654-1.979,1.038c-1.324,0.707-2.662,1.494-4,2.266l-2.016,1.181
			c-0.676,0.395-1.268,0.792-1.909,1.188l-0.944,0.596l-0.904,0.649c-0.603,0.435-1.225,0.854-1.772,1.352
			c-1.159,0.936-2.226,1.976-3.229,3.075c-0.49,0.56-1.013,1.104-1.441,1.714l-0.68,0.897l-0.608,0.946
			c-0.428,0.624-0.751,1.3-1.14,1.957c-0.32,0.682-0.67,1.363-0.928,2.081C196.09,37.93,195.627,39.414,195.463,40.97z"/>
	</g>
	<path fill="none" stroke="#1C110B" stroke-width="5" stroke-miterlimit="10" d="M256.467,34.133c0,0,36.957-36.038,51.844-18.769
		c14.888,17.269,23.223,17.865,12.803,53.595c-10.421,35.73,4.767,15.78-11.91,43.77c0,0-0.297,24.118,2.829,51.361
		c3.126,27.244,7.297,62.678-13.249,102.874c-20.545,40.196-31.263,17.864-28.582-1.489c2.679-19.354,7.963-41.687-13.733-94.089
		c0,0-8.895-20.545-13.659,3.871s-9.828,23.522-15.783,87.538c0,0,0.3,22.331-8.039,22.331c-8.338,0-15.483-3.572-20.248-17.863
		c-4.765-14.292-12.602-72.581-10.9-123.269c0.909-27.081-0.941-25.229-2.2-39.898c0,0-23.226-42.281-4.17-79.202
		c0,0,5.957-13.695,20.249,0"/>
	<path fill="none" stroke="#1C110B" stroke-width="5" stroke-miterlimit="10" d="M184.103,100.999c0,0,9.128,7.709,59.597,5.252
		c50.469-2.456,36.947,6.174,72.515-6.181"/>
	<path fill="none" stroke="#1C110B" stroke-width="5" stroke-miterlimit="10" d="M248.325,25.258c0,0,26.412-19.246,34.898-20.39
		c8.485-1.145,9.604,3.36,11.835,5.813"/>
</g>
<g>
	<g>
		<path fill="#1C110B" d="M120.321,388.09c-0.595,0.566-1.212,1.1-1.818,1.647c-0.625,0.523-1.22,1.077-1.872,1.576
			c-0.662,0.493-1.35,0.957-2.031,1.438c-0.344,0.237-0.683,0.487-1.034,0.713l-1.077,0.636c-0.733,0.396-1.432,0.87-2.209,1.207
			c-0.773,0.341-1.525,0.731-2.333,1.032c-0.816,0.281-1.613,0.601-2.492,0.804l-0.649,0.169l-0.7,0.121l-0.362,0.057
			c-0.154,0.013-0.303,0.029-0.462,0.034l-0.604,0.025l-1.211,0.053c-0.403,0.018-0.826,0.013-1.147,0.083l-1.029,0.146
			c-0.343,0.036-0.684,0.091-1.025,0.194c-0.685,0.164-1.378,0.3-1.992,0.572c-0.66,0.196-1.207,0.544-1.791,0.82
			c-0.521,0.355-1.056,0.689-1.479,1.128c-0.241,0.19-0.423,0.434-0.622,0.659c-0.213,0.215-0.375,0.47-0.541,0.722
			c-0.345,0.492-0.587,1.054-0.808,1.616c-0.083,0.291-0.194,0.575-0.252,0.866c-0.041,0.146-0.063,0.285-0.086,0.424
			c-0.014,0.072-0.023,0.139-0.028,0.194c-0.009,0.061-0.017,0.133-0.017,0.107l-4.512,1.365l-0.207-0.24
			c-0.091-0.109-0.207-0.221-0.318-0.332c-0.223-0.224-0.474-0.441-0.729-0.654c-0.511-0.428-1.078-0.819-1.678-1.16
			c-0.29-0.188-0.612-0.327-0.924-0.485c-0.305-0.171-0.635-0.299-0.962-0.432c-0.323-0.142-0.654-0.271-1.001-0.368
			c-0.344-0.099-0.676-0.238-1.032-0.309l-1.062-0.255c-0.354-0.086-0.726-0.117-1.089-0.181c-0.726-0.138-1.479-0.154-2.228-0.229
			c-0.374-0.047-0.757-0.017-1.138-0.024l-1.146-0.006l-2.318,0.151l-0.124,0.018c-0.449,0.012-0.752-0.012-1.109-0.042
			c-0.343-0.031-0.681-0.076-1.014-0.135c-0.669-0.106-1.322-0.283-1.96-0.492c-0.636-0.226-1.258-0.481-1.848-0.806
			c-0.298-0.151-0.574-0.354-0.857-0.528c-0.287-0.168-0.541-0.393-0.801-0.599c-0.263-0.204-0.515-0.416-0.739-0.663
			c-0.226-0.242-0.472-0.459-0.673-0.718l-0.575-0.79c-0.195-0.256-0.321-0.562-0.48-0.835c-0.146-0.283-0.315-0.551-0.413-0.854
			l-0.321-0.882c-0.119-0.285-0.15-0.604-0.227-0.9l-0.181-0.896l0.472,0.78c0.162,0.253,0.278,0.524,0.478,0.753l0.533,0.7
			c0.158,0.243,0.379,0.438,0.574,0.647c0.208,0.199,0.377,0.425,0.606,0.594l0.655,0.523c0.213,0.175,0.463,0.305,0.687,0.458
			c0.223,0.158,0.467,0.279,0.715,0.393c0.246,0.115,0.478,0.247,0.739,0.325c0.259,0.084,0.499,0.193,0.763,0.256
			c0.516,0.145,1.035,0.26,1.561,0.336c0.531,0.06,1.059,0.104,1.585,0.102c0.265,0.002,0.524-0.008,0.782-0.029
			c0.242-0.018,0.54-0.053,0.688-0.089l-0.124,0.018c0.846-0.18,1.693-0.368,2.551-0.537l1.306-0.164
			c0.438-0.043,0.872-0.124,1.318-0.125l1.335-0.049c0.444-0.027,0.895,0.017,1.345,0.039c0.45,0.034,0.901,0.038,1.352,0.102
			l1.354,0.197c0.452,0.064,0.896,0.204,1.346,0.306c0.451,0.099,0.895,0.235,1.333,0.392c0.442,0.147,0.886,0.292,1.314,0.489
			c0.43,0.19,0.863,0.37,1.276,0.606c0.841,0.437,1.651,0.946,2.423,1.538c0.389,0.292,0.757,0.614,1.119,0.963
			c0.181,0.177,0.36,0.349,0.539,0.55c0.19,0.208,0.327,0.354,0.584,0.698l-4.512,1.366c0.008-0.228,0.024-0.355,0.038-0.496
			c0.013-0.146,0.031-0.278,0.053-0.404c0.039-0.261,0.081-0.521,0.143-0.766c0.101-0.502,0.256-0.98,0.413-1.461
			c0.363-0.938,0.797-1.857,1.378-2.688c0.283-0.42,0.573-0.834,0.925-1.201c0.333-0.382,0.671-0.759,1.067-1.068
			c0.743-0.688,1.593-1.201,2.437-1.701c0.874-0.414,1.753-0.837,2.661-1.059c0.899-0.309,1.802-0.442,2.702-0.585
			c0.444-0.084,0.904-0.119,1.371-0.13l1.382-0.057c0.481-0.031,0.867,0.003,1.271,0.032l1.209,0.088l0.605,0.044l0.143,0.011
			l0.238-0.012c0.324-0.007,0.673-0.037,1.04-0.089c0.717-0.055,1.458-0.239,2.199-0.379c0.745-0.141,1.482-0.385,2.231-0.573
			c0.755-0.179,1.481-0.484,2.23-0.723l1.126-0.368c0.371-0.134,0.729-0.292,1.096-0.437c0.733-0.292,1.461-0.605,2.215-0.89
			c0.75-0.299,1.479-0.677,2.22-1.012C118.821,388.741,119.56,388.399,120.321,388.09z"/>
	</g>
	<path fill="none" stroke="#1C110B" stroke-width="5" stroke-miterlimit="10" d="M70.596,391.959c0,0,2.979-11.609,22.629,4.617"/>
	<path fill="none" stroke="#1C110B" stroke-width="5" stroke-miterlimit="10" d="M93.226,396.204c0,0,13.994-5.734,22.331-14.071
		c8.337-8.336,16.377,3.569,20.544,10.123c4.168,6.554,18.759,22.037,8.934,55.384c-9.826,33.347-11.018,45.854-11.911,79.201
		s-5.359,138.455-47.343,143.517c-41.981,5.063-69.82-99.003-68.928-132.052c0.894-33.051-0.462-34.537-0.081-50.172
		c0.171-6.996-15.253-19.65-9.745-42.28c0,0,5.789-16.755,15.633-30.669c0,0,23.521-43.175,47.938-23.226l8.016,8.116"/>
	<path fill="none" stroke="#1C110B" stroke-width="5" stroke-miterlimit="10" d="M16.221,485.369c0,0,6.884,2.445,27.429,0
		s23.226-10.933,40.644-13.166c17.418-2.231,32.606,3.573,54.936-3.126"/>
</g>
<g>
	<g>
		<path fill="#1C110B" d="M406.378,404.228c-0.027-0.356-0.181-1.005-0.361-1.536c-0.195-0.555-0.411-1.119-0.695-1.659
			c-0.269-0.546-0.585-1.078-0.934-1.592c-0.35-0.515-0.722-1.021-1.144-1.491c-0.398-0.489-0.864-0.929-1.316-1.381
			c-0.484-0.423-0.956-0.863-1.486-1.244c-0.489-0.389-1.095-0.813-1.672-1.229l-1.734-1.239c-2.311-1.641-4.626-3.229-7.024-4.604
			c-1.2-0.681-2.421-1.309-3.667-1.828c-0.623-0.26-1.251-0.477-1.884-0.675l-0.951-0.245l-0.95-0.167l-0.65-0.262
			c0.131,0.097,0.077,0.043,0.083,0.051c-0.003-0.008-0.03-0.017-0.049-0.027c-0.05-0.02-0.113-0.04-0.188-0.053
			c-0.149-0.029-0.343-0.03-0.544-0.01c-0.409,0.042-0.866,0.178-1.318,0.365c-0.912,0.38-1.813,0.952-2.67,1.594
			c-1.72,1.292-3.293,2.858-4.796,4.48c-2.991,3.276-5.665,6.876-8.229,10.542c2.23-3.88,4.577-7.708,7.317-11.306
			c1.385-1.787,2.845-3.535,4.575-5.095c0.868-0.776,1.803-1.51,2.911-2.097c0.558-0.289,1.158-0.543,1.854-0.686
			c0.349-0.067,0.719-0.11,1.126-0.082c0.202,0.013,0.414,0.046,0.634,0.103c0.113,0.034,0.222,0.063,0.345,0.118
			c0.059,0.023,0.117,0.051,0.187,0.087c0.075,0.043,0.107,0.051,0.262,0.167l-0.648-0.262l1.171,0.109l1.144,0.197
			c0.747,0.168,1.485,0.359,2.202,0.594c1.435,0.466,2.808,1.041,4.145,1.663c2.667,1.258,5.189,2.711,7.661,4.184l1.847,1.107
			c0.613,0.372,1.21,0.716,1.875,1.167c0.659,0.41,1.273,0.896,1.897,1.373c0.599,0.511,1.206,1.016,1.758,1.593
			c0.569,0.554,1.095,1.164,1.594,1.796c0.499,0.633,0.965,1.299,1.38,2.005c0.429,0.696,0.789,1.443,1.12,2.212
			c0.324,0.803,0.592,1.526,0.785,2.581L406.378,404.228z"/>
	</g>
	<g>
		<path fill="#1C110B" d="M383.253,390.408c0.218,0.653,0.5,1.272,0.838,1.854c0.349,0.573,0.711,1.13,1.141,1.625
			c0.413,0.507,0.895,0.945,1.384,1.352l0.772,0.554l0.812,0.478l0.854,0.387c0.287,0.118,0.592,0.199,0.883,0.301
			c0.285,0.113,0.605,0.146,0.904,0.222l0.453,0.099l0.007,0.001c-0.154-0.035-0.038-0.009-0.071-0.017l0.017,0.002l0.031,0.003
			l0.064,0.007l0.128,0.013l0.255,0.026c0.321,0.023,0.723,0.12,0.977,0.085l0.826-0.024c0.609-0.065,1.215-0.138,1.843-0.274
			c0.631-0.125,1.263-0.284,1.944-0.443c0.33-0.082,0.675-0.162,1.04-0.226c0.355-0.069,0.711-0.142,1.104-0.183
			c0.75-0.108,1.575-0.154,2.418-0.09c0.854,0.052,1.713,0.273,2.543,0.567l1.182,0.565c0.38,0.207,0.702,0.465,1.055,0.703
			c0.17,0.123,0.348,0.243,0.512,0.371l0.438,0.413l0.867,0.841c0.489,0.59,0.992,1.186,1.448,1.792l1.23,1.861l-4.014,0.055
			c0.4-0.742,0.742-1.305,1.145-1.908c0.383-0.599,0.804-1.159,1.216-1.729c0.86-1.106,1.772-2.17,2.751-3.171
			c0.97-1.013,2.021-1.94,3.105-2.829l1.676-1.275c0.581-0.395,1.171-0.778,1.764-1.156c0.58-0.398,1.222-0.697,1.834-1.041
			c0.619-0.336,1.235-0.675,1.891-0.938l1.938-0.834l2.004-0.657c0.336-0.104,0.666-0.225,1.005-0.316l1.024-0.237l2.051-0.455
			l2.078-0.262l1.038-0.128l0.259-0.032l0.114-0.01l0.031-0.001l0.061-0.002l0.123-0.003c0.15-0.008,0.332-0.004,0.553,0.013
			l1.228,0.083c0.413,0.029,0.726,0.118,1.093,0.175c0.699,0.146,1.437,0.22,2.097,0.437l2,0.617c0.33,0.107,0.667,0.202,0.99,0.318
			l0.945,0.403l1.884,0.808c0.622,0.277,1.267,0.512,1.844,0.862c1.185,0.649,2.346,1.338,3.51,2.002
			c0.289,0.17,0.585,0.329,0.866,0.508l0.82,0.577c0.545,0.387,1.096,0.761,1.632,1.157c1.071,0.795,2.159,1.557,3.201,2.37
			c1.009,0.863,1.979,1.771,2.964,2.65c0.98,0.884,1.94,1.788,2.887,2.698c-1.166-0.631-2.318-1.27-3.449-1.925
			c-1.127-0.663-2.27-1.296-3.372-1.975c-1.146-0.611-2.324-1.161-3.478-1.74c-0.58-0.281-1.146-0.588-1.718-0.88l-0.854-0.442
			c-0.291-0.134-0.593-0.244-0.888-0.367c-1.184-0.486-2.369-0.948-3.532-1.449c-0.573-0.278-1.186-0.43-1.78-0.627l-1.789-0.568
			l-0.891-0.283c-0.3-0.075-0.603-0.126-0.901-0.191l-1.794-0.376c-0.596-0.156-1.177-0.153-1.763-0.241
			c-0.28-0.023-0.608-0.089-0.851-0.082l-0.729-0.007l-0.185-0.005l-0.244,0.019l-0.122,0.01l-0.062,0.005l-0.03,0.002
			c-0.022,0.002,0.146-0.013,0.068-0.005l-0.016,0.002l-0.226,0.041l-0.901,0.16l-1.801,0.313l-1.758,0.476l-0.88,0.229
			c-0.289,0.088-0.57,0.203-0.855,0.303l-1.706,0.613l-1.648,0.749c-0.561,0.227-1.084,0.528-1.611,0.822
			c-0.522,0.301-1.073,0.555-1.565,0.907l-1.521,0.985l-1.455,1.085c-0.94,0.762-1.86,1.554-2.732,2.4
			c-0.877,0.842-1.69,1.746-2.472,2.674c-0.375,0.472-0.766,0.938-1.11,1.425c-0.353,0.465-0.706,1.011-0.952,1.404l-2.104,3.369
			l-1.911-3.314l-0.933-1.617c-0.33-0.507-0.683-0.979-1.023-1.471l-0.564-0.624l-0.278-0.319l-0.297-0.256
			c-0.2-0.161-0.39-0.365-0.597-0.504c-0.212-0.123-0.421-0.253-0.631-0.391c-0.44-0.196-0.892-0.384-1.402-0.464
			c-0.51-0.093-1.063-0.128-1.667-0.099c-0.29-0.002-0.61,0.03-0.929,0.062l-0.984,0.092c-0.664,0.063-1.378,0.143-2.102,0.187
			c-0.727,0.059-1.483,0.051-2.24,0.022c-0.403-0.037-0.816-0.092-1.218-0.146c-0.433-0.042-0.689-0.16-1.043-0.236l-0.574-0.158
			l-0.523-0.21c-0.346-0.151-0.7-0.257-1.027-0.451c-0.33-0.181-0.666-0.342-0.982-0.541l-0.924-0.633l-0.851-0.721
			c-0.258-0.268-0.512-0.535-0.752-0.813c-0.459-0.575-0.88-1.169-1.21-1.809c-0.354-0.624-0.602-1.299-0.803-1.973
			C383.41,391.79,383.278,391.098,383.253,390.408z"/>
	</g>
	<path fill="none" stroke="#1C110B" stroke-width="5" stroke-miterlimit="10" d="M449.823,393.412c0,0,8.686-8.374,14.49-9.521
		c0,0,6.931,1.455,19.279,30.636c12.348,29.181,16.078,28.88,0,63.718c0,0-1.785,2.085-2.083,18.164s3.571,83.965-28.585,150.514
		c0,0-21.886,38.854-50.47-4.021c-28.584-42.876-35.43-136.667-38.261-162.125c-2.829-25.458-11.314-12.059-8.188-66.102
		c0,0,16.079-57.614,41.09-28.584c0,0,12.098,7.111,15.335,11.909c0,0,9.677-15.035,27.318-17.269c0,0,8.933-0.119,15.632,7.868"/>
	<path fill="none" stroke="#1C110B" stroke-width="5" stroke-miterlimit="10" d="M363.098,473.731c0,0,7.204,6.598,20.155,3.472
		c12.949-3.127,29.523-6.252,41.558-5.807c12.035,0.447,55.509,6.996,58.782,6.848"/>
	<g>
		<path fill="#1C110B" d="M375.658,529.905c0,0,0.199,1.055,0.571,3.03c0.379,1.975,0.989,4.861,1.756,8.531
			c1.57,7.332,3.937,17.781,7.358,30.134c1.725,6.171,3.748,12.808,6.108,19.733c2.391,6.913,5.228,14.085,8.599,21.248
			c3.43,7.111,7.533,14.243,12.87,20.295c2.64,2.896,5.911,5.756,9.067,8.435c3.2,2.674,6.55,5.231,10.037,7.035
			c1.729,0.896,3.509,1.545,5.092,1.64c0.407,0.064,0.766-0.02,1.146-0.016c0.352-0.094,0.723-0.109,1.055-0.266
			c0.69-0.214,1.343-0.63,1.981-1.164c1.274-1.078,2.426-2.646,3.44-4.354c1.022-1.711,1.95-3.551,2.845-5.424
			c1.759-3.81,3.504-7.587,5.229-11.319c0.422-0.945,0.843-1.887,1.262-2.825c0.377-0.932,0.754-1.859,1.128-2.784
			c0.77-1.834,1.457-3.724,2.147-5.591c2.717-7.482,5.063-14.851,7.102-21.892c2.036-7.044,3.73-13.773,5.208-20.007
			c0.354-1.563,0.699-3.093,1.038-4.587c0.313-1.5,0.619-2.967,0.918-4.396c0.63-2.854,1.104-5.582,1.582-8.143
			c0.484-2.562,0.794-4.977,1.185-7.199c0.329-2.229,0.573-4.286,0.826-6.143c0.37-3.721,0.712-6.652,0.769-8.659
			c0.111-2.009,0.17-3.08,0.17-3.08s0.035,1.071,0.102,3.083c0.106,2.015,0.074,4.97-0.048,8.734
			c-0.117,1.877-0.212,3.962-0.38,6.228c-0.212,2.259-0.406,4.71-0.729,7.313c-0.61,5.211-1.436,11.08-2.621,17.432
			c-1.179,6.351-2.566,13.218-4.414,20.394c-1.815,7.184-3.903,14.725-6.56,22.397c-0.664,1.918-1.322,3.852-2.093,5.802
			c-0.372,0.974-0.746,1.951-1.121,2.933c-0.398,0.946-0.801,1.896-1.203,2.851l-0.604,1.432l-0.646,1.462
			c-0.419,0.948-0.838,1.9-1.259,2.854c-0.854,1.908-1.716,3.839-2.625,5.78c-0.911,1.941-1.876,3.899-3.021,5.847
			c-1.147,1.935-2.484,3.908-4.456,5.619c-1.9,1.73-4.924,2.896-7.619,2.641c-2.708-0.166-5.025-1.089-7.097-2.141
			c-4.122-2.179-7.595-4.919-10.927-7.729c-3.325-2.872-6.479-5.63-9.512-8.986c-2.973-3.286-5.336-6.922-7.521-10.555
			c-2.196-3.637-4.001-7.391-5.729-11.09c-3.366-7.439-5.961-14.86-8.151-21.951c-2.192-7.094-3.909-13.889-5.346-20.186
			c-1.453-6.294-2.564-12.104-3.471-17.266c-0.921-5.158-1.577-9.678-2.091-13.4c-0.523-3.723-0.829-6.66-1.049-8.66
			C375.766,530.973,375.658,529.905,375.658,529.905z"/>
	</g>
</g>
<g>
	<g>
		<path fill="#1C110B" d="M183.838,606.345c0.008-0.568,0.082-1.135,0.166-1.699c0.097-0.563,0.198-1.128,0.346-1.681
			c0.127-0.562,0.298-1.108,0.47-1.657c0.154-0.559,0.397-1.078,0.594-1.621c0.205-0.54,0.464-1.053,0.695-1.583
			c0.228-0.533,0.523-1.027,0.783-1.545c0.258-0.521,0.561-1.011,0.86-1.506c0.301-0.494,0.593-0.997,0.937-1.462l1-1.422
			c0.349-0.463,0.717-0.908,1.076-1.364c0.36-0.455,0.719-0.913,1.116-1.334l1.164-1.295c0.379-0.443,0.81-0.828,1.22-1.239
			l1.252-1.212l2.631-2.277l-0.433,0.527c0.391-0.801,0.766-1.368,1.229-1.985c0.447-0.604,0.948-1.167,1.497-1.687
			c1.094-1.04,2.364-1.933,3.777-2.552c0.35-0.157,0.719-0.271,1.08-0.404c0.361-0.14,0.728-0.252,1.104-0.322l1.126-0.247
			c0.377-0.049,0.757-0.078,1.137-0.114c1.52-0.146,3.025-0.012,4.481,0.241c0.75,0.079,1.424,0.339,2.142,0.506
			c0.738,0.188,1.329,0.383,1.977,0.582l3.786,1.133c2.553,0.753,5.129,1.492,7.707,2.288c2.574,0.807,5.165,1.615,7.716,2.604
			c2.552,0.988,5.095,2.056,7.58,3.37c2.481,1.31,4.929,2.838,7.141,4.907c1.1,1.045,2.114,2.263,2.922,3.684
			c0.81,1.414,1.383,3.06,1.55,4.762l-4.896,0.589c-0.013-0.104-0.021-0.211-0.026-0.316v-0.175l0.011-0.322
			c0.016-0.189,0.041-0.345,0.064-0.519c0.049-0.349,0.135-0.601,0.208-0.902c0.177-0.537,0.366-1.064,0.604-1.508
			c0.222-0.477,0.474-0.901,0.738-1.306c0.252-0.427,0.534-0.799,0.819-1.168c0.554-0.772,1.185-1.399,1.79-2.077
			c0.645-0.6,1.258-1.264,1.932-1.805c1.315-1.146,2.683-2.181,4.09-3.139l2.127-1.391l2.169-1.282
			c1.436-0.88,2.936-1.598,4.398-2.4l4.509-2.191c1.44-0.652,3.113-1.328,4.735-1.859c1.65-0.523,3.367-0.955,5.172-1.143
			c1.799-0.188,3.7-0.097,5.509,0.399c1.814,0.485,3.448,1.401,4.866,2.439c1.425,1.047,2.666,2.227,3.83,3.438
			c1.168,1.21,2.241,2.468,3.286,3.74c4.151,5.095,8.108,10.232,12.352,15.226c-1.225-1.084-2.439-2.181-3.643-3.294
			c-1.194-1.12-2.365-2.266-3.531-3.416c-2.344-2.287-4.576-4.686-6.878-6.971c-2.3-2.271-4.591-4.571-7.149-6.163
			c-1.272-0.795-2.602-1.375-3.966-1.648c-1.363-0.289-2.775-0.286-4.209-0.056c-1.435,0.228-2.879,0.67-4.311,1.213
			c-1.452,0.564-2.77,1.203-4.276,1.946l-4.225,2.23c-1.368,0.814-2.795,1.555-4.114,2.428l-2.002,1.275l-1.927,1.354
			c-1.25,0.935-2.493,1.864-3.622,2.881c-0.597,0.485-1.08,1.039-1.628,1.552c-0.471,0.547-1.001,1.078-1.385,1.645
			c-0.212,0.277-0.423,0.556-0.577,0.838c-0.183,0.279-0.344,0.558-0.459,0.826c-0.151,0.274-0.219,0.526-0.304,0.761
			c-0.015,0.095-0.067,0.229-0.064,0.289l-0.014,0.088c0.003-0.006,0.003-0.013,0.002-0.018c-0.001-0.009-0.002,0.009-0.003-0.021
			c-0.002-0.055-0.007-0.11-0.018-0.164l-4.895,0.589c-0.201-1.918-1.369-3.719-3.014-5.343c-1.677-1.607-3.769-2.984-5.995-4.185
			c-2.225-1.211-4.604-2.244-7.021-3.21c-2.425-0.954-4.89-1.874-7.392-2.729c-2.499-0.863-5.031-1.685-7.576-2.525
			c-1.275-0.427-2.546-0.842-3.842-1.318c-0.616-0.229-1.284-0.486-1.834-0.65c-0.575-0.163-1.146-0.432-1.729-0.514
			c-1.158-0.268-2.33-0.438-3.475-0.39l-0.861,0.033l-0.839,0.142c-0.285,0.029-0.56,0.099-0.827,0.189
			c-0.269,0.087-0.548,0.147-0.812,0.249c-1.057,0.408-2.057,0.98-2.957,1.714c-0.451,0.364-0.876,0.772-1.258,1.214
			c-0.381,0.415-0.769,0.952-0.998,1.335l-0.224,0.372l-0.209,0.155l-2.666,1.974l-1.273,1.06c-0.418,0.359-0.875,0.683-1.271,1.068
			l-1.224,1.119c-0.419,0.365-0.799,0.767-1.184,1.164c-0.382,0.399-0.776,0.79-1.15,1.198l-1.083,1.26
			c-0.376,0.411-0.688,0.868-1.035,1.303c-0.342,0.438-0.688,0.874-0.99,1.34c-0.305,0.463-0.648,0.907-0.924,1.39
			c-0.28,0.479-0.59,0.947-0.847,1.44c-0.252,0.496-0.536,0.98-0.766,1.491c-0.24,0.505-0.481,1.012-0.682,1.535
			c-0.221,0.519-0.396,1.052-0.569,1.588C184.077,605.239,183.926,605.785,183.838,606.345z"/>
	</g>
	<path fill="none" stroke="#1C110B" stroke-width="5" stroke-miterlimit="10" d="M244.352,590.355c0,0,16.145-8.477,32.661-8.475"/>
	<path fill="none" stroke="#1C110B" stroke-width="5" stroke-linecap="round" stroke-miterlimit="10" d="M198.315,584.609
		c0,0-29.664,5.361-21.026,47.641c8.636,42.279,8.962,32.158,9.096,74.438c0.135,42.28-9.342,47.042,10.729,123.861
		c0,0,13.372,44.216,35.704,36.623c0,0,12.06-1.341,2.681-27.69c-9.379-26.352,0-108.083,20.099-108.53
		c0,0,8.039-0.445,10.719,20.546c0,0,5.359,44.439,7.369,66.322c0,0,3.126,33.722,17.195,33.498c0,0,16.301,2.01,18.759-35.729
		c2.455-37.74,5.063-81.955,4.316-115.898c0,0-0.745-16.913,6.848-49.992c0,0,4.914-17.448,3.572-33.975
		c0,0,1.493-19.601-26.238-31.113"/>
	<path fill="none" stroke="#1C110B" stroke-width="5" stroke-miterlimit="10" d="M185.52,673.488c0,0,2.857,1.412,8.665-1.267
		c5.805-2.682,10.048-6.478,19.427-6.923c9.381-0.446,18.759,7.815,33.052,6.477c14.291-1.34,23.001-7.182,35.061-6.494
		c12.06,0.688,27.166,13.992,33.569,14.82"/>
</g>
<g>
	<path fill="none" stroke="#1C110B" stroke-width="5" stroke-linecap="round" stroke-miterlimit="10" d="M182.313,459.101
		c0,0-11.872,43.717,24.565,57.614c21.661,8.263,35.833,0.437,45.107,0c20.974-0.987,50.915,15.185,62.527-28.585
		c3.455-13.019-1.676-19.337,0.224-25.682c4.486-14.981,11.954-20.41,3.797-44.886c0,0-3.351-10.942-17.194-15.632
		c0,0-14.069-16.462-31.935-16.94c0,0-8.484-7.847-37.069-4.497c0,0-30.146-7.593-48.013,19.428
		C166.459,426.944,177.401,452.178,182.313,459.101z"/>
	<g>
		<path fill="#1C110B" d="M186.333,453.296c2.011-1.577,4.058-3.099,6.108-4.61c2.051-1.515,4.13-2.982,6.193-4.475l0.41-0.297
			l0.629,0.175c1.893,0.524,3.74,1.1,5.598,1.706c1.856,0.603,3.7,1.261,5.522,2.02c1.829,0.76,3.641,1.554,5.465,2.635
			c0.456,0.274,0.913,0.555,1.38,0.921l0.348,0.261l0.086,0.064l0.021,0.018c-0.059-0.05,0.147,0.118-0.129-0.106l0.009,0.007
			l0.037,0.025l0.148,0.104l0.147,0.104l0.071,0.05l0.01-0.012c0.012-0.015,0.016-0.021,0.018-0.018
			c0.338,0.128,1.099,0.206,1.88,0.149c1.612-0.113,3.453-0.508,5.307-0.919c1.861-0.419,3.78-0.854,5.771-1.177
			c1.991-0.325,4.063-0.566,6.236-0.47c2.158,0.083,4.478,0.521,6.615,1.636l-1.479-0.269c1.319-0.173,2.692-0.372,4.036-0.584
			c1.349-0.231,2.705-0.415,4.051-0.662c1.346-0.243,2.697-0.464,4.038-0.723l4.02-0.796c1.342-0.261,2.649-0.616,3.981-0.903
			l1.991-0.455l1.945-0.557l1.956-0.536c0.653-0.177,1.313-0.344,1.924-0.593l3.758-1.367l0.508-0.186l0.267,0.01
			c2.978,0.099,5.955,0.304,8.933,0.45l0.187,0.009l0.047,0.011c0.26,0.062,0.61,0.105,0.931,0.156
			c0.321,0.059,0.666,0.066,0.999,0.11c0.336,0.03,0.671,0.085,1.013,0.084l1.024,0.034c0.687,0.049,1.371-0.021,2.061-0.043
			l1.036-0.052l1.029-0.136c0.686-0.1,1.393-0.128,2.071-0.286l2.054-0.454c0.343-0.081,0.696-0.133,1.024-0.257l1.009-0.324
			l2.041-0.645l-1.871,1.048l-0.948,0.521c-0.312,0.189-0.646,0.315-0.98,0.45l-2.018,0.813c-0.674,0.278-1.386,0.43-2.083,0.651
			l-1.059,0.295l-1.078,0.205c-0.723,0.124-1.443,0.295-2.181,0.347l-1.105,0.115c-0.368,0.049-0.743,0.043-1.116,0.062
			c-0.377,0.007-0.745,0.04-1.13,0.011c-0.387-0.02-0.746-0.021-1.188-0.074l0.231,0.021c-2.978,0.146-5.955,0.352-8.933,0.449
			l0.772-0.176l-3.932,1.792c-0.655,0.322-1.324,0.549-1.992,0.788l-2.006,0.721l-2.018,0.696l-2.032,0.585
			c-1.356,0.382-2.712,0.801-4.079,1.122l-4.104,0.977c-1.372,0.299-2.749,0.559-4.125,0.84c-1.373,0.292-2.759,0.503-4.142,0.744
			c-1.392,0.229-2.759,0.44-4.187,0.64l-0.747,0.104l-0.732-0.37c-1.295-0.657-2.834-1.025-4.518-1.097
			c-1.677-0.081-3.46,0.065-5.273,0.317c-1.817,0.257-3.667,0.624-5.582,0.966c-1.921,0.336-3.872,0.727-6.114,0.753
			c-1.132-0.018-2.348-0.054-3.787-0.698c-0.212-0.107-0.421-0.226-0.624-0.35l-0.149-0.094l-0.074-0.059l-0.142-0.111l-0.402-0.324
			l-0.219-0.188c-0.271-0.257-0.614-0.509-0.967-0.759c-1.419-1.002-3.079-1.902-4.749-2.748c-0.835-0.428-1.693-0.83-2.551-1.232
			c-0.854-0.414-1.718-0.813-2.586-1.206c-1.733-0.784-3.504-1.537-5.259-2.25l1.039-0.122c-2.254,1.187-4.491,2.398-6.759,3.563
			C190.91,451.034,188.639,452.192,186.333,453.296z"/>
	</g>
	<g>
		<path fill="#1C110B" d="M247.74,452.892c0,0-0.064,1.991-0.161,4.978c-0.042,1.492-0.127,3.243-0.123,5.089
			c-0.016,1.856-0.031,3.837-0.046,5.816c-0.052,3.963,0,7.961-0.009,10.947c0.018,2.99,0.029,4.982,0.029,4.982
			s-0.323-1.968-0.807-4.919c-0.461-2.959-1.132-6.879-1.708-10.848c-0.297-1.985-0.596-3.97-0.874-5.831
			c-0.299-1.869-0.486-3.596-0.679-5.081c-0.37-2.97-0.617-4.949-0.617-4.949L247.74,452.892z"/>
	</g>
	<g>
		<path fill="#1C110B" d="M239.3,453.945c0,0-0.033-0.168-0.096-0.48c-0.06-0.318-0.146-0.785-0.254-1.379
			c-0.201-1.173-0.469-2.835-0.709-4.835c-0.131-0.998-0.242-2.083-0.354-3.229c-0.122-1.144-0.193-2.355-0.296-3.604
			c-0.058-1.253-0.153-2.542-0.182-3.857c-0.03-1.314-0.082-2.646-0.058-3.98c-0.004-1.333,0.019-2.663,0.084-3.974
			c0.034-1.309,0.121-2.595,0.227-3.837c0.076-1.243,0.205-2.439,0.349-3.572c0.128-1.132,0.251-2.201,0.431-3.18
			c0.161-0.979,0.31-1.876,0.44-2.671c0.17-0.788,0.318-1.475,0.439-2.039c0.244-1.127,0.384-1.771,0.384-1.771
			s-0.063,0.656-0.171,1.804c-0.055,0.573-0.12,1.269-0.195,2.065c-0.036,0.799-0.076,1.702-0.12,2.687
			c-0.063,0.98-0.058,2.047-0.051,3.173c-0.009,1.125,0.005,2.309,0.075,3.535c0.042,1.224,0.106,2.486,0.226,3.768
			c0.087,1.281,0.221,2.578,0.379,3.873c0.13,1.295,0.335,2.583,0.515,3.852c0.18,1.267,0.423,2.506,0.62,3.705
			c0.245,1.194,0.451,2.352,0.7,3.438c0.239,1.088,0.47,2.115,0.708,3.055c0.458,1.886,0.9,3.435,1.219,4.505
			c0.163,0.524,0.29,0.938,0.377,1.219c0.094,0.282,0.143,0.434,0.143,0.434L239.3,453.945z"/>
	</g>
	<g>
		<path fill="#1C110B" d="M236.177,450.9c0,0,0.015,0.036,0.044,0.105c0.047,0.123,0.117,0.305,0.209,0.543
			c0.141,0.444,0.281,0.968,0.371,1.642c0.063,0.339,0.092,0.7,0.108,1.087c0.022,0.391,0.055,0.813,0.024,1.242
			c-0.022,0.432-0.016,0.901-0.074,1.373c-0.063,0.469-0.128,0.962-0.195,1.477c-0.081,0.509-0.218,1.018-0.331,1.552
			c-0.106,0.537-0.258,1.074-0.441,1.612c-0.175,0.542-0.34,1.104-0.539,1.661c-0.222,0.546-0.449,1.104-0.679,1.669
			c-0.115,0.281-0.232,0.565-0.349,0.853c-0.137,0.274-0.273,0.553-0.412,0.831c-0.276,0.555-0.557,1.116-0.837,1.684
			c-0.586,1.115-1.266,2.193-1.896,3.294c-0.677,1.071-1.404,2.105-2.09,3.138c-0.691,1.029-1.469,1.97-2.167,2.913
			c-0.356,0.468-0.706,0.925-1.049,1.374c-0.364,0.432-0.721,0.854-1.067,1.265c-0.691,0.817-1.346,1.593-1.95,2.308
			c-0.604,0.711-1.211,1.32-1.721,1.882c-0.516,0.556-0.965,1.039-1.336,1.438c-0.739,0.795-1.162,1.25-1.162,1.25
			s0.362-0.505,0.997-1.389c0.316-0.44,0.701-0.977,1.142-1.591c0.435-0.618,0.953-1.293,1.462-2.07
			c0.506-0.776,1.053-1.62,1.632-2.513c0.288-0.443,0.584-0.9,0.888-1.368c0.279-0.479,0.563-0.972,0.854-1.471
			c0.563-1.008,1.203-2.013,1.744-3.091c0.536-1.081,1.107-2.161,1.624-3.262c0.466-1.123,0.98-2.224,1.395-3.332
			c0.193-0.559,0.387-1.11,0.578-1.656c0.095-0.272,0.188-0.543,0.282-0.813c0.073-0.271,0.146-0.543,0.217-0.812
			c0.143-0.534,0.283-1.061,0.421-1.573c0.111-0.517,0.189-1.021,0.285-1.512c0.103-0.489,0.173-0.964,0.2-1.421
			c0.037-0.456,0.103-0.898,0.113-1.314c0.002-0.413,0.004-0.809,0.005-1.185c0.001-0.373-0.058-0.709-0.077-1.032
			c-0.015-0.327-0.081-0.605-0.13-0.866c-0.043-0.265-0.092-0.499-0.159-0.688c-0.101-0.396-0.236-0.685-0.284-0.785
			c-0.024-0.03-0.019-0.027-0.042-0.071c-0.037-0.064-0.058-0.099-0.058-0.099L236.177,450.9z"/>
	</g>
	<g>
		<path fill="#1C110B" d="M269.191,447.179c0,0,0.274,0.443,0.754,1.221c0.484,0.766,1.154,1.908,1.955,3.277
			c0.4,0.684,0.834,1.423,1.292,2.205c0.451,0.786,0.958,1.597,1.422,2.465c0.938,1.729,1.939,3.573,2.941,5.418
			c0.499,0.92,0.998,1.84,1.489,2.745c0.51,0.894,0.915,1.831,1.357,2.706c0.859,1.764,1.662,3.408,2.351,4.818
			c1.37,2.813,2.284,4.688,2.284,4.688s-1.186-1.719-2.961-4.297c-0.887-1.285-1.92-2.784-3.026-4.392
			c-0.565-0.795-1.096-1.646-1.732-2.452c-0.616-0.816-1.243-1.646-1.871-2.477c-1.251-1.655-2.502-3.311-3.675-4.862
			c-0.58-0.778-1.19-1.488-1.742-2.185c-0.558-0.689-1.084-1.341-1.569-1.942c-0.969-1.202-1.775-2.199-2.378-2.896
			c-0.59-0.696-0.928-1.095-0.928-1.095L269.191,447.179z"/>
	</g>
	<g>
		<path fill="#1C110B" d="M244.139,451.18c0,0,0.48-0.472,1.322-1.297c0.829-0.815,2.008-2,3.407-3.461
			c1.422-1.436,2.998-3.187,4.723-5.036c0.868-0.921,1.703-1.923,2.587-2.915c0.87-1.001,1.776-2.006,2.646-3.038
			c0.854-1.045,1.709-2.089,2.55-3.118c0.83-1.037,1.702-2.024,2.435-3.054c0.757-1.017,1.489-1.998,2.185-2.93
			c0.682-0.939,1.383-1.798,1.932-2.648c2.229-3.403,3.715-5.671,3.715-5.671s-1.22,2.432-3.049,6.08
			c-0.453,0.919-1.05,1.849-1.625,2.871c-0.588,1.015-1.209,2.084-1.852,3.19c-0.619,1.125-1.374,2.208-2.088,3.348
			c-0.727,1.132-1.465,2.282-2.203,3.433c-0.755,1.14-1.546,2.251-2.307,3.362c-0.772,1.101-1.502,2.213-2.268,3.239
			c-1.521,2.063-2.912,4.019-4.182,5.636c-1.237,1.635-2.306,2.989-3.068,3.934c-0.753,0.932-1.185,1.464-1.185,1.464
			L244.139,451.18z"/>
	</g>
	<g>
		<path fill="#1C110B" d="M226.422,454.024c0,0-0.822-1.959-2.054-4.896c-1.213-2.944-2.816-6.869-4.318-10.84
			c-0.375-0.992-0.772-1.972-1.118-2.961c-0.354-0.981-0.704-1.948-1.041-2.885c-0.701-1.855-1.225-3.651-1.729-5.154
			c-0.252-0.752-0.47-1.447-0.616-2.082c-0.161-0.626-0.301-1.171-0.416-1.62c-0.229-0.895-0.36-1.405-0.36-1.405
			s0.206,0.488,0.565,1.341c0.179,0.424,0.396,0.939,0.646,1.531c0.233,0.594,0.548,1.246,0.909,1.951
			c0.719,1.41,1.485,3.074,2.449,4.803c0.468,0.869,0.952,1.766,1.443,2.678c0.48,0.914,1.019,1.824,1.53,2.743
			c2.054,3.673,4.205,7.297,5.823,10.005c1.635,2.696,2.726,4.493,2.726,4.493L226.422,454.024z"/>
	</g>
	<g>
		<path fill="#1C110B" d="M191.023,429.177c0,0-0.271-0.599-0.472-1.813c-0.191-1.204-0.32-3.076,0.35-5.352
			c0.34-1.131,0.887-2.331,1.639-3.555c0.41-0.583,0.816-1.218,1.345-1.782l0.383-0.443l0.097-0.112l0.05-0.057
			c0.03-0.029-0.034,0.024,0.074-0.072l0.026-0.024l0.209-0.193c0.282-0.26,0.569-0.523,0.861-0.792
			c0.396-0.265,0.812-0.537,1.247-0.785c0.478-0.15,0.94-0.403,1.479-0.441c1.09-0.206,2.168,0.108,3.113,0.446
			c1.828,0.761,3.313,1.82,4.869,2.083c0.768,0.191,1.534,0.096,2.313-0.033c0.393-0.146,0.785-0.256,1.181-0.413
			c0.391-0.203,0.784-0.409,1.183-0.617c0.41-0.276,0.824-0.556,1.241-0.835c0.401-0.293,0.692-0.578,1.053-0.86
			c0.335-0.317,0.671-0.669,1.002-1.012c0.293-0.389,0.628-0.729,0.899-1.153c0.58-0.794,1.083-1.72,1.618-2.693
			c0.535-0.995,1.113-2.084,1.894-3.194c0.774-1.121,1.891-2.19,3.161-2.961l0.978-0.536c0.331-0.157,0.67-0.271,1.008-0.404
			c0.682-0.293,1.354-0.414,2.039-0.59c0.188-0.041,0.307-0.082,0.55-0.123l0.449-0.076l0.903-0.153
			c0.64-0.087,1.348-0.186,2.026-0.233c1.346-0.116,2.823-0.111,4.396,0.235c1.583,0.344,3.131,1.265,4.144,1.975
			c0.543,0.366,0.989,0.667,1.458,0.951c0.231,0.122,0.458,0.262,0.693,0.375l0.354,0.167l0.177,0.085
			c0.18,0.071-0.196-0.074-0.136-0.053l0.057,0.02l0.113,0.039l0.453,0.154l0.226,0.075l0.097-0.003
			c0.146-0.008,0.192,0.049,0.451,0.038c0.417,0.026,0.893-0.006,1.403-0.089c1.021-0.159,2.165-0.497,3.362-0.878
			c2.413-0.757,5.068-1.711,8.082-1.929c0.373-0.033,0.746-0.059,1.13-0.043l0.571,0.008l0.286,0.005l0.144,0.003l0.3,0.031
			l0.962,0.124c0.423,0.08,0.99,0.24,1.467,0.392c0.474,0.18,0.9,0.417,1.337,0.65c0.394,0.293,0.83,0.583,1.154,0.921
			c0.326,0.336,0.664,0.688,0.89,1.023c0.27,0.352,0.477,0.675,0.663,0.985c0.759,1.262,1.236,2.18,1.856,2.835
			c0.594,0.668,1.339,1.135,2.271,1.497c0.437,0.208,0.969,0.319,1.475,0.46l0.189,0.052l0.048,0.014
			c0.088,0.019-0.066-0.011-0.027-0.003l0.116,0.021l0.468,0.082l0.935,0.165c1.033,0.127,2.145,0.251,3.269,0.206
			c2.236-0.016,4.439-0.519,6.854-1.058c1.214-0.265,2.502-0.531,3.9-0.616c0.348-0.025,0.696-0.041,1.063-0.021
			c0.359,0.01,0.716,0.013,1.081,0.071l0.542,0.077l0.135,0.02l0.067,0.011l0.151,0.029l0.214,0.054l0.428,0.105
			c0.132,0.031,0.283,0.07,0.488,0.14c0.773,0.245,1.439,0.521,2.089,0.919c0.656,0.373,1.243,0.879,1.757,1.397
			c1.015,1.073,1.622,2.218,2.156,3.069c0.268,0.417,0.521,0.798,0.781,1.083c0.062,0.084,0.133,0.138,0.197,0.207l0.101,0.1
			l0.023,0.025c-0.044-0.032,0.136,0.106-0.094-0.064l0.084,0.059c0.21,0.138,0.475,0.352,0.639,0.424
			c0.422,0.234,0.841,0.468,1.257,0.7c0.47,0.248,0.956,0.554,1.423,0.828c1.891,1.153,3.612,2.562,4.997,4.139
			c1.44,1.543,2.405,3.343,3.191,5.055c0.308,0.894,0.592,1.766,0.855,2.607c0.161,0.864,0.317,1.703,0.471,2.517
			c0.361,3.268,0.183,6.096-0.216,8.354c-0.205,1.131-0.329,2.146-0.563,3.003c-0.237,0.854-0.438,1.581-0.603,2.17
			c-0.326,1.171-0.5,1.796-0.5,1.796s0.081-0.644,0.233-1.851c0.075-0.602,0.169-1.342,0.279-2.211
			c0.096-0.87,0.091-1.882,0.162-2.997c0.104-1.117,0.004-2.354-0.07-3.687c-0.018-0.333-0.036-0.672-0.055-1.018
			c-0.056-0.34-0.111-0.688-0.168-1.041c-0.129-0.702-0.196-1.44-0.383-2.173c-0.65-2.957-2.146-6.072-4.716-8.548
			c-1.28-1.24-2.811-2.313-4.57-3.207c-0.451-0.222-0.905-0.446-1.364-0.673l-0.714-0.341l-0.879-0.449
			c-0.325-0.161-0.488-0.29-0.741-0.437l-0.087-0.055c-0.256-0.19-0.101-0.078-0.171-0.132l-0.051-0.043l-0.204-0.176
			c-0.133-0.119-0.278-0.235-0.392-0.362c-0.51-0.5-0.896-1.025-1.258-1.523c-0.69-0.999-1.229-1.824-1.831-2.375
			c-0.31-0.267-0.609-0.509-0.976-0.68c-0.345-0.192-0.775-0.326-1.117-0.42c-0.068-0.027-0.202-0.057-0.356-0.083l-0.434-0.082
			l-0.216-0.041c-0.04-0.008,0.138,0.028,0.043,0.013l-0.042-0.002l-0.084-0.007l-0.336-0.025c-0.22-0.035-0.456-0.022-0.689-0.021
			c-0.229-0.008-0.472,0.013-0.719,0.041c-0.979,0.091-2.052,0.338-3.198,0.631c-2.294,0.595-4.917,1.308-7.688,1.427
			c-1.372,0.096-2.775,0.013-4.249-0.142l-0.936-0.152l-0.47-0.077l-0.117-0.021c-0.001,0.001-0.193-0.036-0.145-0.027l-0.067-0.018
			l-0.27-0.066c-0.72-0.185-1.438-0.339-2.168-0.652c-1.441-0.532-2.945-1.435-4.077-2.679c-1.153-1.219-1.864-2.618-2.454-3.545
			c-0.625-0.962-0.978-1.325-1.565-1.521c-0.147-0.018-0.195-0.068-0.402-0.123l-0.964-0.113l-0.062-0.007
			c0.062,0.005-0.219-0.021,0.119,0.01h-0.1l-0.199,0.001l-0.398-0.001c-0.264-0.014-0.534,0.018-0.808,0.036
			c-2.177,0.116-4.476,0.865-6.972,1.632c-1.264,0.383-2.596,0.781-4.113,1.006c-0.755,0.109-1.567,0.171-2.425,0.109
			c-0.384,0.005-0.958-0.117-1.444-0.218l-0.375-0.086l-0.226-0.08l-0.451-0.159l-0.113-0.04l-0.056-0.02
			c0.021,0.011-0.39-0.153-0.245-0.1l-0.253-0.123l-0.505-0.246c-0.334-0.167-0.651-0.361-0.976-0.542
			c-0.611-0.382-1.217-0.786-1.706-1.147c-1.032-0.757-1.687-1.146-2.545-1.39c-0.86-0.222-1.896-0.301-3.003-0.234
			c-0.551,0.021-1.063,0.075-1.638,0.13l-0.907,0.123l-0.453,0.062c-0.058,0.005-0.23,0.049-0.341,0.069
			c-0.493,0.115-1.021,0.18-1.452,0.363c-0.222,0.082-0.461,0.144-0.673,0.235l-0.604,0.307c-0.768,0.454-1.444,0.985-2.05,1.754
			c-1.215,1.521-2.265,3.729-3.82,5.66c-0.362,0.493-0.819,0.933-1.222,1.391c-0.45,0.424-0.894,0.837-1.368,1.232
			c-0.504,0.368-1.033,0.778-1.512,1.082c-0.487,0.277-0.972,0.554-1.452,0.828c-0.551,0.233-1.097,0.466-1.638,0.695
			c-0.572,0.184-1.175,0.312-1.75,0.452c-0.616,0.036-1.222,0.132-1.824,0.078c-0.604-0.063-1.204-0.113-1.752-0.304
			c-2.26-0.646-3.792-1.959-5.169-2.665c-0.678-0.313-1.304-0.572-1.897-0.506c-0.306-0.03-0.602,0.13-0.911,0.166
			c-0.279,0.137-0.554,0.275-0.843,0.399c-0.314,0.236-0.624,0.468-0.929,0.696l-0.228,0.172l-0.028,0.021
			c0.091-0.083,0.011-0.011,0.025-0.022l-0.048,0.046l-0.098,0.092l-0.384,0.365c-0.53,0.468-0.954,0.99-1.396,1.473
			c-0.808,1.019-1.439,2.048-1.876,3.048c-0.846,2.014-1.042,3.794-1.012,4.991C190.843,428.544,191.023,429.177,191.023,429.177z"
			/>
	</g>
	<g>
		<path fill="#1C110B" d="M197.946,482.995c0.658,0.725,1.17,1.554,1.769,2.311c0.587,0.767,1.181,1.521,1.792,2.26
			c1.224,1.475,2.544,2.853,3.918,4.138c1.377,1.287,2.878,2.411,4.427,3.401c1.551,0.987,3.192,1.795,4.893,2.356
			c1.703,0.545,3.447,0.885,5.203,0.967c0.879,0.041,1.757,0.011,2.632-0.063l1.266-0.157l1.427-0.256l1.428-0.256l1.332-0.299
			c0.887-0.178,1.767-0.419,2.644-0.677c0.892-0.222,1.712-0.578,2.57-0.852c0.816-0.347,1.646-0.666,2.416-1.081
			c1.567-0.798,2.965-1.761,4.444-2.917c0.756-0.58,1.526-1.217,2.477-1.838c0.91-0.632,2.033-1.187,3.185-1.558l0.876-0.242
			l0.219-0.059l0.056-0.016l0.26-0.042l0.09-0.011l0.359-0.045l0.09-0.012l0.179-0.007h0.376c0.243,0.008,0.521,0.019,0.731,0.051
			c0.37,0.076,0.787,0.139,1.11,0.264c1.387,0.466,2.367,1.154,3.246,1.8c1.724,1.326,3.071,2.642,4.499,3.802
			c1.414,1.147,2.823,2.187,4.327,2.94c1.495,0.775,3.071,1.269,4.71,1.49c1.641,0.226,3.341,0.143,5.053-0.154
			c1.718-0.295,3.413-0.858,5.118-1.5l-0.282,0.151c0.574-0.348,1.195-0.729,1.784-1.114c0.6-0.383,1.191-0.775,1.774-1.183
			c0.592-0.397,1.173-0.807,1.74-1.231c0.569-0.42,1.152-0.832,1.692-1.281c0.539-0.449,1.124-0.862,1.648-1.321l1.579-1.379
			l1.429-1.474c0.537-0.568,0.967-1.079,1.571-1.659c1.107-1.101,2.283-1.985,3.358-2.919c0.538-0.462,1.051-0.938,1.538-1.432
			l0.696-0.77l0.646-0.813l0.596-0.857l0.53-0.91c0.317-0.627,0.647-1.261,0.89-1.936c0.279-0.661,0.502-1.348,0.721-2.041
			c0.219-0.692,0.372-1.405,0.574-2.112c-0.047,0.729-0.063,1.469-0.158,2.198c-0.093,0.73-0.179,1.469-0.353,2.195
			c-0.141,0.732-0.378,1.447-0.611,2.167l-0.413,1.063l-0.5,1.034c-0.364,0.678-0.787,1.321-1.241,1.943
			c-0.463,0.61-0.949,1.196-1.451,1.757c-1.006,1.106-2.017,2.159-2.89,3.198c-0.409,0.47-0.861,1.12-1.276,1.656l-1.44,1.826
			l-1.557,1.669c-0.521,0.56-1.081,1.052-1.632,1.569c-0.546,0.523-1.121,0.999-1.69,1.486c-0.566,0.492-1.146,0.967-1.732,1.428
			c-0.58,0.471-1.171,0.928-1.771,1.376c-0.599,0.458-1.19,0.886-1.833,1.34l-0.076,0.054l-0.208,0.099
			c-1.848,0.872-3.811,1.602-5.881,2.084c-2.067,0.486-4.271,0.666-6.471,0.455c-2.202-0.198-4.383-0.835-6.338-1.799
			c-1.975-0.94-3.726-2.172-5.309-3.453c-1.574-1.272-3.026-2.634-4.374-3.654c-0.662-0.51-1.313-0.906-1.766-1.055
			c-0.124-0.061-0.197-0.037-0.293-0.08c-0.028-0.006,0.007,0.011,0.01,0c0.005-0.004,0.01-0.012,0.014-0.021
			c-0.001-0.003,0.012-0.012-0.002-0.013l-0.09,0.011l-0.36,0.042l-0.09,0.011l-0.021,0.003c0.088-0.016-0.23,0.037,0.191-0.032
			l-0.031,0.01l-0.131,0.036l-0.521,0.14c-1.346,0.396-2.615,1.323-4.219,2.53c-1.581,1.198-3.415,2.391-5.334,3.262
			c-0.954,0.465-1.94,0.811-2.918,1.177c-0.989,0.29-1.978,0.632-2.974,0.831c-0.99,0.237-1.986,0.454-3.006,0.605l-1.513,0.247
			l-1.442,0.15l-1.441,0.151c-0.612,0.045-1.078,0.058-1.622,0.086c-1.056,0.013-2.11-0.031-3.158-0.157
			c-2.094-0.248-4.147-0.805-6.044-1.659c-3.81-1.702-6.99-4.376-9.522-7.429c-1.281-1.52-2.403-3.147-3.403-4.833
			C199.623,486.5,198.836,484.702,197.946,482.995z"/>
	</g>
</g>
</svg>
