<?xml version="1.0" encoding="utf-8"?>
<!-- Generator: Adobe Illustrator 16.0.0, SVG Export Plug-In . SVG Version: 6.00 Build 0)  -->
<!DOCTYPE svg PUBLIC "-//W3C//DTD SVG 1.1//EN" "http://www.w3.org/Graphics/SVG/1.1/DTD/svg11.dtd">
<svg version="1.1" id="Layer_3" xmlns="http://www.w3.org/2000/svg" xmlns:xlink="http://www.w3.org/1999/xlink" x="0px" y="0px"
	 width="500px" height="900px" viewBox="0 0 500 900" enable-background="new 0 0 500 900" xml:space="preserve">
<g>
	<path fill="none" stroke="#1C110B" stroke-width="5" stroke-miterlimit="10" d="M193.695,99.25c0,0-24.209-36.596-14.074-55.737
		c10.135-19.143,16.889-29.841,37.722-38.285c0,0,9.431,1.969,17.454,6.191c8.022,4.223,14.778,7.602,17.734,12.668
		c0,0,18.579-11.962,37.158-18.859c0,0,9.713-7.743,22.38,10.414c0,0,20.691,17.313,6.757,54.894c0,0-5.067,15.201-12.669,24.491
		c0,0,5.489,72.207-6.755,127.1c-12.246,54.894-49.454,64.184-49.007,43.914c0.446-20.268,12.271-27.023,5.515-73.05
		c-6.757-46.026-11.401-40.537-14.356-14.779c-2.956,25.759-12.246,68.829-18.58,81.496c-6.333,12.668-24.49,21.958-27.869-37.581
		C191.726,162.587,192.709,102.63,193.695,99.25z"/>
	<path fill="none" stroke="#1C110B" stroke-width="5" stroke-miterlimit="10" d="M193.695,99.25c0,0,14.642-2.251,24.775-1.688
		s23.364,7.319,35.188,6.756c11.823-0.564,28.714-8.729,34.063-8.729s14.917,1.405,18.437-0.563"/>
	<g>
		<path fill="#1C110B" d="M196.23,24.088c1.13-1.482,2.342-2.907,3.604-4.295c0.639-0.685,1.295-1.354,1.967-2.014
			c0.33-0.335,0.683-0.646,1.024-0.972c0.341-0.327,0.691-0.643,1.053-0.948c0.361-0.305,0.707-0.63,1.084-0.92l1.131-0.873
			c0.383-0.285,0.787-0.546,1.181-0.821c0.39-0.282,0.811-0.523,1.231-0.768s0.833-0.504,1.292-0.7
			c0.455-0.2,0.884-0.446,1.367-0.607c0.483-0.157,0.963-0.333,1.462-0.472c0.521-0.092,1.046-0.186,1.575-0.262l0.249-0.036
			l0.391,0.183c0.889,0.415,1.866,0.795,2.81,1.188c0.939,0.405,1.927,0.739,2.892,1.103l2.908,1.066l2.949,0.977l2.938,0.999
			l0.683,0.232l0.753,0.216c0.495,0.134,1.02,0.309,1.49,0.411l1.425,0.329l1.501,0.309c1.014,0.212,2.037,0.391,3.097,0.628
			c1.048,0.209,2.128,0.499,3.208,0.832l1.636,0.587l1.627,0.778c0.529,0.306,1.045,0.664,1.563,1.003
			c0.512,0.354,0.955,0.819,1.43,1.233l0.348,0.321l0.297,0.365l0.586,0.739c0.188,0.25,0.404,0.489,0.562,0.753l0.452,0.801
			c0.665,1.063,1.026,2.182,1.449,3.294c0.209,0.558,0.297,1.114,0.449,1.673c0.123,0.558,0.3,1.121,0.376,1.676
			c0.133,1.105,0.319,2.225,0.399,3.323l0.157,3.285l-4.826,0.41c-0.091-0.621-0.108-1.028-0.139-1.521
			c-0.005-0.468-0.03-0.938-0.005-1.397c0.024-0.925,0.109-1.842,0.248-2.75c0.257-1.821,0.784-3.602,1.489-5.305l0.559-1.268
			c0.213-0.409,0.445-0.809,0.668-1.212c0.417-0.829,1.001-1.547,1.529-2.302c0.536-0.75,1.195-1.392,1.793-2.086
			c0.64-0.651,1.337-1.236,2.007-1.852c0.704-0.566,1.449-1.072,2.174-1.606c0.735-0.518,1.53-0.916,2.295-1.375l0.578-0.333
			l0.146-0.083l0.199-0.098l0.276-0.134l1.108-0.532l2.216-1.067l1.108-0.533l1.201-0.492l2.411-0.957
			c0.792-0.345,1.648-0.541,2.472-0.811c0.835-0.242,1.644-0.537,2.521-0.687c0.866-0.163,1.721-0.394,2.597-0.495
			c0.871-0.089,1.764-0.231,2.613-0.269l2.518-0.114c0.813-0.022,1.614-0.055,2.36-0.129l0.572-0.043l0.287-0.019l0.144-0.009
			l0.072-0.006c0.143-0.023-0.173,0.032-0.134,0.024l0.02-0.004l0.037-0.007c0.385-0.079,0.852-0.145,1.165-0.234
			c0.281-0.109,0.503-0.149,0.849-0.288c0.352-0.146,0.677-0.266,1.054-0.435c1.445-0.624,3.146-1.468,5.172-1.719
			c2.01-0.259,4.162,0.198,5.776,1.125c0.451,0.184,0.808,0.465,1.189,0.715c0.376,0.258,0.762,0.507,1.124,0.773
			c0.661,0.581,1.345,1.146,1.976,1.742l1.771,1.866c0.557,0.641,1.074,1.305,1.609,1.956c1.089,1.291,1.98,2.697,2.959,4.048
			l-0.06-0.072c0.537,0.706,0.991,1.368,1.436,2.074c0.459,0.687,0.859,1.405,1.266,2.118c0.197,0.359,0.421,0.704,0.595,1.076
			l0.545,1.101c0.367,0.731,0.714,1.469,1.005,2.234l0.461,1.133c0.146,0.38,0.323,0.746,0.442,1.136l0.74,2.324
			c0.108,0.39,0.26,0.766,0.336,1.167l0.259,1.188l0.513,2.363l-0.84-2.264l-0.418-1.125c-0.128-0.378-0.331-0.73-0.492-1.095
			l-1.002-2.172c-0.158-0.363-0.376-0.702-0.562-1.054l-0.575-1.043c-0.366-0.704-0.786-1.377-1.222-2.039l-0.631-1.003
			c-0.2-0.34-0.448-0.649-0.671-0.975c-0.453-0.646-0.902-1.291-1.399-1.896c-0.472-0.615-0.994-1.229-1.483-1.76l-0.059-0.073
			l-1.582-1.837c-0.516-0.621-1.033-1.238-1.597-1.803c-0.555-0.575-1.093-1.168-1.654-1.726l-1.743-1.577
			c-0.601-0.484-1.223-0.917-1.826-1.38c-0.313-0.193-0.636-0.362-0.95-0.547c-0.315-0.176-0.627-0.386-0.95-0.484
			c-1.277-0.634-2.523-0.757-3.747-0.552c-1.238,0.216-2.516,0.886-4.022,1.653c-0.361,0.188-0.796,0.381-1.191,0.57
			c-0.407,0.19-0.976,0.382-1.462,0.556c-0.47,0.147-0.816,0.209-1.23,0.318l-0.037,0.009l-0.189,0.034l-0.081,0.011l-0.162,0.021
			l-0.325,0.041l-0.651,0.076c-0.883,0.114-1.719,0.175-2.545,0.226l-2.395,0.188c-0.786,0.06-1.512,0.211-2.271,0.31
			c-0.751,0.108-1.479,0.342-2.219,0.502c-0.739,0.143-1.468,0.441-2.2,0.681c-0.726,0.269-1.475,0.455-2.177,0.794l-2.137,0.916
			l-1.073,0.447l-1.103,0.545l-2.205,1.091l-1.104,0.545l-0.274,0.137l-0.069,0.033l-0.034,0.018l-0.017,0.008
			c0.021-0.011-0.073,0.036,0.044-0.022l-0.121,0.072l-0.482,0.289c-0.633,0.396-1.313,0.735-1.91,1.172
			c-0.586,0.45-1.2,0.869-1.768,1.335c-0.526,0.506-1.089,0.979-1.593,1.5c-0.456,0.561-0.985,1.065-1.393,1.659
			c-0.4,0.596-0.854,1.158-1.183,1.797l-0.533,0.934l-0.44,0.979c-0.563,1.316-0.996,2.701-1.21,4.128
			c-0.117,0.71-0.191,1.43-0.219,2.144c-0.026,0.358-0.006,0.709-0.01,1.062c0.014,0.325,0.04,0.738,0.065,0.929l-4.826,0.41
			l-0.11-2.971c-0.061-0.981-0.216-1.928-0.313-2.896c-0.171-0.929-0.351-1.857-0.584-2.746c-0.3-0.845-0.541-1.737-0.983-2.46
			l-0.289-0.578c-0.1-0.189-0.245-0.336-0.361-0.509l-0.367-0.503l-0.183-0.254l-0.225-0.211c-0.31-0.271-0.566-0.597-0.908-0.843
			c-0.353-0.234-0.683-0.493-1.045-0.724l-1.179-0.613l-1.296-0.513c-0.905-0.308-1.833-0.595-2.819-0.855
			c-0.965-0.274-1.988-0.511-3.005-0.783l-1.547-0.406l-1.604-0.468c-0.542-0.152-1-0.337-1.504-0.504l-0.74-0.256l-0.785-0.312
			l-2.934-1.18l-2.921-1.202l-2.884-1.313c-0.958-0.447-1.924-0.857-2.869-1.353c-0.951-0.482-1.891-0.931-2.857-1.475l0.64,0.146
			c-0.394,0.041-0.79,0.064-1.192,0.09c-0.404,0.072-0.813,0.183-1.225,0.27c-0.412,0.09-0.815,0.277-1.228,0.41
			c-0.415,0.128-0.813,0.331-1.216,0.515c-0.404,0.186-0.811,0.366-1.2,0.597c-0.392,0.221-0.792,0.427-1.181,0.661
			c-0.769,0.481-1.543,0.961-2.294,1.487c-0.382,0.252-0.757,0.519-1.124,0.795s-0.747,0.539-1.106,0.827
			c-0.729,0.564-1.448,1.146-2.154,1.744C198.949,21.545,197.556,22.779,196.23,24.088z"/>
	</g>
</g>
<g>
	<path fill="none" stroke="#1C110B" stroke-width="5" stroke-miterlimit="10" d="M69.459,397.625
		c-13.514-18.158-27.863-7.263-53.198,23.984c-25.336,31.247,0,59.538,0,59.538s-2.112,68.829,10.134,95.009
		c12.245,26.181,13.935,46.449,20.269,59.539c0,0,8.867,21.112,25.336,19.846c0,0,17.313,4.646,33.78-33.358l14.356-34.202
		c0,0,13.935-35.048,10.557-79.807c0,0,1.688-28.292,5.067-41.383c3.378-13.09,10.557-6.334,8.445-50.671
		c0,0-8.445-37.581-25.759-32.091c0,0-19.042,9.491-30.443,19.625"/>
	<g>
		<path fill="#1C110B" d="M52.364,393.318c0,0,0.244,0.187,0.733,0.445c0.473,0.285,1.243,0.568,2.191,0.853
			c0.498,0.085,1.016,0.248,1.614,0.253c0.297,0.01,0.595,0.062,0.909,0.053c0.313-0.015,0.639-0.03,0.975-0.047
			c1.367-0.096,3.01-0.431,4.935-0.434c1.904-0.008,4.184,0.251,6.313,1.356c2.137,1.063,4.039,2.771,5.516,4.744
			c0.372,0.493,0.709,1.005,1.06,1.522l0.131,0.193l0.016,0.024c-0.025-0.041,0.079,0.126-0.052-0.086l0.029,0.043l0.062,0.087
			l0.245,0.35c0.187,0.295,0.279,0.332,0.377,0.438c0.46,0.462,1.013,0.793,1.662,0.893c1.32,0.262,3.354-0.314,5.27-1.248
			c1.958-0.905,3.897-2.122,5.862-3.339c0.98-0.618,1.966-1.243,3.021-1.849c0.524-0.305,1.072-0.607,1.694-0.901l0.492-0.218
			l0.282-0.104l0.141-0.052l0.071-0.024l0.184-0.06l0.818-0.19c1.438-0.27,2.52-0.348,3.61-0.417
			c1.058-0.071,2.092-0.142,3.099-0.208c1.974-0.154,3.797-0.379,5.443-0.752c1.646-0.375,3.124-0.855,4.374-1.442
			c0.313-0.148,0.617-0.294,0.909-0.434c0.29-0.148,0.546-0.324,0.813-0.471c0.53-0.297,1.015-0.586,1.407-0.907
			c0.401-0.312,0.791-0.566,1.098-0.824c0.299-0.271,0.553-0.5,0.759-0.687c0.424-0.375,0.651-0.573,0.651-0.573
			s-0.148,0.262-0.427,0.753c-0.145,0.247-0.323,0.551-0.534,0.909c-0.219,0.355-0.531,0.715-0.862,1.143
			c-0.32,0.442-0.735,0.872-1.206,1.332c-0.446,0.496-1.009,0.929-1.619,1.395c-0.59,0.502-1.306,0.887-2.033,1.368
			c-0.759,0.397-1.569,0.834-2.449,1.169c-1.743,0.735-3.715,1.325-5.786,1.746c-1.031,0.214-2.095,0.396-3.144,0.582
			c-1.039,0.187-2.136,0.377-2.878,0.579l-0.798,0.262c0.047-0.015-0.14,0.044,0.098-0.03l-0.013,0.007l-0.027,0.014l-0.055,0.028
			l-0.111,0.052l-0.272,0.146c-0.389,0.216-0.827,0.488-1.276,0.791c-0.931,0.636-1.873,1.279-2.822,1.929
			c-1.954,1.34-4.043,2.681-6.394,3.804c-1.185,0.545-2.439,1.037-3.826,1.367c-1.378,0.329-2.956,0.453-4.591,0.089
			c-0.813-0.174-1.619-0.516-2.342-0.956c-0.717-0.48-1.309-0.984-1.855-1.655c-0.271-0.333-0.565-0.718-0.669-0.918l-0.496-0.816
			c-0.264-0.436-0.495-0.896-0.762-1.314c-1.065-1.685-2.319-3.061-3.743-4.02c-1.411-0.982-3.039-1.484-4.668-1.771
			c-1.637-0.256-3.271-0.292-4.797-0.515c-1.575-0.172-2.849-0.741-3.813-1.247c-0.951-0.563-1.597-1.12-1.987-1.542
			C52.52,393.577,52.364,393.318,52.364,393.318z"/>
	</g>
	<path fill="none" stroke="#1C110B" stroke-width="5" stroke-miterlimit="10" d="M74.793,401.974c0,0,3.751,2.227,10.93-4.061
		c7.178-6.286,12.553-9.454,18.094-5.651"/>
	<path fill="none" stroke="#1C110B" stroke-width="5" stroke-miterlimit="10" d="M16.26,481.147c0,0,4.645,6.335,16.468,2.534
		s29.98-18.158,50.671-17.735c20.691,0.423,29.932,13.45,50.646,9.47"/>
</g>
<g>
	<path fill="none" stroke="#1C110B" stroke-width="5" stroke-miterlimit="10" d="M369.618,477.986c0,0-25.758-35.469-5.911-67.562
		c0,0,16.891-24.49,23.225-25.757c6.335-1.267,0,0.422,19.002,6.755c0,0,21.535,5.913,22.8,13.091c0,0,4.224-4.646,7.602-5.067
		s2.11,0.422,11.4-2.956c0,0,6.545-2.533,10.135-4.645s10.979-7.179,18.578,7.39c7.603,14.567,32.516,47.082,10.979,78.75
		c0,0-2.956,22.803-2.533,40.537c0.422,17.734-4.224,29.98-5.067,37.582c-0.845,7.6-19.001,64.183-23.646,80.65
		c-4.646,16.469-16.046,34.202-40.113,15.2c-24.067-19.001-47.093-59.127-48.56-120.344
		C366.382,484.601,369.618,477.986,369.618,477.986z"/>
	<path fill="none" stroke="#1C110B" stroke-width="5" stroke-miterlimit="10" d="M369.618,477.986c0,0,5.067,9.079,57.64,5.279
		c52.568-3.801,47.925-5.49,61.226-5.279"/>
	<g>
		<path fill="#1C110B" d="M413.344,396.549c-1.782-0.742-3.633-1.454-5.479-2.112c-1.851-0.659-3.714-1.271-5.588-1.825
			c-0.938-0.254-1.878-0.534-2.819-0.746c-0.941-0.245-1.882-0.414-2.823-0.598l-1.404-0.199c-0.467-0.061-0.917-0.067-1.38-0.106
			c-0.47-0.048-0.878,0.022-1.325,0.021c-0.443,0.012-0.775,0.146-1.185,0.198l-0.816,0.04c0.06,0.005-0.197-0.042-0.341-0.04
			c-0.179,0.004-0.361,0.002-0.562,0.043c-0.192,0.017-0.394,0.066-0.596,0.129c-0.202,0.046-0.405,0.11-0.605,0.204
			c-0.41,0.143-0.807,0.365-1.205,0.586c-0.402,0.216-0.771,0.514-1.164,0.768c-0.374,0.288-0.732,0.605-1.104,0.908
			c-0.363,0.313-0.691,0.672-1.042,1.008c-0.355,0.33-0.669,0.707-0.991,1.077c-0.313,0.375-0.657,0.729-0.951,1.125
			c-0.581,0.797-1.229,1.552-1.757,2.396c-0.544,0.831-1.129,1.643-1.617,2.514c-0.497,0.865-1.05,1.704-1.505,2.596l-1.412,2.657
			l1.131-2.793c0.361-0.94,0.826-1.834,1.234-2.757c0.4-0.929,0.903-1.806,1.368-2.706c0.446-0.911,1.024-1.752,1.538-2.634
			c0.261-0.438,0.578-0.845,0.865-1.27c0.295-0.42,0.582-0.848,0.923-1.24c0.335-0.396,0.646-0.813,1.004-1.194
			c0.369-0.374,0.727-0.762,1.111-1.126c0.414-0.34,0.797-0.715,1.248-1.025c0.447-0.314,0.897-0.631,1.414-0.88
			c0.243-0.142,0.507-0.259,0.784-0.359c0.27-0.111,0.548-0.212,0.85-0.278c0.288-0.087,0.604-0.132,0.926-0.168
			c0.356-0.018,0.605-0.054,1.155,0.059l-0.815,0.04c0.563-0.173,1.17-0.427,1.723-0.504c0.548-0.068,1.13-0.202,1.659-0.206
			c0.535-0.016,1.086-0.058,1.614-0.045l1.582,0.059c1.036,0.089,2.08,0.17,3.097,0.322c1.029,0.124,2.032,0.31,3.049,0.476
			c2.012,0.374,4.007,0.806,5.985,1.286c1.983,0.483,3.936,1.007,5.917,1.602L413.344,396.549z"/>
	</g>
	<g>
		<path fill="#1C110B" d="M394.932,395.084c0.423,0.69,1.017,1.241,1.596,1.774l0.945,0.713l1.017,0.598
			c0.325,0.214,0.708,0.336,1.057,0.509c0.355,0.156,0.698,0.335,1.082,0.431l1.113,0.343l0.276,0.086l0.259,0.045l0.597,0.105
			c0.78,0.104,1.481,0.13,2.298,0.164c0.786,0.036,1.594,0.037,2.398,0.059c0.81,0.014,1.621,0.037,2.443,0.078
			c0.816,0.024,1.646,0.115,2.474,0.178c0.827,0.123,1.66,0.194,2.486,0.393l1.243,0.264c0.411,0.108,0.818,0.239,1.229,0.358
			c0.831,0.213,1.621,0.57,2.428,0.892c0.805,0.325,1.549,0.792,2.328,1.19c0.723,0.488,1.467,0.969,2.153,1.515
			c0.64,0.596,1.332,1.155,1.926,1.796c0.563,0.665,1.175,1.306,1.695,2.004l1.469,2.158l-2.874-0.59
			c0.43-0.337,0.791-0.599,1.191-0.881c0.393-0.276,0.79-0.541,1.193-0.801c0.805-0.52,1.643-0.997,2.507-1.444
			c1.74-0.866,3.608-1.611,5.752-1.93c0.261-0.05,0.538-0.07,0.815-0.087l0.417-0.026l0.208-0.014l0.054-0.003l0.146,0.001
			l0.084,0.002l1.351,0.037c0.419-0.007,0.988,0.078,1.491,0.127c0.521,0.055,1.041,0.114,1.512,0.212
			c0.479,0.096,0.972,0.16,1.444,0.284c0.476,0.121,0.955,0.223,1.427,0.361c0.471,0.146,0.942,0.268,1.411,0.439
			c0.482,0.164,0.908,0.318,1.459,0.563l-2.896,0.69c0.339-0.431,0.641-0.785,0.962-1.166c0.322-0.366,0.638-0.741,0.969-1.099
			c0.652-0.723,1.321-1.429,2.014-2.116c0.685-0.693,1.404-1.356,2.128-2.02c0.741-0.646,1.483-1.292,2.275-1.896
			c0.384-0.313,0.785-0.609,1.199-0.896c0.416-0.285,0.805-0.594,1.244-0.857l1.299-0.805c0.447-0.255,0.917-0.487,1.376-0.729
			c0.447-0.256,0.956-0.438,1.45-0.638c0.494-0.198,0.982-0.401,1.527-0.53c0.538-0.134,1.045-0.321,1.61-0.397l1.697-0.221
			l-1.199,0.396c0.389-0.234,0.438-0.225,0.631-0.308c0.168-0.063,0.274-0.083,0.416-0.12c0.286-0.073,0.488-0.077,0.733-0.096
			c0.438-0.011,0.868,0.032,1.199,0.123c0.37,0.078,0.672,0.193,0.951,0.318c0.309,0.121,0.536,0.263,0.776,0.404
			c0.948,0.575,1.621,1.218,2.229,1.865c1.208,1.298,2.104,2.644,2.927,4.005c0.418,0.679,0.809,1.363,1.165,2.053
			c0.383,0.686,0.726,1.378,1.045,2.079c0.681,1.417,1.248,2.729,1.878,4.094c1.235,2.715,2.467,5.455,3.64,8.228
			c1.163,2.775,2.23,5.602,3.222,8.458c0.498,1.427,0.963,2.868,1.4,4.318c0.442,1.448,0.813,2.923,1.176,4.396
			c0.345,1.48,0.663,2.966,0.922,4.467c0.257,1.5,0.483,3.007,0.592,4.532c0.138,1.519,0.176,3.049,0.162,4.574
			c-0.051,1.526-0.137,3.054-0.419,4.559c-0.244,1.505-0.619,2.99-1.146,4.412c-0.509,1.431-1.242,2.764-2.027,4.028
			c0.581-1.379,1.083-2.773,1.354-4.225c0.301-1.438,0.491-2.891,0.53-4.352c0.071-1.455-0.021-2.916-0.117-4.364
			c-0.145-1.45-0.335-2.894-0.622-4.324c-0.271-1.431-0.605-2.853-0.97-4.265c-0.366-1.412-0.794-2.811-1.243-4.202
			c-0.933-2.773-1.962-5.519-3.082-8.232c-0.56-1.357-1.152-2.703-1.754-4.046l-1.863-4.007c-1.248-2.673-2.558-5.322-3.889-7.982
			c-0.667-1.317-1.337-2.717-1.995-3.961c-0.327-0.641-0.658-1.274-1.006-1.889c-0.335-0.63-0.691-1.233-1.063-1.82
			c-0.727-1.18-1.521-2.308-2.36-3.179c-0.411-0.435-0.849-0.808-1.183-0.994c-0.081-0.046-0.167-0.106-0.212-0.11
			c-0.061-0.029-0.105-0.047-0.104-0.037c-0.025-0.019,0.024,0.013,0.094,0c0.061,0.004,0.074-0.011,0.181-0.025
			c0.053-0.011,0.065-0.02,0.147-0.046c0.106-0.046,0.066-0.008,0.377-0.194l-1.2,0.396l-1.075,0.161
			c-0.357,0.042-0.729,0.201-1.097,0.29c-0.368,0.082-0.736,0.247-1.105,0.401c-0.369,0.153-0.739,0.29-1.104,0.495
			c-0.367,0.191-0.738,0.364-1.104,0.565l-1.086,0.657c-0.365,0.209-0.711,0.48-1.066,0.718c-0.357,0.238-0.709,0.491-1.052,0.766
			c-0.698,0.519-1.37,1.09-2.043,1.659c-0.657,0.591-1.317,1.183-1.952,1.811c-0.639,0.618-1.261,1.261-1.865,1.914
			c-0.309,0.323-0.598,0.66-0.896,0.989c-0.284,0.328-0.59,0.683-0.832,0.981l-1.177,1.453l-1.721-0.764
			c-0.271-0.12-0.687-0.291-1.052-0.43c-0.369-0.154-0.767-0.27-1.149-0.406c-0.388-0.131-0.786-0.228-1.179-0.345
			c-0.395-0.121-0.797-0.184-1.194-0.28c-0.408-0.103-0.781-0.153-1.154-0.208c-0.391-0.05-0.707-0.14-1.19-0.152l-1.348-0.086
			l-0.084-0.006l-0.021-0.001c0.043,0-0.104-0.002,0.095,0.002h-0.004h-0.008l-0.032,0.001l-0.129,0.006l-0.257,0.008
			c-0.171,0.002-0.344,0.004-0.526,0.036c-1.435,0.148-2.987,0.667-4.485,1.352c-0.756,0.336-1.509,0.704-2.242,1.118
			c-0.367,0.206-0.732,0.418-1.092,0.639c-0.349,0.214-0.729,0.459-1.021,0.662l-1.785,1.236l-1.089-1.827l-1.135-1.905
			c-0.403-0.616-0.882-1.168-1.316-1.764c-0.463-0.567-1.008-1.051-1.507-1.589c-0.549-0.478-1.118-0.937-1.689-1.399
			c-0.627-0.379-1.213-0.835-1.878-1.167c-0.666-0.327-1.313-0.701-2.029-0.944l-1.058-0.409l-1.096-0.329
			c-0.722-0.249-1.495-0.36-2.242-0.563c-0.768-0.14-1.527-0.31-2.313-0.417c-0.778-0.123-1.568-0.23-2.364-0.329
			c-0.798-0.107-1.598-0.192-2.412-0.318c-0.786-0.104-1.687-0.272-2.479-0.491l-0.577-0.18l-0.325-0.104l-0.286-0.13l-1.14-0.52
			c-0.387-0.153-0.735-0.393-1.092-0.607c-0.346-0.232-0.725-0.405-1.037-0.685l-0.959-0.788l-0.858-0.889
			C395.751,396.483,395.243,395.834,394.932,395.084z"/>
	</g>
</g>
<g>
	<path fill="none" stroke="#1C110B" stroke-width="5" stroke-miterlimit="10" d="M196.362,667.758c0,0-44.479-46.165,0-80.511
		c0,0,9.785-10.77,14.22-11.401c4.433-0.634,8.443,5.065,18.579,7.178c10.134,2.111,19.001,8.023,20.689,14.357l28.292-16.47
		c0,0,10.134-8.444,18.79,3.168c0,0,16.257,11.4,20.9,31.035c4.646,19.635,0.635,29.771-7.601,47.715c0,0-7.178,3.168-4.645,29.98
		c2.532,26.814,1.688,70.793,1.688,109.788c0,40.834-19.847,60.805-32.093,15.624c-6.881-25.391,0.846-38.426-22.802-83.607
		c0,0-9.289,8.444-8.866,28.713c0,0-2.534,36.736,2.532,59.116s-9.712,32.516-22.379,17.313S186.669,757.298,196.362,667.758z"/>
	<path fill="none" stroke="#1C110B" stroke-width="5" stroke-miterlimit="10" d="M197.49,668.319c0,0,2.744,6.967,27.023,4.646
		c24.28-2.322,46.027,1.688,60.172,2.11c0,0,17.072,0.262,21.625-5.147"/>
	<g>
		<path fill="#1C110B" d="M252.319,596.988c0,0,0.014,0.147,0.036,0.423c0.021,0.293,0.047,0.723,0.082,1.27
			c0.042,0.56,0.06,1.202,0.075,1.937c0.011,0.735,0.059,1.569,0.039,2.469c-0.007,0.897-0.014,1.87-0.021,2.899
			c-0.007,1.028-0.072,2.106-0.109,3.225c-0.057,1.114-0.065,2.269-0.163,3.435c-0.084,1.166-0.168,2.35-0.253,3.534
			c-0.084,1.183-0.162,2.364-0.297,3.522c-0.119,1.159-0.237,2.301-0.353,3.403c-0.116,1.102-0.229,2.167-0.336,3.177
			c-0.136,1.006-0.264,1.958-0.382,2.836c-0.472,3.508-0.787,5.846-0.787,5.846s0.003-2.357,0.008-5.895
			c0.001-0.882,0.002-1.838,0.003-2.849c-0.027-1.011-0.057-2.076-0.087-3.18c-0.033-1.101-0.065-2.237-0.101-3.394
			c-0.02-1.154-0.098-2.326-0.17-3.496c-0.072-1.169-0.144-2.338-0.213-3.487c-0.057-1.15-0.198-2.274-0.288-3.364
			c-0.109-1.088-0.184-2.145-0.31-3.134c-0.125-0.989-0.241-1.926-0.351-2.788c-0.096-0.866-0.247-1.64-0.349-2.332
			c-0.108-0.694-0.204-1.297-0.304-1.759c-0.094-0.475-0.168-0.848-0.218-1.102c-0.06-0.27-0.092-0.413-0.092-0.413L252.319,596.988
			z"/>
	</g>
	<path fill="none" stroke="#1C110B" stroke-width="5" stroke-miterlimit="10" d="M301.834,588.254c0,0,15.998-5.021,13.849,20.104"
		/>
</g>
<g>
	<path fill="none" stroke="#1C110B" stroke-width="5" stroke-miterlimit="10" d="M253.451,516.005c0,0-44.357,18.194-64.185-20.691
		c-10.979-21.535-7.541-29.155-8.022-44.253c-0.655-20.588-5.294-36.82,14.356-53.918c22.703-19.752,70.939-22.229,104.72,0.391
		c0,0,20.271,12.907,18.158,40.354c-2.111,27.446,1.688,45.604-16.892,70.518C283.009,533.316,253.451,516.005,253.451,516.005z"/>
	<g>
		<path fill="#1C110B" d="M198.136,455.621c1.759-0.215,3.519-0.402,5.278-0.562c1.759-0.175,3.519-0.319,5.277-0.448l0.05-0.004
			l0.216,0.039c1.274,0.229,2.617,0.386,3.924,0.556c1.314,0.162,2.634,0.286,3.949,0.372c2.632,0.141,5.253,0.237,7.815,0.033
			c0.643-0.038,1.274-0.117,1.905-0.191c0.629-0.08,1.25-0.187,1.863-0.299c0.61-0.115,1.219-0.239,1.804-0.406
			c0.594-0.148,1.156-0.351,1.719-0.544c0.542-0.229,1.085-0.44,1.584-0.711c0.265-0.116,0.492-0.272,0.73-0.416
			c0.245-0.136,0.47-0.29,0.68-0.459c0.447-0.31,0.829-0.674,1.188-1.047c0.162-0.2,0.354-0.375,0.506-0.582l0.443-0.622
			l1.373-1.924l1.99,1.229c0.161,0.1,0.43,0.253,0.661,0.379l0.736,0.378c0.498,0.241,1.004,0.461,1.513,0.653
			c0.509,0.196,1.014,0.358,1.519,0.505l0.747,0.17c0.252,0.069,0.486,0.068,0.729,0.109c0.245,0.044,0.476,0.055,0.699,0.047
			c0.223-0.003,0.462,0.029,0.658-0.019c0.2-0.037,0.421-0.034,0.607-0.085c0.18-0.062,0.361-0.11,0.546-0.152
			c0.167-0.07,0.314-0.169,0.479-0.236c0.178-0.049,0.288-0.211,0.438-0.31c0.146-0.104,0.298-0.205,0.409-0.381
			c0.123-0.153,0.252-0.302,0.39-0.446l1.252-1.327l1.343,0.312c0.628,0.145,1.352,0.275,2.031,0.409
			c0.691,0.13,1.387,0.248,2.08,0.354c1.392,0.222,2.783,0.361,4.159,0.474c0.691,0.06,1.371,0.079,2.051,0.098
			c0.34,0.008,0.669-0.009,1.005-0.011c0.339,0.003,0.662-0.023,0.984-0.05c0.321-0.026,0.657-0.03,0.956-0.089
			c0.301-0.051,0.627-0.076,0.912-0.144l0.84-0.21c0.235-0.102,0.474-0.194,0.719-0.281l0.979-0.347l0.503,0.133l6.691,1.773
			c1.114,0.302,2.233,0.582,3.345,0.901l3.332,0.948l-0.933,0.104c0.739-0.277,1.405-0.514,2.115-0.719
			c0.698-0.215,1.396-0.421,2.111-0.564l1.063-0.241c0.352-0.091,0.716-0.128,1.072-0.194l1.073-0.176
			c0.357-0.054,0.71-0.131,1.073-0.15c0.725-0.068,1.447-0.116,2.165-0.167c0.719-0.055,1.45,0.015,2.166,0.017l1.075,0.032
			c0.356,0.021,0.714,0.104,1.067,0.154c0.71,0.115,1.412,0.231,2.104,0.36l-2.118,0.13c-0.35,0.028-0.695,0.021-1.043,0.078
			l-1.035,0.175c-0.686,0.129-1.371,0.189-2.045,0.372c-0.673,0.179-1.34,0.36-2.008,0.521c-0.336,0.068-0.661,0.196-0.99,0.301
			l-0.98,0.323c-0.325,0.114-0.656,0.199-0.974,0.338l-0.958,0.382c-0.642,0.246-1.27,0.519-1.893,0.795
			c-0.62,0.262-1.252,0.581-1.803,0.868l-0.371,0.191l-0.563-0.088l-3.423-0.534c-1.143-0.175-2.274-0.389-3.413-0.581l-6.819-1.191
			l1.48-0.214c-0.424,0.211-0.854,0.416-1.288,0.612c-0.422,0.148-0.842,0.278-1.267,0.412c-0.422,0.124-0.827,0.188-1.243,0.282
			c-0.418,0.101-0.814,0.134-1.222,0.191c-0.406,0.057-0.812,0.102-1.205,0.118c-0.396,0.021-0.799,0.058-1.191,0.065
			c-0.785,0.016-1.569,0.025-2.342-0.006c-1.549-0.043-3.076-0.182-4.586-0.372c-0.756-0.096-1.51-0.203-2.261-0.323
			c-0.764-0.123-1.48-0.258-2.283-0.43l2.595-1.017c-0.263,0.334-0.533,0.666-0.81,0.99c-0.255,0.338-0.594,0.623-0.946,0.898
			c-0.354,0.268-0.676,0.579-1.086,0.764c-0.396,0.204-0.792,0.422-1.199,0.587c-0.414,0.132-0.832,0.255-1.252,0.368
			c-0.418,0.099-0.828,0.118-1.244,0.172c-0.422,0.063-0.809,0.03-1.209,0.026c-0.402-0.001-0.793-0.026-1.166-0.089
			c-0.374-0.06-0.768-0.087-1.12-0.183c-0.357-0.084-0.723-0.161-1.074-0.257c-0.693-0.206-1.376-0.427-2.026-0.696
			c-0.651-0.27-1.282-0.563-1.899-0.885c-0.309-0.159-0.611-0.329-0.917-0.502c-0.312-0.184-0.583-0.343-0.944-0.583l3.362-0.695
			l-0.755,1.006c-0.261,0.326-0.562,0.615-0.847,0.918c-0.597,0.572-1.233,1.104-1.91,1.539c-0.332,0.233-0.672,0.443-1.022,0.625
			c-0.35,0.188-0.693,0.39-1.053,0.536c-0.708,0.336-1.427,0.593-2.149,0.833c-0.726,0.203-1.449,0.406-2.174,0.543
			c-0.725,0.156-1.447,0.258-2.167,0.349c-0.721,0.092-1.439,0.133-2.153,0.166c-0.713,0.022-1.426,0.046-2.132,0.026
			c-2.828-0.04-5.602-0.33-8.318-0.853c-1.357-0.256-2.704-0.551-4.039-0.883c-1.342-0.326-2.639-0.731-3.973-1.178l0.264,0.035
			c-1.759-0.13-3.519-0.273-5.278-0.448C201.655,456.024,199.895,455.837,198.136,455.621z"/>
	</g>
	<g>
		<path fill="#1C110B" d="M255.993,452.032c0,0-0.075,0.489-0.208,1.345c-0.148,0.862-0.281,2.055-0.467,3.503
			c-0.159,1.448-0.438,3.128-0.572,4.965c-0.157,1.836-0.324,3.794-0.492,5.752c-0.084,0.98-0.167,1.964-0.25,2.93
			c-0.038,0.969-0.075,1.921-0.112,2.843c-0.072,1.85-0.14,3.573-0.198,5.053c-0.114,2.967-0.191,4.943-0.191,4.943
			s-0.235-1.963-0.588-4.908c-0.177-1.478-0.383-3.199-0.604-5.047c-0.109-0.925-0.225-1.882-0.34-2.854
			c-0.071-0.976-0.145-1.964-0.217-2.954c-0.146-1.986-0.289-3.972-0.425-5.834c-0.159-1.861-0.15-3.628-0.223-5.134
			c-0.047-1.507-0.104-2.78-0.093-3.637c-0.004-0.865-0.006-1.359-0.006-1.359L255.993,452.032z"/>
	</g>
	<g>
		<path fill="#1C110B" d="M253.056,452.62c0,0-0.056-0.139-0.162-0.397c-0.11-0.336-0.273-0.83-0.481-1.458
			c-0.182-0.614-0.282-1.246-0.458-2.028c-0.192-0.773-0.272-1.625-0.394-2.554c-0.098-0.928-0.288-1.936-0.308-2.987
			c-0.053-1.051-0.109-2.159-0.167-3.305c-0.092-1.145-0.017-2.318-0.017-3.511c0.019-1.19,0.035-2.399,0.054-3.608
			c0.021-1.206,0.151-2.406,0.222-3.588c0.084-1.18,0.167-2.341,0.246-3.464c0.072-1.123,0.154-2.205,0.298-3.228
			c0.124-1.021,0.241-1.989,0.35-2.881c0.434-3.559,0.722-5.932,0.722-5.932s0.022,2.389,0.06,5.972
			c0.009,0.893,0.02,1.861,0.029,2.885c-0.01,1.022,0.05,2.102,0.125,3.214c0.065,1.112,0.136,2.262,0.206,3.429
			c0.084,1.165,0.107,2.351,0.243,3.525c0.137,1.173,0.273,2.346,0.41,3.499c0.149,1.148,0.224,2.291,0.455,3.362
			c0.197,1.075,0.389,2.113,0.567,3.098c0.147,0.994,0.446,1.872,0.646,2.706c0.219,0.826,0.393,1.599,0.642,2.212
			c0.228,0.613,0.411,1.22,0.579,1.588c0.162,0.347,0.289,0.619,0.375,0.807c0.139,0.243,0.213,0.372,0.213,0.372L253.056,452.62z"
			/>
	</g>
	<g>
		<path fill="#1C110B" d="M245.147,455.613c0,0-1.565,2.903-4.009,7.146c-2.446,4.251-5.799,9.861-9.342,15.353
			c-0.873,1.38-1.791,2.733-2.678,4.073c-0.883,1.343-1.809,2.63-2.67,3.893c-0.875,1.256-1.765,2.441-2.582,3.579
			c-0.833,1.128-1.661,2.168-2.402,3.141c-0.744,0.971-1.488,1.813-2.113,2.585c-0.622,0.773-1.206,1.414-1.689,1.938
			c-0.959,1.052-1.508,1.653-1.508,1.653s0.488-0.65,1.342-1.789c0.43-0.565,0.946-1.254,1.489-2.082
			c0.548-0.825,1.2-1.727,1.845-2.759c0.642-1.034,1.357-2.139,2.073-3.332c0.702-1.204,1.465-2.456,2.209-3.78
			c0.734-1.332,1.522-2.686,2.267-4.097c0.749-1.409,1.523-2.828,2.255-4.274c2.973-5.755,5.748-11.607,7.753-16.028
			c2.01-4.428,3.255-7.384,3.255-7.384L245.147,455.613z"/>
	</g>
	<g>
		<path fill="#1C110B" d="M272.157,450.535c0,0,1.233,2.813,3.086,7.033c1.864,4.214,4.357,9.833,6.918,15.419
			c1.273,2.797,2.556,5.59,3.796,8.188c0.613,1.303,1.208,2.563,1.771,3.757c0.587,1.182,1.143,2.298,1.653,3.329
			c0.515,1.031,0.985,1.978,1.403,2.814c0.457,0.814,0.854,1.524,1.183,2.109c0.659,1.175,1.036,1.847,1.036,1.847
			s-0.442-0.629-1.216-1.729c-0.389-0.554-0.859-1.225-1.4-1.994c-0.502-0.793-1.067-1.688-1.686-2.663
			c-0.616-0.979-1.284-2.038-1.991-3.159c-0.685-1.134-1.403-2.329-2.148-3.564c-1.503-2.47-3.063-5.124-4.619-7.782
			c-3.122-5.313-6.179-10.66-8.468-14.675c-2.276-4.022-3.795-6.704-3.795-6.704L272.157,450.535z"/>
	</g>
	<g>
		<path fill="#1C110B" d="M265.144,450.73c0,0,1.133-1.919,2.833-4.797c1.706-2.871,4.019-6.676,6.377-10.45
			c1.162-1.896,2.396-3.756,3.513-5.515c1.129-1.753,2.242-3.356,3.165-4.743c0.932-1.383,1.787-2.486,2.348-3.278
			c0.571-0.784,0.896-1.232,0.896-1.232s-0.261,0.49-0.717,1.35c-0.443,0.865-1.129,2.063-1.854,3.559
			c-0.719,1.501-1.588,3.228-2.455,5.114c-0.856,1.895-1.807,3.887-2.688,5.92c-1.797,4.046-3.54,8.114-4.816,11.177
			c-1.27,3.063-2.115,5.105-2.115,5.105L265.144,450.73z"/>
	</g>
	<g>
		<path fill="#1C110B" d="M232.865,456.802c0,0-1.171-1.915-2.928-4.787c-0.873-1.442-1.89-3.126-2.98-4.929
			c-1.102-1.796-2.22-3.748-3.363-5.681c-1.137-1.936-2.273-3.871-3.339-5.686c-1.023-1.842-1.979-3.562-2.796-5.034
			c-1.628-2.941-2.713-4.902-2.713-4.902s1.348,1.792,3.371,4.48c1.01,1.339,2.188,2.9,3.452,4.574
			c1.305,1.645,2.696,3.398,4.088,5.152c1.396,1.749,2.765,3.516,4.101,5.135c1.323,1.625,2.559,3.142,3.618,4.441
			c2.133,2.594,3.556,4.325,3.556,4.325L232.865,456.802z"/>
	</g>
	<g>
		<path fill="#1C110B" d="M191.099,483.364c0.536,1.548,1.248,3.02,2.017,4.442c0.399,0.705,0.771,1.421,1.22,2.093l0.645,1.02
			l0.705,0.979c0.455,0.659,0.958,1.281,1.465,1.897c0.483,0.634,1.029,1.214,1.579,1.784l0.816,0.862l0.882,0.793
			c0.582,0.533,1.162,1.063,1.806,1.518c0.637,0.46,1.209,0.997,1.89,1.392l1.979,1.244c1.405,0.68,2.755,1.441,4.241,1.915
			c1.423,0.611,2.945,0.95,4.433,1.357l0.279,0.076l0.07,0.02l0.035,0.01l0.018,0.004c0.088,0.02-0.1-0.021-0.074-0.016l0.151,0.023
			l0.604,0.098l1.209,0.196c0.799,0.118,1.642,0.307,2.363,0.301l2.232,0.124c0.752,0.01,1.528-0.055,2.291-0.063
			c0.382-0.015,0.765-0.012,1.146-0.04l1.138-0.146c0.756-0.117,1.522-0.141,2.266-0.333l2.236-0.495
			c0.733-0.212,1.458-0.46,2.188-0.684c0.737-0.199,1.428-0.544,2.14-0.819l1.061-0.435l1.029-0.51
			c1.39-0.639,2.711-1.425,4.007-2.239c0.628-0.438,1.281-0.842,1.893-1.304c0.601-0.478,1.221-0.929,1.805-1.42
			c1.16-0.995,2.28-2.036,3.286-3.157c1.017-1.115,1.927-2.29,2.68-3.463l2.768-4.314l1.706,4.756
			c0.187,0.519,0.488,1.213,0.773,1.816c0.293,0.624,0.618,1.238,0.951,1.847c0.682,1.21,1.439,2.376,2.272,3.476
			c1.669,2.189,3.63,4.124,5.861,5.588c1.119,0.723,2.295,1.361,3.544,1.811c1.247,0.446,2.534,0.801,3.866,0.961
			c1.329,0.15,2.686,0.225,4.054,0.12c1.369-0.061,2.742-0.314,4.11-0.612c1.319-0.339,2.883-0.756,4.257-1.166
			c1.354-0.475,2.744-0.842,4.087-1.403c1.375-0.485,2.67-1.113,3.982-1.727l1.889-1.047c0.633-0.348,1.2-0.778,1.815-1.157
			c1.188-0.807,2.297-1.723,3.335-2.723c0.51-0.508,0.985-1.051,1.469-1.591c0.432-0.581,0.938-1.114,1.33-1.731
			c0.868-1.181,1.579-2.483,2.311-3.784c0.717-1.313,1.413-2.65,2.153-3.957c-0.521,1.409-0.992,2.83-1.496,4.254
			c-0.538,1.409-1.097,2.829-1.831,4.183c-0.33,0.696-0.77,1.335-1.163,2.004c-0.446,0.631-0.896,1.271-1.384,1.877
			c-0.995,1.199-2.089,2.327-3.277,3.342c-0.608,0.483-1.191,1.021-1.841,1.448l-1.938,1.308c-1.341,0.775-2.684,1.571-4.089,2.212
			c-1.371,0.716-2.838,1.265-4.285,1.85c-1.466,0.536-2.775,0.977-4.33,1.479c-1.531,0.438-3.096,0.826-4.715,1.006
			c-1.609,0.232-3.267,0.236-4.914,0.097c-1.652-0.139-3.288-0.512-4.876-1.019c-1.593-0.51-3.101-1.249-4.526-2.098
			c-1.418-0.859-2.761-1.842-3.956-2.962c-1.199-1.117-2.292-2.328-3.285-3.604s-1.89-2.616-2.693-4.006
			c-0.396-0.699-0.78-1.404-1.133-2.133c-0.359-0.747-0.674-1.42-1.007-2.308l4.474,0.441c-0.98,1.596-2.068,3.02-3.278,4.295
			c-1.193,1.295-2.483,2.465-3.816,3.579c-0.671,0.551-1.377,1.055-2.065,1.582c-0.698,0.515-1.438,0.966-2.158,1.448
			c-1.476,0.905-2.98,1.772-4.567,2.479l-1.181,0.549l-1.223,0.452c-0.821,0.286-1.617,0.636-2.467,0.839
			c-0.84,0.228-1.673,0.474-2.517,0.68l-2.566,0.473c-0.851,0.18-1.729,0.187-2.591,0.284l-1.297,0.112
			c-0.435,0.017-0.869,0-1.303,0.001c-0.871-0.014-1.729,0.007-2.605-0.063l-2.646-0.319c-0.915-0.079-1.661-0.303-2.469-0.474
			l-1.195-0.271l-0.598-0.135l-0.149-0.034l-0.11-0.025l-0.02-0.007l-0.039-0.013l-0.076-0.025l-0.308-0.102
			c-1.631-0.557-3.285-1.024-4.818-1.825c-1.587-0.668-3.022-1.634-4.484-2.515l-2.048-1.545c-0.696-0.492-1.278-1.128-1.919-1.686
			c-0.645-0.556-1.201-1.199-1.762-1.833l-0.842-0.945l-0.766-1.009c-0.514-0.668-1.019-1.339-1.453-2.058
			c-0.462-0.699-0.909-1.406-1.284-2.155l-0.589-1.102l-0.523-1.133c-0.364-0.746-0.648-1.528-0.958-2.294
			C191.856,486.564,191.383,484.979,191.099,483.364z"/>
	</g>
	<g>
		<path fill="#1C110B" d="M189.129,436.276c-0.208-0.945-0.285-1.919-0.299-2.896c-0.015-0.979,0.057-1.969,0.257-2.944
			c0.356-1.954,1.209-3.899,2.614-5.469c0.158-0.212,0.371-0.368,0.558-0.556l0.29-0.27l0.146-0.135l0.073-0.067l0.019-0.017
			c0.033-0.024-0.051,0.029,0.081-0.059l0.036-0.025l0.592-0.417l0.295-0.208c0.108-0.068,0.258-0.134,0.387-0.198l0.817-0.379
			l0.818-0.229c0.275-0.088,0.552-0.118,0.83-0.146c0.275-0.022,0.565-0.084,0.832-0.068c2.215-0.026,4.104,0.575,5.854,0.709
			c1.753,0.185,3.34-0.086,4.819-0.781c0.187-0.085,0.374-0.158,0.558-0.25l0.537-0.325l0.536-0.321l0.067-0.04
			c-0.063,0.042,0.024-0.02,0.029-0.023l0.146-0.104l0.293-0.21c0.83-0.577,1.447-1.092,2.126-1.68
			c1.361-1.187,2.591-2.529,3.932-3.962c1.321-1.418,2.923-2.957,4.948-4.064c0.495-0.286,1.035-0.493,1.558-0.733
			c0.538-0.176,1.08-0.382,1.625-0.514c0.543-0.111,1.096-0.267,1.636-0.33l0.813-0.102l0.405-0.049l0.103-0.012l0.051-0.006
			l0.025-0.003l0.149-0.007l0.181-0.005c0.978-0.019,1.886-0.085,2.921-0.064l1.683,0.135l0.839,0.083l0.787,0.154
			c0.52,0.107,1.063,0.199,1.562,0.327l1.471,0.402c0.914,0.25,1.812,0.531,2.589,0.661l0.602,0.13l0.584,0.043
			c0.393,0.014,0.77,0.107,1.174,0.068l1.206-0.081l0.302-0.017l0.075-0.005l0.144-0.014l0.179-0.02l0.718-0.077l1.443-0.149
			l1.521-0.106l1.415-0.098c0.466-0.024,0.922-0.063,1.357-0.123l1.329-0.154l1.329-0.245c0.883-0.137,1.781-0.372,2.678-0.595
			c1.791-0.387,3.606-0.997,5.411-1.492l5.429-1.74l0.509-0.163l0.411,0.036c0.321,0.027,0.528,0.069,0.734,0.107
			c0.215,0.037,0.426,0.079,0.615,0.135c0.388,0.107,0.79,0.198,1.149,0.346c0.366,0.141,0.743,0.264,1.098,0.425l1.041,0.517
			c0.689,0.347,1.299,0.814,1.943,1.226c0.585,0.48,1.16,0.976,1.728,1.471l1.5,1.662c0.355,0.402,0.865,1.046,1.178,1.338
			c0.167,0.191,0.363,0.374,0.575,0.553c0.202,0.186,0.407,0.365,0.629,0.512c0.426,0.331,0.884,0.595,1.359,0.827
			c0.475,0.234,0.981,0.397,1.501,0.55l0.805,0.165c0.273,0.044,0.557,0.058,0.835,0.091c0.277,0.043,0.57,0.025,0.857,0.03
			c0.289,0.001,0.577,0.014,0.875-0.022l0.887-0.069l0.896-0.139c0.603-0.063,1.206-0.233,1.813-0.351
			c0.604-0.146,1.21-0.327,1.816-0.49l1.811-0.604l1.799-0.688l0.206-0.079l0.044-0.007c0.446-0.076,0.739-0.093,1.089-0.096
			c0.338-0.011,0.667,0.019,0.997,0.041c0.326,0.048,0.655,0.074,0.973,0.161c0.32,0.071,0.639,0.148,0.944,0.264
			c0.312,0.097,0.614,0.214,0.905,0.359c0.298,0.129,0.587,0.272,0.856,0.448c0.274,0.168,0.557,0.322,0.8,0.529
			c0.248,0.2,0.513,0.379,0.74,0.596l0.668,0.661c0.224,0.219,0.396,0.478,0.594,0.713c0.408,0.468,0.695,1.007,1.021,1.516
			c0.166,0.254,0.267,0.539,0.402,0.805l0.379,0.81l0.588,1.667l0.017,0.045l0.002,0.014c0.414,2.276,0.797,4.562,1.158,6.851
			c-0.765-2.188-1.507-4.383-2.219-6.583l0.019,0.06l-0.76-1.467l-0.445-0.684c-0.154-0.221-0.277-0.466-0.457-0.666L303,419.196
			c-0.155-0.217-0.35-0.395-0.534-0.579c-0.19-0.178-0.357-0.382-0.563-0.538l-0.604-0.474c-0.202-0.154-0.432-0.268-0.642-0.403
			c-0.207-0.143-0.441-0.23-0.667-0.336c-0.22-0.114-0.453-0.195-0.688-0.265c-0.229-0.086-0.467-0.146-0.707-0.189
			c-0.235-0.062-0.478-0.088-0.717-0.113c-0.238-0.04-0.481-0.023-0.719-0.044c-0.238,0.01-0.479,0.005-0.708,0.037
			c-0.219,0.016-0.491,0.072-0.604,0.104l0.25-0.086l-1.828,0.894l-1.88,0.822c-0.646,0.24-1.288,0.497-1.948,0.719
			c-0.674,0.198-1.326,0.441-2.028,0.587l-1.045,0.233l-1.077,0.159c-0.356,0.063-0.729,0.077-1.1,0.101
			c-0.371,0.019-0.736,0.059-1.117,0.033c-0.38-0.017-0.757-0.017-1.138-0.051l-1.146-0.157c-0.764-0.16-1.524-0.357-2.258-0.657
			c-0.729-0.294-1.444-0.652-2.095-1.084c-0.341-0.202-0.648-0.434-0.951-0.674c-0.309-0.229-0.61-0.478-0.902-0.76
			c-0.668-0.595-0.978-0.991-1.52-1.554l-1.207-1.223l-1.334-1.033c-0.487-0.263-0.94-0.595-1.439-0.815l-0.742-0.341
			c-0.249-0.104-0.507-0.171-0.757-0.263c-0.253-0.101-0.501-0.134-0.749-0.2c-0.128-0.036-0.242-0.052-0.354-0.065
			c-0.118-0.021-0.235-0.036-0.243-0.035l0.92-0.127l-5.513,1.934c-1.894,0.562-3.717,1.221-5.681,1.685
			c-0.969,0.247-1.932,0.504-2.949,0.673l-1.507,0.285l-1.535,0.189c-0.517,0.071-1.02,0.116-1.514,0.147L248,415.834l-1.357,0.083
			l-1.426,0.139l-0.718,0.071l-0.181,0.019l-0.021,0.002c-0.063,0.007,0.062-0.007,0.039-0.005l-0.052,0.003l-0.104,0.007
			l-0.418,0.027l-1.674,0.094c-0.556,0.037-1.136-0.069-1.703-0.104l-0.853-0.084l-0.809-0.178
			c-1.116-0.224-2.048-0.545-2.985-0.819l-1.304-0.385c-0.431-0.12-0.837-0.188-1.257-0.287l-0.625-0.14l-0.596-0.065l-1.188-0.148
			c-0.884-0.053-1.901-0.018-2.846-0.03h-0.18c0.049-0.002-0.144,0.004,0.104-0.005l-0.019,0.002l-0.039,0.003l-0.078,0.008
			l-0.312,0.029l-0.622,0.055c-0.417,0.032-0.796,0.14-1.198,0.199c-0.394,0.081-0.755,0.214-1.141,0.308
			c-0.354,0.155-0.728,0.266-1.072,0.448c-1.4,0.674-2.682,1.764-4.058,3.072c-1.374,1.29-2.84,2.703-4.466,3.945
			c-0.813,0.624-1.734,1.27-2.518,1.739l-0.307,0.19l-0.152,0.096l-0.122,0.076l-0.091,0.047l-0.726,0.377l-0.726,0.371
			c-0.253,0.107-0.52,0.198-0.777,0.296c-2.075,0.775-4.453,0.905-6.499,0.485c-2.058-0.388-3.861-1.065-5.507-1.229
			c-0.214-0.042-0.403-0.01-0.608-0.021c-0.202-0.004-0.407-0.011-0.597,0.034l-0.587,0.087c-0.169,0.06-0.341,0.115-0.52,0.167
			c-0.09,0.031-0.173,0.04-0.273,0.086l-0.317,0.173l-0.634,0.348l-0.469,0.344c-0.169,0.137-0.369,0.243-0.517,0.404
			c-1.305,1.164-2.339,2.725-2.913,4.5C189.374,432.433,189.1,434.349,189.129,436.276z"/>
	</g>
</g>
</svg>
