<?xml version="1.0" encoding="utf-8"?>
<!-- Generator: Adobe Illustrator 16.0.0, SVG Export Plug-In . SVG Version: 6.00 Build 0)  -->
<!DOCTYPE svg PUBLIC "-//W3C//DTD SVG 1.1//EN" "http://www.w3.org/Graphics/SVG/1.1/DTD/svg11.dtd">
<svg version="1.1" id="Layer_3" xmlns="http://www.w3.org/2000/svg" xmlns:xlink="http://www.w3.org/1999/xlink" x="0px" y="0px"
	 width="500px" height="900px" viewBox="0 0 500 900" enable-background="new 0 0 500 900" xml:space="preserve">
<g>
	<path fill="none" stroke="#1C110B" stroke-width="5" stroke-miterlimit="10" d="M205.655,120
		c-0.146-9.17-1.788-20.104-6.283-32.467c-14.165-38.954-18.062-58.431,7.791-72.242c0,0,9.916-5.314,16.644-7.437
		c6.729-2.122,12.041,7.083,30.101,13.811c0,0,24.789-9.474,31.871-14.122c7.083-4.646,17.354,1.729,20.896,5.978
		c3.541,4.25,24.08,8.689,6.728,65.078c0,0-7.083,18.73-8.972,33.369c-1.89,14.639-16.055,83.573-56.661,115.683
		c0,0-30.689,27.857-34.468-3.305c0,0-17.099,14.165-25.076,8.971c-7.976-5.194-10.337-16.525-4.671-33.052
		C187.333,189.238,205.972,139.724,205.655,120z"/>
	<path fill="none" stroke="#1C110B" stroke-width="5" stroke-miterlimit="10" d="M204.86,103.823c0,0,5.844-5.489,17.707-4.78
		c11.863,0.708,25.144,4.249,33.288,3.188c8.146-1.063,29.106-10.124,41.079-10.093s11.451,1.829,11.451,1.829"/>
	<g>
		<path fill="#1C110B" d="M211.323,223.93c0,0,2.965-4.319,7.243-10.973c2.144-3.317,4.588-7.225,7.174-11.435
			c1.271-2.118,2.582-4.308,3.916-6.53c1.291-2.247,2.652-4.506,3.926-6.811c1.274-2.304,2.594-4.588,3.786-6.89
			c1.221-2.287,2.422-4.541,3.496-6.762c0.551-1.106,1.092-2.193,1.62-3.258c0.494-1.08,0.978-2.137,1.447-3.166
			c0.467-1.031,0.922-2.034,1.362-3.004c0.396-0.987,0.782-1.94,1.149-2.856c0.369-0.917,0.724-1.795,1.061-2.631
			c0.284-0.854,0.554-1.663,0.808-2.424c0.494-1.526,0.999-2.842,1.211-3.977c0.531-2.248,0.835-3.533,0.835-3.533
			s-0.228,1.303-0.625,3.582c-0.146,1.155-0.572,2.498-0.979,4.061c-0.21,0.781-0.434,1.611-0.669,2.487
			c-0.288,0.857-0.59,1.761-0.906,2.703c-0.317,0.942-0.646,1.926-0.988,2.942c-0.384,1-0.78,2.034-1.188,3.099
			c-0.412,1.063-0.835,2.154-1.269,3.271c-0.468,1.102-0.945,2.226-1.433,3.368c-0.95,2.3-2.021,4.633-3.112,7.004
			c-1.063,2.387-2.249,4.755-3.394,7.147c-1.146,2.393-2.374,4.738-3.54,7.075c-1.207,2.314-2.396,4.592-3.545,6.795
			c-2.347,4.381-4.572,8.453-6.528,11.917c-3.895,6.926-6.647,11.494-6.647,11.493L211.323,223.93z"/>
	</g>
	<g>
		<path fill="#1C110B" d="M195.298,31.581c1.61-2.501,3.486-4.834,5.514-7.043c1.016-1.104,2.094-2.155,3.215-3.168
			c1.133-1,2.291-1.984,3.542-2.869c0.605-0.469,1.257-0.877,1.922-1.271c0.654-0.407,1.313-0.814,2.026-1.142
			c1.376-0.731,2.864-1.302,4.403-1.756c0.79-0.168,1.568-0.409,2.383-0.503c0.839-0.057,1.605-0.128,2.517-0.156
			c1.493,0.064,2.93,0.065,4.471,0.182l2.375,0.246c0.793,0.115,1.587,0.299,2.383,0.452c0.746,0.2,1.569,0.451,2.234,0.653
			c0.683,0.221,1.358,0.42,2.004,0.554l0.98,0.229l1.026,0.148c0.69,0.084,1.344,0.238,2.069,0.271l4.371,0.358l1.115,0.097
			l1.214,0.176c0.819,0.102,1.599,0.288,2.389,0.455c1.573,0.389,3.161,0.862,4.702,1.645c1.534,0.767,3.033,1.8,4.282,3.186
			c1.254,1.37,2.179,3.146,2.613,4.947l-4.526-0.766c0.139-0.19,0.315-0.447,0.434-0.575l0.374-0.433
			c0.25-0.293,0.503-0.576,0.76-0.807c0.518-0.475,1.012-1.022,1.555-1.427l1.609-1.282c0.538-0.422,1.112-0.758,1.668-1.142
			l1.687-1.099l1.747-0.944c1.165-0.628,2.32-1.281,3.533-1.77l3.603-1.562l3.681-1.278l1.842-0.626l1.775-0.586
			c1.231-0.396,2.465-0.767,3.71-1.117c1.254-0.333,2.519-0.649,3.813-0.92c1.362-0.251,2.505-0.518,4.386-0.479
			c0.311,0.048,0.592,0.072,1.085,0.218l0.653,0.189c0.208,0.067,0.342,0.134,0.518,0.202c0.677,0.258,1.269,0.567,1.881,0.863
			c1.171,0.634,2.299,1.303,3.379,2.014c2.17,1.414,4.26,2.895,6.271,4.478c2.004,1.593,3.974,3.224,5.841,4.983l0.065,0.063h0.001
			c0.997,1.245,1.93,2.511,2.81,3.827c0.43,0.666,0.842,1.344,1.209,2.047c0.178,0.355,0.354,0.711,0.493,1.085
			c0.08,0.181,0.123,0.38,0.179,0.568c0.065,0.188,0.057,0.396,0.087,0.585c-0.067-0.188-0.093-0.379-0.19-0.55
			c-0.089-0.174-0.162-0.349-0.271-0.51c-0.191-0.334-0.421-0.648-0.646-0.96c-0.465-0.618-0.976-1.202-1.491-1.779
			c-1.031-1.151-2.128-2.265-3.246-3.314l0.065,0.063c-2.034-1.459-4.128-2.85-6.265-4.161c-1.073-0.648-2.135-1.312-3.215-1.938
			c-1.079-0.625-2.164-1.239-3.262-1.809c-1.091-0.587-2.202-1.097-3.298-1.586c-0.543-0.217-1.092-0.458-1.61-0.613
			c-0.123-0.038-0.28-0.101-0.375-0.12c-0.09-0.017-0.177-0.036-0.262-0.061c-0.107-0.018-0.115-0.063-0.306-0.07l-0.473-0.038
			l-0.118-0.011c0.078,0.004-0.196-0.011,0.172,0.008l-0.012,0.003l-0.024,0.004l-0.048,0.007l-0.19,0.027l-0.379,0.055
			c-0.26,0.043-0.484,0.042-0.785,0.127c-0.572,0.145-1.131,0.249-1.713,0.42c-1.163,0.326-2.331,0.701-3.5,1.096
			c-1.169,0.403-2.344,0.809-3.501,1.242l-3.52,1.361l-3.445,1.326l-3.313,1.563c-1.132,0.478-2.163,1.099-3.214,1.691l-1.574,0.888
			l-1.475,1c-0.481,0.338-1.005,0.644-1.457,1.007l-1.351,1.091c-0.473,0.353-0.814,0.768-1.232,1.144
			c-0.214,0.191-0.378,0.384-0.537,0.574l-0.246,0.284c-0.097,0.106-0.088,0.118-0.144,0.178l-3.426,3.647l-1.102-4.413
			c-0.268-1.069-0.737-2.008-1.475-2.829c-0.729-0.82-1.692-1.515-2.793-2.081c-1.087-0.589-2.348-0.996-3.633-1.342
			c-0.655-0.149-1.313-0.326-1.962-0.416l-0.979-0.17l-1.092-0.132l-4.462-0.519c-0.752-0.063-1.545-0.251-2.316-0.392l-1.162-0.228
			l-1.167-0.326c-0.796-0.21-1.526-0.466-2.241-0.732l-1.993-0.696c-0.649-0.161-1.288-0.36-1.95-0.504l-2.021-0.348
			c-1.399-0.203-2.926-0.309-4.382-0.467l-1.918,0.001c-0.656,0.038-1.318,0.175-1.986,0.25c-1.323,0.264-2.66,0.63-3.953,1.175
			c-0.662,0.229-1.294,0.545-1.928,0.864l-0.957,0.469l-0.931,0.534c-1.259,0.684-2.464,1.487-3.657,2.314
			c-1.188,0.839-2.329,1.746-3.474,2.664C199.508,27.415,197.344,29.428,195.298,31.581z"/>
	</g>
	<g>
		<path fill="#1C110B" d="M259.091,27.464c0,0,0.007,0.104,0.018,0.301c0.011,0.206,0.023,0.506,0.04,0.89
			c0.029,0.744,0.032,1.792,0.007,3.044c-0.045,1.252-0.11,2.707-0.284,4.258c-0.073,0.774-0.18,1.573-0.311,2.381
			c-0.104,0.809-0.29,1.625-0.446,2.437c-0.16,0.812-0.398,1.615-0.592,2.4c-0.247,0.782-0.489,1.546-0.748,2.274
			c-0.306,0.719-0.565,1.417-0.873,2.055c-0.334,0.629-0.634,1.225-0.935,1.759c-0.343,0.509-0.656,0.976-0.937,1.39
			c-0.257,0.421-0.594,0.715-0.812,0.992c-0.464,0.528-0.729,0.831-0.729,0.831s0.201-0.349,0.556-0.956
			c0.159-0.313,0.421-0.645,0.591-1.104c0.187-0.442,0.396-0.942,0.626-1.489c0.185-0.563,0.356-1.181,0.551-1.82
			c0.168-0.651,0.283-1.357,0.435-2.067c0.104-0.726,0.19-1.479,0.275-2.235c0.034-0.772,0.109-1.541,0.109-2.322
			c-0.005-0.781,0.02-1.553-0.032-2.32c-0.026-0.764-0.073-1.515-0.146-2.241c-0.12-1.449-0.323-2.795-0.507-3.938
			c-0.201-1.142-0.391-2.085-0.545-2.729c-0.075-0.311-0.136-0.555-0.177-0.721c-0.045-0.175-0.069-0.268-0.069-0.268
			L259.091,27.464z"/>
	</g>
</g>
<g>
	<path fill="none" stroke="#1C110B" stroke-width="5" stroke-miterlimit="10" d="M11.486,486.948c0,0-12.041-11.332-7.437-27.268
		c4.604-15.937,26.914-52.058,26.914-52.058s9.562-14.873,23.727-12.394c14.165,2.479,1.771-0.278,1.771-0.278l23.373,7.715
		l18.061-12.041c0,0,8.146-6.728,13.812,3.896s24.081,13.457,16.29,62.68c-7.791,49.226-4.25,71.89-32.58,124.299
		c0,0-19.341,25.498-28.972,32.58c-9.629,7.083-24.161,24.863-33.355,6.374c-4.768-9.586-1.417-7.79-6.374-68.347
		C26.714,552.107,18.037,497.077,11.486,486.948z"/>
	<path fill="none" stroke="#1C110B" stroke-width="5" stroke-miterlimit="10" d="M60.592,619.746c0,0,3.304,5.431,8.734,6.139
		s26.001-19.855,36.786-66.058"/>
	<path fill="none" stroke="#1C110B" stroke-width="5" stroke-miterlimit="10" d="M10.828,486.267c0,0,5.026,2.624,13.998,0
		c8.971-2.624,39.189-14.899,50.285-13.956s18.887,0.945,35.177,4.958c0,0,8.733,0.943,13.928-2.598"/>
	<g>
		<path fill="#1C110B" d="M50.321,398.888c0.188,1.576,0.939,2.966,1.979,3.849c0.286,0.2,0.514,0.44,0.832,0.585l0.437,0.246
			c0.153,0.07,0.32,0.122,0.477,0.184l0.47,0.175l0.505,0.111l0.492,0.12c0.17,0.029,0.348,0.042,0.519,0.063
			c0.677,0.11,1.397,0.089,2.096,0.109c0.716-0.042,1.435-0.089,2.146-0.161l2.302-0.282c0.737-0.094,1.488-0.203,2.254-0.321
			c1.521-0.208,3.052-0.467,4.644-0.652c0.786-0.102,1.606-0.188,2.423-0.253c0.84-0.042,1.677-0.087,2.563-0.059
			c0.431-0.008,0.889,0.038,1.34,0.086c0.448,0.031,0.909,0.106,1.377,0.211c0.463,0.081,0.929,0.191,1.396,0.36
			c0.47,0.145,0.935,0.305,1.384,0.542c0.453,0.22,0.902,0.439,1.308,0.742c0.411,0.287,0.845,0.557,1.19,0.904
			c0.768,0.644,1.365,1.381,1.947,2.131l-3.473-0.479c0.621-0.446,1.167-0.825,1.762-1.206c0.583-0.379,1.169-0.752,1.777-1.089
			c0.607-0.34,1.192-0.707,1.82-1.015l1.869-0.928l1.938-0.818c0.633-0.285,1.333-0.473,2-0.7l1.013-0.314
			c0.329-0.117,0.695-0.17,1.047-0.246c0.707-0.146,1.413-0.278,2.115-0.402l-0.252,0.074c0.179-0.046,0.414-0.123,0.626-0.194
			l0.653-0.229c0.437-0.159,0.868-0.333,1.294-0.519c0.417-0.196,0.847-0.381,1.252-0.599c0.211-0.102,0.41-0.214,0.604-0.334
			c0.192-0.12,0.406-0.227,0.581-0.363l0.555-0.396c0.165-0.146,0.331-0.294,0.509-0.438c0.176-0.145,0.303-0.314,0.463-0.477
			c0.171-0.158,0.268-0.346,0.394-0.53l0.184-0.283l0.117-0.306c0.085-0.207,0.188-0.42,0.197-0.648
			c0.016-0.225,0.116-0.471,0.063-0.704l-0.067-0.742c0.114,0.218,0.239,0.442,0.352,0.681c0.145,0.231,0.136,0.5,0.21,0.763
			c0.076,0.27,0.066,0.539,0.045,0.816l-0.03,0.42c-0.028,0.134-0.069,0.266-0.104,0.4c-0.077,0.266-0.141,0.552-0.271,0.791
			c-0.121,0.244-0.226,0.516-0.373,0.746c-0.144,0.231-0.301,0.458-0.458,0.687l-0.521,0.625c-0.172,0.217-0.368,0.391-0.556,0.587
			s-0.382,0.382-0.583,0.554c-0.395,0.364-0.81,0.694-1.237,1.011c-0.431,0.309-0.868,0.606-1.316,0.889l-0.688,0.403
			c-0.239,0.133-0.456,0.254-0.737,0.39l-0.252,0.074c-0.579,0.229-1.153,0.451-1.728,0.659c-0.286,0.11-0.573,0.191-0.854,0.348
			l-0.843,0.414c-0.562,0.279-1.13,0.504-1.674,0.843l-1.647,0.922l-1.612,1.013c-0.547,0.315-1.062,0.697-1.592,1.047
			c-0.532,0.347-1.039,0.73-1.559,1.093c-0.511,0.356-1.038,0.761-1.482,1.109l-1.767,1.384l-1.706-1.863
			c-0.415-0.453-0.794-0.935-1.24-1.284c-0.201-0.216-0.451-0.337-0.678-0.498c-0.219-0.175-0.478-0.28-0.729-0.398
			c-0.237-0.142-0.51-0.234-0.788-0.321c-0.264-0.108-0.555-0.182-0.861-0.236c-0.293-0.072-0.602-0.132-0.934-0.156
			c-0.324-0.034-0.64-0.092-0.992-0.099c-0.674-0.055-1.396-0.046-2.116-0.043c-0.741,0.036-1.479,0.036-2.246,0.086
			c-1.52,0.085-3.092,0.168-4.68,0.228c-0.79,0.023-1.595,0.034-2.415,0.032c-0.826,0.018-1.587-0.039-2.375-0.064
			c-0.848-0.038-1.692-0.136-2.532-0.251c-0.852-0.171-1.688-0.325-2.518-0.651c-0.414-0.126-0.822-0.301-1.217-0.518l-0.588-0.306
			l-0.557-0.386c-0.183-0.133-0.367-0.253-0.54-0.396l-0.491-0.468c-0.338-0.29-0.588-0.683-0.857-1.027
			c-0.463-0.766-0.788-1.584-0.924-2.417C50.067,400.491,50.094,399.656,50.321,398.888z"/>
	</g>
</g>
<g>
	<path fill="none" stroke="#1C110B" stroke-width="5" stroke-miterlimit="10" d="M422.277,419.678c0,0,16.763-15.111,23.257-15.819
		c6.493-0.708,15.166,3.482,35.528,24.376s14.874,45.505,12.218,55.953c-2.656,10.446-15.64,59.197-14.932,83.277
		c0,0-3.307,26.676-5.193,41.079c-1.89,14.399-8.024,27.387-27.147,13.222c0,0-3.779,6.563-9.445,6.114
		c-5.666-0.449-15.108-4.463-25.732-31.611c-10.624-27.151-16.524-59.493-22.19-69.409c-5.666-9.915-10.39-37.303-12.985-48.161
		c-2.597-10.861-10.624-39.427,2.125-63.981c12.748-24.551,18.651-25.496,21.247-25.496c2.598,0,17.471,10.624,21.485,14.165
		c0,0,19.12-2.596,22.19-4.958c3.067-2.36,10.15-6.609,15.816,0c0,0,7.348,8.875,7.583,15.25"/>
	<g>
		<path fill="#1C110B" d="M398.316,406.927c0,0,0.165,0.14,0.477,0.402c0.312,0.254,0.768,0.626,1.348,1.101
			c0.579,0.466,1.303,1.003,2.115,1.616c0.82,0.604,1.766,1.251,2.8,1.921c1.031,0.672,2.165,1.356,3.385,2.007
			c1.213,0.66,2.521,1.274,3.885,1.822c1.367,0.549,2.802,1.006,4.271,1.362c1.473,0.337,2.979,0.592,4.501,0.666l0.567,0.056
			c0.101,0.02,0.394,0.015,0.579,0.022l1.269,0.03c0.864,0.026,1.633,0.024,2.428,0.03c1.579,0,3.177-0.031,4.694-0.104
			c1.523-0.073,2.987-0.198,4.378-0.346c1.377-0.179,2.688-0.355,3.872-0.613c1.202-0.222,2.26-0.538,3.205-0.837
			c0.929-0.321,1.733-0.648,2.352-1.003c0.615-0.355,1.082-0.69,1.367-0.963c0.283-0.287,0.435-0.44,0.435-0.44
			s-0.067,0.209-0.195,0.602c-0.163,0.378-0.442,0.951-0.958,1.558c-0.242,0.324-0.563,0.608-0.897,0.967
			c-0.351,0.321-0.751,0.654-1.191,0.987c-0.893,0.639-1.953,1.311-3.172,1.872c-1.213,0.594-2.573,1.092-4.037,1.557
			c-1.466,0.424-3.032,0.807-4.669,1.07c-1.641,0.266-3.319,0.469-5.074,0.547c-0.873,0.034-1.785,0.103-2.608,0.076l-1.268-0.008
			c-0.236-0.005-0.368,0.007-0.691-0.015l-0.697-0.054c-1.862-0.124-3.708-0.453-5.454-0.979c-1.748-0.521-3.396-1.224-4.896-2.043
			c-3.013-1.632-5.428-3.686-7.238-5.622c-1.809-1.948-3.041-3.772-3.804-5.097C398.618,407.751,398.316,406.927,398.316,406.927z"
			/>
	</g>
	<g>
		<polygon fill="#1C110B" points="421.034,418.228 437.978,411.415 423.518,422.568 		"/>
	</g>
	<g>
		<path fill="#1C110B" d="M399.967,405.31c0,0,0.001-0.633,0.002-1.583c-0.012-0.94,0.031-2.24,0.069-3.521
			c0.082-2.541,0.165-5.082,0.165-5.082s1.134,2.25,2.268,4.5c0.563,1.114,1.114,2.214,1.584,3.05
			c0.452,0.833,0.754,1.389,0.754,1.389L399.967,405.31z"/>
	</g>
	<g>
		<path fill="#1C110B" d="M415.756,415.805c0,0,0.214-0.234,0.588-0.646c0.371-0.398,0.906-0.947,1.559-1.591
			c1.311-1.279,3.116-2.908,5.048-4.369c0.967-0.73,1.966-1.415,2.927-2.011c0.965-0.592,1.898-1.081,2.707-1.47
			c0.412-0.175,0.792-0.333,1.128-0.476c0.326-0.152,0.644-0.222,0.886-0.31c0.49-0.158,0.771-0.248,0.771-0.248
			s-0.246,0.161-0.678,0.44c-0.21,0.148-0.481,0.289-0.756,0.521c-0.277,0.218-0.591,0.463-0.933,0.73
			c-0.656,0.571-1.394,1.255-2.13,2.039c-0.731,0.789-1.473,1.661-2.17,2.566c-1.396,1.812-2.628,3.734-3.487,5.199
			c-0.426,0.734-0.77,1.351-0.992,1.78c-0.216,0.424-0.339,0.664-0.339,0.664L415.756,415.805z"/>
	</g>
	<g>
		<path fill="#1C110B" d="M443.809,620.574c0,0,0.044-0.077,0.13-0.228c0.091-0.154,0.213-0.373,0.354-0.643
			c0.146-0.273,0.328-0.611,0.542-1.01c0.205-0.42,0.441-0.903,0.708-1.444c0.547-1.073,1.105-2.44,1.781-3.989
			c0.589-1.584,1.342-3.349,1.93-5.349c0.294-0.999,0.701-2.017,0.941-3.112c0.271-1.092,0.553-2.22,0.842-3.378
			c0.288-1.161,0.427-2.38,0.656-3.612c0.105-0.619,0.211-1.245,0.318-1.876c0.101-0.663,0.201-1.331,0.304-2.005
			c0.173-1.313,0.473-2.712,0.722-4.097c0.268-1.384,0.584-2.746,0.878-4.14c0.326-1.38,0.656-2.77,0.987-4.165
			c0.355-1.387,0.713-2.779,1.07-4.171c0.744-2.774,1.511-5.541,2.31-8.25c0.802-2.708,1.604-5.367,2.437-7.924
			c0.808-2.564,1.65-5.022,2.453-7.352c0.412-1.161,0.813-2.29,1.2-3.382c0.409-1.085,0.805-2.133,1.183-3.139
			c0.772-2.006,1.506-3.836,2.2-5.438c0.351-0.799,0.679-1.548,0.981-2.238c0.328-0.682,0.629-1.308,0.901-1.871
			c0.524-1.139,1.032-1.985,1.357-2.571c0.329-0.584,0.504-0.896,0.504-0.896s-0.157,0.32-0.453,0.923
			c-0.294,0.603-0.751,1.471-1.214,2.634c-0.239,0.576-0.506,1.215-0.795,1.909c-0.265,0.705-0.55,1.468-0.854,2.281
			c-0.604,1.632-1.231,3.491-1.893,5.527c-0.321,1.021-0.656,2.084-1.004,3.186c-0.327,1.106-0.664,2.252-1.011,3.428
			c-0.672,2.358-1.376,4.848-2.04,7.439c-0.686,2.585-1.339,5.271-1.988,8.002c-0.646,2.732-1.256,5.518-1.843,8.305
			c-0.277,1.396-0.556,2.792-0.832,4.183c-0.251,1.394-0.501,2.779-0.749,4.155c-0.212,1.376-0.453,2.75-0.636,4.088
			c-0.165,1.344-0.375,2.625-0.479,3.979c-0.063,0.655-0.126,1.308-0.188,1.95c-0.076,0.673-0.151,1.338-0.226,1.997
			c-0.17,1.313-0.253,2.62-0.486,3.859c-0.238,1.24-0.47,2.447-0.694,3.615c-0.193,1.177-0.558,2.266-0.813,3.34
			c-0.509,2.148-1.195,4.052-1.731,5.766c-0.625,1.684-1.141,3.161-1.664,4.35c-0.253,0.598-0.479,1.131-0.677,1.595
			c-0.221,0.472-0.408,0.873-0.562,1.198c-0.153,0.334-0.271,0.569-0.348,0.72c-0.078,0.153-0.118,0.233-0.118,0.233
			L443.809,620.574z"/>
	</g>
	<path fill="none" stroke="#1C110B" stroke-width="5" stroke-miterlimit="10" d="M375.652,478.699c0,0,5.431-7.083,22.664-5.313
		c17.232,1.771,16.07,8.146,35.066,9.916c18.995,1.771,44.584,3.541,60.121,0"/>
	<g>
		<path fill="#1C110B" d="M421.497,422.054c0,0-0.184-0.074-0.527-0.213c-0.333-0.143-0.8-0.35-1.38-0.628
			c-1.157-0.56-2.759-1.41-4.573-2.579c-0.906-0.584-1.871-1.24-2.853-1.985c-0.5-0.358-0.988-0.761-1.488-1.168
			c-0.507-0.398-1.004-0.831-1.5-1.282c-0.505-0.439-1.006-0.898-1.489-1.389c-0.49-0.483-0.993-0.961-1.456-1.49
			c-0.965-1.015-1.862-2.121-2.736-3.234l-1.237-1.722c-0.373-0.522-0.779-1.138-1.155-1.608c-0.776-0.999-1.636-1.961-2.581-2.576
			c-0.942-0.645-1.958-0.833-2.894-0.441c-0.944,0.378-1.73,1.171-2.393,1.915c-1.309,1.539-2.27,2.995-3.057,3.91
			c-0.382,0.468-0.715,0.809-0.941,1.038c-0.237,0.219-0.364,0.335-0.364,0.335s0.112-0.13,0.322-0.374
			c0.198-0.252,0.486-0.624,0.811-1.128c0.673-0.994,1.438-2.517,2.608-4.266c0.608-0.852,1.315-1.818,2.508-2.485
			c0.59-0.327,1.327-0.524,2.073-0.486c0.743,0.034,1.476,0.258,2.109,0.593c1.302,0.657,2.348,1.613,3.353,2.63
			c0.528,0.534,0.929,1.018,1.415,1.558l1.341,1.479c0.938,0.948,1.884,1.878,2.886,2.717c0.479,0.439,0.999,0.829,1.501,1.224
			c0.494,0.401,1.005,0.771,1.516,1.123c0.502,0.361,1.002,0.707,1.51,1.02c0.501,0.321,0.987,0.638,1.482,0.913
			c0.972,0.578,1.917,1.075,2.797,1.511c1.763,0.87,3.279,1.467,4.336,1.835c0.528,0.184,0.942,0.313,1.213,0.395
			c0.263,0.072,0.403,0.109,0.403,0.109L421.497,422.054z"/>
	</g>
</g>
<g>
	<path fill="none" stroke="#1A1009" stroke-width="5" stroke-miterlimit="10" d="M292.487,695.142
		c0.089-9.17,2.723-19.766,6.374-32.402c11.516-39.852,19.123-54.713-6.729-68.522c0,0-9.738-4.783-16.467-6.905
		c-6.729-2.122-14.713,5.313-32.773,12.04c0,0-27.888-11.831-34.97-16.479c-7.083-4.646-14.945,8.156-18.487,12.406
		c-2.601,3.119-15.053,16.398-13.279,38.601c0.643,8.04,7.071,19.438,11.688,34.43c0,0,1.399,2.459,3.286,17.096
		c1.89,14.64,20.014,86.31,60.62,118.418c0,0,31.354,22.703,34.469-3.305c0,0,17.098,14.164,25.073,8.971
		c7.977-5.194,9.172-22.803,4.674-33.053C311.278,765.763,292.174,727.759,292.487,695.142z"/>
	<path fill="none" stroke="#1A1009" stroke-width="5" stroke-miterlimit="10" d="M189.789,671.594c0,0,0.773-1.207,12.749-1.24
		c11.971-0.031,27.932,7.336,36.135,7.758c21.232,1.097,38.918-3.856,50.803-3.856c0,0,5.394-0.859,6.944-2.732"/>
	<g>
		<path fill="#1A1009" d="M283.983,802.802c0,0-2.753-4.569-6.647-11.495c-1.957-3.463-4.183-7.536-6.528-11.917
			c-1.149-2.203-2.338-4.48-3.546-6.794c-1.165-2.337-2.395-4.685-3.539-7.077c-1.146-2.392-2.331-4.761-3.395-7.147
			c-1.092-2.37-2.162-4.703-3.111-7.004c-0.486-1.143-0.965-2.268-1.433-3.367c-0.434-1.115-0.856-2.209-1.269-3.271
			c-0.408-1.063-0.806-2.098-1.188-3.098c-0.343-1.018-0.672-1.999-0.987-2.942c-0.316-0.942-0.619-1.845-0.907-2.704
			c-0.235-0.875-0.459-1.706-0.669-2.486c-0.405-1.563-0.831-2.904-0.979-4.062c-0.397-2.279-0.625-3.582-0.625-3.582
			s0.304,1.285,0.834,3.534c0.212,1.134,0.717,2.45,1.211,3.977c0.253,0.762,0.522,1.57,0.808,2.424
			c0.337,0.836,0.69,1.715,1.06,2.632c0.369,0.916,0.754,1.869,1.15,2.855c0.439,0.971,0.896,1.974,1.362,3.005
			c0.471,1.028,0.953,2.085,1.446,3.165c0.529,1.064,1.07,2.152,1.62,3.258c1.074,2.223,2.275,4.476,3.496,6.763
			c1.192,2.301,2.512,4.586,3.786,6.89c1.273,2.304,2.634,4.563,3.926,6.812c1.333,2.224,2.646,4.411,3.915,6.529
			c2.586,4.209,5.031,8.116,7.175,11.436c4.278,6.652,7.242,10.972,7.242,10.972L283.983,802.802z"/>
	</g>
	<g>
		<path fill="#1A1009" d="M245.384,599.555c0,0-0.06,0.26-0.163,0.713c-0.112,0.462-0.244,1.094-0.389,1.846
			c-0.151,0.761-0.327,1.649-0.517,2.602c-0.142,0.971-0.293,2.005-0.443,3.04c-0.076,0.521-0.152,1.043-0.228,1.556
			c-0.088,0.516-0.132,1.021-0.16,1.51c-0.07,0.986-0.137,1.905-0.192,2.694c-0.112,1.595-0.188,2.658-0.188,2.658
			s-0.236-1.036-0.591-2.592c-0.178-0.785-0.386-1.703-0.608-2.687c-0.118-0.495-0.228-1.008-0.293-1.529
			c-0.079-0.522-0.159-1.055-0.24-1.587c-0.161-1.069-0.322-2.142-0.474-3.146c-0.102-1.021-0.195-1.975-0.276-2.79
			c-0.085-0.826-0.146-1.509-0.17-1.965c-0.032-0.466-0.052-0.73-0.052-0.73L245.384,599.555z"/>
	</g>
	<path fill="none" stroke="#1A1009" stroke-width="5" stroke-miterlimit="10" d="M232.879,595.004c0,0,15.433-8.582,29.285-4.33"/>
</g>
<g>
	<path fill="none" stroke="#1C110B" stroke-width="5" stroke-miterlimit="10" d="M302.88,494.103
		c-14.639,12.04-29.512,18.414-50.995,19.123c-21.482,0.708-43.676-1.342-58.076-30.418c-6.928-13.985-5.613-29.701-6.14-44.895
		c-0.567-16.394-2.241-32.098,10.624-42.021c0,0,15.347-9.683,48.398-9.209c0,0,19.123,1.18,25.497,3.541
		c6.374,2.36,38.719,4.251,40.371,50.76C314.212,487.492,302.88,494.103,302.88,494.103z"/>
	<g>
		<path fill="#1A1009" d="M213.405,454.441c1.457-0.604,2.925-1.171,4.396-1.714c1.467-0.563,2.95-1.065,4.427-1.588
			c1.476-0.533,2.965-1.006,4.451-1.497c1.486-0.486,2.97-0.985,4.464-1.439l0.324-0.099l0.568,0.103
			c0.593,0.107,1.28,0.197,1.925,0.281c0.656,0.082,1.313,0.149,1.969,0.2c1.313,0.089,2.614,0.136,3.887,0.092
			c0.626-0.049,1.268-0.066,1.864-0.163c0.617-0.059,1.19-0.189,1.758-0.315c0.289-0.059,0.531-0.172,0.799-0.25l0.393-0.127
			l0.341-0.171c0.497-0.188,0.84-0.479,1.214-0.726c0.134-0.159,0.272-0.306,0.421-0.444l0.786-0.848
			c0.157-0.214,0.667-0.621,1.069-0.933c0.428-0.357,0.852-0.568,1.283-0.794c0.421-0.247,0.888-0.395,1.353-0.545
			c0.462-0.176,0.94-0.229,1.416-0.309c0.952-0.132,1.891-0.089,2.783,0.052c0.447,0.067,0.866,0.192,1.298,0.295
			c0.417,0.125,0.817,0.277,1.225,0.423c0.387,0.172,0.771,0.347,1.15,0.53c0.362,0.206,0.733,0.401,1.084,0.624
			c0.695,0.458,1.359,0.951,1.978,1.528c0.626,0.552,1.202,1.223,1.746,1.981l-3.016-0.8c3.818-1.724,7.652-3.417,11.529-5.02
			l0.411-0.169l0.234-0.012c0.421-0.021,0.716-0.014,1.061,0.001c0.33,0.017,0.657,0.037,0.98,0.072
			c0.65,0.063,1.292,0.162,1.929,0.291c0.639,0.129,1.268,0.299,1.887,0.513c0.31,0.098,0.616,0.207,0.919,0.339
			c0.302,0.132,0.608,0.232,0.899,0.394l0.876,0.45l0.837,0.529c0.283,0.164,0.534,0.387,0.797,0.588
			c0.258,0.205,0.52,0.402,0.74,0.651l0.685,0.709l0.596,0.78c0.416,0.5,0.672,1.111,1.001,1.653l-0.656-0.414
			c0.551,0.079,1.103,0.177,1.657,0.274c0.556,0.098,1.122,0.12,1.688,0.185c1.131,0.111,2.271,0.244,3.426,0.395
			c-1.129,0.198-2.271,0.382-3.424,0.543c-0.577,0.068-1.154,0.181-1.738,0.215c-0.585,0.037-1.174,0.074-1.764,0.095l-0.259,0.008
			l-0.398-0.422c-0.376-0.398-0.664-0.856-1.088-1.19l-0.591-0.526l-0.649-0.45c-0.205-0.16-0.449-0.271-0.673-0.403
			c-0.229-0.125-0.441-0.27-0.69-0.362l-0.717-0.313l-0.747-0.247c-0.242-0.093-0.512-0.132-0.763-0.201
			c-0.252-0.068-0.513-0.117-0.774-0.156c-0.261-0.045-0.519-0.094-0.785-0.113c-0.265-0.022-0.522-0.067-0.79-0.078
			c-0.527-0.041-1.06-0.059-1.587-0.044c-0.265,0.002-0.524,0.019-0.785,0.037c-0.244,0.021-0.538,0.047-0.704,0.075l0.646-0.182
			c-3.677,2.02-7.396,3.948-11.134,5.847l-1.659,0.844l-1.356-1.644c-0.286-0.349-0.615-0.739-1.048-1.085
			c-0.405-0.358-0.874-0.673-1.343-0.967c-0.235-0.146-0.481-0.267-0.721-0.405l-0.74-0.332l-0.744-0.246
			c-0.244-0.045-0.491-0.125-0.729-0.155c-0.479-0.06-0.937-0.091-1.357-0.033c-0.205,0.042-0.427,0.037-0.611,0.125
			c-0.192,0.065-0.396,0.103-0.57,0.223c-0.185,0.096-0.391,0.181-0.487,0.284c-0.138,0.121-0.227,0.082-0.514,0.407l-0.364,0.371
			l-0.182,0.186l-0.047,0.046l-0.011,0.013c-0.112,0.128,0.148-0.168,0.118-0.135l-0.008,0.009l-0.032,0.032l-0.129,0.131
			c-0.345,0.347-0.7,0.687-1.061,1.014c-0.768,0.537-1.563,1.052-2.374,1.347l-0.609,0.251l-0.604,0.17
			c-0.4,0.102-0.81,0.237-1.204,0.3c-0.793,0.138-1.583,0.26-2.352,0.293c-0.779,0.082-1.529,0.031-2.288,0.033
			c-0.746-0.044-1.494-0.076-2.225-0.167c-0.737-0.063-1.458-0.195-2.179-0.312c-0.72-0.128-1.433-0.273-2.142-0.436
			c-0.716-0.175-1.39-0.35-2.142-0.578l0.891,0.004c-1.535,0.293-3.081,0.542-4.624,0.803c-1.544,0.257-3.083,0.531-4.638,0.745
			c-1.552,0.225-3.1,0.471-4.661,0.653C216.54,454.118,214.977,454.301,213.405,454.441z"/>
	</g>
	<g>
		<path fill="#1A1009" d="M251.063,447.782c0,0,0.085,2.187,0.212,5.465c0.054,1.645,0.113,3.563,0.18,5.616
			c0.025,1.028,0.081,2.086,0.086,3.166c0.016,1.079,0.029,2.176,0.045,3.271c0.028,2.188,0.06,4.378,0.087,6.431
			c0.031,1.021-0.018,2.021-0.038,2.964c-0.025,0.942-0.049,1.832-0.071,2.654c-0.09,3.273-0.148,5.458-0.148,5.458
			s-0.253-2.171-0.632-5.428c-0.095-0.812-0.196-1.689-0.306-2.618c-0.111-0.93-0.205-1.904-0.382-2.916
			c-0.319-2.021-0.659-4.173-1-6.327c-0.17-1.075-0.34-2.15-0.507-3.209c-0.158-1.06-0.362-2.097-0.534-3.104
			c-0.354-2.01-0.687-3.885-0.971-5.492c-0.592-3.22-0.986-5.365-0.986-5.365L251.063,447.782z"/>
	</g>
	<g>
		<path fill="#1A1009" d="M247.497,446.802c0,0,0.09-2.051,0.226-5.126c0.067-1.538,0.146-3.332,0.231-5.254
			c0.054-1.918,0.11-3.964,0.168-6.01c0.229-8.201,0.457-16.402,0.457-16.402s1.021,8.151,2.041,16.304
			c0.256,2.043,0.511,4.086,0.75,6.001c0.208,1.914,0.402,3.699,0.568,5.229c0.333,3.061,0.557,5.102,0.557,5.102L247.497,446.802z"
			/>
	</g>
	<g>
		<path fill="#1A1009" d="M252.908,443.51c0,0,0.105-0.062,0.305-0.173c0.179-0.099,0.466-0.272,0.837-0.499
			c0.734-0.461,1.794-1.137,3.024-2.029c1.239-0.878,2.646-1.971,4.115-3.201c1.456-1.242,2.994-2.604,4.431-4.074
			c0.742-0.713,1.43-1.478,2.122-2.222c0.707-0.732,1.322-1.516,1.959-2.25c0.645-0.728,1.188-1.49,1.738-2.192
			c0.559-0.697,1.042-1.388,1.479-2.032c0.438-0.646,0.862-1.226,1.2-1.763c0.332-0.542,0.621-1.014,0.858-1.402
			c0.479-0.781,0.752-1.229,0.752-1.229s-0.204,0.482-0.561,1.325c-0.179,0.423-0.396,0.938-0.646,1.526
			c-0.256,0.587-0.591,1.226-0.934,1.938c-0.34,0.714-0.724,1.481-1.177,2.267c-0.447,0.787-0.886,1.646-1.424,2.479
			c-0.53,0.837-1.042,1.735-1.646,2.585c-0.589,0.863-1.177,1.753-1.825,2.597c-1.247,1.729-2.617,3.37-3.935,4.888
			c-1.331,1.504-2.63,2.868-3.797,3.991c-1.155,1.137-2.182,2.031-2.912,2.659c-0.368,0.311-0.662,0.556-0.891,0.731
			c-0.206,0.162-0.314,0.248-0.314,0.248L252.908,443.51z"/>
	</g>
	<g>
		<path fill="#1A1009" d="M243.598,450.106c0,0,0.031,0.122,0.09,0.351c0.071,0.266,0.141,0.597,0.228,1.019
			c0.154,0.843,0.365,2.028,0.482,3.445c0.081,0.707,0.102,1.476,0.152,2.28c0.001,0.811,0.053,1.657,0.007,2.534
			c-0.017,0.877-0.059,1.778-0.147,2.689c-0.055,0.912-0.198,1.832-0.319,2.747c-0.11,0.916-0.331,1.817-0.488,2.706
			c-0.181,0.886-0.431,1.742-0.634,2.572c-0.217,0.828-0.505,1.608-0.735,2.354c-0.22,0.748-0.524,1.427-0.768,2.061
			c-0.263,0.627-0.455,1.216-0.708,1.708c-0.237,0.496-0.444,0.93-0.614,1.285c-0.339,0.708-0.533,1.113-0.533,1.113
			s0.121-0.434,0.332-1.19c0.105-0.377,0.232-0.834,0.379-1.358c0.162-0.519,0.25-1.132,0.396-1.782
			c0.127-0.655,0.306-1.354,0.39-2.113c0.096-0.758,0.239-1.544,0.307-2.369c0.053-0.827,0.147-1.672,0.171-2.535
			c0-0.865,0.06-1.735,0.011-2.608c-0.039-0.873-0.052-1.74-0.152-2.59c-0.063-0.852-0.171-1.683-0.297-2.48
			c-0.096-0.801-0.283-1.562-0.409-2.284c-0.175-0.714-0.31-1.394-0.492-2.003c-0.323-1.231-0.688-2.213-0.936-2.883
			c-0.132-0.329-0.234-0.589-0.301-0.721c-0.076-0.168-0.117-0.258-0.117-0.258L243.598,450.106z"/>
	</g>
	<g>
		<path fill="#1A1009" d="M270.202,444.851c0,0,0.089,0.094,0.255,0.269c0.187,0.193,0.428,0.461,0.722,0.794
			c0.587,0.676,1.399,1.639,2.297,2.84c0.912,1.188,1.893,2.632,2.889,4.197c0.471,0.806,0.996,1.604,1.448,2.468
			c0.472,0.851,0.943,1.715,1.362,2.607c0.448,0.875,0.846,1.775,1.219,2.668c0.399,0.877,0.715,1.776,1.031,2.636
			c0.335,0.853,0.579,1.706,0.821,2.508c0.12,0.399,0.237,0.789,0.352,1.165c0.091,0.383,0.178,0.753,0.262,1.107
			c0.162,0.711,0.328,1.354,0.441,1.933c0.094,0.582,0.177,1.089,0.244,1.507c0.135,0.831,0.212,1.306,0.212,1.306
			s-0.153-0.456-0.42-1.255c-0.134-0.397-0.295-0.88-0.48-1.433c-0.203-0.548-0.47-1.15-0.738-1.813
			c-0.138-0.329-0.279-0.672-0.428-1.027c-0.17-0.346-0.346-0.703-0.525-1.069c-0.359-0.733-0.725-1.511-1.182-2.274
			c-0.438-0.772-0.874-1.574-1.394-2.349c-0.491-0.787-1.005-1.574-1.564-2.332c-0.529-0.774-1.109-1.516-1.681-2.238
			c-0.552-0.737-1.173-1.405-1.729-2.078c-1.168-1.306-2.286-2.486-3.301-3.436c-0.998-0.964-1.872-1.708-2.479-2.211
			c-0.31-0.252-0.544-0.44-0.691-0.549c-0.167-0.126-0.256-0.193-0.256-0.193L270.202,444.851z"/>
	</g>
	<g>
		<path fill="#1A1009" d="M239.307,449.372c0,0,0.023-0.024,0.067-0.072c0.027-0.032,0.017-0.022,0.04-0.034
			c0.053-0.063,0.223-0.275,0.385-0.582c0.093-0.144,0.182-0.325,0.271-0.539c0.093-0.209,0.208-0.425,0.287-0.696
			c0.085-0.266,0.198-0.538,0.282-0.848c0.078-0.316,0.16-0.648,0.245-0.996c0.088-0.348,0.122-0.736,0.191-1.126
			c0.069-0.391,0.125-0.803,0.144-1.237c0.031-0.433,0.063-0.878,0.097-1.333c-0.002-0.463-0.005-0.936-0.008-1.417
			c0.031-0.965-0.108-1.972-0.17-3c-0.086-1.027-0.282-2.068-0.419-3.12c-0.173-1.046-0.42-2.084-0.624-3.115
			c-0.201-1.034-0.519-2.024-0.762-3.002c-0.13-0.488-0.258-0.968-0.383-1.438c-0.149-0.463-0.295-0.916-0.437-1.355
			c-0.285-0.885-0.554-1.721-0.802-2.491c-0.248-0.773-0.534-1.459-0.758-2.081c-0.231-0.619-0.435-1.158-0.601-1.604
			c-0.333-0.891-0.523-1.398-0.523-1.398s0.261,0.476,0.719,1.308c0.229,0.417,0.507,0.923,0.826,1.504
			c0.311,0.585,0.696,1.23,1.056,1.964c0.36,0.735,0.75,1.531,1.163,2.374c0.207,0.423,0.419,0.856,0.636,1.301
			c0.195,0.453,0.395,0.918,0.597,1.39c0.389,0.951,0.856,1.913,1.216,2.938c0.361,1.023,0.769,2.055,1.105,3.112
			c0.303,1.07,0.662,2.128,0.913,3.206c0.228,1.084,0.527,2.137,0.652,3.205c0.08,0.531,0.158,1.053,0.233,1.564
			c0.039,0.522,0.076,1.033,0.113,1.531c0.049,0.498,0.056,0.99,0.043,1.473c-0.012,0.48,0.008,0.942-0.034,1.396
			c-0.044,0.456-0.086,0.892-0.126,1.306c-0.051,0.417-0.143,0.82-0.209,1.196c-0.059,0.376-0.172,0.735-0.265,1.067
			c-0.087,0.331-0.187,0.637-0.303,0.92c-0.207,0.566-0.426,0.995-0.637,1.363c-0.126,0.193-0.223,0.344-0.289,0.442
			c-0.036,0.056-0.056,0.083-0.056,0.083L239.307,449.372z"/>
	</g>
	<g>
		<path fill="#1A1009" d="M222.445,452.741c0,0-0.082-0.272-0.225-0.752c-0.131-0.455-0.351-1.124-0.635-1.94
			c-0.27-0.816-0.65-1.747-1.027-2.766c-0.432-0.985-0.85-2.076-1.354-3.119c-0.517-1.032-0.974-2.122-1.527-3.058
			c-0.541-0.945-0.997-1.88-1.485-2.606c-0.965-1.483-1.607-2.474-1.607-2.474s0.886,0.792,2.214,1.98
			c0.681,0.591,1.364,1.373,2.163,2.173c0.811,0.793,1.546,1.733,2.352,2.641c0.792,0.915,1.504,1.886,2.22,2.777
			c0.659,0.922,1.308,1.771,1.813,2.537c0.515,0.752,0.942,1.399,1.235,1.881c0.281,0.456,0.443,0.716,0.443,0.716L222.445,452.741z
			"/>
	</g>
	<g>
		<path fill="#1A1009" d="M230.131,451.924c0,0-0.182,0.323-0.501,0.892c-0.325,0.553-0.789,1.344-1.346,2.293
			c-1.127,1.882-2.688,4.354-4.365,6.745c-0.833,1.198-1.705,2.372-2.558,3.443c-0.412,0.543-0.853,1.043-1.255,1.521
			c-0.394,0.484-0.816,0.909-1.183,1.313c-0.36,0.407-0.738,0.744-1.056,1.053c-0.315,0.31-0.601,0.568-0.856,0.761
			c-0.492,0.396-0.773,0.621-0.773,0.621s0.226-0.28,0.619-0.771c0.203-0.235,0.422-0.547,0.66-0.911
			c0.24-0.363,0.525-0.756,0.786-1.227c0.266-0.465,0.574-0.946,0.849-1.496c0.283-0.543,0.593-1.103,0.873-1.71
			c0.584-1.194,1.166-2.49,1.706-3.806c1.091-2.621,2.054-5.296,2.727-7.313c0.327-1.008,0.599-1.849,0.79-2.437
			c0.177-0.583,0.278-0.917,0.278-0.917L230.131,451.924z"/>
	</g>
	<g>
		<path fill="#1A1009" d="M194.99,442.635c0.043-1.438,0.296-2.875,0.674-4.282c0.391-1.403,0.893-2.792,1.546-4.124
			c0.685-1.312,1.454-2.602,2.392-3.786c0.444-0.613,0.988-1.141,1.493-1.71c0.563-0.506,1.094-1.062,1.696-1.529l0.908-0.701
			l0.228-0.177l0.114-0.087l0.027-0.021l0.015-0.012l0.087-0.052l0.056-0.036l0.452-0.288l1.807-1.146
			c0.554-0.39,1.373-0.698,2.079-1.04l1.104-0.492l1.124-0.354c0.374-0.112,0.758-0.244,1.126-0.339l1.088-0.246
			c0.77-0.167,1.33-0.319,1.988-0.476c0.601-0.188,1.137-0.394,1.704-0.597l1.605-0.872c0.526-0.355,1.046-0.765,1.575-1.131
			l0.755-0.541l0.82-0.686c0.569-0.461,1.027-0.899,1.537-1.347l1.554-1.411c1.061-0.959,2.109-1.95,3.287-2.909
			c0.562-0.485,1.209-0.937,1.815-1.403c0.664-0.432,1.287-0.899,2.012-1.282c1.376-0.841,2.982-1.427,4.616-1.85
			c1.662-0.316,3.386-0.491,5.026-0.273c0.411,0.047,0.826,0.085,1.232,0.145l1.183,0.271c0.39,0.098,0.795,0.17,1.171,0.292
			l1.119,0.386c1.36,0.465,2.683,0.969,4.026,1.452l-1.877,0.172c0.641-0.336,1.212-0.609,1.821-0.894
			c0.603-0.279,1.21-0.54,1.823-0.791c1.227-0.501,2.468-0.972,3.753-1.364c1.288-0.381,2.593-0.729,3.968-0.942
			c0.684-0.112,1.38-0.198,2.1-0.231c0.363-0.009,0.715-0.04,1.088-0.024l1.118,0.066l-0.401,0.015c0.544-0.055,1.005-0.082,1.5-0.1
			c0.485-0.003,0.97-0.021,1.452-0.005c0.966,0.016,1.928,0.063,2.888,0.157c0.959,0.081,1.915,0.226,2.864,0.386l1.415,0.31
			l1.396,0.402c0.467,0.119,0.917,0.316,1.37,0.482c0.453,0.167,0.903,0.34,1.335,0.571c0.435,0.222,0.877,0.409,1.285,0.675
			l1.211,0.802c0.392,0.282,0.741,0.626,1.106,0.934c0.38,0.292,0.683,0.671,0.982,1.044c0.295,0.375,0.628,0.709,0.839,1.142
			l0.688,1.221l-0.945-1.015c-0.282-0.356-0.678-0.607-1.025-0.892c-0.355-0.277-0.693-0.565-1.1-0.771
			c-0.393-0.217-0.758-0.465-1.16-0.651l-1.226-0.513c-0.407-0.165-0.849-0.261-1.262-0.402c-0.413-0.146-0.848-0.237-1.281-0.323
			c-0.435-0.085-0.855-0.199-1.3-0.24l-1.313-0.164l-1.324-0.088c-0.885-0.039-1.768-0.064-2.653-0.029
			c-0.884,0.021-1.771,0.087-2.647,0.183c-0.438,0.038-0.874,0.109-1.31,0.165c-0.424,0.066-0.883,0.126-1.252,0.2l-0.005,0.002
			l-0.397,0.015l-0.785,0.028c-0.262,0.009-0.544,0.064-0.813,0.093c-0.545,0.074-1.106,0.193-1.665,0.338
			c-1.119,0.273-2.246,0.685-3.359,1.125c-1.118,0.432-2.229,0.926-3.322,1.458c-0.548,0.263-1.088,0.544-1.627,0.824
			c-0.529,0.274-1.092,0.578-1.563,0.854l-0.851,0.497l-1.028-0.324l-4.07-1.283l-0.908-0.291c-0.303-0.092-0.604-0.127-0.906-0.195
			l-0.904-0.188l-0.894-0.072c-1.192-0.143-2.336,0.006-3.465,0.214c-1.109,0.321-2.211,0.699-3.281,1.336
			c-0.542,0.271-1.063,0.665-1.599,0.999c-0.522,0.399-1.054,0.753-1.574,1.196c-1.051,0.817-2.105,1.75-3.181,2.674l-1.653,1.415
			c-0.582,0.469-1.184,0.982-1.74,1.393l-0.852,0.647c-0.385,0.271-0.667,0.442-1.006,0.668c-0.655,0.422-1.29,0.854-1.972,1.247
			l-2.225,1.023c-0.783,0.241-1.6,0.497-2.376,0.661c-0.741,0.113-1.576,0.25-2.209,0.329l-1.013,0.136
			c-0.328,0.055-0.625,0.134-0.942,0.198l-0.938,0.201l-0.877,0.308c-0.597,0.234-1.158,0.331-1.815,0.705l-1.929,0.927
			l-0.482,0.229l-0.061,0.029c0.027-0.018-0.083,0.047,0.058-0.035l-0.013,0.008l-0.027,0.016l-0.105,0.063l-0.212,0.127
			l-0.854,0.507c-0.572,0.338-1.083,0.765-1.635,1.144c-0.496,0.442-1.032,0.853-1.512,1.324c-0.994,0.916-1.867,1.967-2.688,3.071
			c-0.78,1.129-1.528,2.311-2.14,3.573C195.929,439.944,195.379,441.257,194.99,442.635z"/>
	</g>
	<g>
		<path fill="#1A1009" d="M201.126,474.036c1.896,1.646,3.784,3.283,5.692,4.895l2.875,2.393c0.947,0.809,1.925,1.578,2.899,2.347
			l1.458,1.153l1.484,1.111c0.984,0.742,1.958,1.504,2.981,2.163l1.515,1.023l0.378,0.257l0.095,0.063l0.047,0.032l0.012,0.008
			c0.074,0.048-0.087-0.057-0.065-0.043l0.025,0.014l0.206,0.112l0.823,0.45c0.565,0.344,1.063,0.503,1.556,0.714
			c0.253,0.1,0.481,0.217,0.751,0.306l0.824,0.257l0.821,0.259l0.848,0.188c0.567,0.116,1.123,0.271,1.705,0.324
			c0.579,0.066,1.147,0.177,1.729,0.21l1.74,0.096c1.164-0.021,2.324-0.02,3.477-0.154c0.579-0.033,1.148-0.119,1.716-0.228
			c0.566-0.104,1.142-0.166,1.69-0.332c0.551-0.151,1.112-0.268,1.655-0.434l1.606-0.554c1.03-0.445,2.065-0.884,2.99-1.481
			l0.712-0.417l0.651-0.489c0.433-0.329,0.896-0.624,1.256-1.02c0.37-0.386,0.808-0.712,1.13-1.132l0.99-1.238l2.092-2.614
			l1.979,2.686c0.347,0.471,0.827,1.104,1.307,1.634c0.472,0.559,0.996,1.082,1.52,1.596c1.054,1.026,2.208,1.934,3.403,2.747
			c0.589,0.426,1.232,0.738,1.845,1.12c0.638,0.316,1.29,0.598,1.935,0.896c0.672,0.207,1.335,0.449,2.01,0.646
			c0.688,0.124,1.368,0.287,2.058,0.402l2.094,0.135l2.106-0.163c0.702-0.069,1.395-0.287,2.097-0.416
			c0.709-0.104,1.384-0.396,2.069-0.646l1.027-0.374c0.328-0.104,0.76-0.294,1.024-0.432c0.612-0.301,1.313-0.655,1.95-1.04
			c1.313-0.745,2.569-1.618,3.791-2.533c0.636-0.428,1.189-0.955,1.791-1.431c0.606-0.471,1.148-1.011,1.703-1.541
			c1.146-1.023,2.112-2.219,3.133-3.37c0.895-1.244,1.909-2.42,2.67-3.766c0.392-0.663,0.86-1.291,1.193-1.989l1.025-2.09
			c0.162-0.354,0.367-0.69,0.495-1.059l0.405-1.097l0.834-2.198c0.43-1.505,0.813-3.037,1.181-4.579
			c0.225-1.563,0.516-3.14,0.691-4.73c0.084-1.595,0.163-3.202,0.273-4.826c0.208,1.6,0.384,3.214,0.565,4.842
			c0.058,1.626,0,3.265,0.001,4.914c-0.172,1.632-0.386,3.274-0.646,4.913l-0.595,2.422c-0.188,0.814-0.403,1.622-0.728,2.395
			l-0.891,2.351c-0.292,0.789-0.726,1.512-1.084,2.272c-0.697,1.541-1.651,2.932-2.565,4.354c-1.021,1.338-2.01,2.726-3.188,3.939
			c-0.57,0.626-1.133,1.263-1.764,1.828c-0.624,0.57-1.208,1.194-1.876,1.72c-1.3,1.093-2.655,2.122-4.104,3.044
			c-0.724,0.479-1.438,0.9-2.259,1.338c-0.447,0.24-0.751,0.383-1.183,0.552l-1.227,0.5c-0.818,0.328-1.623,0.696-2.511,0.875
			c-0.874,0.199-1.729,0.49-2.626,0.604l-2.71,0.262l-2.736-0.116c-0.901-0.124-1.799-0.307-2.697-0.47
			c-0.876-0.24-1.734-0.539-2.601-0.813c-0.823-0.363-1.654-0.722-2.459-1.119c-0.766-0.456-1.574-0.86-2.298-1.37
			c-1.477-0.99-2.845-2.11-4.097-3.338c-0.622-0.618-1.234-1.243-1.802-1.919c-0.59-0.678-1.098-1.32-1.677-2.169l4.071,0.069
			l-1.381,1.663c-0.46,0.555-1.028,0.992-1.542,1.487c-0.51,0.51-1.104,0.892-1.676,1.305l-0.864,0.61
			c-0.302,0.179-0.61,0.341-0.916,0.509c-1.208,0.714-2.496,1.216-3.777,1.709l-1.958,0.602c-0.656,0.178-1.325,0.293-1.987,0.435
			c-0.661,0.158-1.334,0.206-2.001,0.294c-0.668,0.092-1.336,0.157-2.007,0.167c-1.339,0.097-2.679,0.026-4.012-0.054l-1.991-0.244
			c-0.662-0.086-1.314-0.252-1.971-0.376c-0.658-0.111-1.3-0.328-1.945-0.51c-0.321-0.097-0.645-0.183-0.963-0.287l-0.945-0.367
			l-0.941-0.368c-0.315-0.13-0.639-0.311-0.955-0.465c-0.639-0.319-1.292-0.652-1.766-1.009l-0.776-0.525l-0.194-0.131l-0.023-0.017
			l-0.091-0.062l-0.012-0.009l-0.046-0.039l-0.093-0.076l-0.372-0.306l-1.485-1.221c-1.009-0.796-1.929-1.666-2.865-2.521
			c-0.95-0.839-1.844-1.734-2.726-2.635c-1.788-1.78-3.514-3.607-5.175-5.493C204.291,477.932,202.675,476.01,201.126,474.036z"/>
	</g>
</g>
</svg>
