<?xml version="1.0" encoding="utf-8"?>
<!-- Generator: Adobe Illustrator 16.0.0, SVG Export Plug-In . SVG Version: 6.00 Build 0)  -->
<!DOCTYPE svg PUBLIC "-//W3C//DTD SVG 1.1//EN" "http://www.w3.org/Graphics/SVG/1.1/DTD/svg11.dtd">
<svg version="1.1" id="Layer_2" xmlns="http://www.w3.org/2000/svg" xmlns:xlink="http://www.w3.org/1999/xlink" x="0px" y="0px"
	 width="500px" height="900px" viewBox="0 0 500 900" enable-background="new 0 0 500 900" xml:space="preserve">
<g>
	<path fill="none" stroke="#1E120D" stroke-width="5" stroke-miterlimit="10" d="M9.69,394.749c0,0,3.576-4.6,4.089-11.759
		c0.512-7.157,2.045-108.394,24.542-161.058c0,0,12.782-29.656,23.008,5.624c10.227,35.279,25.055,72.093,28.123,167.193
		c0,0,13.424,16.618,0,34.643c-13.423,18.021-28.379,2.684-30.679,51.385c0,0-1.15,20.707-18.023,14.955
		C23.876,489.982-6.415,408.81,9.69,394.749z"/>
	<path fill="none" stroke="#1E120D" stroke-width="5" stroke-miterlimit="10" d="M11.599,391.425c0,0,9.593-4.982,19.946,10.74
		c10.354,15.722,36.046,6.518,40.265,2.684c4.218-3.834,7.289-9.844,17.641-10.1"/>
	<g>
		<path fill="#1E120D" d="M56.725,476.224c0,0-0.016-0.059-0.048-0.172c-0.031-0.121-0.078-0.299-0.138-0.531
			c-0.107-0.439-0.249-1.068-0.391-1.867c-0.292-1.594-0.583-3.865-0.656-6.592c-0.017-1.363-0.018-2.84,0.112-4.393
			c0.109-1.553,0.311-3.184,0.629-4.846c0.288-1.668,0.755-3.357,1.265-5.051c0.567-1.678,1.188-3.365,1.976-4.973
			c0.746-1.627,1.647-3.173,2.586-4.648c0.949-1.472,1.983-2.844,3.039-4.12c1.076-1.259,2.157-2.434,3.254-3.471
			c0.527-0.541,1.082-1.021,1.618-1.483c0.542-0.456,1.03-0.935,1.561-1.322c1.039-0.801,1.968-1.557,2.86-2.136
			c0.876-0.6,1.624-1.141,2.285-1.52c1.296-0.791,2.036-1.243,2.036-1.243s-0.696,0.517-1.914,1.42
			c-0.62,0.434-1.315,1.039-2.126,1.708c-0.827,0.65-1.677,1.48-2.624,2.356c-0.485,0.425-0.922,0.939-1.41,1.432
			c-0.482,0.499-0.98,1.014-1.444,1.586c-0.975,1.103-1.916,2.334-2.838,3.634c-0.902,1.316-1.769,2.714-2.541,4.188
			c-0.762,1.478-1.478,3.005-2.036,4.59c-0.601,1.567-1.034,3.189-1.418,4.785c-0.328,1.609-0.62,3.197-0.744,4.752
			c-0.154,1.551-0.203,3.055-0.174,4.479c0.009,1.424,0.133,2.764,0.259,3.994c0.29,2.457,0.735,4.467,1.116,5.826
			c0.186,0.684,0.355,1.203,0.471,1.545c0.057,0.156,0.1,0.277,0.129,0.357c0.033,0.086,0.05,0.131,0.05,0.131L56.725,476.224z"/>
	</g>
</g>
<g>
	<path fill="none" stroke="#1E120D" stroke-width="5" stroke-miterlimit="10" d="M222.435,278.571
		c0,0,13.493-161.373,21.883-188.471c8.387-27.099,15.034-13.804,17.591,0c2.558,13.805,21.37,173.132,21.882,193.073
		c0,0,15.853,35.109,14.317,64.592c0,0,0.128,12.229-19.813,7.245c0,0-49.084,3.451-70.941-13.804c0,0-11.122-4.218-1.919-31.447
		C214.639,282.533,222.435,278.571,222.435,278.571z"/>
	<path fill="none" stroke="#1E120D" stroke-width="5" stroke-miterlimit="10" d="M222.435,278.571c0,0,35.79-38.092,61.355,4.602"/>
	<g>
		<path fill="#1E120D" d="M231.511,265.66c0,0,0.511-0.668,1.58-1.664c0.537-0.493,1.198-1.094,2.016-1.7
			c0.812-0.615,1.75-1.297,2.836-1.94c2.156-1.313,4.869-2.574,7.972-3.444c1.551-0.424,3.193-0.776,4.895-0.941
			c1.696-0.22,3.447-0.197,5.192-0.125c1.739,0.169,3.482,0.392,5.142,0.863c0.416,0.111,0.829,0.222,1.241,0.332
			c0.4,0.144,0.799,0.287,1.195,0.43c0.799,0.267,1.559,0.598,2.292,0.953c0.745,0.328,1.444,0.712,2.115,1.109
			c0.683,0.375,1.318,0.789,1.917,1.221c1.23,0.811,2.262,1.747,3.213,2.581c0.895,0.907,1.734,1.695,2.36,2.511
			c0.647,0.793,1.204,1.477,1.597,2.098c0.813,1.214,1.221,1.934,1.221,1.934s-0.732-0.428-1.914-1.221
			c-0.572-0.417-1.348-0.825-2.166-1.35c-0.807-0.542-1.795-1.032-2.803-1.63c-0.515-0.283-1.068-0.544-1.626-0.831
			c-0.55-0.299-1.139-0.564-1.746-0.822c-0.602-0.271-1.209-0.559-1.861-0.78c-0.644-0.237-1.279-0.519-1.963-0.707
			c-0.673-0.213-1.346-0.45-2.051-0.61c-0.694-0.195-1.402-0.358-2.122-0.495c-1.433-0.303-2.909-0.477-4.389-0.601
			c-1.484-0.083-2.977-0.125-4.452-0.035c-1.477,0.063-2.932,0.232-4.346,0.434c-2.825,0.433-5.472,1.079-7.738,1.758
			c-2.276,0.656-4.165,1.349-5.502,1.844c-0.668,0.26-1.193,0.463-1.551,0.603C231.703,265.583,231.511,265.66,231.511,265.66z"/>
	</g>
</g>
<g>
	<g>
		<path fill="none" stroke="#1E120D" stroke-width="5" stroke-miterlimit="10" d="M411.741,393.546c0,0,1.918-71.595,11.121-101.762
			c9.205-30.167,18.023-66.213,19.558-72.348c1.533-6.136,12.652-21.859,24.157,7.285c11.505,29.145,20.71,121.561,21.092,155.689
			c0,0,0.589,4.349,1.335,6.466c1.433,4.066,4.286,6.859,5.854,9.209c2.576,3.853,3.934,20.371-6.422,44.913
			c-10.354,24.544-21.858,67.875-40.648,50.236c0,0-6.136-3.836-4.601-21.09c1.533-17.256-14.572-33.364-23.01-36.815
			C411.741,431.878,396.404,413.501,411.741,393.546z"/>
		<path fill="none" stroke="#1E120D" stroke-width="5" stroke-miterlimit="10" d="M411.741,393.546c0,0,5.753-0.014,11.121,5.737
			c5.368,5.753,12.655,15.045,24.542,14.616c11.89-0.428,20.324-18.805,34.514-20.354c0,0,5.112-1.292,11.833,3.027"/>
	</g>
	<g>
		<path fill="#1E120D" d="M438.947,459.535c0,0,0.011-0.109,0.03-0.311c0.022-0.129,0.026-0.514,0.025-0.922
			c-0.006-0.434-0.031-0.967-0.101-1.594c-0.061-0.623-0.172-1.338-0.323-2.113c-0.159-0.777-0.35-1.623-0.625-2.506
			c-0.224-0.898-0.612-1.806-0.939-2.774c-0.413-0.935-0.794-1.93-1.291-2.895c-0.508-0.958-0.972-1.97-1.573-2.905
			c-0.572-0.954-1.132-1.924-1.784-2.813c-0.634-0.901-1.224-1.822-1.901-2.632c-0.661-0.822-1.276-1.645-1.907-2.384
			c-0.649-0.727-1.263-1.413-1.829-2.047c-0.557-0.647-1.104-1.204-1.603-1.686c-0.493-0.49-0.922-0.916-1.275-1.268
			c-0.709-0.705-1.114-1.107-1.114-1.107s0.456,0.343,1.254,0.943c0.399,0.302,0.886,0.667,1.442,1.087
			c0.564,0.413,1.188,0.895,1.833,1.464c0.657,0.559,1.369,1.164,2.123,1.804c0.739,0.657,1.474,1.4,2.262,2.146
			c0.805,0.731,1.535,1.584,2.315,2.423c0.797,0.825,1.514,1.744,2.248,2.657c0.762,0.893,1.397,1.883,2.075,2.828
			c0.667,0.951,1.227,1.959,1.811,2.912c0.503,0.998,1.06,1.936,1.451,2.9c0.439,0.939,0.791,1.865,1.096,2.732
			c0.299,0.869,0.544,1.684,0.723,2.428c0.187,0.738,0.313,1.404,0.399,1.965c0.082,0.584,0.137,0.982,0.152,1.389
			c0.014,0.33,0.021,0.508,0.021,0.508L438.947,459.535z"/>
	</g>
</g>
<g>
	<path fill="none" stroke="#1E120D" stroke-width="5" stroke-miterlimit="10" d="M194.649,445.669
		c-0.268-19.172,15.247-43.204,54.664-42.182c39.414,1.024,56.542,32.467,56.031,44.74c-0.511,12.269-3.579,7.156-10.737,15.848
		c-7.156,8.692-26.063,32.469-44.603,32.469C231.463,496.544,194.904,464.075,194.649,445.669z"/>
	<g>
		<path fill="#1E120D" d="M210.244,462.693c0,0,0.226-0.235,0.714-0.634c0.496-0.374,1.224-0.946,2.237-1.528
			c0.496-0.319,1.067-0.617,1.693-0.943c0.622-0.338,1.31-0.676,2.062-0.981c0.75-0.311,1.544-0.684,2.401-1
			c0.858-0.312,1.772-0.604,2.725-0.929c0.953-0.325,1.964-0.561,3.005-0.861c1.042-0.295,2.129-0.564,3.253-0.774
			c1.126-0.219,2.283-0.444,3.466-0.674c1.186-0.203,2.404-0.33,3.642-0.5c2.478-0.371,5.045-0.503,7.657-0.666
			c1.307-0.095,2.622-0.142,3.942-0.13c1.32-0.006,2.646-0.012,3.972-0.018c2.652-0.002,5.288,0.209,7.889,0.348
			c1.3,0.068,2.588,0.15,3.852,0.314c1.266,0.146,2.516,0.288,3.745,0.429c1.228,0.153,2.434,0.304,3.615,0.451
			c1.179,0.158,2.323,0.376,3.439,0.57c2.231,0.392,4.333,0.809,6.269,1.197c1.942,0.341,3.689,0.861,5.248,1.244
			c1.558,0.387,2.905,0.775,4.016,1.084c2.221,0.624,3.475,1.038,3.475,1.038s-1.33,0.016-3.632-0.057
			c-1.15-0.039-2.548-0.074-4.139-0.173c-0.797-0.043-1.644-0.089-2.537-0.137c-0.891-0.059-1.825-0.129-2.807-0.154
			c-1.958-0.075-4.075-0.161-6.306-0.301c-2.229-0.172-4.583-0.243-7.012-0.345c-2.43-0.088-4.934-0.292-7.478-0.318
			c-1.271-0.036-2.554-0.074-3.84-0.111c-1.286-0.051-2.577-0.107-3.865-0.082c-1.289-0.009-2.578-0.018-3.861-0.026
			c-0.642-0.009-1.283-0.018-1.922-0.025c-0.638-0.001-1.271,0.028-1.904,0.041c-2.529,0.076-5.03,0.055-7.427,0.23
			c-1.204,0.062-2.387,0.121-3.545,0.181c-1.153,0.101-2.282,0.199-3.38,0.295c-1.108,0.06-2.165,0.215-3.195,0.339
			c-1.027,0.132-2.04,0.206-2.985,0.373c-0.948,0.159-1.854,0.33-2.728,0.46c-0.871,0.138-1.676,0.34-2.449,0.493
			c-0.779,0.142-1.477,0.354-2.139,0.518c-0.663,0.164-1.276,0.315-1.808,0.502C211.427,462.087,210.244,462.693,210.244,462.693z"
			/>
	</g>
</g>
<g>
	<path fill="none" stroke="#1E120D" stroke-width="5" stroke-miterlimit="10" d="M219.485,811.916
		c0,0,18.364-146.736,23.476-168.722c5.112-21.985,14.827-48.063,23.519,0c8.695,48.063,12.315,150.827,14.36,164.12
		c2.046,13.293,16.362,37.58,18.28,53.303c1.917,15.723,7.284,32.979-35.664,35.279c-42.947,2.301-66.341,6.904-63.657-15.722
		C202.485,857.549,209.642,828.788,219.485,811.916z"/>
	<path fill="none" stroke="#1E120D" stroke-width="5" stroke-miterlimit="10" d="M219.485,811.916c0,0,23.981-43.516,61.968-1.626"
		/>
	<g>
		<path fill="#1E120D" d="M212.838,880.175c0,0,0.351-1.749,1.172-4.757c0.416-1.502,0.922-3.328,1.603-5.393
			c0.667-2.069,1.451-4.399,2.458-6.895c0.993-2.501,2.127-5.2,3.649-7.96c0.76-1.383,1.588-2.792,2.611-4.195
			c0.271-0.348,0.544-0.697,0.818-1.049c0.311-0.344,0.611-0.687,0.951-1.025c0.378-0.329,0.682-0.677,1.141-0.986l0.654-0.47
			l0.791-0.415c0.247-0.145,0.583-0.241,0.906-0.336c0.322-0.098,0.645-0.187,1.034-0.193c0.391-0.007,0.714-0.066,1.161,0.022
			l0.625,0.093c0.214,0.035,0.403,0.055,0.64,0.103l0.844,0.239c0.279,0.086,0.568,0.171,0.837,0.269l0.722,0.329
			c1.937,0.901,3.455,2.251,4.746,3.443c1.298,1.208,2.466,2.263,3.686,3.011c1.215,0.752,2.521,1.178,3.971,1.328
			c0.18,0.021,0.354,0.058,0.538,0.072l0.562,0.009l0.562,0.014l0.281,0.008l0.07,0.002l0.035,0.001
			c-0.341,0.025-0.071,0.005-0.136,0.01l0.165-0.018l1.319-0.134c0.104-0.013,0.231-0.019,0.316-0.037l0.209-0.066l0.417-0.118
			c0.142-0.04,0.28-0.06,0.426-0.107l0.449-0.2c0.303-0.125,0.613-0.235,0.885-0.433c0.577-0.314,1.111-0.749,1.644-1.24
			c1.06-0.992,2.045-2.304,3.209-3.686c1.152-1.366,2.563-2.885,4.462-3.85c0.467-0.232,0.965-0.413,1.444-0.608
			c0.48-0.201,0.99-0.256,1.481-0.379c0.498-0.132,0.982-0.16,1.464-0.178l0.721-0.027l0.357-0.011l0.045-0.001l0.161,0.002
			l0.074,0.007l0.149,0.015l0.595,0.058c0.235,0.031,0.543,0.093,0.808,0.145c0.575,0.099,0.996,0.285,1.481,0.45
			c0.925,0.387,1.749,0.91,2.467,1.494c2.806,2.444,3.954,5.366,4.979,7.877c1,2.546,1.673,4.895,2.322,6.948
			c0.657,2.049,1.221,3.826,1.78,5.256c0.565,1.424,1.062,2.531,1.469,3.251c0.394,0.729,0.632,1.108,0.632,1.108
			s-0.077-0.08-0.226-0.236c-0.145-0.16-0.384-0.381-0.644-0.709c-0.545-0.639-1.309-1.622-2.123-2.972
			c-0.819-1.344-1.732-3.029-2.666-4.991c-0.956-1.949-1.969-4.172-3.158-6.466c-1.201-2.249-2.681-4.689-4.651-6.115
			c-0.496-0.332-1.011-0.594-1.547-0.767c-0.26-0.054-0.577-0.167-0.788-0.164c-0.125-0.01-0.206-0.033-0.364-0.046l-0.598-0.008
			l-0.15-0.003l-0.074-0.001c0.223,0.008,0.044,0.005,0.086,0.008l-0.03,0.004l-0.242,0.034l-0.483,0.063
			c-0.326,0.026-0.65,0.058-0.937,0.169c-0.29,0.104-0.612,0.129-0.88,0.277c-0.269,0.144-0.55,0.252-0.816,0.402
			c-1.048,0.616-1.985,1.632-2.968,2.909c-0.982,1.27-2.015,2.789-3.465,4.224c-1.452,1.448-3.315,2.694-5.551,3.3l-0.862,0.216
			l-0.433,0.1c-0.131,0.024-0.225,0.028-0.34,0.043l-1.317,0.145l-0.165,0.019l-0.219,0.017h-0.048l-0.095-0.001l-0.382-0.003
			l-0.765-0.01c-0.507,0.003-1.02-0.018-1.543-0.107c-2.064-0.225-4.205-0.947-5.978-2.078c-1.791-1.111-3.167-2.518-4.397-3.697
			c-1.233-1.193-2.328-2.185-3.476-2.778l-0.429-0.228l-0.373-0.134l-0.364-0.153c-0.175-0.046-0.406-0.082-0.605-0.123
			l-0.619-0.121c0.036-0.024-0.066,0.02-0.091-0.002c-0.034-0.032-0.113-0.003-0.191,0.019c-0.078,0.019-0.153,0.003-0.266,0.073
			c-0.863,0.331-1.986,1.368-2.921,2.451c-0.957,1.105-1.825,2.329-2.633,3.552c-1.597,2.466-3,4.939-4.247,7.251
			c-2.466,4.645-4.382,8.638-5.727,11.432C213.601,878.57,212.838,880.175,212.838,880.175z"/>
	</g>
</g>
</svg>
