<?xml version="1.0" encoding="utf-8"?>
<!-- Generator: Adobe Illustrator 16.0.0, SVG Export Plug-In . SVG Version: 6.00 Build 0)  -->
<!DOCTYPE svg PUBLIC "-//W3C//DTD SVG 1.1//EN" "http://www.w3.org/Graphics/SVG/1.1/DTD/svg11.dtd">
<svg version="1.1" id="Layer_2" xmlns="http://www.w3.org/2000/svg" xmlns:xlink="http://www.w3.org/1999/xlink" x="0px" y="0px"
	 width="500px" height="900px" viewBox="0 0 500 900" enable-background="new 0 0 500 900" xml:space="preserve">
<g>
	<path fill="none" stroke="#1E120D" stroke-width="5" stroke-miterlimit="10" d="M12.243,399.148c0,0,3.832-5.96,3.405-13.623
		c-0.425-7.664-4.683-94.09,16.604-148.16c0,0,11.495-25.97,20.861-5.108c9.366,20.861,22.99,154.971,23.416,157.525
		c0.425,2.554,1.703,6.812,4.47,11.282c2.767,4.47,10.643,18.945-7.238,31.931c-17.881,12.986-21.5,29.377-20.648,39.594
		c0.851,10.219-4.684,21.924-19.371,9.367C19.055,469.397-6.702,424.268,12.243,399.148z"/>
	<path fill="none" stroke="#1E120D" stroke-width="5" stroke-miterlimit="10" d="M12.243,399.148c0,0,1.277-2.554,6.812,0
		c5.535,2.555,11.069,15.752,22.99,15.114c11.92-0.638,20.715-18.982,36.328-18.325"/>
	<g>
		<path fill="#1E120D" d="M51.759,459.974c0,0,0.021-0.145,0.059-0.416c0.042-0.29,0.106-0.716,0.2-1.215
			c0.174-1.018,0.481-2.441,0.901-4.131c0.241-0.838,0.453-1.753,0.767-2.699c0.291-0.951,0.611-1.948,0.997-2.962
			c0.348-1.024,0.799-2.054,1.238-3.099c0.433-1.048,0.988-2.07,1.479-3.107c0.578-1.002,1.118-2.018,1.733-2.97
			c0.318-0.469,0.634-0.934,0.946-1.393c0.303-0.463,0.618-0.909,0.973-1.318c0.705-0.819,1.283-1.678,2.019-2.345
			c0.715-0.679,1.309-1.389,1.994-1.908c0.667-0.528,1.279-1.012,1.821-1.441c0.557-0.403,1.098-0.68,1.512-0.943
			c0.841-0.505,1.321-0.793,1.321-0.793s-0.436,0.353-1.198,0.969c-0.371,0.317-0.856,0.656-1.343,1.125
			c-0.466,0.488-0.991,1.039-1.564,1.64c-0.583,0.583-1.064,1.359-1.649,2.092c-0.605,0.72-1.047,1.633-1.6,2.489
			c-0.279,0.427-0.518,0.892-0.742,1.371c-0.232,0.472-0.467,0.95-0.704,1.431c-0.451,0.972-0.824,2.004-1.231,3.007
			c-0.324,1.045-0.707,2.058-0.974,3.098c-0.272,1.037-0.557,2.046-0.747,3.05c-0.227,0.991-0.393,1.962-0.539,2.882
			c-0.169,0.914-0.244,1.797-0.359,2.597c-0.168,1.613-0.266,2.957-0.293,3.885c-0.022,0.473-0.023,0.813-0.025,1.045
			c0,0.252-0.001,0.386-0.001,0.386L51.759,459.974z"/>
	</g>
</g>
<g>
	<path fill="none" stroke="#1E120D" stroke-width="5" stroke-miterlimit="10" d="M221.514,286.776c0,0,4.684-16.605,5.535-31.505
		c0.852-14.901,8.089-127.297,17.456-151.139c9.366-23.841,17.881-10.218,18.732,0c0.852,10.218,12.772,103.456,12.772,128.149
		c0,24.692,3.832,50.237,6.812,60.88c2.98,10.643,15.753,41.296,0,54.92s-67.267,9.792-73.653-11.069
		C202.781,316.151,220.503,290.673,221.514,286.776z"/>
	<path fill="none" stroke="#1E120D" stroke-width="5" stroke-miterlimit="10" d="M221.514,286.776c0,0,27.194-36.615,59.791,0"/>
</g>
<g>
	<path fill="none" stroke="#1E120D" stroke-width="5" stroke-miterlimit="10" d="M419.891,400.373c0,0,4.258-3.832,6.387-22.14
		c2.128-18.306,9.792-116.653,19.584-139.217s15.327-17.881,23.416,2.555c8.088,20.436,18.732,57.049,14.9,125.167
		c0,0-0.426,24.906,7.663,38.311c8.262,13.687,0.852,45.988-19.584,70.681c-20.436,24.692-26.396,4.683-25.544-9.367
		c0.852-14.049-17.455-31.505-22.99-34.91C418.189,428.047,409.247,415.699,419.891,400.373z"/>
	<path fill="none" stroke="#1E120D" stroke-width="5" stroke-miterlimit="10" d="M422.406,395.867
		c8.979-0.604,26.436,19.024,36.228,18.364c9.792-0.66,20.86-17.086,28.523-16.838"/>
	<g>
		<path fill="#1E120D" d="M442.197,456.538c0,0,0.005-0.104,0.015-0.298c0.011-0.162,0.02-0.424,0.018-0.796
			c0.004-0.723-0.031-1.783-0.166-3.058c-0.064-0.638-0.149-1.329-0.279-2.055c-0.099-0.735-0.292-1.487-0.456-2.283
			c-0.202-0.78-0.418-1.592-0.681-2.403c-0.295-0.794-0.54-1.639-0.918-2.419l-0.525-1.196c-0.189-0.39-0.408-0.762-0.61-1.143
			c-0.21-0.375-0.399-0.764-0.624-1.122c-0.235-0.352-0.468-0.7-0.696-1.042c-0.436-0.708-0.945-1.322-1.437-1.905
			c-0.243-0.296-0.48-0.583-0.709-0.862c-0.256-0.253-0.503-0.498-0.739-0.733c-0.483-0.462-0.909-0.917-1.324-1.273
			c-0.432-0.338-0.809-0.633-1.118-0.876c-0.627-0.49-0.984-0.77-0.984-0.77s0.4,0.214,1.101,0.589
			c0.353,0.19,0.781,0.42,1.273,0.684c0.479,0.286,0.982,0.664,1.557,1.051c0.285,0.199,0.582,0.406,0.889,0.62
			c0.284,0.244,0.577,0.495,0.879,0.754c0.611,0.515,1.257,1.065,1.838,1.72c0.303,0.319,0.611,0.643,0.924,0.971
			c0.303,0.336,0.571,0.707,0.864,1.066c0.283,0.365,0.587,0.726,0.861,1.107l0.784,1.177c0.553,0.776,0.972,1.622,1.442,2.434
			c0.437,0.826,0.824,1.663,1.192,2.479c0.329,0.828,0.685,1.624,0.934,2.406c0.281,0.774,0.509,1.52,0.703,2.214
			c0.396,1.389,0.646,2.575,0.791,3.429c0.075,0.415,0.128,0.773,0.157,1.036c0.028,0.229,0.044,0.352,0.044,0.352L442.197,456.538z
			"/>
	</g>
</g>
<g>
	<path fill="none" stroke="#1E120D" stroke-width="5" stroke-miterlimit="10" d="M211.079,454.888c0,0-6.386-42.854,40.872-42.236
		c0,0,20.861-2.24,32.781,21.114c11.921,23.354-2.98,27.187-9.791,36.552c-6.813,9.367-17.287,26.784-43,10.219
		C209.803,466.274,211.079,454.888,211.079,454.888z"/>
	<g>
		<path fill="#1E120D" d="M220.872,462.656c0.243-0.668,0.664-1.254,1.092-1.829c0.447-0.563,0.952-1.072,1.471-1.584
			c0.548-0.455,1.096-0.95,1.696-1.343c0.593-0.41,1.186-0.845,1.826-1.171c0.629-0.356,1.263-0.718,1.926-0.99
			c0.659-0.284,1.312-0.625,1.993-0.84l2.039-0.712l2.075-0.552c0.692-0.206,1.394-0.318,2.094-0.449
			c0.701-0.128,1.402-0.267,2.108-0.378l2.114-0.236c0.705-0.07,1.415-0.162,2.119-0.185l2.116-0.084
			c0.705-0.009,1.415-0.06,2.116-0.032c1.405,0.021,2.81,0.096,4.214,0.145l-0.205-0.003c1.18-0.02,2.292,0.023,3.434,0.054
			c1.135,0.039,2.268,0.123,3.399,0.201c1.132,0.1,2.262,0.215,3.391,0.357c1.128,0.158,2.257,0.312,3.379,0.532l1.682,0.33
			l1.673,0.405c0.557,0.121,1.109,0.311,1.661,0.47s1.1,0.329,1.641,0.548c0.542,0.213,1.083,0.393,1.615,0.631
			c0.532,0.234,1.055,0.489,1.569,0.745c0.504,0.306,1.005,0.597,1.487,0.907c0.463,0.357,0.906,0.734,1.323,1.107
			c-0.562-0.156-1.079-0.349-1.608-0.489l-1.613-0.337c-0.552-0.066-1.096-0.133-1.629-0.22c-0.535-0.079-1.092-0.103-1.631-0.156
			c-1.086-0.085-2.179-0.145-3.268-0.188c-1.09-0.045-2.181-0.07-3.274-0.087c-1.093-0.007-2.186-0.032-3.279-0.019
			c-1.093-0.007-2.188,0.006-3.281,0.019l-3.28,0.052l-3.246,0.089l-0.054,0.001l-0.152-0.004c-1.334-0.035-2.668-0.045-4.001-0.108
			c-0.667-0.037-1.328,0.003-1.992,0l-1.992-0.007c-0.667-0.018-1.319,0.059-1.982,0.065l-1.984,0.062
			c-1.302,0.131-2.635,0.158-3.931,0.333l-1.959,0.231l-1.937,0.322c-0.657,0.091-1.281,0.258-1.924,0.396
			c-0.648,0.131-1.276,0.302-1.904,0.489c-0.64,0.168-1.259,0.374-1.882,0.596c-0.641,0.193-1.21,0.503-1.836,0.75
			c-0.595,0.287-1.199,0.582-1.766,0.944C221.941,461.786,221.373,462.169,220.872,462.656z"/>
	</g>
	<g>
		<path fill="#1E120D" d="M246.795,459.978c0,0,0.246,0.438,0.6,1.232c0.332,0.796,0.804,1.941,1.189,3.369
			c0.193,0.713,0.384,1.495,0.532,2.342c0.148,0.848,0.274,1.754,0.3,2.744c0.02,1.001,0.02,2.035-0.405,3.375
			c-0.111,0.338-0.265,0.695-0.527,1.096l-0.099,0.147l-0.05,0.073l-0.025,0.036l-0.013,0.019l-0.077,0.092l-0.106,0.143
			c-0.073,0.099-0.365,0.403-0.513,0.524c-0.689,0.633-1.603,0.983-2.405,1.133c-1.626,0.25-2.881-0.091-3.95-0.47
			c-1.072-0.387-1.979-0.896-2.798-1.431c-1.627-1.077-2.893-2.288-3.876-3.416c-1.971-2.248-2.771-4.216-2.771-4.216
			s0.528,0.109,1.358,0.394c0.849,0.26,1.994,0.701,3.299,1.254c1.304,0.553,2.769,1.232,4.247,1.877
			c0.738,0.316,1.485,0.612,2.172,0.844c0.683,0.22,1.329,0.327,1.591,0.32c0.13,0.002,0.131,0.005,0.174,0.036
			c0.038-0.023-0.085,0.116,0.004,0.045l0.129-0.12l-0.064,0.075v0.001l0.002,0.004c0.012,0.02,0.063-0.049,0.122-0.143
			c0.253-0.403,0.466-1.217,0.625-1.979c0.317-1.573,0.492-3.208,0.667-4.605c0.088-0.709,0.17-1.359,0.242-1.936
			c0.081-0.586,0.152-1.097,0.21-1.518C246.707,460.473,246.796,459.978,246.795,459.978z"/>
	</g>
	<g>
		<path fill="#1E120D" d="M254.176,458.701c0,0,0.171,0.425,0.437,1.151c0.25,0.728,0.619,1.758,1,2.961
			c0.394,1.199,0.822,2.588,1.34,3.929c0.269,0.66,0.547,1.317,0.861,1.816c0.148,0.235,0.307,0.458,0.42,0.537
			c0.128,0.094,0.101,0.028,0.009-0.031l0.152,0.047c0.038,0.01,0.136,0.049,0.097,0.02c-0.021-0.028-0.05-0.049-0.08-0.05
			c-0.021-0.016,0.057-0.002,0.104-0.014c0.062-0.016,0.121-0.01,0.215-0.046c0.08-0.006,0.182-0.032,0.294-0.073
			c0.436-0.143,1.003-0.414,1.569-0.726c1.143-0.663,2.314-1.456,3.372-2.118c0.518-0.351,1.035-0.641,1.486-0.921
			c0.454-0.276,0.883-0.497,1.233-0.688c0.692-0.385,1.159-0.563,1.159-0.563s-0.054,0.487-0.272,1.267
			c-0.199,0.796-0.594,1.863-1.236,3.069c-0.662,1.195-1.57,2.526-2.973,3.756c-0.726,0.602-1.563,1.203-2.696,1.619
			c-0.55,0.22-1.217,0.37-1.939,0.393c-0.37,0.013-0.72-0.011-1.155-0.079c-0.236-0.046-0.472-0.109-0.699-0.182
			c-0.214-0.07-0.226-0.094-0.349-0.144c-0.886-0.357-1.577-0.988-1.979-1.544c-0.426-0.571-0.658-1.098-0.874-1.608
			c-0.373-1.017-0.559-1.938-0.654-2.819c-0.19-1.75-0.1-3.308,0.075-4.633C253.442,460.384,254.176,458.701,254.176,458.701z"/>
	</g>
</g>
<g>
	<path fill="none" stroke="#1E120D" stroke-width="5" stroke-miterlimit="10" d="M220.547,823.374c0,0,2.413-9.081,5.252-26.679
		c2.839-17.6,17.196-116.371,21.37-138.51c4.175-22.139,15.531-48.818,23.476,0c7.945,48.819,3.973,95.366,3.973,110.127
		c0,14.759,1.137,55.062,3.406,58.468c2.27,3.405,22.566,53.783,0,64.428c0,0-14.566,5.108-23.463,2.979c0,0-8.47,4.018-23.371,0.52
		c0,0-28.95,3.738-24.268-27.342C211.605,836.287,220.547,823.374,220.547,823.374z"/>
	<path fill="none" stroke="#1E120D" stroke-width="5" stroke-miterlimit="10" d="M220.547,823.374c0,0,7.664-17.314,23.842-17.314
		c0,0,25.868-1.533,33.635,20.721"/>
	<g>
		<path fill="#1E120D" d="M223.1,878.861c0,0-0.076-0.084-0.184-0.271c-0.107-0.188-0.291-0.467-0.44-0.863
			c-0.186-0.387-0.352-0.884-0.518-1.482c-0.214-0.593-0.291-1.297-0.434-2.088c-0.153-0.794-0.143-1.673-0.228-2.643
			c-0.06-0.968,0.05-1.999,0.076-3.121c0.202-2.219,0.516-4.715,1.105-7.355c0.556-2.652,1.243-5.517,2.255-8.502
			c0.503-1.495,1.067-3.025,1.785-4.586c0.36-0.782,0.757-1.571,1.261-2.364c0.526-0.796,1.045-1.607,2.054-2.435
			c0.507-0.394,1.184-0.853,2.234-0.993l0.393-0.032l0.373,0.026l0.079,0.009c0.07,0.01,0.064,0.001,0.197,0.027
			c0.16,0.033,0.321,0.075,0.48,0.126c0.157,0.05,0.319,0.11,0.462,0.174l0.249,0.131c0.159,0.088,0.346,0.188,0.46,0.273
			c1.044,0.723,1.666,1.403,2.315,2.081c1.25,1.348,2.345,2.684,3.468,3.979c1.115,1.293,2.263,2.521,3.438,3.607
			c1.169,1.066,2.436,1.974,3.559,2.345c0.277,0.089,0.538,0.152,0.786,0.188c0.12,0,0.243,0.024,0.359,0.021l0.172-0.011
			l0.086-0.001h0.022c-0.053,0.009,0.148-0.02-0.113,0.02l0.082-0.014l0.329-0.057c0.098-0.019,0.257-0.04,0.257-0.056
			c0.079-0.044,0.114-0.022,0.24-0.085c0.227-0.09,0.45-0.193,0.669-0.352c0.885-0.587,1.776-1.797,2.578-3.216
			c0.817-1.422,1.591-3.025,2.673-4.643c0.543-0.808,1.172-1.629,1.986-2.383c0.802-0.756,1.847-1.415,2.997-1.765
			c0.572-0.175,1.155-0.279,1.725-0.32l0.422-0.015l0.211-0.005l0.053-0.001c0.104,0.003-0.158-0.01,0.246,0.008l0.077,0.009
			l0.627,0.079c0.359,0.075,0.719,0.17,1.066,0.281c0.309,0.115,0.545,0.241,0.815,0.368c0.273,0.121,0.474,0.289,0.709,0.436
			c0.234,0.148,0.444,0.309,0.631,0.478c1.576,1.332,2.505,2.835,3.315,4.285c1.581,2.918,2.45,5.8,3.102,8.472
			c0.657,2.67,1.013,5.153,1.199,7.36c0.205,2.205,0.207,4.139,0.118,5.722c-0.074,1.585-0.288,2.818-0.465,3.644
			c-0.076,0.415-0.179,0.725-0.233,0.935c-0.059,0.209-0.089,0.316-0.089,0.316s0.036-0.449,0.036-1.282
			c0.017-0.831-0.063-2.05-0.243-3.579c-0.182-1.531-0.534-3.371-1.013-5.451c-0.494-2.078-1.182-4.389-2.059-6.835
			c-0.902-2.429-2.044-5.021-3.56-7.391c-0.762-1.158-1.669-2.283-2.635-2.94c-0.117-0.094-0.235-0.167-0.353-0.221
			c-0.115-0.052-0.231-0.149-0.341-0.17c-0.102-0.032-0.229-0.096-0.303-0.116c-0.046,0.004-0.081-0.009-0.117-0.041l-0.6-0.04
			l-0.077-0.005c0.379,0.019,0.091,0.007,0.17,0.012l-0.025,0.003l-0.098,0.012l-0.196,0.019c-0.255,0.036-0.489,0.099-0.711,0.182
			c-0.857,0.312-1.679,1.191-2.461,2.476c-0.776,1.276-1.476,2.834-2.365,4.472c-0.902,1.611-1.955,3.491-4.014,4.942
			c-0.502,0.357-1.077,0.658-1.674,0.895c-0.278,0.126-0.686,0.228-1.028,0.323c-0.21,0.058-0.273,0.06-0.394,0.084l-0.328,0.06
			l-0.082,0.015c-0.289,0.042-0.115,0.015-0.196,0.025l-0.062,0.005l-0.247,0.017l-0.495,0.027c-0.328,0.006-0.648-0.028-0.973-0.05
			c-0.635-0.078-1.242-0.218-1.811-0.408c-2.258-0.807-3.874-2.132-5.316-3.438c-1.427-1.326-2.633-2.742-3.779-4.124
			c-1.146-1.377-2.206-2.771-3.241-3.99c-0.502-0.593-1.059-1.166-1.402-1.424c-0.052-0.048-0.059-0.037-0.082-0.058l-0.027-0.024
			c0.045,0.024,0.107,0.049,0.166,0.062c0.06,0.014,0.123,0.019,0.184,0.015c0.033-0.006-0.081-0.017-0.114-0.024l-0.078-0.014
			l-0.039-0.006c0.118,0.006-0.32-0.024,0.255,0.013c0.026,0.003,0.052,0.002,0.078-0.003c0.209-0.048,0.128-0.078-0.021,0.032
			c-0.318,0.197-0.791,0.746-1.186,1.298c-0.405,0.571-0.797,1.205-1.165,1.854c-0.736,1.305-1.38,2.682-1.965,4.045
			c-1.149,2.741-2.136,5.423-2.972,7.925c-0.835,2.509-1.479,4.822-1.98,6.881c-0.18,1.037-0.407,2.016-0.523,2.924
			c-0.076,0.905-0.237,1.756-0.223,2.514c-0.03,1.521,0.038,2.74,0.236,3.54C222.897,878.451,223.1,878.861,223.1,878.861z"/>
	</g>
</g>
</svg>
