<?xml version="1.0" encoding="utf-8"?>
<!-- Generator: Adobe Illustrator 16.0.0, SVG Export Plug-In . SVG Version: 6.00 Build 0)  -->
<!DOCTYPE svg PUBLIC "-//W3C//DTD SVG 1.1//EN" "http://www.w3.org/Graphics/SVG/1.1/DTD/svg11.dtd">
<svg version="1.1" id="Layer_2" xmlns="http://www.w3.org/2000/svg" xmlns:xlink="http://www.w3.org/1999/xlink" x="0px" y="0px"
	 width="500px" height="900px" viewBox="0 0 500 900" enable-background="new 0 0 500 900" xml:space="preserve">
<g>
	<path fill="none" stroke="#1E120D" stroke-width="5" stroke-miterlimit="10" d="M16.429,403.38
		c4.289-15.919,2.45-105.933,18.371-146.958c15.921-41.026,17.146-49.599,30.617-45.925c13.47,3.674,6.123,30.619,9.796,46.539
		c3.674,15.919,18.982,115.728,16.533,146.344c0,0,24.033,16.993,5.664,38.577c-18.37,21.585-25.718,38.578-28.014,46.843
		c-2.296,8.266-12.4,17.451-31.688-2.756C18.42,465.838-1.13,426.48,9.235,414.401C15.757,406.801,16.429,403.38,16.429,403.38z"/>
	<path fill="none" stroke="#1E120D" stroke-width="5" stroke-miterlimit="10" d="M13.585,408.783c0,0,5.753-3.054,12.642,0.824
		c6.889,3.876,18.947,17.653,28.992,14.898c10.044-2.756,29.487-22.044,36.528-21.126"/>
	<g>
		<path fill="#1E120D" d="M64.57,493.201c0,0,0.244-0.989,0.671-2.721c0.438-1.719,1.082-4.162,1.908-7.077
			c1.652-5.829,4.051-13.549,6.986-21.079c0.731-1.883,1.508-3.749,2.297-5.574c0.806-1.82,1.628-3.598,2.482-5.291
			c0.859-1.691,1.724-3.308,2.625-4.797c0.447-0.747,0.883-1.47,1.349-2.146c0.444-0.688,0.894-1.337,1.359-1.94
			c0.44-0.619,0.896-1.186,1.353-1.708c0.224-0.263,0.442-0.52,0.655-0.77c0.23-0.234,0.453-0.462,0.669-0.683
			c0.216-0.22,0.425-0.432,0.626-0.638c0.22-0.187,0.432-0.367,0.635-0.541c0.41-0.342,0.768-0.676,1.151-0.903
			c0.367-0.245,0.695-0.463,0.979-0.654c0.308-0.15,0.57-0.278,0.782-0.381c0.423-0.204,0.649-0.313,0.649-0.313
			s-0.217,0.126-0.623,0.363c-0.202,0.118-0.45,0.264-0.742,0.436c-0.266,0.209-0.572,0.45-0.915,0.72
			c-0.356,0.25-0.685,0.608-1.059,0.974c-0.186,0.185-0.378,0.376-0.578,0.575c-0.182,0.217-0.371,0.441-0.565,0.673
			c-0.194,0.231-0.394,0.47-0.601,0.716c-0.188,0.261-0.382,0.528-0.582,0.804c-0.406,0.543-0.808,1.131-1.191,1.771
			c-0.407,0.623-0.797,1.292-1.179,2c-0.403,0.693-0.775,1.436-1.155,2.201c-0.767,1.524-1.491,3.175-2.203,4.897
			c-0.707,1.725-1.377,3.531-2.028,5.377c-0.634,1.854-1.254,3.744-1.828,5.65c-2.306,7.623-4.073,15.401-5.249,21.254
			c-0.588,2.928-1.032,5.373-1.328,7.084c-0.282,1.703-0.442,2.676-0.442,2.676L64.57,493.201z"/>
	</g>
</g>
<g>
	<path fill="none" stroke="#1E120D" stroke-width="5" stroke-miterlimit="10" d="M219.526,274.2c0,0,6.734-94.912,11.021-120.629
		c4.289-25.718,4.901-61.844,4.289-74.091c-0.613-12.248,14.083-27.557,25.718-3.062c11.633,24.493,15.92,142.062,17.145,160.431
		c1.225,18.37,4.287,40.414,4.896,42.251c0,0,14.693,23.269,14.082,33.983c-0.61,10.715-25.104,30.006-36.433,35.821
		c-11.328,5.816-14.39,11.328-36.127-4.287C202.379,329.002,192.89,312.165,219.526,274.2z"/>
	<path fill="none" stroke="#1E120D" stroke-width="5" stroke-miterlimit="10" d="M219.526,274.2c0,0,16.558-16.839,30.475-15.308
		c13.918,1.53,23.719,10.717,32.594,20.207"/>
	<g>
		<path fill="#1E120D" d="M226.26,260.728c0,0,0.493-0.673,1.537-1.68c0.523-0.5,1.17-1.105,1.971-1.721
			c0.796-0.623,1.714-1.316,2.783-1.97c2.118-1.338,4.794-2.625,7.858-3.535c1.534-0.437,3.157-0.816,4.843-1
			c1.679-0.238,3.416-0.249,5.146-0.195c1.727,0.139,3.459,0.333,5.11,0.774c0.413,0.104,0.825,0.207,1.234,0.309
			c0.4,0.135,0.798,0.27,1.193,0.404c0.796,0.248,1.553,0.569,2.288,0.902c0.745,0.309,1.443,0.682,2.117,1.059
			c0.685,0.357,1.32,0.759,1.925,1.171c1.236,0.776,2.278,1.683,3.239,2.488c0.909,0.876,1.758,1.64,2.399,2.433
			c0.66,0.771,1.229,1.436,1.633,2.042c0.837,1.184,1.259,1.888,1.259,1.888s-0.739-0.403-1.933-1.157
			c-0.58-0.397-1.359-0.781-2.186-1.279c-0.814-0.516-1.806-0.978-2.821-1.544c-0.516-0.271-1.072-0.514-1.632-0.785
			c-0.554-0.283-1.142-0.536-1.752-0.776c-0.604-0.252-1.211-0.529-1.863-0.733c-0.646-0.217-1.279-0.49-1.962-0.661
			c-0.674-0.193-1.344-0.422-2.047-0.566c-0.693-0.175-1.397-0.333-2.114-0.453c-1.426-0.277-2.894-0.427-4.363-0.524
			c-1.473-0.067-2.952-0.08-4.414,0.025c-1.463,0.079-2.902,0.272-4.302,0.486c-2.792,0.469-5.409,1.139-7.645,1.844
			c-2.247,0.682-4.11,1.394-5.428,1.905c-0.659,0.267-1.177,0.477-1.53,0.62C226.45,260.648,226.26,260.728,226.26,260.728z"/>
	</g>
</g>
<g>
	<path fill="none" stroke="#1E120D" stroke-width="5" stroke-miterlimit="10" d="M486.926,403.379
		c-4.285-15.919-2.445-105.933-18.369-146.958c-15.919-41.026-17.145-49.599-30.615-45.925c-13.473,3.674-6.123,30.619-9.799,46.539
		c-3.674,15.919-18.98,115.728-16.533,146.344c0,0-24.032,16.993-5.66,38.577c18.368,21.585,25.715,38.578,28.014,46.844
		c2.294,8.266,12.396,17.451,31.686-2.756s38.84-59.564,28.477-71.644C487.599,406.8,486.926,403.379,486.926,403.379z"/>
	<path fill="none" stroke="#1E120D" stroke-width="5" stroke-miterlimit="10" d="M489.771,408.782c0,0-5.753-3.054-12.641,0.824
		c-6.888,3.876-18.947,17.653-28.99,14.898c-10.046-2.756-29.486-22.044-36.53-21.126"/>
	<g>
		<path fill="#1E120D" d="M433.88,494.156c0,0-0.161-0.973-0.442-2.676c-0.296-1.711-0.74-4.157-1.328-7.084
			c-1.177-5.853-2.943-13.632-5.25-21.255c-0.573-1.905-1.193-3.796-1.827-5.649c-0.651-1.847-1.322-3.653-2.029-5.378
			c-0.711-1.722-1.436-3.373-2.202-4.897c-0.38-0.765-0.752-1.508-1.155-2.201c-0.382-0.707-0.772-1.377-1.18-2
			c-0.383-0.64-0.785-1.228-1.19-1.771c-0.199-0.275-0.394-0.542-0.582-0.803c-0.206-0.246-0.407-0.484-0.601-0.716
			c-0.195-0.232-0.384-0.457-0.565-0.673c-0.2-0.199-0.393-0.391-0.578-0.575c-0.375-0.365-0.703-0.724-1.06-0.974
			c-0.343-0.27-0.648-0.51-0.915-0.72c-0.292-0.171-0.541-0.317-0.742-0.436c-0.406-0.237-0.623-0.363-0.623-0.363
			s0.226,0.109,0.649,0.313c0.212,0.104,0.474,0.231,0.781,0.381c0.285,0.19,0.613,0.409,0.98,0.654
			c0.383,0.228,0.74,0.562,1.15,0.903c0.204,0.173,0.415,0.354,0.636,0.541c0.201,0.205,0.41,0.418,0.626,0.638
			c0.217,0.221,0.439,0.448,0.67,0.683c0.212,0.25,0.431,0.506,0.654,0.77c0.457,0.522,0.914,1.089,1.354,1.708
			c0.465,0.603,0.915,1.253,1.358,1.94c0.467,0.675,0.902,1.399,1.35,2.146c0.9,1.489,1.766,3.106,2.625,4.797
			c0.854,1.693,1.676,3.471,2.481,5.291c0.789,1.825,1.566,3.691,2.297,5.575c2.936,7.53,5.335,15.249,6.987,21.078
			c0.826,2.916,1.471,5.359,1.908,7.078c0.427,1.731,0.671,2.721,0.671,2.721L433.88,494.156z"/>
	</g>
</g>
<g>
	<path fill="none" stroke="#1E120D" stroke-width="5" stroke-miterlimit="10" d="M203.377,451.845
		c0-8.738,20.665-49.139,46.385-50.058c25.715-0.918,45.924,35.362,46.84,50.058c0.92,14.695-27.414,46.29-46.611,46.384
		C226.952,498.34,203.377,465.163,203.377,451.845z"/>
	<g>
		<path fill="#1E120D" d="M216.235,462.407c0,0-0.182-0.253-0.433-0.784c-0.215-0.539-0.657-1.329-0.542-2.602
			c0.05-0.623,0.481-1.445,1.262-1.855c0.186-0.087,0.387-0.199,0.586-0.261c0.201-0.048,0.406-0.097,0.615-0.147
			c0.351-0.057,0.715-0.115,1.09-0.177c1.474-0.236,3.174-0.483,5.003-0.672c1.835-0.207,3.824-0.424,5.943-0.553
			c2.119-0.146,4.354-0.243,6.744-0.204c0.574-0.015,1.255,0.063,1.887,0.104l0.484,0.041l0.122,0.01l0.061,0.006l0.03,0.002
			c0.058,0.011-0.087-0.019,0.138,0.023l0.216,0.04l0.867,0.157c0.553,0.105,1.495,0.373,2.075,0.598
			c0.662,0.239,1.207,0.503,1.663,0.658c0.457,0.182,0.866,0.265,1.32,0.358c0.479,0.052,0.937,0.139,1.49,0.142l0.796,0.037
			l0.8-0.024l0.915-0.03c0.275-0.023,0.503-0.063,0.757-0.091l0.749-0.083l0.788-0.146c0.531-0.075,1.037-0.244,1.555-0.368
			c1.014-0.318,2.014-0.667,2.976-1.138l0.362-0.183l0.182-0.092l0.091-0.045l0.345-0.161l0.053-0.017l0.428-0.137
			c0.215-0.057,0.48-0.114,0.721-0.16c0.235-0.044,0.521-0.093,0.715-0.112l0.493-0.038c0.326-0.023,0.662-0.055,0.966-0.06
			c1.251-0.052,2.443-0.062,3.611-0.027c2.335,0.047,4.565,0.187,6.678,0.351c2.11,0.167,4.1,0.397,5.933,0.627
			c1.834,0.218,3.51,0.48,4.993,0.742c0.37,0.065,0.729,0.129,1.076,0.189c0.35,0.075,0.646,0.087,1.107,0.241
			c0.383,0.139,0.74,0.328,1.043,0.627c0.308,0.296,0.491,0.714,0.529,1.095c0.017,0.765-0.314,1.23-0.576,1.581
			c-0.26,0.367-0.542,0.602-0.74,0.817c-0.449,0.373-0.688,0.572-0.688,0.572s0.161-0.262,0.464-0.752
			c0.122-0.256,0.315-0.553,0.436-0.928c0.139-0.356,0.235-0.817,0.124-1.129c-0.123-0.271-0.424-0.436-0.936-0.477
			c-0.606,0.021-1.263,0.045-1.964,0.071c-1.485,0.064-3.16,0.138-4.987,0.218c-1.822,0.083-3.797,0.173-5.886,0.269
			c-2.072,0.102-4.259,0.208-6.52,0.319c-1.119,0.072-2.254,0.142-3.353,0.256c-0.285,0.021-0.535,0.064-0.798,0.099l-0.392,0.054
			c-0.101,0.018-0.107,0.029-0.165,0.034c-0.053,0.008-0.083-0.008-0.159,0l-0.421,0.152l-0.053,0.019
			c-0.073,0.033,0.546-0.255,0.271-0.126l-0.027,0.016l-0.107,0.06l-0.216,0.119l-0.433,0.238c-1.18,0.624-2.444,1.155-3.75,1.563
			c-0.661,0.174-1.316,0.389-1.992,0.501l-1.009,0.196c-0.347,0.055-0.713,0.091-1.069,0.131c-0.353,0.033-0.73,0.077-1.063,0.098
			l-0.915,0.02l-0.457,0.01l-0.229,0.005l-0.114,0.003h-0.163l-0.064-0.004l-1.027-0.057c-0.666-0.011-1.405-0.144-2.122-0.27
			c-0.725-0.166-1.49-0.382-2.142-0.667c-0.362-0.139-0.616-0.265-0.9-0.394l-0.748-0.334c-0.246-0.12-0.44-0.184-0.632-0.254
			c-0.206-0.071-0.348-0.156-0.675-0.223l-0.855-0.21l-0.213-0.052c0.207,0.039,0.043,0.009,0.083,0.017l-0.024-0.003l-0.048-0.007
			l-0.096-0.013l-0.383-0.053c-0.525-0.059-0.986-0.18-1.558-0.21c-2.182-0.206-4.373-0.351-6.449-0.46
			c-2.086-0.12-4.058-0.234-5.878-0.34c-1.826-0.104-3.5-0.199-4.983-0.283c-0.367-0.019-0.722-0.036-1.064-0.053
			c-0.135,0.001-0.267,0.001-0.397,0.002c-0.128,0.003-0.227,0.038-0.347,0.049c-0.424,0.093-0.722,0.359-0.888,0.774
			c-0.308,0.843-0.22,1.742-0.146,2.286C216.155,462.105,216.235,462.407,216.235,462.407z"/>
	</g>
	<g>
		<path fill="#1E120D" d="M241.954,459.51c0.035,0.425,0.056,0.844,0.052,1.254c-0.011,0.409,0.012,0.826-0.007,1.228
			c-0.017,0.812-0.083,1.601-0.155,2.385l-0.287,2.328c-0.113,0.771-0.246,1.532-0.398,2.288c-0.162,0.752-0.319,1.505-0.517,2.245
			c-0.159,0.75-0.353,1.489-0.548,2.228c-0.201,0.737-0.42,1.469-0.654,2.197c-0.238,0.727-0.487,1.451-0.765,2.17l-0.528,1.366
			l-1.025,0.26c-0.366,0.093-0.467,0.09-0.667,0.112c-0.183,0.022-0.337,0.014-0.504,0.015c-0.321-0.012-0.632-0.036-0.926-0.093
			c-0.599-0.09-1.141-0.291-1.652-0.519c-0.248-0.123-0.488-0.254-0.725-0.386L232,478.126c-0.401-0.326-0.782-0.669-1.09-1.052
			c-0.34-0.358-0.587-0.774-0.848-1.164c-0.135-0.193-0.221-0.414-0.33-0.617c-0.104-0.206-0.205-0.412-0.294-0.622
			c-0.163-0.428-0.298-0.863-0.418-1.292c-0.108-0.436-0.177-0.885-0.232-1.326c0.378,0.258,0.741,0.508,1.066,0.771
			c0.344,0.25,0.707,0.469,1.023,0.71c0.354,0.204,0.667,0.433,1.002,0.613l0.49,0.267c0.158,0.094,0.329,0.15,0.485,0.228
			c0.16,0.071,0.313,0.151,0.475,0.193c0.159,0.048,0.306,0.119,0.459,0.159c0.306,0.081,0.596,0.136,0.868,0.174
			c0.273,0.012,0.531,0.023,0.755-0.008c0.114-0.007,0.217-0.037,0.306-0.062c0.038-0.017,0.09-0.027,0.109-0.041
			c0.005-0.004,0.106-0.043-0.061-0.004l-1.553,1.626c0.139-0.773,0.307-1.541,0.486-2.306c0.183-0.764,0.381-1.523,0.597-2.278
			c0.221-0.753,0.444-1.506,0.702-2.247c0.259-0.74,0.573-1.463,0.875-2.189c0.313-0.722,0.645-1.438,0.996-2.145
			c0.354-0.707,0.729-1.405,1.151-2.091C239.868,462.057,240.773,460.725,241.954,459.51z"/>
	</g>
	<g>
		<path fill="#1E120D" d="M258.027,457.22c0.559,0.742,1.031,1.509,1.498,2.277c0.452,0.773,0.862,1.561,1.259,2.352
			c0.787,1.585,1.476,3.199,2.059,4.849c0.307,0.82,0.565,1.653,0.839,2.483c0.242,0.841,0.522,1.657,0.717,2.524
			c0.418,1.733,0.741,3.491,1.022,5.247l-0.069-0.295c-0.032-0.086-0.022-0.046-0.023-0.038c-0.005,0.009,0.007,0.034,0.012,0.056
			c0.007,0.045,0.027,0.089,0.046,0.137c0.037,0.088,0.08,0.187,0.128,0.25c0.036,0.093,0.094,0.133,0.136,0.215
			c0.069,0.034,0.103,0.13,0.197,0.16c0.081,0.05,0.165,0.127,0.302,0.146l0.19,0.066c0.074,0.013,0.158,0.007,0.239,0.02
			c0.165,0.018,0.334,0.058,0.536,0.021l0.607-0.048c0.426-0.111,0.878-0.144,1.338-0.313l0.704-0.212
			c0.244-0.057,0.471-0.174,0.713-0.256c0.472-0.192,0.991-0.331,1.476-0.55c0.486-0.212,1.001-0.402,1.537-0.585
			c-0.265,0.486-0.551,0.967-0.864,1.425c-0.293,0.48-0.668,0.892-1.031,1.325c-0.188,0.211-0.364,0.432-0.582,0.621
			c-0.209,0.198-0.427,0.39-0.647,0.58c-0.215,0.195-0.44,0.388-0.703,0.547l-0.774,0.5c-0.276,0.155-0.587,0.279-0.89,0.41
			c-0.291,0.145-0.645,0.226-0.998,0.311c-0.178,0.041-0.352,0.084-0.537,0.109l-0.591,0.025c-0.391,0.031-0.812-0.031-1.235-0.115
			c-0.421-0.066-0.834-0.273-1.238-0.449c-0.38-0.224-0.77-0.461-1.083-0.761c-0.338-0.287-0.602-0.622-0.85-0.967
			c-0.12-0.174-0.237-0.352-0.338-0.545c-0.052-0.096-0.104-0.186-0.153-0.299c-0.051-0.113-0.093-0.193-0.165-0.402l-0.069-0.296
			c-0.451-1.625-0.86-3.249-1.175-4.896l-0.536-2.512c-0.152-0.847-0.32-1.689-0.438-2.546c-0.14-0.852-0.23-1.715-0.343-2.577
			c-0.101-0.864-0.184-1.733-0.242-2.611C257.9,460.847,257.855,459.064,258.027,457.22z"/>
	</g>
</g>
<g>
	<path fill="none" stroke="#1E120D" stroke-width="5" stroke-miterlimit="10" d="M218.225,813.385
		c0,0,10.407-153.692,25.716-192.883c15.309-39.191,27.401-6.738,27.173,4.897s11.404,194.108,11.404,194.108
		S300.277,844,296.6,858.084c-3.672,14.084-29.396,36.127-39.19,36.739s-53.881-22.655-54.493-46.536
		C202.305,824.406,218.225,813.385,218.225,813.385z"/>
	<path fill="none" stroke="#1E120D" stroke-width="5" stroke-miterlimit="10" d="M218.225,813.385c0,0,40.399-41.008,64.132,3.606"
		/>
	<g>
		<path fill="#1E120D" d="M225.265,800.066c0,0,0.573-0.658,1.711-1.66c1.135-1.005,2.844-2.343,5.05-3.734
			c1.109-0.683,2.337-1.39,3.685-2.05c1.34-0.676,2.806-1.293,4.351-1.869c1.554-0.551,3.189-1.071,4.901-1.438
			c1.7-0.415,3.479-0.637,5.264-0.815c1.795-0.096,3.604-0.145,5.381,0.05c0.444,0.043,0.886,0.087,1.326,0.13
			c0.437,0.078,0.871,0.155,1.303,0.233c0.865,0.133,1.706,0.359,2.526,0.588c1.642,0.457,3.173,1.084,4.563,1.774
			c1.379,0.718,2.627,1.483,3.686,2.31c0.266,0.201,0.526,0.397,0.781,0.591c0.238,0.213,0.471,0.422,0.697,0.625
			c0.442,0.417,0.876,0.787,1.248,1.175c0.718,0.807,1.335,1.497,1.79,2.109c0.89,1.248,1.334,1.981,1.334,1.981
			s-0.77-0.44-2.002-1.245c-0.623-0.396-1.437-0.793-2.293-1.309c-0.45-0.222-0.929-0.458-1.434-0.707
			c-0.247-0.125-0.502-0.253-0.762-0.384c-0.27-0.11-0.546-0.224-0.828-0.339c-1.104-0.493-2.334-0.918-3.629-1.317
			c-1.305-0.381-2.688-0.71-4.135-0.94c-1.447-0.229-2.948-0.397-4.49-0.436c-1.536-0.066-3.11-0.012-4.683,0.095
			c-1.575,0.134-3.152,0.311-4.705,0.582c-1.554,0.25-3.079,0.586-4.562,0.919c-1.474,0.369-2.912,0.723-4.264,1.129
			c-1.359,0.384-2.639,0.79-3.828,1.169c-1.182,0.395-2.285,0.738-3.25,1.082c-0.972,0.344-1.819,0.645-2.518,0.892
			C226.071,799.771,225.265,800.066,225.265,800.066z"/>
	</g>
	<g>
		<path fill="#1E120D" d="M240.88,868.035c-0.388-0.263-0.769-0.532-1.146-0.806c-0.361-0.296-0.723-0.609-1.083-0.932
			c-0.678-0.667-1.335-1.363-1.932-2.112c-0.314-0.365-0.577-0.762-0.854-1.152c-0.279-0.39-0.551-0.785-0.797-1.193
			c-0.524-0.805-0.992-1.638-1.434-2.487c-0.416-0.856-0.842-1.715-1.212-2.592c-0.394-0.872-0.737-1.758-1.065-2.652
			c-0.315-0.896-0.634-1.793-0.904-2.702c-0.282-0.907-0.531-1.82-0.778-2.734c-0.936-3.669-1.622-7.387-2.053-11.124
			c-0.237-1.868-0.378-3.743-0.511-5.619c-0.066-0.938-0.097-1.879-0.131-2.821c-0.029-0.949-0.057-1.869-0.048-2.863l4.38,1.553
			c-0.352,0.423-0.779,1.002-1.152,1.531c-0.384,0.543-0.748,1.105-1.112,1.668c-0.731,1.125-1.395,2.296-2.016,3.485
			c-0.631,1.186-1.179,2.409-1.679,3.649c-0.244,0.621-0.488,1.246-0.687,1.881c-0.216,0.633-0.402,1.271-0.581,1.915
			c-0.167,0.646-0.312,1.295-0.443,1.949c-0.132,0.653-0.24,1.314-0.31,1.978c-0.082,0.665-0.115,1.332-0.134,2.004
			c0.014,0.666-0.029,1.348,0.036,2.02c0.027,0.68,0.121,1.351,0.221,2.029c0.133,0.666,0.232,1.356,0.419,2.023l0.273,1.011
			l0.341,0.996c0.199,0.686,0.529,1.311,0.776,1.995c-0.458-0.547-0.96-1.085-1.362-1.688c-0.212-0.296-0.417-0.6-0.62-0.905
			l-0.545-0.956c-0.368-0.641-0.673-1.318-0.954-2.007c-0.262-0.696-0.517-1.401-0.705-2.129c-0.219-0.721-0.36-1.462-0.482-2.206
			c-0.105-0.747-0.191-1.499-0.225-2.255c-0.046-0.756-0.049-1.515-0.025-2.271c0.014-0.761,0.098-1.512,0.186-2.265
			c0.108-0.747,0.209-1.501,0.377-2.236c0.147-0.742,0.342-1.47,0.541-2.197c0.399-1.456,0.929-2.865,1.509-4.249
			c0.591-1.381,1.265-2.72,2-4.028c0.373-0.651,0.766-1.292,1.176-1.926c0.425-0.646,0.815-1.229,1.345-1.921l4.217-5.502
			l0.163,7.055c0.02,0.853,0.044,1.777,0.087,2.673l0.146,2.71c0.092,1.809,0.251,3.613,0.393,5.418
			c0.322,3.607,0.717,7.203,1.29,10.764c0.282,1.779,0.603,3.554,0.982,5.311c0.209,0.871,0.379,1.76,0.612,2.624
			c0.209,0.877,0.471,1.731,0.726,2.595c0.294,0.843,0.547,1.71,0.872,2.546c0.305,0.848,0.665,1.671,1.054,2.482
			c0.368,0.826,0.806,1.619,1.272,2.399l0.741,1.15C240.322,867.285,240.604,867.656,240.88,868.035z"/>
	</g>
	<g>
		<path fill="#1E120D" d="M260.626,865.28c0.575-1.644,1.159-3.264,1.708-4.893c0.582-1.612,1.104-3.242,1.636-4.858
			c1.058-3.232,2.023-6.469,2.825-9.705c0.407-1.615,0.743-3.237,1.048-4.849c0.131-0.808,0.271-1.614,0.365-2.418
			c0.124-0.804,0.188-1.604,0.258-2.4c0.046-0.797,0.09-1.588,0.091-2.37c0.018-0.396-0.014-0.779-0.025-1.167
			c-0.006-0.389-0.032-0.772-0.081-1.148c-0.058-0.764-0.177-1.502-0.322-2.227c-0.092-0.354-0.164-0.717-0.266-1.064
			c-0.118-0.338-0.232-0.678-0.337-1.022l-2.926-9.642l6.886,6.924c0.612,0.615,1.039,1.114,1.502,1.687
			c0.452,0.556,0.877,1.125,1.273,1.712c0.408,0.58,0.754,1.197,1.13,1.794c0.341,0.619,0.675,1.241,0.992,1.87l0.84,1.943
			c0.238,0.665,0.459,1.337,0.676,2.006c0.203,0.674,0.338,1.372,0.506,2.053c0.187,0.678,0.221,1.393,0.321,2.085l0.126,1.043
			c0.022,0.35,0.014,0.703,0.021,1.053c-0.011,0.701,0.043,1.396-0.025,2.09l-0.242,2.066c-0.05,0.687-0.305,1.348-0.448,2.014
			c-0.186,0.66-0.299,1.33-0.578,1.957c-0.237,0.637-0.507,1.26-0.762,1.879c-0.228,0.629-0.605,1.199-0.931,1.78
			c-0.343,0.575-0.671,1.149-1.023,1.704c0.125-0.659,0.274-1.299,0.41-1.938c0.117-0.645,0.342-1.247,0.381-1.901
			c0.078-0.643,0.144-1.28,0.24-1.904c0.125-0.62,0.082-1.265,0.111-1.891c-0.005-0.629,0.071-1.247,0.004-1.868l-0.139-1.847
			c-0.04-0.61-0.197-1.212-0.287-1.813l-0.158-0.896l-0.241-0.879c-0.171-0.582-0.283-1.173-0.521-1.733
			c-0.216-0.565-0.392-1.139-0.632-1.689l-0.751-1.639l-0.863-1.581l-0.958-1.522c-0.356-0.483-0.679-0.989-1.056-1.452
			c-0.37-0.469-0.732-0.939-1.126-1.379c-0.37-0.431-0.822-0.898-1.142-1.196l3.96-2.718l0.505,1.408
			c0.146,0.473,0.254,0.949,0.379,1.426c0.204,0.951,0.378,1.907,0.446,2.854c0.052,0.477,0.077,0.948,0.081,1.417
			c0.009,0.47,0.036,0.943,0.012,1.405c-0.009,0.934-0.078,1.854-0.176,2.767c-0.206,1.82-0.535,3.601-0.967,5.341
			c-0.227,0.866-0.446,1.732-0.723,2.578c-0.254,0.853-0.548,1.688-0.837,2.524c-1.213,3.321-2.688,6.508-4.386,9.556
			c-0.844,1.527-1.771,3.006-2.71,4.468C262.746,862.517,261.749,863.944,260.626,865.28z"/>
	</g>
</g>
</svg>
