<?xml version="1.0" encoding="utf-8"?>
<!-- Generator: Adobe Illustrator 16.0.0, SVG Export Plug-In . SVG Version: 6.00 Build 0)  -->
<!DOCTYPE svg PUBLIC "-//W3C//DTD SVG 1.1//EN" "http://www.w3.org/Graphics/SVG/1.1/DTD/svg11.dtd">
<svg version="1.1" id="Layer_3" xmlns="http://www.w3.org/2000/svg" xmlns:xlink="http://www.w3.org/1999/xlink" x="0px" y="0px"
	 width="500px" height="900px" viewBox="0 0 500 900" enable-background="new 0 0 500 900" xml:space="preserve">
<g>
	<path fill="none" stroke="#1E120D" stroke-width="5" stroke-miterlimit="10" d="M24.638,443.539c0,0-5.81-36.211-10.651-48.934
		c-4.842-12.726-11.135-59.702-4.842-77.81c6.293-18.108,19.852-0.002,30.503,18.593c10.651,18.598,39.217,87.109,39.217,87.109
		s21.786-1.126,44.543-46.075c22.756-44.947,16.462-50.82,16.462-59.139c0-8.32,8.23-24.956,18.881,0.979
		c0,0,9.683,47.958-5.81,74.384c-15.494,26.427-21.789,42.084-21.789,46.001c0,0,18.882,31.81,2.906,62.15
		c-15.978,30.339-25.66,17.127-32.922,13.701c-7.263-3.425-20.821-14.192-32.441-0.978c-11.62,13.213-29.534,9.789-32.438,3.426
		c-2.906-6.362-11.62-26.426-15.978-30.342C15.923,482.69,8.177,455.284,24.638,443.539z"/>
	<path fill="none" stroke="#1E120D" stroke-width="5" stroke-miterlimit="10" d="M24.638,443.539c0,0,3.874-2.447,18.399,0
		c14.525,2.447,18.391,6.825,33.89,6.852c19.853,0.035,41.639-11.744,54.227-11.744"/>
	<g>
		<path fill="#1E120D" d="M40.372,510.461c0,0,0.145,0.229,0.463,0.604c0.312,0.378,0.829,0.883,1.536,1.399
			c0.712,0.514,1.66,0.98,2.779,1.278c1.124,0.294,2.44,0.343,3.853,0.17c0.35-0.02,0.714-0.107,1.08-0.172
			c0.183-0.033,0.367-0.067,0.552-0.102l0.035-0.007l0.017-0.003c0.029-0.004-0.19,0.03-0.088,0.013l0.076-0.022l0.152-0.045
			l0.306-0.092c0.205-0.06,0.412-0.121,0.62-0.183c0.215-0.057,0.426-0.117,0.573-0.2c0.327-0.146,0.658-0.294,0.994-0.443
			c1.465-0.727,2.991-1.697,4.609-2.756c1.61-1.066,3.342-2.232,5.21-3.308c1.849-1.108,3.915-2.067,6.072-2.837
			c2.157-0.788,4.489-1.175,6.765-1.354c1.143,0.014,2.286-0.099,3.39,0.079c0.553,0.061,1.102,0.121,1.647,0.182l0.204,0.023
			l0.102,0.012l0.128,0.02l0.046,0.01l0.367,0.077l0.728,0.155c0.966,0.21,1.919,0.398,2.847,0.616
			c0.932,0.219,1.941,0.569,2.856,0.855c1.861,0.6,3.513,1.469,4.901,2.282c1.311,0.776,2.488,1.371,3.655,1.771
			c1.185,0.333,2.226,0.734,3.138,0.885c1.796,0.398,2.846,0.688,2.846,0.688s-1.053,0.148-2.936,0.303
			c-0.939,0.12-2.096,0.068-3.447-0.004c-0.677,0.001-1.394-0.215-2.167-0.334c-0.397-0.056-0.766-0.18-1.144-0.305
			c-0.381-0.123-0.771-0.249-1.168-0.378c-1.475-0.511-2.992-0.997-4.646-1.271c-0.849-0.119-1.623-0.325-2.565-0.42
			c-0.949-0.087-1.914-0.21-2.897-0.315c-1.843-0.24-3.661-0.218-5.521-0.096c-1.839,0.263-3.702,0.553-5.503,1.245
			c-1.817,0.624-3.601,1.421-5.364,2.354c-1.801,0.977-3.574,1.938-5.289,2.867c-1.783,0.948-3.61,1.826-5.51,2.449
			c-0.523,0.136-1.039,0.27-1.547,0.401c-0.521,0.141-0.892,0.135-1.335,0.198c-0.251,0.028-0.5,0.056-0.746,0.082
			c-0.231,0.002-0.46,0.003-0.688,0.005c-0.454-0.003-0.891,0.021-1.333-0.043c-1.744-0.125-3.339-0.6-4.59-1.291
			c-1.267-0.671-2.158-1.558-2.755-2.336c-0.608-0.778-0.905-1.49-1.09-1.962C40.411,510.728,40.372,510.461,40.372,510.461z"/>
	</g>
</g>
<g>
	<path fill="none" stroke="#1E120D" stroke-width="5" stroke-miterlimit="10" d="M210.362,257.897
		c0.809-22.131-18.279-48.811-20.697-63.054c-2.167-12.753-5.294-40.19,5.777-53.666c11.069-13.478,14.92-3.609,12.032,8.423
		c-2.888,12.033,2.406,51.02,14.438,59.684c0,0,12.032,17.326,14.44,20.697c2.408,3.369,10.588,11.069,19.251,0.48
		c8.664-10.588,30.323-33.692,32.731-77.01c0,0,0.963-9.626,0-14.44c-0.964-4.813-3.369-18.29,3.852-21.178
		c7.22-2.888,12.03,6.257,16.844,21.178c4.813,14.922,4.333,42.356,0,56.315c-4.331,13.958-29.36,54.87-23.104,72.198
		c6.26,17.327,27.437,51.502,12.515,64.979c0,0-7.581,3.848-15.883,5.292c-8.304,1.444-10.829,5.776-18.05,6.138
		c-7.22,0.361-20.216-5.776-22.742-5.055c-2.526,0.722-10.108,1.445-20.576,2.166c-10.469,0.722-24.187,5.054-25.63-15.883
		s1.806-26.352,6.859-36.099C207.474,279.314,209.639,277.631,210.362,257.897z"/>
	<path fill="none" stroke="#1E120D" stroke-width="5" stroke-miterlimit="10" d="M208.146,276.774c0,0,17.376-14.426,39.035-19.479
		c21.661-5.054,26.231,6.74,38.746,10.229"/>
	<path fill="none" stroke="#1E120D" stroke-width="5" stroke-miterlimit="10" d="M225.113,340.762c0,0,17.737,7.862,23.873,7.501
		c6.138-0.362,10.831-3.744,10.831-3.744"/>
	<path fill="none" stroke="#1E120D" stroke-width="5" stroke-miterlimit="10" d="M220.735,208.318c0,0,8.397-18.529,10.924-43.438
		c2.528-24.907,5.849-34.654,15.378-35.736c9.531-1.083,9.891,24.187,12.057,42.957c2.167,18.772,2.411,36.696,11.674,38.203"/>
</g>
<g>
	<path fill="none" stroke="#1E120D" stroke-width="5" stroke-miterlimit="10" d="M477.334,441.948c0,0,5.773-36.941,10.581-49.924
		c4.811-12.979,11.063-60.904,4.811-79.376c-6.252-18.473-19.722-0.003-30.305,18.969c-10.582,18.972-38.964,88.864-38.964,88.864
		s-21.645-1.148-44.253-47.001c-22.611-45.854-16.356-51.847-16.356-60.335c0-8.485-8.178-25.458-18.761,1
		c0,0-9.618,48.926,5.774,75.884c15.392,26.96,21.647,42.932,21.647,46.928c0,0-18.763,32.451-2.888,63.403
		c15.874,30.951,25.494,17.474,32.71,13.979c7.215-3.497,20.685-14.479,32.229-1.001c11.545,13.481,29.343,9.986,32.229,3.497
		c2.887-6.492,11.545-26.959,15.875-30.954C485.992,481.887,493.688,453.929,477.334,441.948z"/>
	<path fill="none" stroke="#1E120D" stroke-width="5" stroke-miterlimit="10" d="M477.334,441.948c0,0-3.85-2.496-18.28,0
		c-14.431,2.498-18.271,6.961-33.671,6.989c-19.724,0.034-41.368-11.981-53.874-11.981"/>
	<g>
		<path fill="#1E120D" d="M461.701,510.219c0,0-0.036,0.267-0.206,0.748c-0.178,0.473-0.461,1.188-1.054,1.975
			c-0.58,0.786-1.45,1.692-2.708,2.379c-1.241,0.704-2.832,1.202-4.578,1.332c-0.441,0.064-0.88,0.048-1.333,0.046
			c-0.227-0.001-0.456-0.003-0.688-0.005c-0.248-0.027-0.499-0.055-0.752-0.082c-0.44-0.064-0.815-0.067-1.326-0.201
			c-0.508-0.135-1.023-0.272-1.546-0.412c-1.9-0.638-3.712-1.532-5.481-2.499c-1.7-0.947-3.457-1.927-5.241-2.922
			c-1.746-0.955-3.515-1.764-5.315-2.41c-1.787-0.701-3.634-1.014-5.459-1.285c-1.846-0.124-3.656-0.151-5.482,0.093
			c-0.98,0.109-1.941,0.236-2.888,0.326c-0.944,0.095-1.706,0.31-2.553,0.432c-0.837,0.099-1.602,0.368-2.37,0.563
			c-0.77,0.163-1.518,0.513-2.244,0.738c-0.801,0.243-1.52,0.565-2.298,0.704c-0.772,0.126-1.487,0.344-2.163,0.352
			c-1.348,0.076-2.503,0.136-3.439,0.017c-1.879-0.15-2.929-0.298-2.929-0.298s1.046-0.29,2.836-0.692
			c0.908-0.151,1.943-0.56,3.121-0.896c1.158-0.409,2.322-1.011,3.623-1.802c1.375-0.824,3.019-1.71,4.874-2.318
			c0.911-0.29,1.921-0.651,2.847-0.868c0.924-0.222,1.873-0.414,2.836-0.628c2.053-0.468,4.332-0.646,6.614-0.557
			c2.277,0.191,4.602,0.607,6.75,1.411c2.142,0.796,4.196,1.773,6.023,2.903c1.85,1.097,3.561,2.278,5.153,3.36
			c1.599,1.072,3.111,2.056,4.558,2.786c0.331,0.152,0.658,0.302,0.98,0.45c0.316,0.16,0.81,0.251,1.193,0.386l0.306,0.093
			l0.151,0.047l0.037,0.011c-0.043-0.007,0.123,0.023-0.092-0.014l0.018,0.004l0.068,0.013c0.185,0.034,0.368,0.068,0.549,0.103
			c0.364,0.068,0.726,0.148,1.073,0.169c1.403,0.168,2.707,0.102,3.823-0.201c1.11-0.309,2.045-0.795,2.746-1.319
			c0.695-0.528,1.203-1.04,1.51-1.421C461.559,510.449,461.701,510.219,461.701,510.219z"/>
	</g>
</g>
<g>
	<g>
		<path fill="none" stroke="#1E120D" stroke-width="5" stroke-miterlimit="10" d="M278.167,754.729
			c12.291-8.85,17.698-48.674,14.75-60.964c-2.95-12.291,0.982-22.371,12.291-8.604c11.309,13.765,8.111,41.788,5.898,54.818
			c-2.471,14.549-17.519,42.076-21.14,64.406c-3.114,19.207,1.618,20.585,11.207,46.766c9.587,26.181,0,36.136,0,36.136
			c-16.225,15.856-32.818,2.213-32.818,2.213c-5.901,5.53-16.93,8.112-16.93,8.112c-48.643,8.481-33.219-8.112-46.494-11.431
			s-15.119-9.956-12.537-27.655s20.383-44.307,20.383-44.307c6.392-17.699-19.175-59.491-23.6-73.748
			c-4.424-14.259-2.438-42.962,2.48-58.203c4.917-15.242,9.812-22.344,17.186-19.394c7.375,2.95,5.185,14.476,4.2,19.394
			c-0.984,4.916-2.58,17.331-2.58,17.331s-0.737,33.187,15.117,51.623"/>
	</g>
	<g>
		<path fill="#1E120D" d="M221.156,784.411c0,0,0.016-1.125,0.046-3.233c0.057-2.105,0.157-5.194,0.35-9.118
			c0.222-3.92,0.485-8.683,0.937-14.129c0.197-2.728,0.486-5.62,0.761-8.673c0.253-3.056,0.622-6.258,1.003-9.6
			c0.696-6.689,1.689-13.914,2.762-21.555c0.262-1.909,0.56-3.843,0.89-5.8c0.326-1.957,0.657-3.937,0.99-5.938
			c0.365-2.001,0.655-4.019,1.093-6.063c0.428-2.043,0.861-4.105,1.297-6.186c0.81-4.196,1.929-8.274,3.032-12.509
			c1.142-4.205,2.325-8.481,4.087-12.746c0.876-2.128,1.944-4.26,3.361-6.29c1.451-2.002,3.542-3.877,6.082-4.802
			c0.616-0.291,1.265-0.4,1.909-0.547c0.322-0.065,0.646-0.15,0.966-0.195l0.957-0.064c0.639-0.037,1.285-0.101,1.894-0.028
			l0.927,0.063l0.463,0.033l0.231,0.018l0.116,0.008l0.202,0.032l0.826,0.145c0.253,0.034,0.67,0.166,0.996,0.251
			c0.357,0.091,0.686,0.204,0.988,0.336c0.31,0.132,0.633,0.233,0.927,0.404c1.223,0.583,2.313,1.422,3.231,2.365
			c1.867,1.896,3.015,4.188,3.847,6.454c0.811,2.282,1.297,4.595,1.659,6.884c0.716,4.578,0.817,9.137,1.013,13.499l0.041,0.81
			l0.01,0.201c-0.014-0.211,0.004,0.001,0.004-0.02l0.014,0.102l0.053,0.409l0.21,1.635c0.146,1.084,0.253,2.195,0.486,3.21
			c0.428,2.086,0.766,4.095,1.249,6.206c0.459,2.099,0.915,4.185,1.368,6.256c0.477,2.073,0.95,4.131,1.42,6.172
			c0.95,4.085,1.898,8.097,2.744,12.061c0.892,3.949,1.669,7.841,2.369,11.694c0.153,0.986,0.306,1.965,0.457,2.937
			c0.067,0.489,0.167,0.963,0.206,1.459c0.044,0.469,0.088,0.936,0.131,1.401c0.179,1.858,0.345,3.695,0.488,5.515
			c0.311,3.632,0.577,7.127,0.776,10.489c0.217,3.36,0.363,6.586,0.525,9.65c0.128,3.067,0.188,5.982,0.277,8.717
			c0.11,2.732,0.039,5.306,0.066,7.673c0,1.185,0.001,2.321,0.001,3.407c-0.038,1.087-0.073,2.125-0.107,3.109
			c-0.076,1.965-0.145,3.72-0.204,5.246c-0.133,1.527-0.25,2.824-0.361,3.872c-0.217,2.092-0.332,3.208-0.332,3.208
			s-0.05-1.122-0.143-3.226c-0.04-1.047-0.089-2.338-0.146-3.855c-0.117-1.516-0.252-3.259-0.403-5.21
			c-0.073-0.974-0.15-2-0.231-3.076c-0.103-1.076-0.21-2.202-0.322-3.376c-0.231-2.348-0.435-4.883-0.737-7.592
			c-0.557-5.418-1.223-11.525-1.98-18.184c-0.39-3.323-0.796-6.785-1.216-10.368c-0.207-1.784-0.44-3.607-0.688-5.463
			c-0.061-0.464-0.121-0.929-0.183-1.396c-0.052-0.441-0.15-0.894-0.224-1.343c-0.158-0.899-0.317-1.806-0.478-2.719
			c-1.499-7.421-3.409-15.341-5.104-23.563c-0.432-2.059-0.868-4.135-1.307-6.226c-0.416-2.103-0.834-4.221-1.255-6.352
			c-0.424-2.112-0.753-4.4-1.13-6.607c-0.215-1.126-0.287-2.201-0.403-3.295l-0.165-1.639l-0.042-0.411l-0.028-0.327l-0.005-0.211
			l-0.019-0.842c-0.055-4.442-0.101-8.793-0.686-13.049c-0.284-2.122-0.746-4.197-1.414-6.139c-0.691-1.922-1.616-3.722-2.913-5.024
			c-2.392-2.66-7.058-2.958-10.368-1.803c-1.651,0.646-3.017,1.866-4.143,3.46c-1.084,1.638-2.003,3.485-2.739,5.459
			c-1.501,3.931-2.554,8.137-3.554,12.294c-0.481,2.093-0.958,4.173-1.433,6.238c-0.228,1.036-0.488,2.084-0.687,3.099
			c-0.195,1.027-0.389,2.05-0.583,3.068c-0.387,2.037-0.771,4.056-1.152,6.057c-0.39,1.995-0.643,4.028-0.966,6.009
			c-0.583,3.982-1.329,7.838-1.838,11.647c-1.154,7.594-2.245,14.773-3.252,21.4c-0.499,3.317-1.011,6.49-1.499,9.512
			c-0.489,3.021-0.923,5.889-1.406,8.576c-0.914,5.381-1.739,10.071-2.465,13.929c-0.725,3.857-1.323,6.886-1.753,8.949
			C221.392,783.311,221.156,784.411,221.156,784.411z"/>
	</g>
	<path fill="none" stroke="#1E120D" stroke-width="5" stroke-miterlimit="10" d="M213.774,808.702c0,0,10.7,8.526,32.088,12.214
		c21.387,3.687,32.972-3.743,43.296-3.374"/>
	<g>
		<path fill="#1E120D" d="M268.619,886.056c0,0,0.109,0.039,0.315,0.114c0.217,0.076,0.556,0.185,0.99,0.315
			c0.874,0.258,2.154,0.596,3.723,0.889c3.123,0.584,7.445,0.952,11.652,0.149c1.046-0.205,2.091-0.453,3.085-0.801
			c1.005-0.324,1.957-0.745,2.865-1.191c0.449-0.23,0.876-0.487,1.306-0.724c0.409-0.27,0.809-0.533,1.198-0.79
			c0.751-0.558,1.448-1.111,2.043-1.683c0.616-0.551,1.111-1.129,1.569-1.625c0.418-0.529,0.812-0.976,1.09-1.375
			c0.557-0.806,0.874-1.266,0.874-1.266s-0.252,0.502-0.692,1.38c-0.223,0.439-0.552,0.939-0.901,1.536
			c-0.391,0.565-0.815,1.228-1.366,1.881c-0.531,0.674-1.171,1.35-1.877,2.045c-0.373,0.328-0.756,0.665-1.146,1.01
			c-0.416,0.313-0.833,0.651-1.278,0.965c-0.899,0.612-1.864,1.21-2.899,1.714c-1.026,0.527-2.119,0.957-3.229,1.34
			c-1.112,0.376-2.248,0.684-3.381,0.917c-1.132,0.244-2.259,0.405-3.354,0.529c-2.192,0.239-4.255,0.251-6.021,0.182
			c-1.767-0.079-3.237-0.253-4.275-0.405c-0.52-0.081-0.929-0.15-1.219-0.208c-0.3-0.063-0.46-0.096-0.46-0.096L268.619,886.056z"/>
	</g>
	<g>
		<path fill="#1E120D" d="M207.193,889.01c0.001,0.008,0.004-0.098,0.02-0.071c0.024,0.033,0.026-0.117,0.038-0.23
			c0.017-0.271-0.018-0.722-0.127-1.285c-0.062-0.282-0.134-0.594-0.25-0.923c-0.09-0.336-0.257-0.673-0.398-1.042
			c-0.18-0.349-0.346-0.731-0.57-1.097c-0.225-0.361-0.438-0.752-0.711-1.104c-0.259-0.363-0.52-0.733-0.818-1.066
			c-0.29-0.342-0.569-0.692-0.881-0.992c-0.593-0.637-1.204-1.184-1.74-1.647c-0.525-0.481-1.018-0.811-1.342-1.078
			c-0.332-0.257-0.522-0.403-0.522-0.403s0.226,0.078,0.623,0.214c0.391,0.147,0.981,0.308,1.646,0.599
			c0.675,0.274,1.464,0.609,2.283,1.05c0.423,0.199,0.829,0.458,1.254,0.712c0.433,0.245,0.844,0.541,1.26,0.84
			c0.428,0.285,0.813,0.632,1.211,0.96c0.396,0.33,0.75,0.706,1.11,1.059c0.329,0.383,0.675,0.737,0.95,1.129
			c0.294,0.374,0.545,0.76,0.771,1.126c0.441,0.743,0.755,1.427,0.934,1.969c0.092,0.291,0.152,0.461,0.197,0.715
			c0.034,0.175,0.053,0.268,0.053,0.268L207.193,889.01z"/>
	</g>
</g>
<g>
	<path fill="none" stroke="#1E120D" stroke-width="5" stroke-miterlimit="10" d="M195.282,460.62c0,0-11.306-40.703,17.463-53.267
		c28.769-12.564,36.309-25.631,54.902-23.117c18.592,2.511,39.324,32.163,39.26,42.716c-0.063,10.553-6.094,44.221-6.094,44.221
		s5.527,44.223-35.68,50.504c-41.207,6.284-68.343-21.86-68.343-38.443C196.791,466.649,195.282,460.62,195.282,460.62z"/>
	<g>
		<path fill="#1E120D" d="M204.329,474.188c1.408-0.614,2.767-1.305,4.109-1.988c1.317-0.738,2.618-1.478,3.803-2.326
			c0.559-0.456,1.2-0.834,1.655-1.353l1.645-1.546c1.73-1.344,3.62-1.579,5.163-1.746c1.567-0.146,2.963-0.29,4.328-0.574
			c1.357-0.298,2.678-0.675,3.964-1.226c0.651-0.231,1.273-0.586,1.91-0.868l1.976-1.055l1.012-0.527
			c0.339-0.175,0.637-0.352,1.145-0.533c0.461-0.176,0.92-0.351,1.396-0.498c0.502-0.105,1.01-0.2,1.518-0.284
			c0.527-0.032,1.072-0.019,1.606-0.006c0.483,0.075,0.997,0.152,1.454,0.25l1.219,0.329l1.063,0.312
			c0.673,0.163,1.331,0.36,1.999,0.452c0.334,0.055,0.663,0.124,1,0.17l1.025,0.102c0.675,0.095,1.381,0.104,2.087,0.113
			c0.702,0.025,1.408,0.032,2.134-0.021l2.162-0.091l2.187-0.226c1.459-0.1,2.93-0.359,4.398-0.564
			c1.474-0.172,2.944-0.468,4.419-0.728c1.479-0.238,2.957-0.504,4.433-0.819c1.479-0.291,2.958-0.593,4.449-0.854l0.813-0.143
			l0.449,0.324c1.061,0.768,2.159,1.527,3.254,2.276c1.1,0.741,2.183,1.519,3.295,2.243c0.549,0.38,1.113,0.726,1.67,1.089
			c0.56,0.355,1.108,0.75,1.682,1.077l1.714,1.031l1.785,0.922c-0.658-0.122-1.32-0.267-1.993-0.411
			c-0.65-0.186-1.296-0.394-1.944-0.604c-0.654-0.199-1.273-0.46-1.914-0.688c-0.641-0.23-1.265-0.493-1.884-0.762
			c-1.247-0.528-2.489-1.066-3.708-1.65c-1.216-0.594-2.419-1.188-3.633-1.82l1.262,0.182c-1.452,0.501-2.917,0.962-4.382,1.434
			c-1.458,0.49-2.948,0.886-4.442,1.283c-1.497,0.385-2.984,0.801-4.518,1.093c-1.53,0.297-3.042,0.649-4.612,0.841l-2.343,0.316
			l-2.391,0.18c-0.792,0.075-1.605,0.071-2.424,0.054c-0.814-0.003-1.629-0.008-2.464-0.108l-1.245-0.118
			c-0.415-0.062-0.831-0.148-1.246-0.223c-0.838-0.133-1.64-0.374-2.44-0.582l-2.098-0.63l-0.788-0.169
			c-0.225,0.008-0.442-0.015-0.672-0.021c-0.241,0.049-0.481,0.085-0.728,0.112c-0.25,0.074-0.502,0.172-0.761,0.241
			c-0.224,0.035-0.598,0.219-0.943,0.376L234.9,465.7l-0.999,0.469c-0.37,0.17-0.729,0.355-1.107,0.511
			c-0.774,0.283-1.512,0.625-2.313,0.852c-1.555,0.543-3.212,0.86-4.852,1.05c-1.641,0.195-3.293,0.144-4.762,0.118
			c-0.744-0.013-1.411-0.02-2.019,0.049c-0.606,0.053-1.125,0.268-1.532,0.425l-1.9,1.323c-0.677,0.51-1.429,0.788-2.137,1.169
			c-0.711,0.369-1.464,0.604-2.188,0.908c-0.733,0.274-1.492,0.466-2.23,0.699C207.364,473.667,205.856,474.003,204.329,474.188z"/>
	</g>
	<g>
		<path fill="#1E120D" d="M213.484,469.799c0,0-0.047-0.115-0.135-0.333c-0.098-0.236-0.225-0.566-0.374-0.972
			c-0.302-0.818-0.708-1.981-1.129-3.388c-0.217-0.702-0.433-1.466-0.645-2.277c-0.229-0.805-0.412-1.672-0.63-2.556
			c-0.188-0.893-0.388-1.812-0.556-2.752c-0.151-0.945-0.34-1.893-0.447-2.857c-0.128-0.96-0.25-1.917-0.314-2.868
			c-0.04-0.473-0.079-0.941-0.117-1.405c-0.017-0.465-0.033-0.925-0.049-1.376c-0.015-0.45-0.031-0.893-0.045-1.326
			c0.008-0.434,0.016-0.859,0.024-1.272c0.015-0.825,0.02-1.601,0.096-2.318c0.057-0.713,0.11-1.368,0.156-1.947
			c0.085-0.575,0.159-1.076,0.22-1.489c0.122-0.82,0.191-1.29,0.191-1.29s0.008,0.474,0.023,1.304
			c0.007,0.413,0.017,0.914,0.027,1.489c0.048,0.572,0.104,1.218,0.164,1.922c0.041,0.702,0.163,1.458,0.28,2.255
			c0.058,0.397,0.118,0.806,0.179,1.223c0.084,0.414,0.17,0.837,0.257,1.267c0.087,0.428,0.175,0.863,0.265,1.304
			c0.111,0.436,0.223,0.878,0.336,1.323c0.209,0.892,0.479,1.784,0.751,2.672c0.25,0.893,0.583,1.765,0.871,2.628
			c0.306,0.859,0.639,1.693,0.953,2.5c0.344,0.797,0.647,1.575,0.987,2.292c0.324,0.723,0.642,1.398,0.951,2.015
			c0.606,1.236,1.154,2.237,1.545,2.92c0.197,0.347,0.35,0.604,0.45,0.764c0.11,0.179,0.168,0.274,0.168,0.274L213.484,469.799z"/>
	</g>
	<g>
		<path fill="#1E120D" d="M234.646,462.195c0,0,0.042-0.405,0.115-1.114c0.067-0.721,0.142-1.766,0.202-3.024
			c0.052-1.26,0.101-2.736,0.08-4.319c-0.006-1.585-0.084-3.273-0.203-4.965c-0.085-0.839-0.143-1.689-0.25-2.516
			c-0.12-0.823-0.193-1.65-0.346-2.429c-0.151-0.779-0.247-1.553-0.43-2.258c-0.171-0.709-0.303-1.396-0.482-2.009
			c-0.181-0.616-0.348-1.18-0.495-1.68c-0.149-0.502-0.332-0.918-0.456-1.274c-0.264-0.708-0.415-1.112-0.415-1.112
			s0.221,0.371,0.608,1.019c0.187,0.328,0.447,0.715,0.687,1.186c0.239,0.473,0.509,1.007,0.803,1.59
			c0.294,0.586,0.55,1.244,0.856,1.933c0.317,0.686,0.554,1.438,0.854,2.206c0.302,0.768,0.527,1.583,0.805,2.404
			c0.264,0.824,0.48,1.673,0.726,2.52c0.437,1.701,0.835,3.418,1.139,5.042c0.32,1.623,0.549,3.15,0.734,4.466
			c0.177,1.316,0.299,2.42,0.369,3.203c0.063,0.796,0.099,1.25,0.099,1.25L234.646,462.195z"/>
	</g>
	<g>
		<path fill="#1E120D" d="M271.584,459.015c0,0,0.171-0.519,0.469-1.425c0.307-0.912,0.736-2.219,1.279-3.763
			c0.529-1.552,1.172-3.353,1.877-5.276c0.681-1.928,1.487-3.964,2.264-6.002c0.774-2.039,1.652-4.047,2.42-5.938
			c0.383-0.946,0.827-1.838,1.208-2.694c0.39-0.852,0.759-1.657,1.099-2.4c0.323-0.748,0.723-1.396,1.021-1.987
			c0.313-0.585,0.584-1.096,0.809-1.516c0.447-0.837,0.702-1.315,0.702-1.315s-0.185,0.512-0.508,1.407
			c-0.161,0.446-0.356,0.988-0.58,1.609c-0.21,0.626-0.505,1.304-0.718,2.091c-0.229,0.779-0.477,1.623-0.738,2.516
			c-0.253,0.896-0.558,1.821-0.8,2.807c-0.485,1.974-1.058,4.051-1.528,6.163c-0.472,2.112-0.971,4.209-1.364,6.199
			c-0.417,1.982-0.79,3.834-1.088,5.427c-0.313,1.591-0.544,2.91-0.712,3.834c-0.164,0.933-0.258,1.465-0.258,1.465L271.584,459.015
			z"/>
	</g>
	<g>
		<path fill="#1E120D" d="M218.015,467.693c0,0,0.108,0.363,0.296,0.997c0.179,0.632,0.434,1.533,0.741,2.615
			c0.596,2.166,1.351,5.061,1.996,7.984c0.325,1.461,0.611,2.933,0.853,4.315c0.105,0.695,0.207,1.367,0.303,2.005
			c0.066,0.643,0.129,1.249,0.187,1.81c0.022,0.568,0.058,1.081,0.059,1.539c-0.024,0.457-0.044,0.855-0.062,1.185
			c-0.141,0.639-0.221,1.004-0.221,1.004s0.002-0.366,0.006-1.008c-0.051-0.315-0.112-0.697-0.183-1.137
			c-0.094-0.433-0.235-0.919-0.369-1.444c-0.169-0.521-0.353-1.084-0.546-1.681c-0.222-0.587-0.457-1.207-0.699-1.848
			c-0.515-1.273-1.089-2.618-1.701-3.951c-1.218-2.665-2.538-5.286-3.552-7.234c-0.514-0.969-0.941-1.776-1.241-2.342
			c-0.304-0.557-0.478-0.874-0.478-0.874L218.015,467.693z"/>
	</g>
	<g>
		<path fill="#1E120D" d="M239.501,463.092c0,0-0.125,0.243-0.345,0.668c-0.214,0.437-0.521,1.062-0.888,1.812
			c-0.721,1.513-1.643,3.559-2.439,5.65c-0.397,1.045-0.778,2.102-1.075,3.104c-0.313,1.003-0.552,1.953-0.699,2.777
			c-0.091,0.413-0.14,0.793-0.17,1.132c-0.037,0.341-0.079,0.642-0.064,0.885c0.003,0.499,0.005,0.783,0.005,0.783
			s-0.08-0.275-0.218-0.758c-0.084-0.243-0.125-0.545-0.184-0.895c-0.065-0.35-0.124-0.748-0.149-1.182
			c-0.085-0.872-0.113-1.896-0.083-2.987c0.015-1.097,0.098-2.258,0.201-3.419c0.208-2.324,0.554-4.629,0.851-6.354
			c0.158-0.864,0.29-1.585,0.383-2.09c0.104-0.511,0.164-0.803,0.164-0.803L239.501,463.092z"/>
	</g>
	<g>
		<path fill="#1E120D" d="M274.286,459.861c0,0,0.011,0.346,0.031,0.952c0.023,0.596,0.049,1.444,0.112,2.48
			c0.049,1.034,0.13,2.239,0.234,3.53c0.082,1.297,0.244,2.663,0.381,4.043c0.134,1.381,0.368,2.734,0.537,4.028
			c0.082,0.647,0.233,1.248,0.34,1.835c0.115,0.585,0.225,1.138,0.326,1.648c0.085,0.521,0.26,0.955,0.365,1.366
			c0.119,0.407,0.224,0.763,0.309,1.055c0.174,0.589,0.272,0.926,0.272,0.926s-0.17-0.305-0.468-0.837
			c-0.149-0.269-0.332-0.595-0.54-0.97c-0.196-0.38-0.478-0.794-0.676-1.28c-0.215-0.482-0.448-1.006-0.695-1.56
			c-0.237-0.558-0.53-1.14-0.758-1.759c-0.457-1.236-1.004-2.556-1.449-3.896c-0.449-1.338-0.925-2.681-1.3-3.95
			c-0.398-1.267-0.754-2.456-1.039-3.48c-0.299-1.019-0.524-1.89-0.688-2.496c-0.156-0.598-0.246-0.939-0.246-0.939L274.286,459.861
			z"/>
	</g>
	<g>
		<path fill="#1E120D" d="M207.092,432.729c0,0,0.22-0.27,0.668-0.755c0.455-0.473,1.12-1.178,2.034-2.001
			c0.915-0.821,2.044-1.809,3.425-2.836c1.376-1.031,2.97-2.156,4.807-3.231c1.83-1.086,3.867-2.2,6.124-3.17
			c1.128-0.486,2.289-0.993,3.519-1.396c1.218-0.44,2.473-0.868,3.784-1.193c0.653-0.175,1.311-0.351,1.974-0.529
			c0.667-0.163,1.352-0.266,2.035-0.402c0.686-0.128,1.375-0.257,2.069-0.387c0.697-0.103,1.406-0.154,2.115-0.233
			c0.709-0.072,1.422-0.144,2.136-0.216c0.717-0.044,1.438-0.042,2.161-0.054l2.171-0.026l2.051,0.022
			c2.759,0.054,5.578,0.178,8.191,0.136c1.32-0.021,2.654,0.04,3.916-0.059c1.27-0.078,2.561-0.086,3.731-0.282
			c0.595-0.088,1.196-0.125,1.777-0.251c0.582-0.127,1.158-0.253,1.729-0.378c1.194-0.279,2.331-0.636,3.554-0.896
			c0.599-0.137,1.189-0.273,1.771-0.406c0.585-0.117,1.166-0.207,1.737-0.293c0.57-0.086,1.13-0.171,1.681-0.254l0.409-0.062
			l0.203-0.031l0.119-0.019l0.05-0.004l0.1-0.007c0.265-0.02,0.527-0.039,0.787-0.059c0.985-0.105,2.154-0.095,3.193-0.034
			c0.514,0.08,1.015,0.159,1.501,0.234c0.485,0.119,0.952,0.273,1.396,0.405c1.811,0.61,3.09,1.913,3.662,3.096
			c0.609,1.188,0.656,2.22,0.669,2.877c-0.005,0.669-0.093,1.011-0.093,1.011s-0.026-0.354-0.192-0.975
			c-0.163-0.614-0.508-1.511-1.217-2.37c-0.71-0.861-1.854-1.564-3.342-1.795c-0.383-0.032-0.764-0.086-1.163-0.109
			c-0.408,0.014-0.828,0.027-1.259,0.042c-0.853,0.123-1.68,0.182-2.741,0.459c-0.254,0.057-0.511,0.115-0.771,0.173
			c-0.228,0.069-0.458,0.138-0.689,0.208c-0.505,0.154-1.019,0.312-1.542,0.472c-0.52,0.167-1.057,0.3-1.59,0.477
			c-0.529,0.188-1.066,0.38-1.611,0.574c-1.121,0.405-2.274,0.821-3.452,1.246c-0.637,0.198-1.281,0.397-1.932,0.599
			c-0.654,0.192-1.34,0.294-2.02,0.446c-1.379,0.339-2.735,0.411-4.128,0.572c-1.399,0.189-2.776,0.188-4.182,0.245
			c-2.841,0.154-5.563,0.038-8.344,0.012l-2.103-0.046l-1.975,0.005c-0.657,0.009-1.314-0.013-1.968,0.002
			c-0.654,0.046-1.305,0.091-1.955,0.137c-0.649,0.049-1.298,0.079-1.94,0.143c-0.641,0.085-1.279,0.171-1.913,0.255
			c-0.633,0.092-1.269,0.15-1.891,0.268c-0.622,0.121-1.239,0.242-1.852,0.361c-1.236,0.201-2.421,0.534-3.594,0.823
			c-1.184,0.257-2.301,0.65-3.412,0.975c-2.208,0.686-4.274,1.444-6.161,2.214c-1.876,0.791-3.589,1.564-5.091,2.298
			c-1.488,0.755-2.791,1.427-3.846,2.019c-1.045,0.605-1.881,1.074-2.433,1.421C207.387,432.543,207.092,432.729,207.092,432.729z"
			/>
	</g>
	<g>
		<path fill="#1E120D" d="M215.71,499.063c0,0,0.189,0.242,0.583,0.631c0.395,0.393,1,0.935,1.833,1.53
			c0.398,0.314,0.88,0.614,1.404,0.931c0.508,0.332,1.1,0.636,1.716,0.969c1.246,0.646,2.708,1.253,4.323,1.835
			c0.786,0.33,1.681,0.52,2.561,0.791c0.875,0.284,1.824,0.475,2.782,0.694c0.479,0.11,0.964,0.222,1.455,0.334
			c0.5,0.084,1.007,0.168,1.519,0.253c1.026,0.157,2.05,0.394,3.134,0.479c1.071,0.125,2.161,0.252,3.263,0.381
			c1.115,0.066,2.241,0.139,3.373,0.229c1.128,0.12,2.285,0.091,3.438,0.138c1.155,0.023,2.311,0.097,3.474,0.081
			c1.164-0.013,2.328-0.025,3.488-0.038l1.736-0.008l0.174,0.002l0.21-0.011l0.36-0.023l0.801-0.074
			c2.167-0.256,4.334-0.658,6.397-1.174c2.073-0.494,4.034-1.152,5.889-1.812c1.835-0.704,3.563-1.426,5.121-2.189
			c0.772-0.4,1.512-0.785,2.216-1.15c0.692-0.396,1.349-0.773,1.966-1.127c1.215-0.745,2.251-1.45,3.134-2.008
			c1.656-1.237,2.669-1.926,2.669-1.926s-0.685,0.979-1.998,2.661c-0.717,0.772-1.552,1.776-2.64,2.791
			c-0.554,0.502-1.143,1.036-1.763,1.6c-0.64,0.544-1.362,1.048-2.095,1.614c-0.731,0.57-1.56,1.058-2.388,1.624
			c-0.833,0.559-1.761,1.011-2.685,1.547c-1.899,0.957-3.952,1.905-6.174,2.629c-2.215,0.745-4.557,1.36-7.033,1.73l-0.948,0.124
			l-0.519,0.053l-0.231,0.021l-0.268,0.012l-1.811,0.051c-1.21,0.026-2.425,0.054-3.64,0.081c-1.215,0-2.437-0.089-3.65-0.13
			c-1.214-0.052-2.421-0.101-3.621-0.261c-1.2-0.13-2.387-0.276-3.558-0.427c-1.17-0.196-2.323-0.428-3.451-0.656
			c-1.132-0.197-2.231-0.524-3.303-0.826c-0.535-0.152-1.064-0.303-1.587-0.451c-0.519-0.169-1.025-0.363-1.524-0.549
			c-2.008-0.694-3.836-1.581-5.464-2.479c-1.635-0.892-3.039-1.884-4.197-2.855c-1.17-0.957-2.079-1.92-2.747-2.769
			c-0.348-0.409-0.626-0.803-0.843-1.162c-0.235-0.342-0.397-0.662-0.533-0.911C215.796,499.352,215.71,499.063,215.71,499.063z"/>
	</g>
</g>
</svg>
