<?xml version="1.0" encoding="utf-8"?>
<!-- Generator: Adobe Illustrator 16.0.0, SVG Export Plug-In . SVG Version: 6.00 Build 0)  -->
<!DOCTYPE svg PUBLIC "-//W3C//DTD SVG 1.1//EN" "http://www.w3.org/Graphics/SVG/1.1/DTD/svg11.dtd">
<svg version="1.1" id="Layer_2" xmlns="http://www.w3.org/2000/svg" xmlns:xlink="http://www.w3.org/1999/xlink" x="0px" y="0px"
	 width="500px" height="900px" viewBox="0 0 500 900" enable-background="new 0 0 500 900" xml:space="preserve">
<g>
	<path fill="none" stroke="#1E120D" stroke-width="5" stroke-miterlimit="10" d="M19.921,447.309c0,0-26.027-54.392-9.331-125.877
		c0,0,4.911-21.24,15.714-20.203c10.803,1.036,40.266,96.351,40.266,96.351s8.84,30.561,32.901-1.038
		c24.061-31.598,37.321-46.101,32.9-75.11c-4.419-29.011-0.001-30.047,6.383-33.671c6.385-3.625,29.955,27.454,22.589,73.039
		c-7.366,45.586-32.409,55.426-33.883,79.256c0,0,10.435,19.295,10.435,28.622c0,9.322,2.579,14.375-5.156,29.137
		c-7.734,14.764-8.471,22.145-21.729,24.475c0,0-8.969,8.16-27.135-3.883c-18.165-12.043-11.168,2.719-40.999,4.273
		c0,0-7.735,3.496-16.205-15.541C18.202,488.101,9.854,472.174,19.921,447.309z"/>
	<path fill="none" stroke="#1E120D" stroke-width="5" stroke-miterlimit="10" d="M19.921,447.309c0,0,17.431,9.712,35.478,7.771
		c18.047-1.943,48.738-16.838,72.063-15.024"/>
	<g>
		<path fill="#1E120D" d="M73.905,516.107c0,0-0.059-0.046-0.169-0.132c-0.019-0.024-0.096-0.076-0.205-0.144
			c-0.104-0.063-0.21-0.144-0.365-0.219c-0.286-0.167-0.666-0.346-1.124-0.541c-0.468-0.17-0.994-0.399-1.619-0.546
			c-0.611-0.187-1.303-0.316-2.045-0.446c-0.744-0.111-1.547-0.199-2.386-0.244c-0.841-0.014-1.719-0.072-2.618,0.006
			c-0.451,0.023-0.905,0.047-1.361,0.07l-1.373,0.174c-0.458,0.063-0.922,0.106-1.379,0.187c-0.456,0.092-0.91,0.183-1.36,0.273
			c-0.453,0.091-0.902,0.181-1.346,0.271c-0.438,0.119-0.871,0.236-1.296,0.353c-0.847,0.249-1.695,0.422-2.456,0.711
			c-0.772,0.265-1.503,0.516-2.177,0.747c-0.684,0.217-1.281,0.483-1.82,0.702c-0.539,0.222-1.008,0.415-1.395,0.574
			c-0.776,0.32-1.219,0.503-1.219,0.503s0.407-0.252,1.12-0.693c0.358-0.221,0.792-0.489,1.29-0.797
			c0.5-0.306,1.056-0.672,1.699-0.999c0.638-0.344,1.33-0.716,2.061-1.109c0.723-0.419,1.544-0.732,2.367-1.129
			c0.417-0.19,0.839-0.383,1.268-0.579c0.441-0.167,0.888-0.336,1.338-0.507c0.453-0.171,0.909-0.343,1.367-0.517
			c0.463-0.161,0.941-0.288,1.414-0.435l1.427-0.423c0.486-0.106,0.971-0.213,1.451-0.318c0.958-0.241,1.935-0.345,2.88-0.48
			c0.948-0.105,1.882-0.158,2.773-0.171c0.895,0.006,1.748,0.027,2.543,0.129c0.794,0.058,1.528,0.227,2.182,0.354
			c0.654,0.156,1.229,0.318,1.707,0.494c0.236,0.073,0.458,0.174,0.647,0.251c0.183,0.073,0.352,0.147,0.524,0.24
			c0.273,0.145,0.418,0.222,0.418,0.222L73.905,516.107z"/>
	</g>
	<g>
		<path fill="#1E120D" d="M101.946,522.606c0,0,0.069-0.014,0.199-0.04c0.119-0.024,0.294-0.061,0.517-0.106
			c0.468-0.1,1.146-0.272,1.957-0.504c0.809-0.236,1.751-0.539,2.738-0.921c0.985-0.384,2.033-0.825,3.023-1.363
			c0.516-0.248,0.978-0.557,1.461-0.842c0.481-0.286,0.898-0.628,1.342-0.934c0.412-0.33,0.786-0.678,1.163-1
			c0.33-0.362,0.642-0.705,0.93-1.021c0.252-0.343,0.466-0.676,0.669-0.969c0.224-0.285,0.309-0.582,0.43-0.81
			c0.219-0.472,0.344-0.741,0.344-0.741s-0.051,0.293-0.139,0.807c-0.058,0.255-0.069,0.592-0.212,0.931
			c-0.123,0.347-0.252,0.751-0.421,1.184c-0.212,0.413-0.442,0.86-0.686,1.333c-0.295,0.437-0.598,0.918-0.943,1.392
			c-0.372,0.44-0.735,0.939-1.159,1.379c-0.425,0.438-0.847,0.913-1.315,1.319c-0.907,0.864-1.89,1.632-2.833,2.328
			c-0.945,0.692-1.863,1.288-2.666,1.778c-0.806,0.485-1.492,0.872-1.992,1.131c-0.261,0.133-0.466,0.236-0.606,0.308
			c-0.131,0.064-0.201,0.099-0.201,0.099L101.946,522.606z"/>
	</g>
	<path fill="none" stroke="#1E120D" stroke-width="5" stroke-miterlimit="10" d="M28.423,302.386c0,0,6.474-4.523,15.559,18.527
		c9.084,23.051,26.762,81.022,35.109,85.319c0,0,7.893,3.087,17.083-5.632"/>
</g>
<g>
	<path fill="none" stroke="#1E120D" stroke-width="5" stroke-miterlimit="10" d="M482.079,447.63c0,0,26.028-54.166,9.331-125.356
		c0,0-4.912-21.15-15.714-20.119c-10.804,1.033-40.267,95.951-40.267,95.951s-8.84,30.438-32.9-1.032
		c-24.062-31.466-37.318-45.91-32.9-74.8c4.42-28.889,0.002-29.921-6.384-33.531c-6.384-3.61-29.954,27.339-22.588,72.737
		c7.364,45.397,32.408,55.197,33.882,78.929c0,0-10.436,19.215-10.436,28.501s-2.578,14.314,5.157,29.019
		c7.734,14.703,8.472,22.053,21.729,24.373c0,0,8.969,8.126,27.136-3.868c18.164-11.992,11.167,2.708,40.998,4.257
		c0,0,7.734,3.481,16.205-15.477C483.799,488.254,492.146,472.39,482.079,447.63z"/>
	<path fill="none" stroke="#1E120D" stroke-width="5" stroke-miterlimit="10" d="M482.079,447.63c0,0-17.431,9.674-35.478,7.739
		c-18.046-1.935-48.737-16.768-72.063-14.961"/>
	<g>
		<path fill="#1E120D" d="M425.336,511.981c0,0,0.146-0.077,0.419-0.221c0.173-0.093,0.342-0.165,0.524-0.239
			c0.189-0.077,0.41-0.177,0.646-0.249c0.478-0.175,1.053-0.337,1.706-0.491c0.653-0.127,1.388-0.295,2.181-0.352
			c0.795-0.102,1.647-0.122,2.541-0.128c0.892,0.013,1.824,0.066,2.772,0.171c0.944,0.136,1.92,0.238,2.878,0.479
			c0.48,0.105,0.965,0.212,1.45,0.318l1.427,0.421c0.473,0.146,0.95,0.272,1.413,0.434c0.459,0.172,0.915,0.344,1.367,0.515
			c0.451,0.17,0.897,0.338,1.339,0.505c0.428,0.195,0.852,0.388,1.268,0.577c0.823,0.395,1.645,0.708,2.368,1.125
			c0.731,0.393,1.423,0.763,2.062,1.105c0.645,0.326,1.199,0.69,1.7,0.995c0.498,0.308,0.933,0.575,1.291,0.796
			c0.713,0.439,1.12,0.69,1.12,0.69s-0.443-0.182-1.22-0.5c-0.387-0.159-0.856-0.352-1.396-0.572
			c-0.539-0.218-1.137-0.483-1.82-0.698c-0.675-0.23-1.405-0.48-2.179-0.744c-0.761-0.287-1.608-0.459-2.456-0.707
			c-0.425-0.115-0.857-0.231-1.296-0.351c-0.444-0.089-0.894-0.178-1.346-0.269c-0.451-0.09-0.904-0.181-1.36-0.271
			c-0.457-0.079-0.921-0.122-1.379-0.186l-1.373-0.172c-0.456-0.023-0.91-0.047-1.361-0.069c-0.897-0.078-1.775-0.019-2.617-0.005
			c-0.838,0.046-1.642,0.133-2.386,0.244c-0.742,0.13-1.435,0.26-2.045,0.445c-0.626,0.146-1.152,0.375-1.62,0.545
			c-0.458,0.194-0.839,0.373-1.125,0.539c-0.155,0.075-0.262,0.155-0.365,0.219c-0.109,0.066-0.188,0.118-0.206,0.143
			c-0.11,0.086-0.169,0.132-0.169,0.132L425.336,511.981z"/>
	</g>
	<g>
		<path fill="#1E120D" d="M398.457,527.344c0,0-0.293-0.146-0.807-0.404c-0.499-0.258-1.184-0.643-1.989-1.127
			c-0.802-0.487-1.719-1.081-2.664-1.771c-0.941-0.693-1.925-1.457-2.832-2.318c-0.468-0.404-0.891-0.877-1.315-1.313
			s-0.788-0.936-1.16-1.374c-0.347-0.471-0.649-0.952-0.944-1.387c-0.244-0.472-0.475-0.918-0.688-1.329
			c-0.171-0.432-0.3-0.835-0.423-1.181c-0.144-0.338-0.156-0.675-0.214-0.929c-0.089-0.513-0.14-0.806-0.14-0.806
			s0.125,0.269,0.344,0.739c0.121,0.228,0.207,0.522,0.431,0.808c0.204,0.292,0.417,0.623,0.671,0.965
			c0.288,0.314,0.601,0.656,0.931,1.017c0.377,0.32,0.751,0.668,1.163,0.995c0.444,0.304,0.86,0.645,1.343,0.929
			c0.482,0.283,0.945,0.59,1.46,0.836c0.989,0.535,2.038,0.973,3.021,1.354c0.987,0.379,1.928,0.68,2.736,0.913
			c0.81,0.229,1.487,0.401,1.954,0.501c0.455,0.092,0.716,0.145,0.716,0.145L398.457,527.344z"/>
	</g>
	<path fill="none" stroke="#1E120D" stroke-width="5" stroke-miterlimit="10" d="M473.577,303.307c0,0-6.474-4.505-15.559,18.451
		s-26.761,80.687-35.11,84.965c0,0-7.893,3.077-17.082-5.606"/>
</g>
<g>
	<path fill="none" stroke="#1E120D" stroke-width="5" stroke-miterlimit="10" d="M200.901,287.321c0,0,13.996-23.571,3.683-47.509
		c-10.312-23.939-32.042-66.292-7.734-100.174c0,0,5.74-8.103,11.525-4.052c5.784,4.052-3.424,9.944-2.686,19.887
		c0.736,9.944,1.473,39.407,32.04,74.763c0,0,7.734,10.312,15.469,9.944c7.734-0.368,15.1-17.678,15.1-17.678
		s20.993-40.88,21.36-82.129c0.369-41.248,19.151-10.681,20.993,0.368c1.841,11.049,8.471,41.617-2.946,72.185
		c-11.417,30.568-17.31,54.139-10.681,74.394c6.629,20.258,11.785,32.41,11.049,46.773c-0.737,14.362-20.625,21.36-25.043,20.993
		c-4.42-0.37-31.307-13.261-31.307-13.261s-16.572,10.2-20.623,10.625c-4.051,0.425-13.627-6.205-13.627-6.205
		s-21.729,1.844-25.412-19.15C188.38,306.104,200.901,287.321,200.901,287.321z"/>
	<path fill="none" stroke="#1E120D" stroke-width="5" stroke-miterlimit="10" d="M203.597,281.694c0,0,31.187-20.521,65.438-17.206
		c0,0,15.143,2.161,25.617,11.761"/>
	<g>
		<polygon fill="#1E120D" points="249.224,341.827 251.724,331.515 254.224,341.827 		"/>
	</g>
	<g>
		<path fill="#1E120D" d="M215.831,348.131c0,0-0.168-0.195-0.463-0.535c-0.3-0.37-0.694-0.729-1.193-1.257
			c-0.249-0.257-0.519-0.536-0.805-0.831c-0.271-0.306-0.641-0.587-0.986-0.898c-0.712-0.619-1.473-1.278-2.233-1.938
			c-0.389-0.323-0.753-0.688-1.167-0.965c-0.403-0.295-0.8-0.585-1.185-0.867c-0.774-0.565-1.497-1.093-2.117-1.545
			c-1.252-0.912-2.086-1.519-2.086-1.519s0.976,0.329,2.438,0.822c0.738,0.25,1.599,0.541,2.521,0.854
			c0.464,0.158,0.944,0.321,1.431,0.487c0.498,0.148,0.959,0.389,1.445,0.588c0.967,0.421,1.935,0.842,2.842,1.236
			c0.455,0.208,0.901,0.369,1.315,0.612c0.418,0.226,0.814,0.44,1.179,0.637c0.716,0.398,1.39,0.742,1.746,0.979
			c0.384,0.237,0.604,0.373,0.604,0.373L215.831,348.131z"/>
	</g>
	<path fill="none" stroke="#1E120D" stroke-width="5" stroke-miterlimit="10" d="M216.462,198.312c0,0,8.01-44.68,22.741-57.202
		c14.732-12.521,22.833-10.68,20.994,13.259c-1.842,23.938,4.318,63.394,13.022,57.293"/>
</g>
<g>
	<path fill="none" stroke="#1C110B" stroke-width="5" stroke-miterlimit="10" d="M223.33,746.374
		c-6.194-15.579-14.567-41.351-14.8-67.271c-0.367-41.247-19.15-10.679-20.991,0.369c-1.842,11.049-8.472,41.617,2.946,72.185
		c11.417,30.568,15.603,48.511,8.973,68.767c-6.628,20.258-13.994,38.148-13.258,52.514c0.736,14.363,22.828,24.602,27.253,24.307
		c22.097-1.475,30.248-13.504,36.547-14.732s17.223,11.785,23.853,11.049c4.049-0.449,21.731-2.332,28.359-20.381
		c7.349-20.006-5.894-39.281-5.894-39.281s-15.467-29.707-2.455-53.523c12.498-22.875,35.89-61.533,11.583-95.415
		c0,0-5.921-11.636-11.706-7.585s1.104,9.576,0.367,19.52c-0.439,5.951-1.457,17.93-8.754,34.167"/>
	<g>
		<path fill="#1C110B" d="M217.751,787.74c0.035-3.669,0.26-7.31,0.473-10.952l0.392-5.452l0.476-5.439
			c0.322-3.625,0.733-7.236,1.124-10.852c0.457-3.605,0.863-7.218,1.361-10.816l1.435-10.804l1.525-10.79
			c0.507-3.598,1.086-7.185,1.626-10.777c0.572-3.592,1.027-7.178,1.545-10.768l1.55-10.765l0.78-5.383l0.365-2.721
			c0.135-0.92,0.261-1.844,0.415-2.754c0.594-3.65,1.317-7.302,2.4-10.909c1.139-3.578,2.44-7.239,5.152-10.434
			c1.349-1.559,3.313-2.975,5.64-3.344c2.32-0.387,4.544,0.236,6.384,1.118c3.647,1.887,6.374,4.609,8.889,7.38
			c2.483,2.807,4.756,5.751,6.834,8.796c1.091,1.496,2.052,3.06,3.084,4.587l2.922,4.674l0.035,0.056l0.051,0.106
			c0.941,1.958,1.767,3.856,2.59,5.803c0.819,1.937,1.592,3.89,2.335,5.853c1.479,3.93,2.843,7.901,4.086,11.914
			c0.627,2.004,1.21,4.022,1.773,6.047c0.554,2.027,1.045,4.072,1.53,6.118c0.458,2.052,0.921,4.104,1.312,6.173
			c0.406,2.064,0.726,4.147,1.054,6.227c0.303,2.085,0.588,4.172,0.807,6.27c0.137,1.044,0.203,2.098,0.281,3.149
			c0.068,1.053,0.18,2.101,0.212,3.156c0.102,2.107,0.207,4.214,0.163,6.327c0.011,1.055-0.023,2.109-0.067,3.165
			c-0.049,1.055-0.053,2.108-0.139,3.161c-0.156,2.106-0.354,4.206-0.647,6.297l-0.2,1.566l-0.283,1.558
			c-0.198,1.036-0.367,2.074-0.591,3.103c-0.462,2.057-0.967,4.097-1.598,6.101c-0.574,2.017-1.379,3.966-2.132,5.906
			c0.279-2.08,0.681-4.109,0.875-6.176c0.313-2.042,0.415-4.11,0.622-6.151c0.115-2.056,0.252-4.1,0.278-6.15
			c0.015-1.025,0.064-2.046,0.052-3.07l-0.042-3.068c0.01-1.021-0.063-2.045-0.09-3.065c-0.032-1.021-0.073-2.04-0.159-3.061
			l-0.205-3.057l-0.267-3.053c-0.203-2.033-0.437-4.063-0.715-6.088c-0.249-2.028-0.562-4.05-0.893-6.067
			c-0.356-2.015-0.702-4.031-1.134-6.033c-0.382-2.011-0.835-4.009-1.283-6.007c-0.471-1.994-0.966-3.982-1.487-5.966
			c-0.513-1.984-1.044-3.966-1.619-5.936c-1.14-3.941-2.397-7.852-3.771-11.72c-0.696-1.93-1.396-3.859-2.144-5.768
			c-0.741-1.898-1.522-3.829-2.331-5.637l0.086,0.162l-2.733-4.647c-0.963-1.51-1.864-3.072-2.877-4.542
			c-1.953-3.003-4.097-5.852-6.379-8.529c-2.288-2.643-4.871-5.089-7.699-6.569c-1.414-0.677-2.862-1.048-4.149-0.809
			c-1.286,0.215-2.472,1.014-3.48,2.188c-2.016,2.382-3.299,5.723-4.236,9.063c-0.924,3.381-1.583,6.883-2.027,10.425
			c-0.122,0.887-0.213,1.767-0.314,2.648l-0.275,2.693l-0.612,5.431l-1.236,10.863c-0.439,3.615-0.819,7.251-1.309,10.85
			c-0.478,3.604-0.917,7.215-1.427,10.814l-1.529,10.801l-1.625,10.787c-0.55,3.594-1.192,7.174-1.784,10.762
			c-0.658,3.578-1.295,7.158-2.021,10.727l-1.097,5.35l-1.19,5.335C219.616,780.669,218.779,784.219,217.751,787.74z"/>
	</g>
	<path fill="none" stroke="#1C110B" stroke-width="5" stroke-miterlimit="10" d="M202.362,806.543c0,0,21.405,13.359,43.502,12.256
		c22.097-1.105,40.763-9.617,42.847-14.385"/>
	<g>
		<path fill="#1C110B" d="M204.984,876.988c0,0,0.11,0.096,0.318,0.275c0.205,0.171,0.505,0.422,0.888,0.742
			c0.377,0.313,0.858,0.663,1.382,1.059c0.537,0.384,1.137,0.797,1.797,1.192c0.666,0.383,1.375,0.779,2.137,1.071
			c0.192,0.072,0.38,0.152,0.568,0.232c0.194,0.057,0.391,0.114,0.59,0.172c0.388,0.138,0.794,0.19,1.192,0.276
			c0.4,0.08,0.813,0.064,1.213,0.127c0.412-0.032,0.819-0.023,1.232-0.059l0.623-0.103l0.312-0.046l0.078-0.009
			c-0.249,0.052-0.062,0.012-0.114,0.022l0.013-0.003l0.025-0.006l0.05-0.013l0.201-0.05l1.609-0.399
			c1.153-0.208,1.973-0.572,2.924-0.814c0.919-0.252,1.906-0.659,2.84-0.935c1.875-0.676,3.687-1.322,5.32-1.825
			c0.832-0.239,1.562-0.47,2.283-0.603c0.71-0.137,1.303-0.262,1.834-0.288c1.052-0.059,1.62-0.019,1.62-0.019
			s-0.482,0.392-1.267,0.948c-0.394,0.266-0.839,0.708-1.366,1.107c-0.521,0.396-1.116,0.922-1.769,1.426
			c-0.65,0.507-1.398,1.07-2.185,1.628c-0.809,0.548-1.688,1.116-2.625,1.656c-0.48,0.265-0.98,0.511-1.485,0.765
			c-0.501,0.26-1.009,0.515-1.598,0.716c-1.121,0.429-2.363,0.899-3.392,1.104l-1.62,0.356l-0.202,0.045l-0.228,0.048l-0.127,0.013
			l-0.508,0.042l-1.009,0.071c-0.672,0.016-1.35-0.071-2.001-0.144c-0.643-0.159-1.294-0.261-1.88-0.507
			c-0.585-0.243-1.174-0.444-1.673-0.775c-0.255-0.151-0.507-0.301-0.756-0.448c-0.232-0.168-0.457-0.337-0.673-0.51
			c-0.879-0.671-1.562-1.433-2.137-2.149c-0.561-0.73-0.99-1.441-1.325-2.088c-0.329-0.65-0.552-1.244-0.721-1.73
			C205.042,877.583,204.984,876.988,204.984,876.988z"/>
	</g>
</g>
<g>
	<path fill="none" stroke="#1C110B" stroke-width="5" stroke-miterlimit="10" d="M193.501,466.282c0,0-6.999-51.56,22.834-61.135
		c29.83-9.577,26.149-21.361,51.929-19.889c25.778,1.473,41.058,30.937,40.417,53.402c-0.641,22.465-6.535,43.827-14.27,60.031
		s-20.625,27.922-36.091,26.114c-15.468-1.807-19.152-7.05-29.097-9.218c-9.944-2.167-21.124,4.464-31.186-9.9
		C187.976,491.325,191.659,468.124,193.501,466.282z"/>
	<g>
		<path fill="#1C110B" d="M207.127,480.275c1.399-1.532,2.853-2.997,4.303-4.466c1.476-1.437,2.932-2.898,4.434-4.303l0.007-0.006
			l0.186-0.124l3.774-2.504l3.792-2.464l3.783-2.453l1.899-1.209l1.832-1.237l3.76-2.504c0.632-0.415,1.234-0.833,1.974-1.243
			c0.703-0.404,1.428-0.846,2.116-1.179c0.697-0.35,1.387-0.729,2.089-1.055c0.703-0.326,1.396-0.683,2.107-0.985
			c0.709-0.309,1.416-0.624,2.132-0.915c0.717-0.302,1.42-0.584,2.173-0.876l0.589-0.229l0.601,0.082
			c1.927,0.261,3.911,0.469,5.87,0.693c1.966,0.209,3.931,0.406,5.892,0.573c0.984,0.101,1.961,0.16,2.938,0.223
			c0.972,0.05,1.968,0.164,2.925,0.161l2.901,0.064l2.797-0.148l0.314-0.033c1.197,0.093,2.394,0.173,3.591,0.275l3.591,0.342
			c1.196,0.103,2.394,0.267,3.59,0.396c1.197,0.136,2.394,0.302,3.591,0.48c-1.197,0.179-2.394,0.345-3.591,0.48
			c-1.196,0.13-2.394,0.294-3.59,0.396l-3.591,0.342c-1.197,0.103-2.394,0.183-3.591,0.275l0.313-0.033l-3.152,0.648l-3.097,0.303
			c-1.042,0.12-2.048,0.089-3.076,0.141c-1.025,0.042-2.049,0.06-3.062,0.03c-1.016-0.02-2.037-0.013-3.051-0.057l-3.038-0.146
			c-2.027-0.123-4.029-0.291-6.076-0.499l1.189-0.146c-0.652,0.261-1.347,0.549-2.018,0.84l-2.02,0.894l-2.001,0.92
			c-0.671,0.301-1.308,0.645-1.964,0.964c-0.672,0.324-1.243,0.659-1.864,0.98c-0.597,0.294-1.253,0.714-1.895,1.106l-3.897,2.335
			l-2.001,1.174l-2.011,1.076l-4.037,2.118c-2.71,1.366-5.447,2.671-8.209,3.938l0.192-0.13c-1.689,1.172-3.425,2.287-5.141,3.428
			C210.658,478.119,208.92,479.23,207.127,480.275z"/>
	</g>
	<g>
		<path fill="#1C110B" d="M214.479,473.687c0,0-0.033-0.087-0.094-0.249c-0.064-0.179-0.158-0.441-0.277-0.775
			c-0.115-0.342-0.279-0.771-0.397-1.222c-0.13-0.457-0.276-0.973-0.436-1.535c-0.147-0.563-0.271-1.177-0.419-1.82
			c-0.147-0.644-0.303-1.319-0.401-2.03c-0.112-0.704-0.228-1.432-0.346-2.172c-0.13-0.733-0.155-1.498-0.237-2.248
			c-0.067-0.749-0.135-1.499-0.201-2.237c-0.014-0.739-0.027-1.468-0.041-2.172c-0.011-0.7-0.022-1.377-0.032-2.019
			c-0.031-0.637,0.059-1.247,0.079-1.804c0.143-2.217,0.239-3.695,0.239-3.695s0.216,1.459,0.541,3.648
			c0.097,0.542,0.133,1.134,0.296,1.746c0.142,0.613,0.292,1.259,0.447,1.927c0.155,0.663,0.315,1.349,0.479,2.044
			c0.212,0.683,0.428,1.375,0.645,2.068c0.229,0.686,0.399,1.384,0.669,2.042c0.255,0.658,0.507,1.306,0.75,1.933
			c0.227,0.63,0.503,1.215,0.762,1.768c0.259,0.552,0.488,1.08,0.726,1.551c0.246,0.462,0.472,0.886,0.672,1.262
			c0.195,0.389,0.382,0.659,0.526,0.906c0.153,0.248,0.273,0.443,0.355,0.576c0.094,0.146,0.144,0.223,0.144,0.223L214.479,473.687z
			"/>
	</g>
	<g>
		<path fill="#1C110B" d="M220.642,471.757c0,0-0.009,0.14-0.026,0.401c-0.022,0.274-0.005,0.555-0.014,0.979
			c0.001,0.209-0.011,0.43-0.002,0.693c0.02,0.274,0.041,0.572,0.064,0.89c0.064,0.638,0.055,1.357,0.192,2.151
			c0.119,0.795,0.249,1.657,0.386,2.569c0.114,0.919,0.406,1.865,0.615,2.862c0.252,0.987,0.42,2.039,0.762,3.062
			c0.326,1.03,0.657,2.078,0.989,3.125c0.332,1.05,0.642,2.113,1.082,3.107c0.408,1.011,0.81,2.005,1.198,2.968
			c0.396,0.961,0.752,1.907,1.141,2.78c0.423,0.856,0.823,1.666,1.193,2.414c1.486,3.005,2.477,5.008,2.477,5.008
			s-1.262-1.849-3.156-4.622c-0.476-0.697-0.991-1.452-1.535-2.251c-0.512-0.818-1.001-1.713-1.536-2.624
			c-0.529-0.917-1.077-1.865-1.632-2.828c-0.589-0.95-1.056-1.981-1.546-3.006c-0.491-1.027-0.982-2.055-1.466-3.065
			c-0.5-1.008-0.831-2.071-1.239-3.067c-0.367-1.013-0.807-1.963-1.071-2.926c-0.285-0.958-0.555-1.865-0.803-2.702
			c-0.265-0.832-0.381-1.651-0.549-2.354c-0.075-0.354-0.146-0.687-0.211-0.994c-0.056-0.32-0.09-0.642-0.129-0.918
			c-0.068-0.55-0.138-1.033-0.152-1.281c-0.02-0.262-0.03-0.401-0.03-0.401L220.642,471.757z"/>
	</g>
	<g>
		<path fill="#1C110B" d="M237.355,459.835c0,0,0.18,0.271,0.496,0.747c0.157,0.249,0.375,0.559,0.568,0.897
			c0.2,0.339,0.425,0.723,0.67,1.141c0.252,0.413,0.478,0.883,0.74,1.366c0.249,0.49,0.544,0.985,0.786,1.533
			c0.251,0.539,0.511,1.096,0.775,1.661c0.274,0.558,0.503,1.149,0.736,1.736c0.232,0.584,0.465,1.168,0.694,1.742
			c0.233,0.57,0.394,1.164,0.584,1.718c0.181,0.556,0.355,1.094,0.521,1.604c0.178,0.502,0.291,0.999,0.401,1.452
			c0.441,1.802,0.734,3.003,0.734,3.003s-0.583-1.083-1.458-2.707c-0.217-0.403-0.442-0.842-0.739-1.279
			c-0.282-0.441-0.579-0.907-0.886-1.389c-0.315-0.475-0.602-0.983-0.961-1.462c-0.352-0.479-0.71-0.967-1.068-1.454
			c-0.356-0.486-0.704-0.973-1.093-1.422c-0.375-0.455-0.745-0.901-1.102-1.334c-0.346-0.439-0.735-0.82-1.072-1.202
			c-0.349-0.372-0.659-0.741-0.977-1.048c-0.311-0.311-0.596-0.596-0.849-0.849c-0.252-0.259-0.468-0.434-0.646-0.603
			c-0.378-0.34-0.594-0.534-0.594-0.534L237.355,459.835z"/>
	</g>
	<g>
		<path fill="#1C110B" d="M271.267,454.418c0,0,0.06,0.088,0.173,0.253c0.13,0.187,0.285,0.431,0.48,0.739
			c0.381,0.622,0.909,1.501,1.467,2.58c0.568,1.075,1.174,2.349,1.758,3.731c0.579,1.386,1.146,2.876,1.614,4.395
			c0.258,0.749,0.449,1.522,0.66,2.27c0.223,0.743,0.357,1.502,0.531,2.217c0.179,0.714,0.269,1.427,0.395,2.087
			c0.129,0.659,0.204,1.292,0.271,1.875c0.162,1.159,0.22,2.131,0.258,2.81c0.044,0.676,0.068,1.062,0.068,1.062
			s-0.102-0.374-0.28-1.027c-0.173-0.653-0.421-1.583-0.808-2.67c-0.18-0.547-0.375-1.137-0.629-1.745
			c-0.251-0.608-0.471-1.261-0.782-1.906c-0.306-0.647-0.574-1.329-0.929-1.989c-0.345-0.663-0.668-1.344-1.053-1.996
			c-0.726-1.322-1.533-2.593-2.322-3.75c-0.794-1.156-1.578-2.195-2.282-3.05c-0.695-0.862-1.314-1.531-1.741-1.988
			c-0.217-0.226-0.386-0.399-0.486-0.491c-0.117-0.113-0.18-0.174-0.18-0.174L271.267,454.418z"/>
	</g>
	<g>
		<path fill="#1C110B" d="M246.374,456.556c0,0-0.05-0.085-0.146-0.246c-0.089-0.145-0.258-0.463-0.449-0.811
			c-0.096-0.18-0.203-0.379-0.319-0.595c-0.093-0.205-0.194-0.427-0.302-0.664c-0.207-0.475-0.471-1.001-0.697-1.587
			c-0.219-0.586-0.456-1.22-0.707-1.89c-0.27-0.662-0.451-1.388-0.679-2.123c-0.212-0.74-0.461-1.493-0.656-2.271
			c-0.175-0.781-0.352-1.575-0.53-2.368c-0.163-0.794-0.385-1.571-0.479-2.363c-0.119-0.784-0.235-1.556-0.348-2.302
			c-0.111-0.743-0.219-1.46-0.321-2.141c-0.055-0.687-0.107-1.335-0.155-1.935c-0.188-2.38-0.313-3.967-0.313-3.967
			s0.432,1.528,1.081,3.82c0.161,0.569,0.336,1.185,0.521,1.837c0.23,0.638,0.473,1.311,0.724,2.006
			c0.25,0.691,0.507,1.406,0.77,2.132c0.236,0.732,0.599,1.433,0.901,2.15c0.314,0.71,0.628,1.42,0.938,2.12
			c0.326,0.688,0.698,1.34,1.028,1.98c0.344,0.632,0.639,1.264,1.002,1.808c0.343,0.553,0.667,1.076,0.965,1.559
			c0.301,0.477,0.617,0.873,0.873,1.244c0.131,0.182,0.253,0.353,0.366,0.51c0.112,0.133,0.214,0.255,0.307,0.366
			c0.193,0.227,0.303,0.376,0.441,0.525c0.124,0.139,0.19,0.213,0.19,0.213L246.374,456.556z"/>
	</g>
	<g>
		<path fill="#1C110B" d="M267.198,453.233c0,0,0.101-0.021,0.289-0.059c0.161-0.032,0.411-0.084,0.764-0.174
			c0.688-0.166,1.685-0.45,2.867-0.855c1.179-0.414,2.548-0.947,3.962-1.64c0.722-0.325,1.414-0.745,2.154-1.129
			c0.693-0.444,1.438-0.86,2.12-1.354c0.673-0.504,1.395-0.969,2.004-1.535c0.639-0.538,1.269-1.076,1.803-1.668
			c0.279-0.288,0.555-0.571,0.824-0.849c0.258-0.287,0.477-0.593,0.71-0.879c0.456-0.58,0.917-1.118,1.23-1.684
			c0.346-0.554,0.661-1.061,0.941-1.511c0.227-0.481,0.423-0.9,0.585-1.246c0.327-0.698,0.515-1.097,0.515-1.097
			s-0.113,0.425-0.313,1.17c-0.101,0.376-0.223,0.833-0.363,1.356c-0.201,0.505-0.429,1.075-0.676,1.696
			c-0.223,0.642-0.589,1.27-0.953,1.956c-0.188,0.339-0.363,0.702-0.577,1.05c-0.229,0.339-0.461,0.685-0.697,1.038
			c-0.455,0.727-1.01,1.409-1.586,2.101c-0.548,0.722-1.21,1.345-1.84,2.017c-0.639,0.662-1.344,1.245-2.014,1.86
			c-0.711,0.552-1.39,1.144-2.099,1.633c-1.395,1.022-2.775,1.87-3.987,2.556c-1.216,0.679-2.265,1.193-3.027,1.53
			c-0.37,0.169-0.694,0.303-0.926,0.393c-0.205,0.082-0.314,0.125-0.314,0.125L267.198,453.233z"/>
	</g>
	<g>
		<path fill="#1C110B" d="M265.32,453.842c-0.007,0.003,0.14-0.044,0.176-0.049c0.018-0.003,0.038-0.007,0.06-0.01
			c0.039-0.016,0.082-0.033,0.128-0.051c0.095-0.041,0.2-0.066,0.328-0.134c0.255-0.113,0.566-0.271,0.926-0.491
			c0.355-0.218,0.763-0.485,1.182-0.823c0.21-0.173,0.429-0.353,0.656-0.538c0.214-0.209,0.435-0.425,0.661-0.646
			c0.463-0.439,0.887-0.982,1.349-1.527c0.405-0.592,0.896-1.165,1.264-1.843c0.199-0.332,0.4-0.666,0.602-1.001
			c0.196-0.341,0.354-0.705,0.535-1.059l0.527-1.075c0.147-0.372,0.295-0.743,0.44-1.11c0.146-0.37,0.293-0.737,0.437-1.101
			c0.13-0.369,0.234-0.741,0.352-1.104c0.211-0.732,0.48-1.431,0.623-2.121c0.161-0.688,0.313-1.339,0.454-1.94
			c0.287-1.207,0.394-2.237,0.53-2.952c0.118-0.719,0.186-1.13,0.186-1.13s0.011,0.416,0.029,1.142
			c-0.001,0.727,0.088,1.775,0.031,3.03c-0.026,0.63-0.055,1.313-0.085,2.034c-0.014,0.728-0.148,1.481-0.224,2.274
			c-0.048,0.395-0.084,0.8-0.146,1.207c-0.077,0.405-0.155,0.814-0.234,1.228c-0.08,0.416-0.161,0.834-0.242,1.255l-0.342,1.25
			c-0.12,0.417-0.22,0.842-0.36,1.253c-0.15,0.411-0.301,0.82-0.449,1.226c-0.271,0.827-0.689,1.586-1.033,2.354
			c-0.409,0.736-0.792,1.468-1.248,2.114c-0.228,0.326-0.449,0.643-0.663,0.949c-0.242,0.293-0.476,0.575-0.699,0.847
			c-0.458,0.54-0.929,1.006-1.367,1.407s-0.857,0.731-1.225,0.992c-0.173,0.135-0.364,0.244-0.513,0.344
			c-0.077,0.049-0.149,0.094-0.215,0.136c-0.086,0.047-0.165,0.089-0.235,0.127c-0.24,0.124-0.368,0.19-0.368,0.19L265.32,453.842z"
			/>
	</g>
	<g>
		<path fill="#1C110B" d="M238.064,509.372c0,0,0.949-0.035,2.601,0.081c0.824,0.063,1.831,0.146,2.974,0.33
			c0.574,0.1,1.186,0.207,1.83,0.319c0.646,0.136,1.319,0.318,2.033,0.506c0.715,0.245,1.473,0.499,2.15,0.764
			c0.365,0.144,0.651,0.217,0.982,0.335c0.335,0.094,0.676,0.188,1.021,0.284c1.385,0.344,2.857,0.525,4.37,0.478
			s3.057-0.31,4.605-0.733c0.763-0.28,1.545-0.479,2.3-0.839l1.146-0.488l1.117-0.592c0.762-0.356,1.482-0.824,2.208-1.274
			c0.735-0.425,1.426-0.952,2.128-1.437c0.711-0.472,1.368-1.029,2.04-1.548c0.696-0.55,1.383-1.093,2.06-1.627
			c1.37-1.077,2.679-2.105,3.996-3.05c1.363-0.924,2.643-1.793,3.86-2.536c1.26-0.699,2.375-1.354,3.452-1.831
			c1.062-0.493,1.996-0.883,2.821-1.112c0.783-0.288,1.479-0.35,1.913-0.418c0.227-0.002,0.4-0.003,0.518-0.004
			c0.114,0.021,0.174,0.03,0.174,0.03s-0.057,0.016-0.166,0.045c-0.102,0.047-0.253,0.116-0.45,0.206
			c-0.38,0.222-0.913,0.533-1.549,1.033c-0.652,0.446-1.372,1.124-2.223,1.827c-0.43,0.34-0.853,0.77-1.306,1.202
			c-0.456,0.424-0.936,0.869-1.437,1.333c-0.973,0.95-2.026,1.979-3.141,3.067c-1.116,1.106-2.293,2.334-3.538,3.539
			c-0.301,0.294-0.604,0.591-0.909,0.89c-0.34,0.313-0.682,0.631-1.025,0.949c-0.688,0.639-1.373,1.297-2.159,1.869
			c-0.773,0.584-1.507,1.226-2.367,1.733c-0.833,0.536-1.659,1.089-2.57,1.535c-1.756,0.974-3.71,1.668-5.67,2.183
			c-1.991,0.454-4.035,0.623-5.993,0.465c-1.961-0.146-3.813-0.655-5.434-1.353c-0.397-0.19-0.789-0.378-1.175-0.562
			c-0.371-0.207-0.793-0.415-1.092-0.617c-0.651-0.428-1.228-0.736-1.768-1.085c-1.159-0.629-2.278-1.192-3.294-1.663
			c-1.03-0.461-1.928-0.862-2.668-1.193C238.924,509.751,238.064,509.372,238.064,509.372z"/>
	</g>
	<g>
		<path fill="#1C110B" d="M220.385,420.983c0,0,1.11-0.423,3.053-1.1c1.933-0.664,4.694-1.613,8.007-2.752
			c0.807-0.302,1.689-0.555,2.525-0.908c0.84-0.337,1.778-0.643,2.51-1.049l0.59-0.282l0.075-0.034l0.037-0.017
			c-0.029,0.015,0.091-0.047-0.06,0.032l0.02-0.013l0.161-0.104l0.324-0.21c0.46-0.284,0.761-0.557,1.154-0.834
			c0.834-0.626,1.686-1.266,2.552-1.916c1.768-1.311,3.622-2.664,5.595-3.936c0.973-0.65,1.99-1.271,3.007-1.891
			c1.043-0.588,2.072-1.204,3.146-1.76c1.078-0.548,2.151-1.101,3.271-1.582c1.091-0.524,2.238-0.942,3.374-1.359
			c1.118-0.449,2.321-0.726,3.461-1.068c0.594-0.123,1.185-0.245,1.771-0.367c0.587-0.12,1.164-0.241,1.77-0.276
			c0.596-0.054,1.187-0.106,1.771-0.159c0.58-0.066,1.188,0.007,1.769,0.016l0.87,0.037l0.43,0.02l0.139,0.011l0.049,0.008
			l0.096,0.015l0.191,0.03c0.509,0.083,1.012,0.164,1.508,0.245c0.471,0.06,1.056,0.236,1.572,0.36
			c0.522,0.148,1.062,0.238,1.532,0.442c0.479,0.181,0.95,0.359,1.412,0.534c0.455,0.191,0.889,0.424,1.313,0.636
			c1.678,0.897,3.085,1.959,4.109,3.101c1.05,1.113,1.746,2.245,2.224,3.198c0.471,0.964,0.689,1.772,0.827,2.313
			c0.124,0.549,0.14,0.847,0.14,0.847s-0.126-0.271-0.406-0.739c-0.28-0.47-0.751-1.117-1.39-1.872
			c-0.664-0.741-1.557-1.537-2.647-2.301c-1.09-0.771-2.473-1.382-3.996-1.882c-0.392-0.104-0.772-0.249-1.181-0.343
			c-0.412-0.083-0.831-0.166-1.258-0.251c-0.425-0.106-0.849-0.111-1.277-0.173c-0.443-0.041-0.819-0.126-1.353-0.124
			c-0.503-0.019-1.012-0.039-1.527-0.059l-0.193-0.008l-0.097-0.004l-0.049-0.002c0.031,0.003-0.104-0.008,0.064,0.006l-0.022,0.002
			l-0.349,0.028l-0.701,0.055c-0.471,0.055-0.936,0.028-1.42,0.129c-0.48,0.088-0.966,0.176-1.455,0.266
			c-0.488,0.063-0.979,0.227-1.476,0.357c-0.495,0.135-0.994,0.271-1.496,0.407c-0.497,0.178-0.997,0.357-1.5,0.537
			c-0.506,0.165-1.012,0.344-1.513,0.568c-1.009,0.41-2.017,0.841-3.022,1.328c-1.016,0.448-2.009,0.982-3.009,1.5
			c-2.003,1.037-3.971,2.175-5.905,3.329c-1.935,1.149-3.821,2.342-5.678,3.486c-0.932,0.574-1.834,1.147-2.785,1.703
			c-0.5,0.28-1.044,0.623-1.489,0.831l-0.344,0.173l-0.172,0.085l-0.021,0.011c-0.165,0.087-0.061,0.029-0.104,0.051l-0.052,0.018
			l-0.103,0.036c-0.275,0.092-0.548,0.184-0.819,0.275c-1.109,0.401-2.068,0.579-3.032,0.795c-0.962,0.225-1.869,0.347-2.752,0.501
			c-1.759,0.293-3.373,0.461-4.804,0.615c-1.428,0.161-2.681,0.243-3.711,0.309c-1.027,0.082-1.846,0.087-2.397,0.115
			C220.681,420.978,220.385,420.983,220.385,420.983z"/>
	</g>
</g>
</svg>
