<?xml version="1.0" encoding="utf-8"?>
<!-- Generator: Adobe Illustrator 16.0.0, SVG Export Plug-In . SVG Version: 6.00 Build 0)  -->
<!DOCTYPE svg PUBLIC "-//W3C//DTD SVG 1.1//EN" "http://www.w3.org/Graphics/SVG/1.1/DTD/svg11.dtd">
<svg version="1.1" id="Layer_2" xmlns="http://www.w3.org/2000/svg" xmlns:xlink="http://www.w3.org/1999/xlink" x="0px" y="0px"
	 width="500px" height="900px" viewBox="0 0 500 900" enable-background="new 0 0 500 900" xml:space="preserve">
<g>
	<path fill="none" stroke="#1E120D" stroke-width="5" stroke-miterlimit="10" d="M490.311,394.749c0,0-3.576-4.6-4.089-11.759
		c-0.513-7.157-2.045-108.394-24.543-161.058c0,0-12.782-29.656-23.008,5.624c-10.227,35.279-25.055,72.093-28.122,167.193
		c0,0-13.424,16.618,0,34.643c13.423,18.021,28.379,2.684,30.679,51.385c0,0,1.15,20.707,18.023,14.955
		C476.124,489.982,506.415,408.81,490.311,394.749z"/>
	<path fill="none" stroke="#1E120D" stroke-width="5" stroke-miterlimit="10" d="M488.401,391.425c0,0-9.593-4.982-19.946,10.74
		c-10.354,15.722-36.046,6.518-40.265,2.684c-4.218-3.834-7.288-9.844-17.641-10.1"/>
	<g>
		<path fill="#1E120D" d="M438.533,474.638c0,0,0.017-0.044,0.05-0.13c0.029-0.081,0.072-0.201,0.129-0.358
			c0.116-0.341,0.286-0.861,0.472-1.544c0.38-1.36,0.825-3.369,1.115-5.827c0.126-1.229,0.25-2.57,0.259-3.994
			c0.028-1.423-0.021-2.928-0.175-4.478c-0.123-1.556-0.415-3.143-0.743-4.753c-0.385-1.595-0.818-3.217-1.419-4.785
			c-0.558-1.584-1.274-3.112-2.036-4.59c-0.771-1.474-1.639-2.871-2.541-4.188c-0.922-1.3-1.863-2.531-2.838-3.633
			c-0.464-0.572-0.962-1.087-1.444-1.586c-0.488-0.493-0.926-1.007-1.41-1.433c-0.946-0.875-1.797-1.706-2.624-2.356
			c-0.812-0.669-1.506-1.274-2.127-1.708c-1.217-0.904-1.913-1.42-1.913-1.42s0.74,0.452,2.036,1.244
			c0.661,0.379,1.408,0.919,2.285,1.519c0.892,0.58,1.82,1.336,2.859,2.136c0.531,0.388,1.02,0.866,1.562,1.322
			c0.536,0.463,1.091,0.943,1.617,1.483c1.098,1.037,2.179,2.212,3.254,3.471c1.056,1.276,2.09,2.648,3.039,4.12
			c0.938,1.476,1.84,3.022,2.586,4.648c0.788,1.609,1.409,3.295,1.976,4.973c0.511,1.693,0.978,3.383,1.266,5.051
			c0.318,1.663,0.521,3.293,0.629,4.846c0.13,1.554,0.13,3.029,0.112,4.393c-0.073,2.728-0.363,4.999-0.656,6.593
			c-0.141,0.798-0.283,1.428-0.391,1.867c-0.06,0.232-0.106,0.41-0.138,0.529c-0.031,0.114-0.048,0.173-0.048,0.173L438.533,474.638
			z"/>
	</g>
</g>
<g>
	<path fill="none" stroke="#1E120D" stroke-width="5" stroke-miterlimit="10" d="M277.566,278.571
		c0,0-13.493-161.373-21.883-188.471c-8.387-27.099-15.034-13.804-17.591,0c-2.558,13.805-21.37,173.132-21.882,193.073
		c0,0-15.853,35.109-14.317,64.592c0,0-0.128,12.229,19.813,7.245c0,0,49.084,3.451,70.941-13.804c0,0,11.121-4.218,1.919-31.447
		C285.362,282.533,277.566,278.571,277.566,278.571z"/>
	<path fill="none" stroke="#1E120D" stroke-width="5" stroke-miterlimit="10" d="M277.566,278.571c0,0-35.79-38.092-61.355,4.602"/>
	<g>
		<path fill="#1E120D" d="M268.49,265.66c0,0-0.192-0.078-0.554-0.223c-0.357-0.139-0.883-0.343-1.551-0.603
			c-1.337-0.495-3.226-1.188-5.502-1.844c-2.266-0.679-4.913-1.325-7.737-1.758c-1.415-0.202-2.87-0.372-4.347-0.434
			c-1.476-0.09-2.967-0.048-4.452,0.035c-1.48,0.124-2.957,0.298-4.389,0.601c-0.72,0.137-1.429,0.3-2.123,0.495
			c-0.705,0.16-1.377,0.396-2.051,0.61c-0.683,0.188-1.319,0.47-1.963,0.707c-0.652,0.221-1.259,0.509-1.86,0.78
			c-0.608,0.258-1.197,0.523-1.747,0.822c-0.557,0.287-1.111,0.548-1.625,0.831c-1.008,0.598-1.996,1.087-2.802,1.63
			c-0.818,0.525-1.594,0.932-2.166,1.35c-1.182,0.793-1.915,1.221-1.915,1.221s0.407-0.72,1.221-1.934
			c0.392-0.622,0.949-1.305,1.596-2.098c0.626-0.816,1.466-1.604,2.361-2.511c0.951-0.833,1.982-1.77,3.213-2.581
			c0.599-0.432,1.234-0.845,1.917-1.221c0.67-0.397,1.37-0.782,2.115-1.109c0.733-0.355,1.494-0.686,2.292-0.953
			c0.396-0.143,0.795-0.286,1.196-0.43c0.412-0.11,0.825-0.221,1.241-0.332c1.659-0.471,3.402-0.694,5.142-0.863
			c1.744-0.073,3.496-0.095,5.192,0.125c1.701,0.165,3.343,0.518,4.895,0.941c3.103,0.87,5.815,2.131,7.972,3.444
			c1.087,0.643,2.023,1.325,2.836,1.94c0.818,0.606,1.479,1.207,2.016,1.7C267.979,264.992,268.49,265.66,268.49,265.66z"/>
	</g>
</g>
<g>
	<g>
		<path fill="none" stroke="#1E120D" stroke-width="5" stroke-miterlimit="10" d="M88.259,393.546c0,0-1.918-71.595-11.121-101.762
			c-9.205-30.167-18.023-66.213-19.558-72.348c-1.533-6.136-12.652-21.859-24.157,7.285
			c-11.505,29.145-20.71,121.561-21.092,155.689c0,0-0.589,4.349-1.335,6.466c-1.433,4.066-4.286,6.859-5.854,9.209
			c-2.576,3.853-3.934,20.371,6.422,44.913c10.354,24.544,21.858,67.875,40.648,50.236c0,0,6.136-3.836,4.601-21.09
			c-1.533-17.256,14.572-33.364,23.01-36.815C88.259,431.878,103.597,413.501,88.259,393.546z"/>
		<path fill="none" stroke="#1E120D" stroke-width="5" stroke-miterlimit="10" d="M88.259,393.546c0,0-5.753-0.014-11.121,5.737
			c-5.368,5.753-12.655,15.045-24.542,14.616c-11.89-0.428-20.324-18.805-34.514-20.354c0,0-5.112-1.292-11.833,3.027"/>
	</g>
	<g>
		<path fill="#1E120D" d="M56.059,459.765c0,0,0.007-0.177,0.021-0.508c0.015-0.406,0.07-0.804,0.152-1.388
			c0.087-0.561,0.213-1.228,0.4-1.966c0.179-0.743,0.424-1.558,0.722-2.428c0.305-0.868,0.657-1.793,1.096-2.732
			c0.392-0.964,0.948-1.901,1.451-2.9c0.584-0.953,1.144-1.96,1.811-2.912c0.678-0.945,1.313-1.935,2.075-2.828
			c0.734-0.913,1.451-1.833,2.248-2.658c0.78-0.838,1.511-1.691,2.315-2.422c0.788-0.746,1.523-1.489,2.262-2.147
			c0.753-0.64,1.465-1.245,2.123-1.804c0.644-0.57,1.269-1.051,1.833-1.464c0.557-0.42,1.043-0.786,1.443-1.086
			c0.797-0.601,1.253-0.944,1.253-0.944s-0.405,0.403-1.114,1.107c-0.354,0.351-0.783,0.778-1.275,1.267
			c-0.499,0.481-1.046,1.039-1.603,1.686c-0.567,0.634-1.181,1.32-1.83,2.046c-0.631,0.74-1.247,1.562-1.907,2.385
			c-0.678,0.81-1.268,1.73-1.902,2.632c-0.652,0.89-1.212,1.859-1.784,2.813c-0.602,0.936-1.066,1.947-1.573,2.906
			c-0.497,0.964-0.878,1.96-1.291,2.895c-0.327,0.968-0.716,1.875-0.939,2.773c-0.275,0.884-0.467,1.729-0.626,2.506
			c-0.151,0.776-0.262,1.491-0.323,2.114c-0.069,0.627-0.094,1.16-0.101,1.593c0,0.408,0.004,0.794,0.026,0.922
			c0.02,0.202,0.03,0.311,0.03,0.311L56.059,459.765z"/>
	</g>
</g>
<g>
	<path fill="none" stroke="#1E120D" stroke-width="5" stroke-miterlimit="10" d="M305.351,445.669
		c0.268-19.172-15.246-43.204-54.664-42.182c-39.413,1.024-56.541,32.467-56.03,44.74c0.511,12.269,3.579,7.156,10.737,15.848
		c7.156,8.692,26.063,32.469,44.603,32.469S305.096,464.075,305.351,445.669z"/>
	<g>
		<path fill="#1E120D" d="M289.756,462.693c0,0-1.183-0.606-3.358-1.261c-0.532-0.187-1.145-0.338-1.808-0.502
			c-0.662-0.163-1.36-0.376-2.14-0.518c-0.773-0.153-1.577-0.354-2.448-0.493c-0.875-0.13-1.781-0.301-2.729-0.46
			c-0.945-0.167-1.957-0.241-2.985-0.373c-1.029-0.124-2.087-0.279-3.194-0.339c-1.099-0.096-2.227-0.194-3.38-0.295
			c-1.159-0.06-2.342-0.119-3.546-0.181c-2.397-0.176-4.897-0.154-7.427-0.23c-0.633-0.013-1.267-0.042-1.905-0.041
			c-0.639,0.008-1.279,0.017-1.921,0.025c-1.284,0.009-2.573,0.018-3.862,0.026c-1.288-0.025-2.579,0.031-3.865,0.082
			c-1.287,0.037-2.568,0.075-3.839,0.111c-2.544,0.026-5.049,0.23-7.478,0.318c-2.429,0.102-4.783,0.173-7.012,0.345
			c-2.23,0.14-4.348,0.226-6.306,0.301c-0.98,0.025-1.915,0.096-2.807,0.154c-0.893,0.048-1.74,0.094-2.536,0.137
			c-1.592,0.099-2.989,0.134-4.14,0.173c-2.302,0.072-3.631,0.057-3.631,0.057s1.254-0.414,3.474-1.038
			c1.111-0.309,2.458-0.697,4.016-1.084c1.559-0.383,3.305-0.903,5.248-1.244c1.936-0.389,4.037-0.806,6.269-1.197
			c1.116-0.194,2.26-0.412,3.439-0.57c1.181-0.147,2.388-0.298,3.615-0.451c1.229-0.141,2.479-0.283,3.745-0.429
			c1.264-0.164,2.552-0.246,3.852-0.314c2.601-0.139,5.236-0.35,7.889-0.348c1.326,0.006,2.651,0.012,3.972,0.018
			c1.32-0.012,2.636,0.035,3.942,0.13c2.612,0.163,5.18,0.295,7.657,0.666c1.238,0.17,2.456,0.297,3.643,0.5
			c1.183,0.229,2.339,0.455,3.466,0.674c1.124,0.21,2.211,0.479,3.253,0.774c1.041,0.301,2.053,0.536,3.006,0.861
			c0.952,0.324,1.867,0.617,2.725,0.929c0.856,0.316,1.65,0.689,2.401,1c0.751,0.306,1.439,0.644,2.062,0.981
			c0.626,0.326,1.197,0.624,1.692,0.943c1.014,0.582,1.741,1.154,2.237,1.528C289.531,462.458,289.756,462.693,289.756,462.693z"/>
	</g>
</g>
<g>
	<path fill="none" stroke="#1E120D" stroke-width="5" stroke-miterlimit="10" d="M280.515,811.916
		c0,0-18.364-146.736-23.476-168.722c-5.112-21.985-14.827-48.063-23.519,0c-8.695,48.063-12.315,150.827-14.36,164.12
		c-2.046,13.293-16.362,37.58-18.28,53.303c-1.917,15.723-7.284,32.979,35.664,35.279c42.946,2.301,66.341,6.904,63.656-15.722
		S290.359,828.788,280.515,811.916z"/>
	<path fill="none" stroke="#1E120D" stroke-width="5" stroke-miterlimit="10" d="M280.515,811.916c0,0-23.98-43.516-61.968-1.626"/>
	<g>
		<path fill="#1E120D" d="M287.162,880.175c0,0-0.764-1.604-2.099-4.412c-1.346-2.794-3.262-6.787-5.728-11.432
			c-1.246-2.312-2.649-4.785-4.247-7.251c-0.808-1.223-1.676-2.446-2.632-3.552c-0.936-1.083-2.058-2.12-2.921-2.451
			c-0.113-0.07-0.189-0.055-0.267-0.073c-0.078-0.021-0.157-0.051-0.191-0.019c-0.025,0.021-0.127-0.022-0.091,0.002l-0.619,0.121
			c-0.199,0.041-0.431,0.077-0.605,0.123l-0.364,0.153l-0.373,0.134l-0.429,0.228c-1.148,0.594-2.243,1.585-3.476,2.778
			c-1.23,1.18-2.607,2.586-4.398,3.697c-1.772,1.131-3.913,1.854-5.978,2.078c-0.523,0.09-1.036,0.11-1.544,0.107l-0.764,0.01
			l-0.382,0.003l-0.096,0.001h-0.047l-0.219-0.017l-0.165-0.019l-1.317-0.145c-0.114-0.015-0.209-0.019-0.339-0.043l-0.433-0.1
			l-0.862-0.216c-2.235-0.605-4.099-1.852-5.551-3.3c-1.45-1.435-2.482-2.954-3.464-4.224c-0.982-1.277-1.92-2.293-2.968-2.909
			c-0.267-0.15-0.548-0.259-0.817-0.402c-0.267-0.148-0.59-0.174-0.879-0.277c-0.287-0.111-0.611-0.143-0.937-0.169l-0.483-0.063
			l-0.242-0.034l-0.03-0.004c0.042-0.003-0.137,0,0.086-0.008l-0.075,0.001l-0.15,0.003l-0.598,0.008
			c-0.159,0.013-0.239,0.036-0.364,0.046c-0.211-0.003-0.528,0.11-0.789,0.164c-0.535,0.173-1.051,0.435-1.547,0.767
			c-1.97,1.426-3.449,3.866-4.651,6.115c-1.188,2.294-2.202,4.517-3.158,6.466c-0.934,1.962-1.847,3.647-2.667,4.991
			c-0.814,1.35-1.577,2.333-2.123,2.972c-0.26,0.328-0.5,0.549-0.644,0.709c-0.149,0.156-0.226,0.236-0.226,0.236
			s0.238-0.38,0.632-1.108c0.408-0.72,0.903-1.827,1.469-3.251c0.559-1.43,1.124-3.207,1.78-5.256
			c0.65-2.054,1.322-4.402,2.323-6.948c1.024-2.511,2.173-5.433,4.978-7.877c0.718-0.584,1.542-1.107,2.467-1.494
			c0.485-0.165,0.906-0.352,1.481-0.45c0.265-0.052,0.572-0.113,0.808-0.145l0.595-0.058l0.149-0.015l0.075-0.007l0.161-0.003
			l0.044,0.002l0.357,0.011l0.721,0.027c0.481,0.018,0.966,0.046,1.463,0.178c0.491,0.123,1.001,0.178,1.482,0.379
			c0.48,0.195,0.978,0.376,1.444,0.608c1.9,0.965,3.31,2.483,4.462,3.85c1.164,1.382,2.149,2.693,3.208,3.686
			c0.532,0.491,1.067,0.926,1.645,1.24c0.271,0.197,0.582,0.308,0.884,0.433l0.449,0.2c0.146,0.048,0.285,0.067,0.426,0.107
			l0.418,0.118l0.208,0.066c0.085,0.019,0.213,0.024,0.317,0.037l1.318,0.134l0.165,0.018c-0.065-0.005,0.205,0.016-0.136-0.01
			l0.035-0.001l0.07-0.002l0.281-0.008l0.562-0.014l0.563-0.009c0.183-0.015,0.358-0.052,0.538-0.072
			c1.45-0.15,2.755-0.576,3.971-1.328c1.22-0.748,2.388-1.803,3.686-3.011c1.291-1.192,2.81-2.542,4.747-3.443l0.722-0.329
			c0.269-0.098,0.558-0.183,0.837-0.269l0.844-0.239c0.236-0.048,0.425-0.067,0.64-0.103l0.624-0.093
			c0.447-0.089,0.771-0.029,1.161-0.022c0.39,0.007,0.713,0.096,1.034,0.193c0.323,0.095,0.66,0.191,0.906,0.336l0.79,0.416
			l0.654,0.469c0.459,0.31,0.763,0.657,1.142,0.986c0.34,0.339,0.639,0.683,0.95,1.025c0.274,0.352,0.547,0.701,0.818,1.049
			c1.022,1.403,1.852,2.813,2.611,4.195c1.522,2.76,2.656,5.459,3.649,7.96c1.006,2.495,1.791,4.825,2.457,6.895
			c0.681,2.064,1.188,3.891,1.604,5.393C286.811,878.426,287.162,880.175,287.162,880.175z"/>
	</g>
</g>
</svg>
