<?xml version="1.0" encoding="utf-8"?>
<!-- Generator: Adobe Illustrator 16.0.0, SVG Export Plug-In . SVG Version: 6.00 Build 0)  -->
<!DOCTYPE svg PUBLIC "-//W3C//DTD SVG 1.1//EN" "http://www.w3.org/Graphics/SVG/1.1/DTD/svg11.dtd">
<svg version="1.1" id="Layer_2" xmlns="http://www.w3.org/2000/svg" xmlns:xlink="http://www.w3.org/1999/xlink" x="0px" y="0px"
	 width="500px" height="900px" viewBox="0 0 500 900" enable-background="new 0 0 500 900" xml:space="preserve">
<g>
	<path fill="none" stroke="#1E120D" stroke-width="5" stroke-miterlimit="10" d="M486.93,403.38
		c-4.288-15.919-2.449-105.933-18.37-146.958c-15.922-41.026-17.146-49.599-30.617-45.925s-6.123,30.619-9.797,46.539
		c-3.674,15.919-18.981,115.728-16.532,146.344c0,0-24.033,16.993-5.664,38.577c18.37,21.585,25.719,38.578,28.014,46.843
		c2.297,8.266,12.4,17.451,31.688-2.756c19.288-20.206,38.838-59.563,28.474-71.643C487.603,406.801,486.93,403.38,486.93,403.38z"
		/>
	<path fill="none" stroke="#1E120D" stroke-width="5" stroke-miterlimit="10" d="M489.775,408.783c0,0-5.753-3.054-12.642,0.824
		c-6.89,3.876-18.947,17.653-28.992,14.898c-10.044-2.756-29.486-22.044-36.527-21.126"/>
	<g>
		<path fill="#1E120D" d="M433.881,494.156c0,0-0.161-0.973-0.442-2.676c-0.296-1.711-0.74-4.157-1.328-7.084
			c-1.176-5.853-2.942-13.631-5.248-21.254c-0.574-1.906-1.193-3.796-1.828-5.65c-0.651-1.846-1.321-3.652-2.028-5.377
			c-0.711-1.722-1.436-3.373-2.202-4.897c-0.38-0.765-0.752-1.508-1.154-2.201c-0.383-0.708-0.772-1.377-1.18-2
			c-0.384-0.64-0.786-1.228-1.191-1.771c-0.199-0.275-0.393-0.543-0.582-0.804c-0.206-0.246-0.406-0.484-0.601-0.716
			c-0.194-0.232-0.383-0.457-0.564-0.673c-0.2-0.199-0.394-0.391-0.578-0.575c-0.375-0.365-0.703-0.724-1.06-0.974
			c-0.343-0.27-0.649-0.511-0.915-0.72c-0.292-0.171-0.541-0.317-0.742-0.436c-0.406-0.237-0.623-0.363-0.623-0.363
			s0.226,0.109,0.648,0.313c0.213,0.103,0.475,0.231,0.782,0.381c0.285,0.19,0.613,0.409,0.979,0.654
			c0.384,0.228,0.741,0.562,1.151,0.903c0.203,0.173,0.415,0.354,0.635,0.541c0.202,0.206,0.411,0.418,0.627,0.638
			c0.216,0.221,0.439,0.448,0.669,0.683c0.213,0.25,0.431,0.506,0.655,0.77c0.457,0.522,0.913,1.089,1.353,1.708
			c0.465,0.603,0.915,1.253,1.359,1.94c0.466,0.675,0.902,1.399,1.349,2.146c0.9,1.489,1.766,3.106,2.624,4.797
			c0.854,1.693,1.676,3.471,2.482,5.291c0.788,1.825,1.565,3.691,2.297,5.574c2.935,7.53,5.334,15.25,6.985,21.079
			c0.827,2.915,1.471,5.359,1.908,7.077c0.427,1.731,0.671,2.721,0.671,2.721L433.881,494.156z"/>
	</g>
</g>
<g>
	<path fill="none" stroke="#1E120D" stroke-width="5" stroke-miterlimit="10" d="M283.834,274.2c0,0-6.734-94.912-11.021-120.629
		c-4.289-25.718-4.901-61.844-4.289-74.091c0.613-12.248-14.083-27.557-25.718-3.062c-11.633,24.493-15.92,142.062-17.145,160.431
		c-1.225,18.37-4.287,40.414-4.896,42.251c0,0-14.693,23.269-14.082,33.983c0.61,10.715,25.104,30.006,36.433,35.821
		c11.328,5.816,14.39,11.328,36.127-4.287C300.981,329.002,310.47,312.165,283.834,274.2z"/>
	<path fill="none" stroke="#1E120D" stroke-width="5" stroke-miterlimit="10" d="M283.834,274.2c0,0-16.558-16.839-30.475-15.308
		c-13.918,1.53-23.719,10.717-32.594,20.207"/>
	<g>
		<path fill="#1E120D" d="M277.1,260.728c0,0-0.189-0.08-0.546-0.23c-0.353-0.143-0.87-0.353-1.529-0.62
			c-1.318-0.511-3.182-1.223-5.429-1.905c-2.235-0.705-4.852-1.375-7.644-1.844c-1.4-0.213-2.84-0.407-4.302-0.486
			c-1.462-0.105-2.941-0.092-4.414-0.025c-1.47,0.098-2.938,0.247-4.363,0.524c-0.717,0.12-1.421,0.278-2.115,0.453
			c-0.703,0.145-1.373,0.373-2.046,0.566c-0.682,0.171-1.317,0.444-1.962,0.661c-0.652,0.204-1.258,0.481-1.863,0.733
			c-0.61,0.24-1.198,0.493-1.751,0.776c-0.56,0.271-1.116,0.514-1.632,0.785c-1.016,0.566-2.007,1.028-2.822,1.544
			c-0.826,0.498-1.605,0.882-2.185,1.279c-1.194,0.754-1.933,1.157-1.933,1.157s0.422-0.704,1.259-1.888
			c0.404-0.606,0.972-1.271,1.633-2.042c0.641-0.793,1.49-1.557,2.399-2.433c0.96-0.805,2.003-1.711,3.24-2.488
			c0.604-0.412,1.24-0.813,1.924-1.171c0.674-0.377,1.372-0.75,2.117-1.059c0.735-0.333,1.492-0.654,2.288-0.902
			c0.396-0.134,0.793-0.269,1.193-0.404c0.41-0.103,0.821-0.206,1.234-0.309c1.651-0.441,3.384-0.635,5.11-0.774
			c1.73-0.054,3.468-0.043,5.146,0.195c1.686,0.184,3.309,0.563,4.843,1c3.064,0.91,5.74,2.197,7.858,3.535
			c1.068,0.654,1.986,1.347,2.782,1.97c0.801,0.616,1.447,1.222,1.971,1.721C276.607,260.055,277.1,260.728,277.1,260.728z"/>
	</g>
</g>
<g>
	<path fill="none" stroke="#1E120D" stroke-width="5" stroke-miterlimit="10" d="M16.434,403.379
		c4.285-15.919,2.445-105.933,18.369-146.958c15.919-41.026,17.145-49.599,30.615-45.925c13.473,3.674,6.123,30.619,9.799,46.539
		c3.674,15.919,18.98,115.728,16.533,146.344c0,0,24.032,16.993,5.66,38.577c-18.368,21.585-25.715,38.578-28.014,46.844
		c-2.294,8.266-12.396,17.451-31.686-2.756S-1.129,426.479,9.235,414.4C15.761,406.8,16.434,403.379,16.434,403.379z"/>
	<path fill="none" stroke="#1E120D" stroke-width="5" stroke-miterlimit="10" d="M13.589,408.782c0,0,5.753-3.054,12.641,0.824
		c6.888,3.876,18.947,17.653,28.99,14.898c10.046-2.756,29.486-22.044,36.53-21.126"/>
	<g>
		<path fill="#1E120D" d="M64.572,493.201c0,0,0.244-0.989,0.671-2.721c0.438-1.719,1.081-4.162,1.908-7.078
			c1.652-5.829,4.051-13.548,6.987-21.078c0.731-1.884,1.509-3.75,2.297-5.575c0.807-1.82,1.628-3.598,2.482-5.291
			c0.859-1.691,1.724-3.308,2.625-4.797c0.446-0.747,0.882-1.47,1.349-2.146c0.444-0.688,0.894-1.337,1.359-1.94
			c0.44-0.619,0.896-1.186,1.354-1.708c0.224-0.264,0.442-0.52,0.654-0.77c0.23-0.234,0.454-0.462,0.67-0.683
			c0.216-0.22,0.425-0.433,0.626-0.638c0.22-0.187,0.432-0.368,0.635-0.541c0.41-0.342,0.768-0.676,1.151-0.903
			c0.367-0.245,0.694-0.463,0.979-0.654c0.308-0.15,0.57-0.278,0.782-0.381c0.423-0.204,0.649-0.313,0.649-0.313
			s-0.217,0.126-0.623,0.363c-0.202,0.118-0.45,0.264-0.742,0.436c-0.266,0.209-0.572,0.45-0.915,0.72
			c-0.356,0.25-0.685,0.609-1.06,0.974c-0.185,0.185-0.378,0.376-0.578,0.575c-0.182,0.217-0.37,0.441-0.565,0.673
			c-0.194,0.231-0.395,0.47-0.601,0.716c-0.188,0.261-0.382,0.528-0.582,0.803c-0.406,0.543-0.808,1.131-1.191,1.771
			c-0.407,0.623-0.797,1.292-1.179,2c-0.403,0.693-0.775,1.437-1.155,2.201c-0.767,1.524-1.491,3.175-2.203,4.897
			c-0.707,1.725-1.377,3.531-2.028,5.378c-0.634,1.854-1.254,3.744-1.828,5.649c-2.306,7.623-4.073,15.402-5.249,21.255
			c-0.588,2.927-1.032,5.373-1.329,7.084c-0.282,1.703-0.442,2.676-0.442,2.676L64.572,493.201z"/>
	</g>
</g>
<g>
	<path fill="none" stroke="#1E120D" stroke-width="5" stroke-miterlimit="10" d="M299.983,451.845
		c0-8.738-20.665-49.139-46.385-50.058c-25.715-0.918-45.924,35.362-46.84,50.058c-0.92,14.695,27.414,46.29,46.61,46.384
		C276.407,498.34,299.983,465.163,299.983,451.845z"/>
	<g>
		<path fill="#1E120D" d="M287.124,462.407c0,0,0.08-0.302,0.159-0.866c0.073-0.544,0.161-1.443-0.146-2.286
			c-0.166-0.415-0.465-0.682-0.889-0.774c-0.119-0.011-0.218-0.046-0.346-0.049c-0.131-0.001-0.263-0.001-0.397-0.002
			c-0.343,0.017-0.697,0.034-1.064,0.053c-1.483,0.084-3.157,0.18-4.983,0.283c-1.82,0.105-3.792,0.22-5.878,0.34
			c-2.077,0.109-4.268,0.254-6.449,0.46c-0.571,0.03-1.032,0.151-1.558,0.21l-0.383,0.053l-0.097,0.013l-0.048,0.007l-0.024,0.003
			c0.04-0.008-0.123,0.022,0.084-0.017l-0.213,0.052l-0.855,0.21c-0.327,0.066-0.47,0.151-0.675,0.223
			c-0.192,0.07-0.386,0.134-0.632,0.254l-0.748,0.334c-0.284,0.129-0.537,0.255-0.899,0.394c-0.651,0.285-1.417,0.501-2.142,0.667
			c-0.717,0.126-1.456,0.259-2.122,0.27l-1.027,0.057l-0.063,0.004h-0.163l-0.114-0.003l-0.229-0.005l-0.457-0.01l-0.915-0.02
			c-0.332-0.021-0.71-0.064-1.063-0.098c-0.356-0.04-0.723-0.076-1.069-0.131l-1.009-0.196c-0.676-0.112-1.332-0.327-1.992-0.501
			c-1.306-0.407-2.57-0.938-3.75-1.563l-0.433-0.238l-0.216-0.119l-0.108-0.061l-0.027-0.015c-0.275-0.129,0.345,0.159,0.271,0.126
			l-0.053-0.019l-0.421-0.152c-0.076-0.008-0.106,0.008-0.159,0c-0.058-0.005-0.064-0.017-0.165-0.034l-0.392-0.054
			c-0.263-0.034-0.513-0.077-0.798-0.099c-1.099-0.114-2.233-0.184-3.353-0.256c-2.261-0.111-4.447-0.218-6.52-0.319
			c-2.089-0.096-4.063-0.186-5.886-0.269c-1.827-0.08-3.502-0.153-4.986-0.218c-0.701-0.026-1.358-0.05-1.964-0.071
			c-0.512,0.041-0.813,0.206-0.935,0.477c-0.111,0.312-0.015,0.772,0.124,1.129c0.12,0.375,0.313,0.672,0.436,0.928
			c0.302,0.49,0.463,0.752,0.463,0.752s-0.239-0.199-0.688-0.572c-0.199-0.216-0.481-0.45-0.74-0.817
			c-0.262-0.351-0.593-0.816-0.576-1.581c0.037-0.381,0.221-0.799,0.528-1.095c0.303-0.299,0.661-0.488,1.044-0.627
			c0.46-0.154,0.757-0.166,1.107-0.241c0.347-0.061,0.706-0.124,1.077-0.189c1.483-0.262,3.159-0.524,4.993-0.742
			c1.833-0.229,3.822-0.46,5.933-0.627c2.112-0.164,4.342-0.304,6.677-0.351c1.168-0.034,2.36-0.024,3.611,0.027
			c0.304,0.005,0.64,0.036,0.966,0.06l0.493,0.038c0.194,0.02,0.479,0.068,0.715,0.111c0.24,0.047,0.506,0.104,0.721,0.16
			l0.427,0.138l0.053,0.017l0.345,0.16l0.09,0.046l0.181,0.092l0.363,0.183c0.961,0.471,1.961,0.819,2.975,1.138
			c0.517,0.124,1.024,0.293,1.554,0.368l0.788,0.146l0.749,0.083c0.254,0.027,0.482,0.067,0.758,0.091l0.914,0.03l0.801,0.024
			l0.796-0.037c0.553-0.003,1.01-0.09,1.49-0.142c0.454-0.094,0.862-0.177,1.319-0.358c0.457-0.155,1.002-0.419,1.663-0.658
			c0.58-0.225,1.522-0.492,2.075-0.598l0.867-0.157l0.216-0.04c0.225-0.042,0.079-0.013,0.138-0.023l0.03-0.002l0.061-0.006
			l0.121-0.01l0.485-0.041c0.632-0.042,1.313-0.119,1.887-0.104c2.39-0.039,4.625,0.059,6.743,0.204
			c2.12,0.129,4.108,0.346,5.944,0.553c1.829,0.188,3.528,0.436,5.002,0.672c0.376,0.062,0.74,0.12,1.091,0.177
			c0.209,0.051,0.414,0.1,0.615,0.147c0.199,0.062,0.4,0.174,0.586,0.261c0.781,0.41,1.212,1.232,1.262,1.856
			c0.116,1.271-0.326,2.062-0.541,2.601C287.306,462.154,287.124,462.407,287.124,462.407z"/>
	</g>
	<g>
		<path fill="#1E120D" d="M261.406,459.51c1.181,1.216,2.085,2.548,2.934,3.914c0.422,0.686,0.798,1.384,1.151,2.091
			c0.352,0.707,0.684,1.423,0.996,2.145c0.302,0.727,0.615,1.449,0.874,2.189c0.259,0.741,0.481,1.494,0.702,2.247
			c0.216,0.755,0.414,1.515,0.598,2.278c0.179,0.765,0.347,1.532,0.486,2.306l-1.554-1.626c-0.167-0.039-0.065,0-0.061,0.004
			c0.019,0.014,0.071,0.024,0.109,0.041c0.089,0.024,0.19,0.055,0.306,0.062c0.223,0.031,0.48,0.02,0.755,0.008
			c0.272-0.038,0.563-0.093,0.868-0.174c0.152-0.04,0.299-0.111,0.459-0.159c0.162-0.042,0.315-0.122,0.475-0.193
			c0.156-0.077,0.327-0.134,0.484-0.228l0.49-0.267c0.336-0.181,0.649-0.409,1.003-0.613c0.317-0.241,0.68-0.46,1.023-0.71
			c0.325-0.264,0.688-0.514,1.066-0.771c-0.055,0.441-0.124,0.891-0.231,1.326c-0.12,0.429-0.256,0.864-0.419,1.292
			c-0.089,0.21-0.189,0.416-0.293,0.622c-0.109,0.203-0.195,0.424-0.33,0.617c-0.261,0.39-0.508,0.806-0.848,1.164
			c-0.309,0.383-0.689,0.726-1.091,1.052l-0.647,0.462c-0.237,0.132-0.478,0.263-0.726,0.386c-0.512,0.228-1.054,0.429-1.652,0.519
			c-0.294,0.057-0.604,0.081-0.926,0.093c-0.167-0.001-0.321,0.008-0.505-0.015c-0.199-0.022-0.301-0.02-0.666-0.112l-1.024-0.26
			l-0.529-1.366c-0.277-0.719-0.526-1.443-0.765-2.17c-0.233-0.729-0.452-1.46-0.653-2.197c-0.196-0.738-0.391-1.478-0.549-2.228
			c-0.198-0.74-0.355-1.493-0.517-2.245c-0.152-0.756-0.285-1.518-0.398-2.288l-0.286-2.328c-0.073-0.784-0.14-1.573-0.156-2.385
			c-0.019-0.401,0.005-0.818-0.007-1.228C261.35,460.353,261.37,459.934,261.406,459.51z"/>
	</g>
	<g>
		<path fill="#1E120D" d="M245.333,457.22c0.172,1.844,0.127,3.627,0.022,5.383c-0.058,0.878-0.142,1.747-0.243,2.611
			c-0.111,0.862-0.202,1.726-0.342,2.577c-0.119,0.856-0.287,1.699-0.439,2.546l-0.536,2.512c-0.315,1.647-0.724,3.271-1.175,4.896
			l-0.07,0.296c-0.072,0.209-0.115,0.289-0.165,0.402c-0.05,0.113-0.102,0.203-0.154,0.299c-0.101,0.193-0.218,0.371-0.338,0.545
			c-0.248,0.345-0.511,0.68-0.849,0.967c-0.314,0.3-0.704,0.537-1.084,0.761c-0.404,0.176-0.817,0.383-1.237,0.449
			c-0.425,0.084-0.845,0.146-1.236,0.115l-0.591-0.025c-0.186-0.025-0.359-0.068-0.537-0.109c-0.353-0.085-0.707-0.166-0.999-0.311
			c-0.302-0.131-0.613-0.255-0.889-0.41l-0.774-0.5c-0.262-0.159-0.488-0.352-0.704-0.547c-0.221-0.19-0.438-0.382-0.646-0.58
			c-0.218-0.189-0.395-0.41-0.583-0.621c-0.364-0.434-0.738-0.845-1.031-1.325c-0.314-0.458-0.6-0.938-0.865-1.425
			c0.536,0.183,1.05,0.373,1.537,0.585c0.485,0.219,1.004,0.357,1.476,0.55c0.243,0.082,0.468,0.199,0.713,0.256l0.704,0.212
			c0.461,0.17,0.913,0.202,1.339,0.313l0.607,0.048c0.202,0.037,0.371-0.003,0.536-0.021c0.082-0.013,0.166-0.007,0.24-0.02
			l0.191-0.066c0.137-0.02,0.22-0.097,0.301-0.146c0.095-0.03,0.128-0.126,0.198-0.16c0.042-0.082,0.1-0.122,0.135-0.215
			c0.048-0.063,0.091-0.162,0.128-0.25c0.019-0.048,0.039-0.092,0.046-0.137c0.005-0.021,0.017-0.047,0.012-0.056
			c-0.001-0.008,0.008-0.048-0.024,0.038l-0.07,0.295c0.282-1.756,0.605-3.514,1.023-5.247c0.194-0.867,0.474-1.684,0.717-2.524
			c0.273-0.83,0.532-1.663,0.839-2.483c0.583-1.649,1.271-3.264,2.059-4.849c0.396-0.791,0.806-1.578,1.258-2.352
			C244.302,458.729,244.774,457.963,245.333,457.22z"/>
	</g>
</g>
<g>
	<path fill="none" stroke="#1E120D" stroke-width="5" stroke-miterlimit="10" d="M285.135,813.385
		c0,0-10.407-153.692-25.716-192.883c-15.309-39.191-27.401-6.738-27.173,4.897s-11.404,194.108-11.404,194.108
		S203.083,844,206.76,858.084c3.672,14.084,29.396,36.127,39.19,36.739s53.881-22.655,54.493-46.536
		C301.055,824.406,285.135,813.385,285.135,813.385z"/>
	<path fill="none" stroke="#1E120D" stroke-width="5" stroke-miterlimit="10" d="M285.135,813.385c0,0-40.399-41.008-64.132,3.606"
		/>
	<g>
		<path fill="#1E120D" d="M278.095,800.066c0,0-0.806-0.295-2.217-0.81c-0.698-0.247-1.546-0.548-2.518-0.892
			c-0.966-0.344-2.068-0.688-3.25-1.082c-1.188-0.379-2.469-0.785-3.828-1.169c-1.352-0.406-2.789-0.76-4.264-1.129
			c-1.482-0.333-3.008-0.669-4.562-0.919c-1.553-0.271-3.13-0.448-4.705-0.582c-1.572-0.106-3.146-0.161-4.683-0.095
			c-1.542,0.038-3.043,0.207-4.49,0.436c-1.447,0.23-2.83,0.56-4.134,0.94c-1.295,0.399-2.526,0.824-3.629,1.317
			c-0.282,0.115-0.558,0.229-0.828,0.339c-0.26,0.131-0.514,0.259-0.762,0.384c-0.504,0.249-0.983,0.485-1.433,0.707
			c-0.857,0.516-1.671,0.912-2.293,1.309c-1.233,0.805-2.002,1.245-2.002,1.245s0.444-0.733,1.333-1.981
			c0.456-0.612,1.073-1.303,1.791-2.109c0.372-0.388,0.805-0.758,1.248-1.175c0.227-0.203,0.459-0.412,0.697-0.625
			c0.254-0.193,0.515-0.39,0.781-0.591c1.059-0.826,2.306-1.592,3.685-2.31c1.391-0.69,2.921-1.317,4.563-1.774
			c0.82-0.229,1.661-0.455,2.526-0.588c0.432-0.078,0.867-0.155,1.303-0.233c0.44-0.043,0.882-0.087,1.326-0.13
			c1.778-0.194,3.586-0.146,5.381-0.05c1.784,0.179,3.564,0.4,5.265,0.815c1.711,0.366,3.347,0.887,4.9,1.438
			c1.546,0.576,3.012,1.193,4.352,1.869c1.348,0.66,2.576,1.367,3.685,2.05c2.207,1.392,3.915,2.729,5.05,3.734
			C277.522,799.408,278.095,800.066,278.095,800.066z"/>
	</g>
	<g>
		<path fill="#1E120D" d="M262.48,868.035c0.276-0.379,0.559-0.75,0.844-1.119l0.741-1.15c0.466-0.78,0.904-1.573,1.272-2.399
			c0.389-0.812,0.749-1.635,1.054-2.482c0.325-0.836,0.577-1.703,0.872-2.546c0.254-0.863,0.516-1.718,0.725-2.595
			c0.234-0.864,0.403-1.753,0.613-2.624c0.379-1.757,0.7-3.531,0.982-5.311c0.573-3.561,0.968-7.156,1.289-10.764
			c0.142-1.805,0.301-3.609,0.393-5.418l0.146-2.71c0.043-0.896,0.067-1.82,0.087-2.673l0.164-7.055l4.217,5.502
			c0.53,0.691,0.92,1.275,1.345,1.921c0.411,0.634,0.804,1.274,1.176,1.926c0.735,1.309,1.41,2.647,2.001,4.028
			c0.58,1.384,1.109,2.793,1.509,4.249c0.198,0.728,0.393,1.455,0.541,2.197c0.167,0.735,0.269,1.489,0.377,2.236
			c0.087,0.753,0.171,1.504,0.186,2.265c0.024,0.757,0.021,1.516-0.025,2.271c-0.033,0.756-0.12,1.508-0.225,2.255
			c-0.122,0.744-0.263,1.485-0.482,2.206c-0.188,0.728-0.442,1.433-0.704,2.129c-0.281,0.688-0.586,1.366-0.954,2.007l-0.545,0.956
			c-0.203,0.306-0.407,0.609-0.62,0.905c-0.401,0.604-0.903,1.142-1.361,1.688c0.247-0.685,0.577-1.31,0.776-1.995l0.341-0.996
			l0.273-1.011c0.187-0.667,0.286-1.357,0.419-2.023c0.101-0.679,0.194-1.35,0.222-2.029c0.064-0.672,0.022-1.354,0.036-2.02
			c-0.019-0.672-0.053-1.339-0.135-2.004c-0.069-0.663-0.178-1.324-0.309-1.978c-0.133-0.654-0.276-1.304-0.444-1.949
			c-0.179-0.644-0.364-1.282-0.581-1.915c-0.198-0.635-0.441-1.26-0.686-1.881c-0.501-1.24-1.049-2.464-1.68-3.649
			c-0.621-1.189-1.285-2.36-2.016-3.485c-0.364-0.563-0.728-1.125-1.112-1.668c-0.373-0.529-0.801-1.108-1.152-1.531l4.381-1.553
			c0.008,0.994-0.02,1.914-0.049,2.863c-0.034,0.942-0.064,1.883-0.131,2.821c-0.132,1.876-0.273,3.751-0.511,5.619
			c-0.432,3.737-1.117,7.455-2.053,11.124c-0.248,0.914-0.497,1.827-0.778,2.734c-0.27,0.909-0.588,1.806-0.903,2.702
			c-0.328,0.895-0.671,1.78-1.065,2.652c-0.371,0.877-0.796,1.735-1.212,2.592c-0.442,0.85-0.91,1.683-1.435,2.487
			c-0.245,0.408-0.518,0.804-0.797,1.193c-0.276,0.391-0.54,0.787-0.854,1.152c-0.596,0.749-1.253,1.445-1.931,2.112
			c-0.36,0.322-0.723,0.636-1.084,0.932C263.248,867.503,262.867,867.772,262.48,868.035z"/>
	</g>
	<g>
		<path fill="#1E120D" d="M242.734,865.28c-1.123-1.336-2.12-2.763-3.095-4.206c-0.938-1.462-1.866-2.94-2.71-4.468
			c-1.698-3.048-3.173-6.234-4.386-9.556c-0.289-0.837-0.583-1.672-0.837-2.524c-0.275-0.846-0.496-1.712-0.722-2.578
			c-0.432-1.74-0.761-3.521-0.967-5.341c-0.098-0.913-0.167-1.833-0.175-2.767c-0.024-0.462,0.002-0.936,0.011-1.405
			c0.004-0.469,0.03-0.94,0.081-1.417c0.069-0.947,0.243-1.903,0.446-2.854c0.125-0.477,0.233-0.953,0.378-1.426l0.505-1.408
			l3.96,2.718c-0.319,0.298-0.771,0.766-1.142,1.196c-0.394,0.439-0.756,0.91-1.126,1.379c-0.377,0.463-0.7,0.969-1.056,1.452
			l-0.958,1.522l-0.863,1.581l-0.75,1.639c-0.241,0.551-0.417,1.124-0.633,1.689c-0.237,0.561-0.349,1.151-0.521,1.733l-0.241,0.879
			l-0.158,0.896c-0.09,0.601-0.248,1.202-0.287,1.813l-0.138,1.847c-0.068,0.621,0.008,1.239,0.003,1.868
			c0.03,0.626-0.014,1.271,0.111,1.891c0.097,0.624,0.163,1.262,0.241,1.904c0.039,0.654,0.263,1.257,0.381,1.901
			c0.135,0.639,0.285,1.278,0.41,1.938c-0.353-0.555-0.681-1.129-1.023-1.704c-0.325-0.581-0.703-1.151-0.93-1.78
			c-0.256-0.619-0.524-1.242-0.762-1.879c-0.279-0.627-0.393-1.297-0.578-1.957c-0.145-0.666-0.398-1.327-0.449-2.014l-0.241-2.066
			c-0.068-0.694-0.015-1.389-0.025-2.09c0.006-0.35-0.002-0.703,0.02-1.053l0.126-1.043c0.1-0.692,0.134-1.407,0.321-2.085
			c0.168-0.681,0.303-1.379,0.506-2.053c0.217-0.669,0.438-1.341,0.676-2.006l0.84-1.943c0.317-0.629,0.652-1.251,0.992-1.87
			c0.376-0.597,0.723-1.214,1.131-1.794c0.396-0.587,0.821-1.156,1.273-1.712c0.463-0.572,0.89-1.071,1.502-1.687l6.886-6.924
			l-2.926,9.642c-0.104,0.345-0.219,0.685-0.336,1.022c-0.102,0.348-0.174,0.711-0.266,1.064c-0.146,0.725-0.264,1.463-0.323,2.227
			c-0.048,0.376-0.074,0.76-0.081,1.148c-0.011,0.388-0.043,0.771-0.025,1.167c0.001,0.782,0.045,1.573,0.091,2.37
			c0.071,0.797,0.134,1.597,0.258,2.4c0.095,0.804,0.234,1.61,0.365,2.418c0.305,1.611,0.641,3.233,1.048,4.849
			c0.802,3.236,1.768,6.473,2.825,9.705c0.531,1.616,1.054,3.246,1.636,4.858C241.574,862.016,242.158,863.636,242.734,865.28z"/>
	</g>
</g>
</svg>
