<?xml version="1.0" encoding="utf-8"?>
<!-- Generator: Adobe Illustrator 16.0.0, SVG Export Plug-In . SVG Version: 6.00 Build 0)  -->
<!DOCTYPE svg PUBLIC "-//W3C//DTD SVG 1.1//EN" "http://www.w3.org/Graphics/SVG/1.1/DTD/svg11.dtd">
<svg version="1.1" id="Layer_3" xmlns="http://www.w3.org/2000/svg" xmlns:xlink="http://www.w3.org/1999/xlink" x="0px" y="0px"
	 width="500px" height="900px" viewBox="0 0 500 900" enable-background="new 0 0 500 900" xml:space="preserve">
<g>
	<path fill="none" stroke="#1E120D" stroke-width="5" stroke-miterlimit="10" d="M477.216,443.539c0,0,5.81-36.211,10.65-48.934
		c4.843-12.726,11.136-59.702,4.843-77.81c-6.293-18.108-19.853-0.002-30.503,18.593c-10.651,18.598-39.218,87.109-39.218,87.109
		s-21.786-1.126-44.543-46.075c-22.756-44.947-16.462-50.82-16.462-59.139c0-8.32-8.23-24.956-18.882,0.979
		c0,0-9.683,47.958,5.81,74.384c15.494,26.427,21.789,42.084,21.789,46.001c0,0-18.883,31.81-2.906,62.15
		c15.979,30.339,25.66,17.127,32.923,13.701c7.263-3.425,20.82-14.192,32.44-0.978c11.62,13.213,29.534,9.789,32.438,3.426
		c2.905-6.362,11.62-26.426,15.978-30.342C485.931,482.69,493.676,455.284,477.216,443.539z"/>
	<path fill="none" stroke="#1E120D" stroke-width="5" stroke-miterlimit="10" d="M477.216,443.539c0,0-3.874-2.447-18.399,0
		c-14.525,2.447-18.391,6.825-33.89,6.852c-19.853,0.035-41.64-11.744-54.227-11.744"/>
	<g>
		<path fill="#1E120D" d="M461.482,510.461c0,0-0.038,0.268-0.216,0.748c-0.185,0.472-0.481,1.184-1.09,1.962
			c-0.598,0.778-1.488,1.665-2.756,2.336c-1.251,0.691-2.846,1.166-4.59,1.291c-0.441,0.064-0.879,0.04-1.333,0.043
			c-0.227-0.002-0.456-0.003-0.688-0.005c-0.246-0.026-0.495-0.054-0.745-0.082c-0.444-0.063-0.814-0.058-1.336-0.198
			c-0.508-0.132-1.024-0.266-1.547-0.401c-1.9-0.623-3.728-1.501-5.511-2.449c-1.715-0.93-3.487-1.891-5.289-2.866
			c-1.763-0.934-3.546-1.73-5.363-2.354c-1.802-0.692-3.665-0.982-5.504-1.245c-1.86-0.122-3.679-0.145-5.521,0.096
			c-0.983,0.105-1.948,0.229-2.897,0.315c-0.942,0.095-1.716,0.301-2.565,0.42c-1.653,0.274-3.17,0.76-4.646,1.271
			c-0.397,0.128-0.787,0.254-1.168,0.377c-0.379,0.125-0.747,0.249-1.145,0.305c-0.773,0.119-1.49,0.335-2.167,0.334
			c-1.351,0.072-2.508,0.124-3.447,0.004c-1.883-0.154-2.936-0.303-2.936-0.303s1.05-0.289,2.846-0.688
			c0.911-0.15,1.953-0.552,3.138-0.885c1.167-0.4,2.344-0.995,3.655-1.771c1.388-0.813,3.04-1.683,4.901-2.282
			c0.914-0.286,1.923-0.637,2.855-0.855c0.928-0.218,1.881-0.406,2.848-0.616l0.728-0.155l0.367-0.077l0.046-0.01l0.128-0.02
			l0.102-0.012l0.204-0.023c0.545-0.061,1.095-0.121,1.647-0.182c1.104-0.178,2.247-0.065,3.39-0.079
			c2.276,0.179,4.608,0.565,6.765,1.354c2.157,0.77,4.224,1.729,6.072,2.837c1.868,1.075,3.6,2.241,5.21,3.308
			c1.619,1.059,3.145,2.029,4.609,2.756c0.336,0.149,0.668,0.298,0.994,0.443c0.147,0.083,0.358,0.144,0.573,0.2
			c0.208,0.062,0.415,0.123,0.62,0.183l0.307,0.092l0.151,0.045l0.076,0.022c0.102,0.018-0.117-0.017-0.089-0.013l0.018,0.003
			l0.035,0.007c0.186,0.034,0.37,0.068,0.552,0.102c0.366,0.064,0.731,0.152,1.081,0.172c1.413,0.173,2.729,0.124,3.853-0.17
			c1.118-0.298,2.066-0.765,2.778-1.278c0.707-0.517,1.224-1.021,1.536-1.399C461.336,510.69,461.482,510.461,461.482,510.461z"/>
	</g>
</g>
<g>
	<path fill="none" stroke="#1E120D" stroke-width="5" stroke-miterlimit="10" d="M291.492,257.897
		c-0.809-22.131,18.278-48.811,20.696-63.054c2.167-12.753,5.295-40.19-5.776-53.666c-11.069-13.478-14.92-3.609-12.032,8.423
		c2.888,12.033-2.406,51.02-14.438,59.684c0,0-12.032,17.326-14.44,20.697c-2.407,3.369-10.588,11.069-19.251,0.48
		c-8.664-10.588-30.323-33.692-32.731-77.01c0,0-0.963-9.626,0-14.44c0.964-4.813,3.369-18.29-3.852-21.178
		c-7.22-2.888-12.03,6.257-16.844,21.178c-4.813,14.922-4.333,42.356,0,56.315c4.331,13.958,29.36,54.87,23.104,72.198
		c-6.26,17.327-27.437,51.502-12.515,64.979c0,0,7.581,3.848,15.883,5.292c8.304,1.444,10.829,5.776,18.05,6.138
		c7.22,0.361,20.216-5.776,22.742-5.055c2.526,0.722,10.107,1.445,20.576,2.166c10.469,0.722,24.187,5.054,25.63-15.883
		c1.444-20.937-1.806-26.352-6.858-36.099C294.38,279.314,292.215,277.631,291.492,257.897z"/>
	<path fill="none" stroke="#1E120D" stroke-width="5" stroke-miterlimit="10" d="M293.707,276.774c0,0-17.376-14.426-39.035-19.479
		c-21.66-5.054-26.23,6.74-38.745,10.229"/>
	<path fill="none" stroke="#1E120D" stroke-width="5" stroke-miterlimit="10" d="M276.74,340.762c0,0-17.736,7.862-23.873,7.501
		c-6.138-0.362-10.83-3.744-10.83-3.744"/>
	<path fill="none" stroke="#1E120D" stroke-width="5" stroke-miterlimit="10" d="M281.118,208.318c0,0-8.396-18.529-10.924-43.438
		c-2.527-24.907-5.849-34.654-15.378-35.736c-9.53-1.083-9.891,24.187-12.057,42.957c-2.167,18.772-2.411,36.696-11.674,38.203"/>
</g>
<g>
	<path fill="none" stroke="#1E120D" stroke-width="5" stroke-miterlimit="10" d="M24.52,441.948c0,0-5.773-36.941-10.581-49.924
		c-4.811-12.979-11.063-60.904-4.811-79.376c6.252-18.473,19.722-0.003,30.305,18.969c10.582,18.972,38.964,88.864,38.964,88.864
		s21.645-1.148,44.253-47.001c22.611-45.854,16.356-51.847,16.356-60.335c0-8.485,8.178-25.458,18.761,1
		c0,0,9.618,48.926-5.774,75.884c-15.392,26.96-21.647,42.932-21.647,46.928c0,0,18.763,32.451,2.888,63.403
		c-15.874,30.951-25.494,17.474-32.71,13.979c-7.215-3.497-20.685-14.479-32.229-1.001c-11.545,13.481-29.343,9.986-32.229,3.497
		c-2.887-6.492-11.545-26.959-15.875-30.954C15.862,481.887,8.166,453.929,24.52,441.948z"/>
	<path fill="none" stroke="#1E120D" stroke-width="5" stroke-miterlimit="10" d="M24.52,441.948c0,0,3.85-2.496,18.28,0
		c14.431,2.498,18.271,6.961,33.671,6.989c19.724,0.034,41.368-11.981,53.874-11.981"/>
	<g>
		<path fill="#1E120D" d="M40.153,510.219c0,0,0.143,0.229,0.455,0.608c0.307,0.381,0.814,0.893,1.51,1.421
			c0.701,0.524,1.636,1.011,2.746,1.319c1.116,0.303,2.42,0.369,3.823,0.201c0.348-0.021,0.709-0.101,1.073-0.169
			c0.181-0.034,0.364-0.068,0.549-0.103l0.069-0.013l0.018-0.004c-0.215,0.037-0.049,0.007-0.092,0.014l0.038-0.011l0.151-0.047
			l0.305-0.093c0.384-0.135,0.877-0.226,1.193-0.386c0.322-0.148,0.65-0.298,0.981-0.45c1.446-0.73,2.958-1.714,4.557-2.786
			c1.593-1.082,3.304-2.264,5.153-3.36c1.827-1.13,3.882-2.107,6.023-2.903c2.149-0.804,4.473-1.22,6.75-1.411
			c2.282-0.09,4.562,0.089,6.615,0.557c0.962,0.214,1.912,0.406,2.836,0.628c0.925,0.217,1.936,0.578,2.846,0.868
			c1.856,0.608,3.5,1.494,4.875,2.318c1.301,0.791,2.464,1.393,3.623,1.802c1.178,0.336,2.213,0.744,3.121,0.896
			c1.79,0.402,2.836,0.692,2.836,0.692s-1.05,0.147-2.929,0.298c-0.937,0.119-2.091,0.06-3.44-0.017
			c-0.676-0.008-1.39-0.226-2.162-0.352c-0.778-0.139-1.498-0.461-2.298-0.704c-0.726-0.226-1.475-0.575-2.244-0.738
			c-0.77-0.194-1.533-0.464-2.371-0.563c-0.846-0.122-1.608-0.337-2.553-0.432c-0.946-0.09-1.907-0.217-2.887-0.326
			c-1.826-0.244-3.636-0.217-5.482-0.093c-1.825,0.271-3.672,0.584-5.459,1.285c-1.8,0.646-3.569,1.455-5.314,2.41
			c-1.785,0.995-3.542,1.975-5.241,2.922c-1.77,0.967-3.582,1.861-5.482,2.499c-0.522,0.14-1.038,0.277-1.546,0.412
			c-0.511,0.134-0.886,0.137-1.326,0.201c-0.253,0.027-0.503,0.055-0.752,0.082c-0.231,0.002-0.46,0.004-0.688,0.005
			c-0.453,0.002-0.892,0.019-1.333-0.046c-1.746-0.13-3.336-0.628-4.578-1.332c-1.258-0.687-2.127-1.593-2.708-2.379
			c-0.592-0.787-0.875-1.502-1.053-1.975C40.189,510.486,40.153,510.219,40.153,510.219z"/>
	</g>
</g>
<g>
	<g>
		<path fill="none" stroke="#1E120D" stroke-width="5" stroke-miterlimit="10" d="M223.687,754.729
			c-12.291-8.85-17.698-48.674-14.75-60.964c2.95-12.291-0.982-22.371-12.291-8.604c-11.309,13.765-8.111,41.788-5.898,54.818
			c2.471,14.549,17.519,42.076,21.14,64.406c3.114,19.207-1.618,20.585-11.207,46.766c-9.587,26.181,0,36.136,0,36.136
			c16.225,15.856,32.818,2.213,32.818,2.213c5.901,5.53,16.93,8.112,16.93,8.112c48.643,8.481,33.219-8.112,46.493-11.431
			s15.119-9.956,12.537-27.655c-2.581-17.699-20.383-44.307-20.383-44.307c-6.392-17.699,19.176-59.491,23.601-73.748
			c4.424-14.259,2.438-42.962-2.48-58.203c-4.917-15.242-9.812-22.344-17.186-19.394c-7.375,2.95-5.185,14.476-4.2,19.394
			c0.984,4.916,2.58,17.331,2.58,17.331s0.737,33.187-15.117,51.623"/>
	</g>
	<g>
		<path fill="#1E120D" d="M280.698,784.411c0,0-0.235-1.1-0.678-3.162c-0.43-2.063-1.027-5.092-1.752-8.949
			c-0.727-3.857-1.552-8.548-2.466-13.929c-0.482-2.688-0.917-5.556-1.406-8.576c-0.487-3.021-1-6.194-1.499-9.512
			c-1.007-6.627-2.098-13.807-3.252-21.4c-0.509-3.81-1.256-7.665-1.838-11.647c-0.323-1.98-0.576-4.014-0.966-6.009
			c-0.381-2.001-0.765-4.02-1.152-6.057c-0.193-1.019-0.388-2.041-0.582-3.068c-0.199-1.015-0.46-2.063-0.688-3.099
			c-0.475-2.064-0.952-4.145-1.433-6.237c-1.001-4.157-2.054-8.364-3.555-12.295c-0.735-1.974-1.654-3.821-2.739-5.459
			c-1.125-1.594-2.491-2.814-4.142-3.46c-3.311-1.155-7.977-0.857-10.368,1.803c-1.297,1.303-2.222,3.103-2.913,5.024
			c-0.669,1.941-1.13,4.017-1.414,6.139c-0.585,4.256-0.631,8.606-0.686,13.049l-0.019,0.842l-0.005,0.211l-0.029,0.327
			l-0.042,0.411l-0.165,1.639c-0.117,1.094-0.189,2.169-0.404,3.295c-0.377,2.207-0.706,4.495-1.13,6.607
			c-0.421,2.131-0.839,4.249-1.254,6.352c-0.439,2.091-0.875,4.167-1.308,6.226c-1.695,8.222-3.605,16.142-5.104,23.563
			c-0.16,0.913-0.319,1.819-0.477,2.719c-0.073,0.449-0.172,0.901-0.224,1.343c-0.061,0.468-0.122,0.933-0.183,1.396
			c-0.247,1.855-0.48,3.679-0.688,5.463c-0.42,3.583-0.826,7.045-1.215,10.368c-0.758,6.658-1.424,12.766-1.98,18.184
			c-0.303,2.709-0.506,5.244-0.738,7.592c-0.112,1.174-0.22,2.3-0.323,3.376c-0.081,1.076-0.158,2.103-0.231,3.076
			c-0.151,1.951-0.286,3.694-0.403,5.21c-0.058,1.518-0.107,2.809-0.146,3.855c-0.093,2.104-0.143,3.226-0.143,3.226
			s-0.115-1.116-0.332-3.208c-0.112-1.048-0.229-2.345-0.362-3.872c-0.06-1.526-0.128-3.281-0.204-5.246
			c-0.034-0.984-0.07-2.022-0.107-3.109c0-1.086,0-2.223,0.001-3.407c0.027-2.367-0.044-4.94,0.066-7.673
			c0.089-2.734,0.15-5.649,0.278-8.717c0.163-3.064,0.309-6.29,0.526-9.65c0.198-3.362,0.465-6.857,0.776-10.489
			c0.144-1.819,0.31-3.656,0.488-5.515c0.043-0.466,0.087-0.933,0.13-1.401c0.04-0.496,0.139-0.97,0.207-1.459
			c0.151-0.972,0.303-1.95,0.457-2.937c0.701-3.854,1.478-7.745,2.37-11.694c0.846-3.964,1.793-7.976,2.744-12.061
			c0.469-2.041,0.943-4.099,1.42-6.172c0.453-2.071,0.909-4.157,1.368-6.256c0.483-2.11,0.821-4.12,1.25-6.206
			c0.233-1.015,0.34-2.126,0.486-3.21l0.21-1.635l0.053-0.409l0.013-0.102c0,0.021,0.018-0.191,0.004,0.02l0.01-0.201l0.04-0.81
			c0.196-4.362,0.297-8.921,1.013-13.499c0.363-2.289,0.849-4.601,1.66-6.884c0.832-2.266,1.979-4.559,3.846-6.454
			c0.918-0.943,2.009-1.782,3.231-2.365c0.294-0.171,0.617-0.272,0.927-0.404c0.303-0.132,0.631-0.245,0.989-0.336
			c0.325-0.085,0.743-0.217,0.995-0.251l0.826-0.145l0.203-0.032l0.116-0.008l0.231-0.018l0.463-0.033l0.927-0.063
			c0.608-0.072,1.255-0.009,1.893,0.028l0.958,0.064c0.32,0.045,0.645,0.13,0.967,0.195c0.644,0.146,1.293,0.256,1.909,0.547
			c2.54,0.925,4.63,2.8,6.081,4.803c1.417,2.03,2.485,4.162,3.361,6.289c1.763,4.265,2.945,8.541,4.088,12.746
			c1.103,4.234,2.222,8.313,3.031,12.509c0.437,2.08,0.869,4.143,1.298,6.186c0.438,2.044,0.728,4.062,1.093,6.063
			c0.334,2.002,0.664,3.981,0.99,5.938c0.33,1.957,0.628,3.892,0.89,5.801c1.072,7.64,2.065,14.864,2.762,21.554
			c0.382,3.342,0.75,6.544,1.004,9.6c0.274,3.053,0.563,5.945,0.761,8.673c0.451,5.446,0.715,10.209,0.937,14.129
			c0.193,3.924,0.293,7.013,0.351,9.118C280.682,783.286,280.698,784.411,280.698,784.411z"/>
	</g>
	<path fill="none" stroke="#1E120D" stroke-width="5" stroke-miterlimit="10" d="M288.079,808.702c0,0-10.7,8.526-32.088,12.214
		c-21.387,3.687-32.972-3.743-43.296-3.374"/>
	<g>
		<path fill="#1E120D" d="M234.623,890.859c0,0-0.16,0.033-0.46,0.096c-0.29,0.058-0.699,0.127-1.219,0.208
			c-1.038,0.152-2.508,0.326-4.274,0.405c-1.766,0.069-3.828,0.058-6.021-0.182c-1.096-0.124-2.223-0.285-3.355-0.529
			c-1.132-0.233-2.269-0.541-3.381-0.917c-1.11-0.383-2.202-0.813-3.229-1.34c-1.035-0.504-2-1.102-2.899-1.714
			c-0.445-0.313-0.863-0.651-1.278-0.965c-0.391-0.345-0.773-0.682-1.146-1.01c-0.707-0.695-1.347-1.371-1.877-2.045
			c-0.551-0.653-0.976-1.315-1.367-1.881c-0.35-0.597-0.678-1.097-0.901-1.536c-0.44-0.878-0.692-1.38-0.692-1.38
			s0.318,0.46,0.874,1.266c0.278,0.399,0.672,0.846,1.09,1.375c0.458,0.496,0.954,1.074,1.569,1.625
			c0.595,0.571,1.293,1.125,2.043,1.683c0.39,0.257,0.79,0.521,1.199,0.79c0.43,0.236,0.855,0.493,1.305,0.724
			c0.909,0.446,1.861,0.867,2.866,1.191c0.995,0.348,2.039,0.596,3.085,0.801c4.208,0.803,8.529,0.435,11.653-0.149
			c1.567-0.293,2.848-0.631,3.722-0.889c0.435-0.131,0.773-0.239,0.99-0.315c0.206-0.075,0.315-0.114,0.315-0.114L234.623,890.859z"
			/>
	</g>
	<g>
		<path fill="#1E120D" d="M289.67,888.709c0,0,0.018-0.093,0.052-0.268c0.045-0.254,0.105-0.424,0.197-0.715
			c0.179-0.542,0.493-1.226,0.935-1.969c0.226-0.367,0.477-0.752,0.771-1.127c0.275-0.391,0.621-0.745,0.95-1.129
			c0.36-0.352,0.713-0.728,1.109-1.058c0.398-0.329,0.784-0.675,1.212-0.96c0.416-0.299,0.827-0.595,1.26-0.84
			c0.426-0.254,0.832-0.513,1.255-0.712c0.819-0.44,1.607-0.775,2.283-1.05c0.665-0.291,1.255-0.451,1.646-0.599
			c0.396-0.136,0.622-0.214,0.622-0.214s-0.189,0.146-0.522,0.403c-0.324,0.268-0.816,0.597-1.342,1.078
			c-0.537,0.464-1.147,1.011-1.74,1.647c-0.313,0.3-0.591,0.65-0.881,0.992c-0.299,0.333-0.56,0.703-0.818,1.066
			c-0.273,0.352-0.486,0.741-0.712,1.104c-0.223,0.365-0.389,0.748-0.569,1.097c-0.141,0.369-0.308,0.706-0.397,1.042
			c-0.115,0.329-0.188,0.641-0.25,0.923c-0.108,0.563-0.145,1.014-0.127,1.285c0.012,0.113,0.014,0.264,0.038,0.23
			c0.017-0.026,0.02,0.079,0.02,0.071L289.67,888.709z"/>
	</g>
</g>
<g>
	<path fill="none" stroke="#1E120D" stroke-width="5" stroke-miterlimit="10" d="M306.572,460.62c0,0,11.306-40.703-17.463-53.267
		s-36.309-25.631-54.902-23.117c-18.592,2.511-39.324,32.163-39.26,42.716c0.063,10.553,6.094,44.221,6.094,44.221
		s-5.527,44.223,35.68,50.504c41.207,6.284,68.343-21.86,68.343-38.443C305.063,466.649,306.572,460.62,306.572,460.62z"/>
	<g>
		<path fill="#1E120D" d="M297.525,474.188c-1.527-0.186-3.034-0.521-4.534-0.916c-0.737-0.233-1.497-0.425-2.229-0.699
			c-0.724-0.304-1.477-0.539-2.188-0.908c-0.707-0.381-1.46-0.659-2.136-1.169l-1.9-1.323c-0.406-0.157-0.926-0.372-1.532-0.425
			c-0.607-0.068-1.274-0.062-2.018-0.049c-1.469,0.025-3.121,0.077-4.762-0.118c-1.64-0.189-3.298-0.507-4.853-1.05
			c-0.802-0.227-1.538-0.568-2.313-0.852c-0.379-0.155-0.737-0.341-1.107-0.511l-0.999-0.469l-1.037-0.473
			c-0.345-0.158-0.72-0.341-0.943-0.376c-0.258-0.069-0.51-0.167-0.76-0.241c-0.247-0.027-0.487-0.063-0.729-0.112
			c-0.229,0.007-0.447,0.029-0.672,0.021l-0.788,0.169l-2.098,0.63c-0.801,0.208-1.603,0.449-2.44,0.582
			c-0.415,0.074-0.831,0.161-1.246,0.223l-1.245,0.118c-0.835,0.101-1.65,0.105-2.465,0.108c-0.818,0.018-1.632,0.021-2.424-0.054
			l-2.391-0.18l-2.342-0.316c-1.571-0.191-3.083-0.544-4.612-0.841c-1.534-0.292-3.021-0.708-4.518-1.093
			c-1.495-0.397-2.985-0.793-4.443-1.283c-1.464-0.472-2.93-0.933-4.382-1.434l1.262-0.182c-1.214,0.632-2.417,1.227-3.633,1.82
			c-1.219,0.584-2.461,1.122-3.708,1.65c-0.619,0.269-1.244,0.531-1.884,0.762c-0.642,0.229-1.26,0.489-1.915,0.688
			c-0.648,0.21-1.293,0.418-1.944,0.604c-0.673,0.145-1.335,0.289-1.993,0.411l1.785-0.922l1.714-1.031
			c0.573-0.327,1.122-0.722,1.681-1.077c0.556-0.363,1.121-0.709,1.669-1.089c1.113-0.725,2.196-1.502,3.296-2.243
			c1.094-0.749,2.193-1.509,3.254-2.276l0.448-0.324l0.814,0.143c1.492,0.262,2.97,0.563,4.449,0.854
			c1.476,0.315,2.953,0.581,4.432,0.819c1.475,0.26,2.946,0.556,4.419,0.728c1.469,0.205,2.939,0.465,4.398,0.564l2.187,0.226
			l2.162,0.091c0.725,0.053,1.432,0.046,2.134,0.021c0.706-0.01,1.412-0.019,2.087-0.113l1.025-0.102
			c0.337-0.046,0.666-0.115,1-0.17c0.668-0.092,1.326-0.289,1.999-0.452l1.063-0.312l1.22-0.329c0.457-0.098,0.971-0.175,1.453-0.25
			c0.534-0.013,1.079-0.026,1.606,0.006c0.509,0.084,1.017,0.179,1.519,0.284c0.475,0.147,0.935,0.322,1.396,0.498
			c0.508,0.182,0.806,0.357,1.146,0.533l1.011,0.527l1.977,1.055c0.636,0.282,1.259,0.637,1.909,0.868
			c1.286,0.551,2.606,0.928,3.964,1.226c1.365,0.284,2.761,0.428,4.328,0.574c1.543,0.167,3.433,0.402,5.162,1.746l1.646,1.546
			c0.455,0.519,1.097,0.896,1.655,1.353c1.185,0.849,2.486,1.588,3.803,2.326C294.758,472.884,296.116,473.574,297.525,474.188z"/>
	</g>
	<g>
		<path fill="#1E120D" d="M283.918,467.523c0,0,0.059-0.096,0.168-0.274c0.101-0.16,0.252-0.417,0.45-0.764
			c0.39-0.683,0.938-1.684,1.544-2.92c0.31-0.616,0.628-1.292,0.951-2.015c0.341-0.718,0.644-1.495,0.987-2.292
			c0.314-0.807,0.647-1.641,0.953-2.5c0.288-0.863,0.621-1.735,0.871-2.628c0.272-0.888,0.541-1.78,0.751-2.672
			c0.113-0.444,0.225-0.887,0.336-1.323c0.089-0.441,0.178-0.876,0.265-1.304c0.087-0.43,0.173-0.853,0.257-1.267
			c0.061-0.417,0.121-0.826,0.179-1.223c0.118-0.797,0.24-1.553,0.281-2.255c0.06-0.705,0.114-1.35,0.163-1.923
			c0.011-0.574,0.02-1.076,0.026-1.488c0.015-0.83,0.023-1.304,0.023-1.304s0.069,0.469,0.191,1.29
			c0.061,0.413,0.135,0.914,0.22,1.489c0.047,0.58,0.1,1.234,0.157,1.947c0.075,0.717,0.08,1.493,0.095,2.318
			c0.008,0.413,0.017,0.838,0.024,1.272c-0.015,0.433-0.03,0.876-0.046,1.326c-0.016,0.452-0.032,0.912-0.049,1.376
			c-0.039,0.464-0.078,0.933-0.117,1.405c-0.063,0.951-0.187,1.908-0.314,2.868c-0.105,0.965-0.296,1.912-0.446,2.857
			c-0.169,0.94-0.368,1.859-0.557,2.752c-0.218,0.884-0.4,1.751-0.63,2.556c-0.212,0.812-0.428,1.575-0.645,2.276
			c-0.421,1.407-0.826,2.57-1.129,3.389c-0.149,0.405-0.276,0.735-0.374,0.972c-0.088,0.218-0.136,0.333-0.136,0.333
			L283.918,467.523z"/>
	</g>
	<g>
		<path fill="#1E120D" d="M262.209,462.312c0,0,0.036-0.454,0.099-1.25c0.069-0.783,0.191-1.887,0.368-3.203
			c0.186-1.315,0.415-2.843,0.734-4.466c0.304-1.624,0.702-3.341,1.139-5.042c0.245-0.847,0.462-1.696,0.726-2.52
			c0.277-0.822,0.503-1.636,0.805-2.404c0.299-0.768,0.536-1.52,0.854-2.206c0.306-0.688,0.563-1.347,0.855-1.933
			c0.295-0.583,0.564-1.117,0.804-1.59c0.239-0.471,0.499-0.857,0.687-1.186c0.387-0.648,0.608-1.019,0.608-1.019
			s-0.15,0.404-0.415,1.112c-0.124,0.356-0.307,0.772-0.456,1.274c-0.147,0.5-0.313,1.064-0.495,1.68
			c-0.179,0.614-0.31,1.3-0.481,2.009c-0.183,0.706-0.278,1.479-0.43,2.258c-0.153,0.779-0.226,1.606-0.346,2.429
			c-0.107,0.827-0.165,1.677-0.25,2.516c-0.118,1.692-0.197,3.38-0.203,4.965c-0.021,1.583,0.027,3.06,0.08,4.319
			c0.061,1.259,0.135,2.304,0.202,3.024c0.073,0.709,0.114,1.114,0.114,1.114L262.209,462.312z"/>
	</g>
	<g>
		<path fill="#1E120D" d="M225.416,460.217c0,0-0.094-0.532-0.258-1.465c-0.168-0.924-0.399-2.243-0.712-3.834
			c-0.297-1.593-0.67-3.444-1.087-5.427c-0.394-1.99-0.893-4.087-1.365-6.199c-0.47-2.112-1.042-4.189-1.527-6.163
			c-0.242-0.986-0.548-1.912-0.8-2.807c-0.262-0.893-0.51-1.736-0.738-2.516c-0.213-0.788-0.508-1.465-0.718-2.091
			c-0.224-0.621-0.419-1.163-0.58-1.609c-0.323-0.895-0.508-1.407-0.508-1.407s0.255,0.479,0.702,1.315
			c0.224,0.42,0.497,0.931,0.809,1.516c0.299,0.591,0.698,1.239,1.021,1.987c0.34,0.743,0.709,1.548,1.099,2.4
			c0.38,0.856,0.825,1.748,1.208,2.694c0.767,1.891,1.645,3.9,2.42,5.938c0.776,2.038,1.583,4.074,2.264,6.002
			c0.705,1.923,1.348,3.724,1.876,5.276c0.543,1.544,0.973,2.851,1.279,3.763c0.299,0.906,0.469,1.425,0.469,1.425L225.416,460.217z
			"/>
	</g>
	<g>
		<path fill="#1E120D" d="M288.449,469.629c0,0-0.174,0.317-0.479,0.874c-0.3,0.565-0.728,1.373-1.241,2.342
			c-1.015,1.948-2.334,4.569-3.552,7.234c-0.611,1.333-1.186,2.678-1.701,3.951c-0.242,0.641-0.477,1.261-0.698,1.848
			c-0.193,0.597-0.377,1.16-0.546,1.681c-0.134,0.525-0.274,1.012-0.369,1.444c-0.07,0.439-0.132,0.821-0.183,1.137
			c0.004,0.642,0.006,1.008,0.006,1.008s-0.08-0.365-0.221-1.004c-0.018-0.329-0.038-0.728-0.062-1.185
			c0.001-0.458,0.037-0.971,0.059-1.539c0.059-0.561,0.121-1.168,0.188-1.81c0.096-0.638,0.197-1.31,0.303-2.005
			c0.241-1.383,0.527-2.854,0.853-4.315c0.645-2.924,1.4-5.818,1.996-7.984c0.307-1.082,0.562-1.984,0.74-2.615
			c0.188-0.634,0.296-0.997,0.296-0.997L288.449,469.629z"/>
	</g>
	<g>
		<path fill="#1E120D" d="M267.064,461.416c0,0,0.06,0.292,0.164,0.804c0.093,0.504,0.225,1.225,0.383,2.089
			c0.297,1.727,0.643,4.03,0.851,6.354c0.103,1.161,0.186,2.322,0.2,3.419c0.03,1.091,0.002,2.115-0.083,2.987
			c-0.025,0.434-0.084,0.832-0.149,1.182c-0.058,0.35-0.1,0.651-0.184,0.895c-0.139,0.482-0.218,0.758-0.218,0.758
			s0.002-0.284,0.005-0.783c0.015-0.243-0.027-0.544-0.064-0.885c-0.03-0.339-0.079-0.719-0.17-1.132
			c-0.147-0.824-0.387-1.774-0.699-2.777c-0.297-1.003-0.678-2.06-1.075-3.104c-0.796-2.092-1.718-4.138-2.438-5.65
			c-0.367-0.75-0.674-1.375-0.888-1.813c-0.22-0.424-0.345-0.667-0.345-0.667L267.064,461.416z"/>
	</g>
	<g>
		<path fill="#1E120D" d="M232.519,460.558c0,0-0.089,0.342-0.246,0.939c-0.164,0.606-0.39,1.478-0.688,2.496
			c-0.285,1.024-0.641,2.214-1.04,3.48c-0.375,1.27-0.851,2.612-1.299,3.95c-0.445,1.34-0.992,2.659-1.45,3.896
			c-0.227,0.619-0.52,1.201-0.757,1.759c-0.247,0.554-0.48,1.077-0.695,1.56c-0.198,0.486-0.48,0.9-0.675,1.28
			c-0.209,0.375-0.391,0.701-0.541,0.97c-0.298,0.532-0.468,0.837-0.468,0.837s0.099-0.337,0.272-0.926
			c0.086-0.292,0.189-0.647,0.309-1.055c0.105-0.411,0.281-0.846,0.366-1.366c0.101-0.511,0.211-1.063,0.327-1.648
			c0.106-0.587,0.257-1.188,0.339-1.835c0.169-1.294,0.403-2.647,0.537-4.028c0.138-1.38,0.299-2.746,0.381-4.043
			c0.105-1.291,0.186-2.496,0.235-3.53c0.064-1.036,0.088-1.885,0.113-2.48c0.02-0.606,0.031-0.952,0.031-0.952L232.519,460.558z"/>
	</g>
	<g>
		<path fill="#1E120D" d="M294.762,432.729c0,0-0.296-0.186-0.85-0.534c-0.552-0.348-1.389-0.816-2.433-1.421
			c-1.056-0.592-2.358-1.264-3.847-2.019c-1.503-0.733-3.215-1.507-5.092-2.298c-1.887-0.77-3.953-1.528-6.16-2.214
			c-1.111-0.324-2.229-0.717-3.412-0.975c-1.173-0.289-2.358-0.622-3.594-0.823c-0.612-0.119-1.23-0.24-1.853-0.361
			c-0.621-0.118-1.257-0.176-1.891-0.268c-0.634-0.084-1.271-0.17-1.913-0.255c-0.643-0.064-1.291-0.094-1.94-0.143
			c-0.649-0.046-1.301-0.091-1.954-0.137c-0.654-0.015-1.312,0.007-1.969-0.002l-1.975-0.005l-2.103,0.046
			c-2.781,0.026-5.503,0.142-8.344-0.012c-1.405-0.057-2.782-0.056-4.181-0.245c-1.393-0.161-2.75-0.232-4.127-0.572
			c-0.681-0.152-1.366-0.254-2.02-0.446c-0.65-0.202-1.294-0.401-1.932-0.599c-1.178-0.425-2.33-0.841-3.452-1.246
			c-0.544-0.194-1.082-0.385-1.611-0.574c-0.533-0.177-1.07-0.31-1.59-0.477c-0.522-0.16-1.037-0.317-1.541-0.472
			c-0.232-0.07-0.462-0.139-0.69-0.208c-0.259-0.058-0.516-0.116-0.77-0.173c-1.062-0.277-1.889-0.336-2.741-0.459
			c-0.431-0.014-0.851-0.028-1.259-0.042c-0.399,0.023-0.78,0.077-1.163,0.109c-1.487,0.231-2.632,0.935-3.342,1.795
			c-0.709,0.859-1.054,1.756-1.216,2.37c-0.167,0.621-0.193,0.975-0.193,0.975s-0.088-0.342-0.093-1.011
			c0.013-0.658,0.06-1.689,0.668-2.877c0.573-1.183,1.852-2.486,3.662-3.096c0.445-0.131,0.912-0.286,1.396-0.405
			c0.487-0.076,0.988-0.154,1.501-0.234c1.039-0.061,2.208-0.072,3.193,0.034c0.26,0.02,0.522,0.039,0.787,0.059l0.1,0.007
			l0.05,0.004l0.119,0.019l0.204,0.031l0.409,0.062c0.55,0.083,1.111,0.168,1.681,0.254c0.571,0.087,1.152,0.176,1.737,0.293
			c0.582,0.133,1.173,0.269,1.771,0.406c1.222,0.261,2.359,0.617,3.554,0.896c0.571,0.125,1.147,0.251,1.73,0.378
			c0.581,0.126,1.182,0.162,1.777,0.251c1.17,0.196,2.462,0.204,3.731,0.282c1.262,0.099,2.596,0.039,3.917,0.059
			c2.613,0.042,5.431-0.082,8.19-0.136l2.052-0.022l2.171,0.026c0.723,0.012,1.444,0.009,2.161,0.054
			c0.715,0.072,1.427,0.144,2.137,0.216c0.708,0.079,1.417,0.13,2.114,0.233c0.693,0.129,1.384,0.259,2.069,0.387
			c0.683,0.137,1.368,0.239,2.035,0.402c0.663,0.178,1.32,0.354,1.974,0.529c1.311,0.325,2.565,0.752,3.783,1.193
			c1.23,0.404,2.391,0.91,3.519,1.396c2.257,0.971,4.294,2.084,6.123,3.17c1.838,1.075,3.431,2.2,4.808,3.231
			c1.38,1.027,2.51,2.015,3.425,2.836c0.914,0.824,1.578,1.529,2.033,2.001C294.541,432.459,294.762,432.729,294.762,432.729z"/>
	</g>
	<g>
		<path fill="#1E120D" d="M286.144,499.063c0,0-0.086,0.289-0.352,0.799c-0.137,0.249-0.299,0.569-0.533,0.911
			c-0.218,0.359-0.495,0.753-0.844,1.162c-0.668,0.849-1.576,1.812-2.747,2.769c-1.158,0.972-2.562,1.964-4.197,2.855
			c-1.627,0.898-3.456,1.785-5.464,2.479c-0.499,0.186-1.006,0.38-1.524,0.549c-0.522,0.148-1.052,0.299-1.587,0.451
			c-1.071,0.302-2.171,0.629-3.303,0.826c-1.129,0.229-2.281,0.46-3.451,0.656c-1.171,0.15-2.358,0.297-3.558,0.427
			c-1.2,0.16-2.406,0.209-3.621,0.261c-1.213,0.041-2.436,0.13-3.65,0.13c-1.215-0.027-2.43-0.055-3.64-0.081l-1.81-0.051
			l-0.268-0.012l-0.231-0.021l-0.519-0.053l-0.948-0.124c-2.477-0.37-4.818-0.985-7.034-1.73c-2.221-0.724-4.274-1.672-6.173-2.629
			c-0.924-0.536-1.853-0.988-2.686-1.547c-0.828-0.566-1.656-1.054-2.387-1.624c-0.733-0.566-1.456-1.07-2.095-1.614
			c-0.621-0.563-1.209-1.098-1.763-1.6c-1.088-1.015-1.924-2.019-2.64-2.791c-1.313-1.682-1.998-2.661-1.998-2.661
			s1.013,0.688,2.669,1.926c0.882,0.558,1.919,1.263,3.133,2.008c0.617,0.354,1.274,0.73,1.966,1.127
			c0.704,0.365,1.443,0.75,2.215,1.15c1.558,0.764,3.287,1.485,5.122,2.189c1.855,0.659,3.815,1.317,5.889,1.812
			c2.063,0.516,4.23,0.918,6.397,1.174l0.8,0.074l0.36,0.023l0.209,0.011l0.174-0.002l1.736,0.008
			c1.16,0.013,2.324,0.025,3.488,0.038c1.163,0.016,2.318-0.058,3.475-0.081c1.153-0.047,2.31-0.018,3.438-0.138
			c1.132-0.091,2.258-0.163,3.372-0.229c1.104-0.129,2.192-0.256,3.264-0.381c1.084-0.086,2.108-0.322,3.134-0.479
			c0.513-0.085,1.02-0.169,1.52-0.253c0.491-0.112,0.977-0.224,1.455-0.334c0.958-0.22,1.906-0.41,2.782-0.694
			c0.88-0.271,1.775-0.461,2.562-0.791c1.614-0.582,3.076-1.189,4.323-1.835c0.615-0.333,1.207-0.637,1.716-0.969
			c0.523-0.316,1.006-0.616,1.404-0.931c0.832-0.596,1.438-1.138,1.832-1.53C285.954,499.305,286.144,499.063,286.144,499.063z"/>
	</g>
</g>
</svg>
