<?xml version="1.0" encoding="utf-8"?>
<!-- Generator: Adobe Illustrator 16.0.0, SVG Export Plug-In . SVG Version: 6.00 Build 0)  -->
<!DOCTYPE svg PUBLIC "-//W3C//DTD SVG 1.1//EN" "http://www.w3.org/Graphics/SVG/1.1/DTD/svg11.dtd">
<svg version="1.1" id="Layer_2" xmlns="http://www.w3.org/2000/svg" xmlns:xlink="http://www.w3.org/1999/xlink" x="0px" y="0px"
	 width="500px" height="900px" viewBox="0 0 500 900" enable-background="new 0 0 500 900" xml:space="preserve">
<g>
	<path fill="none" stroke="#1E120D" stroke-width="5" stroke-miterlimit="10" d="M482.079,447.309c0,0,26.027-54.392,9.331-125.877
		c0,0-4.911-21.24-15.714-20.203c-10.803,1.036-40.266,96.351-40.266,96.351s-8.84,30.561-32.901-1.038
		c-24.061-31.598-37.32-46.101-32.9-75.11c4.419-29.011,0.002-30.047-6.383-33.671c-6.386-3.625-29.955,27.454-22.59,73.039
		c7.366,45.586,32.409,55.426,33.883,79.256c0,0-10.435,19.295-10.435,28.622c0,9.322-2.578,14.375,5.156,29.137
		c7.733,14.764,8.471,22.145,21.729,24.475c0,0,8.97,8.16,27.135-3.883s11.169,2.719,40.999,4.273c0,0,7.735,3.496,16.205-15.541
		S492.146,472.174,482.079,447.309z"/>
	<path fill="none" stroke="#1E120D" stroke-width="5" stroke-miterlimit="10" d="M482.079,447.309c0,0-17.431,9.712-35.478,7.771
		c-18.047-1.943-48.738-16.838-72.063-15.024"/>
	<g>
		<path fill="#1E120D" d="M425.333,511.939c0,0,0.146-0.077,0.419-0.222c0.172-0.093,0.341-0.167,0.524-0.241
			c0.188-0.076,0.41-0.177,0.646-0.25c0.478-0.176,1.053-0.338,1.706-0.494c0.654-0.128,1.389-0.297,2.183-0.354
			c0.796-0.102,1.648-0.123,2.543-0.129c0.892,0.013,1.825,0.065,2.773,0.171c0.945,0.136,1.922,0.239,2.88,0.48
			c0.48,0.105,0.965,0.212,1.451,0.318l1.427,0.423c0.473,0.146,0.951,0.273,1.414,0.435c0.458,0.174,0.914,0.346,1.367,0.517
			c0.45,0.171,0.896,0.34,1.338,0.507c0.429,0.196,0.852,0.389,1.268,0.579c0.823,0.396,1.645,0.71,2.367,1.129
			c0.731,0.394,1.423,0.766,2.062,1.109c0.644,0.327,1.198,0.693,1.699,0.999c0.498,0.308,0.932,0.576,1.289,0.797
			c0.713,0.441,1.12,0.693,1.12,0.693s-0.443-0.183-1.22-0.503c-0.387-0.159-0.856-0.353-1.395-0.574
			c-0.539-0.219-1.137-0.485-1.82-0.702c-0.675-0.231-1.405-0.482-2.178-0.747c-0.761-0.289-1.609-0.462-2.456-0.711
			c-0.425-0.116-0.857-0.233-1.296-0.353c-0.443-0.09-0.894-0.18-1.346-0.271c-0.451-0.091-0.905-0.183-1.36-0.273
			c-0.457-0.08-0.921-0.123-1.38-0.187l-1.372-0.174c-0.456-0.023-0.911-0.047-1.361-0.07c-0.898-0.078-1.776-0.02-2.618-0.006
			c-0.839,0.045-1.642,0.133-2.386,0.244c-0.742,0.13-1.435,0.26-2.045,0.446c-0.625,0.146-1.151,0.376-1.619,0.546
			c-0.458,0.195-0.838,0.374-1.124,0.541c-0.155,0.075-0.262,0.155-0.364,0.219c-0.11,0.067-0.188,0.119-0.206,0.144
			c-0.11,0.086-0.169,0.132-0.169,0.132L425.333,511.939z"/>
	</g>
	<g>
		<path fill="#1E120D" d="M398.455,527.343c0,0-0.07-0.034-0.201-0.099c-0.141-0.071-0.346-0.175-0.606-0.308
			c-0.5-0.258-1.186-0.646-1.991-1.131c-0.804-0.49-1.722-1.086-2.666-1.778c-0.943-0.696-1.926-1.464-2.833-2.328
			c-0.468-0.406-0.891-0.882-1.315-1.318c-0.424-0.44-0.787-0.939-1.159-1.38c-0.346-0.474-0.648-0.955-0.943-1.392
			c-0.243-0.473-0.473-0.92-0.686-1.333c-0.169-0.433-0.298-0.837-0.421-1.184c-0.144-0.339-0.155-0.676-0.213-0.931
			c-0.088-0.514-0.139-0.807-0.139-0.807s0.125,0.27,0.344,0.741c0.121,0.228,0.206,0.524,0.43,0.81
			c0.203,0.293,0.417,0.626,0.669,0.969c0.288,0.316,0.601,0.659,0.931,1.021c0.376,0.322,0.751,0.67,1.162,1.001
			c0.443,0.305,0.86,0.646,1.342,0.933c0.483,0.285,0.946,0.594,1.462,0.842c0.989,0.538,2.038,0.979,3.022,1.363
			c0.988,0.382,1.93,0.685,2.739,0.921c0.811,0.23,1.489,0.404,1.956,0.504c0.224,0.046,0.398,0.082,0.518,0.106
			c0.13,0.026,0.199,0.04,0.199,0.04L398.455,527.343z"/>
	</g>
	<path fill="none" stroke="#1E120D" stroke-width="5" stroke-miterlimit="10" d="M473.577,302.386c0,0-6.474-4.523-15.559,18.527
		s-26.762,81.022-35.109,85.319c0,0-7.894,3.087-17.083-5.632"/>
</g>
<g>
	<path fill="none" stroke="#1E120D" stroke-width="5" stroke-miterlimit="10" d="M19.921,447.63c0,0-26.028-54.166-9.331-125.356
		c0,0,4.912-21.15,15.714-20.119c10.804,1.033,40.267,95.951,40.267,95.951s8.84,30.438,32.9-1.032
		c24.062-31.466,37.318-45.91,32.9-74.8c-4.42-28.889-0.002-29.921,6.384-33.531c6.384-3.61,29.954,27.339,22.588,72.737
		c-7.364,45.397-32.408,55.197-33.882,78.929c0,0,10.436,19.215,10.436,28.501s2.578,14.314-5.157,29.019
		c-7.734,14.703-8.472,22.053-21.729,24.373c0,0-8.969,8.126-27.136-3.868c-18.164-11.992-11.167,2.708-40.998,4.257
		c0,0-7.734,3.481-16.205-15.477C18.201,488.254,9.855,472.39,19.921,447.63z"/>
	<path fill="none" stroke="#1E120D" stroke-width="5" stroke-miterlimit="10" d="M19.921,447.63c0,0,17.431,9.674,35.478,7.739
		c18.046-1.935,48.737-16.768,72.063-14.961"/>
	<g>
		<path fill="#1E120D" d="M73.91,516.155c0,0-0.059-0.046-0.169-0.132c-0.019-0.024-0.096-0.076-0.206-0.143
			c-0.104-0.063-0.21-0.144-0.365-0.219c-0.286-0.166-0.667-0.345-1.125-0.539c-0.469-0.17-0.995-0.398-1.62-0.545
			c-0.611-0.186-1.303-0.315-2.045-0.445c-0.744-0.111-1.547-0.198-2.386-0.244c-0.842-0.014-1.719-0.073-2.618,0.005
			c-0.451,0.022-0.905,0.046-1.361,0.069l-1.372,0.172c-0.458,0.063-0.922,0.106-1.379,0.186c-0.456,0.091-0.91,0.182-1.36,0.271
			c-0.453,0.091-0.902,0.18-1.346,0.269c-0.438,0.119-0.871,0.235-1.296,0.351c-0.847,0.248-1.695,0.42-2.456,0.707
			c-0.772,0.264-1.503,0.514-2.178,0.744c-0.684,0.215-1.282,0.48-1.821,0.698c-0.539,0.221-1.009,0.413-1.396,0.572
			c-0.776,0.318-1.22,0.5-1.22,0.5s0.407-0.251,1.121-0.69c0.358-0.221,0.792-0.488,1.291-0.796c0.5-0.305,1.056-0.669,1.7-0.995
			c0.638-0.343,1.33-0.713,2.062-1.105c0.724-0.417,1.545-0.73,2.368-1.125c0.416-0.189,0.839-0.382,1.268-0.577
			c0.441-0.167,0.888-0.335,1.338-0.505c0.453-0.171,0.909-0.343,1.367-0.515c0.463-0.161,0.94-0.288,1.414-0.434l1.426-0.421
			c0.486-0.106,0.97-0.213,1.451-0.318c0.958-0.24,1.934-0.343,2.878-0.479c0.948-0.104,1.881-0.158,2.772-0.171
			c0.894,0.006,1.746,0.026,2.541,0.128c0.794,0.057,1.527,0.225,2.181,0.352c0.653,0.154,1.228,0.316,1.706,0.491
			c0.236,0.072,0.457,0.172,0.646,0.249c0.183,0.074,0.352,0.146,0.524,0.239c0.273,0.144,0.419,0.221,0.419,0.221L73.91,516.155z"
			/>
	</g>
	<g>
		<path fill="#1E120D" d="M101.949,522.605c0,0,0.26-0.053,0.716-0.145c0.467-0.1,1.145-0.271,1.955-0.501
			c0.809-0.233,1.749-0.534,2.736-0.913c0.983-0.381,2.032-0.818,3.021-1.354c0.515-0.246,0.978-0.553,1.46-0.836
			c0.482-0.284,0.899-0.625,1.343-0.929c0.412-0.327,0.786-0.675,1.163-0.995c0.331-0.36,0.643-0.702,0.931-1.017
			c0.253-0.342,0.467-0.673,0.67-0.965c0.224-0.285,0.31-0.58,0.431-0.808c0.219-0.471,0.344-0.739,0.344-0.739
			s-0.051,0.293-0.14,0.806c-0.058,0.254-0.07,0.591-0.213,0.929c-0.124,0.346-0.252,0.749-0.423,1.181
			c-0.213,0.411-0.444,0.857-0.688,1.329c-0.296,0.435-0.598,0.916-0.945,1.387c-0.372,0.438-0.735,0.938-1.16,1.374
			c-0.425,0.437-0.848,0.909-1.315,1.313c-0.907,0.861-1.89,1.625-2.832,2.318c-0.944,0.689-1.861,1.283-2.664,1.771
			c-0.805,0.484-1.49,0.869-1.989,1.127c-0.513,0.258-0.807,0.404-0.807,0.404L101.949,522.605z"/>
	</g>
	<path fill="none" stroke="#1E120D" stroke-width="5" stroke-miterlimit="10" d="M28.423,303.307c0,0,6.474-4.505,15.559,18.451
		s26.761,80.687,35.11,84.965c0,0,7.893,3.077,17.082-5.606"/>
</g>
<g>
	<path fill="none" stroke="#1E120D" stroke-width="5" stroke-miterlimit="10" d="M301.099,287.321c0,0-13.996-23.571-3.683-47.509
		c10.312-23.939,32.041-66.292,7.733-100.174c0,0-5.739-8.103-11.524-4.052c-5.784,4.052,3.424,9.944,2.686,19.887
		c-0.736,9.944-1.473,39.407-32.04,74.763c0,0-7.734,10.312-15.469,9.944s-15.1-17.678-15.1-17.678s-20.993-40.88-21.36-82.129
		c-0.369-41.248-19.151-10.681-20.993,0.368c-1.841,11.049-8.471,41.617,2.946,72.185c11.417,30.568,17.31,54.139,10.681,74.394
		c-6.629,20.258-11.785,32.41-11.049,46.773c0.737,14.362,20.625,21.36,25.043,20.993c4.42-0.37,31.307-13.261,31.307-13.261
		s16.571,10.2,20.622,10.625c4.052,0.425,13.627-6.205,13.627-6.205s21.729,1.844,25.412-19.15
		C313.62,306.104,301.099,287.321,301.099,287.321z"/>
	<path fill="none" stroke="#1E120D" stroke-width="5" stroke-miterlimit="10" d="M298.404,281.694c0,0-31.188-20.521-65.438-17.206
		c0,0-15.143,2.161-25.617,11.761"/>
	<g>
		<polygon fill="#1E120D" points="247.777,341.827 250.277,331.515 252.777,341.827 		"/>
	</g>
	<g>
		<path fill="#1E120D" d="M282.882,344.363c0,0,0.22-0.136,0.604-0.373c0.355-0.237,1.029-0.581,1.746-0.979
			c0.365-0.197,0.761-0.411,1.179-0.638c0.414-0.242,0.86-0.403,1.315-0.611c0.906-0.395,1.874-0.815,2.842-1.236
			c0.485-0.199,0.947-0.439,1.445-0.588c0.487-0.166,0.967-0.329,1.431-0.487c0.923-0.313,1.783-0.604,2.521-0.854
			c1.463-0.493,2.438-0.822,2.438-0.822s-0.835,0.607-2.086,1.519c-0.62,0.452-1.343,0.98-2.117,1.545
			c-0.385,0.281-0.781,0.571-1.185,0.867c-0.413,0.277-0.777,0.643-1.167,0.965c-0.76,0.66-1.521,1.319-2.233,1.938
			c-0.346,0.311-0.715,0.592-0.986,0.898c-0.285,0.295-0.555,0.574-0.805,0.831c-0.498,0.528-0.892,0.887-1.192,1.257
			c-0.295,0.34-0.463,0.535-0.463,0.535L282.882,344.363z"/>
	</g>
	<path fill="none" stroke="#1E120D" stroke-width="5" stroke-miterlimit="10" d="M285.538,198.312c0,0-8.01-44.68-22.741-57.202
		c-14.731-12.521-22.833-10.68-20.993,13.259c1.842,23.938-4.318,63.394-13.022,57.293"/>
</g>
<g>
	<path fill="none" stroke="#1C110B" stroke-width="5" stroke-miterlimit="10" d="M278.67,746.374
		c6.193-15.579,14.566-41.351,14.8-67.271c0.367-41.247,19.149-10.679,20.991,0.369c1.842,11.049,8.472,41.617-2.946,72.185
		c-11.417,30.568-15.604,48.511-8.974,68.767c6.629,20.258,13.994,38.148,13.258,52.514c-0.736,14.363-22.828,24.602-27.253,24.307
		c-22.098-1.475-30.248-13.504-36.547-14.732s-17.223,11.785-23.853,11.049c-4.049-0.449-21.731-2.332-28.359-20.381
		c-7.349-20.006,5.894-39.281,5.894-39.281s15.467-29.707,2.455-53.523c-12.498-22.875-35.89-61.533-11.583-95.415
		c0,0,5.921-11.636,11.706-7.585s-1.104,9.576-0.367,19.52c0.439,5.951,1.457,17.93,8.754,34.167"/>
	<g>
		<path fill="#1C110B" d="M284.249,787.74c-1.028-3.521-1.866-7.071-2.716-10.62l-1.19-5.335l-1.098-5.35
			c-0.726-3.568-1.363-7.148-2.021-10.727c-0.591-3.588-1.233-7.168-1.783-10.762l-1.625-10.787l-1.528-10.801
			c-0.511-3.6-0.949-7.21-1.428-10.814c-0.49-3.599-0.87-7.234-1.309-10.85l-1.236-10.863l-0.612-5.431l-0.274-2.693
			c-0.102-0.882-0.192-1.762-0.314-2.648c-0.444-3.542-1.103-7.044-2.026-10.425c-0.938-3.341-2.22-6.682-4.236-9.063
			c-1.008-1.174-2.194-1.973-3.48-2.188c-1.287-0.239-2.735,0.132-4.149,0.809c-2.827,1.48-5.41,3.927-7.699,6.569
			c-2.281,2.678-4.426,5.526-6.378,8.529c-1.014,1.47-1.915,3.032-2.877,4.542l-2.733,4.647l0.085-0.162
			c-0.809,1.808-1.59,3.738-2.331,5.637c-0.747,1.908-1.447,3.838-2.143,5.768c-1.373,3.868-2.632,7.778-3.771,11.72
			c-0.575,1.97-1.107,3.951-1.619,5.936c-0.522,1.983-1.017,3.972-1.488,5.966c-0.448,1.998-0.901,3.996-1.283,6.007
			c-0.432,2.002-0.778,4.019-1.134,6.033c-0.331,2.018-0.644,4.039-0.893,6.067c-0.278,2.025-0.511,4.055-0.715,6.088l-0.266,3.053
			l-0.205,3.057c-0.086,1.021-0.126,2.04-0.159,3.061c-0.027,1.021-0.1,2.044-0.091,3.065l-0.041,3.068
			c-0.013,1.024,0.037,2.045,0.052,3.07c0.026,2.051,0.163,4.095,0.278,6.15c0.207,2.041,0.31,4.109,0.622,6.151
			c0.194,2.066,0.595,4.096,0.875,6.176c-0.753-1.94-1.558-3.89-2.132-5.906c-0.63-2.004-1.136-4.044-1.598-6.101
			c-0.223-1.028-0.392-2.066-0.59-3.103l-0.284-1.558l-0.199-1.566c-0.293-2.091-0.492-4.19-0.648-6.297
			c-0.085-1.053-0.089-2.106-0.138-3.161c-0.044-1.056-0.079-2.11-0.067-3.165c-0.044-2.113,0.062-4.22,0.164-6.327
			c0.032-1.056,0.143-2.104,0.211-3.156c0.079-1.052,0.145-2.105,0.281-3.149c0.22-2.098,0.504-4.185,0.807-6.27
			c0.328-2.079,0.647-4.162,1.054-6.227c0.391-2.068,0.854-4.121,1.312-6.173c0.485-2.046,0.977-4.091,1.53-6.118
			c0.563-2.024,1.146-4.043,1.773-6.047c1.243-4.013,2.606-7.984,4.086-11.914c0.744-1.963,1.515-3.916,2.335-5.853
			c0.823-1.946,1.648-3.845,2.589-5.803l0.052-0.106l0.035-0.056l2.922-4.674c1.032-1.527,1.993-3.091,3.083-4.587
			c2.078-3.045,4.351-5.989,6.834-8.796c2.516-2.771,5.242-5.493,8.889-7.38c1.84-0.882,4.064-1.505,6.384-1.118
			c2.327,0.369,4.292,1.785,5.641,3.344c2.712,3.194,4.013,6.855,5.152,10.434c1.082,3.607,1.805,7.259,2.399,10.909
			c0.154,0.909,0.28,1.834,0.415,2.754l0.364,2.721l0.78,5.383l1.55,10.765c0.519,3.59,0.974,7.176,1.545,10.768
			c0.54,3.593,1.119,7.18,1.627,10.777l1.524,10.79l1.435,10.804c0.498,3.599,0.904,7.211,1.361,10.816
			c0.391,3.615,0.802,7.227,1.124,10.852l0.476,5.439l0.392,5.452C283.99,780.43,284.214,784.071,284.249,787.74z"/>
	</g>
	<path fill="none" stroke="#1C110B" stroke-width="5" stroke-miterlimit="10" d="M299.639,806.543c0,0-21.405,13.359-43.502,12.256
		c-22.097-1.105-40.763-9.617-42.847-14.385"/>
	<g>
		<path fill="#1C110B" d="M297.017,876.988c0,0-0.059,0.595-0.389,1.574c-0.17,0.486-0.393,1.08-0.722,1.73
			c-0.334,0.646-0.764,1.357-1.324,2.088c-0.574,0.717-1.258,1.479-2.137,2.149c-0.217,0.173-0.441,0.342-0.674,0.509
			c-0.249,0.148-0.501,0.298-0.755,0.449c-0.5,0.331-1.089,0.532-1.674,0.775c-0.586,0.246-1.237,0.348-1.88,0.507
			c-0.652,0.072-1.33,0.159-2.002,0.144l-1.009-0.071l-0.508-0.041l-0.127-0.014l-0.229-0.048l-0.201-0.044l-1.62-0.357
			c-1.029-0.205-2.271-0.676-3.392-1.104c-0.589-0.2-1.098-0.456-1.599-0.716c-0.505-0.254-1.005-0.5-1.484-0.765
			c-0.938-0.539-1.817-1.108-2.626-1.656c-0.786-0.558-1.534-1.121-2.185-1.628c-0.652-0.504-1.247-1.029-1.769-1.426
			c-0.527-0.399-0.973-0.842-1.366-1.107c-0.785-0.557-1.267-0.948-1.267-0.948s0.568-0.04,1.62,0.019
			c0.531,0.026,1.125,0.151,1.835,0.288c0.722,0.133,1.45,0.363,2.282,0.603c1.635,0.503,3.445,1.149,5.32,1.825
			c0.935,0.275,1.922,0.683,2.841,0.935c0.951,0.242,1.771,0.606,2.924,0.814l1.61,0.399l0.2,0.05l0.05,0.013l0.025,0.006
			l0.013,0.004c-0.053-0.012,0.135,0.028-0.114-0.023l0.078,0.009l0.312,0.046l0.622,0.103c0.414,0.035,0.82,0.026,1.232,0.059
			c0.4-0.063,0.813-0.047,1.213-0.128c0.398-0.085,0.804-0.138,1.192-0.275c0.198-0.058,0.396-0.115,0.59-0.172
			c0.188-0.081,0.376-0.161,0.567-0.232c0.763-0.292,1.472-0.688,2.138-1.072c0.66-0.395,1.26-0.808,1.797-1.191
			c0.524-0.396,1.004-0.746,1.382-1.059c0.383-0.32,0.684-0.571,0.888-0.742C296.906,877.084,297.017,876.988,297.017,876.988z"/>
	</g>
</g>
<g>
	<path fill="none" stroke="#1C110B" stroke-width="5" stroke-miterlimit="10" d="M308.499,466.282c0,0,6.999-51.56-22.834-61.135
		c-29.829-9.577-26.148-21.361-51.929-19.889c-25.778,1.473-41.058,30.937-40.417,53.402c0.641,22.465,6.535,43.827,14.27,60.031
		s20.625,27.922,36.091,26.114c15.468-1.807,19.152-7.05,29.097-9.218c9.943-2.167,21.123,4.464,31.186-9.9
		C314.024,491.325,310.341,468.124,308.499,466.282z"/>
	<g>
		<path fill="#1C110B" d="M294.873,480.275c-1.793-1.045-3.531-2.156-5.272-3.265c-1.716-1.141-3.451-2.256-5.141-3.428l0.192,0.13
			c-2.763-1.267-5.499-2.571-8.209-3.937l-4.037-2.119l-2.011-1.076l-2.001-1.174l-3.897-2.335
			c-0.642-0.393-1.298-0.813-1.896-1.106c-0.621-0.321-1.191-0.656-1.864-0.98c-0.656-0.319-1.292-0.663-1.964-0.964l-2.002-0.92
			l-2.02-0.894c-0.671-0.291-1.365-0.579-2.018-0.84l1.189,0.146c-2.047,0.208-4.048,0.376-6.076,0.499l-3.038,0.146
			c-1.014,0.044-2.035,0.037-3.05,0.057c-1.013,0.029-2.037,0.012-3.062-0.03c-1.028-0.052-2.034-0.021-3.076-0.141l-3.097-0.303
			l-3.153-0.648l0.314,0.033c-1.197-0.093-2.394-0.173-3.591-0.275l-3.59-0.342c-1.197-0.103-2.394-0.267-3.591-0.396
			c-1.197-0.136-2.394-0.302-3.59-0.48c1.197-0.179,2.394-0.345,3.59-0.48c1.197-0.13,2.394-0.294,3.591-0.396l3.59-0.342
			c1.197-0.103,2.394-0.183,3.591-0.275l0.314,0.033l2.797,0.148l2.901-0.064c0.957,0.003,1.953-0.111,2.925-0.161
			c0.977-0.063,1.953-0.122,2.938-0.223c1.961-0.167,3.926-0.364,5.891-0.573c1.959-0.225,3.943-0.433,5.871-0.693l0.601-0.082
			l0.589,0.229c0.753,0.292,1.456,0.574,2.174,0.876c0.716,0.291,1.423,0.606,2.132,0.915c0.711,0.303,1.404,0.659,2.106,0.985
			c0.703,0.325,1.394,0.705,2.09,1.055c0.688,0.333,1.413,0.774,2.115,1.179c0.74,0.41,1.342,0.828,1.975,1.243l3.76,2.504
			l1.832,1.237l1.899,1.209l3.782,2.453l3.793,2.464l3.773,2.504l0.187,0.124l0.006,0.006c1.502,1.404,2.958,2.866,4.435,4.303
			C292.021,477.278,293.474,478.743,294.873,480.275z"/>
	</g>
	<g>
		<path fill="#1C110B" d="M283.074,471.402c0,0,0.05-0.077,0.144-0.223c0.082-0.133,0.202-0.328,0.355-0.576
			c0.145-0.247,0.331-0.518,0.526-0.906c0.2-0.376,0.426-0.8,0.672-1.262c0.238-0.471,0.466-0.999,0.726-1.551
			c0.258-0.553,0.535-1.138,0.762-1.768c0.243-0.627,0.495-1.274,0.75-1.933c0.271-0.658,0.44-1.356,0.669-2.042
			c0.216-0.693,0.432-1.386,0.645-2.068c0.163-0.695,0.323-1.381,0.479-2.044c0.155-0.668,0.305-1.313,0.446-1.927
			c0.164-0.612,0.2-1.204,0.297-1.746c0.324-2.189,0.541-3.648,0.541-3.648s0.096,1.479,0.239,3.695
			c0.02,0.557,0.109,1.167,0.078,1.804c-0.01,0.642-0.021,1.318-0.031,2.019c-0.014,0.704-0.027,1.433-0.041,2.172
			c-0.066,0.738-0.134,1.488-0.201,2.237c-0.082,0.75-0.107,1.515-0.237,2.248c-0.118,0.74-0.234,1.468-0.347,2.172
			c-0.097,0.711-0.254,1.387-0.4,2.03c-0.148,0.644-0.271,1.258-0.419,1.82c-0.16,0.563-0.307,1.078-0.437,1.535
			c-0.117,0.451-0.281,0.88-0.396,1.222c-0.119,0.334-0.213,0.597-0.276,0.775c-0.062,0.162-0.095,0.249-0.095,0.249
			L283.074,471.402z"/>
	</g>
	<g>
		<path fill="#1C110B" d="M286.359,471.727c0,0-0.011,0.14-0.03,0.401c-0.015,0.248-0.084,0.731-0.152,1.281
			c-0.039,0.277-0.073,0.598-0.13,0.918c-0.064,0.308-0.136,0.64-0.211,0.994c-0.168,0.702-0.284,1.521-0.549,2.354
			c-0.249,0.836-0.519,1.743-0.804,2.701c-0.264,0.963-0.704,1.913-1.07,2.926c-0.408,0.996-0.739,2.06-1.24,3.067
			c-0.483,1.011-0.974,2.038-1.465,3.065c-0.49,1.024-0.957,2.056-1.547,3.006c-0.556,0.963-1.103,1.91-1.632,2.828
			c-0.535,0.911-1.023,1.806-1.535,2.624c-0.545,0.799-1.06,1.554-1.535,2.251c-1.894,2.773-3.156,4.622-3.156,4.622
			s0.99-2.003,2.477-5.008c0.369-0.748,0.77-1.558,1.193-2.414c0.389-0.873,0.744-1.819,1.141-2.78
			c0.389-0.963,0.79-1.957,1.198-2.968c0.44-0.994,0.75-2.058,1.082-3.107c0.332-1.047,0.663-2.095,0.989-3.125
			c0.342-1.022,0.509-2.074,0.762-3.062c0.209-0.997,0.501-1.943,0.615-2.862c0.137-0.912,0.267-1.774,0.386-2.569
			c0.138-0.794,0.128-1.514,0.192-2.151c0.022-0.317,0.044-0.615,0.064-0.89c0.008-0.264-0.004-0.484-0.003-0.693
			c-0.009-0.425,0.008-0.705-0.015-0.98c-0.017-0.261-0.025-0.4-0.025-0.4L286.359,471.727z"/>
	</g>
	<g>
		<path fill="#1C110B" d="M268.385,463.153c0,0-0.217,0.194-0.595,0.534c-0.178,0.169-0.394,0.344-0.646,0.603
			c-0.253,0.253-0.538,0.538-0.85,0.849c-0.318,0.307-0.628,0.676-0.978,1.048c-0.337,0.382-0.726,0.763-1.071,1.202
			c-0.357,0.433-0.727,0.879-1.103,1.334c-0.389,0.449-0.737,0.936-1.093,1.422c-0.357,0.487-0.716,0.975-1.068,1.454
			c-0.359,0.479-0.646,0.987-0.961,1.462c-0.308,0.481-0.604,0.947-0.887,1.389c-0.297,0.438-0.521,0.876-0.738,1.279
			c-0.875,1.624-1.458,2.707-1.458,2.707s0.294-1.201,0.734-3.003c0.111-0.453,0.223-0.95,0.401-1.452
			c0.166-0.51,0.34-1.048,0.521-1.604c0.191-0.554,0.351-1.147,0.584-1.718c0.229-0.574,0.462-1.158,0.694-1.742
			c0.233-0.587,0.462-1.179,0.736-1.736c0.264-0.565,0.523-1.122,0.775-1.661c0.241-0.548,0.536-1.043,0.785-1.533
			c0.263-0.483,0.489-0.953,0.74-1.366c0.246-0.418,0.471-0.802,0.671-1.141c0.193-0.339,0.412-0.648,0.568-0.897
			c0.315-0.476,0.495-0.747,0.495-0.747L268.385,463.153z"/>
	</g>
	<g>
		<path fill="#1C110B" d="M234.55,457.648c0,0-0.063,0.061-0.18,0.174c-0.1,0.092-0.269,0.266-0.485,0.491
			c-0.427,0.457-1.046,1.126-1.742,1.988c-0.705,0.854-1.489,1.894-2.282,3.05c-0.789,1.157-1.597,2.428-2.322,3.75
			c-0.385,0.652-0.709,1.333-1.053,1.996c-0.355,0.66-0.624,1.342-0.929,1.989c-0.312,0.646-0.531,1.298-0.783,1.906
			c-0.254,0.608-0.449,1.198-0.628,1.745c-0.387,1.087-0.635,2.017-0.808,2.67c-0.178,0.653-0.28,1.027-0.28,1.027
			s0.025-0.386,0.068-1.062c0.039-0.679,0.096-1.65,0.258-2.81c0.068-0.583,0.143-1.216,0.271-1.875
			c0.126-0.66,0.216-1.373,0.395-2.087c0.173-0.715,0.309-1.474,0.531-2.217c0.211-0.747,0.403-1.521,0.66-2.27
			c0.469-1.519,1.036-3.009,1.615-4.395c0.583-1.383,1.188-2.656,1.757-3.731c0.557-1.079,1.086-1.958,1.467-2.58
			c0.195-0.309,0.35-0.553,0.481-0.739c0.113-0.165,0.173-0.253,0.173-0.253L234.55,457.648z"/>
	</g>
	<g>
		<path fill="#1C110B" d="M251.62,453.564c0,0,0.066-0.074,0.19-0.213c0.139-0.149,0.248-0.299,0.441-0.525
			c0.093-0.111,0.195-0.233,0.308-0.366c0.112-0.157,0.234-0.328,0.365-0.51c0.256-0.371,0.571-0.768,0.872-1.244
			c0.3-0.483,0.623-1.006,0.966-1.559c0.363-0.544,0.658-1.175,1.002-1.808c0.33-0.64,0.702-1.292,1.028-1.98
			c0.309-0.699,0.623-1.409,0.938-2.12c0.302-0.717,0.665-1.418,0.901-2.15c0.262-0.726,0.52-1.441,0.77-2.132
			c0.251-0.696,0.493-1.369,0.724-2.006c0.185-0.652,0.359-1.269,0.521-1.837c0.648-2.292,1.081-3.82,1.081-3.82
			s-0.125,1.587-0.313,3.967c-0.048,0.599-0.1,1.248-0.155,1.935c-0.102,0.681-0.209,1.398-0.32,2.141
			c-0.113,0.747-0.229,1.518-0.348,2.302c-0.094,0.792-0.315,1.569-0.479,2.363c-0.178,0.793-0.355,1.587-0.53,2.368
			c-0.194,0.778-0.443,1.531-0.656,2.271c-0.229,0.735-0.409,1.461-0.679,2.123c-0.251,0.67-0.488,1.304-0.707,1.89
			c-0.226,0.586-0.49,1.112-0.697,1.587c-0.107,0.237-0.208,0.459-0.302,0.664c-0.116,0.216-0.223,0.415-0.319,0.595
			c-0.191,0.348-0.36,0.666-0.449,0.811c-0.095,0.161-0.146,0.246-0.146,0.246L251.62,453.564z"/>
	</g>
	<g>
		<path fill="#1C110B" d="M233.407,458.034c0,0-0.11-0.043-0.315-0.125c-0.231-0.09-0.556-0.224-0.926-0.393
			c-0.763-0.337-1.811-0.852-3.028-1.53c-1.212-0.686-2.592-1.533-3.987-2.556c-0.709-0.489-1.388-1.081-2.099-1.633
			c-0.67-0.615-1.375-1.198-2.013-1.86c-0.629-0.672-1.292-1.295-1.84-2.017c-0.575-0.692-1.13-1.374-1.585-2.101
			c-0.237-0.353-0.47-0.699-0.698-1.038c-0.214-0.348-0.39-0.711-0.577-1.05c-0.365-0.686-0.73-1.313-0.953-1.956
			c-0.248-0.622-0.474-1.191-0.675-1.696c-0.141-0.524-0.263-0.98-0.364-1.356c-0.199-0.745-0.312-1.17-0.312-1.17
			s0.187,0.399,0.515,1.097c0.162,0.345,0.359,0.765,0.584,1.246c0.28,0.45,0.597,0.957,0.941,1.511
			c0.314,0.566,0.775,1.104,1.231,1.684c0.233,0.286,0.453,0.592,0.71,0.879c0.27,0.277,0.544,0.561,0.824,0.849
			c0.534,0.593,1.164,1.13,1.803,1.668c0.609,0.565,1.332,1.031,2.004,1.535c0.682,0.494,1.426,0.91,2.12,1.354
			c0.741,0.384,1.434,0.804,2.155,1.129c1.414,0.692,2.784,1.226,3.962,1.64c1.182,0.405,2.178,0.689,2.867,0.855
			c0.353,0.09,0.602,0.142,0.764,0.174c0.188,0.038,0.288,0.059,0.288,0.059L233.407,458.034z"/>
	</g>
	<g>
		<path fill="#1C110B" d="M234.855,458.496c0,0-0.128-0.066-0.369-0.19c-0.07-0.038-0.149-0.08-0.235-0.127
			c-0.065-0.042-0.137-0.087-0.214-0.136c-0.149-0.1-0.34-0.209-0.513-0.344c-0.367-0.261-0.786-0.591-1.225-0.992
			c-0.439-0.401-0.909-0.867-1.367-1.407c-0.224-0.271-0.458-0.554-0.7-0.847c-0.214-0.307-0.436-0.623-0.663-0.949
			c-0.457-0.646-0.839-1.378-1.249-2.114c-0.343-0.769-0.763-1.528-1.033-2.354c-0.148-0.406-0.298-0.815-0.449-1.226
			c-0.142-0.412-0.24-0.837-0.361-1.253l-0.342-1.25c-0.081-0.421-0.162-0.84-0.242-1.255c-0.079-0.413-0.157-0.823-0.234-1.228
			c-0.062-0.407-0.097-0.812-0.146-1.207c-0.075-0.793-0.21-1.547-0.223-2.274c-0.03-0.722-0.059-1.404-0.085-2.034
			c-0.057-1.254,0.032-2.303,0.031-3.03c0.019-0.727,0.029-1.142,0.029-1.142s0.067,0.411,0.186,1.13
			c0.137,0.715,0.243,1.745,0.53,2.952c0.141,0.601,0.293,1.252,0.455,1.94c0.143,0.689,0.412,1.388,0.624,2.121
			c0.116,0.363,0.221,0.736,0.351,1.104c0.144,0.363,0.29,0.73,0.437,1.101c0.146,0.368,0.292,0.738,0.44,1.11l0.528,1.075
			c0.181,0.354,0.339,0.718,0.535,1.059c0.202,0.335,0.402,0.669,0.602,1.001c0.369,0.678,0.859,1.251,1.264,1.843
			c0.462,0.545,0.886,1.088,1.349,1.527c0.227,0.222,0.448,0.438,0.662,0.646c0.227,0.186,0.446,0.365,0.657,0.538
			c0.419,0.338,0.826,0.605,1.181,0.823c0.359,0.22,0.671,0.378,0.925,0.491c0.128,0.067,0.234,0.093,0.328,0.134
			c0.046,0.018,0.089,0.035,0.128,0.051c0.022,0.003,0.042,0.007,0.06,0.01c0.036,0.005,0.183,0.052,0.176,0.049L234.855,458.496z"
			/>
	</g>
	<g>
		<path fill="#1C110B" d="M263.937,509.372c0,0-0.86,0.379-2.365,1.042c-0.739,0.331-1.638,0.732-2.667,1.193
			c-1.016,0.471-2.136,1.034-3.295,1.663c-0.539,0.349-1.116,0.657-1.768,1.085c-0.299,0.202-0.722,0.41-1.092,0.617
			c-0.386,0.184-0.777,0.371-1.175,0.562c-1.62,0.697-3.473,1.207-5.434,1.353c-1.958,0.158-4.002-0.011-5.993-0.465
			c-1.96-0.515-3.914-1.209-5.67-2.183c-0.911-0.446-1.737-0.999-2.57-1.535c-0.86-0.508-1.594-1.149-2.367-1.733
			c-0.787-0.572-1.472-1.23-2.16-1.869c-0.344-0.318-0.686-0.636-1.025-0.949c-0.305-0.299-0.608-0.596-0.909-0.89
			c-1.245-1.205-2.422-2.433-3.538-3.539c-1.114-1.088-2.168-2.117-3.141-3.067c-0.5-0.464-0.98-0.909-1.437-1.333
			c-0.453-0.433-0.876-0.862-1.305-1.202c-0.851-0.703-1.57-1.381-2.223-1.827c-0.636-0.5-1.168-0.812-1.548-1.033
			c-0.198-0.09-0.349-0.159-0.451-0.206c-0.109-0.029-0.166-0.045-0.166-0.045s0.059-0.01,0.174-0.03
			c0.117,0.001,0.291,0.002,0.518,0.004c0.434,0.068,1.13,0.13,1.913,0.418c0.825,0.229,1.76,0.619,2.822,1.112
			c1.077,0.478,2.192,1.132,3.451,1.831c1.219,0.743,2.497,1.612,3.861,2.536c1.317,0.944,2.626,1.973,3.997,3.05
			c0.676,0.534,1.363,1.077,2.059,1.627c0.673,0.519,1.329,1.076,2.04,1.548c0.703,0.484,1.393,1.012,2.129,1.437
			c0.725,0.45,1.446,0.918,2.207,1.274l1.118,0.592l1.146,0.488c0.755,0.36,1.537,0.559,2.3,0.839
			c1.548,0.424,3.092,0.686,4.605,0.733c1.513,0.048,2.984-0.134,4.37-0.478c0.345-0.096,0.686-0.19,1.021-0.284
			c0.331-0.118,0.617-0.191,0.982-0.335c0.677-0.265,1.435-0.519,2.15-0.764c0.713-0.188,1.386-0.37,2.032-0.506
			c0.645-0.112,1.255-0.22,1.829-0.319c1.144-0.184,2.149-0.267,2.975-0.33C262.988,509.337,263.937,509.372,263.937,509.372z"/>
	</g>
	<g>
		<path fill="#1C110B" d="M281.615,420.983c0,0-0.296-0.005-0.851-0.016c-0.552-0.028-1.37-0.033-2.397-0.115
			c-1.031-0.066-2.284-0.148-3.712-0.309c-1.431-0.154-3.045-0.322-4.804-0.615c-0.883-0.155-1.79-0.276-2.752-0.501
			c-0.964-0.217-1.923-0.395-3.032-0.795c-0.271-0.091-0.544-0.183-0.819-0.275l-0.103-0.036l-0.052-0.018
			c-0.043-0.021,0.061,0.036-0.104-0.051l-0.021-0.011l-0.172-0.085l-0.344-0.173c-0.445-0.208-0.989-0.551-1.489-0.831
			c-0.95-0.556-1.854-1.129-2.785-1.703c-1.856-1.144-3.744-2.337-5.678-3.486c-1.935-1.154-3.902-2.292-5.905-3.329
			c-1-0.517-1.993-1.052-3.008-1.5c-1.006-0.486-2.014-0.918-3.023-1.328c-0.501-0.224-1.007-0.403-1.513-0.568
			c-0.503-0.18-1.003-0.359-1.5-0.537c-0.501-0.137-1-0.272-1.496-0.407c-0.497-0.13-0.987-0.295-1.475-0.357
			c-0.49-0.089-0.975-0.178-1.456-0.266c-0.484-0.101-0.949-0.074-1.419-0.129l-0.701-0.055l-0.349-0.028l-0.021-0.002
			c0.168-0.015,0.033-0.003,0.064-0.006l-0.049,0.002l-0.097,0.004l-0.193,0.008c-0.516,0.02-1.024,0.04-1.527,0.059
			c-0.534-0.002-0.909,0.083-1.353,0.124c-0.429,0.062-0.853,0.067-1.277,0.173c-0.427,0.085-0.846,0.169-1.258,0.251
			c-0.409,0.094-0.789,0.239-1.182,0.343c-1.523,0.5-2.905,1.111-3.996,1.882c-1.091,0.764-1.984,1.56-2.647,2.301
			c-0.639,0.754-1.11,1.402-1.39,1.872c-0.28,0.469-0.406,0.739-0.406,0.739s0.016-0.297,0.14-0.847
			c0.138-0.541,0.356-1.349,0.827-2.313c0.479-0.953,1.174-2.084,2.224-3.198c1.024-1.141,2.431-2.204,4.11-3.101
			c0.423-0.212,0.857-0.445,1.312-0.636c0.462-0.175,0.933-0.353,1.412-0.534c0.47-0.204,1.01-0.294,1.532-0.442
			c0.517-0.124,1.102-0.3,1.573-0.36c0.496-0.081,0.999-0.162,1.508-0.245l0.191-0.03l0.096-0.015l0.048-0.008l0.139-0.011
			l0.43-0.02l0.871-0.037c0.58-0.009,1.188-0.082,1.768-0.016c0.585,0.053,1.176,0.105,1.771,0.159
			c0.605,0.035,1.183,0.156,1.769,0.276c0.586,0.122,1.177,0.244,1.771,0.367c1.14,0.342,2.343,0.62,3.461,1.068
			c1.136,0.417,2.284,0.834,3.374,1.359c1.119,0.48,2.192,1.033,3.27,1.582c1.074,0.557,2.103,1.172,3.146,1.76
			c1.017,0.619,2.034,1.24,3.007,1.891c1.974,1.272,3.827,2.625,5.596,3.936c0.866,0.65,1.718,1.29,2.551,1.916
			c0.394,0.278,0.694,0.55,1.154,0.834l0.323,0.21l0.161,0.104l0.021,0.013c-0.151-0.079-0.031-0.017-0.061-0.032l0.038,0.017
			l0.074,0.034l0.59,0.282c0.732,0.406,1.67,0.711,2.51,1.049c0.837,0.353,1.719,0.605,2.525,0.908
			c3.313,1.139,6.074,2.088,8.007,2.752C280.505,420.56,281.615,420.983,281.615,420.983z"/>
	</g>
</g>
</svg>
