<?xml version="1.0" encoding="utf-8"?>
<!-- Generator: Adobe Illustrator 16.0.0, SVG Export Plug-In . SVG Version: 6.00 Build 0)  -->
<!DOCTYPE svg PUBLIC "-//W3C//DTD SVG 1.1//EN" "http://www.w3.org/Graphics/SVG/1.1/DTD/svg11.dtd">
<svg version="1.1" id="Layer_2" xmlns="http://www.w3.org/2000/svg" xmlns:xlink="http://www.w3.org/1999/xlink" x="0px" y="0px"
	 width="500px" height="900px" viewBox="0 0 500 900" enable-background="new 0 0 500 900" xml:space="preserve">
<g>
	<path fill="none" stroke="#1F1813" stroke-width="5" stroke-miterlimit="10" d="M304.236,36.749
		c4.702-29.776-7.836-28.21-7.836-28.21c-25.597-6.791-56.941-2.09-76.271,0C200.8,10.629,201.845,14.285,200.8,26.3
		c-1.045,12.017,7.313,55.898,14.628,71.57c7.313,15.672,13.581,53.285,17.238,101.346c3.656,48.063,20.896,138.438,35,139.483
		c14.105,1.044,12.017-31.867,12.017-31.867l7.836-192.768C287.519,114.064,299.533,66.525,304.236,36.749z"/>
	<path fill="none" stroke="#1F1813" stroke-width="5" stroke-miterlimit="10" d="M214.061,94.654
		c13.785,19.769,24.351,30.381,41.591,32.47c17.239,2.09,31.801-11.431,31.801-11.431"/>
	<g>
		<path fill="#1F1813" d="M269.705,134.006c-0.731,0.691-1.851,1.579-3.316,2.464c-1.466,0.878-3.279,1.746-5.341,2.392
			c-0.507,0.192-1.044,0.308-1.586,0.438c-0.542,0.131-1.091,0.269-1.651,0.369c-1.134,0.145-2.283,0.348-3.456,0.355
			c-1.171,0.005-2.343,0.044-3.494-0.146c-0.575-0.063-1.144-0.139-1.703-0.226c-0.555-0.13-1.101-0.266-1.632-0.419
			c-0.53-0.156-1.056-0.275-1.553-0.458c-0.49-0.214-0.971-0.411-1.428-0.625c-0.452-0.215-0.893-0.423-1.319-0.625
			c-0.412-0.228-0.788-0.498-1.152-0.738c-0.718-0.503-1.373-0.944-1.903-1.401c-0.512-0.493-0.928-0.951-1.269-1.318
			c-0.679-0.739-1.012-1.197-1.012-1.197s0.592,0.105,1.533,0.352c0.469,0.126,1.036,0.266,1.652,0.458
			c0.634,0.131,1.349,0.278,2.128,0.44c0.384,0.075,0.762,0.2,1.175,0.26c0.411,0.056,0.836,0.113,1.273,0.172
			c0.434,0.061,0.868,0.144,1.312,0.217c0.452,0.036,0.914,0.071,1.385,0.108c0.468,0.03,0.935,0.094,1.409,0.14
			c0.483-0.004,0.97,0.004,1.456,0.025c0.973,0.065,1.97,0.015,2.965-0.012c0.497,0.018,0.996-0.023,1.494-0.071
			c0.497-0.048,0.996-0.059,1.491-0.089c0.984-0.134,1.969-0.184,2.92-0.321c0.951-0.135,1.887-0.229,2.769-0.385
			c0.893-0.114,1.731-0.271,2.523-0.392c3.256-0.541,5.428-0.901,5.428-0.901S270.448,133.337,269.705,134.006z"/>
	</g>
</g>
<g>
	<path fill="none" stroke="#1F1813" stroke-width="5" stroke-miterlimit="10" d="M483.543,614.314
		c-4.702,24.554-15.672,68.958-22.464,93.512c-6.791,24.554-19.329,19.853-27.165,7.313c-7.836-12.537-20.896-64.256-20.896-64.256
		c-3.135-16.194-10.448-73.138-9.403-97.167c1.045-24.03-3.134-37.092-3.134-37.092c-15.15-28.732,3.134-43.882,15.148-51.719
		c12.017-7.836,16.718-14.627,19.329-40.748c2.612-26.119,24.554-20.373,30.3-10.97s20.373,38.657,29.255,67.913
		c8.881,29.253-8.882,35.523-8.882,35.523S488.244,589.76,483.543,614.314z"/>
	<path fill="none" stroke="#1F1813" stroke-width="5" stroke-miterlimit="10" d="M401.176,519.302
		c12.887-1.154,32.736-18.348,44.694-19.045c11.958-0.698,18.342,8.357,27.396,12.538c9.054,4.178,12.365,3.83,12.365,3.83"/>
	<g>
		<path fill="#1F1813" d="M472.339,519.705c-0.842-0.348-1.863-0.769-3.036-1.252c-1.169-0.482-2.493-0.999-3.928-1.561
			c-1.434-0.563-2.986-1.155-4.633-1.728c-0.826-0.279-1.66-0.597-2.53-0.851c-0.431-0.138-0.866-0.277-1.306-0.418
			c-0.441-0.123-0.886-0.247-1.335-0.372c-1.79-0.526-3.641-0.883-5.483-1.171c-0.458-0.055-0.909-0.069-1.365-0.108
			c-0.458-0.04-0.914-0.078-1.344-0.042l-0.654,0.021l-0.328,0.008l-0.164,0.003l-0.082,0.002h-0.041
			c-0.032,0.003,0.214-0.026,0.098-0.012l-0.023,0.004l-1.539,0.234c-0.55,0.058-0.938,0.178-1.375,0.275
			c-0.439,0.115-0.842,0.163-1.314,0.327c-0.915,0.284-1.838,0.53-2.747,0.881c-1.82,0.637-3.618,1.399-5.367,2.147
			c-3.492,1.53-6.81,3.069-9.771,4.205c-1.479,0.572-2.872,1.033-4.128,1.385c-0.618,0.19-1.218,0.335-1.773,0.445
			c-0.55,0.125-1.06,0.219-1.53,0.27c-0.467,0.063-0.877,0.123-1.239,0.146c-0.365,0.003-0.675,0.006-0.926,0.008
			c-0.494-0.005-0.759-0.008-0.759-0.008s0.246-0.096,0.709-0.275c0.229-0.085,0.509-0.19,0.837-0.313
			c0.319-0.148,0.685-0.319,1.095-0.511c0.41-0.176,0.85-0.407,1.321-0.678c0.471-0.272,0.991-0.512,1.524-0.848
			c1.077-0.625,2.265-1.386,3.568-2.212c2.604-1.653,5.633-3.659,9.11-5.592c1.753-0.948,3.595-1.914,5.604-2.704
			c0.985-0.419,2.03-0.779,3.091-1.106c0.504-0.182,1.129-0.298,1.693-0.444c0.571-0.133,1.186-0.298,1.67-0.348l1.542-0.212
			l0.17-0.021l0.056-0.001l0.112-0.003l0.225-0.005l0.449-0.01l0.896-0.016c0.605-0.033,1.177,0.03,1.742,0.104
			c0.566,0.071,1.141,0.121,1.691,0.214c2.18,0.425,4.252,1.005,6.138,1.76c0.958,0.355,1.876,0.734,2.75,1.155
			c0.888,0.396,1.73,0.817,2.54,1.25c1.626,0.85,3.107,1.735,4.443,2.593c1.339,0.854,2.52,1.702,3.551,2.473
			c1.042,0.75,1.904,1.473,2.613,2.063c0.714,0.58,1.24,1.089,1.607,1.418c0.357,0.343,0.547,0.527,0.547,0.527
			S474.039,520.403,472.339,519.705z"/>
	</g>
</g>
<g>
	<path fill="none" stroke="#1F1813" stroke-width="5" stroke-miterlimit="10" d="M19.455,614.314
		c4.701,24.554,15.675,68.958,22.464,93.512c6.793,24.554,19.329,19.853,27.166,7.313c7.835-12.537,20.896-64.256,20.896-64.256
		c3.134-16.194,10.447-73.138,9.404-97.167c-1.045-24.03,3.133-37.092,3.133-37.092c15.151-28.732-3.132-43.882-15.15-51.719
		c-12.014-7.836-16.715-14.627-19.328-40.748c-2.61-26.119-24.553-20.373-30.299-10.97c-5.748,9.403-20.373,38.657-29.254,67.913
		c-8.881,29.253,8.881,35.523,8.881,35.523S14.755,589.76,19.455,614.314z"/>
	<path fill="none" stroke="#1F1813" stroke-width="5" stroke-miterlimit="10" d="M101.823,519.302
		c-12.886-1.154-32.735-18.348-44.694-19.045c-11.957-0.698-18.341,8.357-27.396,12.538c-9.054,4.178-12.365,3.83-12.365,3.83"/>
	<g>
		<path fill="#1F1813" d="M28.532,520.273c0.369-0.329,0.894-0.838,1.609-1.418c0.709-0.589,1.57-1.313,2.612-2.063
			c1.03-0.771,2.212-1.619,3.552-2.473c1.336-0.858,2.815-1.743,4.441-2.593c0.811-0.433,1.652-0.854,2.54-1.25
			c0.874-0.421,1.793-0.8,2.749-1.155c1.888-0.755,3.958-1.335,6.14-1.76c0.55-0.093,1.125-0.143,1.69-0.214
			c0.565-0.075,1.137-0.138,1.742-0.104l0.896,0.016l0.447,0.01l0.226,0.005l0.111,0.003l0.058,0.001l0.17,0.021l1.541,0.212
			c0.483,0.05,1.099,0.215,1.671,0.348c0.564,0.146,1.189,0.261,1.693,0.443c1.061,0.327,2.105,0.688,3.092,1.107
			c2.009,0.79,3.85,1.755,5.602,2.704c3.479,1.933,6.506,3.938,9.111,5.592c1.303,0.826,2.49,1.587,3.568,2.212
			c0.532,0.336,1.054,0.575,1.523,0.847c0.471,0.272,0.912,0.503,1.321,0.679c0.41,0.192,0.775,0.363,1.094,0.511
			c0.33,0.124,0.61,0.229,0.837,0.313c0.463,0.179,0.71,0.275,0.71,0.275s-0.264,0.003-0.758,0.008
			c-0.252-0.002-0.562-0.005-0.926-0.008c-0.363-0.024-0.773-0.084-1.239-0.146c-0.471-0.051-0.982-0.145-1.531-0.27
			c-0.555-0.11-1.154-0.255-1.772-0.445c-1.257-0.352-2.65-0.813-4.128-1.385c-2.961-1.136-6.279-2.675-9.772-4.205
			c-1.748-0.748-3.546-1.51-5.366-2.148c-0.908-0.35-1.833-0.596-2.747-0.88c-0.471-0.164-0.876-0.212-1.313-0.327
			c-0.438-0.097-0.825-0.217-1.375-0.277l-1.539-0.232l-0.024-0.004c-0.114-0.014,0.132,0.015,0.099,0.012h-0.041l-0.082-0.002
			l-0.164-0.003l-0.328-0.008l-0.654-0.021c-0.43-0.036-0.886,0.002-1.343,0.042c-0.457,0.039-0.908,0.052-1.367,0.108
			c-1.841,0.288-3.691,0.645-5.481,1.171c-0.449,0.125-0.895,0.249-1.335,0.372c-0.44,0.141-0.875,0.28-1.307,0.418
			c-0.87,0.254-1.704,0.572-2.529,0.851c-1.646,0.573-3.199,1.164-4.634,1.728c-1.435,0.562-2.76,1.079-3.928,1.561
			c-1.172,0.483-2.194,0.904-3.036,1.252c-1.7,0.701-2.671,1.102-2.671,1.102S28.178,520.62,28.532,520.273z"/>
	</g>
</g>
<g>
	<path fill="none" stroke="#1F1813" stroke-width="5" stroke-miterlimit="10" d="M270.169,862.511
		c-10.447,45.972-19.328,12.537-22.462,0c-3.134-12.539-20.375-200.433-20.375-200.433s-17.414-55.024-20.202-76.616
		c-2.786-21.592,14.629-21.941,14.629-21.941s44.926,0,60.598,0s16.371,16.717,16.371,16.717
		c3.484,29.255-14.628,84.281-14.628,84.281S280.617,816.539,270.169,862.511z"/>
	<path fill="none" stroke="#1F1813" stroke-width="5" stroke-miterlimit="10" d="M220.839,640.706
		c7.094,25.249,23.734,44.709,38.883,41.054c15.149-3.658,24.378-17.24,24.378-17.24"/>
	<g>
		<path fill="#1F1813" d="M278.939,594.111c-0.007,1.836-0.023,3.673-0.072,5.506c-0.079,3.669-0.234,7.332-0.442,10.996
			c-0.184,3.664-0.541,7.324-0.836,10.993c-0.2,1.838-0.439,3.677-0.658,5.517c-0.084,0.911-0.295,1.862-0.463,2.802l-0.533,2.825
			l-0.735,3.897l-3.185-2.807c-0.468-0.412-1.103-0.915-1.683-1.354c-0.599-0.447-1.217-0.877-1.845-1.286
			c-1.258-0.82-2.572-1.541-3.908-2.182c-0.669-0.317-1.349-0.604-2.034-0.866c-0.686-0.261-1.381-0.479-2.076-0.683
			c-0.699-0.182-1.397-0.357-2.103-0.478c-0.703-0.113-1.409-0.22-2.113-0.247c-0.352-0.03-0.703-0.044-1.054-0.031
			c-0.35,0.01-0.704-0.013-1.05,0.032c-0.347,0.03-0.697,0.043-1.043,0.085l-1.033,0.161c-0.677,0.154-1.366,0.284-2.022,0.531
			c-0.676,0.193-1.311,0.504-1.965,0.77c-0.624,0.339-1.28,0.613-1.876,1.027l-0.912,0.58l-0.871,0.659
			c-0.598,0.414-1.128,0.941-1.695,1.412c-0.548,0.499-1.06,1.052-1.595,1.574l-2.726,2.658l-0.943-3.446
			c-0.392-1.426-0.722-2.828-1.055-4.246c-0.318-1.418-0.668-2.826-0.958-4.249c-0.295-1.422-0.621-2.834-0.865-4.267l-0.743-4.292
			c-0.243-1.431-0.42-2.878-0.604-4.317l-0.269-2.161l-0.188-2.176l-0.157-2.174c-0.06-0.723-0.104-1.446-0.096-2.178
			c-0.004-1.458-0.003-2.908,0.025-4.351c0.301,1.425,0.573,2.841,0.842,4.25c0.228,1.412,0.66,2.801,0.973,4.197l0.483,2.092
			l0.563,2.077l0.567,2.073c0.186,0.691,0.344,1.387,0.554,2.073l1.198,4.126l1.235,4.112c0.395,1.374,0.849,2.733,1.272,4.097
			l1.327,4.059l-3.669-0.787c0.577-0.641,1.128-1.301,1.735-1.921c0.637-0.597,1.217-1.246,1.92-1.784l1.022-0.837l1.094-0.765
			c0.714-0.53,1.528-0.934,2.304-1.385c0.815-0.386,1.631-0.785,2.498-1.066c0.847-0.333,1.739-0.54,2.624-0.758l1.348-0.244
			c0.451-0.064,0.905-0.098,1.359-0.146c0.454-0.055,0.907-0.04,1.361-0.053c0.455-0.019,0.907-0.004,1.358,0.027
			c0.905,0.033,1.797,0.153,2.682,0.292c0.883,0.147,1.75,0.348,2.607,0.578c0.847,0.253,1.686,0.526,2.503,0.845
			c0.816,0.317,1.617,0.663,2.399,1.043c1.565,0.752,3.054,1.632,4.471,2.604c0.708,0.487,1.401,0.994,2.079,1.527
			c0.689,0.548,1.306,1.061,2.017,1.748l-3.92,1.091l0.579-2.544c0.192-0.854,0.405-1.683,0.548-2.587l0.956-5.333l0.884-5.388
			l0.85-5.403c0.296-1.802,0.599-3.604,0.871-5.411c0.264-1.81,0.604-3.609,0.896-5.416c0.284-1.809,0.602-3.612,0.928-5.418
			c0.305-1.808,0.65-3.611,0.999-5.417C278.929,590.434,278.948,592.271,278.939,594.111z"/>
	</g>
</g>
<g>
	<path fill="none" stroke="#1F1813" stroke-width="5" stroke-miterlimit="10" d="M235.977,413.322
		c-7.66,7.663-36.915,24.031-23.333,54.33c13.582,30.298,31.343,27.165,40.633,26.816c9.29-0.351,19.967,3.832,35.639-19.853
		c15.672-23.684,4.181-32.735,0-39.005c-4.18-6.269-9.057-13.236-9.057-13.236C263.451,396.518,243.636,405.658,235.977,413.322z"/>
	<g>
		<path fill="#1F1813" d="M286.975,444.553c-0.286,0.214-0.58,0.472-0.904,0.629c-0.636,0.387-1.318,0.611-2,0.882
			c-0.688,0.205-1.369,0.45-2.089,0.589c-0.678,0.156-1.37,0.292-2.077,0.42c-1.415,0.275-2.782,0.463-4.179,0.661
			c-1.39,0.186-2.78,0.361-4.173,0.498c-2.783,0.292-5.572,0.508-8.364,0.644c-1.397,0.063-2.793,0.144-4.191,0.16
			c-1.397,0.025-2.796,0.08-4.195,0.06c-1.398-0.013-2.798,0.009-4.197-0.043c-1.399-0.049-2.8-0.077-4.199-0.15
			c-2.801-0.159-5.601-0.364-8.396-0.7c-1.396-0.132-2.794-0.38-4.188-0.579c-1.394-0.188-2.784-0.506-4.17-0.776
			c-1.385-0.258-2.766-0.672-4.132-1.035c-0.687-0.163-1.362-0.427-2.037-0.667l-2.011-0.726l-0.099-0.034
			c-0.301-0.173-0.492-0.32-0.697-0.516c-0.205-0.176-0.387-0.374-0.55-0.586c-0.178-0.194-0.319-0.42-0.445-0.652
			c-0.137-0.226-0.263-0.449-0.331-0.704l-0.122-0.365c-0.036-0.122-0.089-0.238-0.09-0.368l-0.061-0.747
			c-0.042-0.242,0.035-0.487,0.062-0.724l0.122-0.697l0.127,0.69c0.048,0.222,0.047,0.448,0.157,0.651l0.257,0.604
			c0.028,0.102,0.113,0.182,0.169,0.271l0.179,0.261c0.101,0.18,0.254,0.324,0.405,0.464c0.142,0.146,0.289,0.281,0.466,0.386
			c0.16,0.121,0.329,0.224,0.511,0.304c0.16,0.089,0.378,0.167,0.489,0.199l-0.099-0.034c1.377,0.145,2.706,0.36,4.08,0.438
			c1.375,0.079,2.716,0.242,4.098,0.271c1.373,0.056,2.729,0.158,4.106,0.18c1.376,0.028,2.738,0.107,4.115,0.125l8.248,0.171
			l8.267,0.125l8.281,0.147l8.296,0.217l8.293,0.302c0.679,0.033,1.37,0.057,2.074,0.057c0.665,0.016,1.342-0.046,2.028-0.047
			c0.664-0.066,1.352-0.112,1.998-0.271c0.631-0.152,1.374-0.298,1.713-0.917C287.52,444.002,287.22,444.282,286.975,444.553z"/>
	</g>
</g>
</svg>
