<?xml version="1.0" encoding="utf-8"?>
<!-- Generator: Adobe Illustrator 16.0.0, SVG Export Plug-In . SVG Version: 6.00 Build 0)  -->
<!DOCTYPE svg PUBLIC "-//W3C//DTD SVG 1.1//EN" "http://www.w3.org/Graphics/SVG/1.1/DTD/svg11.dtd">
<svg version="1.1" id="Layer_2" xmlns="http://www.w3.org/2000/svg" xmlns:xlink="http://www.w3.org/1999/xlink" x="0px" y="0px"
	 width="500px" height="900px" viewBox="0 0 500 900" enable-background="new 0 0 500 900" xml:space="preserve">
<g>
	<path fill="none" stroke="#1F1813" stroke-width="5" stroke-miterlimit="10" d="M273.631,200.998
		c-4.61,14.856-4.098,93.233-6.659,115.261c-2.561,22.028-13.318,29.713-23.052-4.609c-9.734-34.322-25.613-192.102-25.613-192.102
		c-1.025-10.759-2.563-18.953-12.807-41.493c-10.246-22.54,0-44.568,7.17-50.716c7.172-6.146,24.078-23.563,30.738-23.052
		c6.658,0.513,21.515,15.369,45.079,36.372c23.563,21.003,6.658,52.764,0,63.009c-6.659,10.246-8.709,28.176-8.709,28.176
		S278.242,186.143,273.631,200.998z"/>
	<path fill="none" stroke="#1F1813" stroke-width="5" stroke-miterlimit="10" d="M216.486,107.54c0,0,7.286,7.569,10.358,9.958
		c3.074,2.39,12.634,8.881,24.045,9.905c11.41,1.025,18.987-5.807,21.718-7.171c2.731-1.364,11.109-6.085,11.109-6.085"/>
	<g>
		<path fill="#1F1813" d="M282.176,127.235c0,0-0.212,0.08-0.584,0.221c-0.366,0.129-0.888,0.313-1.515,0.533
			c-1.252,0.425-2.93,0.951-4.638,1.377c-1.703,0.43-3.442,0.752-4.76,0.835c-0.654,0.047-1.206,0.041-1.584,0
			c-0.374-0.043-0.587-0.066-0.587-0.066s0.206-0.055,0.567-0.147c0.354-0.094,0.849-0.277,1.414-0.544
			c1.136-0.521,2.559-1.395,3.92-2.354c1.362-0.956,2.67-1.993,3.628-2.792c0.472-0.401,0.865-0.736,1.14-0.971
			c0.264-0.235,0.413-0.369,0.413-0.369L282.176,127.235z"/>
	</g>
	<g>
		<path fill="#1F1813" d="M219.888,115.782c0,0,0.231,0.288,0.633,0.792c0.41,0.505,1.005,1.229,1.735,2.083
			c1.458,1.712,3.456,3.964,5.586,6.082c1.066,1.055,2.153,2.097,3.224,3.007c0.528,0.466,1.051,0.901,1.565,1.286
			c0.503,0.409,0.997,0.763,1.467,1.069c0.234,0.159,0.458,0.311,0.671,0.456c0.224,0.125,0.436,0.243,0.635,0.354
			c0.401,0.219,0.746,0.438,1.058,0.54c0.617,0.249,0.97,0.392,0.97,0.392s-0.377-0.067-1.036-0.187
			c-0.341-0.041-0.722-0.184-1.173-0.321c-0.227-0.07-0.467-0.146-0.721-0.227c-0.245-0.102-0.501-0.207-0.769-0.317
			c-0.545-0.213-1.121-0.468-1.713-0.772c-0.604-0.284-1.226-0.614-1.856-0.973c-1.28-0.696-2.593-1.519-3.895-2.362
			c-2.599-1.694-5.083-3.543-6.922-4.971c-0.921-0.712-1.678-1.32-2.208-1.754c-0.53-0.439-0.835-0.69-0.835-0.69L219.888,115.782z"
			/>
	</g>
</g>
<g>
	<path fill="none" stroke="#1F1813" stroke-width="5" stroke-miterlimit="10" d="M478.537,610.77
		c-0.512,29.199-7.685,71.716-19.466,101.941c-11.782,30.223-24.59-8.709-24.59-8.709c-9.732-22.539-25.612-158.291-24.588-172.123
		c1.024-13.83-5.636-23.564-5.636-23.564c-5.843-8.592-1.769-19.029,1.543-24.965c1.625-2.914,6.982-7.196,8.838-9.228
		c12.991-14.217,22.404-51.868,22.404-51.868c7.685-35.348,23.565-12.296,23.565-12.296c32.272,44.568,36.37,86.063,35.347,93.746
		c-1.025,7.685-9.222,21.517-9.222,21.517S479.05,581.571,478.537,610.77z"/>
	<path fill="none" stroke="#1F1813" stroke-width="5" stroke-miterlimit="10" d="M407.431,514.839
		c3.431,2.937,3.486,4.489,13.731,4.489c10.246,0,18.441-10.244,27.535-11.014c9.093-0.767,18.826,9.221,24.205,12.809
		c5.379,3.586,13.831,4.099,13.831,4.099"/>
	<g>
		<path fill="#1F1813" d="M485.923,533.994c0,0-0.307-0.043-0.844-0.116c-0.526-0.078-1.261-0.209-2.137-0.38
			c-1.748-0.354-4.052-0.922-6.28-1.697c-1.116-0.386-2.208-0.837-3.208-1.297c-0.495-0.253-0.973-0.484-1.414-0.724
			c-0.432-0.257-0.841-0.5-1.218-0.724c-0.357-0.252-0.684-0.484-0.974-0.69c-0.294-0.19-0.513-0.42-0.707-0.577
			c-0.377-0.329-0.592-0.518-0.592-0.518s0.257,0.122,0.709,0.337c0.229,0.098,0.483,0.251,0.815,0.355
			c0.321,0.114,0.684,0.243,1.08,0.386c0.404,0.108,0.843,0.226,1.306,0.35c0.468,0.094,0.961,0.193,1.472,0.296
			c1.029,0.162,2.127,0.291,3.232,0.355c2.208,0.133,4.418,0.06,6.057-0.063c0.819-0.067,1.498-0.134,1.962-0.194
			c0.453-0.063,0.712-0.1,0.712-0.1L485.923,533.994z"/>
	</g>
	<g>
		<path fill="#1F1813" d="M410.418,522.794c0,0,0.17,0.079,0.466,0.218c0.309,0.14,0.768,0.328,1.326,0.546
			c1.119,0.429,2.653,0.941,4.232,1.308c0.789,0.184,1.588,0.325,2.347,0.421c0.758,0.092,1.471,0.125,2.092,0.131
			c0.311-0.015,0.594-0.026,0.845-0.039c0.258-0.002,0.469-0.055,0.652-0.073c0.367-0.054,0.576-0.083,0.576-0.083
			s-0.185,0.104-0.507,0.286c-0.165,0.084-0.359,0.219-0.601,0.315c-0.242,0.107-0.515,0.228-0.812,0.359
			c-0.607,0.23-1.334,0.477-2.134,0.682c-0.8,0.2-1.665,0.372-2.54,0.499c-1.749,0.255-3.525,0.344-4.865,0.354
			c-0.671,0-1.233-0.01-1.635-0.029c-0.413-0.025-0.649-0.04-0.649-0.04L410.418,522.794z"/>
	</g>
	<g>
		<path fill="#1F1813" d="M426.906,446.312c0,0,0.373-0.411,1.023-1.132c0.326-0.361,0.723-0.798,1.176-1.3
			c0.472-0.501,0.859-1.07,1.365-1.692c0.491-0.624,1.024-1.301,1.587-2.016c0.546-0.767,1.123-1.573,1.72-2.408
			c0.593-0.84,1.229-1.694,1.812-2.607c0.598-0.904,1.206-1.823,1.813-2.743c0.624-0.912,1.17-1.867,1.747-2.787
			c0.563-0.93,1.146-1.832,1.658-2.729c0.511-0.901,1.002-1.771,1.47-2.598c0.482-0.821,0.894-1.617,1.253-2.361
			c0.371-0.742,0.711-1.423,1.012-2.026c0.302-0.604,0.47-1.162,0.659-1.608c0.352-0.907,0.553-1.427,0.553-1.427
			s-0.126,0.54-0.347,1.486c-0.124,0.469-0.219,1.067-0.434,1.711c-0.215,0.646-0.458,1.372-0.723,2.166
			c-0.256,0.801-0.556,1.659-0.921,2.544c-0.352,0.895-0.72,1.837-1.104,2.813c-0.388,0.975-0.84,1.955-1.272,2.968
			c-0.449,1.004-0.865,2.048-1.36,3.05c-0.479,1.014-0.961,2.025-1.434,3.021c-0.459,1.005-0.979,1.962-1.461,2.899
			c-0.488,0.938-0.959,1.845-1.406,2.704c-0.502,0.864-0.978,1.682-1.415,2.435c-0.446,0.739-0.837,1.486-1.222,2.031
			c-0.379,0.562-0.71,1.051-0.982,1.453c-0.545,0.807-0.855,1.267-0.855,1.267L426.906,446.312z"/>
	</g>
</g>
<g>
	<path fill="none" stroke="#1F1813" stroke-width="5" stroke-miterlimit="10" d="M22.351,610.77
		c0.513,29.199,7.685,71.716,19.466,101.941c11.781,30.223,24.588-8.709,24.588-8.709c9.733-22.539,25.614-158.291,24.59-172.123
		c-1.025-13.83,5.635-23.564,5.635-23.564c5.843-8.592,1.77-19.029-1.543-24.965c-1.625-2.914-6.982-7.196-8.838-9.228
		c-12.991-14.217-22.405-51.868-22.405-51.868c-7.682-35.348-23.563-12.296-23.563-12.296
		C8.006,454.527,3.909,496.021,4.935,503.705c1.024,7.685,9.221,21.517,9.221,21.517S21.84,581.571,22.351,610.77z"/>
	<path fill="none" stroke="#1F1813" stroke-width="5" stroke-miterlimit="10" d="M93.455,514.839
		c-3.43,2.937-3.486,4.489-13.73,4.489c-10.245,0-18.441-10.244-27.534-11.014c-9.094-0.767-18.825,9.221-24.204,12.809
		c-5.379,3.586-13.831,4.099-13.831,4.099"/>
	<g>
		<path fill="#1F1813" d="M14.994,528.992c0,0,0.259,0.036,0.712,0.1c0.465,0.06,1.145,0.127,1.963,0.194
			c1.641,0.124,3.85,0.197,6.059,0.063c1.104-0.063,2.201-0.193,3.231-0.355c0.511-0.103,1.005-0.202,1.473-0.296
			c0.464-0.124,0.902-0.242,1.307-0.35c0.395-0.143,0.759-0.271,1.08-0.387c0.332-0.103,0.586-0.256,0.814-0.354
			c0.451-0.215,0.709-0.337,0.709-0.337s-0.216,0.188-0.593,0.518c-0.192,0.157-0.412,0.387-0.706,0.577
			c-0.289,0.206-0.617,0.438-0.973,0.69c-0.377,0.224-0.786,0.467-1.218,0.724c-0.442,0.24-0.919,0.47-1.414,0.723
			c-1,0.461-2.093,0.911-3.208,1.298c-2.229,0.775-4.531,1.343-6.28,1.696c-0.876,0.172-1.612,0.303-2.137,0.381
			c-0.538,0.073-0.846,0.116-0.846,0.116L14.994,528.992z"/>
	</g>
	<g>
		<path fill="#1F1813" d="M91.677,527.649c0,0-0.235,0.015-0.648,0.04c-0.403,0.02-0.965,0.029-1.636,0.029
			c-1.341-0.009-3.115-0.099-4.865-0.354c-0.874-0.127-1.741-0.299-2.54-0.499c-0.8-0.205-1.528-0.452-2.134-0.682
			c-0.299-0.131-0.571-0.252-0.813-0.359c-0.242-0.096-0.436-0.231-0.6-0.315c-0.323-0.183-0.508-0.286-0.508-0.286
			s0.209,0.03,0.575,0.083c0.184,0.018,0.395,0.072,0.652,0.074c0.251,0.012,0.535,0.023,0.845,0.039
			c0.621-0.007,1.335-0.039,2.093-0.132c0.76-0.096,1.558-0.237,2.347-0.421c1.58-0.367,3.114-0.879,4.232-1.308
			c0.559-0.218,1.018-0.406,1.326-0.546c0.297-0.139,0.466-0.217,0.466-0.217L91.677,527.649z"/>
	</g>
	<g>
		<path fill="#1F1813" d="M70.073,449.425c0,0-0.312-0.46-0.856-1.267c-0.271-0.402-0.602-0.892-0.981-1.453
			c-0.385-0.545-0.777-1.292-1.224-2.031c-0.437-0.754-0.911-1.57-1.413-2.435c-0.447-0.859-0.92-1.766-1.406-2.704
			c-0.482-0.938-1.002-1.895-1.461-2.899c-0.474-0.997-0.954-2.009-1.435-3.021c-0.495-1.002-0.911-2.046-1.359-3.05
			c-0.433-1.013-0.885-1.993-1.272-2.968c-0.383-0.977-0.753-1.919-1.104-2.813c-0.364-0.885-0.664-1.744-0.921-2.545
			c-0.266-0.794-0.509-1.521-0.725-2.166c-0.214-0.644-0.309-1.242-0.433-1.711c-0.222-0.945-0.348-1.486-0.348-1.486
			s0.201,0.52,0.554,1.427c0.188,0.446,0.356,1.005,0.659,1.608c0.301,0.604,0.641,1.284,1.012,2.026
			c0.358,0.744,0.77,1.539,1.253,2.361c0.467,0.825,0.96,1.696,1.469,2.598c0.512,0.898,1.095,1.801,1.658,2.729
			c0.578,0.921,1.124,1.876,1.748,2.787c0.607,0.92,1.215,1.839,1.813,2.743c0.583,0.913,1.22,1.769,1.813,2.607
			c0.597,0.835,1.173,1.642,1.72,2.408c0.563,0.715,1.096,1.392,1.587,2.016c0.506,0.622,0.894,1.191,1.365,1.692
			c0.454,0.502,0.85,0.939,1.176,1.3c0.651,0.72,1.023,1.132,1.023,1.132L70.073,449.425z"/>
	</g>
</g>
<g>
	<path fill="none" stroke="#1F1813" stroke-width="5" stroke-miterlimit="10" d="M269.831,824.466
		c-3.073,42.007-12.806,68.645-23.565,65.549c-10.757-3.095-11.268-58.888-11.779-87.063
		c-0.515-28.175-12.808-95.283-13.833-110.138c-1.024-14.856-1.536-13.319-13.831-43.543c-12.294-30.225,5.123-47.129,5.123-47.129
		s32.272-38.933,45.08-38.933c12.807,0,27.661,16.904,38.421,36.371c10.757,19.465-3.586,55.324-8.71,63.009
		c-5.122,7.684-4.099,16.904-4.099,16.904C282.638,722.523,272.905,782.459,269.831,824.466z"/>
	<path fill="none" stroke="#1F1813" stroke-width="5" stroke-miterlimit="10" d="M215.872,671.259
		c6.482,15.715,30.807,15.293,42.689,15.406c10.245,0.1,24.209-15.406,24.209-15.406"/>
	<g>
		<path fill="#1F1813" d="M277.288,637.154c0.41-1.137,0.77-2.289,1.092-3.449c0.656-2.313,1.192-4.646,1.548-6.996
			c0.192-1.171,0.349-2.346,0.455-3.521c0.104-1.174,0.182-2.349,0.188-3.521c0.017-0.586,0.033-1.17,0.014-1.754
			c-0.011-0.584-0.001-1.167-0.05-1.747c-0.048-1.164-0.179-2.318-0.316-3.467c-0.183-1.143-0.364-2.282-0.624-3.403
			c-0.213-1.131-0.56-2.229-0.871-3.33c-0.374-1.085-0.709-2.179-1.17-3.229c-0.393-1.074-0.95-2.079-1.418-3.12l-0.826-1.505
			c-0.265-0.507-0.556-0.999-0.876-1.476l-0.924-1.448l-1.003-1.398c-0.64-0.952-1.417-1.812-2.135-2.709
			c-0.743-0.879-1.552-1.71-2.321-2.572l4.268-1.741c-0.008,2.206-0.014,4.411-0.05,6.616l0.037,0.701l0.063,0.699l0.154,1.641
			c0.103,1.113,0.176,2.234,0.25,3.356c0.053,1.126,0.13,2.249,0.141,3.378c0.032,1.127,0.025,2.255,0.014,3.383
			c-0.01,2.255-0.187,4.507-0.374,6.751l-0.379,3.356c-0.156,1.115-0.358,2.226-0.543,3.332l-0.693,3.302
			c-0.252,1.095-0.543,2.182-0.842,3.262c-0.282,1.084-0.681,2.14-1.015,3.206c-0.323,1.069-0.747,2.108-1.17,3.143l-0.627,1.55
			c-0.111,0.257-0.209,0.511-0.258,0.742c-0.059,0.241-0.153,0.473-0.172,0.744l-0.104,0.796l-0.053,0.404l0.014,0.404l0.046,1.654
			c-0.29-1.063-0.603-2.155-0.622-3.314c-0.043-0.286,0.015-0.591,0.036-0.894c0.021-0.317,0.075-0.593,0.137-0.86l0.335-1.615
			c0.216-1.077,0.473-2.138,0.636-3.222c0.168-1.081,0.399-2.143,0.514-3.229c0.116-1.086,0.302-2.154,0.413-3.234l0.293-3.24
			l0.181-3.244l0.092-3.242c-0.011-1.082,0.001-2.162-0.027-3.241c-0.054-1.08-0.057-2.158-0.123-3.236
			c-0.093-2.155-0.286-4.307-0.487-6.456l-0.374-3.229l-0.198-1.647l-0.104-0.946l-0.035-0.432l-0.015-0.206l-0.007-0.104
			l-0.008-0.21c-0.036-2.205-0.041-4.41-0.05-6.616l-0.025-6.463l4.294,4.722c0.855,0.941,1.76,1.84,2.569,2.827
			c0.792,1.003,1.637,1.962,2.349,3.031l1.104,1.571l0.996,1.649c0.342,0.543,0.654,1.104,0.94,1.681l0.882,1.716
			c0.508,1.182,1.058,2.345,1.459,3.569c0.458,1.202,0.806,2.442,1.144,3.68c0.279,1.253,0.585,2.5,0.751,3.771
			c0.228,1.261,0.297,2.54,0.397,3.81c0.048,1.273,0.081,2.544,0.027,3.811c0,0.634-0.062,1.265-0.104,1.896
			c-0.038,0.631-0.092,1.259-0.185,1.884c-0.152,1.251-0.381,2.488-0.635,3.716c-0.257,1.227-0.564,2.439-0.907,3.637
			c-0.359,1.195-0.769,2.371-1.214,3.529c-0.449,1.155-0.911,2.304-1.459,3.412c-0.536,1.113-1.107,2.207-1.724,3.271
			c-0.635,1.054-1.278,2.101-2.027,3.071C276.464,639.439,276.903,638.306,277.288,637.154z"/>
	</g>
	<g>
		<path fill="#1F1813" d="M226.223,631.504c-0.272-1.003-0.498-2.024-0.662-3.058c-0.176-1.032-0.275-2.076-0.335-3.124
			c-0.061-1.048-0.087-2.102-0.057-3.155c0.02-1.053,0.109-2.104,0.229-3.153c0.105-1.052,0.271-2.096,0.458-3.137
			c0.174-1.045,0.425-2.071,0.688-3.098c0.291-1.015,0.567-2.04,0.915-3.038c0.316-1.011,0.703-1.995,1.072-2.988
			c0.398-0.978,0.813-1.955,1.27-2.905c0.454-0.954,0.908-1.91,1.423-2.831c0.487-0.938,1.03-1.843,1.565-2.751
			c1.071-1.819,2.279-3.544,3.498-5.258c0.626-0.844,1.274-1.669,1.917-2.5l2.007-2.422l3.748-4.521l0.622,5.893
			c0.109,1.036,0.169,2.001,0.207,3.022c0.031,1.019,0.048,2.031-0.054,3.18c-0.021,0.28-0.068,0.599-0.12,0.918l-0.111,0.526
			l-0.076,0.262l-0.063,0.195l-0.166,0.471l-0.139,0.359l-0.275,0.685l-1.069,2.629c-0.686,1.743-1.364,3.479-1.973,5.237
			c-0.616,1.756-1.191,3.524-1.701,5.309c-0.53,1.78-0.992,3.578-1.369,5.394c-0.188,0.907-0.341,1.819-0.511,2.73
			c-0.155,0.914-0.297,1.831-0.403,2.753c-0.104,0.92-0.194,1.846-0.239,2.771c-0.07,0.928-0.106,1.859-0.104,2.791
			c-0.012,0.934,0.041,1.865,0.094,2.802c0.052,0.939,0.158,1.873,0.283,2.813l0.014,0.109v0.002
			c-0.063,0.631-0.179,1.237-0.317,1.846c-0.146,0.599-0.307,1.22-0.643,1.74c0.173-0.588,0.175-1.192,0.178-1.794
			c-0.006-0.599-0.058-1.206-0.109-1.792l0.014,0.112c-0.327-0.915-0.64-1.842-0.897-2.787c-0.253-0.945-0.458-1.907-0.623-2.876
			c-0.17-0.967-0.312-1.944-0.399-2.925c-0.09-0.979-0.13-1.965-0.152-2.949s-0.008-1.971,0.022-2.956
			c0.029-0.985,0.125-1.966,0.22-2.944c0.208-1.957,0.506-3.901,0.878-5.83c0.779-3.849,1.896-7.619,3.224-11.274l1.006-2.707
			l0.429-1.163c0.01-0.021,0.029-0.091,0.046-0.146l0.025-0.086l0.013-0.043l0.007-0.021l0.003-0.011
			c-0.046,0.168-0.012,0.044-0.021,0.08l0.033-0.175c0.02-0.151,0.047-0.306,0.059-0.501c0.064-0.753,0.053-1.653,0.016-2.541
			c-0.035-0.887-0.111-1.825-0.189-2.688l4.37,1.37l-1.922,2.274l-1.846,2.33c-0.587,0.795-1.193,1.577-1.768,2.383
			c-0.55,0.817-1.148,1.608-1.68,2.438c-0.539,0.825-1.091,1.646-1.584,2.497c-0.521,0.839-1.013,1.691-1.49,2.553
			c-0.495,0.854-0.909,1.744-1.378,2.612c-0.427,0.885-0.874,1.767-1.254,2.673c-0.806,1.801-1.465,3.657-2.069,5.536
			c-0.299,0.94-0.58,1.891-0.807,2.853c-0.247,0.959-0.435,1.931-0.614,2.907c-0.192,0.976-0.332,1.962-0.439,2.953
			c-0.111,0.992-0.167,1.989-0.214,2.993c-0.046,1.005-0.022,2.012,0.033,3.022c0.048,1.014,0.155,2.024,0.348,3.034
			C226.844,633.491,226.526,632.5,226.223,631.504z"/>
	</g>
	<g>
		<path fill="#1F1813" d="M283.619,688.959c0,0-0.568,0.14-1.42,0.348c-0.867,0.203-2,0.492-3.158,0.741
			c-1.159,0.245-2.28,0.521-3.18,0.651c-0.862,0.141-1.437,0.233-1.437,0.233s0.446-0.378,1.114-0.945
			c0.651-0.531,1.489-1.363,2.327-2.146c0.838-0.786,1.654-1.614,2.27-2.214c0.619-0.614,1.031-1.024,1.031-1.024L283.619,688.959z"
			/>
	</g>
	<g>
		<path fill="#1F1813" d="M221.235,682.637c0,0,0.577,0.547,1.444,1.368c0.874,0.814,2.046,1.903,3.238,2.961
			c1.192,1.061,2.402,2.105,3.346,2.826c0.467,0.387,0.871,0.653,1.168,0.839c0.298,0.192,0.469,0.302,0.469,0.302
			s-0.196-0.037-0.541-0.1c-0.352-0.06-0.864-0.161-1.44-0.341c-1.188-0.316-2.73-0.833-4.264-1.371
			c-1.538-0.532-3.058-1.102-4.2-1.532c-1.141-0.439-1.901-0.731-1.901-0.731L221.235,682.637z"/>
	</g>
</g>
<g>
	<path fill="none" stroke="#1F1813" stroke-width="5" stroke-miterlimit="10" d="M297.957,459.163
		c-1.713,11.271-23.561,37.567-54.416,38.251c-30.861,0.683-38.131-31.42-39.836-44.737c-1.709-13.318,5.806-23.906,14.342-29.711
		c8.54-5.806,12.639-19.809,30.791-20.38c18.154-0.569,34.779,20.38,34.779,20.38C295.324,434.247,299.67,447.892,297.957,459.163z"
		/>
	<g>
		<path fill="#1F1813" d="M288.34,444.417c0.236,0.855,0.39,1.782,0.251,2.775c-0.125,0.983-0.623,2.046-1.454,2.767
			c-0.401,0.371-0.859,0.648-1.325,0.874c-0.231,0.096-0.471,0.218-0.707,0.281l-0.355,0.108l-0.179,0.054l-0.241,0.046
			l-2.487,0.463c-1.655,0.297-3.311,0.584-4.974,0.817c-6.646,0.969-13.346,1.573-20.075,1.788c-1.682,0.048-3.367,0.069-5.053,0.08
			c-1.687,0.001-3.374-0.04-5.063-0.082c-3.376-0.121-6.756-0.365-10.13-0.776c-1.686-0.211-3.37-0.457-5.049-0.77
			c-0.839-0.151-1.677-0.32-2.513-0.514c-0.836-0.172-1.67-0.371-2.498-0.605c-1.66-0.423-3.308-0.951-4.917-1.591
			c-1.613-0.615-3.202-1.353-4.709-2.231l0.124,0.052c-0.318-0.144-0.513-0.266-0.742-0.42c-0.222-0.146-0.427-0.314-0.627-0.486
			c-0.39-0.364-0.756-0.766-1.018-1.253c-0.146-0.231-0.251-0.485-0.334-0.75c-0.106-0.253-0.138-0.525-0.177-0.793
			c-0.054-0.268-0.016-0.53-0.004-0.791c0.001-0.264,0.067-0.507,0.132-0.747c0.063-0.242,0.117-0.484,0.229-0.696l0.295-0.648
			l0.371-0.585c0.128-0.189,0.235-0.392,0.395-0.555c0.302-0.337,0.572-0.693,0.893-0.998l0.97-0.896l-0.683,1.114
			c-0.227,0.367-0.391,0.769-0.584,1.142c-0.102,0.186-0.152,0.392-0.229,0.583l-0.209,0.577l-0.119,0.585
			c-0.056,0.19-0.048,0.383-0.054,0.568c-0.01,0.188-0.021,0.371,0.026,0.542c0.035,0.173,0.038,0.35,0.118,0.499
			c0.061,0.155,0.096,0.314,0.197,0.447c0.075,0.142,0.161,0.274,0.277,0.393c0.196,0.251,0.476,0.45,0.756,0.631
			c0.149,0.083,0.297,0.166,0.456,0.23c0.144,0.064,0.342,0.132,0.427,0.146l0.124,0.053c1.519,0.518,3.024,1.037,4.607,1.372
			c0.784,0.183,1.57,0.354,2.373,0.479c0.79,0.161,1.587,0.297,2.395,0.405c0.799,0.126,1.604,0.23,2.413,0.326
			c0.804,0.107,1.613,0.192,2.428,0.261c1.617,0.175,3.25,0.287,4.882,0.384c1.631,0.116,3.271,0.172,4.908,0.238
			c1.64,0.068,3.282,0.09,4.926,0.127c3.288,0.05,6.584,0.051,9.884,0.008c1.65-0.007,3.303-0.032,4.954-0.074l4.96-0.109
			l9.94-0.286l4.979-0.159l2.481-0.102c0.56-0.045,1.308-0.192,1.774-0.494c0.507-0.291,0.883-0.76,1.104-1.405
			c0.211-0.643,0.284-1.41,0.242-2.194c-0.103-1.574-0.528-3.203-1.111-4.774C287.02,441.197,287.85,442.705,288.34,444.417z"/>
	</g>
</g>
</svg>
