<?xml version="1.0" encoding="utf-8"?>
<!-- Generator: Adobe Illustrator 16.0.0, SVG Export Plug-In . SVG Version: 6.00 Build 0)  -->
<!DOCTYPE svg PUBLIC "-//W3C//DTD SVG 1.1//EN" "http://www.w3.org/Graphics/SVG/1.1/DTD/svg11.dtd">
<svg version="1.1" id="Layer_2" xmlns="http://www.w3.org/2000/svg" xmlns:xlink="http://www.w3.org/1999/xlink" x="0px" y="0px"
	 width="500px" height="900px" viewBox="0 0 500 900" enable-background="new 0 0 500 900" xml:space="preserve">
<g>
	<path fill="none" stroke="#1F1813" stroke-width="5" stroke-miterlimit="10" d="M320.187,186.327
		c13.896,33.625,6.67,54.466,6.67,54.466c-8.615,22.789-22.788,8.337-24.176-4.168c-1.389-12.504-12.227-29.456-12.227-29.456
		c-8.613-13.339-25.01-34.459-32.791-51.132c-7.782-16.673-18.063-22.509-18.063-22.509
		c-32.234,17.229-35.569,93.648-35.292,113.657s-3.056,22.788-9.172,24.176c-6.112,1.39-10.28-10.279-10.28-10.279
		c-10.837-20.843-12.505-60.581-12.505-60.581c-1.389-33.623,10.074-56.828,15.493-80.379c5.418-23.551-5.628-50.228-7.503-58.98
		c-1.876-8.754-5.211-22.719-6.252-35.015c-1.042-12.297,13.963-15.006,13.963-15.006c38.558-10.004,41.058-3.126,47.103-0.834
		c6.045,2.293,11.116,4.864,19.453-0.695c8.337-5.557,20.007-3.89,20.007-3.89c43.909,14.449,19.452,59.469,12.229,69.472
		c-7.227,10.006,0,37.237,0,37.237C288.752,121.587,306.293,152.705,320.187,186.327z"/>
	<g>
		<path fill="#1F1813" d="M190.258,99.646c0.868,0.443,1.869,0.885,2.836,1.293c0.979,0.411,1.975,0.79,2.979,1.157
			c2.009,0.724,4.057,1.352,6.13,1.881c1.036,0.265,2.081,0.496,3.13,0.715c1.05,0.202,2.103,0.391,3.162,0.54
			c1.06,0.142,2.122,0.283,3.188,0.354c1.065,0.102,2.133,0.13,3.201,0.163c4.268,0.05,8.565-0.467,12.633-1.82
			c0.504-0.178,1.017-0.339,1.518-0.529l1.484-0.621c0.504-0.191,0.967-0.464,1.453-0.695c0.479-0.244,0.97-0.47,1.424-0.759
			l1.393-0.826l1.333-0.92c0.913-0.587,1.701-1.336,2.563-2.001l0.052-0.042l11.75-7.911l-11.13,8.763l0.051-0.042
			c-0.83,0.749-1.593,1.585-2.49,2.264c-0.438,0.353-0.869,0.717-1.315,1.061l-1.388,0.971c-0.454,0.338-0.948,0.612-1.433,0.905
			c-0.49,0.281-0.961,0.604-1.474,0.846l-1.517,0.771c-0.515,0.241-1.041,0.451-1.563,0.679c-4.198,1.757-8.733,2.651-13.272,2.936
			c-1.137,0.051-2.276,0.104-3.413,0.082c-1.14,0.007-2.274-0.057-3.41-0.125c-1.135-0.074-2.267-0.19-3.396-0.321
			c-1.127-0.147-2.253-0.311-3.371-0.51c-2.239-0.397-4.459-0.899-6.655-1.51c-1.095-0.312-2.189-0.637-3.276-1
			c-1.096-0.371-2.147-0.739-3.285-1.215L190.258,99.646z"/>
	</g>
	<g>
		<path fill="#1F1813" d="M285.695,100.486c0,0-0.029,0.017-0.089,0.052c-0.095,0.057-0.292,0.177-0.452,0.252
			c-0.312,0.149-0.747,0.331-1.272,0.481c-0.528,0.153-1.157,0.292-1.858,0.366c-0.703,0.086-1.479,0.112-2.3,0.07
			c-0.826-0.028-1.689-0.146-2.582-0.306c-0.439-0.095-0.89-0.193-1.351-0.293c-0.446-0.13-0.901-0.264-1.364-0.399
			c-0.908-0.3-1.837-0.626-2.737-1.025c-0.449-0.2-0.9-0.402-1.354-0.604l-1.32-0.677c-0.888-0.437-1.721-0.958-2.551-1.445
			l-0.618-0.367l-0.066-0.037l-0.009-0.007l-0.018-0.013l-0.036-0.024l-0.071-0.053l-0.141-0.103l-0.281-0.205
			c-0.374-0.272-0.743-0.541-1.106-0.806c-1.452-1.061-2.808-2.049-3.97-2.896c-2.324-1.694-3.873-2.824-3.873-2.824
			s1.712,0.864,4.28,2.158c1.284,0.648,2.782,1.403,4.387,2.212c0.401,0.202,0.81,0.408,1.223,0.616l0.311,0.157l0.156,0.079
			l0.078,0.039l0.039,0.02l0.02,0.01l0.01,0.005c-0.108-0.063-0.023-0.015-0.046-0.027l0.646,0.251
			c0.862,0.332,1.726,0.694,2.616,0.962l1.321,0.425c0.443,0.116,0.884,0.231,1.322,0.345c0.872,0.229,1.739,0.378,2.565,0.508
			c0.413,0.052,0.82,0.102,1.218,0.15c0.393,0.02,0.776,0.038,1.15,0.056c0.74,0.008,1.43-0.012,2.037-0.095
			c0.61-0.069,1.147-0.183,1.586-0.315c0.447-0.124,0.797-0.274,1.055-0.402c0.263-0.127,0.418-0.239,0.5-0.302
			c0.037-0.03-0.019-0.009-0.014-0.01c0.037-0.03,0.057-0.047,0.057-0.047L285.695,100.486z"/>
	</g>
</g>
<g>
	<path fill="none" stroke="#1F1813" stroke-width="5" stroke-miterlimit="10" d="M472.822,594.125
		c-7.249,40.016-17.688,46.975-38.274,45.523c-20.588-1.451-24.939-18.846-24.647-33.346c0.29-14.494-3.479-38.854-6.669-49.582
		c-3.19-10.73-4.062-64.375-4.931-80.611c-0.869-16.238-0.288-10.729-5.219-25.805c-4.933-15.078-4.059-32.479,0-40.307
		c4.058-7.829,17.979-21.459,22.618-21.459c4.639,0,15.657,10.438,15.657,10.438s15.659-8.119,26.679-7.538
		c11.021,0.579,30.735,33.634,37.114,53.354c6.38,19.719-12.179,31.316-12.179,31.316S480.069,554.109,472.822,594.125z"/>
	<g>
		<path fill="#1F1813" d="M482.277,478.51c0,0-6.897-2.638-13.796-5.274c-0.862-0.33-1.724-0.659-2.573-0.983
			c-0.889-0.344-1.682-0.674-2.497-1.007c-0.818-0.355-1.608-0.732-2.291-1.063c-0.654-0.34-1.343-0.455-2.021-0.596
			c-1.351-0.238-2.495-0.412-3.293-0.533c-0.798-0.122-1.254-0.192-1.254-0.192s0.461-0.007,1.269-0.021
			c0.81-0.016,1.959-0.038,3.357-0.03c0.354,0.017,0.72,0.017,1.111,0.05c0.399,0.048,0.817,0.106,1.221,0.231
			c0.795,0.229,1.563,0.445,2.377,0.646c0.829,0.186,1.736,0.393,2.584,0.563c0.892,0.177,1.797,0.354,2.703,0.535
			c7.245,1.436,14.49,2.871,14.49,2.871L482.277,478.51z"/>
	</g>
	<g>
		<path fill="#1F1813" d="M402.105,457.927c0,0,0.161-0.068,0.462-0.195c0.301-0.122,0.728-0.29,1.273-0.49
			c1.09-0.396,2.649-0.918,4.565-1.396c0.958-0.239,2.006-0.462,3.125-0.655c0.561-0.096,1.145-0.163,1.733-0.248
			c0.598-0.051,1.209-0.103,1.83-0.157c1.252-0.05,2.551-0.06,3.877,0.097c0.662,0.072,1.326,0.158,1.99,0.327
			c0.35,0.086,0.623,0.12,1.032,0.248l0.893,0.294c0.58,0.175,1.271,0.51,1.885,0.762c0.58,0.319,1.188,0.588,1.724,0.948
			c1.12,0.657,2.103,1.437,3.044,2.177c0.921,0.757,1.781,1.509,2.594,2.202c0.812,0.698,1.592,1.326,2.337,1.875
			c0.751,0.535,1.47,0.981,2.136,1.33c0.34,0.162,0.658,0.313,0.951,0.454c0.307,0.111,0.59,0.214,0.844,0.306
			c0.507,0.207,0.938,0.25,1.218,0.337c0.286,0.067,0.438,0.104,0.438,0.104s-0.155-0.018-0.447-0.05
			c-0.288-0.052-0.731-0.041-1.265-0.186c-0.271-0.061-0.57-0.128-0.896-0.202c-0.317-0.106-0.662-0.22-1.028-0.342
			c-0.727-0.271-1.525-0.638-2.367-1.093c-0.833-0.465-1.715-1.009-2.616-1.606c-0.906-0.598-1.842-1.229-2.82-1.845
			c-0.985-0.594-1.997-1.205-3.073-1.665c-0.525-0.267-1.09-0.429-1.631-0.649l-0.808-0.229c-0.261-0.079-0.531-0.156-0.854-0.21
			l-0.923-0.182c-0.192-0.035-0.546-0.053-0.808-0.081c-0.561-0.073-1.134-0.071-1.702-0.063c-1.133,0.007-2.259,0.16-3.338,0.337
			c-0.539,0.116-1.067,0.229-1.587,0.341c-0.516,0.142-1.02,0.265-1.507,0.413c-0.974,0.297-1.885,0.614-2.717,0.937
			c-1.664,0.646-3.01,1.292-3.927,1.764c-0.458,0.235-0.812,0.43-1.041,0.558c-0.225,0.131-0.345,0.2-0.345,0.2L402.105,457.927z"/>
	</g>
	<g>
		<path fill="#1F1813" d="M394.186,433.124c0.086,0.447,0.192,0.997,0.317,1.645c0.143,0.641,0.308,1.377,0.493,2.202
			c0.413,1.633,0.924,3.616,1.733,5.778c0.355,1.104,0.899,2.194,1.424,3.352l0.1,0.217c-0.007-0.015,0.032,0.074-0.013-0.027
			l0.017,0.027l0.032,0.054l0.063,0.109l0.252,0.44c0.167,0.296,0.336,0.596,0.507,0.899c0.33,0.634,0.726,1.162,1.104,1.739
			c0.368,0.539,0.808,1.237,1.23,1.892c0.447,0.644,0.779,1.45,1.182,2.199c0.213,0.377,0.353,0.779,0.483,1.189
			c0.138,0.408,0.275,0.82,0.414,1.236c0.32,0.835,0.46,1.679,0.642,2.536c0.161,0.856,0.395,1.737,0.501,2.61
			c0.104,0.874,0.209,1.758,0.314,2.651c0.267,1.801,0.3,3.607,0.396,5.453c0.172,3.627,0.348,7.374,0.527,11.183
			c0.084,1.904,0.168,3.824,0.252,5.753c0.143,1.911,0.284,3.83,0.427,5.748c0.259,3.835,0.53,7.667,0.669,11.516
			c0.178,3.829,0.307,7.598,0.422,11.244c0.119,3.646-0.035,7.174-0.061,10.517c-0.033,3.343-0.129,6.501-0.224,9.416
			c-0.073,2.915-0.194,5.586-0.304,7.951c-0.14,2.376-0.322,4.426-0.456,6.125c-0.28,3.393-0.498,5.33-0.498,5.33
			s-0.219-1.938-0.498-5.33c-0.137-1.692-0.312-3.762-0.462-6.111c-0.214-2.357-0.452-5.017-0.653-7.914
			c-0.222-2.899-0.455-6.037-0.636-9.357c-0.1-1.659-0.202-3.363-0.307-5.105c-0.121-1.739-0.149-3.522-0.334-5.326
			c-0.292-3.611-0.583-7.342-0.833-11.134c-0.271-3.816-0.546-7.695-0.82-11.573c-0.129-1.949-0.258-3.898-0.387-5.84
			c-0.096-1.936-0.091-3.854-0.141-5.764c-0.029-1.908-0.058-3.801-0.086-5.671c-0.01-0.956-0.02-1.907-0.03-2.85
			c0.003-0.907,0.006-1.808,0.01-2.701c0.011-1.787,0.041-3.556-0.067-5.238c-0.036-0.85-0.071-1.689-0.106-2.52
			c-0.037-0.83-0.19-1.601-0.275-2.392c-0.104-0.781-0.171-1.575-0.392-2.271c-0.091-0.36-0.181-0.719-0.27-1.073
			c-0.088-0.357-0.16-0.718-0.308-1.039c-0.282-0.66-0.451-1.325-0.807-1.968c-0.341-0.666-0.675-1.318-1.003-1.958
			c-0.351-0.681-0.731-1.35-0.98-1.984c-0.14-0.318-0.276-0.635-0.411-0.946l-0.199-0.468l-0.121-0.289l-0.077-0.249
			c-0.406-1.323-0.822-2.561-1.04-3.755c-0.565-2.36-0.729-4.456-0.884-6.163c-0.13-1.711-0.119-3.058-0.118-3.972
			c0.021-0.918,0.054-1.402,0.054-1.402S394.031,432.225,394.186,433.124z"/>
	</g>
	<g>
		<path fill="#1F1813" d="M454.258,404.478c-0.212,0.151-0.531,0.401-0.988,0.598c-0.227,0.119-0.482,0.21-0.768,0.314
			c-0.285,0.113-0.603,0.204-0.938,0.273c-0.685,0.176-1.455,0.255-2.313,0.313c-0.428,0.025-0.858-0.009-1.318-0.013
			c-0.229-0.01-0.462-0.02-0.698-0.029l-0.044-0.002c-0.163-0.042-0.051-0.013-0.09-0.022l-0.01-0.001l-0.021-0.003l-0.082-0.01
			l-0.165-0.021l-0.333-0.041c-0.394-0.031-1.158-0.262-1.633-0.427c-0.532-0.169-1.048-0.422-1.475-0.604
			c-0.459-0.202-0.786-0.324-1.067-0.407c-0.264-0.034-0.455-0.068-0.728-0.042c-0.529,0.05-1.299,0.191-2.146,0.515
			c-0.843,0.268-1.728,0.646-2.621,1c-0.44,0.171-0.89,0.386-1.336,0.557l-0.664,0.272l-0.224,0.095l-0.23,0.079l-0.603,0.181
			c-0.688,0.134-1.278,0.229-1.854,0.199c-0.283-0.005-0.565-0.01-0.844-0.015c-0.265-0.038-0.526-0.075-0.785-0.112
			c-1.043-0.113-1.916-0.479-2.731-0.742c-0.786-0.338-1.46-0.722-2.051-1.046c-0.59-0.326-1.032-0.746-1.417-1.028
			c-0.755-0.603-1.14-0.99-1.14-0.99s0.576-0.005,1.503,0.063c0.467,0.023,1.013,0.106,1.64,0.114
			c0.606,0.014,1.292,0.029,2.039,0.046c0.722-0.068,1.495-0.021,2.239-0.181c0.188-0.032,0.377-0.052,0.566-0.074
			c0.176-0.046,0.354-0.093,0.534-0.141c0.359-0.078,0.701-0.211,0.951-0.319c0.027-0.026,0.057-0.046,0.087-0.061l0.108-0.062
			l0.041-0.021l0.021-0.012c0.054-0.027-0.063,0.03-0.046,0.022l0.011-0.006l0.083-0.049l0.667-0.395
			c0.452-0.264,0.889-0.54,1.383-0.772c0.953-0.506,1.968-0.955,3.087-1.347c1.101-0.365,2.383-0.693,3.891-0.615
			c0.749,0.018,1.551,0.24,2.229,0.523c0.644,0.296,1.19,0.633,1.572,0.914c0.355,0.248,0.707,0.492,1.05,0.729
			c0.166,0.12,0.301,0.2,0.43,0.28c0.126,0.082,0.256,0.173,0.489,0.27l0.305,0.14l0.15,0.069l0.075,0.035l0.019,0.008l0.009,0.004
			c-0.032-0.008,0.086,0.023-0.07-0.018l0.035,0.014c0.188,0.071,0.371,0.143,0.554,0.213c0.363,0.145,0.721,0.301,1.062,0.426
			c0.685,0.236,1.327,0.475,1.907,0.622c0.295,0.101,0.567,0.149,0.825,0.212c0.26,0.063,0.505,0.125,0.721,0.146
			c0.883,0.147,1.444,0.1,1.444,0.1S454.471,404.305,454.258,404.478z"/>
	</g>
	<path fill="none" stroke="#1F1813" stroke-width="5" stroke-miterlimit="10" d="M433.965,403.594
		c-0.869-2.2-2.608-4.617-2.608-4.617"/>
	<g>
		<path fill="#1F1813" d="M436.858,404.933c0,0-0.002-0.002-0.005-0.005c-0.045-0.026-0.096-0.057-0.152-0.09
			c-0.096-0.06-0.201-0.135-0.311-0.229c-0.219-0.186-0.454-0.461-0.617-0.788c-0.039-0.075-0.082-0.175-0.104-0.237l-0.035-0.103
			c-0.022-0.071-0.044-0.149-0.063-0.232c-0.037-0.166-0.062-0.355-0.063-0.557c-0.001-0.094,0.006-0.218,0.015-0.293l0.021-0.12
			c0.016-0.083,0.034-0.172,0.061-0.264c0.146-0.484,0.207-0.498,0.333-0.727c0.127-0.194,0.182-0.229,0.298-0.368
			c0.188-0.189,0.387-0.356,0.583-0.492c0.207-0.155,0.418-0.28,0.65-0.425c0.918-0.545,2.081-1.102,3.257-1.635
			c2.344-1.06,4.696-2.001,4.696-2.001s-1.627,1.96-3.142,3.959c-0.755,0.994-1.485,2.013-1.908,2.738
			c-0.099,0.178-0.196,0.343-0.241,0.466c-0.065,0.133-0.074,0.219-0.053,0.241c0.041-0.026,0.019,0.03,0.098-0.071
			c0.08-0.134,0.088-0.074,0.224-0.485c0.021-0.074,0.036-0.146,0.047-0.215l0.014-0.098c0.009-0.067,0.017-0.184,0.016-0.271
			c0.001-0.188-0.023-0.364-0.059-0.52c-0.019-0.077-0.039-0.15-0.062-0.216l-0.034-0.096c-0.021-0.06-0.063-0.156-0.101-0.23
			c-0.158-0.319-0.388-0.588-0.604-0.768c-0.106-0.093-0.211-0.163-0.305-0.222c-0.047-0.026-0.092-0.052-0.134-0.076
			c-0.029-0.015-0.007-0.004-0.013-0.007c0.005,0.001,0.007,0.002,0.007,0.002L436.858,404.933z"/>
	</g>
</g>
<g>
	<path fill="none" stroke="#1F1813" stroke-width="5" stroke-miterlimit="10" d="M29.392,609.131
		c7.777,42.937,18.979,50.402,41.069,48.847c22.088-1.558,26.758-20.221,26.445-35.78c-0.312-15.556,3.734-41.691,7.155-53.204
		s4.356-69.07,5.291-86.494c0.934-17.42,0.311-11.51,5.601-27.688c5.29-16.177,4.355-34.847,0-43.247
		c-4.355-8.401-19.293-23.024-24.271-23.024c-4.977,0-16.802,11.201-16.802,11.201s-16.8-8.711-28.625-8.089
		c-11.824,0.622-32.978,36.09-39.823,57.247C-1.413,470.057,18.5,482.5,18.5,482.5S21.615,566.197,29.392,609.131z"/>
	<g>
		<path fill="#1F1813" d="M17.808,480.098c0,0,7.761-1.585,15.521-3.17c0.97-0.198,1.94-0.397,2.896-0.591
			c0.912-0.189,1.88-0.415,2.771-0.618c0.873-0.222,1.698-0.458,2.548-0.709c0.431-0.136,0.876-0.199,1.302-0.253
			c0.418-0.039,0.81-0.04,1.189-0.061c1.498-0.016,2.732,0,3.6,0.013c0.866,0.01,1.361,0.016,1.361,0.016s-0.49,0.072-1.348,0.199
			c-0.855,0.124-2.085,0.304-3.535,0.551c-0.728,0.146-1.472,0.266-2.18,0.627c-0.734,0.352-1.583,0.75-2.462,1.126
			c-0.875,0.351-1.73,0.702-2.683,1.063c-0.912,0.344-1.839,0.69-2.767,1.039c-7.414,2.786-14.827,5.572-14.827,5.572
			L17.808,480.098z"/>
	</g>
	<g>
		<path fill="#1F1813" d="M102.934,467.62c0,0-0.131-0.074-0.375-0.215c-0.248-0.138-0.631-0.345-1.125-0.596
			c-0.99-0.502-2.441-1.19-4.235-1.877c-0.898-0.344-1.881-0.679-2.932-0.994c-0.524-0.157-1.068-0.286-1.625-0.437
			c-0.56-0.117-1.131-0.237-1.712-0.359c-1.165-0.186-2.379-0.345-3.602-0.346c-0.613-0.008-1.232-0.006-1.837,0.076
			c-0.285,0.032-0.661,0.053-0.875,0.094l-0.988,0.197c-0.346,0.06-0.637,0.144-0.919,0.231l-0.872,0.252
			c-0.581,0.24-1.189,0.418-1.752,0.708c-1.157,0.501-2.241,1.164-3.297,1.805c-1.047,0.668-2.049,1.349-3.019,1.993
			c-0.964,0.646-1.904,1.232-2.796,1.734c-0.899,0.493-1.754,0.888-2.531,1.182c-0.394,0.133-0.762,0.257-1.102,0.371
			c-0.35,0.08-0.67,0.155-0.96,0.221c-0.571,0.157-1.045,0.147-1.354,0.204c-0.312,0.036-0.479,0.057-0.479,0.057
			s0.164-0.039,0.471-0.111c0.303-0.091,0.765-0.135,1.31-0.356c0.272-0.096,0.577-0.204,0.906-0.321
			c0.315-0.149,0.658-0.312,1.023-0.483c0.716-0.372,1.491-0.847,2.3-1.42c0.804-0.585,1.645-1.256,2.519-2.002
			c0.874-0.742,1.801-1.544,2.792-2.351c1.011-0.789,2.065-1.618,3.266-2.316c0.576-0.384,1.225-0.668,1.847-1.008
			c0.657-0.268,1.391-0.62,2.015-0.806l0.958-0.312c0.434-0.134,0.729-0.171,1.101-0.26c0.709-0.179,1.418-0.268,2.125-0.343
			c1.415-0.161,2.803-0.145,4.142-0.087c0.662,0.061,1.314,0.118,1.953,0.177c0.63,0.092,1.254,0.167,1.852,0.271
			c1.195,0.211,2.315,0.453,3.338,0.713c2.047,0.521,3.713,1.083,4.877,1.512c0.582,0.215,1.037,0.396,1.357,0.527
			c0.319,0.137,0.49,0.209,0.49,0.209L102.934,467.62z"/>
	</g>
	<g>
		<path fill="#1F1813" d="M114.067,436.4c-0.006,0.98-0.005,2.424-0.152,4.258c-0.174,1.828-0.364,4.072-0.98,6.599
			c-0.238,1.278-0.69,2.6-1.13,4.015l-0.084,0.266l-0.128,0.306l-0.215,0.5c-0.146,0.334-0.294,0.673-0.444,1.015
			c-0.27,0.683-0.679,1.395-1.056,2.12c-0.355,0.687-0.716,1.386-1.085,2.099c-0.385,0.689-0.571,1.409-0.878,2.12
			c-0.162,0.349-0.241,0.735-0.337,1.121c-0.099,0.383-0.195,0.769-0.294,1.157c-0.241,0.754-0.317,1.605-0.431,2.448
			c-0.095,0.85-0.262,1.68-0.305,2.572c-0.04,0.893-0.08,1.796-0.122,2.708c-0.121,1.811-0.091,3.709-0.083,5.63
			c0.001,0.96,0.003,1.927,0.005,2.901c-0.013,1.012-0.023,2.029-0.037,3.053c-0.032,2.007-0.065,4.037-0.099,6.086
			c-0.054,2.048-0.051,4.107-0.155,6.184c-0.138,2.082-0.275,4.172-0.415,6.262c-0.293,4.161-0.586,8.322-0.875,12.418
			c-0.265,4.07-0.571,8.074-0.879,11.95c-0.193,1.937-0.222,3.851-0.348,5.718c-0.107,1.87-0.211,3.699-0.313,5.479
			c-0.186,3.563-0.425,6.932-0.651,10.042c-0.206,3.111-0.448,5.965-0.666,8.495c-0.151,2.521-0.325,4.74-0.463,6.558
			c-0.278,3.64-0.497,5.72-0.497,5.72s-0.22-2.08-0.497-5.72c-0.135-1.823-0.317-4.023-0.456-6.571
			c-0.106-2.538-0.223-5.402-0.291-8.529c-0.09-3.128-0.18-6.519-0.209-10.104c-0.018-3.585-0.172-7.37-0.038-11.281
			c0.13-3.911,0.275-7.955,0.469-12.061c0.153-4.127,0.445-8.241,0.725-12.358c0.151-2.06,0.305-4.12,0.456-6.172
			c0.089-2.068,0.178-4.129,0.266-6.173c0.188-4.087,0.373-8.108,0.552-12c0.099-1.979,0.133-3.916,0.412-5.843
			c0.112-0.958,0.222-1.905,0.331-2.842c0.111-0.936,0.358-1.877,0.529-2.793c0.191-0.918,0.339-1.821,0.679-2.713
			c0.146-0.443,0.292-0.884,0.438-1.32c0.14-0.438,0.288-0.867,0.515-1.271c0.428-0.8,0.776-1.662,1.253-2.352
			c0.452-0.703,0.917-1.446,1.313-2.031c0.406-0.623,0.828-1.195,1.179-1.875c0.183-0.326,0.361-0.65,0.54-0.968l0.269-0.475
			l0.067-0.116l0.032-0.059l0.019-0.028c-0.045,0.098-0.005,0.009-0.012,0.023l0.104-0.233c0.561-1.248,1.14-2.425,1.516-3.61
			c0.859-2.328,1.396-4.46,1.83-6.215c0.194-0.887,0.366-1.679,0.517-2.366c0.129-0.695,0.239-1.286,0.329-1.765
			c0.154-0.966,0.237-1.48,0.237-1.48S114.053,435.418,114.067,436.4z"/>
	</g>
	<g>
		<path fill="#1F1813" d="M50.534,405.269c0.231-0.018,0.495-0.077,0.774-0.14c0.279-0.061,0.572-0.106,0.89-0.21
			c0.626-0.146,1.32-0.39,2.062-0.632c0.369-0.129,0.755-0.292,1.148-0.441c0.196-0.074,0.396-0.147,0.599-0.224l0.038-0.014
			c0.021-0.005-0.144,0.037-0.069,0.017l0.01-0.004l0.021-0.009l0.08-0.036l0.162-0.072l0.328-0.146
			c0.249-0.101,0.395-0.197,0.534-0.285c0.146-0.086,0.296-0.172,0.479-0.299c0.373-0.255,0.754-0.516,1.143-0.779
			c0.412-0.299,0.99-0.653,1.668-0.962c0.714-0.295,1.552-0.527,2.336-0.544c1.582-0.08,2.938,0.265,4.11,0.655
			c1.191,0.415,2.274,0.895,3.295,1.431c0.528,0.248,0.998,0.541,1.482,0.821c0.36,0.211,0.718,0.42,1.068,0.626
			c0.283,0.116,0.658,0.258,1.053,0.338c0.196,0.049,0.393,0.098,0.585,0.146c0.206,0.021,0.411,0.04,0.614,0.072
			c0.81,0.161,1.644,0.1,2.422,0.161c0.802-0.032,1.536-0.061,2.188-0.086c0.672-0.021,1.254-0.122,1.751-0.156
			c0.989-0.094,1.6-0.103,1.6-0.103s-0.42,0.401-1.234,1.027c-0.416,0.294-0.896,0.732-1.528,1.071
			c-0.636,0.335-1.358,0.735-2.2,1.085c-0.873,0.271-1.806,0.652-2.914,0.763c-0.273,0.037-0.553,0.075-0.834,0.113
			c-0.295,0.004-0.593,0.007-0.895,0.01c-0.609,0.027-1.233-0.075-1.955-0.219l-0.628-0.189l-0.241-0.084l-0.234-0.102l-0.714-0.297
			c-0.479-0.187-0.96-0.419-1.435-0.604c-0.961-0.386-1.915-0.793-2.83-1.085c-0.916-0.349-1.761-0.508-2.364-0.557
			c-0.311-0.025-0.538,0.018-0.836,0.063c-0.313,0.097-0.675,0.235-1.163,0.457c-0.458,0.197-1.004,0.469-1.566,0.651
			c-0.266,0.102-0.578,0.195-0.892,0.279c-0.314,0.092-0.62,0.17-0.835,0.184l-0.355,0.049l-0.176,0.022l-0.089,0.012l-0.021,0.003
			l-0.011,0.001l-0.091,0.022l-0.048,0.003c-0.253,0.013-0.501,0.026-0.744,0.039c-0.49,0.01-0.949,0.05-1.404,0.028
			c-0.915-0.052-1.737-0.125-2.467-0.302c-0.359-0.067-0.698-0.159-1.003-0.275c-0.305-0.106-0.579-0.198-0.822-0.321
			c-0.49-0.201-0.834-0.458-1.063-0.616c-0.228-0.177-0.317-0.288-0.317-0.288S49.588,405.407,50.534,405.269z"/>
	</g>
	<path fill="none" stroke="#1F1813" stroke-width="5" stroke-miterlimit="10" d="M71.083,404.693
		c0.933-2.36,2.798-4.953,2.798-4.953"/>
	<g>
		<path fill="#1F1813" d="M65.581,401.537c0,0,0.003-0.001,0.008-0.002c-0.006,0.003,0.015-0.009-0.014,0.007
			c-0.042,0.024-0.087,0.05-0.134,0.076c-0.095,0.058-0.198,0.13-0.307,0.221c-0.214,0.182-0.444,0.45-0.602,0.771
			c-0.037,0.074-0.079,0.173-0.101,0.229l-0.033,0.096c-0.023,0.065-0.044,0.138-0.062,0.215c-0.036,0.154-0.059,0.331-0.058,0.518
			c-0.001,0.087,0.008,0.204,0.016,0.271l0.014,0.097c0.012,0.067,0.026,0.138,0.048,0.213c0.136,0.408,0.142,0.345,0.221,0.476
			c0.077,0.099,0.051,0.038,0.089,0.06c0.016-0.03,0-0.126-0.075-0.268c-0.054-0.134-0.163-0.31-0.272-0.498
			c-0.474-0.772-1.273-1.849-2.099-2.897c-1.656-2.11-3.428-4.177-3.428-4.177s2.497,1.047,4.98,2.219
			c1.247,0.588,2.479,1.203,3.446,1.794c0.245,0.156,0.466,0.291,0.684,0.456c0.207,0.146,0.413,0.322,0.605,0.521
			c0.118,0.141,0.177,0.18,0.305,0.378c0.13,0.23,0.191,0.248,0.339,0.732c0.025,0.095,0.046,0.184,0.062,0.267l0.021,0.121
			c0.009,0.072,0.017,0.197,0.016,0.292c-0.001,0.202-0.026,0.392-0.063,0.559c-0.019,0.084-0.04,0.161-0.062,0.233l-0.035,0.103
			c-0.021,0.061-0.064,0.161-0.104,0.237c-0.162,0.328-0.397,0.604-0.617,0.791c-0.11,0.094-0.215,0.169-0.312,0.229
			c-0.056,0.033-0.107,0.063-0.152,0.089c-0.005,0.004-0.007,0.005-0.007,0.005L65.581,401.537z"/>
	</g>
</g>
<g>
	<path fill="none" stroke="#1F1813" stroke-width="5" stroke-miterlimit="10" d="M324.804,730.574
		c10.837,43.351-5.003,87.256-8.615,95.316c-3.611,8.058-19.455,20.562-19.455-22.509c0-43.073-15.005-75.863-25.843-94.204
		c-10.837-18.341-20.843-5.559-24.728,0.833c-3.886,6.391-17.232,39.183-29.737,52.521c-12.504,13.338-16.672,35.848-18.34,46.407
		c-1.667,10.561-9.447,11.948-9.447,11.948s-12.229,1.945-15.84-24.175c-3.611-26.123,20.284-75.864,33.623-106.154
		c13.339-30.292,3.61-49.743-2.78-56.967c-6.393-7.225-16.394-30.013-4.445-51.132c11.95-21.12,31.955-8.616,47.242-6.948
		c15.284,1.668,18.895-11.671,30.566-11.114c11.672,0.558,11.672,11.671,28.344,11.671c16.673,0,14.452,10.279,14.452,10.279
		s-5.559,46.131-10.004,65.026c-4.448,18.896,0,35.014,0,35.014C318.968,706.392,324.804,730.573,324.804,730.574z"/>
	<g>
		<path fill="#1F1813" d="M257.619,692.871c1.405-0.936,3.14-1.402,4.872-1.39c3.504,0.125,6.656,1.869,9.296,3.876l7.799,5.775
			l1.957,1.499l1.921,1.581c0.639,0.529,1.229,1.128,1.847,1.69c0.624,0.557,1.206,1.162,1.775,1.783
			c1.189,1.195,2.229,2.526,3.29,3.845c0.528,0.66,0.97,1.383,1.458,2.073c0.474,0.7,0.977,1.386,1.371,2.131
			c0.824,1.472,1.683,2.934,2.336,4.479l1.052,2.292l0.884,2.346l0.873,2.354l0.716,2.389l0.715,2.393
			c0.225,0.8,0.374,1.613,0.564,2.419l0.542,2.425l0.271,1.212l0.206,1.219l0.82,4.876c0.233,1.628,0.404,3.26,0.608,4.89
			c0.204,1.62,0.401,3.279,0.509,4.882c0.268,3.229,0.475,6.521,0.639,9.763c0.163,3.254,0.29,6.508,0.338,9.762
			c0.044,3.254,0.04,6.505,0.02,9.751c-0.019,3.245-0.063,6.487-0.154,9.718c-0.075,3.23-0.152,6.455-0.141,9.657
			c0.011,3.194,0.019,6.4,0.449,9.464c0.221,1.524,0.557,3.017,1.132,4.311c0.563,1.317,1.496,2.247,2.771,2.666l0.13,0.041
			c0.122,0.059,0.427,0.136,0.665,0.168c0.256,0.028,0.521,0.048,0.786,0.022c0.268,0.006,0.529-0.079,0.799-0.118
			c0.255-0.101,0.534-0.141,0.783-0.277c0.25-0.13,0.523-0.224,0.754-0.403c0.234-0.171,0.5-0.301,0.711-0.516
			c0.219-0.203,0.456-0.387,0.666-0.604l0.605-0.687c0.216-0.221,0.363-0.497,0.552-0.744c0.17-0.259,0.374-0.5,0.521-0.777
			c0.296-0.552,0.661-1.075,0.917-1.656c0.26-0.578,0.566-1.142,0.79-1.74l0.688-1.8l-0.428,1.885
			c-0.14,0.632-0.364,1.238-0.545,1.864c-0.181,0.627-0.467,1.218-0.705,1.83c-0.121,0.308-0.304,0.585-0.452,0.881
			c-0.168,0.286-0.294,0.598-0.498,0.865l-0.576,0.832c-0.205,0.27-0.448,0.514-0.674,0.774c-0.215,0.27-0.509,0.473-0.77,0.708
			c-0.255,0.244-0.575,0.413-0.876,0.61c-0.297,0.203-0.65,0.321-0.981,0.479c-0.355,0.098-0.706,0.235-1.081,0.274
			c-0.37,0.068-0.749,0.084-1.132,0.075c-0.401-0.025-0.733-0.049-1.219-0.203l0.13,0.041c-0.916-0.225-1.864-0.585-2.605-1.229
			c-0.393-0.292-0.698-0.662-1.022-1.012c-0.259-0.378-0.584-0.747-0.779-1.149c-0.917-1.585-1.383-3.266-1.763-4.912
			c-0.713-3.309-0.99-6.59-1.212-9.854c-0.189-3.267-0.29-6.513-0.393-9.75l-0.253-9.69c-0.086-3.223-0.188-6.442-0.338-9.655
			c-0.154-3.213-0.265-6.425-0.477-9.629c-0.198-3.219-0.432-6.383-0.733-9.599c-0.143-1.625-0.299-3.18-0.483-4.771
			c-0.181-1.582-0.328-3.171-0.536-4.747l-0.738-4.702l-0.186-1.177l-0.247-1.158l-0.492-2.316
			c-0.169-0.771-0.315-1.549-0.502-2.313l-0.602-2.276l-0.602-2.281l-0.743-2.222l-0.751-2.223l-0.905-2.147
			c-0.555-1.461-1.305-2.811-2.007-4.192c-0.323-0.708-0.75-1.351-1.146-2.014c-0.412-0.652-0.775-1.34-1.227-1.967
			c-0.903-1.252-1.784-2.528-2.822-3.687c-2.017-2.362-4.271-4.55-6.688-6.651c-2.397-2.096-4.963-4.217-7.316-6.398
			c-2.271-2.124-4.946-3.858-7.944-4.354c-1.494-0.188-3.042,0.046-4.448,0.721c-1.41,0.661-2.657,1.746-3.595,3.063
			C255.102,695.094,256.204,693.8,257.619,692.871z"/>
	</g>
	<path fill="none" stroke="#1F1813" stroke-width="5" stroke-miterlimit="10" d="M212.796,667.555
		c20.129-12.306,43.229-1.869,57.401-0.202c14.174,1.666,19.175-7.503,26.262-8.337c7.086-0.835,11.568,4.249,11.568,4.249"/>
	<g>
		<path fill="#1F1813" d="M285.788,564.81c0,0,0.271,0.412,0.749,1.133c0.471,0.705,1.176,1.738,2.042,2.94
			c0.858,1.216,1.905,2.594,3.046,4.062c0.588,0.715,1.195,1.454,1.813,2.205c0.649,0.716,1.31,1.443,1.969,2.171
			c0.682,0.695,1.401,1.333,2.098,2.002l0.065,0.063l0.017,0.016l0.008,0.008c-0.021-0.012,0.058,0.04-0.044-0.026l0.038,0.026
			l0.148,0.11l0.297,0.22l0.589,0.431c0.373,0.188,0.703,0.436,1.107,0.597c0.401,0.164,0.793,0.349,1.206,0.442
			c0.405,0.134,0.814,0.208,1.219,0.268c0.81,0.129,1.6,0.128,2.329,0.079c1.462-0.12,2.672-0.476,3.492-0.773
			c0.823-0.301,1.267-0.547,1.267-0.547s-0.398,0.311-1.177,0.742c-0.777,0.428-1.939,0.982-3.46,1.35
			c-0.76,0.174-1.608,0.309-2.524,0.308c-0.459,0.004-0.934-0.008-1.414-0.085c-0.49-0.037-0.971-0.171-1.47-0.292
			c-0.498-0.116-1.003-0.358-1.521-0.551l-0.658-0.338l-0.328-0.172l-0.165-0.086l-0.042-0.021l-0.092-0.063l-0.079-0.054
			c-0.839-0.582-1.729-1.155-2.563-1.778c-0.807-0.649-1.612-1.3-2.405-1.94c-0.758-0.674-1.503-1.336-2.224-1.979
			c-1.401-1.317-2.699-2.567-3.771-3.671c-1.085-1.099-1.956-2.026-2.578-2.701c-0.607-0.666-0.955-1.046-0.955-1.046
			L285.788,564.81z"/>
	</g>
	<g>
		<path fill="#1F1813" d="M263.709,572.726c0,0-0.041,0.059-0.119,0.174c-0.088,0.125-0.234,0.347-0.398,0.562
			c-0.335,0.457-0.831,1.098-1.5,1.868c-0.666,0.775-1.512,1.677-2.541,2.646c-1.033,0.966-2.25,2.003-3.676,3.009
			c-1.429,0.997-3.045,1.998-4.884,2.81c-1.81,0.864-3.859,1.479-5.996,1.916c-0.541,0.08-1.085,0.162-1.634,0.244l-0.411,0.062
			l-0.165,0.02l-0.099,0.005l-0.194,0.013l-0.782,0.046c-1.004,0.092-2.2,0.052-3.356,0.027c-2.268-0.147-4.546-0.599-6.693-1.313
			c-2.154-0.705-4.163-1.641-6.104-2.481c-1.939-0.845-3.842-1.57-5.763-1.938c-0.477-0.122-0.958-0.156-1.435-0.219
			c-0.477-0.077-0.951-0.096-1.425-0.101c-0.951-0.063-1.831,0.021-2.742,0.169c-1.798,0.278-3.463,0.799-4.943,1.401
			c-1.488,0.597-2.775,1.333-3.859,2.064c-0.541,0.37-1.046,0.721-1.475,1.095c-0.444,0.355-0.848,0.688-1.177,1.029
			c-0.699,0.641-1.189,1.201-1.516,1.593c-0.334,0.384-0.514,0.589-0.514,0.589s0.163-0.217,0.469-0.624
			c0.301-0.414,0.75-1.013,1.407-1.708c0.308-0.368,0.69-0.733,1.114-1.126c0.407-0.411,0.894-0.804,1.418-1.221
			c1.052-0.825,2.316-1.675,3.808-2.403c1.485-0.732,3.171-1.397,5.043-1.827c0.916-0.222,1.947-0.393,2.958-0.396
			c0.509-0.03,1.023-0.048,1.543-0.005c0.519,0.031,1.049,0.033,1.57,0.126c2.111,0.249,4.22,0.888,6.255,1.604
			c2.041,0.717,4.042,1.476,6.064,1.978c2.018,0.514,4.058,0.761,6.065,0.749c0.98-0.059,1.909-0.067,2.987-0.243l0.777-0.103
			l0.192-0.025l0.097-0.013l0.024-0.003c0.022-0.002-0.104,0.012-0.041,0.003l0.044-0.01l0.354-0.08
			c0.469-0.104,0.933-0.209,1.394-0.313c1.815-0.515,3.527-1.156,5.032-2.021c1.528-0.806,2.862-1.777,4.038-2.729
			c1.173-0.961,2.168-1.94,3.006-2.846c0.835-0.909,1.513-1.746,2.036-2.453c0.526-0.704,0.905-1.275,1.146-1.658
			c0.224-0.37,0.342-0.568,0.342-0.568L263.709,572.726z"/>
	</g>
</g>
<g>
	<path fill="none" stroke="#1F1813" stroke-width="5" stroke-miterlimit="10" d="M300.319,470.48
		c-5.001,9.171-16.673,25.012-58.354,29.595c-41.684,4.587-52.939-11.671-51.273-31.261c1.669-19.591-5.834-29.596,10.006-51.132
		c15.839-21.534,33.346-12.646,46.98-20.564c13.631-7.92,23.88-12.089,46.035-4.808c22.151,7.279,16.193,33.57,16.193,33.57
		C309.906,454.223,305.321,461.31,300.319,470.48z"/>
	<g>
		<path fill="#1F1813" d="M297.227,432.834c-0.223,1.758-0.573,3.511-1.081,5.236c-0.519,1.721-1.229,3.401-2.135,4.999
			c-0.912,1.59-2.023,3.112-3.4,4.403c-1.366,1.298-2.96,2.386-4.686,3.197c-1.727,0.8-3.57,1.389-5.442,1.646
			c-0.936,0.131-1.869,0.219-2.815,0.272c-0.992,0.04-2.032-0.013-3.038-0.188c-1.018-0.179-2.042-0.481-3.005-0.934
			c-0.957-0.46-1.853-1.05-2.638-1.699c-0.791-0.645-1.48-1.351-2.072-1.96c-0.293-0.299-0.572-0.573-0.771-0.728
			c-0.193-0.165-0.295-0.122,0.038-0.032c0.078,0.013,0.159,0.018,0.241,0.016l0.261-0.047l-0.079,0.022l-0.157,0.047
			c-0.084,0.067,0.107-0.015-0.139,0.104c-0.291,0.145-0.649,0.348-0.995,0.553c-0.7,0.411-1.422,0.87-2.139,1.333l-8.726,5.696
			c-2.938,1.896-5.897,3.776-8.927,5.575c-1.516,0.896-3.041,1.79-4.614,2.621c-1.572,0.839-3.146,1.662-4.885,2.396l0.744-0.678
			c-1.67,2.365-3.3,4.74-5.074,7.031c-0.864,1.158-1.762,2.299-2.682,3.42c-0.915,1.123-1.874,2.226-2.889,3.263l0.979-1.937
			c0.306-0.657,0.637-1.294,0.956-1.939c0.617-1.306,1.265-2.587,1.902-3.878c1.249-2.593,2.59-5.136,3.855-7.708l0.179-0.361
			l0.566-0.315c1.412-0.785,2.854-1.742,4.272-2.713l4.271-2.957c2.853-1.985,5.718-3.976,8.61-5.943
			c2.903-1.956,5.813-3.897,8.854-5.755c0.768-0.46,1.537-0.916,2.36-1.364c0.415-0.226,0.823-0.444,1.322-0.674
			c0.143-0.081,0.742-0.32,1.066-0.405l0.16-0.038l0.08-0.019l0.256-0.049l0.056-0.005l0.112-0.01
			c0.301-0.026,0.601-0.016,0.896,0.033c1.208,0.216,1.85,0.798,2.316,1.19c0.462,0.42,0.78,0.788,1.083,1.128
			c0.595,0.672,1.087,1.26,1.617,1.763c1.05,1.002,2.2,1.702,3.585,2.108c0.702,0.201,1.411,0.317,2.166,0.373
			c0.195,0.008,0.49,0.026,0.604,0.024l0.604-0.021c0.401-0.025,0.813-0.004,1.208-0.064c3.203-0.245,6.306-1.324,8.828-3.356
			c1.255-1.014,2.402-2.204,3.371-3.56c0.978-1.348,1.789-2.839,2.479-4.397c1.364-3.128,2.254-6.524,2.662-10.003
			C297.518,429.302,297.417,431.069,297.227,432.834z"/>
	</g>
	<g>
		<path fill="#1F1813" d="M266.566,447.494c0,0-0.052-0.09-0.149-0.258c-0.125-0.203-0.246-0.443-0.408-0.756
			c-0.302-0.622-0.708-1.5-1.088-2.569c-0.381-1.068-0.772-2.319-1.065-3.678c-0.163-0.675-0.285-1.379-0.397-2.093
			c-0.138-0.708-0.18-1.445-0.271-2.165c-0.066-0.726-0.084-1.453-0.126-2.161c0.005-0.709,0.009-1.407,0.013-2.082
			c0.046-0.67,0.089-1.317,0.132-1.93c0.028-0.61,0.146-1.184,0.206-1.71c0.078-0.526,0.122-1.009,0.224-1.43
			c0.087-0.421,0.162-0.788,0.224-1.09c0.124-0.601,0.195-0.943,0.195-0.943s0.007,0.351,0.019,0.965
			c0.006,0.305,0.015,0.676,0.023,1.101c-0.006,0.422,0.058,0.902,0.097,1.42c0.058,0.52,0.067,1.079,0.171,1.666
			c0.093,0.583,0.188,1.199,0.288,1.835c0.139,0.625,0.28,1.271,0.425,1.928c0.189,0.645,0.354,1.301,0.563,1.941
			c0.234,0.636,0.414,1.281,0.683,1.885c0.245,0.612,0.492,1.206,0.771,1.764c0.523,1.126,1.104,2.119,1.625,2.936
			c0.521,0.819,1.008,1.442,1.341,1.859c0.17,0.198,0.307,0.362,0.375,0.424c0.092,0.097,0.141,0.149,0.141,0.149L266.566,447.494z"
			/>
	</g>
	<g>
		<path fill="#1F1813" d="M235.671,461.806c0,0,0.026-0.092,0.079-0.266c0.037-0.142,0.091-0.35,0.159-0.614
			c0.075-0.238,0.14-0.621,0.216-1.048c0.071-0.43,0.181-0.904,0.229-1.455c0.063-0.549,0.132-1.142,0.204-1.77
			c0.056-0.633,0.075-1.31,0.118-2.01c0.03-0.7,0.097-1.427,0.074-2.169c-0.005-0.744-0.011-1.501-0.015-2.257
			c0.006-0.761-0.012-1.521-0.074-2.268c-0.048-0.75-0.095-1.486-0.14-2.201c-0.051-0.714-0.073-1.411-0.146-2.064
			c-0.076-0.654-0.15-1.272-0.217-1.843c-0.27-2.294-0.45-3.824-0.45-3.824s0.485,1.465,1.215,3.661
			c0.183,0.553,0.381,1.15,0.59,1.783c0.207,0.635,0.369,1.316,0.567,2.018c0.192,0.705,0.39,1.432,0.592,2.172
			c0.216,0.739,0.394,1.499,0.545,2.268c0.163,0.769,0.326,1.535,0.486,2.293c0.18,0.755,0.267,1.517,0.385,2.251
			c0.106,0.735,0.23,1.446,0.309,2.131c0.063,0.689,0.119,1.343,0.173,1.946c0.068,0.6,0.063,1.175,0.08,1.679
			c0.013,0.505,0.03,0.936-0.001,1.36c-0.022,0.401-0.04,0.715-0.052,0.93c-0.015,0.179-0.023,0.275-0.023,0.275L235.671,461.806z"
			/>
	</g>
	<g>
		<path fill="#1F1813" d="M235.029,466.3c-1.79-0.356-3.432-0.813-5.102-1.335c-1.655-0.531-3.288-1.122-4.878-1.835
			c-0.401-0.166-0.79-0.371-1.185-0.556c-0.394-0.183-0.782-0.379-1.165-0.594c-0.774-0.398-1.521-0.863-2.258-1.33
			c-0.369-0.233-0.718-0.51-1.074-0.762c-0.359-0.246-0.699-0.525-1.029-0.82c-0.326-0.3-0.682-0.549-0.976-0.887l-0.903-0.96
			l-0.076-0.08l-0.021-0.04l-3.575-6.945l4.76,6.195l-0.097-0.12l0.958,0.703c0.302,0.247,0.677,0.417,1.008,0.628
			c0.335,0.208,0.68,0.4,1.047,0.562c0.361,0.167,0.706,0.356,1.077,0.504c0.74,0.299,1.477,0.592,2.244,0.824
			c0.375,0.131,0.759,0.243,1.147,0.345s0.765,0.222,1.16,0.307c1.553,0.383,3.143,0.651,4.731,0.86
			c1.579,0.197,3.218,0.342,4.735,0.362L235.029,466.3z"/>
	</g>
	<g>
		<path fill="#1F1813" d="M261.283,420.652c-0.164,0.045-0.342,0.15-0.519,0.275c-0.181,0.105-0.375,0.262-0.588,0.449
			c-0.861,0.722-1.654,2.119-2.936,3.857c-0.652,0.862-1.455,1.821-2.578,2.686c-0.272,0.224-0.568,0.432-0.899,0.613
			c-0.32,0.196-0.65,0.387-1.015,0.533c-0.357,0.159-0.721,0.328-1.113,0.419l-0.586,0.162l-0.148,0.04l-0.075,0.021l-0.019,0.005
			l-0.248,0.023l-0.03,0.003l-0.239,0.029l-0.484,0.058l-0.248,0.027l-0.432-0.028c-0.563-0.054-1.229-0.133-1.641-0.311
			c-0.471-0.158-0.943-0.332-1.332-0.575l-0.607-0.356l-0.523-0.396c-1.383-1.068-2.306-2.271-3.174-3.266
			c-0.817-1.01-1.655-1.865-2.093-2.049c-0.052-0.021-0.102-0.049-0.151-0.085c-0.049-0.021-0.089-0.003-0.132-0.021
			c-0.074-0.068-0.196-0.024-0.313-0.039c-0.504,0.034-1.232,0.204-2.01,0.249c-1.447,0.121-2.699,0.088-3.895,0.059
			c-1.156-0.039-2.249-0.074-3.258-0.108c-0.995-0.034-1.857,0.015-2.63,0.091c-0.367,0.058-0.735,0.104-1.041,0.197
			c-0.332,0.065-0.604,0.179-0.853,0.298c-0.272,0.098-0.445,0.262-0.643,0.378c-0.204,0.114-0.332,0.255-0.439,0.373
			c-0.233,0.238-0.357,0.365-0.357,0.365s0.026-0.169,0.107-0.508c0.039-0.17,0.088-0.386,0.217-0.606
			c0.118-0.228,0.242-0.525,0.478-0.765c0.414-0.557,1.076-1.089,1.897-1.559c0.82-0.438,1.802-0.843,2.854-1.135
			c1.054-0.304,2.201-0.555,3.367-0.775c1.157-0.22,2.395-0.435,3.499-0.686c0.505-0.11,1.043-0.295,1.849-0.467
			c0.541-0.098,1.08-0.205,1.673-0.122c0.288,0.033,0.59,0.055,0.863,0.124c0.266,0.083,0.532,0.174,0.797,0.271
			c0.28,0.092,0.512,0.21,0.723,0.34l0.657,0.392c0.376,0.271,0.737,0.566,1.056,0.858c0.609,0.582,1.134,1.163,1.595,1.705
			c0.902,1.101,1.688,2.08,2.405,2.729l0.267,0.24c0.085,0.055,0.171,0.106,0.251,0.17c0.164,0.149,0.318,0.204,0.467,0.285
			c0.188,0.125,0.198,0.067,0.274,0.149l0.052,0.056l0.238,0.01l0.486,0.015l0.242,0.007l0.03,0.001
			c-0.099,0.01,0.243-0.021-0.218,0.022l0.011-0.001l0.043-0.007l0.086-0.011l0.346-0.039c0.236-0.01,0.458-0.072,0.686-0.12
			c0.229-0.033,0.45-0.111,0.672-0.193c0.225-0.067,0.443-0.162,0.663-0.267c0.879-0.395,1.729-0.966,2.538-1.553
			c0.81-0.585,1.591-1.193,2.354-1.675c0.748-0.494,1.51-0.847,2.164-1.021c0.162-0.041,0.315-0.079,0.46-0.116
			c0.15-0.025,0.306-0.025,0.437-0.034c0.268-0.021,0.473-0.02,0.635,0.021c0.33,0.062,0.506,0.094,0.506,0.094
			S261.595,420.527,261.283,420.652z"/>
	</g>
	<g>
		<path fill="#1F1813" d="M277.965,480.947c-0.997,0.769-2.215,1.699-3.674,2.674c-1.448,0.993-3.112,2.077-4.99,3.155
			c-0.931,0.555-1.925,1.089-2.945,1.666c-1.037,0.54-2.108,1.105-3.233,1.639c-2.245,1.079-4.663,2.131-7.227,3.074
			c-2.559,0.954-5.261,1.813-8.064,2.498c-1.405,0.334-2.818,0.689-4.268,0.918c-1.436,0.287-2.9,0.466-4.365,0.654
			c-1.462,0.193-2.947,0.227-4.414,0.344c-1.478,0.009-2.948,0.058-4.409-0.03c-1.461-0.096-2.911-0.143-4.332-0.388
			c-0.711-0.101-1.417-0.199-2.119-0.299c-0.697-0.128-1.382-0.3-2.065-0.447c-0.679-0.164-1.36-0.28-2.018-0.48
			c-0.655-0.204-1.303-0.406-1.946-0.606c-1.291-0.368-2.498-0.902-3.676-1.391c-1.191-0.456-2.275-1.074-3.333-1.632
			c-1.069-0.535-2.03-1.182-2.949-1.795c-1.896-1.136-3.378-2.539-4.76-3.641c-1.271-1.249-2.373-2.325-3.209-3.272
			c-1.612-1.961-2.466-3.102-2.466-3.102s1.183,0.848,3.136,2.365c1,0.73,2.298,1.504,3.688,2.479
			c0.743,0.414,1.535,0.854,2.369,1.319c0.422,0.217,0.818,0.499,1.274,0.702c0.45,0.211,0.91,0.427,1.38,0.648
			c0.933,0.448,1.898,0.915,2.958,1.266c1.045,0.375,2.083,0.851,3.229,1.135c1.131,0.319,2.26,0.725,3.476,0.941
			c0.598,0.134,1.203,0.268,1.813,0.404c0.608,0.142,1.243,0.199,1.87,0.304c0.629,0.094,1.263,0.188,1.901,0.282
			c0.644,0.057,1.294,0.112,1.947,0.17c1.3,0.15,2.635,0.13,3.971,0.188c1.338,0.046,2.694-0.069,4.049-0.073
			c1.356-0.126,2.722-0.169,4.081-0.357c1.361-0.161,2.723-0.312,4.071-0.568c1.353-0.21,2.694-0.475,4.023-0.756
			c1.333-0.263,2.638-0.625,3.942-0.912c1.287-0.369,2.572-0.683,3.82-1.063c2.502-0.736,4.906-1.526,7.173-2.339
			c2.266-0.81,4.406-1.612,6.364-2.408c1.949-0.812,3.747-1.556,5.326-2.256c1.576-0.716,2.951-1.34,4.083-1.854
			c2.256-1.06,3.544-1.703,3.544-1.703S279.951,479.398,277.965,480.947z"/>
	</g>
	<g>
		<path fill="#1F1813" d="M277.541,452.306c0,0-1.536,1.671-3.843,4.177c-1.161,1.248-2.519,2.705-3.973,4.266
			c-1.441,1.569-3.026,3.203-4.604,4.841c-1.576,1.636-3.151,3.271-4.63,4.806c-1.472,1.535-2.956,2.882-4.169,4.074
			c-2.448,2.358-4.082,3.931-4.082,3.931s1.402-1.783,3.507-4.457c1.035-1.349,2.299-2.856,3.545-4.578
			c1.248-1.717,2.58-3.547,3.911-5.378c1.33-1.829,2.664-3.65,3.871-5.396c1.219-1.734,2.354-3.354,3.328-4.74
			c1.935-2.793,3.225-4.655,3.225-4.655L277.541,452.306z"/>
	</g>
	<g>
		<path fill="#1F1813" d="M286.379,447.07c0,0,0.143,0.106,0.392,0.293c0.234,0.188,0.569,0.455,0.971,0.776
			c0.79,0.646,1.811,1.539,2.771,2.496c0.961,0.953,1.853,1.98,2.413,2.825c0.147,0.199,0.258,0.412,0.362,0.585
			c0.105,0.172,0.186,0.329,0.241,0.466c0.117,0.261,0.184,0.41,0.184,0.41s-0.127-0.101-0.351-0.276
			c-0.104-0.089-0.243-0.185-0.412-0.285c-0.167-0.099-0.338-0.222-0.555-0.326c-0.827-0.45-1.995-0.904-3.189-1.268
			c-1.195-0.367-2.411-0.656-3.325-0.842c-0.453-0.086-0.832-0.158-1.098-0.208c-0.255-0.041-0.4-0.063-0.4-0.063L286.379,447.07z"
			/>
	</g>
</g>
</svg>
