<?xml version="1.0" encoding="utf-8"?>
<!-- Generator: Adobe Illustrator 16.0.0, SVG Export Plug-In . SVG Version: 6.00 Build 0)  -->
<!DOCTYPE svg PUBLIC "-//W3C//DTD SVG 1.1//EN" "http://www.w3.org/Graphics/SVG/1.1/DTD/svg11.dtd">
<svg version="1.1" id="Layer_2" xmlns="http://www.w3.org/2000/svg" xmlns:xlink="http://www.w3.org/1999/xlink" x="0px" y="0px"
	 width="500px" height="900px" viewBox="0 0 500 900" enable-background="new 0 0 500 900" xml:space="preserve">
<g>
	<path fill="none" stroke="#1F1813" stroke-width="5" stroke-miterlimit="10" d="M215.482,114.064l7.836,192.768
		c0,0-2.089,32.911,12.017,31.867c14.104-1.045,31.344-91.421,35-139.483c3.657-48.061,9.926-85.674,17.238-101.346
		c7.314-15.672,15.673-59.554,14.628-71.57c-1.045-12.015,0-15.671-19.328-17.761c-19.33-2.09-50.675-6.791-76.271,0
		c0,0-12.538-1.566-7.836,28.21S215.482,114.064,215.482,114.064z"/>
	<path fill="none" stroke="#1F1813" stroke-width="5" stroke-miterlimit="10" d="M215.548,115.693c0,0,14.562,13.521,31.801,11.431
		c17.24-2.089,27.806-12.701,41.591-32.47"/>
	<g>
		<path fill="#1F1813" d="M232.198,132.87c0,0,2.172,0.36,5.428,0.901c0.792,0.12,1.631,0.277,2.523,0.392
			c0.882,0.156,1.817,0.25,2.769,0.385c0.951,0.138,1.936,0.188,2.92,0.321c0.495,0.03,0.994,0.041,1.491,0.089
			c0.498,0.048,0.997,0.089,1.494,0.071c0.995,0.026,1.992,0.077,2.965,0.012c0.486-0.021,0.973-0.029,1.456-0.025
			c0.475-0.046,0.941-0.109,1.409-0.14c0.471-0.037,0.933-0.072,1.385-0.108c0.443-0.073,0.878-0.156,1.312-0.217
			c0.438-0.059,0.862-0.116,1.273-0.172c0.413-0.06,0.791-0.185,1.175-0.26c0.779-0.162,1.494-0.31,2.128-0.44
			c0.616-0.192,1.184-0.332,1.652-0.458c0.941-0.246,1.533-0.352,1.533-0.352s-0.333,0.458-1.012,1.197
			c-0.341,0.367-0.757,0.825-1.269,1.318c-0.53,0.457-1.186,0.898-1.903,1.401c-0.364,0.24-0.74,0.511-1.152,0.738
			c-0.427,0.202-0.867,0.41-1.319,0.625c-0.457,0.214-0.938,0.411-1.428,0.625c-0.497,0.183-1.022,0.302-1.553,0.458
			c-0.531,0.153-1.077,0.289-1.632,0.419c-0.56,0.087-1.128,0.163-1.703,0.226c-1.151,0.19-2.323,0.151-3.494,0.146
			c-1.173-0.008-2.322-0.211-3.456-0.355c-0.561-0.101-1.109-0.238-1.651-0.369c-0.542-0.13-1.079-0.245-1.586-0.438
			c-2.062-0.646-3.875-1.514-5.341-2.392c-1.466-0.885-2.585-1.772-3.316-2.464C232.552,133.337,232.198,132.87,232.198,132.87z"/>
	</g>
</g>
<g>
	<path fill="none" stroke="#1F1813" stroke-width="5" stroke-miterlimit="10" d="M17.368,516.625c0,0-17.763-6.271-8.882-35.523
		c8.882-29.256,23.509-58.51,29.255-67.913s27.688-15.149,30.3,10.97c2.611,26.121,7.313,32.912,19.329,40.748
		c12.015,7.837,30.299,22.986,15.148,51.719c0,0-4.179,13.062-3.134,37.092c1.045,24.029-6.269,80.973-9.403,97.167
		c0,0-13.06,51.719-20.896,64.256c-7.836,12.539-20.374,17.24-27.165-7.313c-6.792-24.554-17.762-68.958-22.464-93.512
		C14.756,589.76,17.368,516.625,17.368,516.625z"/>
	<path fill="none" stroke="#1F1813" stroke-width="5" stroke-miterlimit="10" d="M17.368,516.625c0,0,3.312,0.348,12.365-3.83
		c9.055-4.181,15.438-13.236,27.396-12.538c11.958,0.697,31.808,17.891,44.694,19.045"/>
	<g>
		<path fill="#1F1813" d="M27.99,520.803c0,0,0.189-0.185,0.547-0.527c0.367-0.329,0.894-0.838,1.607-1.418
			c0.709-0.59,1.571-1.313,2.613-2.063c1.031-0.771,2.212-1.619,3.551-2.473c1.336-0.857,2.817-1.743,4.443-2.593
			c0.81-0.433,1.652-0.854,2.54-1.25c0.874-0.421,1.792-0.8,2.75-1.155c1.886-0.755,3.958-1.335,6.138-1.76
			c0.551-0.093,1.125-0.143,1.691-0.214c0.565-0.074,1.137-0.138,1.742-0.104l0.896,0.016l0.449,0.01l0.225,0.005l0.112,0.003
			l0.056,0.001l0.17,0.021l1.542,0.212c0.484,0.05,1.099,0.215,1.67,0.348c0.564,0.146,1.189,0.263,1.693,0.444
			c1.061,0.327,2.105,0.688,3.091,1.106c2.009,0.79,3.851,1.756,5.604,2.704c3.478,1.933,6.506,3.938,9.11,5.592
			c1.304,0.826,2.491,1.587,3.568,2.212c0.533,0.336,1.054,0.575,1.524,0.848c0.472,0.271,0.911,0.502,1.321,0.678
			c0.41,0.191,0.775,0.362,1.095,0.511c0.328,0.123,0.608,0.229,0.837,0.313c0.463,0.18,0.709,0.275,0.709,0.275
			s-0.265,0.003-0.759,0.008c-0.251-0.002-0.561-0.005-0.926-0.008c-0.362-0.023-0.772-0.083-1.239-0.146
			c-0.471-0.051-0.98-0.145-1.53-0.27c-0.556-0.11-1.155-0.255-1.773-0.445c-1.256-0.352-2.649-0.813-4.128-1.385
			c-2.962-1.136-6.279-2.675-9.771-4.205c-1.749-0.748-3.547-1.511-5.367-2.147c-0.909-0.351-1.832-0.597-2.747-0.881
			c-0.473-0.164-0.875-0.212-1.314-0.327c-0.438-0.098-0.825-0.218-1.375-0.275l-1.539-0.234l-0.023-0.004
			c-0.116-0.015,0.13,0.015,0.098,0.012H56.85l-0.082-0.002l-0.164-0.003l-0.328-0.008l-0.654-0.021
			c-0.43-0.036-0.886,0.002-1.344,0.042c-0.456,0.039-0.907,0.054-1.365,0.108c-1.843,0.288-3.693,0.645-5.483,1.171
			c-0.449,0.125-0.894,0.249-1.335,0.372c-0.439,0.141-0.875,0.28-1.306,0.418c-0.87,0.254-1.704,0.571-2.53,0.851
			c-1.646,0.572-3.199,1.164-4.633,1.728c-1.435,0.562-2.759,1.078-3.928,1.561c-1.173,0.483-2.194,0.904-3.036,1.252
			C28.961,520.403,27.99,520.803,27.99,520.803z"/>
	</g>
</g>
<g>
	<path fill="none" stroke="#1F1813" stroke-width="5" stroke-miterlimit="10" d="M485.633,516.625c0,0,17.762-6.271,8.881-35.523
		c-8.881-29.256-23.506-58.51-29.254-67.913c-5.746-9.403-27.688-15.149-30.299,10.97c-2.613,26.121-7.314,32.912-19.328,40.748
		c-12.019,7.837-30.302,22.986-15.15,51.719c0,0,4.178,13.062,3.133,37.092c-1.043,24.029,6.271,80.973,9.404,97.167
		c0,0,13.061,51.719,20.896,64.256c7.837,12.539,20.373,17.24,27.166-7.313c6.789-24.554,17.763-68.958,22.464-93.512
		C488.245,589.76,485.633,516.625,485.633,516.625z"/>
	<path fill="none" stroke="#1F1813" stroke-width="5" stroke-miterlimit="10" d="M485.633,516.625c0,0-3.312,0.348-12.365-3.83
		c-9.055-4.181-15.438-13.236-27.396-12.538c-11.959,0.697-31.809,17.891-44.694,19.045"/>
	<g>
		<path fill="#1F1813" d="M475.014,520.803c0,0-0.971-0.4-2.671-1.102c-0.842-0.348-1.864-0.769-3.036-1.252
			c-1.168-0.481-2.493-0.999-3.928-1.561c-1.435-0.563-2.987-1.154-4.634-1.728c-0.825-0.278-1.659-0.597-2.529-0.851
			c-0.432-0.138-0.866-0.277-1.307-0.418c-0.44-0.123-0.886-0.247-1.335-0.372c-1.79-0.526-3.641-0.883-5.481-1.171
			c-0.459-0.057-0.91-0.069-1.367-0.108c-0.457-0.04-0.913-0.078-1.343-0.042l-0.654,0.021l-0.328,0.008l-0.164,0.003l-0.082,0.002
			h-0.041c-0.033,0.003,0.213-0.025,0.099-0.012l-0.024,0.004l-1.539,0.232c-0.55,0.061-0.937,0.181-1.375,0.277
			c-0.438,0.115-0.843,0.163-1.313,0.327c-0.914,0.284-1.839,0.53-2.747,0.88c-1.82,0.639-3.618,1.4-5.366,2.148
			c-3.493,1.53-6.812,3.069-9.772,4.205c-1.478,0.571-2.871,1.033-4.128,1.385c-0.618,0.19-1.218,0.335-1.772,0.445
			c-0.549,0.125-1.061,0.219-1.531,0.27c-0.466,0.063-0.876,0.122-1.239,0.146c-0.364,0.003-0.674,0.006-0.926,0.008
			c-0.494-0.005-0.758-0.008-0.758-0.008s0.247-0.097,0.71-0.275c0.227-0.085,0.507-0.189,0.837-0.313
			c0.318-0.147,0.684-0.318,1.094-0.511c0.409-0.176,0.851-0.406,1.321-0.679c0.47-0.271,0.991-0.511,1.523-0.847
			c1.078-0.625,2.266-1.386,3.568-2.212c2.605-1.653,5.633-3.659,9.111-5.592c1.752-0.949,3.593-1.914,5.602-2.704
			c0.986-0.42,2.031-0.78,3.092-1.107c0.504-0.183,1.129-0.297,1.693-0.443c0.572-0.133,1.188-0.298,1.671-0.348l1.541-0.212
			l0.17-0.021l0.058-0.001l0.111-0.003l0.226-0.005l0.447-0.01l0.896-0.016c0.605-0.033,1.177,0.029,1.742,0.104
			c0.565,0.071,1.141,0.121,1.69,0.214c2.182,0.425,4.252,1.005,6.14,1.76c0.956,0.355,1.875,0.734,2.749,1.155
			c0.888,0.396,1.729,0.817,2.54,1.25c1.626,0.85,3.105,1.734,4.441,2.593c1.34,0.854,2.521,1.702,3.552,2.473
			c1.042,0.75,1.903,1.474,2.612,2.063c0.716,0.58,1.24,1.089,1.609,1.418C474.823,520.62,475.014,520.803,475.014,520.803z"/>
	</g>
</g>
<g>
	<path fill="none" stroke="#1F1813" stroke-width="5" stroke-miterlimit="10" d="M218.901,664.519c0,0-18.112-55.026-14.628-84.281
		c0,0,0.699-16.717,16.371-16.717s60.598,0,60.598,0s17.415,0.35,14.629,21.941c-2.788,21.592-20.202,76.616-20.202,76.616
		s-17.241,187.894-20.375,200.433c-3.134,12.537-12.015,45.972-22.462,0C222.383,816.539,218.901,664.519,218.901,664.519z"/>
	<path fill="none" stroke="#1F1813" stroke-width="5" stroke-miterlimit="10" d="M218.901,664.519c0,0,9.229,13.582,24.378,17.24
		c15.148,3.655,31.789-15.805,38.883-41.054"/>
	<g>
		<path fill="#1F1813" d="M224.125,588.596c0.349,1.806,0.694,3.609,0.999,5.417c0.326,1.806,0.644,3.609,0.928,5.418
			c0.292,1.807,0.632,3.606,0.896,5.416c0.272,1.808,0.575,3.609,0.871,5.411l0.85,5.403l0.884,5.388l0.956,5.333
			c0.143,0.904,0.355,1.733,0.548,2.587l0.579,2.544l-3.92-1.091c0.711-0.688,1.327-1.2,2.017-1.748
			c0.678-0.533,1.371-1.04,2.079-1.527c1.417-0.972,2.905-1.852,4.471-2.604c0.782-0.38,1.583-0.726,2.399-1.043
			c0.817-0.318,1.656-0.592,2.503-0.845c0.857-0.23,1.725-0.431,2.607-0.578c0.885-0.139,1.776-0.259,2.682-0.292
			c0.451-0.031,0.903-0.046,1.358-0.027c0.454,0.013,0.907-0.002,1.361,0.053c0.454,0.048,0.908,0.081,1.359,0.146l1.348,0.244
			c0.885,0.218,1.777,0.425,2.624,0.758c0.867,0.281,1.683,0.681,2.498,1.066c0.775,0.451,1.59,0.854,2.304,1.385l1.094,0.765
			l1.022,0.837c0.703,0.538,1.283,1.188,1.92,1.784c0.607,0.62,1.158,1.28,1.735,1.921l-3.669,0.787l1.327-4.059
			c0.424-1.363,0.878-2.723,1.272-4.097l1.235-4.112l1.198-4.126c0.21-0.687,0.368-1.382,0.554-2.073l0.567-2.073l0.563-2.077
			l0.483-2.092c0.313-1.396,0.745-2.785,0.973-4.197c0.269-1.409,0.541-2.825,0.842-4.25c0.028,1.442,0.029,2.893,0.025,4.351
			c0.009,0.731-0.036,1.455-0.096,2.178l-0.157,2.174l-0.188,2.176l-0.269,2.161c-0.185,1.439-0.361,2.887-0.604,4.317l-0.743,4.292
			c-0.244,1.433-0.57,2.845-0.865,4.267c-0.29,1.423-0.64,2.831-0.958,4.249c-0.333,1.418-0.663,2.82-1.055,4.246l-0.943,3.446
			l-2.726-2.658c-0.535-0.522-1.047-1.075-1.595-1.574c-0.567-0.471-1.098-0.998-1.695-1.412l-0.871-0.659l-0.912-0.58
			c-0.596-0.414-1.252-0.688-1.876-1.027c-0.654-0.266-1.289-0.576-1.965-0.77c-0.656-0.247-1.346-0.377-2.022-0.531l-1.033-0.161
			c-0.346-0.042-0.696-0.055-1.043-0.085c-0.346-0.045-0.7-0.022-1.05-0.032c-0.351-0.013-0.702,0.001-1.054,0.031
			c-0.704,0.027-1.41,0.134-2.113,0.247c-0.705,0.12-1.403,0.296-2.103,0.478c-0.695,0.204-1.391,0.422-2.076,0.683
			c-0.686,0.263-1.365,0.549-2.034,0.866c-1.336,0.641-2.65,1.361-3.908,2.182c-0.628,0.409-1.246,0.839-1.845,1.286
			c-0.58,0.439-1.215,0.942-1.683,1.354l-3.185,2.807l-0.735-3.897l-0.533-2.825c-0.168-0.939-0.379-1.891-0.463-2.802
			c-0.219-1.84-0.458-3.679-0.658-5.517c-0.295-3.669-0.652-7.329-0.836-10.993c-0.208-3.664-0.363-7.327-0.442-10.996
			c-0.049-1.833-0.065-3.67-0.072-5.506C224.053,592.271,224.072,590.434,224.125,588.596z"/>
	</g>
</g>
<g>
	<path fill="none" stroke="#1F1813" stroke-width="5" stroke-miterlimit="10" d="M223.142,422.375c0,0-4.877,6.968-9.057,13.236
		c-4.181,6.27-15.672,15.321,0,39.005c15.672,23.685,26.349,19.502,35.639,19.853c9.29,0.349,27.051,3.481,40.633-26.816
		c13.582-30.299-15.673-46.667-23.333-54.33C259.365,405.658,239.549,396.518,223.142,422.375z"/>
	<g>
		<path fill="#1F1813" d="M215.481,443.62c0.339,0.619,1.082,0.765,1.713,0.917c0.646,0.158,1.334,0.204,1.998,0.271
			c0.687,0.001,1.363,0.063,2.028,0.047c0.704,0,1.396-0.023,2.074-0.057l8.293-0.302l8.296-0.217l8.281-0.147l8.267-0.125
			l8.248-0.171c1.377-0.018,2.739-0.097,4.115-0.125c1.378-0.021,2.733-0.124,4.106-0.18c1.382-0.028,2.723-0.191,4.098-0.271
			c1.374-0.078,2.703-0.294,4.08-0.438l-0.099,0.034c0.111-0.032,0.329-0.11,0.489-0.199c0.182-0.08,0.351-0.183,0.511-0.304
			c0.177-0.104,0.324-0.24,0.466-0.386c0.151-0.14,0.305-0.284,0.405-0.464l0.179-0.261c0.056-0.09,0.141-0.17,0.169-0.271
			l0.257-0.604c0.11-0.203,0.109-0.43,0.157-0.651l0.127-0.69l0.122,0.697c0.026,0.236,0.104,0.481,0.062,0.724l-0.061,0.747
			c-0.001,0.13-0.054,0.246-0.09,0.368l-0.122,0.365c-0.068,0.255-0.194,0.479-0.331,0.704c-0.126,0.232-0.268,0.458-0.445,0.652
			c-0.163,0.212-0.345,0.41-0.55,0.586c-0.205,0.195-0.396,0.343-0.697,0.516l-0.099,0.034l-2.011,0.726
			c-0.675,0.24-1.351,0.504-2.037,0.667c-1.366,0.363-2.747,0.777-4.132,1.035c-1.386,0.271-2.776,0.589-4.17,0.776
			c-1.394,0.199-2.791,0.447-4.188,0.579c-2.796,0.336-5.596,0.541-8.396,0.7c-1.399,0.073-2.8,0.102-4.199,0.15
			c-1.399,0.052-2.799,0.03-4.197,0.043c-1.399,0.021-2.798-0.034-4.195-0.06c-1.398-0.017-2.794-0.098-4.191-0.16
			c-2.792-0.136-5.581-0.352-8.364-0.644c-1.393-0.137-2.783-0.313-4.173-0.498c-1.396-0.198-2.764-0.386-4.179-0.661
			c-0.707-0.128-1.399-0.264-2.077-0.42c-0.72-0.139-1.401-0.384-2.089-0.589c-0.682-0.271-1.364-0.495-2-0.882
			c-0.324-0.157-0.618-0.415-0.904-0.629C215.781,444.282,215.481,444.002,215.481,443.62z"/>
	</g>
</g>
</svg>
