<?xml version="1.0" encoding="utf-8"?>
<!-- Generator: Adobe Illustrator 16.0.0, SVG Export Plug-In . SVG Version: 6.00 Build 0)  -->
<!DOCTYPE svg PUBLIC "-//W3C//DTD SVG 1.1//EN" "http://www.w3.org/Graphics/SVG/1.1/DTD/svg11.dtd">
<svg version="1.1" id="Layer_2" xmlns="http://www.w3.org/2000/svg" xmlns:xlink="http://www.w3.org/1999/xlink" x="0px" y="0px"
	 width="500px" height="900px" viewBox="0 0 500 900" enable-background="new 0 0 500 900" xml:space="preserve">
<g>
	<path fill="none" stroke="#1F1813" stroke-width="5" stroke-miterlimit="10" d="M210.871,104.759c0,0,2.248,5.224,2.203,8.305
		c-0.403,28.287-2.334,173.252,0.162,193.229c2.769,22.153,15.35,57.458,38.479,3.461c23.13-53.998,28.669-207.68,28.669-207.68
		s17.309-37.223,19.385-67.148C301.845,5,302.537,5,287.999,5c0,0-48.458,1.543-61.611,5.005l-11.075,1.385
		c0,0-18.693-2.076-15.923,29.076C199.39,40.466,202.473,91.584,210.871,104.759z"/>
	<path fill="none" stroke="#1F1813" stroke-width="5" stroke-miterlimit="10" d="M210.871,104.759c0,0,13.443,15.315,30.748,15.315
		c17.305,0,26.157-5.405,40.422-21.739"/>
	<g>
		<path fill="#1F1813" d="M214.889,114.932c0,0,0.109,0.174,0.299,0.479c0.201,0.313,0.513,0.761,0.902,1.295
			c0.785,1.061,1.917,2.438,3.199,3.681c0.641,0.62,1.319,1.203,1.991,1.71c0.674,0.503,1.344,0.918,1.943,1.251
			c0.308,0.148,0.591,0.284,0.842,0.405c0.252,0.13,0.488,0.184,0.677,0.26c0.386,0.135,0.607,0.213,0.607,0.213
			s-0.234,0-0.644-0.001c-0.205-0.009-0.465,0.017-0.75-0.023c-0.291-0.033-0.619-0.07-0.976-0.111
			c-0.709-0.123-1.54-0.306-2.414-0.582c-0.87-0.28-1.782-0.638-2.673-1.049c-1.78-0.825-3.467-1.85-4.697-2.686
			c-0.613-0.423-1.118-0.789-1.472-1.063c-0.359-0.287-0.565-0.451-0.565-0.451L214.889,114.932z"/>
	</g>
	<g>
		<path fill="#1F1813" d="M281.886,112.43c0,0-0.273,0.244-0.75,0.669c-0.475,0.418-1.156,0.994-1.982,1.673
			c-1.654,1.35-3.915,3.074-6.285,4.63c-1.182,0.782-2.402,1.507-3.559,2.153c-0.589,0.305-1.158,0.599-1.697,0.877
			c-0.554,0.249-1.076,0.484-1.56,0.701c-0.99,0.38-1.802,0.697-2.402,0.838c-0.586,0.163-0.921,0.256-0.921,0.256
			s0.306-0.165,0.839-0.455c0.541-0.264,1.258-0.754,2.106-1.323c0.408-0.31,0.852-0.645,1.319-0.999
			c0.448-0.379,0.92-0.778,1.408-1.191c0.949-0.859,1.934-1.797,2.872-2.784c1.884-1.965,3.624-4.058,4.87-5.661
			c0.62-0.804,1.127-1.479,1.467-1.953c0.333-0.47,0.522-0.738,0.522-0.738L281.886,112.43z"/>
	</g>
</g>
<g>
	<path fill="none" stroke="#1F1813" stroke-width="5" stroke-miterlimit="10" d="M14.44,514.269c0,0-1.559-4.673-3.895-7.27
		c-2.336-2.596-7.269-2.854-4.932-18.689c2.336-15.836,22.584-72.687,37.641-85.667c15.057-12.979,20.336,1.559,21.375,6.75
		s6.577,44.996,31.151,61.609c24.575,16.614,1.73,42.225,1.73,48.111c0,0-5.194,109.379-10.73,130.492
		c-5.537,21.116-11.076,73.729-28.037,75.457c-16.961,1.731-34.958-82.029-37.035-98.298
		C19.631,610.494,14.44,514.269,14.44,514.269z"/>
	<path fill="none" stroke="#1F1813" stroke-width="5" stroke-miterlimit="10" d="M13.07,510.976c0,0,5.522,5.715,13.83,5.025
		c8.307-0.693,17.872-10.385,29.184-10.039c11.313,0.348,24.964,12.14,33.119,14.191c8.155,2.053,8.307-1.041,8.307-1.041"/>
	<path fill="none" stroke="#1F1813" stroke-width="5" stroke-miterlimit="10" d="M60.412,400.351c0,0,18.063,3.156,21.87,30.848
		c3.807,27.691,6.471,34.68,11.181,38.124"/>
	<g>
		<path fill="#1F1813" d="M13.07,496.617c0,0,0.147,0.316,0.454,0.88c0.307,0.564,0.813,1.361,1.515,2.297
			c0.71,0.927,1.676,1.97,2.927,2.874c1.257,0.896,2.841,1.56,4.611,1.726c0.452-0.003,0.889,0.103,1.362,0.023
			c0.232-0.021,0.467-0.042,0.703-0.063l0.354-0.029l0.044-0.003c0.031-0.003-0.195,0.021-0.087,0.008l0.025-0.006l0.102-0.021
			l0.203-0.045c0.271-0.059,0.545-0.117,0.822-0.177c0.271-0.059,0.58-0.103,0.775-0.198c0.45-0.184,0.869-0.289,1.353-0.512
			c1.952-0.819,3.937-2.095,6.05-3.493c2.113-1.401,4.362-2.945,6.901-4.277c2.525-1.343,5.381-2.434,8.398-2.932
			c0.743-0.177,1.518-0.166,2.274-0.251c0.761-0.092,1.521-0.061,2.28-0.037l1.136,0.033l0.142,0.005l0.036,0.001l0.134,0.012
			l0.063,0.009l0.253,0.034l0.505,0.067c0.688,0.104,1.313,0.152,2.045,0.302c0.73,0.152,1.458,0.305,2.181,0.456
			c0.699,0.179,1.359,0.387,2.033,0.578c0.677,0.182,1.317,0.422,1.961,0.645c0.644,0.222,1.282,0.449,1.891,0.708
			c2.484,0.967,4.746,2.089,6.876,3.139c2.091,1.075,4.068,2.091,5.894,3.028c1.824,0.885,3.49,1.709,5.006,2.328
			c0.758,0.309,1.473,0.602,2.144,0.822c0.671,0.225,1.287,0.48,1.861,0.604c0.571,0.146,1.085,0.283,1.535,0.412
			c0.457,0.082,0.845,0.151,1.16,0.208c0.639,0.119,0.979,0.184,0.979,0.184s-0.344,0.036-0.99,0.104
			c-0.327,0.028-0.731,0.064-1.206,0.106c-0.473,0-1.02-0.012-1.637-0.031c-1.226-0.059-2.73-0.21-4.405-0.578
			c-1.688-0.333-3.551-0.849-5.54-1.504c-1.981-0.652-4.108-1.408-6.303-2.23c-2.201-0.805-4.496-1.68-6.866-2.415
			c-0.59-0.205-1.192-0.355-1.792-0.533c-0.601-0.171-1.203-0.362-1.814-0.488c-0.607-0.137-1.228-0.297-1.832-0.417
			c-0.589-0.104-1.181-0.211-1.775-0.316c-0.593-0.11-1.324-0.148-1.982-0.227l-0.507-0.052l-0.254-0.026l-0.063-0.007
			c0.187,0.019,0.036,0.005,0.07,0.01l-0.028-0.001l-0.114-0.001l-0.909-0.012c-0.607-0.013-1.216-0.04-1.817,0.048
			c-0.602,0.08-1.213,0.062-1.807,0.216c-2.405,0.37-4.749,1.229-7.033,2.322c-2.283,1.105-4.506,2.445-6.777,3.726
			c-2.266,1.28-4.611,2.514-7.115,3.261c-0.617,0.198-1.344,0.322-1.99,0.468c-0.35,0.087-0.61,0.088-0.896,0.116
			c-0.281,0.021-0.561,0.041-0.838,0.062l-0.534,0.032l-0.467-0.025c-0.308-0.019-0.614-0.037-0.917-0.056
			c-0.601-0.003-1.193-0.203-1.763-0.299c-2.297-0.536-4.122-1.797-5.358-3.105c-1.266-1.307-2.005-2.677-2.523-3.801
			c-0.521-1.13-0.768-2.068-0.932-2.699C13.109,496.962,13.07,496.617,13.07,496.617z"/>
	</g>
</g>
<g>
	<path fill="none" stroke="#1F1813" stroke-width="5" stroke-miterlimit="10" d="M487.341,514.269c0,0,1.557-4.673,3.894-7.27
		c2.336-2.596,7.269-2.854,4.933-18.689c-2.338-15.836-22.585-72.687-37.643-85.667c-15.055-12.979-20.334,1.559-21.373,6.75
		c-1.038,5.191-6.577,44.996-31.151,61.609c-24.574,16.614-1.73,42.225-1.73,48.111c0,0,5.193,109.379,10.73,130.492
		c5.538,21.116,11.077,73.729,28.038,75.457c16.959,1.731,34.956-82.029,37.034-98.298
		C482.148,610.494,487.341,514.269,487.341,514.269z"/>
	<path fill="none" stroke="#1F1813" stroke-width="5" stroke-miterlimit="10" d="M488.711,510.976c0,0-5.524,5.715-13.831,5.025
		c-8.308-0.693-17.872-10.385-29.185-10.039c-11.312,0.348-24.963,12.14-33.118,14.191c-8.154,2.053-8.308-1.041-8.308-1.041"/>
	<path fill="none" stroke="#1F1813" stroke-width="5" stroke-miterlimit="10" d="M441.367,400.351c0,0-18.062,3.156-21.867,30.848
		c-3.809,27.691-6.473,34.68-11.183,38.124"/>
	<g>
		<path fill="#1F1813" d="M488.711,496.617c0,0-0.038,0.345-0.187,0.983c-0.164,0.631-0.411,1.569-0.932,2.699
			c-0.519,1.124-1.257,2.494-2.523,3.801c-1.236,1.309-3.062,2.569-5.358,3.105c-0.569,0.096-1.162,0.296-1.763,0.299
			c-0.303,0.019-0.608,0.037-0.917,0.056l-0.467,0.025l-0.534-0.032c-0.277-0.021-0.557-0.041-0.838-0.062
			c-0.285-0.028-0.546-0.029-0.896-0.117c-0.646-0.145-1.373-0.269-1.989-0.468c-2.504-0.747-4.85-1.98-7.115-3.26
			c-2.271-1.281-4.495-2.62-6.777-3.726c-2.285-1.094-4.629-1.952-7.034-2.322c-0.594-0.154-1.205-0.136-1.807-0.216
			c-0.602-0.089-1.211-0.061-1.817-0.048l-0.91,0.012l-0.113,0.001l-0.028,0.001c0.034-0.004-0.117,0.009,0.07-0.009l-0.063,0.006
			l-0.254,0.026l-0.508,0.052c-0.658,0.078-1.39,0.116-1.982,0.227c-0.594,0.105-1.187,0.212-1.775,0.316
			c-0.604,0.121-1.225,0.28-1.832,0.417c-0.611,0.126-1.214,0.317-1.814,0.488c-0.599,0.178-1.201,0.328-1.791,0.533
			c-2.37,0.735-4.665,1.61-6.866,2.415c-2.195,0.823-4.321,1.579-6.304,2.23c-1.988,0.655-3.852,1.171-5.539,1.504
			c-1.675,0.368-3.179,0.52-4.405,0.578c-0.617,0.02-1.163,0.031-1.637,0.031c-0.475-0.042-0.878-0.078-1.206-0.106
			c-0.645-0.067-0.989-0.104-0.989-0.104s0.341-0.064,0.979-0.184c0.314-0.057,0.703-0.126,1.159-0.208
			c0.45-0.129,0.964-0.266,1.535-0.412c0.574-0.124,1.19-0.38,1.861-0.604c0.671-0.221,1.386-0.514,2.144-0.821
			c1.517-0.619,3.183-1.444,5.007-2.329c1.825-0.938,3.803-1.953,5.894-3.028c2.13-1.05,4.392-2.172,6.876-3.139
			c0.609-0.259,1.247-0.486,1.891-0.708c0.645-0.222,1.285-0.463,1.962-0.645c0.674-0.191,1.334-0.398,2.033-0.578
			c0.724-0.151,1.451-0.303,2.181-0.456c0.732-0.149,1.358-0.197,2.046-0.302l0.506-0.067l0.253-0.034l0.063-0.009l0.134-0.012
			l0.035-0.001l0.142-0.005l1.137-0.033c0.759-0.023,1.519-0.055,2.279,0.037c0.757,0.085,1.532,0.074,2.274,0.251
			c3.018,0.498,5.874,1.588,8.399,2.931c2.538,1.332,4.788,2.876,6.901,4.277c2.113,1.398,4.099,2.675,6.051,3.494
			c0.483,0.223,0.902,0.328,1.352,0.512c0.196,0.096,0.505,0.14,0.776,0.198c0.275,0.06,0.55,0.118,0.821,0.177l0.203,0.045
			l0.102,0.021l0.025,0.006c0.107,0.013-0.119-0.011-0.088-0.008l0.045,0.003l0.354,0.029c0.236,0.021,0.471,0.043,0.703,0.063
			c0.474,0.079,0.91-0.026,1.362-0.023c1.77-0.166,3.354-0.829,4.611-1.725c1.25-0.904,2.217-1.947,2.926-2.875
			c0.702-0.936,1.209-1.732,1.516-2.297C488.565,496.933,488.711,496.617,488.711,496.617z"/>
	</g>
</g>
<g>
	<path fill="none" stroke="#1F1813" stroke-width="5" stroke-miterlimit="10" d="M218.727,661.729c0,0-13.5-43.612-14.886-58.842
		c-1.385-15.229-11.421-42.227,24.923-39.458c36.342,2.769,55.38,7.615,55.38,7.615s15.921-2.076,14.191,25.613
		c-1.73,27.69-0.693,47.072-13.847,65.071c0,0-10.728,142.607-14.881,175.487c-4.154,32.882,1.037,51.784-14.886,56.698
		c-15.922,4.914-23.883-40.429-25.958-57.042C226.686,820.259,215.265,686.65,218.727,661.729z"/>
	<g>
		<path fill="#1F1813" d="M222.878,593.196l4.613,21.422c0.404,1.773,0.791,3.552,1.225,5.313c0.395,1.771,0.83,3.526,1.259,5.281
			l0.698,2.606c0.228,0.871,0.507,1.71,0.756,2.566c0.243,0.864,0.557,1.662,0.826,2.493c0.263,0.848,0.634,1.536,0.936,2.313
			l-3.94-0.145c0.636-1.156,1.246-2.135,1.948-3.141c0.684-0.999,1.412-1.965,2.185-2.902c0.374-0.478,0.781-0.932,1.19-1.386
			c0.398-0.461,0.816-0.908,1.263-1.333c0.854-0.881,1.802-1.689,2.765-2.48l1.514-1.126c0.527-0.352,1.082-0.675,1.624-1.011
			c0.528-0.355,1.146-0.593,1.726-0.88l0.883-0.411l0.938-0.317c0.637-0.184,1.236-0.465,1.907-0.556l1.981-0.353
			c0.673-0.032,1.351-0.048,2.026-0.06l0.507-0.006h0.063h0.032l0.126,0.009l0.106,0.011l0.214,0.021l0.856,0.086
			c1.072,0.072,2.471,0.348,3.692,0.589l1.805,0.46c0.599,0.162,1.181,0.378,1.77,0.572c0.592,0.184,1.159,0.433,1.73,0.67
			c0.573,0.232,1.143,0.473,1.691,0.76c1.119,0.524,2.188,1.146,3.246,1.785l1.54,1.035l1.476,1.134
			c0.479,0.396,0.941,0.817,1.411,1.226c0.458,0.426,0.893,0.884,1.337,1.325c0.428,0.467,0.834,0.959,1.243,1.444
			c0.376,0.533,0.777,1.025,1.12,1.595c0.705,1.107,1.307,2.354,1.685,3.795l-4.156,0.265c0.472-3.215,0.885-6.493,1.243-9.752
			l0.518-4.899l0.236-2.452c0.069-0.817,0.157-1.636,0.21-2.454c0.119-1.637,0.248-3.273,0.344-4.912
			c0.062-0.82,0.089-1.639,0.118-2.458c0.025-0.819,0.075-1.642,0.066-2.459l0.03-2.462l-0.074-2.46l-0.194-2.456
			c-0.099-0.814-0.271-1.617-0.395-2.444c0.279,0.774,0.595,1.555,0.829,2.356c0.198,0.807,0.43,1.616,0.604,2.435l0.436,2.471
			l0.331,2.484c0.112,0.831,0.158,1.661,0.232,2.493c0.07,0.832,0.142,1.665,0.179,2.497l0.135,2.5l0.058,2.498
			c0.025,0.834,0.015,1.665,0.021,2.499l-0.005,2.498c-0.005,1.665-0.048,3.329-0.118,4.992l-0.25,4.985
			c-0.104,1.666-0.202,3.315-0.349,5l-0.865,9.97l-3.291-9.705c-0.26-0.767-0.675-1.6-1.247-2.398
			c-0.265-0.403-0.616-0.784-0.915-1.179l-1.053-1.118c-0.385-0.351-0.751-0.716-1.146-1.058l-1.222-0.989l-1.286-0.92l-1.345-0.841
			c-0.918-0.526-1.844-1.042-2.813-1.47c-0.473-0.238-0.966-0.432-1.46-0.62c-0.492-0.191-0.979-0.398-1.488-0.541
			c-0.506-0.149-1.001-0.338-1.511-0.47l-1.532-0.381c-1.03-0.179-1.883-0.389-3.102-0.471l-0.857-0.08l-0.214-0.02l-0.107-0.01
			l-0.013-0.002c-0.026-0.002,0.177,0.015,0.086,0.008l-0.022,0.001l-0.044,0.002l-0.354,0.014l-1.414,0.024l-1.408,0.248
			c-0.475,0.042-0.927,0.276-1.393,0.397l-0.696,0.223l-0.676,0.316c-0.448,0.222-0.916,0.382-1.344,0.668
			c-0.436,0.263-0.881,0.505-1.314,0.778l-1.266,0.903c-0.819,0.65-1.639,1.313-2.397,2.065c-0.392,0.359-0.772,0.735-1.137,1.131
			c-0.373,0.387-0.746,0.772-1.093,1.188c-0.715,0.808-1.399,1.653-2.042,2.527c-0.638,0.855-1.293,1.794-1.802,2.627l-2.461,4.028
			l-1.479-4.173c-0.331-0.935-0.756-1.899-0.993-2.81c-0.257-0.916-0.558-1.84-0.743-2.751c-0.202-0.912-0.437-1.825-0.61-2.735
			l-0.538-2.729c-0.313-1.818-0.646-3.633-0.911-5.451c-0.272-1.82-0.493-3.642-0.732-5.461c-0.208-1.823-0.459-3.639-0.619-5.465
			l-0.506-5.473C223.233,600.516,222.992,596.861,222.878,593.196z"/>
	</g>
	<path fill="none" stroke="#1F1813" stroke-width="5" stroke-miterlimit="10" d="M218.727,661.729c0,0,13.272,15.923,32.941,15.923
		c19.668,0,33.383-14.335,38.597-25.729"/>
	<g>
		<path fill="#1F1813" d="M220.892,668.614c0,0,0.093,0.229,0.257,0.63c0.173,0.411,0.451,1.004,0.804,1.708
			c0.359,0.701,0.799,1.516,1.321,2.357c0.52,0.844,1.113,1.724,1.772,2.55c0.314,0.434,0.679,0.804,1.02,1.205
			c0.348,0.391,0.727,0.728,1.081,1.087c0.385,0.316,0.757,0.623,1.109,0.913c0.385,0.252,0.749,0.489,1.085,0.709
			c0.364,0.177,0.698,0.339,0.993,0.482c0.297,0.166,0.583,0.206,0.81,0.289c0.466,0.141,0.733,0.222,0.733,0.222
			s-0.279-0.004-0.768-0.01c-0.244-0.017-0.558,0.022-0.894-0.056c-0.346-0.06-0.735-0.127-1.16-0.2
			c-0.416-0.128-0.867-0.266-1.343-0.411c-0.457-0.191-0.946-0.396-1.448-0.624c-0.473-0.263-0.991-0.515-1.478-0.818
			c-0.477-0.314-0.996-0.612-1.455-0.968c-0.958-0.678-1.859-1.43-2.673-2.168c-0.817-0.737-1.539-1.469-2.145-2.113
			c-0.601-0.649-1.089-1.205-1.423-1.616c-0.338-0.425-0.531-0.668-0.531-0.668L220.892,668.614z"/>
	</g>
	<g>
		<path fill="#1F1813" d="M286.191,669.303c0,0-0.044,0.057-0.126,0.163c-0.097,0.131-0.231,0.302-0.391,0.486
			c-0.324,0.389-0.793,0.909-1.384,1.494c-0.586,0.588-1.305,1.23-2.102,1.872c-0.4,0.319-0.829,0.631-1.262,0.942
			c-0.454,0.291-0.884,0.611-1.363,0.873c-0.469,0.271-0.93,0.545-1.414,0.766c-0.471,0.239-0.941,0.452-1.414,0.625
			c-0.459,0.193-0.913,0.351-1.354,0.469c-0.435,0.131-0.839,0.256-1.23,0.318c-0.382,0.074-0.732,0.142-1.043,0.202
			c-0.314,0.028-0.588,0.054-0.813,0.075c-0.444,0.04-0.698,0.063-0.698,0.063s0.235-0.099,0.647-0.271
			c0.202-0.085,0.448-0.189,0.73-0.309c0.268-0.146,0.57-0.311,0.9-0.49c0.331-0.165,0.664-0.397,1.013-0.637
			c0.355-0.227,0.711-0.492,1.06-0.791c0.36-0.277,0.709-0.593,1.049-0.929c0.351-0.315,0.673-0.68,0.994-1.033
			c0.33-0.342,0.612-0.741,0.91-1.096c0.28-0.379,0.552-0.749,0.798-1.118c0.49-0.742,0.908-1.451,1.228-2.075
			c0.323-0.619,0.559-1.146,0.703-1.504c0.078-0.187,0.123-0.313,0.145-0.387c0.036-0.098,0.055-0.15,0.055-0.15L286.191,669.303z"
			/>
	</g>
</g>
<g>
	<path fill="none" stroke="#1F1813" stroke-width="5" stroke-miterlimit="10" d="M197.758,447.321c0,0-0.759,23.883,19.659,37.383
		c20.425,13.498,6.925,19.209,39.634,17.652c32.71-1.558,44.132-37.902,45.171-51.92c1.038-14.018-30.048-52.439-49.032-52.958
		c-18.982-0.52-23.481,1.038-35.772,13.5C205.132,423.438,197.539,443.238,197.758,447.321z"/>
	<g>
		<path fill="#1F1813" d="M209.284,433.822c-0.372,0.516-0.718,1.046-1.022,1.589c-0.297,0.543-0.557,1.111-0.688,1.65
			c-0.059,0.266-0.075,0.531-0.016,0.701c0.033,0.082,0.064,0.146,0.115,0.186c0.042,0.045,0.099,0.077,0.178,0.108
			c0.311,0.131,0.882,0.146,1.432,0.092l0.149,0.013l10.598,0.818l10.565,0.897l10.54,0.903l5.263,0.435l5.259,0.399l5.256,0.359
			c1.752,0.102,3.501,0.219,5.251,0.299c1.749,0.068,3.5,0.182,5.246,0.208c1.749,0.072,3.492,0.081,5.237,0.096
			c1.744,0.005,3.482-0.036,5.223-0.085l2.598-0.162c0.854-0.104,1.724-0.165,2.58-0.271c1.703-0.234,3.42-0.521,5.045-1.054
			l0.648-0.197c0.151-0.042,0.341-0.127,0.506-0.214c0.335-0.186,0.629-0.437,0.855-0.743c0.474-0.617,0.458-1.544,0.177-2.391
			c0.506,0.712,0.831,1.728,0.441,2.711c-0.182,0.482-0.514,0.891-0.89,1.229c-0.197,0.167-0.387,0.315-0.64,0.456l-0.575,0.321
			c-0.403,0.22-0.807,0.453-1.22,0.665l-1.27,0.53c-0.848,0.385-1.723,0.611-2.593,0.921c-0.872,0.284-1.758,0.481-2.645,0.709
			l-2.671,0.548l-2.684,0.44l-2.691,0.322c-1.795,0.183-3.595,0.321-5.39,0.408c-1.799,0.091-3.592,0.137-5.387,0.148
			c-1.794,0.004-3.587,0.001-5.375-0.063c-1.789-0.06-3.578-0.116-5.36-0.239c-1.785-0.106-3.566-0.226-5.345-0.385
			c-1.776-0.167-3.556-0.312-5.326-0.526c-3.545-0.395-7.08-0.858-10.598-1.422c-3.521-0.547-7.024-1.197-10.515-1.91l-5.22-1.155
			c-1.739-0.391-3.46-0.854-5.194-1.303l0.148,0.013c-0.354-0.035-0.708-0.074-1.08-0.174c-0.185-0.051-0.371-0.11-0.563-0.198
			c-0.188-0.084-0.383-0.187-0.566-0.341c-0.181-0.142-0.359-0.337-0.471-0.567c-0.124-0.224-0.172-0.474-0.188-0.701
			c-0.017-0.46,0.12-0.827,0.266-1.153c0.309-0.646,0.734-1.152,1.177-1.628C208.305,434.644,208.777,434.209,209.284,433.822z"/>
	</g>
</g>
</svg>
