<?xml version="1.0" encoding="utf-8"?>
<!-- Generator: Adobe Illustrator 16.0.0, SVG Export Plug-In . SVG Version: 6.00 Build 0)  -->
<!DOCTYPE svg PUBLIC "-//W3C//DTD SVG 1.1//EN" "http://www.w3.org/Graphics/SVG/1.1/DTD/svg11.dtd">
<svg version="1.1" id="Layer_2" xmlns="http://www.w3.org/2000/svg" xmlns:xlink="http://www.w3.org/1999/xlink" x="0px" y="0px"
	 width="500px" height="900px" viewBox="0 0 500 900" enable-background="new 0 0 500 900" xml:space="preserve">
<g>
	<path fill="none" stroke="#1F1813" stroke-width="5" stroke-miterlimit="10" d="M221.111,131.844c0,0-2.05-17.93-8.709-28.176
		c-6.658-10.245-23.563-42.006,0-63.009C235.966,19.656,250.823,4.8,257.481,4.287c6.66-0.512,23.566,16.905,30.738,23.052
		c7.17,6.147,17.416,28.176,7.17,50.716c-10.244,22.54-11.781,30.734-12.807,41.493c0,0-15.879,157.779-25.613,192.102
		c-9.733,34.322-20.491,26.638-23.052,4.609c-2.562-22.027-2.049-100.404-6.659-115.261
		C222.647,186.143,221.111,131.844,221.111,131.844z"/>
	<path fill="none" stroke="#1F1813" stroke-width="5" stroke-miterlimit="10" d="M217.173,114.147c0,0,8.378,4.721,11.109,6.085
		c2.73,1.364,10.308,8.196,21.718,7.171c11.411-1.024,20.971-7.516,24.045-9.905c3.072-2.389,10.358-9.958,10.358-9.958"/>
	<g>
		<path fill="#1F1813" d="M221.298,122.957c0,0,0.149,0.134,0.413,0.369c0.274,0.234,0.668,0.569,1.14,0.971
			c0.958,0.799,2.266,1.836,3.628,2.792c1.361,0.96,2.784,1.833,3.92,2.354c0.565,0.267,1.061,0.45,1.414,0.544
			c0.361,0.093,0.567,0.147,0.567,0.147s-0.213,0.023-0.587,0.066c-0.378,0.041-0.93,0.047-1.584,0
			c-1.317-0.083-3.057-0.405-4.76-0.835c-1.708-0.426-3.386-0.952-4.638-1.377c-0.627-0.22-1.148-0.404-1.515-0.533
			c-0.372-0.141-0.584-0.221-0.584-0.221L221.298,122.957z"/>
	</g>
	<g>
		<path fill="#1F1813" d="M284.585,119.268c0,0-0.305,0.251-0.835,0.69c-0.53,0.434-1.287,1.042-2.208,1.754
			c-1.839,1.428-4.323,3.276-6.922,4.971c-1.302,0.844-2.614,1.666-3.895,2.362c-0.631,0.358-1.252,0.688-1.856,0.973
			c-0.592,0.305-1.168,0.56-1.713,0.772c-0.268,0.11-0.523,0.216-0.769,0.317c-0.254,0.08-0.494,0.156-0.721,0.227
			c-0.451,0.138-0.832,0.28-1.173,0.321c-0.659,0.119-1.036,0.187-1.036,0.187s0.353-0.143,0.97-0.392
			c0.312-0.103,0.656-0.321,1.058-0.54c0.199-0.11,0.411-0.229,0.635-0.354c0.213-0.146,0.437-0.297,0.671-0.456
			c0.47-0.307,0.964-0.66,1.467-1.069c0.515-0.385,1.037-0.82,1.565-1.286c1.07-0.91,2.157-1.952,3.224-3.007
			c2.13-2.118,4.128-4.37,5.586-6.082c0.73-0.854,1.325-1.578,1.735-2.083c0.401-0.504,0.633-0.792,0.633-0.792L284.585,119.268z"/>
	</g>
</g>
<g>
	<path fill="none" stroke="#1F1813" stroke-width="5" stroke-miterlimit="10" d="M14.156,525.221c0,0-8.196-13.832-9.222-21.517
		c-1.023-7.684,3.074-49.178,35.347-93.746c0,0,15.881-23.052,23.565,12.296c0,0,9.413,37.651,22.404,51.868
		c1.855,2.031,7.213,6.313,8.838,9.228c3.312,5.936,7.386,16.373,1.543,24.965c0,0-6.66,9.734-5.636,23.564
		c1.024,13.832-14.855,149.584-24.588,172.123c0,0-12.808,38.932-24.59,8.709c-11.781-30.226-18.954-72.742-19.466-101.941
		C21.839,581.571,14.156,525.221,14.156,525.221z"/>
	<path fill="none" stroke="#1F1813" stroke-width="5" stroke-miterlimit="10" d="M14.156,525.221c0,0,8.452-0.513,13.831-4.099
		c5.379-3.588,15.112-13.575,24.205-12.809c9.094,0.77,17.289,11.014,27.535,11.014c10.245,0,10.301-1.553,13.731-4.489"/>
	<g>
		<path fill="#1F1813" d="M14.994,528.993c0,0,0.259,0.036,0.712,0.1c0.464,0.061,1.143,0.127,1.962,0.194
			c1.639,0.123,3.849,0.196,6.057,0.063c1.105-0.064,2.203-0.193,3.232-0.355c0.511-0.103,1.004-0.202,1.472-0.296
			c0.463-0.124,0.901-0.241,1.306-0.35c0.396-0.143,0.759-0.271,1.08-0.386c0.332-0.104,0.586-0.258,0.815-0.355
			c0.452-0.215,0.709-0.337,0.709-0.337s-0.215,0.188-0.592,0.518c-0.194,0.157-0.413,0.387-0.707,0.577
			c-0.29,0.206-0.616,0.438-0.974,0.69c-0.377,0.224-0.786,0.467-1.218,0.724c-0.441,0.239-0.919,0.471-1.414,0.724
			c-1,0.46-2.092,0.911-3.208,1.297c-2.229,0.775-4.532,1.344-6.28,1.697c-0.876,0.171-1.61,0.302-2.137,0.38
			c-0.537,0.073-0.844,0.116-0.844,0.116L14.994,528.993z"/>
	</g>
	<g>
		<path fill="#1F1813" d="M91.677,527.647c0,0-0.236,0.015-0.649,0.04c-0.401,0.02-0.964,0.029-1.635,0.029
			c-1.34-0.01-3.116-0.099-4.865-0.354c-0.875-0.127-1.74-0.299-2.54-0.499c-0.8-0.205-1.526-0.451-2.134-0.682
			c-0.297-0.132-0.569-0.252-0.812-0.359c-0.241-0.097-0.436-0.231-0.601-0.315c-0.322-0.183-0.507-0.286-0.507-0.286
			s0.209,0.029,0.576,0.083c0.184,0.019,0.395,0.071,0.652,0.073c0.251,0.013,0.534,0.024,0.845,0.039
			c0.621-0.006,1.334-0.039,2.092-0.131c0.759-0.096,1.558-0.237,2.347-0.421c1.579-0.366,3.113-0.879,4.232-1.308
			c0.559-0.218,1.018-0.406,1.326-0.546c0.296-0.139,0.466-0.218,0.466-0.218L91.677,527.647z"/>
	</g>
	<g>
		<path fill="#1F1813" d="M70.072,449.426c0,0-0.311-0.46-0.855-1.267c-0.272-0.402-0.604-0.892-0.982-1.453
			c-0.385-0.545-0.775-1.292-1.222-2.031c-0.438-0.753-0.913-1.57-1.415-2.435c-0.447-0.859-0.918-1.766-1.406-2.704
			c-0.481-0.938-1.002-1.895-1.461-2.899c-0.473-0.996-0.954-2.008-1.434-3.021c-0.495-1.002-0.911-2.046-1.36-3.05
			c-0.433-1.013-0.885-1.993-1.272-2.968c-0.384-0.977-0.752-1.919-1.104-2.813c-0.365-0.885-0.665-1.743-0.921-2.544
			c-0.265-0.794-0.508-1.521-0.723-2.166c-0.215-0.644-0.31-1.242-0.434-1.711c-0.221-0.946-0.347-1.486-0.347-1.486
			s0.201,0.52,0.553,1.427c0.189,0.446,0.357,1.005,0.659,1.608c0.301,0.604,0.641,1.284,1.012,2.026
			c0.359,0.744,0.771,1.54,1.253,2.361c0.468,0.826,0.959,1.696,1.47,2.598c0.513,0.897,1.096,1.8,1.658,2.729
			c0.577,0.92,1.123,1.875,1.747,2.787c0.607,0.92,1.216,1.839,1.813,2.743c0.583,0.913,1.219,1.768,1.812,2.607
			c0.597,0.835,1.174,1.642,1.72,2.408c0.563,0.715,1.096,1.392,1.587,2.016c0.506,0.622,0.894,1.191,1.365,1.692
			c0.453,0.502,0.85,0.938,1.176,1.3c0.65,0.721,1.023,1.132,1.023,1.132L70.072,449.426z"/>
	</g>
</g>
<g>
	<path fill="none" stroke="#1F1813" stroke-width="5" stroke-miterlimit="10" d="M486.734,525.221c0,0,8.196-13.832,9.221-21.517
		c1.025-7.684-3.071-49.178-35.346-93.746c0,0-15.881-23.052-23.563,12.296c0,0-9.414,37.651-22.405,51.868
		c-1.855,2.031-7.213,6.313-8.838,9.228c-3.313,5.936-7.386,16.373-1.543,24.965c0,0,6.66,9.734,5.635,23.564
		c-1.024,13.832,14.856,149.584,24.59,172.123c0,0,12.807,38.932,24.588,8.709c11.781-30.226,18.953-72.742,19.466-101.941
		C479.049,581.571,486.734,525.221,486.734,525.221z"/>
	<path fill="none" stroke="#1F1813" stroke-width="5" stroke-miterlimit="10" d="M486.734,525.221c0,0-8.452-0.513-13.831-4.099
		c-5.379-3.588-15.11-13.575-24.204-12.809c-9.093,0.77-17.289,11.014-27.534,11.014c-10.244,0-10.301-1.553-13.73-4.489"/>
	<g>
		<path fill="#1F1813" d="M485.921,533.993c0,0-0.308-0.043-0.846-0.116c-0.524-0.078-1.261-0.209-2.137-0.381
			c-1.749-0.354-4.051-0.921-6.28-1.696c-1.115-0.387-2.208-0.837-3.208-1.298c-0.495-0.253-0.972-0.482-1.414-0.723
			c-0.432-0.257-0.841-0.5-1.218-0.724c-0.355-0.253-0.684-0.484-0.973-0.69c-0.294-0.19-0.514-0.42-0.706-0.577
			c-0.377-0.329-0.593-0.518-0.593-0.518s0.258,0.122,0.709,0.337c0.229,0.099,0.482,0.252,0.814,0.354
			c0.321,0.115,0.686,0.244,1.08,0.387c0.404,0.107,0.843,0.226,1.307,0.35c0.468,0.094,0.962,0.193,1.473,0.296
			c1.03,0.162,2.127,0.292,3.231,0.355c2.209,0.134,4.418,0.061,6.059-0.063c0.818-0.067,1.498-0.135,1.963-0.194
			c0.453-0.063,0.712-0.1,0.712-0.1L485.921,533.993z"/>
	</g>
	<g>
		<path fill="#1F1813" d="M410.42,522.797c0,0,0.169,0.078,0.466,0.217c0.309,0.14,0.768,0.328,1.326,0.546
			c1.118,0.429,2.652,0.94,4.232,1.308c0.789,0.184,1.587,0.325,2.347,0.421c0.758,0.093,1.472,0.125,2.093,0.132
			c0.31-0.016,0.594-0.027,0.845-0.039c0.258-0.002,0.469-0.057,0.652-0.074c0.366-0.053,0.575-0.083,0.575-0.083
			s-0.185,0.104-0.508,0.286c-0.164,0.084-0.357,0.22-0.6,0.315c-0.242,0.107-0.515,0.229-0.813,0.359
			c-0.605,0.229-1.334,0.477-2.134,0.682c-0.799,0.2-1.666,0.372-2.54,0.499c-1.75,0.255-3.524,0.345-4.865,0.354
			c-0.671,0-1.232-0.01-1.636-0.029c-0.413-0.025-0.648-0.04-0.648-0.04L410.42,522.797z"/>
	</g>
	<g>
		<path fill="#1F1813" d="M426.906,446.31c0,0,0.372-0.412,1.023-1.132c0.326-0.36,0.722-0.798,1.176-1.3
			c0.472-0.501,0.859-1.07,1.365-1.692c0.491-0.624,1.023-1.301,1.587-2.016c0.547-0.767,1.123-1.573,1.72-2.408
			c0.593-0.839,1.229-1.694,1.813-2.607c0.598-0.904,1.205-1.823,1.813-2.743c0.624-0.911,1.17-1.866,1.748-2.787
			c0.563-0.929,1.146-1.831,1.658-2.729c0.509-0.901,1.002-1.772,1.469-2.598c0.483-0.822,0.895-1.617,1.253-2.361
			c0.371-0.742,0.711-1.423,1.012-2.026c0.303-0.604,0.472-1.162,0.659-1.608c0.353-0.907,0.554-1.427,0.554-1.427
			s-0.126,0.541-0.348,1.486c-0.124,0.469-0.219,1.067-0.433,1.711c-0.216,0.646-0.459,1.372-0.725,2.166
			c-0.257,0.801-0.557,1.66-0.921,2.545c-0.351,0.895-0.721,1.837-1.104,2.813c-0.388,0.975-0.84,1.955-1.272,2.968
			c-0.448,1.004-0.864,2.048-1.359,3.05c-0.48,1.013-0.961,2.024-1.435,3.021c-0.459,1.005-0.979,1.962-1.461,2.899
			c-0.486,0.938-0.959,1.845-1.406,2.704c-0.502,0.864-0.977,1.681-1.413,2.435c-0.446,0.739-0.839,1.486-1.224,2.031
			c-0.38,0.562-0.71,1.051-0.981,1.453c-0.545,0.807-0.856,1.267-0.856,1.267L426.906,446.31z"/>
	</g>
</g>
<g>
	<path fill="none" stroke="#1F1813" stroke-width="5" stroke-miterlimit="10" d="M218.251,679.493c0,0,1.023-9.221-4.099-16.904
		c-5.124-7.685-19.467-43.544-8.71-63.009c10.76-19.467,25.614-36.371,38.421-36.371c12.808,0,45.08,38.933,45.08,38.933
		s17.417,16.904,5.123,47.129c-12.295,30.224-12.807,28.687-13.831,43.543c-1.025,14.854-13.318,81.963-13.833,110.138
		c-0.512,28.176-1.022,83.969-11.779,87.063c-10.76,3.096-20.492-23.542-23.565-65.549S218.251,722.523,218.251,679.493z"/>
	<path fill="none" stroke="#1F1813" stroke-width="5" stroke-miterlimit="10" d="M218.118,671.259c0,0,13.964,15.506,24.209,15.406
		c11.883-0.113,36.207,0.309,42.689-15.406"/>
	<g>
		<path fill="#1F1813" d="M224.911,640.56c-0.749-0.971-1.393-2.018-2.027-3.071c-0.616-1.063-1.188-2.157-1.724-3.271
			c-0.548-1.108-1.01-2.257-1.459-3.412c-0.445-1.158-0.854-2.334-1.214-3.529c-0.343-1.197-0.65-2.41-0.907-3.637
			c-0.254-1.228-0.482-2.465-0.635-3.716c-0.093-0.625-0.146-1.253-0.185-1.884c-0.042-0.632-0.104-1.263-0.104-1.896
			c-0.054-1.267-0.021-2.537,0.027-3.811c0.101-1.27,0.17-2.549,0.397-3.81c0.166-1.271,0.472-2.518,0.751-3.771
			c0.338-1.237,0.686-2.478,1.144-3.68c0.401-1.225,0.951-2.388,1.459-3.569l0.882-1.716c0.286-0.576,0.599-1.138,0.94-1.681
			l0.996-1.649l1.104-1.571c0.712-1.069,1.557-2.028,2.349-3.031c0.81-0.987,1.714-1.886,2.569-2.827l4.294-4.722l-0.025,6.463
			c-0.009,2.206-0.014,4.411-0.05,6.616l-0.008,0.21l-0.007,0.104l-0.015,0.206l-0.035,0.432l-0.104,0.946l-0.198,1.647
			l-0.374,3.229c-0.201,2.149-0.395,4.301-0.487,6.456c-0.066,1.078-0.069,2.156-0.123,3.236c-0.028,1.079-0.017,2.159-0.027,3.241
			l0.092,3.242l0.181,3.244l0.293,3.24c0.111,1.08,0.297,2.148,0.413,3.234c0.114,1.087,0.346,2.148,0.514,3.229
			c0.163,1.084,0.42,2.145,0.636,3.222l0.335,1.615c0.062,0.268,0.116,0.543,0.137,0.86c0.021,0.303,0.079,0.607,0.036,0.894
			c-0.02,1.159-0.332,2.252-0.622,3.314l0.046-1.654l0.014-0.404l-0.053-0.404l-0.104-0.796c-0.019-0.271-0.113-0.503-0.172-0.744
			c-0.049-0.231-0.146-0.485-0.258-0.742l-0.627-1.55c-0.423-1.034-0.847-2.073-1.17-3.143c-0.334-1.066-0.732-2.122-1.015-3.206
			c-0.299-1.08-0.59-2.167-0.842-3.262l-0.693-3.302c-0.185-1.106-0.387-2.217-0.543-3.332l-0.379-3.356
			c-0.188-2.244-0.364-4.496-0.374-6.751c-0.012-1.128-0.019-2.256,0.014-3.383c0.011-1.129,0.088-2.252,0.141-3.378
			c0.074-1.122,0.147-2.243,0.25-3.356l0.154-1.641l0.063-0.699l0.037-0.701c-0.036-2.205-0.042-4.41-0.05-6.616l4.268,1.741
			c-0.77,0.862-1.578,1.693-2.321,2.572c-0.718,0.897-1.495,1.757-2.135,2.709l-1.003,1.398l-0.924,1.448
			c-0.32,0.477-0.611,0.969-0.876,1.476l-0.826,1.505c-0.468,1.041-1.025,2.046-1.418,3.12c-0.461,1.05-0.796,2.144-1.17,3.229
			c-0.312,1.101-0.658,2.199-0.871,3.33c-0.26,1.121-0.441,2.261-0.624,3.403c-0.138,1.148-0.269,2.303-0.316,3.467
			c-0.049,0.58-0.039,1.163-0.05,1.747c-0.02,0.584-0.003,1.168,0.014,1.754c0.006,1.172,0.083,2.347,0.188,3.521
			c0.106,1.175,0.263,2.35,0.455,3.521c0.355,2.35,0.892,4.684,1.548,6.996c0.322,1.16,0.682,2.313,1.092,3.449
			C223.987,638.306,224.425,639.439,224.911,640.56z"/>
	</g>
	<g>
		<path fill="#1F1813" d="M273.579,634.414c0.192-1.01,0.3-2.021,0.348-3.034c0.056-1.011,0.079-2.018,0.033-3.022
			c-0.047-1.004-0.103-2.001-0.214-2.993c-0.107-0.991-0.247-1.978-0.439-2.953c-0.18-0.977-0.367-1.948-0.614-2.907
			c-0.227-0.962-0.508-1.912-0.807-2.853c-0.604-1.879-1.264-3.735-2.069-5.536c-0.38-0.906-0.827-1.788-1.254-2.673
			c-0.469-0.868-0.883-1.759-1.378-2.612c-0.478-0.861-0.97-1.714-1.49-2.553c-0.493-0.851-1.045-1.672-1.584-2.497
			c-0.531-0.83-1.13-1.621-1.68-2.438c-0.574-0.806-1.181-1.588-1.768-2.383l-1.846-2.33l-1.922-2.274l4.37-1.37
			c-0.078,0.863-0.154,1.802-0.189,2.688c-0.037,0.888-0.049,1.788,0.016,2.541c0.012,0.195,0.039,0.35,0.059,0.501l0.033,0.175
			c-0.01-0.036,0.024,0.088-0.021-0.08l0.003,0.011l0.007,0.021l0.013,0.043l0.025,0.086c0.017,0.055,0.036,0.124,0.046,0.146
			l0.429,1.163l1.006,2.707c1.328,3.655,2.444,7.426,3.224,11.274c0.372,1.929,0.67,3.873,0.878,5.83
			c0.095,0.979,0.19,1.959,0.22,2.944c0.03,0.985,0.045,1.972,0.022,2.956s-0.063,1.97-0.152,2.949
			c-0.088,0.98-0.229,1.958-0.399,2.925c-0.165,0.969-0.37,1.931-0.623,2.876c-0.258,0.945-0.57,1.872-0.897,2.787l0.014-0.112
			c-0.052,0.586-0.104,1.193-0.109,1.792c0.003,0.602,0.005,1.206,0.178,1.794c-0.336-0.521-0.496-1.142-0.643-1.74
			c-0.139-0.608-0.254-1.215-0.317-1.846v-0.002l0.014-0.109c0.125-0.94,0.231-1.874,0.283-2.813
			c0.053-0.937,0.105-1.868,0.094-2.802c0.002-0.932-0.034-1.863-0.104-2.791c-0.045-0.926-0.135-1.852-0.239-2.771
			c-0.106-0.922-0.248-1.839-0.403-2.753c-0.17-0.911-0.322-1.823-0.511-2.73c-0.377-1.815-0.839-3.613-1.369-5.394
			c-0.51-1.784-1.085-3.553-1.701-5.309c-0.608-1.759-1.287-3.494-1.973-5.237l-1.069-2.629l-0.275-0.685l-0.139-0.359l-0.166-0.471
			l-0.063-0.195l-0.076-0.262l-0.111-0.526c-0.052-0.319-0.099-0.638-0.12-0.918c-0.102-1.148-0.085-2.161-0.054-3.18
			c0.038-1.021,0.098-1.986,0.207-3.022l0.622-5.893l3.748,4.521l2.007,2.422c0.643,0.831,1.291,1.656,1.917,2.5
			c1.219,1.714,2.427,3.438,3.498,5.258c0.535,0.908,1.078,1.813,1.565,2.751c0.515,0.921,0.969,1.877,1.423,2.831
			c0.457,0.95,0.871,1.928,1.27,2.905c0.369,0.993,0.756,1.978,1.072,2.988c0.348,0.998,0.624,2.023,0.915,3.038
			c0.263,1.026,0.514,2.053,0.688,3.098c0.188,1.041,0.353,2.085,0.458,3.137c0.12,1.049,0.21,2.101,0.229,3.153
			c0.03,1.054,0.004,2.107-0.057,3.155c-0.06,1.048-0.159,2.092-0.335,3.124c-0.164,1.033-0.39,2.055-0.662,3.058
			C274.364,632.5,274.045,633.491,273.579,634.414z"/>
	</g>
	<g>
		<path fill="#1F1813" d="M219.722,684.602c0,0,0.412,0.41,1.031,1.024c0.615,0.6,1.432,1.428,2.27,2.214
			c0.838,0.783,1.676,1.615,2.327,2.146c0.668,0.567,1.114,0.945,1.114,0.945s-0.574-0.093-1.437-0.233
			c-0.899-0.13-2.021-0.406-3.18-0.651c-1.158-0.249-2.291-0.538-3.158-0.741c-0.852-0.208-1.42-0.348-1.42-0.348L219.722,684.602z"
			/>
	</g>
	<g>
		<path fill="#1F1813" d="M282.336,686.858c0,0-0.761,0.292-1.901,0.731c-1.143,0.431-2.662,1-4.2,1.532
			c-1.533,0.538-3.075,1.055-4.264,1.371c-0.576,0.18-1.089,0.281-1.44,0.341c-0.345,0.063-0.541,0.1-0.541,0.1
			s0.171-0.109,0.469-0.302c0.297-0.186,0.701-0.452,1.168-0.839c0.943-0.721,2.153-1.766,3.346-2.826
			c1.192-1.058,2.364-2.146,3.238-2.961c0.867-0.821,1.444-1.368,1.444-1.368L282.336,686.858z"/>
	</g>
</g>
<g>
	<path fill="none" stroke="#1F1813" stroke-width="5" stroke-miterlimit="10" d="M217.272,422.966c0,0,16.625-20.949,34.779-20.38
		c18.152,0.571,22.251,14.574,30.791,20.38c8.536,5.805,16.051,16.393,14.342,29.711c-1.705,13.317-8.975,45.42-39.836,44.737
		c-30.855-0.684-52.703-26.979-54.416-38.251C201.219,447.892,205.565,434.247,217.272,422.966z"/>
	<g>
		<path fill="#1F1813" d="M214.878,439.846c-0.583,1.571-1.009,3.2-1.111,4.774c-0.042,0.784,0.031,1.552,0.242,2.194
			c0.221,0.646,0.597,1.114,1.104,1.405c0.467,0.302,1.215,0.449,1.774,0.494l2.481,0.102l4.979,0.159l9.94,0.286l4.96,0.109
			c1.651,0.042,3.304,0.067,4.954,0.074c3.3,0.043,6.596,0.042,9.884-0.008c1.644-0.037,3.286-0.059,4.926-0.127
			c1.638-0.066,3.277-0.122,4.908-0.238c1.632-0.097,3.265-0.209,4.882-0.384c0.814-0.068,1.624-0.153,2.428-0.261
			c0.81-0.096,1.614-0.2,2.413-0.326c0.808-0.108,1.604-0.244,2.395-0.405c0.803-0.125,1.589-0.297,2.373-0.479
			c1.583-0.335,3.089-0.854,4.607-1.372l0.124-0.053c0.085-0.014,0.283-0.081,0.427-0.146c0.159-0.064,0.307-0.147,0.456-0.23
			c0.28-0.181,0.56-0.38,0.756-0.631c0.116-0.118,0.202-0.251,0.277-0.393c0.102-0.133,0.137-0.292,0.197-0.447
			c0.08-0.149,0.083-0.326,0.118-0.499c0.047-0.171,0.036-0.354,0.026-0.542c-0.006-0.186,0.002-0.378-0.054-0.568l-0.119-0.585
			l-0.209-0.577c-0.077-0.191-0.128-0.397-0.229-0.583c-0.193-0.373-0.357-0.774-0.584-1.142l-0.683-1.114l0.97,0.896
			c0.32,0.305,0.591,0.661,0.893,0.998c0.159,0.163,0.267,0.365,0.395,0.555l0.371,0.585l0.295,0.648
			c0.111,0.212,0.166,0.454,0.229,0.696c0.064,0.24,0.131,0.483,0.132,0.747c0.012,0.261,0.05,0.523-0.004,0.791
			c-0.039,0.268-0.07,0.54-0.177,0.793c-0.083,0.265-0.188,0.519-0.334,0.75c-0.262,0.487-0.628,0.889-1.018,1.253
			c-0.2,0.172-0.405,0.341-0.627,0.486c-0.229,0.154-0.424,0.276-0.742,0.42l0.124-0.052c-1.507,0.879-3.096,1.616-4.709,2.231
			c-1.609,0.64-3.257,1.168-4.917,1.591c-0.828,0.234-1.662,0.434-2.498,0.605c-0.836,0.193-1.674,0.362-2.513,0.514
			c-1.679,0.313-3.363,0.559-5.049,0.77c-3.374,0.411-6.754,0.655-10.13,0.776c-1.688,0.042-3.376,0.083-5.063,0.082
			c-1.686-0.011-3.371-0.032-5.053-0.08c-6.729-0.215-13.429-0.819-20.075-1.788c-1.663-0.233-3.318-0.521-4.974-0.817l-2.487-0.463
			l-0.241-0.046l-0.179-0.054l-0.355-0.108c-0.236-0.063-0.476-0.186-0.707-0.281c-0.466-0.226-0.924-0.503-1.325-0.874
			c-0.831-0.721-1.329-1.783-1.454-2.767c-0.139-0.993,0.015-1.92,0.251-2.775C213.039,442.705,213.869,441.197,214.878,439.846z"/>
	</g>
</g>
</svg>
