<?xml version="1.0" encoding="utf-8"?>
<!-- Generator: Adobe Illustrator 16.0.0, SVG Export Plug-In . SVG Version: 6.00 Build 0)  -->
<!DOCTYPE svg PUBLIC "-//W3C//DTD SVG 1.1//EN" "http://www.w3.org/Graphics/SVG/1.1/DTD/svg11.dtd">
<svg version="1.1" id="Layer_2" xmlns="http://www.w3.org/2000/svg" xmlns:xlink="http://www.w3.org/1999/xlink" x="0px" y="0px"
	 width="500px" height="900px" viewBox="0 0 500 900" enable-background="new 0 0 500 900" xml:space="preserve">
<g>
	<path fill="none" stroke="#1F1813" stroke-width="5" stroke-miterlimit="10" d="M213.642,112.411c0,0,7.227-27.231,0-37.237
		c-7.224-10.003-31.681-55.022,12.229-69.472c0,0,11.67-1.667,20.007,3.89c8.337,5.56,13.408,2.988,19.453,0.695
		c6.045-2.292,8.545-9.17,47.103,0.834c0,0,15.005,2.709,13.963,15.006c-1.041,12.296-4.376,26.261-6.252,35.015
		c-1.875,8.753-12.921,35.43-7.503,58.98c5.419,23.551,16.882,46.756,15.493,80.379c0,0-1.668,39.738-12.505,60.581
		c0,0-4.168,11.669-10.28,10.279c-6.116-1.388-9.449-4.167-9.172-24.176s-3.058-96.429-35.292-113.657
		c0,0-10.281,5.836-18.063,22.509c-7.781,16.673-24.178,37.793-32.791,51.132c0,0-10.838,16.952-12.227,29.456
		c-1.388,12.505-15.561,26.957-24.176,4.168c0,0-7.226-20.841,6.67-54.466C194.192,152.705,211.733,121.587,213.642,112.411z"/>
	<g>
		<path fill="#1F1813" d="M312.338,104.177c-1.138,0.476-2.189,0.844-3.285,1.215c-1.087,0.363-2.182,0.688-3.276,1
			c-2.196,0.61-4.416,1.112-6.655,1.51c-1.118,0.199-2.244,0.362-3.371,0.51c-1.13,0.131-2.262,0.247-3.396,0.321
			c-1.136,0.068-2.271,0.132-3.41,0.125c-1.137,0.021-2.276-0.031-3.413-0.082c-4.539-0.284-9.074-1.179-13.272-2.936
			c-0.521-0.228-1.048-0.438-1.563-0.679l-1.517-0.771c-0.513-0.241-0.983-0.564-1.474-0.846c-0.484-0.293-0.979-0.567-1.433-0.905
			l-1.388-0.971c-0.446-0.344-0.877-0.708-1.315-1.061c-0.897-0.679-1.66-1.515-2.49-2.264l0.051,0.042L250,89.625l11.75,7.911
			l0.052,0.042c0.861,0.665,1.649,1.414,2.563,2.001l1.333,0.92l1.393,0.826c0.454,0.289,0.945,0.515,1.424,0.759
			c0.486,0.231,0.949,0.504,1.453,0.695l1.484,0.621c0.501,0.19,1.014,0.352,1.518,0.529c4.067,1.354,8.365,1.87,12.633,1.82
			c1.068-0.033,2.136-0.062,3.201-0.163c1.065-0.071,2.128-0.213,3.188-0.354c1.06-0.149,2.112-0.338,3.162-0.54
			c1.049-0.219,2.094-0.45,3.13-0.715c2.073-0.529,4.121-1.157,6.13-1.881c1.004-0.367,1.999-0.746,2.979-1.157
			c0.967-0.408,1.968-0.85,2.836-1.293L312.338,104.177z"/>
	</g>
	<g>
		<path fill="#1F1813" d="M217.695,96.417c0,0,0.02,0.017,0.057,0.047c0.005,0.001-0.051-0.021-0.014,0.01
			c0.082,0.063,0.237,0.175,0.5,0.302c0.258,0.128,0.607,0.278,1.055,0.402c0.438,0.133,0.976,0.246,1.586,0.315
			c0.607,0.083,1.297,0.103,2.037,0.095c0.374-0.018,0.758-0.036,1.15-0.056c0.397-0.049,0.805-0.099,1.218-0.15
			c0.826-0.13,1.693-0.278,2.565-0.508c0.438-0.113,0.879-0.229,1.322-0.345l1.321-0.425c0.891-0.268,1.754-0.63,2.616-0.962
			l0.646-0.251c-0.022,0.013,0.063-0.035-0.046,0.027l0.01-0.005l0.02-0.01l0.039-0.02l0.078-0.039l0.156-0.079l0.311-0.157
			c0.413-0.208,0.821-0.414,1.223-0.616c1.604-0.809,3.103-1.563,4.387-2.212c2.568-1.294,4.28-2.158,4.28-2.158
			s-1.549,1.13-3.873,2.824c-1.162,0.848-2.518,1.836-3.97,2.896c-0.363,0.265-0.732,0.533-1.106,0.806l-0.281,0.205l-0.141,0.103
			l-0.071,0.053l-0.036,0.024l-0.018,0.013l-0.009,0.007l-0.066,0.037l-0.618,0.367c-0.83,0.487-1.663,1.009-2.551,1.445
			l-1.32,0.677c-0.454,0.202-0.905,0.404-1.354,0.604c-0.9,0.399-1.829,0.726-2.737,1.025c-0.463,0.136-0.918,0.27-1.364,0.399
			c-0.461,0.1-0.911,0.198-1.351,0.293c-0.893,0.159-1.756,0.277-2.582,0.306c-0.821,0.042-1.597,0.016-2.3-0.07
			c-0.701-0.074-1.33-0.213-1.858-0.366c-0.525-0.15-0.961-0.332-1.272-0.481c-0.16-0.075-0.357-0.195-0.452-0.252
			c-0.06-0.035-0.089-0.052-0.089-0.052L217.695,96.417z"/>
	</g>
</g>
<g>
	<path fill="none" stroke="#1F1813" stroke-width="5" stroke-miterlimit="10" d="M17.514,476.109c0,0-18.559-11.598-12.179-31.316
		c6.379-19.72,26.094-52.774,37.114-53.354c11.02-0.581,26.679,7.538,26.679,7.538s11.019-10.438,15.657-10.438
		c4.64,0,18.561,13.63,22.618,21.459c4.059,7.828,4.933,25.229,0,40.307c-4.931,15.075-4.35,9.566-5.219,25.805
		c-0.869,16.236-1.74,69.881-4.931,80.611c-3.189,10.729-6.959,35.088-6.669,49.582c0.292,14.5-4.06,31.895-24.647,33.346
		c-20.586,1.451-31.025-5.508-38.274-45.523C20.416,554.109,17.514,476.109,17.514,476.109z"/>
	<g>
		<path fill="#1F1813" d="M16.821,473.707c0,0,7.245-1.436,14.49-2.871c0.906-0.181,1.812-0.358,2.703-0.535
			c0.848-0.17,1.755-0.377,2.584-0.563c0.814-0.201,1.582-0.417,2.377-0.646c0.403-0.125,0.821-0.184,1.221-0.231
			c0.392-0.033,0.757-0.033,1.111-0.05c1.398-0.008,2.548,0.015,3.357,0.03c0.808,0.014,1.269,0.021,1.269,0.021
			s-0.456,0.07-1.254,0.192c-0.798,0.121-1.942,0.295-3.293,0.533c-0.678,0.141-1.366,0.256-2.021,0.596
			c-0.683,0.331-1.473,0.708-2.291,1.063c-0.815,0.333-1.608,0.663-2.497,1.007c-0.85,0.324-1.711,0.653-2.573,0.983
			c-6.898,2.637-13.796,5.274-13.796,5.274L16.821,473.707z"/>
	</g>
	<g>
		<path fill="#1F1813" d="M96.128,462.393c0,0-0.12-0.069-0.345-0.2c-0.229-0.128-0.583-0.322-1.041-0.558
			c-0.917-0.472-2.263-1.117-3.927-1.764c-0.832-0.322-1.743-0.64-2.717-0.937c-0.487-0.148-0.991-0.271-1.507-0.413
			c-0.52-0.111-1.048-0.225-1.587-0.341c-1.079-0.177-2.205-0.33-3.338-0.337c-0.568-0.009-1.142-0.011-1.702,0.063
			c-0.262,0.028-0.615,0.046-0.808,0.081l-0.923,0.182c-0.322,0.054-0.593,0.131-0.854,0.21l-0.808,0.229
			c-0.541,0.221-1.105,0.383-1.631,0.649c-1.076,0.46-2.088,1.071-3.073,1.665c-0.979,0.616-1.914,1.247-2.82,1.845
			c-0.901,0.598-1.783,1.142-2.616,1.606c-0.842,0.455-1.641,0.821-2.367,1.093c-0.366,0.122-0.711,0.235-1.028,0.342
			c-0.326,0.074-0.625,0.142-0.896,0.202c-0.533,0.145-0.977,0.134-1.265,0.186c-0.292,0.032-0.447,0.05-0.447,0.05
			s0.152-0.037,0.438-0.104c0.28-0.087,0.711-0.13,1.218-0.337c0.254-0.092,0.537-0.194,0.844-0.306
			c0.293-0.141,0.611-0.292,0.951-0.454c0.666-0.349,1.385-0.795,2.136-1.33c0.745-0.549,1.525-1.177,2.337-1.875
			c0.813-0.693,1.673-1.445,2.594-2.202c0.941-0.74,1.924-1.52,3.044-2.177c0.536-0.36,1.144-0.629,1.724-0.948
			c0.613-0.252,1.305-0.587,1.885-0.762l0.893-0.294c0.409-0.128,0.683-0.162,1.032-0.248c0.664-0.169,1.328-0.255,1.99-0.327
			c1.326-0.156,2.625-0.146,3.877-0.097c0.621,0.055,1.232,0.106,1.83,0.157c0.589,0.085,1.173,0.152,1.733,0.248
			c1.119,0.193,2.167,0.416,3.125,0.655c1.916,0.479,3.476,1.001,4.565,1.396c0.546,0.2,0.973,0.368,1.273,0.49
			c0.301,0.127,0.462,0.195,0.462,0.195L96.128,462.393z"/>
	</g>
	<g>
		<path fill="#1F1813" d="M106.534,431.745c0,0,0.033,0.484,0.054,1.402c0.001,0.914,0.012,2.261-0.118,3.972
			c-0.154,1.707-0.318,3.803-0.884,6.163c-0.218,1.194-0.634,2.432-1.04,3.755l-0.077,0.249l-0.121,0.289l-0.199,0.468
			c-0.135,0.312-0.271,0.628-0.411,0.946c-0.249,0.635-0.63,1.304-0.98,1.984c-0.328,0.64-0.662,1.292-1.003,1.958
			c-0.355,0.643-0.524,1.308-0.807,1.968c-0.147,0.321-0.22,0.682-0.308,1.039c-0.089,0.354-0.179,0.713-0.27,1.073
			c-0.221,0.696-0.288,1.49-0.392,2.271c-0.085,0.791-0.238,1.562-0.275,2.392c-0.035,0.83-0.07,1.67-0.106,2.52
			c-0.108,1.683-0.078,3.451-0.067,5.238c0.004,0.894,0.007,1.794,0.01,2.701c-0.011,0.942-0.021,1.894-0.03,2.85
			c-0.028,1.87-0.057,3.763-0.086,5.671c-0.05,1.909-0.045,3.828-0.141,5.764c-0.129,1.941-0.258,3.891-0.387,5.84
			c-0.274,3.878-0.55,7.757-0.82,11.573c-0.25,3.792-0.541,7.522-0.833,11.134c-0.185,1.804-0.213,3.587-0.334,5.326
			c-0.104,1.742-0.207,3.446-0.307,5.105c-0.181,3.32-0.414,6.458-0.636,9.357c-0.201,2.897-0.439,5.557-0.653,7.914
			c-0.15,2.35-0.325,4.419-0.462,6.111c-0.279,3.393-0.498,5.33-0.498,5.33s-0.218-1.938-0.498-5.33
			c-0.134-1.699-0.316-3.749-0.456-6.125c-0.109-2.365-0.23-5.036-0.304-7.951c-0.095-2.915-0.19-6.073-0.224-9.416
			c-0.025-3.343-0.18-6.871-0.061-10.517c0.115-3.646,0.244-7.415,0.422-11.244c0.139-3.849,0.41-7.681,0.669-11.516
			c0.143-1.918,0.284-3.837,0.427-5.748c0.084-1.929,0.168-3.849,0.252-5.753c0.18-3.809,0.355-7.556,0.527-11.183
			c0.097-1.846,0.13-3.652,0.396-5.453c0.105-0.894,0.211-1.777,0.314-2.651c0.106-0.873,0.34-1.754,0.501-2.61
			c0.182-0.857,0.321-1.701,0.642-2.536c0.139-0.416,0.276-0.828,0.414-1.236c0.131-0.41,0.271-0.813,0.483-1.189
			c0.402-0.749,0.734-1.556,1.182-2.199c0.423-0.654,0.862-1.353,1.23-1.892c0.378-0.577,0.773-1.105,1.104-1.739
			c0.171-0.304,0.34-0.604,0.507-0.899l0.252-0.44l0.063-0.109l0.032-0.054l0.017-0.027c-0.045,0.102-0.006,0.013-0.013,0.027
			l0.1-0.217c0.524-1.157,1.068-2.248,1.424-3.352c0.81-2.162,1.32-4.146,1.733-5.778c0.186-0.825,0.351-1.562,0.493-2.202
			c0.125-0.647,0.231-1.197,0.317-1.645C106.454,432.225,106.534,431.745,106.534,431.745z"/>
	</g>
	<g>
		<path fill="#1F1813" d="M45.933,404.198c0,0,0.562,0.048,1.444-0.1c0.216-0.021,0.461-0.083,0.721-0.146
			c0.258-0.063,0.53-0.111,0.825-0.212c0.58-0.147,1.223-0.386,1.907-0.622c0.341-0.125,0.698-0.281,1.062-0.426
			c0.183-0.07,0.366-0.142,0.554-0.213l0.035-0.014c-0.156,0.041-0.038,0.01-0.07,0.018l0.009-0.004l0.019-0.008l0.075-0.035
			l0.15-0.069l0.305-0.14c0.233-0.097,0.363-0.188,0.489-0.27c0.129-0.08,0.264-0.16,0.43-0.28c0.343-0.237,0.694-0.481,1.05-0.729
			c0.382-0.281,0.929-0.618,1.572-0.914c0.678-0.283,1.479-0.506,2.229-0.523c1.508-0.078,2.79,0.25,3.891,0.615
			c1.119,0.392,2.134,0.841,3.087,1.347c0.494,0.232,0.931,0.509,1.383,0.772l0.667,0.395l0.083,0.049l0.011,0.006
			c0.017,0.008-0.1-0.05-0.046-0.022l0.021,0.012l0.041,0.021l0.108,0.062c0.03,0.015,0.06,0.034,0.087,0.061
			c0.25,0.108,0.592,0.241,0.951,0.319c0.181,0.048,0.358,0.095,0.534,0.141c0.189,0.022,0.378,0.042,0.566,0.074
			c0.744,0.16,1.518,0.112,2.239,0.181c0.747-0.017,1.433-0.032,2.039-0.046c0.627-0.008,1.173-0.091,1.64-0.114
			c0.927-0.068,1.503-0.063,1.503-0.063s-0.385,0.388-1.14,0.99c-0.385,0.282-0.827,0.702-1.417,1.028
			c-0.591,0.324-1.265,0.708-2.051,1.046c-0.815,0.263-1.688,0.629-2.731,0.742c-0.259,0.037-0.521,0.074-0.785,0.112
			c-0.278,0.005-0.561,0.01-0.844,0.015c-0.575,0.029-1.166-0.065-1.854-0.199l-0.603-0.181l-0.23-0.079l-0.224-0.095L65,406.426
			c-0.446-0.171-0.896-0.386-1.336-0.557c-0.894-0.354-1.778-0.732-2.621-1c-0.847-0.323-1.616-0.465-2.146-0.515
			c-0.272-0.026-0.464,0.008-0.728,0.042c-0.281,0.083-0.608,0.205-1.067,0.407c-0.427,0.183-0.942,0.436-1.475,0.604
			c-0.475,0.165-1.239,0.396-1.633,0.427l-0.333,0.041l-0.165,0.021l-0.082,0.01l-0.021,0.003l-0.01,0.001
			c-0.039,0.01,0.073-0.02-0.09,0.022l-0.044,0.002c-0.236,0.01-0.47,0.02-0.698,0.029c-0.46,0.004-0.891,0.038-1.318,0.013
			c-0.857-0.059-1.628-0.138-2.313-0.313c-0.336-0.069-0.653-0.16-0.938-0.273c-0.285-0.104-0.541-0.195-0.768-0.314
			c-0.457-0.196-0.776-0.446-0.988-0.598C46.014,404.305,45.933,404.198,45.933,404.198z"/>
	</g>
	<path fill="none" stroke="#1F1813" stroke-width="5" stroke-miterlimit="10" d="M69.128,398.977c0,0-1.739,2.417-2.608,4.617"/>
	<g>
		<path fill="#1F1813" d="M61.313,400.501c0,0,0.002-0.001,0.007-0.002c-0.006,0.003,0.017-0.008-0.013,0.007
			c-0.042,0.024-0.087,0.05-0.134,0.076c-0.094,0.059-0.198,0.129-0.305,0.222c-0.216,0.18-0.445,0.448-0.604,0.768
			c-0.038,0.074-0.079,0.171-0.101,0.23l-0.034,0.096c-0.022,0.065-0.043,0.139-0.062,0.216c-0.035,0.155-0.06,0.332-0.059,0.52
			c-0.001,0.088,0.007,0.204,0.016,0.271l0.014,0.098c0.011,0.068,0.025,0.141,0.047,0.215c0.136,0.411,0.144,0.352,0.224,0.485
			c0.079,0.102,0.057,0.045,0.098,0.071c0.021-0.022,0.013-0.108-0.053-0.241c-0.045-0.123-0.143-0.288-0.241-0.466
			c-0.423-0.726-1.153-1.744-1.908-2.738c-1.515-1.999-3.142-3.959-3.142-3.959s2.353,0.941,4.696,2.001
			c1.176,0.533,2.339,1.09,3.257,1.635c0.232,0.145,0.443,0.27,0.65,0.425c0.196,0.136,0.396,0.303,0.583,0.492
			c0.116,0.139,0.171,0.174,0.298,0.368c0.126,0.229,0.187,0.242,0.333,0.727c0.026,0.092,0.045,0.181,0.061,0.264l0.021,0.12
			c0.009,0.075,0.016,0.199,0.015,0.293c-0.001,0.201-0.025,0.391-0.063,0.557c-0.019,0.083-0.04,0.161-0.063,0.232l-0.035,0.103
			c-0.022,0.063-0.065,0.162-0.104,0.237c-0.163,0.327-0.398,0.603-0.617,0.788c-0.109,0.094-0.215,0.169-0.311,0.229
			c-0.057,0.033-0.107,0.063-0.152,0.09c-0.003,0.003-0.005,0.005-0.005,0.005L61.313,400.501z"/>
	</g>
</g>
<g>
	<path fill="none" stroke="#1F1813" stroke-width="5" stroke-miterlimit="10" d="M481.985,482.5c0,0,19.913-12.442,13.067-33.602
		c-6.846-21.157-27.999-56.625-39.823-57.247c-11.825-0.622-28.625,8.089-28.625,8.089s-11.825-11.201-16.802-11.201
		c-4.978,0-19.915,14.623-24.271,23.024c-4.355,8.4-5.29,27.07,0,43.247c5.29,16.179,4.667,10.269,5.601,27.688
		c0.935,17.424,1.87,74.981,5.291,86.494s7.467,37.648,7.155,53.204c-0.313,15.56,4.357,34.223,26.445,35.78
		c22.091,1.556,33.292-5.91,41.069-48.847C478.869,566.197,481.985,482.5,481.985,482.5z"/>
	<g>
		<path fill="#1F1813" d="M481.29,484.902c0,0-7.413-2.786-14.827-5.572c-0.928-0.349-1.854-0.695-2.767-1.039
			c-0.952-0.36-1.808-0.712-2.683-1.063c-0.879-0.376-1.728-0.774-2.462-1.126c-0.708-0.361-1.452-0.481-2.18-0.627
			c-1.45-0.247-2.68-0.427-3.535-0.551c-0.857-0.127-1.348-0.199-1.348-0.199s0.495-0.006,1.361-0.016
			c0.867-0.013,2.102-0.028,3.6-0.013c0.38,0.021,0.771,0.021,1.189,0.061c0.426,0.054,0.871,0.117,1.302,0.253
			c0.85,0.251,1.675,0.487,2.548,0.709c0.891,0.203,1.858,0.429,2.771,0.618c0.955,0.193,1.926,0.393,2.896,0.591
			c7.761,1.585,15.521,3.17,15.521,3.17L481.29,484.902z"/>
	</g>
	<g>
		<path fill="#1F1813" d="M395.297,463.154c0,0,0.171-0.072,0.49-0.209c0.32-0.132,0.775-0.313,1.357-0.527
			c1.164-0.429,2.83-0.991,4.877-1.512c1.022-0.26,2.143-0.502,3.338-0.713c0.598-0.104,1.222-0.179,1.852-0.271
			c0.639-0.059,1.291-0.116,1.953-0.177c1.339-0.058,2.727-0.074,4.142,0.087c0.707,0.075,1.416,0.164,2.125,0.343
			c0.372,0.089,0.667,0.126,1.101,0.26l0.958,0.312c0.624,0.186,1.357,0.538,2.015,0.806c0.622,0.34,1.271,0.624,1.847,1.008
			c1.2,0.698,2.255,1.527,3.266,2.316c0.991,0.807,1.918,1.608,2.792,2.351c0.874,0.746,1.715,1.417,2.519,2.002
			c0.809,0.573,1.584,1.048,2.3,1.42c0.365,0.172,0.708,0.334,1.023,0.483c0.329,0.117,0.634,0.226,0.906,0.321
			c0.545,0.222,1.007,0.266,1.31,0.356c0.307,0.072,0.471,0.111,0.471,0.111s-0.167-0.021-0.479-0.057
			c-0.31-0.057-0.783-0.047-1.354-0.204c-0.29-0.065-0.61-0.141-0.96-0.221c-0.34-0.114-0.708-0.238-1.102-0.371
			c-0.777-0.294-1.632-0.688-2.531-1.182c-0.892-0.502-1.832-1.089-2.796-1.734c-0.97-0.645-1.972-1.325-3.019-1.993
			c-1.056-0.641-2.14-1.304-3.297-1.805c-0.563-0.29-1.171-0.468-1.752-0.708l-0.872-0.252c-0.282-0.088-0.573-0.172-0.919-0.231
			l-0.988-0.197c-0.214-0.041-0.59-0.062-0.875-0.094c-0.604-0.082-1.224-0.084-1.837-0.076c-1.223,0.001-2.437,0.16-3.602,0.346
			c-0.581,0.122-1.152,0.242-1.712,0.359c-0.557,0.15-1.101,0.279-1.625,0.437c-1.051,0.315-2.033,0.65-2.932,0.994
			c-1.794,0.687-3.245,1.375-4.235,1.877c-0.494,0.251-0.877,0.458-1.125,0.596c-0.244,0.141-0.375,0.215-0.375,0.215
			L395.297,463.154z"/>
	</g>
	<g>
		<path fill="#1F1813" d="M386.464,434.897c0,0,0.083,0.515,0.237,1.48c0.09,0.479,0.2,1.069,0.329,1.765
			c0.15,0.688,0.322,1.479,0.517,2.366c0.435,1.755,0.971,3.887,1.83,6.215c0.376,1.186,0.955,2.362,1.516,3.61l0.104,0.233
			c-0.007-0.015,0.033,0.074-0.012-0.023l0.019,0.028l0.032,0.059l0.067,0.116l0.269,0.475c0.179,0.317,0.357,0.642,0.54,0.968
			c0.351,0.68,0.772,1.252,1.179,1.875c0.396,0.585,0.86,1.328,1.313,2.031c0.477,0.689,0.825,1.552,1.253,2.352
			c0.227,0.404,0.375,0.833,0.515,1.271c0.146,0.437,0.291,0.877,0.438,1.32c0.34,0.892,0.487,1.795,0.679,2.713
			c0.171,0.916,0.418,1.857,0.529,2.793c0.109,0.937,0.219,1.884,0.331,2.842c0.279,1.927,0.313,3.864,0.412,5.843
			c0.179,3.892,0.363,7.913,0.552,12c0.088,2.044,0.177,4.104,0.266,6.173c0.151,2.052,0.305,4.112,0.456,6.172
			c0.279,4.117,0.571,8.231,0.725,12.358c0.193,4.105,0.339,8.149,0.469,12.061c0.134,3.911-0.021,7.696-0.038,11.281
			c-0.029,3.585-0.119,6.976-0.209,10.104c-0.068,3.127-0.185,5.991-0.291,8.529c-0.139,2.548-0.321,4.748-0.456,6.571
			c-0.277,3.64-0.497,5.72-0.497,5.72s-0.219-2.08-0.497-5.72c-0.138-1.817-0.312-4.036-0.463-6.558
			c-0.218-2.53-0.46-5.384-0.666-8.495c-0.227-3.11-0.466-6.479-0.651-10.042c-0.103-1.78-0.206-3.609-0.313-5.479
			c-0.126-1.867-0.154-3.781-0.348-5.718c-0.308-3.876-0.614-7.88-0.879-11.95c-0.289-4.096-0.582-8.257-0.875-12.418
			c-0.14-2.09-0.277-4.18-0.415-6.262c-0.104-2.076-0.102-4.136-0.155-6.184c-0.033-2.049-0.066-4.079-0.099-6.086
			c-0.014-1.023-0.024-2.041-0.037-3.053c0.002-0.975,0.004-1.941,0.005-2.901c0.008-1.921,0.038-3.819-0.083-5.63
			c-0.042-0.912-0.082-1.815-0.122-2.708c-0.043-0.893-0.21-1.723-0.305-2.572c-0.113-0.843-0.189-1.694-0.431-2.448
			c-0.099-0.389-0.195-0.774-0.294-1.157c-0.096-0.386-0.175-0.772-0.337-1.121c-0.307-0.711-0.493-1.431-0.878-2.12
			c-0.369-0.713-0.729-1.412-1.085-2.099c-0.377-0.726-0.786-1.438-1.056-2.12c-0.15-0.342-0.298-0.681-0.444-1.015l-0.215-0.5
			l-0.128-0.306l-0.084-0.266c-0.439-1.415-0.892-2.736-1.13-4.015c-0.616-2.526-0.807-4.771-0.98-6.599
			c-0.147-1.834-0.146-3.277-0.152-4.258C386.432,435.418,386.464,434.897,386.464,434.897z"/>
	</g>
	<g>
		<path fill="#1F1813" d="M451.49,405.341c0,0-0.09,0.111-0.317,0.288c-0.229,0.158-0.573,0.415-1.063,0.616
			c-0.243,0.123-0.518,0.215-0.822,0.321c-0.305,0.116-0.644,0.208-1.003,0.275c-0.729,0.177-1.552,0.25-2.467,0.302
			c-0.455,0.021-0.914-0.019-1.404-0.028c-0.243-0.013-0.491-0.026-0.744-0.039l-0.048-0.003l-0.091-0.022l-0.011-0.001
			l-0.021-0.003l-0.089-0.012l-0.176-0.022l-0.355-0.049c-0.215-0.014-0.521-0.092-0.835-0.184
			c-0.313-0.084-0.626-0.178-0.892-0.279c-0.563-0.183-1.108-0.454-1.566-0.651c-0.488-0.222-0.85-0.36-1.163-0.457
			c-0.298-0.046-0.525-0.089-0.836-0.063c-0.604,0.049-1.448,0.208-2.364,0.557c-0.915,0.292-1.869,0.699-2.83,1.085
			c-0.475,0.185-0.956,0.417-1.435,0.604l-0.714,0.297l-0.234,0.102l-0.241,0.084l-0.628,0.189
			c-0.722,0.144-1.346,0.246-1.955,0.219c-0.302-0.003-0.6-0.006-0.895-0.01c-0.281-0.038-0.561-0.076-0.834-0.113
			c-1.108-0.11-2.041-0.492-2.914-0.763c-0.842-0.35-1.564-0.75-2.2-1.085c-0.633-0.339-1.112-0.777-1.528-1.071
			c-0.814-0.626-1.234-1.027-1.234-1.027s0.61,0.009,1.6,0.103c0.497,0.034,1.079,0.136,1.751,0.156
			c0.651,0.025,1.386,0.054,2.188,0.086c0.778-0.062,1.612,0,2.422-0.161c0.203-0.032,0.408-0.051,0.614-0.072
			c0.192-0.048,0.389-0.097,0.585-0.146c0.395-0.08,0.77-0.222,1.053-0.338c0.351-0.206,0.708-0.415,1.068-0.626
			c0.484-0.28,0.954-0.573,1.482-0.821c1.021-0.536,2.104-1.016,3.295-1.431c1.172-0.391,2.528-0.735,4.11-0.655
			c0.784,0.017,1.622,0.249,2.336,0.544c0.678,0.309,1.256,0.663,1.668,0.962c0.389,0.264,0.77,0.524,1.143,0.779
			c0.183,0.127,0.332,0.213,0.479,0.299c0.14,0.088,0.285,0.185,0.534,0.285l0.328,0.146l0.162,0.072l0.08,0.036l0.021,0.009
			l0.01,0.004c0.074,0.021-0.09-0.021-0.069-0.017l0.038,0.014c0.202,0.076,0.402,0.149,0.599,0.224
			c0.394,0.149,0.779,0.313,1.148,0.441c0.741,0.242,1.436,0.486,2.062,0.632c0.317,0.104,0.61,0.149,0.89,0.21
			c0.279,0.063,0.543,0.122,0.774,0.14C450.897,405.407,451.49,405.341,451.49,405.341z"/>
	</g>
	<path fill="none" stroke="#1F1813" stroke-width="5" stroke-miterlimit="10" d="M426.604,399.74c0,0,1.865,2.593,2.798,4.953"/>
	<g>
		<path fill="#1F1813" d="M432.586,405.967c0,0-0.002-0.001-0.007-0.005c-0.045-0.025-0.097-0.056-0.152-0.089
			c-0.097-0.06-0.201-0.135-0.312-0.229c-0.22-0.187-0.455-0.463-0.617-0.791c-0.039-0.076-0.083-0.177-0.104-0.237l-0.035-0.103
			c-0.021-0.072-0.043-0.149-0.062-0.233c-0.037-0.167-0.063-0.356-0.063-0.559c-0.001-0.095,0.007-0.22,0.016-0.292l0.021-0.121
			c0.016-0.083,0.036-0.172,0.062-0.267c0.147-0.484,0.209-0.502,0.339-0.732c0.128-0.198,0.187-0.237,0.305-0.378
			c0.192-0.198,0.398-0.375,0.605-0.521c0.218-0.165,0.438-0.3,0.684-0.456c0.967-0.591,2.199-1.206,3.446-1.794
			c2.483-1.172,4.98-2.219,4.98-2.219s-1.771,2.066-3.428,4.177c-0.825,1.049-1.625,2.125-2.099,2.897
			c-0.109,0.188-0.219,0.364-0.272,0.498c-0.075,0.142-0.091,0.237-0.075,0.268c0.038-0.021,0.012,0.039,0.089-0.06
			c0.079-0.131,0.085-0.067,0.221-0.476c0.021-0.075,0.036-0.146,0.048-0.213l0.014-0.097c0.008-0.066,0.017-0.184,0.016-0.271
			c0.001-0.187-0.021-0.363-0.058-0.518c-0.018-0.077-0.038-0.149-0.062-0.215l-0.033-0.096c-0.021-0.057-0.063-0.155-0.101-0.229
			c-0.157-0.32-0.388-0.589-0.602-0.771c-0.108-0.091-0.212-0.163-0.307-0.221c-0.047-0.026-0.092-0.052-0.134-0.076
			c-0.028-0.016-0.008-0.004-0.014-0.007c0.005,0.001,0.008,0.002,0.008,0.002L432.586,405.967z"/>
	</g>
</g>
<g>
	<path fill="none" stroke="#1F1813" stroke-width="5" stroke-miterlimit="10" d="M190.688,686.386c0,0,4.448-16.118,0-35.014
		c-4.445-18.896-10.004-65.026-10.004-65.026s-2.221-10.279,14.452-10.279c16.672,0,16.672-11.113,28.344-11.671
		c11.672-0.557,15.282,12.782,30.566,11.114c15.287-1.668,35.292-14.172,47.242,6.948c11.948,21.119,1.947,43.907-4.445,51.132
		c-6.391,7.224-16.119,26.675-2.78,56.967c13.339,30.29,37.234,80.031,33.623,106.154c-3.611,26.12-15.84,24.175-15.84,24.175
		s-7.78-1.388-9.447-11.948c-1.668-10.56-5.836-33.069-18.34-46.407c-12.505-13.338-25.852-46.13-29.737-52.521
		c-3.885-6.392-13.891-19.174-24.728-0.833c-10.838,18.341-25.843,51.131-25.843,94.204c0,43.07-15.844,30.566-19.455,22.509
		c-3.612-8.061-19.452-51.966-8.615-95.316C175.681,730.573,181.517,706.392,190.688,686.386z"/>
	<g>
		<path fill="#1F1813" d="M246.128,696.531c-0.938-1.316-2.185-2.401-3.595-3.063c-1.406-0.675-2.954-0.908-4.448-0.721
			c-2.998,0.495-5.673,2.229-7.944,4.354c-2.354,2.182-4.919,4.303-7.316,6.398c-2.417,2.102-4.672,4.289-6.688,6.651
			c-1.038,1.158-1.919,2.435-2.822,3.687c-0.451,0.627-0.814,1.314-1.227,1.967c-0.396,0.663-0.823,1.306-1.146,2.014
			c-0.702,1.382-1.452,2.731-2.007,4.192l-0.905,2.147l-0.751,2.223l-0.743,2.222l-0.602,2.281l-0.602,2.276
			c-0.187,0.765-0.333,1.543-0.502,2.313l-0.492,2.316l-0.247,1.158l-0.186,1.177l-0.738,4.702
			c-0.208,1.576-0.355,3.165-0.536,4.747c-0.185,1.592-0.341,3.146-0.483,4.771c-0.302,3.216-0.535,6.38-0.733,9.599
			c-0.212,3.204-0.322,6.416-0.477,9.629c-0.149,3.213-0.252,6.433-0.338,9.655l-0.253,9.69c-0.103,3.237-0.203,6.483-0.393,9.75
			c-0.222,3.265-0.499,6.546-1.212,9.854c-0.38,1.646-0.846,3.327-1.763,4.912c-0.195,0.402-0.521,0.771-0.779,1.149
			c-0.324,0.35-0.63,0.72-1.022,1.012c-0.741,0.644-1.689,1.004-2.605,1.229l0.13-0.041c-0.485,0.154-0.817,0.178-1.219,0.203
			c-0.383,0.009-0.762-0.007-1.132-0.075c-0.375-0.039-0.726-0.177-1.081-0.274c-0.331-0.157-0.685-0.275-0.981-0.479
			c-0.301-0.197-0.621-0.366-0.876-0.61c-0.261-0.235-0.555-0.438-0.77-0.708c-0.226-0.261-0.469-0.505-0.674-0.774l-0.576-0.832
			c-0.204-0.268-0.33-0.579-0.498-0.865c-0.148-0.296-0.331-0.573-0.452-0.881c-0.238-0.612-0.524-1.203-0.705-1.83
			c-0.181-0.626-0.405-1.232-0.545-1.864l-0.428-1.885l0.688,1.8c0.224,0.599,0.53,1.162,0.79,1.74
			c0.256,0.581,0.621,1.104,0.917,1.656c0.146,0.277,0.351,0.519,0.521,0.777c0.188,0.247,0.336,0.523,0.552,0.744l0.605,0.687
			c0.21,0.218,0.447,0.401,0.666,0.604c0.211,0.215,0.477,0.345,0.711,0.516c0.23,0.18,0.504,0.273,0.754,0.403
			c0.249,0.137,0.528,0.177,0.783,0.277c0.27,0.039,0.531,0.124,0.799,0.118c0.266,0.025,0.53,0.006,0.786-0.022
			c0.238-0.032,0.543-0.109,0.665-0.168l0.13-0.041c1.274-0.419,2.207-1.349,2.771-2.666c0.575-1.294,0.911-2.786,1.132-4.311
			c0.431-3.063,0.438-6.27,0.449-9.464c0.012-3.202-0.065-6.427-0.141-9.657c-0.092-3.23-0.136-6.473-0.154-9.718
			c-0.021-3.246-0.024-6.497,0.02-9.751c0.048-3.254,0.175-6.508,0.338-9.762c0.164-3.241,0.371-6.533,0.639-9.763
			c0.107-1.603,0.305-3.262,0.509-4.882c0.204-1.63,0.375-3.262,0.608-4.89l0.82-4.876l0.206-1.219l0.271-1.212l0.542-2.425
			c0.19-0.806,0.34-1.619,0.564-2.419l0.715-2.393l0.716-2.389l0.873-2.354l0.884-2.346l1.052-2.292
			c0.653-1.546,1.512-3.008,2.336-4.479c0.395-0.745,0.897-1.431,1.371-2.131c0.488-0.69,0.93-1.413,1.458-2.073
			c1.061-1.318,2.101-2.649,3.29-3.845c0.569-0.621,1.151-1.227,1.775-1.783c0.618-0.563,1.208-1.161,1.847-1.69l1.921-1.581
			l1.957-1.499l7.799-5.775c2.64-2.007,5.792-3.751,9.296-3.876c1.732-0.013,3.467,0.454,4.872,1.39
			C244.281,693.8,245.383,695.094,246.128,696.531z"/>
	</g>
	<path fill="none" stroke="#1F1813" stroke-width="5" stroke-miterlimit="10" d="M192.457,663.265c0,0,4.482-5.084,11.568-4.249
		c7.087,0.834,12.088,10.003,26.262,8.337c14.173-1.667,37.272-12.104,57.401,0.202"/>
	<g>
		<path fill="#1F1813" d="M218.668,567.858c0,0-0.348,0.38-0.955,1.046c-0.622,0.675-1.493,1.603-2.578,2.701
			c-1.071,1.104-2.369,2.354-3.771,3.671c-0.721,0.644-1.466,1.306-2.224,1.979c-0.793,0.641-1.599,1.291-2.405,1.94
			c-0.835,0.623-1.725,1.196-2.563,1.778l-0.079,0.054l-0.092,0.063l-0.042,0.021l-0.165,0.086l-0.328,0.172l-0.658,0.338
			c-0.519,0.192-1.023,0.435-1.521,0.551c-0.499,0.121-0.979,0.255-1.47,0.292c-0.48,0.077-0.955,0.089-1.414,0.085
			c-0.916,0.001-1.765-0.134-2.524-0.308c-1.521-0.367-2.683-0.922-3.46-1.35c-0.778-0.432-1.177-0.742-1.177-0.742
			s0.443,0.246,1.267,0.547c0.82,0.298,2.03,0.653,3.492,0.773c0.729,0.049,1.52,0.05,2.329-0.079
			c0.404-0.06,0.813-0.134,1.219-0.268c0.413-0.094,0.805-0.278,1.206-0.442c0.404-0.161,0.734-0.408,1.107-0.597l0.589-0.431
			l0.297-0.22l0.148-0.11l0.038-0.026c-0.102,0.066-0.022,0.015-0.044,0.026l0.008-0.008l0.017-0.016l0.065-0.063
			c0.696-0.669,1.416-1.307,2.098-2.002c0.659-0.728,1.319-1.455,1.969-2.171c0.618-0.751,1.226-1.49,1.813-2.205
			c1.141-1.468,2.188-2.846,3.046-4.062c0.866-1.202,1.571-2.235,2.042-2.94c0.478-0.721,0.749-1.133,0.749-1.133L218.668,567.858z"
			/>
	</g>
	<g>
		<path fill="#1F1813" d="M241.033,570.099c0,0,0.118,0.198,0.342,0.568c0.24,0.383,0.619,0.954,1.146,1.658
			c0.523,0.707,1.201,1.544,2.036,2.453c0.838,0.905,1.833,1.885,3.006,2.846c1.176,0.952,2.51,1.924,4.038,2.729
			c1.505,0.864,3.217,1.506,5.032,2.021c0.461,0.104,0.925,0.209,1.394,0.313l0.354,0.08l0.044,0.01
			c0.063,0.009-0.063-0.005-0.041-0.003l0.024,0.003l0.097,0.013l0.192,0.025l0.777,0.103c1.078,0.176,2.007,0.185,2.987,0.243
			c2.008,0.012,4.048-0.235,6.065-0.749c2.022-0.502,4.023-1.261,6.064-1.978c2.035-0.717,4.144-1.355,6.255-1.604
			c0.521-0.093,1.052-0.095,1.57-0.126c0.52-0.043,1.034-0.025,1.543,0.005c1.011,0.004,2.042,0.175,2.958,0.396
			c1.872,0.43,3.558,1.095,5.043,1.827c1.491,0.729,2.756,1.578,3.808,2.403c0.524,0.417,1.011,0.81,1.418,1.221
			c0.424,0.393,0.807,0.758,1.114,1.126c0.657,0.695,1.106,1.294,1.407,1.708c0.306,0.407,0.469,0.624,0.469,0.624
			s-0.18-0.205-0.514-0.589c-0.326-0.392-0.816-0.952-1.516-1.593c-0.329-0.341-0.732-0.674-1.177-1.029
			c-0.429-0.374-0.934-0.725-1.475-1.095c-1.084-0.731-2.371-1.468-3.859-2.064c-1.48-0.603-3.146-1.123-4.943-1.401
			c-0.911-0.148-1.791-0.232-2.742-0.169c-0.474,0.005-0.948,0.023-1.425,0.101c-0.477,0.063-0.958,0.097-1.435,0.219
			c-1.921,0.367-3.823,1.093-5.763,1.938c-1.94,0.841-3.949,1.776-6.104,2.481c-2.147,0.715-4.426,1.166-6.693,1.313
			c-1.156,0.024-2.353,0.064-3.356-0.027l-0.782-0.046l-0.194-0.013l-0.099-0.005l-0.165-0.02l-0.411-0.062
			c-0.549-0.082-1.093-0.164-1.634-0.244c-2.137-0.437-4.187-1.052-5.996-1.916c-1.839-0.812-3.455-1.813-4.884-2.81
			c-1.426-1.006-2.643-2.043-3.676-3.009c-1.029-0.97-1.875-1.871-2.541-2.646c-0.669-0.771-1.165-1.411-1.5-1.868
			c-0.164-0.215-0.311-0.437-0.398-0.562c-0.078-0.115-0.119-0.174-0.119-0.174L241.033,570.099z"/>
	</g>
</g>
<g>
	<path fill="none" stroke="#1F1813" stroke-width="5" stroke-miterlimit="10" d="M190.579,425.881c0,0-5.958-26.291,16.193-33.57
		c22.155-7.281,32.404-3.112,46.035,4.808c13.635,7.919,31.142-0.97,46.98,20.564c15.84,21.536,8.337,31.541,10.006,51.132
		c1.666,19.59-9.59,35.848-51.273,31.261c-41.682-4.583-53.354-20.424-58.354-29.595
		C195.164,461.31,190.579,454.223,190.579,425.881z"/>
	<g>
		<path fill="#1F1813" d="M203.085,427.548c0.408,3.479,1.298,6.875,2.662,10.003c0.689,1.559,1.501,3.05,2.479,4.397
			c0.969,1.355,2.116,2.546,3.371,3.56c2.522,2.032,5.625,3.111,8.828,3.356c0.395,0.061,0.807,0.039,1.208,0.064l0.604,0.021
			c0.113,0.002,0.408-0.017,0.604-0.024c0.755-0.056,1.464-0.172,2.166-0.373c1.385-0.406,2.535-1.106,3.585-2.108
			c0.53-0.503,1.022-1.091,1.617-1.763c0.303-0.34,0.621-0.708,1.083-1.128c0.467-0.393,1.108-0.975,2.316-1.19
			c0.295-0.049,0.595-0.06,0.896-0.033l0.112,0.01l0.056,0.005l0.256,0.049l0.08,0.019l0.16,0.038
			c0.324,0.085,0.924,0.324,1.066,0.405c0.499,0.229,0.907,0.448,1.322,0.674c0.823,0.448,1.593,0.904,2.36,1.364
			c3.042,1.857,5.951,3.799,8.854,5.755c2.893,1.968,5.758,3.958,8.61,5.943l4.271,2.957c1.418,0.971,2.86,1.928,4.272,2.713
			l0.566,0.315l0.179,0.361c1.266,2.572,2.606,5.115,3.855,7.708c0.638,1.291,1.285,2.572,1.902,3.878
			c0.319,0.646,0.65,1.282,0.956,1.939l0.979,1.937c-1.015-1.037-1.974-2.14-2.889-3.263c-0.92-1.121-1.817-2.262-2.682-3.42
			c-1.774-2.291-3.404-4.666-5.074-7.031l0.744,0.678c-1.739-0.734-3.313-1.558-4.885-2.396c-1.573-0.831-3.099-1.725-4.614-2.621
			c-3.029-1.799-5.988-3.68-8.927-5.575l-8.726-5.696c-0.717-0.463-1.438-0.922-2.139-1.333c-0.346-0.205-0.704-0.408-0.995-0.553
			c-0.246-0.119-0.055-0.037-0.139-0.104l-0.157-0.047l-0.079-0.022l0.261,0.047c0.082,0.002,0.163-0.003,0.241-0.016
			c0.333-0.09,0.231-0.133,0.038,0.032c-0.198,0.154-0.478,0.429-0.771,0.728c-0.592,0.609-1.281,1.315-2.072,1.96
			c-0.785,0.649-1.681,1.239-2.638,1.699c-0.963,0.452-1.987,0.755-3.005,0.934c-1.006,0.176-2.046,0.229-3.038,0.188
			c-0.946-0.054-1.88-0.142-2.815-0.272c-1.872-0.257-3.716-0.846-5.442-1.646c-1.726-0.812-3.319-1.899-4.686-3.197
			c-1.377-1.291-2.488-2.813-3.4-4.403c-0.905-1.598-1.616-3.278-2.135-4.999c-0.508-1.726-0.858-3.479-1.081-5.236
			C203.068,431.069,202.967,429.302,203.085,427.548z"/>
	</g>
	<g>
		<path fill="#1F1813" d="M229.91,444.502c0,0,0.049-0.053,0.141-0.149c0.068-0.062,0.205-0.226,0.375-0.424
			c0.333-0.417,0.82-1.04,1.341-1.859c0.521-0.816,1.102-1.81,1.625-2.936c0.278-0.558,0.525-1.151,0.771-1.764
			c0.269-0.604,0.448-1.249,0.683-1.885c0.209-0.641,0.374-1.297,0.563-1.941c0.145-0.656,0.286-1.303,0.425-1.928
			c0.1-0.636,0.195-1.252,0.288-1.835c0.104-0.587,0.113-1.146,0.171-1.666c0.039-0.518,0.103-0.998,0.097-1.42
			c0.009-0.425,0.018-0.796,0.023-1.101c0.012-0.614,0.019-0.965,0.019-0.965s0.071,0.343,0.195,0.943
			c0.062,0.302,0.137,0.669,0.224,1.09c0.102,0.421,0.146,0.903,0.224,1.43c0.061,0.526,0.178,1.1,0.206,1.71
			c0.043,0.612,0.086,1.26,0.132,1.93c0.004,0.675,0.008,1.373,0.013,2.082c-0.042,0.708-0.06,1.436-0.126,2.161
			c-0.091,0.72-0.133,1.457-0.271,2.165c-0.112,0.714-0.234,1.418-0.397,2.093c-0.293,1.358-0.685,2.609-1.065,3.678
			c-0.38,1.069-0.786,1.947-1.088,2.569c-0.162,0.313-0.283,0.553-0.408,0.756c-0.098,0.168-0.149,0.258-0.149,0.258L229.91,444.502
			z"/>
	</g>
	<g>
		<path fill="#1F1813" d="M259.91,462.785c0,0-0.009-0.097-0.023-0.275c-0.012-0.215-0.029-0.528-0.052-0.93
			c-0.031-0.425-0.014-0.855-0.001-1.36c0.018-0.504,0.012-1.079,0.08-1.679c0.054-0.604,0.11-1.257,0.173-1.946
			c0.078-0.685,0.202-1.396,0.309-2.131c0.118-0.734,0.205-1.496,0.385-2.251c0.16-0.758,0.323-1.524,0.486-2.293
			c0.151-0.769,0.329-1.528,0.545-2.268c0.202-0.74,0.399-1.467,0.592-2.172c0.198-0.701,0.36-1.383,0.567-2.018
			c0.209-0.633,0.407-1.23,0.59-1.783c0.729-2.196,1.215-3.661,1.215-3.661s-0.181,1.53-0.45,3.824
			c-0.066,0.57-0.141,1.188-0.217,1.843c-0.072,0.653-0.095,1.351-0.146,2.064c-0.045,0.715-0.092,1.451-0.14,2.201
			c-0.063,0.747-0.08,1.507-0.074,2.268c-0.004,0.756-0.01,1.513-0.015,2.257c-0.022,0.742,0.044,1.469,0.074,2.169
			c0.043,0.7,0.063,1.377,0.118,2.01c0.072,0.628,0.141,1.221,0.204,1.77c0.048,0.551,0.157,1.025,0.229,1.455
			c0.076,0.427,0.141,0.81,0.216,1.048c0.068,0.265,0.122,0.473,0.159,0.614c0.053,0.174,0.079,0.266,0.079,0.266L259.91,462.785z"
			/>
	</g>
	<g>
		<path fill="#1F1813" d="M264.927,461.326c1.518-0.021,3.156-0.165,4.735-0.362c1.589-0.209,3.179-0.478,4.731-0.86
			c0.396-0.085,0.771-0.205,1.16-0.307s0.772-0.214,1.147-0.345c0.768-0.232,1.504-0.525,2.244-0.824
			c0.371-0.147,0.716-0.337,1.077-0.504c0.367-0.161,0.712-0.354,1.047-0.562c0.331-0.211,0.706-0.381,1.008-0.628l0.958-0.703
			l-0.097,0.12l4.76-6.195l-3.575,6.945l-0.021,0.04l-0.076,0.08l-0.903,0.96c-0.294,0.338-0.649,0.587-0.976,0.887
			c-0.33,0.295-0.67,0.574-1.029,0.82c-0.356,0.252-0.705,0.528-1.074,0.762c-0.736,0.467-1.483,0.932-2.258,1.33
			c-0.383,0.215-0.771,0.411-1.165,0.594c-0.395,0.185-0.783,0.39-1.185,0.556c-1.59,0.713-3.223,1.304-4.878,1.835
			c-1.67,0.521-3.312,0.979-5.102,1.335L264.927,461.326z"/>
	</g>
	<g>
		<path fill="#1F1813" d="M238.724,420.461c0,0,0.176-0.032,0.506-0.094c0.162-0.041,0.367-0.042,0.635-0.021
			c0.131,0.009,0.286,0.009,0.437,0.034c0.145,0.037,0.298,0.075,0.46,0.116c0.654,0.174,1.416,0.526,2.164,1.021
			c0.763,0.481,1.544,1.09,2.354,1.675c0.81,0.587,1.659,1.158,2.538,1.553c0.22,0.104,0.438,0.199,0.663,0.267
			c0.222,0.082,0.442,0.16,0.672,0.193c0.228,0.048,0.449,0.11,0.686,0.12l0.346,0.039l0.086,0.011l0.043,0.007l0.011,0.001
			c-0.461-0.043-0.119-0.013-0.218-0.022l0.03-0.001l0.242-0.007l0.486-0.015l0.238-0.01l0.052-0.056
			c0.076-0.082,0.086-0.024,0.274-0.149c0.148-0.081,0.303-0.136,0.467-0.285c0.08-0.063,0.166-0.115,0.251-0.17l0.267-0.24
			c0.717-0.649,1.503-1.629,2.405-2.729c0.461-0.542,0.985-1.123,1.595-1.705c0.318-0.292,0.68-0.587,1.056-0.858l0.657-0.392
			c0.211-0.13,0.442-0.248,0.723-0.34c0.265-0.098,0.531-0.188,0.797-0.271c0.273-0.069,0.575-0.091,0.863-0.124
			c0.593-0.083,1.132,0.024,1.673,0.122c0.806,0.172,1.344,0.356,1.849,0.467c1.104,0.251,2.342,0.466,3.499,0.686
			c1.166,0.221,2.313,0.472,3.367,0.775c1.053,0.292,2.034,0.696,2.854,1.135c0.821,0.47,1.483,1.002,1.897,1.559
			c0.235,0.239,0.359,0.537,0.478,0.765c0.129,0.221,0.178,0.437,0.217,0.606c0.081,0.339,0.107,0.508,0.107,0.508
			s-0.124-0.127-0.357-0.365c-0.107-0.118-0.235-0.259-0.439-0.373c-0.197-0.116-0.37-0.28-0.643-0.378
			c-0.249-0.119-0.521-0.232-0.853-0.298c-0.306-0.094-0.674-0.14-1.041-0.197c-0.772-0.076-1.635-0.125-2.63-0.091
			c-1.009,0.034-2.102,0.069-3.258,0.108c-1.195,0.029-2.447,0.063-3.895-0.059c-0.777-0.045-1.506-0.215-2.01-0.249
			c-0.116,0.015-0.238-0.029-0.313,0.039c-0.043,0.019-0.083,0-0.132,0.021c-0.05,0.036-0.1,0.064-0.151,0.085
			c-0.438,0.184-1.275,1.039-2.093,2.049c-0.868,0.994-1.791,2.197-3.174,3.266l-0.523,0.396l-0.607,0.356
			c-0.389,0.243-0.861,0.417-1.332,0.575c-0.412,0.178-1.077,0.257-1.641,0.311l-0.432,0.028l-0.248-0.027l-0.484-0.058
			l-0.239-0.029l-0.03-0.003l-0.248-0.023l-0.019-0.005l-0.075-0.021l-0.148-0.04l-0.586-0.162c-0.393-0.091-0.756-0.26-1.113-0.419
			c-0.364-0.146-0.694-0.337-1.015-0.533c-0.331-0.182-0.627-0.39-0.899-0.613c-1.123-0.864-1.926-1.823-2.578-2.686
			c-1.281-1.738-2.074-3.136-2.936-3.857c-0.213-0.188-0.407-0.344-0.588-0.449c-0.177-0.125-0.354-0.23-0.519-0.275
			C238.89,420.527,238.724,420.461,238.724,420.461z"/>
	</g>
	<g>
		<path fill="#1F1813" d="M219.494,478.4c0,0,1.288,0.644,3.544,1.703c1.132,0.514,2.507,1.138,4.083,1.854
			c1.579,0.7,3.377,1.444,5.326,2.256c1.958,0.796,4.099,1.599,6.364,2.408c2.267,0.813,4.671,1.603,7.173,2.339
			c1.248,0.38,2.533,0.693,3.82,1.063c1.305,0.287,2.609,0.649,3.942,0.912c1.329,0.281,2.671,0.546,4.023,0.756
			c1.349,0.257,2.71,0.407,4.071,0.568c1.359,0.188,2.725,0.231,4.081,0.357c1.354,0.004,2.711,0.119,4.049,0.073
			c1.336-0.058,2.671-0.037,3.971-0.188c0.653-0.058,1.304-0.113,1.947-0.17c0.639-0.095,1.272-0.188,1.901-0.282
			c0.627-0.104,1.262-0.162,1.87-0.304c0.609-0.137,1.215-0.271,1.813-0.404c1.216-0.217,2.345-0.622,3.476-0.941
			c1.146-0.284,2.184-0.76,3.229-1.135c1.06-0.351,2.025-0.817,2.958-1.266c0.47-0.222,0.93-0.438,1.38-0.648
			c0.456-0.203,0.853-0.485,1.274-0.702c0.834-0.465,1.626-0.905,2.369-1.319c1.39-0.975,2.688-1.748,3.688-2.479
			c1.953-1.518,3.136-2.365,3.136-2.365s-0.854,1.141-2.466,3.102c-0.836,0.947-1.938,2.023-3.209,3.272
			c-1.382,1.102-2.863,2.505-4.76,3.641c-0.919,0.613-1.88,1.26-2.949,1.795c-1.058,0.558-2.142,1.176-3.333,1.632
			c-1.178,0.488-2.385,1.022-3.676,1.391c-0.644,0.2-1.291,0.402-1.946,0.606c-0.657,0.2-1.339,0.316-2.018,0.48
			c-0.684,0.147-1.368,0.319-2.065,0.447c-0.702,0.1-1.408,0.198-2.119,0.299c-1.421,0.245-2.871,0.292-4.332,0.388
			c-1.461,0.088-2.932,0.039-4.409,0.03c-1.467-0.117-2.952-0.15-4.414-0.344c-1.465-0.188-2.93-0.367-4.365-0.654
			c-1.449-0.229-2.862-0.584-4.268-0.918c-2.804-0.686-5.506-1.544-8.064-2.498c-2.563-0.943-4.981-1.995-7.227-3.074
			c-1.125-0.533-2.196-1.099-3.233-1.639c-1.021-0.577-2.015-1.111-2.945-1.666c-1.878-1.078-3.542-2.162-4.99-3.155
			c-1.459-0.975-2.677-1.905-3.674-2.674C220.533,479.398,219.494,478.4,219.494,478.4z"/>
	</g>
	<g>
		<path fill="#1F1813" d="M226.857,449.196c0,0,1.29,1.862,3.225,4.655c0.974,1.387,2.109,3.006,3.328,4.74
			c1.207,1.745,2.541,3.566,3.871,5.396c1.331,1.831,2.663,3.661,3.911,5.378c1.246,1.722,2.51,3.229,3.545,4.578
			c2.104,2.674,3.507,4.457,3.507,4.457s-1.634-1.572-4.082-3.931c-1.213-1.192-2.697-2.539-4.169-4.074
			c-1.479-1.534-3.054-3.17-4.63-4.806c-1.577-1.638-3.162-3.271-4.604-4.841c-1.454-1.561-2.812-3.018-3.973-4.266
			c-2.307-2.506-3.843-4.177-3.843-4.177L226.857,449.196z"/>
	</g>
	<g>
		<path fill="#1F1813" d="M216.103,451.653c0,0-0.146,0.022-0.4,0.063c-0.266,0.05-0.645,0.122-1.098,0.208
			c-0.914,0.186-2.13,0.475-3.325,0.842c-1.194,0.363-2.362,0.817-3.189,1.268c-0.217,0.104-0.388,0.228-0.555,0.326
			c-0.169,0.101-0.308,0.196-0.412,0.285c-0.224,0.176-0.351,0.276-0.351,0.276s0.066-0.149,0.184-0.41
			c0.056-0.137,0.136-0.294,0.241-0.466c0.104-0.173,0.215-0.386,0.362-0.585c0.561-0.845,1.452-1.872,2.413-2.825
			c0.96-0.957,1.98-1.85,2.771-2.496c0.401-0.321,0.736-0.588,0.971-0.776c0.249-0.187,0.392-0.293,0.392-0.293L216.103,451.653z"/>
	</g>
</g>
</svg>
